<?xml version="1.0" encoding="UTF-8" standalone="no"?>
<!DOCTYPE svg PUBLIC "-//W3C//DTD SVG 1.1//EN"
 "http://www.w3.org/Graphics/SVG/1.1/DTD/svg11.dtd">
<!-- Generated by graphviz version 2.40.1 (0)
 -->
<!-- Title: G Pages: 1 -->
<svg width="1105pt" height="305pt"
 viewBox="0.00 0.00 1105.22 305.00" xmlns="http://www.w3.org/2000/svg" xmlns:xlink="http://www.w3.org/1999/xlink">
<g id="graph0" class="graph" transform="scale(1 1) rotate(0) translate(4 301)">
<title>G</title>
<polygon fill="#ffffff" stroke="transparent" points="-4,4 -4,-301 1101.2199,-301 1101.2199,4 -4,4"/>
<!-- state -->
<g id="node1" class="node">
<title>state</title>
<ellipse fill="#ffffe0" stroke="#000000" cx="695.0751" cy="-279" rx="34.394" ry="18"/>
<text text-anchor="middle" x="695.0751" y="-275.3" font-family="Bitstream Vera Sans" font-size="14.00" fill="#000000">state</text>
</g>
<!-- boundary -->
<g id="node2" class="node">
<title>boundary</title>
<ellipse fill="#ffffe0" stroke="#000000" cx="370.0751" cy="-192" rx="55.4913" ry="18"/>
<text text-anchor="middle" x="370.0751" y="-188.3" font-family="Bitstream Vera Sans" font-size="14.00" fill="#000000">boundary</text>
</g>
<!-- boundary&#45;&gt;state -->
<g id="edge1" class="edge">
<title>boundary&#45;&gt;state</title>
<path fill="none" stroke="#000000" d="M412.049,-203.9069C419.3852,-205.9589 426.9485,-208.0559 434.0751,-210 511.8625,-231.2197 602.9665,-255.0793 654.3624,-268.4483"/>
<polygon fill="none" stroke="#000000" points="653.5375,-271.8502 664.0964,-270.9784 655.2985,-265.0753 653.5375,-271.8502"/>
<text text-anchor="middle" x="570.0751" y="-231.8" font-family="Times,serif" font-size="14.00" fill="#000000">is_a</text>
</g>
<!-- mesoscopic -->
<g id="node3" class="node">
<title>mesoscopic</title>
<ellipse fill="#ffffe0" stroke="#000000" cx="509.0751" cy="-192" rx="65.7887" ry="18"/>
<text text-anchor="middle" x="509.0751" y="-188.3" font-family="Bitstream Vera Sans" font-size="14.00" fill="#000000">mesoscopic</text>
</g>
<!-- mesoscopic&#45;&gt;state -->
<g id="edge2" class="edge">
<title>mesoscopic&#45;&gt;state</title>
<path fill="none" stroke="#000000" d="M542.3282,-207.5539C575.4246,-223.0344 626.0278,-246.7037 659.8119,-262.5059"/>
<polygon fill="none" stroke="#000000" points="658.751,-265.8736 669.292,-266.9402 661.7168,-259.5329 658.751,-265.8736"/>
<text text-anchor="middle" x="628.0751" y="-231.8" font-family="Times,serif" font-size="14.00" fill="#000000">is_a</text>
</g>
<!-- crystal_unit_cell -->
<g id="node4" class="node">
<title>crystal_unit_cell</title>
<ellipse fill="#ffffe0" stroke="#000000" cx="353.0751" cy="-105" rx="84.485" ry="18"/>
<text text-anchor="middle" x="353.0751" y="-101.3" font-family="Bitstream Vera Sans" font-size="14.00" fill="#000000">crystal_unit_cell</text>
</g>
<!-- crystal_unit_cell&#45;&gt;mesoscopic -->
<g id="edge3" class="edge">
<title>crystal_unit_cell&#45;&gt;mesoscopic</title>
<path fill="none" stroke="#000000" d="M383.5238,-121.981C408.618,-135.9758 444.3305,-155.8925 471.2558,-170.9084"/>
<polygon fill="none" stroke="#000000" points="469.5836,-173.9834 480.022,-175.7973 472.9931,-167.8698 469.5836,-173.9834"/>
<text text-anchor="middle" x="455.0751" y="-144.8" font-family="Times,serif" font-size="14.00" fill="#000000">is_a</text>
</g>
<!-- e&#45;bonded_atom -->
<g id="node16" class="node">
<title>e&#45;bonded_atom</title>
<ellipse fill="#ffffe0" stroke="#000000" cx="421.0751" cy="-18" rx="84.485" ry="18"/>
<text text-anchor="middle" x="421.0751" y="-14.3" font-family="Bitstream Vera Sans" font-size="14.00" fill="#000000">e&#45;bonded_atom</text>
</g>
<!-- crystal_unit_cell&#45;&gt;e&#45;bonded_atom -->
<g id="edge17" class="edge">
<title>crystal_unit_cell&#45;&gt;e&#45;bonded_atom</title>
<path fill="none" stroke="#0000ff" d="M290.9978,-92.7406C279.1039,-90.6351 266.7273,-88.6102 255.0751,-87 233.7404,-84.0517 76.5801,-84.9207 62.0751,-69 57.5853,-64.0719 57.6024,-58.9436 62.0751,-54 62.646,-53.369 228.082,-36.985 334.147,-26.5399"/>
<polygon fill="#0000ff" stroke="#0000ff" points="334.6095,-30.0114 344.2185,-25.5484 333.9236,-23.0451 334.6095,-30.0114"/>
<text text-anchor="middle" x="174.0751" y="-57.8" font-family="Times,serif" font-size="14.00" fill="#000000">has_spatial_direct_part some &#160;&#160;</text>
</g>
<!-- molecule -->
<g id="node5" class="node">
<title>molecule</title>
<ellipse fill="#ffffe0" stroke="#000000" cx="509.0751" cy="-105" rx="53.0913" ry="18"/>
<text text-anchor="middle" x="509.0751" y="-101.3" font-family="Bitstream Vera Sans" font-size="14.00" fill="#000000">molecule</text>
</g>
<!-- molecule&#45;&gt;mesoscopic -->
<g id="edge4" class="edge">
<title>molecule&#45;&gt;mesoscopic</title>
<path fill="none" stroke="#000000" d="M509.0751,-123.0265C509.0751,-134.8082 509.0751,-150.4393 509.0751,-163.8419"/>
<polygon fill="none" stroke="#000000" points="505.5752,-163.9966 509.0751,-173.9966 512.5752,-163.9967 505.5752,-163.9966"/>
<text text-anchor="middle" x="523.0751" y="-144.8" font-family="Times,serif" font-size="14.00" fill="#000000">is_a</text>
</g>
<!-- molecule&#45;&gt;e&#45;bonded_atom -->
<g id="edge18" class="edge">
<title>molecule&#45;&gt;e&#45;bonded_atom</title>
<path fill="none" stroke="#0000ff" d="M469.6356,-92.793C461.8752,-90.6577 453.7574,-88.6086 446.0751,-87 416.8832,-80.8874 332.6995,-91.4592 313.0751,-69 297.7037,-51.4081 316.7797,-39.4226 342.9602,-31.516"/>
<polygon fill="#0000ff" stroke="#0000ff" points="344.1649,-34.8146 352.8764,-28.7848 342.306,-28.0659 344.1649,-34.8146"/>
<text text-anchor="middle" x="426.5751" y="-57.8" font-family="Times,serif" font-size="14.00" fill="#000000">has_spatial_direct_part min 2 &#160;&#160;</text>
</g>
<!-- continuum -->
<g id="node6" class="node">
<title>continuum</title>
<ellipse fill="#ffffe0" stroke="#000000" cx="755.0751" cy="-192" rx="59.5901" ry="18"/>
<text text-anchor="middle" x="755.0751" y="-188.3" font-family="Bitstream Vera Sans" font-size="14.00" fill="#000000">continuum</text>
</g>
<!-- continuum&#45;&gt;state -->
<g id="edge5" class="edge">
<title>continuum&#45;&gt;state</title>
<path fill="none" stroke="#000000" d="M742.6431,-210.0265C733.9449,-222.6388 722.2045,-239.6623 712.5641,-253.641"/>
<polygon fill="none" stroke="#000000" points="709.6749,-251.6654 706.8788,-261.8846 715.4374,-255.6395 709.6749,-251.6654"/>
<text text-anchor="middle" x="743.0751" y="-231.8" font-family="Times,serif" font-size="14.00" fill="#000000">is_a</text>
</g>
<!-- phase -->
<g id="node7" class="node">
<title>phase</title>
<ellipse fill="#ffffe0" stroke="#000000" cx="790.0751" cy="-105" rx="38.9931" ry="18"/>
<text text-anchor="middle" x="790.0751" y="-101.3" font-family="Bitstream Vera Sans" font-size="14.00" fill="#000000">phase</text>
</g>
<!-- phase&#45;&gt;continuum -->
<g id="edge6" class="edge">
<title>phase&#45;&gt;continuum</title>
<path fill="none" stroke="#000000" d="M782.8231,-123.0265C777.9894,-135.0415 771.5453,-151.0599 766.0838,-164.6354"/>
<polygon fill="none" stroke="#000000" points="762.8031,-163.4129 762.3178,-173.9966 769.2973,-166.0256 762.8031,-163.4129"/>
<text text-anchor="middle" x="789.0751" y="-144.8" font-family="Times,serif" font-size="14.00" fill="#000000">is_a</text>
</g>
<!-- rve -->
<g id="node8" class="node">
<title>rve</title>
<ellipse fill="#ffffe0" stroke="#000000" cx="874.0751" cy="-105" rx="27" ry="18"/>
<text text-anchor="middle" x="874.0751" y="-101.3" font-family="Bitstream Vera Sans" font-size="14.00" fill="#000000">rve</text>
</g>
<!-- rve&#45;&gt;continuum -->
<g id="edge7" class="edge">
<title>rve&#45;&gt;continuum</title>
<path fill="none" stroke="#000000" d="M856.3239,-118.8583C842.9135,-129.2427 823.9899,-143.7167 807.0751,-156 800.9669,-160.4357 794.3892,-165.0853 788.0346,-169.514"/>
<polygon fill="none" stroke="#000000" points="785.8002,-166.8041 779.5727,-175.3755 789.7862,-172.5584 785.8002,-166.8041"/>
<text text-anchor="middle" x="839.0751" y="-144.8" font-family="Times,serif" font-size="14.00" fill="#000000">is_a</text>
</g>
<!-- solid -->
<g id="node9" class="node">
<title>solid</title>
<ellipse fill="#ffffe0" stroke="#000000" cx="701.0751" cy="-105" rx="32.4942" ry="18"/>
<text text-anchor="middle" x="701.0751" y="-101.3" font-family="Bitstream Vera Sans" font-size="14.00" fill="#000000">solid</text>
</g>
<!-- solid&#45;&gt;continuum -->
<g id="edge8" class="edge">
<title>solid&#45;&gt;continuum</title>
<path fill="none" stroke="#000000" d="M711.7438,-122.1884C719.4088,-134.5376 729.8865,-151.4184 738.6187,-165.487"/>
<polygon fill="none" stroke="#000000" points="735.8105,-167.5994 744.0579,-174.25 741.7579,-163.9078 735.8105,-167.5994"/>
<text text-anchor="middle" x="746.0751" y="-144.8" font-family="Times,serif" font-size="14.00" fill="#000000">is_a</text>
</g>
<!-- crystal -->
<g id="node10" class="node">
<title>crystal</title>
<ellipse fill="#ffffe0" stroke="#000000" cx="906.0751" cy="-18" rx="41.6928" ry="18"/>
<text text-anchor="middle" x="906.0751" y="-14.3" font-family="Bitstream Vera Sans" font-size="14.00" fill="#000000">crystal</text>
</g>
<!-- crystal&#45;&gt;crystal_unit_cell -->
<g id="edge19" class="edge">
<title>crystal&#45;&gt;crystal_unit_cell</title>
<path fill="none" stroke="#0000ff" d="M864.8491,-21.5189C805.3107,-27.0373 698.5082,-38.6971 663.0751,-54 653.198,-58.2657 654.0677,-65.0123 644.0751,-69 562.417,-101.5872 534.1332,-74.7176 447.0751,-87 439.4977,-88.069 431.6044,-89.336 423.7542,-90.6951"/>
<polygon fill="#0000ff" stroke="#0000ff" points="423.0915,-87.2579 413.8605,-92.4578 424.3194,-94.1494 423.0915,-87.2579"/>
<text text-anchor="middle" x="771.5751" y="-57.8" font-family="Times,serif" font-size="14.00" fill="#000000">has_spatial_direct_part only &#160;&#160;</text>
</g>
<!-- crystal&#45;&gt;solid -->
<g id="edge9" class="edge">
<title>crystal&#45;&gt;solid</title>
<path fill="none" stroke="#000000" d="M902.9494,-36.1663C900.0282,-47.4209 894.4791,-61.1756 884.0751,-69 858.6537,-88.1182 772.7317,-78.5192 742.0751,-87 739.6494,-87.671 737.1816,-88.4602 734.721,-89.327"/>
<polygon fill="none" stroke="#000000" points="733.4193,-86.0778 725.3712,-92.9682 735.9597,-92.6005 733.4193,-86.0778"/>
<text text-anchor="middle" x="910.0751" y="-57.8" font-family="Times,serif" font-size="14.00" fill="#000000">is_a</text>
</g>
<!-- fluid -->
<g id="node11" class="node">
<title>fluid</title>
<ellipse fill="#ffffe0" stroke="#000000" cx="950.0751" cy="-105" rx="30.5947" ry="18"/>
<text text-anchor="middle" x="950.0751" y="-101.3" font-family="Bitstream Vera Sans" font-size="14.00" fill="#000000">fluid</text>
</g>
<!-- fluid&#45;&gt;continuum -->
<g id="edge10" class="edge">
<title>fluid&#45;&gt;continuum</title>
<path fill="none" stroke="#000000" d="M928.7842,-117.9731C910.2539,-128.9463 882.4589,-144.6506 857.0751,-156 841.0326,-163.1727 823.0893,-169.9119 806.7784,-175.5761"/>
<polygon fill="none" stroke="#000000" points="805.1993,-172.4167 796.8651,-178.9582 807.4596,-179.0418 805.1993,-172.4167"/>
<text text-anchor="middle" x="899.0751" y="-144.8" font-family="Times,serif" font-size="14.00" fill="#000000">is_a</text>
</g>
<!-- elementary -->
<g id="node12" class="node">
<title>elementary</title>
<ellipse fill="#ffffe0" stroke="#000000" cx="897.0751" cy="-192" rx="64.189" ry="18"/>
<text text-anchor="middle" x="897.0751" y="-188.3" font-family="Bitstream Vera Sans" font-size="14.00" fill="#000000">elementary</text>
</g>
<!-- elementary&#45;&gt;state -->
<g id="edge11" class="edge">
<title>elementary&#45;&gt;state</title>
<path fill="none" stroke="#000000" d="M861.8894,-207.1542C825.2609,-222.9299 768.1777,-247.5152 731.2031,-263.4399"/>
<polygon fill="none" stroke="#000000" points="729.6013,-260.3189 721.8014,-267.4892 732.3703,-266.748 729.6013,-260.3189"/>
<text text-anchor="middle" x="822.0751" y="-231.8" font-family="Times,serif" font-size="14.00" fill="#000000">is_a</text>
</g>
<!-- subatomic -->
<g id="node13" class="node">
<title>subatomic</title>
<ellipse fill="#ffffe0" stroke="#000000" cx="1038.0751" cy="-192" rx="59.2899" ry="18"/>
<text text-anchor="middle" x="1038.0751" y="-188.3" font-family="Bitstream Vera Sans" font-size="14.00" fill="#000000">subatomic</text>
</g>
<!-- subatomic&#45;&gt;state -->
<g id="edge12" class="edge">
<title>subatomic&#45;&gt;state</title>
<path fill="none" stroke="#000000" d="M993.4671,-203.8774C985.6736,-205.9327 977.6407,-208.0385 970.0751,-210 887.2642,-231.4703 790.1447,-255.5908 736.313,-268.8672"/>
<polygon fill="none" stroke="#000000" points="735.3316,-265.5042 726.4596,-271.2954 737.0066,-272.3009 735.3316,-265.5042"/>
<text text-anchor="middle" x="908.0751" y="-231.8" font-family="Times,serif" font-size="14.00" fill="#000000">is_a</text>
</g>
<!-- atomic -->
<g id="node14" class="node">
<title>atomic</title>
<ellipse fill="#ffffe0" stroke="#000000" cx="635.0751" cy="-192" rx="42.4939" ry="18"/>
<text text-anchor="middle" x="635.0751" y="-188.3" font-family="Bitstream Vera Sans" font-size="14.00" fill="#000000">atomic</text>
</g>
<!-- atomic&#45;&gt;state -->
<g id="edge13" class="edge">
<title>atomic&#45;&gt;state</title>
<path fill="none" stroke="#000000" d="M647.217,-209.6057C655.951,-222.27 667.86,-239.5381 677.6132,-253.6802"/>
<polygon fill="none" stroke="#000000" points="674.801,-255.7675 683.3596,-262.0125 680.5635,-251.7933 674.801,-255.7675"/>
<text text-anchor="middle" x="683.0751" y="-231.8" font-family="Times,serif" font-size="14.00" fill="#000000">is_a</text>
</g>
<!-- atom -->
<g id="node15" class="node">
<title>atom</title>
<ellipse fill="#ffffe0" stroke="#000000" cx="615.0751" cy="-105" rx="35.194" ry="18"/>
<text text-anchor="middle" x="615.0751" y="-101.3" font-family="Bitstream Vera Sans" font-size="14.00" fill="#000000">atom</text>
</g>
<!-- atom&#45;&gt;atomic -->
<g id="edge14" class="edge">
<title>atom&#45;&gt;atomic</title>
<path fill="none" stroke="#000000" d="M619.2191,-123.0265C621.9544,-134.9249 625.5922,-150.7492 628.6933,-164.2394"/>
<polygon fill="none" stroke="#000000" points="625.2849,-165.035 630.9364,-173.9966 632.1069,-163.4667 625.2849,-165.035"/>
<text text-anchor="middle" x="641.0751" y="-144.8" font-family="Times,serif" font-size="14.00" fill="#000000">is_a</text>
</g>
<!-- e&#45;bonded_atom&#45;&gt;atom -->
<g id="edge15" class="edge">
<title>e&#45;bonded_atom&#45;&gt;atom</title>
<path fill="none" stroke="#000000" d="M477.7873,-31.3656C497.9542,-37.0968 520.4998,-44.6531 540.0751,-54 556.9021,-62.0346 574.2101,-73.5491 587.9535,-83.6047"/>
<polygon fill="none" stroke="#000000" points="585.9095,-86.4465 596.0138,-89.633 590.102,-80.8409 585.9095,-86.4465"/>
<text text-anchor="middle" x="581.0751" y="-57.8" font-family="Times,serif" font-size="14.00" fill="#000000">is_a</text>
</g>
<!-- standalone_atom -->
<g id="node17" class="node">
<title>standalone_atom</title>
<ellipse fill="#ffffe0" stroke="#000000" cx="615.0751" cy="-18" rx="91.784" ry="18"/>
<text text-anchor="middle" x="615.0751" y="-14.3" font-family="Bitstream Vera Sans" font-size="14.00" fill="#000000">standalone_atom</text>
</g>
<!-- standalone_atom&#45;&gt;atom -->
<g id="edge16" class="edge">
<title>standalone_atom&#45;&gt;atom</title>
<path fill="none" stroke="#000000" d="M615.0751,-36.0265C615.0751,-47.8082 615.0751,-63.4393 615.0751,-76.8419"/>
<polygon fill="none" stroke="#000000" points="611.5752,-76.9966 615.0751,-86.9966 618.5752,-76.9967 611.5752,-76.9966"/>
<text text-anchor="middle" x="629.0751" y="-57.8" font-family="Times,serif" font-size="14.00" fill="#000000">is_a</text>
</g>
<!-- welded_component -->
<g id="node18" class="node">
<title>welded_component</title>
<ellipse fill="#ffffe0" stroke="#000000" cx="125.0751" cy="-18" rx="102.0819" ry="18"/>
<text text-anchor="middle" x="125.0751" y="-14.3" font-family="Bitstream Vera Sans" font-size="14.00" fill="#000000">welded_component</text>
</g>
<!-- welded_component&#45;&gt;boundary -->
<g id="edge20" class="edge">
<title>welded_component&#45;&gt;boundary</title>
<path fill="none" stroke="#0000ff" d="M81.9486,-34.5151C37.6619,-53.8996 -20.9807,-87.8829 8.0751,-123 45.0279,-167.6616 211.0429,-183.6682 304.8946,-189.2091"/>
<polygon fill="#0000ff" stroke="#0000ff" points="304.9526,-192.7179 315.1345,-189.789 305.3485,-185.7291 304.9526,-192.7179"/>
<text text-anchor="middle" x="134.0751" y="-101.3" font-family="Times,serif" font-size="14.00" fill="#000000">has_spatial_direct_part exactly 2 &#160;&#160;</text>
</g>
</g>
</svg>
