<?xml version="1.0" encoding="UTF-8" standalone="no"?>
<!DOCTYPE svg PUBLIC "-//W3C//DTD SVG 1.1//EN"
 "http://www.w3.org/Graphics/SVG/1.1/DTD/svg11.dtd">
<!-- Generated by graphviz version 2.40.1 (0)
 -->
<!-- Title: G Pages: 1 -->
<svg width="1370pt" height="542pt"
 viewBox="0.00 0.00 1369.84 542.00" xmlns="http://www.w3.org/2000/svg" xmlns:xlink="http://www.w3.org/1999/xlink">
<g id="graph0" class="graph" transform="scale(1 1) rotate(0) translate(4 538)">
<title>G</title>
<polygon fill="#ffffff" stroke="transparent" points="-4,4 -4,-538 1365.8426,-538 1365.8426,4 -4,4"/>
<!-- physical_quantity -->
<g id="node1" class="node">
<title>physical_quantity</title>
<ellipse fill="#ffffe0" stroke="#000000" cx="456.8426" cy="-516" rx="90.9839" ry="18"/>
<text text-anchor="middle" x="456.8426" y="-512.3" font-family="Bitstream Vera Sans" font-size="14.00" fill="#000000">physical_quantity</text>
</g>
<!-- atomic_number -->
<g id="node2" class="node">
<title>atomic_number</title>
<ellipse fill="#ffffe0" stroke="#000000" cx="83.8426" cy="-429" rx="83.6854" ry="18"/>
<text text-anchor="middle" x="83.8426" y="-425.3" font-family="Bitstream Vera Sans" font-size="14.00" fill="#000000">atomic_number</text>
</g>
<!-- atomic_number&#45;&gt;physical_quantity -->
<g id="edge1" class="edge">
<title>atomic_number&#45;&gt;physical_quantity</title>
<path fill="none" stroke="#000000" d="M140.8993,-442.3081C207.364,-457.8106 317.1095,-483.4081 388.1813,-499.9852"/>
<polygon fill="none" stroke="#000000" points="387.411,-503.3994 397.9446,-502.2624 389.0011,-496.5824 387.411,-503.3994"/>
<text text-anchor="middle" x="306.8426" y="-468.8" font-family="Times,serif" font-size="14.00" fill="#000000">is_a</text>
</g>
<!-- position -->
<g id="node3" class="node">
<title>position</title>
<ellipse fill="#ffffe0" stroke="#000000" cx="258.8426" cy="-429" rx="47.3916" ry="18"/>
<text text-anchor="middle" x="258.8426" y="-425.3" font-family="Bitstream Vera Sans" font-size="14.00" fill="#000000">position</text>
</g>
<!-- position&#45;&gt;physical_quantity -->
<g id="edge2" class="edge">
<title>position&#45;&gt;physical_quantity</title>
<path fill="none" stroke="#000000" d="M289.7504,-442.9854C312.6494,-453.3084 344.6401,-467.6491 372.8426,-480 384.5398,-485.1227 397.1848,-490.5826 409.0254,-495.6614"/>
<polygon fill="none" stroke="#000000" points="407.7449,-498.9205 418.3154,-499.6391 410.5002,-492.4855 407.7449,-498.9205"/>
<text text-anchor="middle" x="386.8426" y="-468.8" font-family="Times,serif" font-size="14.00" fill="#000000">is_a</text>
</g>
<!-- area -->
<g id="node4" class="node">
<title>area</title>
<ellipse fill="#ffffe0" stroke="#000000" cx="1141.8426" cy="-375" rx="32.4942" ry="18"/>
<text text-anchor="middle" x="1141.8426" y="-371.3" font-family="Bitstream Vera Sans" font-size="14.00" fill="#000000">area</text>
</g>
<!-- area&#45;&gt;physical_quantity -->
<g id="edge3" class="edge">
<title>area&#45;&gt;physical_quantity</title>
<path fill="none" stroke="#000000" d="M1114.803,-385.3827C1073.6891,-400.8176 992.7349,-429.8343 921.8426,-447 794.4163,-477.8547 643.805,-497.1566 549.286,-507.2548"/>
<polygon fill="none" stroke="#000000" points="548.7583,-503.791 539.1812,-508.3221 549.4936,-510.7522 548.7583,-503.791"/>
<text text-anchor="middle" x="1055.8426" y="-425.3" font-family="Times,serif" font-size="14.00" fill="#000000">is_a</text>
</g>
<!-- pressure -->
<g id="node5" class="node">
<title>pressure</title>
<ellipse fill="#ffffe0" stroke="#000000" cx="860.8426" cy="-429" rx="51.9908" ry="18"/>
<text text-anchor="middle" x="860.8426" y="-425.3" font-family="Bitstream Vera Sans" font-size="14.00" fill="#000000">pressure</text>
</g>
<!-- pressure&#45;&gt;physical_quantity -->
<g id="edge4" class="edge">
<title>pressure&#45;&gt;physical_quantity</title>
<path fill="none" stroke="#000000" d="M816.4518,-438.5594C746.9214,-453.5325 611.6768,-482.657 528.3115,-500.6094"/>
<polygon fill="none" stroke="#000000" points="527.4491,-497.2148 518.41,-502.7417 528.9228,-504.0579 527.4491,-497.2148"/>
<text text-anchor="middle" x="697.8426" y="-468.8" font-family="Times,serif" font-size="14.00" fill="#000000">is_a</text>
</g>
<!-- stiffness_tensor -->
<g id="node6" class="node">
<title>stiffness_tensor</title>
<ellipse fill="#ffffe0" stroke="#000000" cx="787.8426" cy="-321" rx="83.6854" ry="18"/>
<text text-anchor="middle" x="787.8426" y="-317.3" font-family="Bitstream Vera Sans" font-size="14.00" fill="#000000">stiffness_tensor</text>
</g>
<!-- stiffness_tensor&#45;&gt;pressure -->
<g id="edge5" class="edge">
<title>stiffness_tensor&#45;&gt;pressure</title>
<path fill="none" stroke="#000000" d="M799.897,-338.834C811.6792,-356.2652 829.7509,-383.0013 843.1594,-402.8386"/>
<polygon fill="none" stroke="#000000" points="840.2704,-404.8146 848.7702,-411.1395 846.0699,-400.8945 840.2704,-404.8146"/>
<text text-anchor="middle" x="848.8426" y="-371.3" font-family="Times,serif" font-size="14.00" fill="#000000">is_a</text>
</g>
<!-- traction_separation -->
<g id="node7" class="node">
<title>traction_separation</title>
<ellipse fill="#ffffe0" stroke="#000000" cx="1028.8426" cy="-321" rx="100.9827" ry="18"/>
<text text-anchor="middle" x="1028.8426" y="-317.3" font-family="Bitstream Vera Sans" font-size="14.00" fill="#000000">traction_separation</text>
</g>
<!-- traction_separation&#45;&gt;pressure -->
<g id="edge6" class="edge">
<title>traction_separation&#45;&gt;pressure</title>
<path fill="none" stroke="#000000" d="M1001.8505,-338.3521C972.5158,-357.2101 925.6184,-387.3584 894.0485,-407.6533"/>
<polygon fill="none" stroke="#000000" points="892.0971,-404.7469 885.5779,-413.0987 895.8824,-410.6352 892.0971,-404.7469"/>
<text text-anchor="middle" x="982.8426" y="-371.3" font-family="Times,serif" font-size="14.00" fill="#000000">is_a</text>
</g>
<!-- load_curve -->
<g id="node8" class="node">
<title>load_curve</title>
<ellipse fill="#ffffe0" stroke="#000000" cx="963.8426" cy="-159" rx="61.99" ry="18"/>
<text text-anchor="middle" x="963.8426" y="-155.3" font-family="Bitstream Vera Sans" font-size="14.00" fill="#000000">load_curve</text>
</g>
<!-- load_curve&#45;&gt;pressure -->
<g id="edge7" class="edge">
<title>load_curve&#45;&gt;pressure</title>
<path fill="none" stroke="#000000" d="M956.9245,-177.1347C939.2602,-223.4393 892.4047,-346.2643 871.349,-401.4589"/>
<polygon fill="none" stroke="#000000" points="868.0247,-400.3535 867.7305,-410.9442 874.565,-402.8485 868.0247,-400.3535"/>
<text text-anchor="middle" x="942.8426" y="-263.3" font-family="Times,serif" font-size="14.00" fill="#000000">is_a</text>
</g>
<!-- lattice_vector -->
<g id="node9" class="node">
<title>lattice_vector</title>
<ellipse fill="#ffffe0" stroke="#000000" cx="356.8426" cy="-267" rx="73.387" ry="18"/>
<text text-anchor="middle" x="356.8426" y="-263.3" font-family="Bitstream Vera Sans" font-size="14.00" fill="#000000">lattice_vector</text>
</g>
<!-- lattice_vector&#45;&gt;physical_quantity -->
<g id="edge8" class="edge">
<title>lattice_vector&#45;&gt;physical_quantity</title>
<path fill="none" stroke="#000000" d="M364.1958,-285.3096C381.5753,-328.5846 425.2671,-437.3771 445.8249,-488.5661"/>
<polygon fill="none" stroke="#000000" points="442.6387,-490.0242 449.6134,-497.9994 449.1345,-487.4154 442.6387,-490.0242"/>
<text text-anchor="middle" x="420.8426" y="-371.3" font-family="Times,serif" font-size="14.00" fill="#000000">is_a</text>
</g>
<!-- plasticity -->
<g id="node10" class="node">
<title>plasticity</title>
<ellipse fill="#ffffe0" stroke="#000000" cx="499.8426" cy="-375" rx="51.9908" ry="18"/>
<text text-anchor="middle" x="499.8426" y="-371.3" font-family="Bitstream Vera Sans" font-size="14.00" fill="#000000">plasticity</text>
</g>
<!-- plasticity&#45;&gt;physical_quantity -->
<g id="edge9" class="edge">
<title>plasticity&#45;&gt;physical_quantity</title>
<path fill="none" stroke="#000000" d="M494.3091,-393.1446C486.9556,-417.2572 473.8934,-460.0893 465.2998,-488.2681"/>
<polygon fill="none" stroke="#000000" points="461.9241,-487.3389 462.3548,-497.925 468.6197,-489.3809 461.9241,-487.3389"/>
<text text-anchor="middle" x="502.8426" y="-425.3" font-family="Times,serif" font-size="14.00" fill="#000000">is_a</text>
</g>
<!-- e&#45;bonded_atom -->
<g id="node11" class="node">
<title>e&#45;bonded_atom</title>
<ellipse fill="#ffffe0" stroke="#000000" cx="213.8426" cy="-321" rx="84.485" ry="18"/>
<text text-anchor="middle" x="213.8426" y="-317.3" font-family="Bitstream Vera Sans" font-size="14.00" fill="#000000">e&#45;bonded_atom</text>
</g>
<!-- e&#45;bonded_atom&#45;&gt;atomic_number -->
<g id="edge10" class="edge">
<title>e&#45;bonded_atom&#45;&gt;atomic_number</title>
<path fill="none" stroke="#0000ff" d="M133.2389,-326.4522C89.0904,-331.3017 40.6057,-340.3346 26.8426,-357 16.6542,-369.3368 19.1193,-378.9875 26.8426,-393 29.7018,-398.1877 33.6583,-402.7312 38.1664,-406.6825"/>
<polygon fill="#0000ff" stroke="#0000ff" points="36.1011,-409.509 46.1776,-412.7823 40.3417,-403.9396 36.1011,-409.509"/>
<text text-anchor="middle" x="115.8426" y="-371.3" font-family="Times,serif" font-size="14.00" fill="#000000">has_property exactly 1 &#160;&#160;</text>
</g>
<!-- e&#45;bonded_atom&#45;&gt;position -->
<g id="edge11" class="edge">
<title>e&#45;bonded_atom&#45;&gt;position</title>
<path fill="none" stroke="#0000ff" d="M210.0243,-339.1233C207.752,-354.2943 206.695,-376.1107 214.8426,-393 217.3084,-398.1115 220.8863,-402.743 224.9523,-406.8523"/>
<polygon fill="#0000ff" stroke="#0000ff" points="222.8551,-409.67 232.6636,-413.6757 227.4939,-404.4277 222.8551,-409.67"/>
<text text-anchor="middle" x="303.8426" y="-371.3" font-family="Times,serif" font-size="14.00" fill="#000000">has_property exactly 1 &#160;&#160;</text>
</g>
<!-- crystal_unit_cell -->
<g id="node12" class="node">
<title>crystal_unit_cell</title>
<ellipse fill="#ffffe0" stroke="#000000" cx="650.8426" cy="-105" rx="84.485" ry="18"/>
<text text-anchor="middle" x="650.8426" y="-101.3" font-family="Bitstream Vera Sans" font-size="14.00" fill="#000000">crystal_unit_cell</text>
</g>
<!-- crystal_unit_cell&#45;&gt;stiffness_tensor -->
<g id="edge15" class="edge">
<title>crystal_unit_cell&#45;&gt;stiffness_tensor</title>
<path fill="none" stroke="#0000ff" d="M667.3229,-122.7404C671.8508,-128.2848 676.444,-134.6264 679.8426,-141 699.5528,-177.9645 675.9676,-203.8182 707.8426,-231 750.5508,-267.4201 796.0908,-206.5768 832.8426,-249 843.319,-261.0931 839.7736,-270.5791 832.8426,-285 830.7324,-289.3904 827.7973,-293.4129 824.4272,-297.0487"/>
<polygon fill="#0000ff" stroke="#0000ff" points="821.9436,-294.5792 817.0239,-303.9625 826.7214,-299.6952 821.9436,-294.5792"/>
<text text-anchor="middle" x="796.8426" y="-209.3" font-family="Times,serif" font-size="14.00" fill="#000000">has_property exactly 1 &#160;&#160;</text>
</g>
<!-- crystal_unit_cell&#45;&gt;lattice_vector -->
<g id="edge14" class="edge">
<title>crystal_unit_cell&#45;&gt;lattice_vector</title>
<path fill="none" stroke="#0000ff" d="M583.3587,-115.9194C550.3859,-122.3084 515.016,-131.0652 501.8426,-141 465.1353,-168.6831 485.694,-201.0141 450.8426,-231 441.4352,-239.0941 430.0134,-245.4678 418.4189,-250.4528"/>
<polygon fill="#0000ff" stroke="#0000ff" points="417.1122,-247.2058 409.1185,-254.1592 419.7037,-253.7084 417.1122,-247.2058"/>
<text text-anchor="middle" x="590.8426" y="-155.3" font-family="Times,serif" font-size="14.00" fill="#000000">has_property exactly 3 &#160;&#160;</text>
</g>
<!-- crystal_unit_cell&#45;&gt;e&#45;bonded_atom -->
<g id="edge12" class="edge">
<title>crystal_unit_cell&#45;&gt;e&#45;bonded_atom</title>
<path fill="none" stroke="#0000ff" d="M570.0724,-110.6076C458.9125,-120.143 267.4229,-143.708 222.8426,-195 199.7527,-221.5661 202.0772,-264.346 207.0251,-292.5679"/>
<polygon fill="#0000ff" stroke="#0000ff" points="203.6359,-293.472 209.0024,-302.6072 210.5039,-292.1193 203.6359,-293.472"/>
<text text-anchor="middle" x="334.8426" y="-209.3" font-family="Times,serif" font-size="14.00" fill="#000000">has_spatial_direct_part some &#160;&#160;</text>
</g>
<!-- interface -->
<g id="node18" class="node">
<title>interface</title>
<ellipse fill="#ffffe0" stroke="#000000" cx="1031.8426" cy="-213" rx="51.9908" ry="18"/>
<text text-anchor="middle" x="1031.8426" y="-209.3" font-family="Bitstream Vera Sans" font-size="14.00" fill="#000000">interface</text>
</g>
<!-- crystal_unit_cell&#45;&gt;interface -->
<g id="edge13" class="edge">
<title>crystal_unit_cell&#45;&gt;interface</title>
<path fill="none" stroke="#0000ff" d="M681.8898,-121.7447C690.0405,-127.1395 698.3552,-133.6512 704.8426,-141 716.6812,-154.4107 708.1963,-166.7293 722.8426,-177 723.1602,-177.2228 882.4989,-195.7054 972.2111,-206.0968"/>
<polygon fill="#0000ff" stroke="#0000ff" points="971.9239,-209.5869 982.2602,-207.2607 972.7293,-202.6334 971.9239,-209.5869"/>
<text text-anchor="middle" x="807.8426" y="-155.3" font-family="Times,serif" font-size="14.00" fill="#000000">has_space_slice some &#160;&#160;</text>
</g>
<!-- crystal -->
<g id="node13" class="node">
<title>crystal</title>
<ellipse fill="#ffffe0" stroke="#000000" cx="650.8426" cy="-18" rx="41.6928" ry="18"/>
<text text-anchor="middle" x="650.8426" y="-14.3" font-family="Bitstream Vera Sans" font-size="14.00" fill="#000000">crystal</text>
</g>
<!-- crystal&#45;&gt;crystal_unit_cell -->
<g id="edge16" class="edge">
<title>crystal&#45;&gt;crystal_unit_cell</title>
<path fill="none" stroke="#0000ff" d="M650.8426,-36.0265C650.8426,-47.8082 650.8426,-63.4393 650.8426,-76.8419"/>
<polygon fill="#0000ff" stroke="#0000ff" points="647.3427,-76.9966 650.8426,-86.9966 654.3427,-76.9967 647.3427,-76.9966"/>
<text text-anchor="middle" x="759.3426" y="-57.8" font-family="Times,serif" font-size="14.00" fill="#000000">has_spatial_direct_part only &#160;&#160;</text>
</g>
<!-- boundary -->
<g id="node14" class="node">
<title>boundary</title>
<ellipse fill="#ffffe0" stroke="#000000" cx="1098.8426" cy="-105" rx="55.4913" ry="18"/>
<text text-anchor="middle" x="1098.8426" y="-101.3" font-family="Bitstream Vera Sans" font-size="14.00" fill="#000000">boundary</text>
</g>
<!-- boundary&#45;&gt;interface -->
<g id="edge17" class="edge">
<title>boundary&#45;&gt;interface</title>
<path fill="none" stroke="#0000ff" d="M1087.7789,-122.834C1077.0136,-140.187 1060.5274,-166.7617 1048.2382,-186.5713"/>
<polygon fill="#0000ff" stroke="#0000ff" points="1045.2202,-184.7968 1042.9227,-195.1395 1051.1686,-188.487 1045.2202,-184.7968"/>
<text text-anchor="middle" x="1173.8426" y="-155.3" font-family="Times,serif" font-size="14.00" fill="#000000">has_space_slice exactly 1 &#160;&#160;</text>
</g>
<!-- phase -->
<g id="node15" class="node">
<title>phase</title>
<ellipse fill="#ffffe0" stroke="#000000" cx="593.8426" cy="-213" rx="38.9931" ry="18"/>
<text text-anchor="middle" x="593.8426" y="-209.3" font-family="Bitstream Vera Sans" font-size="14.00" fill="#000000">phase</text>
</g>
<!-- phase&#45;&gt;stiffness_tensor -->
<g id="edge18" class="edge">
<title>phase&#45;&gt;stiffness_tensor</title>
<path fill="none" stroke="#0000ff" d="M612.5296,-229.0071C618.9902,-234.9681 626.0546,-241.9939 631.8426,-249 643.9352,-263.6377 639.5379,-273.7634 654.8426,-285 665.2296,-292.6261 690.4296,-300.2093 716.1351,-306.4351"/>
<polygon fill="#0000ff" stroke="#0000ff" points="715.4461,-309.8685 725.9819,-308.7521 717.0494,-303.0546 715.4461,-309.8685"/>
<text text-anchor="middle" x="743.8426" y="-263.3" font-family="Times,serif" font-size="14.00" fill="#000000">has_property exactly 1 &#160;&#160;</text>
</g>
<!-- phase&#45;&gt;plasticity -->
<g id="edge19" class="edge">
<title>phase&#45;&gt;plasticity</title>
<path fill="none" stroke="#0000ff" d="M558.2439,-220.7542C516.7134,-229.9689 453.2423,-244.6457 449.8426,-249 426.0853,-279.4277 453.3007,-322.5926 475.9213,-349.6798"/>
<polygon fill="#0000ff" stroke="#0000ff" points="473.5379,-352.2739 482.7324,-357.5381 478.8275,-347.6891 473.5379,-352.2739"/>
<text text-anchor="middle" x="538.8426" y="-263.3" font-family="Times,serif" font-size="14.00" fill="#000000">has_property exactly 1 &#160;&#160;</text>
</g>
<!-- rve -->
<g id="node16" class="node">
<title>rve</title>
<ellipse fill="#ffffe0" stroke="#000000" cx="1173.8426" cy="-18" rx="27" ry="18"/>
<text text-anchor="middle" x="1173.8426" y="-14.3" font-family="Bitstream Vera Sans" font-size="14.00" fill="#000000">rve</text>
</g>
<!-- welded_component -->
<g id="node17" class="node">
<title>welded_component</title>
<ellipse fill="#ffffe0" stroke="#000000" cx="1026.8426" cy="-18" rx="102.0819" ry="18"/>
<text text-anchor="middle" x="1026.8426" y="-14.3" font-family="Bitstream Vera Sans" font-size="14.00" fill="#000000">welded_component</text>
</g>
<!-- welded_component&#45;&gt;load_curve -->
<g id="edge21" class="edge">
<title>welded_component&#45;&gt;load_curve</title>
<path fill="none" stroke="#0000ff" d="M966.7775,-32.5948C947.4386,-38.5917 929.5166,-46.0062 923.8426,-54 906.6219,-78.261 924.1176,-110.8825 941.0763,-133.2917"/>
<polygon fill="#0000ff" stroke="#0000ff" points="938.5131,-135.6919 947.4761,-141.3414 943.9925,-131.3356 938.5131,-135.6919"/>
<text text-anchor="middle" x="1012.8426" y="-57.8" font-family="Times,serif" font-size="14.00" fill="#000000">has_property exactly 1 &#160;&#160;</text>
</g>
<!-- welded_component&#45;&gt;boundary -->
<g id="edge20" class="edge">
<title>welded_component&#45;&gt;boundary</title>
<path fill="none" stroke="#0000ff" d="M1082.3136,-33.3445C1091.6419,-38.4143 1100.1349,-45.1267 1105.8426,-54 1110.1456,-60.6896 1110.6106,-68.892 1109.3862,-76.7467"/>
<polygon fill="#0000ff" stroke="#0000ff" points="1105.924,-76.1741 1106.984,-86.7158 1112.7293,-77.814 1105.924,-76.1741"/>
<text text-anchor="middle" x="1235.8426" y="-57.8" font-family="Times,serif" font-size="14.00" fill="#000000">has_spatial_direct_part exactly 2 &#160;&#160;</text>
</g>
<!-- interface&#45;&gt;area -->
<g id="edge22" class="edge">
<title>interface&#45;&gt;area</title>
<path fill="none" stroke="#0000ff" d="M1080.9563,-219.2089C1116.6593,-224.8488 1160.6166,-234.5221 1171.8426,-249 1194.497,-278.2169 1175.6779,-321.877 1159.313,-349.377"/>
<polygon fill="#0000ff" stroke="#0000ff" points="1156.2341,-347.7002 1153.9207,-358.0394 1162.1768,-351.3995 1156.2341,-347.7002"/>
<text text-anchor="middle" x="1270.8426" y="-263.3" font-family="Times,serif" font-size="14.00" fill="#000000">has_property exactly 1 &#160;&#160;</text>
</g>
<!-- interface&#45;&gt;traction_separation -->
<g id="edge23" class="edge">
<title>interface&#45;&gt;traction_separation</title>
<path fill="none" stroke="#0000ff" d="M1008.7067,-229.3027C1002.7304,-234.8067 997.0743,-241.4866 993.8426,-249 987.5205,-263.698 987.8239,-270.1752 993.8426,-285 995.3489,-288.7102 997.4416,-292.2481 999.8617,-295.556"/>
<polygon fill="#0000ff" stroke="#0000ff" points="997.2677,-297.9086 1006.4047,-303.2721 1002.6067,-293.3814 997.2677,-297.9086"/>
<text text-anchor="middle" x="1082.8426" y="-263.3" font-family="Times,serif" font-size="14.00" fill="#000000">has_property exactly 1 &#160;&#160;</text>
</g>
</g>
</svg>
