<?xml version="1.0" encoding="UTF-8" standalone="no"?>
<!DOCTYPE svg PUBLIC "-//W3C//DTD SVG 1.1//EN"
 "http://www.w3.org/Graphics/SVG/1.1/DTD/svg11.dtd">
<!-- Generated by graphviz version 2.40.1 (0)
 -->
<!-- Title: G Pages: 1 -->
<svg width="1587pt" height="305pt"
 viewBox="0.00 0.00 1587.09 305.00" xmlns="http://www.w3.org/2000/svg" xmlns:xlink="http://www.w3.org/1999/xlink">
<g id="graph0" class="graph" transform="scale(1 1) rotate(0) translate(4 301)">
<title>G</title>
<polygon fill="#ffffff" stroke="transparent" points="-4,4 -4,-301 1583.09,-301 1583.09,4 -4,4"/>
<!-- SI_unit -->
<g id="node1" class="node">
<title>SI_unit</title>
<ellipse fill="#ffffe0" stroke="#000000" cx="383.4458" cy="-279" rx="42.4939" ry="18"/>
<text text-anchor="middle" x="383.4458" y="-275.3" font-family="Bitstream Vera Sans" font-size="14.00" fill="#000000">SI_unit</text>
</g>
<!-- m -->
<g id="node2" class="node">
<title>m</title>
<ellipse fill="#ffffe0" stroke="#000000" cx="215.4458" cy="-192" rx="27" ry="18"/>
<text text-anchor="middle" x="215.4458" y="-188.3" font-family="Bitstream Vera Sans" font-size="14.00" fill="#000000">m</text>
</g>
<!-- m&#45;&gt;SI_unit -->
<g id="edge1" class="edge">
<title>m&#45;&gt;SI_unit</title>
<path fill="none" stroke="#000000" d="M237.0649,-203.1956C264.9308,-217.6262 313.7792,-242.9227 347.328,-260.2961"/>
<polygon fill="none" stroke="#000000" points="345.8651,-263.48 356.3546,-264.9706 349.0841,-257.264 345.8651,-263.48"/>
<text text-anchor="middle" x="324.4458" y="-231.8" font-family="Times,serif" font-size="14.00" fill="#000000">is_a</text>
</g>
<!-- m² -->
<g id="node3" class="node">
<title>m²</title>
<ellipse fill="#ffffe0" stroke="#000000" cx="383.4458" cy="-192" rx="27" ry="18"/>
<text text-anchor="middle" x="383.4458" y="-188.3" font-family="Bitstream Vera Sans" font-size="14.00" fill="#000000">m²</text>
</g>
<!-- m²&#45;&gt;SI_unit -->
<g id="edge2" class="edge">
<title>m²&#45;&gt;SI_unit</title>
<path fill="none" stroke="#000000" d="M383.4458,-210.0265C383.4458,-221.8082 383.4458,-237.4393 383.4458,-250.8419"/>
<polygon fill="none" stroke="#000000" points="379.9459,-250.9966 383.4458,-260.9966 386.9459,-250.9967 379.9459,-250.9966"/>
<text text-anchor="middle" x="397.4458" y="-231.8" font-family="Times,serif" font-size="14.00" fill="#000000">is_a</text>
</g>
<!-- Pa -->
<g id="node4" class="node">
<title>Pa</title>
<ellipse fill="#ffffe0" stroke="#000000" cx="801.4458" cy="-192" rx="27" ry="18"/>
<text text-anchor="middle" x="801.4458" y="-188.3" font-family="Bitstream Vera Sans" font-size="14.00" fill="#000000">Pa</text>
</g>
<!-- Pa&#45;&gt;SI_unit -->
<g id="edge3" class="edge">
<title>Pa&#45;&gt;SI_unit</title>
<path fill="none" stroke="#000000" d="M775.6135,-197.3766C707.1433,-211.6276 520.1886,-250.5392 431.4384,-269.0111"/>
<polygon fill="none" stroke="#000000" points="430.7042,-265.5888 421.6272,-271.0532 432.1306,-272.442 430.7042,-265.5888"/>
<text text-anchor="middle" x="631.4458" y="-231.8" font-family="Times,serif" font-size="14.00" fill="#000000">is_a</text>
</g>
<!-- atomic_number -->
<g id="node5" class="node">
<title>atomic_number</title>
<ellipse fill="#ffffe0" stroke="#000000" cx="1346.4458" cy="-18" rx="83.6854" ry="18"/>
<text text-anchor="middle" x="1346.4458" y="-14.3" font-family="Bitstream Vera Sans" font-size="14.00" fill="#000000">atomic_number</text>
</g>
<!-- position -->
<g id="node6" class="node">
<title>position</title>
<ellipse fill="#ffffe0" stroke="#000000" cx="47.4458" cy="-105" rx="47.3916" ry="18"/>
<text text-anchor="middle" x="47.4458" y="-101.3" font-family="Bitstream Vera Sans" font-size="14.00" fill="#000000">position</text>
</g>
<!-- position&#45;&gt;m -->
<g id="edge7" class="edge">
<title>position&#45;&gt;m</title>
<path fill="none" stroke="#0000ff" d="M49.8249,-122.9838C52.2123,-134.0185 56.9741,-147.598 66.4458,-156 82.869,-170.5685 140.0121,-181.3116 178.5667,-187.109"/>
<polygon fill="#0000ff" stroke="#0000ff" points="178.4991,-190.6359 188.8988,-188.6121 179.5069,-183.7088 178.4991,-190.6359"/>
<text text-anchor="middle" x="138.9458" y="-144.8" font-family="Times,serif" font-size="14.00" fill="#000000">has_unit exactly 1 &#160;&#160;</text>
</g>
<!-- area -->
<g id="node7" class="node">
<title>area</title>
<ellipse fill="#ffffe0" stroke="#000000" cx="383.4458" cy="-105" rx="32.4942" ry="18"/>
<text text-anchor="middle" x="383.4458" y="-101.3" font-family="Bitstream Vera Sans" font-size="14.00" fill="#000000">area</text>
</g>
<!-- area&#45;&gt;m² -->
<g id="edge8" class="edge">
<title>area&#45;&gt;m²</title>
<path fill="none" stroke="#0000ff" d="M383.4458,-123.0265C383.4458,-134.8082 383.4458,-150.4393 383.4458,-163.8419"/>
<polygon fill="#0000ff" stroke="#0000ff" points="379.9459,-163.9966 383.4458,-173.9966 386.9459,-163.9967 379.9459,-163.9966"/>
<text text-anchor="middle" x="455.9458" y="-144.8" font-family="Times,serif" font-size="14.00" fill="#000000">has_unit exactly 1 &#160;&#160;</text>
</g>
<!-- pressure -->
<g id="node8" class="node">
<title>pressure</title>
<ellipse fill="#ffffe0" stroke="#000000" cx="1107.4458" cy="-105" rx="51.9908" ry="18"/>
<text text-anchor="middle" x="1107.4458" y="-101.3" font-family="Bitstream Vera Sans" font-size="14.00" fill="#000000">pressure</text>
</g>
<!-- pressure&#45;&gt;Pa -->
<g id="edge9" class="edge">
<title>pressure&#45;&gt;Pa</title>
<path fill="none" stroke="#0000ff" d="M1067.127,-116.4632C1006.5004,-133.7002 892.9059,-165.9966 835.9125,-182.2006"/>
<polygon fill="#0000ff" stroke="#0000ff" points="834.944,-178.8372 826.2824,-184.9386 836.8584,-185.5704 834.944,-178.8372"/>
<text text-anchor="middle" x="1044.9458" y="-144.8" font-family="Times,serif" font-size="14.00" fill="#000000">has_unit exactly 1 &#160;&#160;</text>
</g>
<!-- stiffness_tensor -->
<g id="node9" class="node">
<title>stiffness_tensor</title>
<ellipse fill="#ffffe0" stroke="#000000" cx="724.4458" cy="-18" rx="83.6854" ry="18"/>
<text text-anchor="middle" x="724.4458" y="-14.3" font-family="Bitstream Vera Sans" font-size="14.00" fill="#000000">stiffness_tensor</text>
</g>
<!-- stiffness_tensor&#45;&gt;Pa -->
<g id="edge10" class="edge">
<title>stiffness_tensor&#45;&gt;Pa</title>
<path fill="none" stroke="#0000ff" d="M720.415,-36.0138C716.4844,-57.6982 712.7642,-94.7225 725.4458,-123 735.1334,-144.6015 755.232,-162.3643 772.3279,-174.4555"/>
<polygon fill="#0000ff" stroke="#0000ff" points="770.6754,-177.5626 780.9233,-180.2518 774.5892,-171.7589 770.6754,-177.5626"/>
<text text-anchor="middle" x="797.9458" y="-101.3" font-family="Times,serif" font-size="14.00" fill="#000000">has_unit exactly 1 &#160;&#160;</text>
</g>
<!-- stiffness_tensor&#45;&gt;pressure -->
<g id="edge4" class="edge">
<title>stiffness_tensor&#45;&gt;pressure</title>
<path fill="none" stroke="#000000" d="M785.7293,-30.355C849.7397,-43.4898 952.9602,-65.3191 1041.4458,-87 1046.507,-88.2401 1051.7721,-89.5839 1057.0224,-90.9593"/>
<polygon fill="none" stroke="#000000" points="1056.4797,-94.4366 1067.0434,-93.6245 1058.2789,-87.6718 1056.4797,-94.4366"/>
<text text-anchor="middle" x="977.4458" y="-57.8" font-family="Times,serif" font-size="14.00" fill="#000000">is_a</text>
</g>
<!-- traction_separation -->
<g id="node10" class="node">
<title>traction_separation</title>
<ellipse fill="#ffffe0" stroke="#000000" cx="977.4458" cy="-18" rx="100.9827" ry="18"/>
<text text-anchor="middle" x="977.4458" y="-14.3" font-family="Bitstream Vera Sans" font-size="14.00" fill="#000000">traction_separation</text>
</g>
<!-- traction_separation&#45;&gt;Pa -->
<g id="edge11" class="edge">
<title>traction_separation&#45;&gt;Pa</title>
<path fill="none" stroke="#0000ff" d="M956.4888,-35.7929C940.858,-49.3544 919.2278,-68.7449 901.4458,-87 886.7127,-102.125 884.8098,-107.5241 870.4458,-123 855.6094,-138.9848 838.246,-156.3416 824.6489,-169.6484"/>
<polygon fill="#0000ff" stroke="#0000ff" points="821.8485,-167.4901 817.1259,-176.9742 826.7321,-172.5051 821.8485,-167.4901"/>
<text text-anchor="middle" x="973.9458" y="-101.3" font-family="Times,serif" font-size="14.00" fill="#000000">has_unit exactly 1 &#160;&#160;</text>
</g>
<!-- traction_separation&#45;&gt;pressure -->
<g id="edge5" class="edge">
<title>traction_separation&#45;&gt;pressure</title>
<path fill="none" stroke="#000000" d="M1003.4408,-35.3967C1023.9805,-49.1425 1052.766,-68.4066 1074.8478,-83.1844"/>
<polygon fill="none" stroke="#000000" points="1072.9948,-86.1558 1083.2521,-88.8089 1076.8881,-80.3383 1072.9948,-86.1558"/>
<text text-anchor="middle" x="1063.4458" y="-57.8" font-family="Times,serif" font-size="14.00" fill="#000000">is_a</text>
</g>
<!-- load_curve -->
<g id="node11" class="node">
<title>load_curve</title>
<ellipse fill="#ffffe0" stroke="#000000" cx="1182.4458" cy="-18" rx="61.99" ry="18"/>
<text text-anchor="middle" x="1182.4458" y="-14.3" font-family="Bitstream Vera Sans" font-size="14.00" fill="#000000">load_curve</text>
</g>
<!-- load_curve&#45;&gt;Pa -->
<g id="edge12" class="edge">
<title>load_curve&#45;&gt;Pa</title>
<path fill="none" stroke="#0000ff" d="M1184.5859,-35.9986C1186.2915,-58.3369 1186.0091,-96.6924 1168.4458,-123 1154.2739,-144.2277 1145.3144,-146.9588 1121.4458,-156 1070.4943,-175.3 911.6247,-186.08 838.7078,-190.1256"/>
<polygon fill="#0000ff" stroke="#0000ff" points="838.3921,-186.6375 828.5963,-190.6739 838.7712,-193.6272 838.3921,-186.6375"/>
<text text-anchor="middle" x="1253.9458" y="-101.3" font-family="Times,serif" font-size="14.00" fill="#000000">has_unit exactly 1 &#160;&#160;</text>
</g>
<!-- load_curve&#45;&gt;pressure -->
<g id="edge6" class="edge">
<title>load_curve&#45;&gt;pressure</title>
<path fill="none" stroke="#000000" d="M1167.2684,-35.6057C1156.3195,-48.3065 1141.3789,-65.6376 1129.168,-79.8023"/>
<polygon fill="none" stroke="#000000" points="1126.2231,-77.8579 1122.3446,-87.7173 1131.525,-82.4285 1126.2231,-77.8579"/>
<text text-anchor="middle" x="1162.4458" y="-57.8" font-family="Times,serif" font-size="14.00" fill="#000000">is_a</text>
</g>
<!-- lattice_vector -->
<g id="node12" class="node">
<title>lattice_vector</title>
<ellipse fill="#ffffe0" stroke="#000000" cx="215.4458" cy="-105" rx="73.387" ry="18"/>
<text text-anchor="middle" x="215.4458" y="-101.3" font-family="Bitstream Vera Sans" font-size="14.00" fill="#000000">lattice_vector</text>
</g>
<!-- lattice_vector&#45;&gt;m -->
<g id="edge13" class="edge">
<title>lattice_vector&#45;&gt;m</title>
<path fill="none" stroke="#0000ff" d="M215.4458,-123.0265C215.4458,-134.8082 215.4458,-150.4393 215.4458,-163.8419"/>
<polygon fill="#0000ff" stroke="#0000ff" points="211.9459,-163.9966 215.4458,-173.9966 218.9459,-163.9967 211.9459,-163.9966"/>
<text text-anchor="middle" x="287.9458" y="-144.8" font-family="Times,serif" font-size="14.00" fill="#000000">has_unit exactly 1 &#160;&#160;</text>
</g>
<!-- spacegroup -->
<g id="node13" class="node">
<title>spacegroup</title>
<ellipse fill="#ffffe0" stroke="#000000" cx="1513.4458" cy="-18" rx="65.7887" ry="18"/>
<text text-anchor="middle" x="1513.4458" y="-14.3" font-family="Bitstream Vera Sans" font-size="14.00" fill="#000000">spacegroup</text>
</g>
<!-- plasticity -->
<g id="node14" class="node">
<title>plasticity</title>
<ellipse fill="#ffffe0" stroke="#000000" cx="551.4458" cy="-105" rx="51.9908" ry="18"/>
<text text-anchor="middle" x="551.4458" y="-101.3" font-family="Bitstream Vera Sans" font-size="14.00" fill="#000000">plasticity</text>
</g>
<!-- plasticity&#45;&gt;Pa -->
<g id="edge14" class="edge">
<title>plasticity&#45;&gt;Pa</title>
<path fill="none" stroke="#0000ff" d="M546.4759,-123.1378C544.6838,-133.9524 544.7078,-147.2379 552.4458,-156 566.271,-171.655 698.4334,-184.0129 764.3869,-189.2616"/>
<polygon fill="#0000ff" stroke="#0000ff" points="764.133,-192.7523 774.3753,-190.0423 764.6785,-185.7736 764.133,-192.7523"/>
<text text-anchor="middle" x="624.9458" y="-144.8" font-family="Times,serif" font-size="14.00" fill="#000000">has_unit exactly 1 &#160;&#160;</text>
</g>
</g>
</svg>
