<?xml version="1.0" encoding="UTF-8" standalone="no"?>
<!DOCTYPE svg PUBLIC "-//W3C//DTD SVG 1.1//EN"
 "http://www.w3.org/Graphics/SVG/1.1/DTD/svg11.dtd">
<!-- Generated by graphviz version 2.40.1 (0)
 -->
<!-- Title: G Pages: 1 -->
<svg width="2107pt" height="601pt"
 viewBox="0.00 0.00 2107.24 600.82" xmlns="http://www.w3.org/2000/svg" xmlns:xlink="http://www.w3.org/1999/xlink">
<g id="graph0" class="graph" transform="scale(1 1) rotate(0) translate(4 596.8151)">
<title>G</title>
<polygon fill="#ffffff" stroke="transparent" points="-4,4 -4,-596.8151 2103.2364,-596.8151 2103.2364,4 -4,4"/>
<!-- atomic_number -->
<g id="node1" class="node">
<title>atomic_number</title>
<ellipse fill="#ffffe0" stroke="#000000" cx="1997.1955" cy="-60.8151" rx="83.6854" ry="18"/>
<text text-anchor="middle" x="1997.1955" y="-57.1151" font-family="Bitstream Vera Sans" font-size="14.00" fill="#000000">atomic_number</text>
</g>
<!-- integer -->
<g id="node3" class="node">
<title>integer</title>
<ellipse fill="#ffffe0" stroke="#000000" cx="1522.6621" cy="-60.8151" rx="44.393" ry="18"/>
<text text-anchor="middle" x="1522.6621" y="-57.1151" font-family="Bitstream Vera Sans" font-size="14.00" fill="#000000">integer</text>
</g>
<!-- atomic_number&#45;&gt;integer -->
<g id="edge7" class="edge">
<title>atomic_number&#45;&gt;integer</title>
<path fill="none" stroke="#0000ff" d="M1913.1782,-60.8151C1816.1701,-60.8151 1659.4236,-60.8151 1577.1185,-60.8151"/>
<polygon fill="#0000ff" stroke="#0000ff" points="1576.977,-57.3152 1566.9769,-60.8151 1576.9769,-64.3152 1576.977,-57.3152"/>
<text text-anchor="middle" x="1751.1546" y="-64.6151" font-family="Times,serif" font-size="14.00" fill="#000000">has_type exactly 1 &#160;&#160;</text>
</g>
<!-- position -->
<g id="node2" class="node">
<title>position</title>
<ellipse fill="#ffffe0" stroke="#000000" cx="468.1874" cy="-491.8151" rx="47.3916" ry="18"/>
<text text-anchor="middle" x="468.1874" y="-488.1151" font-family="Bitstream Vera Sans" font-size="14.00" fill="#000000">position</text>
</g>
<!-- real -->
<g id="node4" class="node">
<title>real</title>
<ellipse fill="#ffffe0" stroke="#000000" cx="177.09" cy="-322.8151" rx="28.6953" ry="18"/>
<text text-anchor="middle" x="177.09" y="-319.1151" font-family="Bitstream Vera Sans" font-size="14.00" fill="#000000">real</text>
</g>
<!-- position&#45;&gt;real -->
<g id="edge9" class="edge">
<title>position&#45;&gt;real</title>
<path fill="none" stroke="#0000ff" d="M423.9651,-485.0147C355.6187,-474.3404 231.3413,-454.2099 223.6874,-447.8151 194.8469,-423.7189 183.8462,-379.947 179.6569,-351.1244"/>
<polygon fill="#0000ff" stroke="#0000ff" points="183.0887,-350.3639 178.3619,-340.882 176.144,-351.2421 183.0887,-350.3639"/>
<text text-anchor="middle" x="297.6874" y="-479.6151" font-family="Times,serif" font-size="14.00" fill="#000000">has_type exactly 3 &#160;&#160;</text>
</g>
<!-- m -->
<g id="node7" class="node">
<title>m</title>
<ellipse fill="#ffffe0" stroke="#000000" cx="177.09" cy="-507.8151" rx="27" ry="18"/>
<text text-anchor="middle" x="177.09" y="-504.1151" font-family="Bitstream Vera Sans" font-size="14.00" fill="#000000">m</text>
</g>
<!-- position&#45;&gt;m -->
<g id="edge8" class="edge">
<title>position&#45;&gt;m</title>
<path fill="none" stroke="#0000ff" d="M421.0941,-494.4035C363.437,-497.5726 266.9756,-502.8745 214.2615,-505.772"/>
<polygon fill="#0000ff" stroke="#0000ff" points="213.8092,-502.2914 204.0164,-506.3351 214.1934,-509.2809 213.8092,-502.2914"/>
<text text-anchor="middle" x="297.6874" y="-508.6151" font-family="Times,serif" font-size="14.00" fill="#000000">has_unit exactly 1 &#160;&#160;</text>
</g>
<!-- string -->
<g id="node5" class="node">
<title>string</title>
<ellipse fill="#ffffe0" stroke="#000000" cx="1115.1696" cy="-269.8151" rx="37.0935" ry="18"/>
<text text-anchor="middle" x="1115.1696" y="-266.1151" font-family="Bitstream Vera Sans" font-size="14.00" fill="#000000">string</text>
</g>
<!-- SI_unit -->
<g id="node6" class="node">
<title>SI_unit</title>
<ellipse fill="#ffffe0" stroke="#000000" cx="42.2463" cy="-216.8151" rx="42.4939" ry="18"/>
<text text-anchor="middle" x="42.2463" y="-213.1151" font-family="Bitstream Vera Sans" font-size="14.00" fill="#000000">SI_unit</text>
</g>
<!-- m&#45;&gt;SI_unit -->
<g id="edge1" class="edge">
<title>m&#45;&gt;SI_unit</title>
<path fill="none" stroke="#000000" d="M169.0587,-490.4832C146.4476,-441.6872 82.1242,-302.8739 54.7863,-243.8771"/>
<polygon fill="none" stroke="#000000" points="57.958,-242.3971 50.578,-234.7954 51.6068,-245.3402 57.958,-242.3971"/>
<text text-anchor="middle" x="116.4925" y="-408.6151" font-family="Times,serif" font-size="14.00" fill="#000000">is_a</text>
</g>
<!-- m² -->
<g id="node8" class="node">
<title>m²</title>
<ellipse fill="#ffffe0" stroke="#000000" cx="177.09" cy="-137.8151" rx="27" ry="18"/>
<text text-anchor="middle" x="177.09" y="-134.1151" font-family="Bitstream Vera Sans" font-size="14.00" fill="#000000">m²</text>
</g>
<!-- m²&#45;&gt;SI_unit -->
<g id="edge2" class="edge">
<title>m²&#45;&gt;SI_unit</title>
<path fill="none" stroke="#000000" d="M156.6101,-149.8135C135.35,-162.269 101.7273,-181.9673 76.4302,-196.7879"/>
<polygon fill="none" stroke="#000000" points="74.3843,-193.9301 67.5252,-202.005 77.9228,-199.9699 74.3843,-193.9301"/>
<text text-anchor="middle" x="116.4925" y="-182.6151" font-family="Times,serif" font-size="14.00" fill="#000000">is_a</text>
</g>
<!-- Pa -->
<g id="node9" class="node">
<title>Pa</title>
<ellipse fill="#ffffe0" stroke="#000000" cx="177.09" cy="-216.8151" rx="27" ry="18"/>
<text text-anchor="middle" x="177.09" y="-213.1151" font-family="Bitstream Vera Sans" font-size="14.00" fill="#000000">Pa</text>
</g>
<!-- Pa&#45;&gt;SI_unit -->
<g id="edge3" class="edge">
<title>Pa&#45;&gt;SI_unit</title>
<path fill="none" stroke="#000000" d="M149.8023,-216.8151C134.0238,-216.8151 113.6345,-216.8151 94.8575,-216.8151"/>
<polygon fill="none" stroke="#000000" points="94.6312,-213.3152 84.6312,-216.8151 94.6312,-220.3152 94.6312,-213.3152"/>
<text text-anchor="middle" x="116.4925" y="-220.6151" font-family="Times,serif" font-size="14.00" fill="#000000">is_a</text>
</g>
<!-- area -->
<g id="node10" class="node">
<title>area</title>
<ellipse fill="#ffffe0" stroke="#000000" cx="468.1874" cy="-125.8151" rx="32.4942" ry="18"/>
<text text-anchor="middle" x="468.1874" y="-122.1151" font-family="Bitstream Vera Sans" font-size="14.00" fill="#000000">area</text>
</g>
<!-- area&#45;&gt;real -->
<g id="edge11" class="edge">
<title>area&#45;&gt;real</title>
<path fill="none" stroke="#0000ff" d="M435.5854,-126.1657C384.0105,-128.4721 283.349,-140.3471 223.6874,-195.8151 222.7269,-196.7081 200.402,-258.237 187.0073,-295.3137"/>
<polygon fill="#0000ff" stroke="#0000ff" points="183.5953,-294.4578 183.4913,-305.0521 190.1793,-296.835 183.5953,-294.4578"/>
<text text-anchor="middle" x="297.6874" y="-199.6151" font-family="Times,serif" font-size="14.00" fill="#000000">has_type exactly 1 &#160;&#160;</text>
</g>
<!-- area&#45;&gt;m² -->
<g id="edge10" class="edge">
<title>area&#45;&gt;m²</title>
<path fill="none" stroke="#0000ff" d="M438.2859,-118.6216C391.6537,-108.645 299.1309,-93.8552 223.6874,-112.8151 217.3769,-114.401 210.9889,-117.025 205.0501,-119.9907"/>
<polygon fill="#0000ff" stroke="#0000ff" points="203.27,-116.9747 196.163,-124.8323 206.6189,-123.1217 203.27,-116.9747"/>
<text text-anchor="middle" x="297.6874" y="-116.6151" font-family="Times,serif" font-size="14.00" fill="#000000">has_unit exactly 1 &#160;&#160;</text>
</g>
<!-- pressure -->
<g id="node11" class="node">
<title>pressure</title>
<ellipse fill="#ffffe0" stroke="#000000" cx="468.1874" cy="-230.8151" rx="51.9908" ry="18"/>
<text text-anchor="middle" x="468.1874" y="-227.1151" font-family="Bitstream Vera Sans" font-size="14.00" fill="#000000">pressure</text>
</g>
<!-- pressure&#45;&gt;real -->
<g id="edge13" class="edge">
<title>pressure&#45;&gt;real</title>
<path fill="none" stroke="#0000ff" d="M416.7872,-233.7851C349.9841,-237.9946 239.9083,-246.2564 223.6874,-255.8151 208.0666,-265.0201 196.4191,-281.7642 188.6759,-296.21"/>
<polygon fill="#0000ff" stroke="#0000ff" points="185.4884,-294.7589 184.1488,-305.2687 191.75,-297.8882 185.4884,-294.7589"/>
<text text-anchor="middle" x="297.6874" y="-259.6151" font-family="Times,serif" font-size="14.00" fill="#000000">has_type exactly 1 &#160;&#160;</text>
</g>
<!-- pressure&#45;&gt;Pa -->
<g id="edge12" class="edge">
<title>pressure&#45;&gt;Pa</title>
<path fill="none" stroke="#0000ff" d="M420.7014,-223.1808C405.1276,-221.0085 387.7082,-218.9307 371.6874,-217.8151 317.043,-214.0098 253.5589,-214.6235 214.351,-215.5851"/>
<polygon fill="#0000ff" stroke="#0000ff" points="214.1077,-212.0902 204.2044,-215.8552 214.2941,-219.0877 214.1077,-212.0902"/>
<text text-anchor="middle" x="297.6874" y="-221.6151" font-family="Times,serif" font-size="14.00" fill="#000000">has_unit exactly 1 &#160;&#160;</text>
</g>
<!-- stiffness_tensor -->
<g id="node12" class="node">
<title>stiffness_tensor</title>
<ellipse fill="#ffffe0" stroke="#000000" cx="711.4285" cy="-337.8151" rx="83.6854" ry="18"/>
<text text-anchor="middle" x="711.4285" y="-334.1151" font-family="Bitstream Vera Sans" font-size="14.00" fill="#000000">stiffness_tensor</text>
</g>
<!-- stiffness_tensor&#45;&gt;real -->
<g id="edge15" class="edge">
<title>stiffness_tensor&#45;&gt;real</title>
<path fill="none" stroke="#0000ff" d="M637.0289,-346.218C622.3386,-347.8044 607.0313,-349.4064 592.6874,-350.8151 429.463,-366.8448 382.1049,-389.2774 223.6874,-346.8151 217.944,-345.2756 212.0967,-342.9584 206.5727,-340.3607"/>
<polygon fill="#0000ff" stroke="#0000ff" points="208.1552,-337.2389 197.6568,-335.8122 204.974,-343.4744 208.1552,-337.2389"/>
<text text-anchor="middle" x="468.1874" y="-374.6151" font-family="Times,serif" font-size="14.00" fill="#000000">has_type exactly 36 &#160;&#160;</text>
</g>
<!-- stiffness_tensor&#45;&gt;Pa -->
<g id="edge14" class="edge">
<title>stiffness_tensor&#45;&gt;Pa</title>
<path fill="none" stroke="#0000ff" d="M628.4713,-334.9743C507.6188,-329.529 290.2887,-314.4116 223.6874,-274.8151 210.5933,-267.0302 199.6741,-254.1084 191.7051,-242.435"/>
<polygon fill="#0000ff" stroke="#0000ff" points="194.5463,-240.382 186.1989,-233.8574 188.6556,-244.1635 194.5463,-240.382"/>
<text text-anchor="middle" x="468.1874" y="-333.6151" font-family="Times,serif" font-size="14.00" fill="#000000">has_unit exactly 1 &#160;&#160;</text>
</g>
<!-- stiffness_tensor&#45;&gt;pressure -->
<g id="edge4" class="edge">
<title>stiffness_tensor&#45;&gt;pressure</title>
<path fill="none" stroke="#000000" d="M676.2614,-321.31C643.0308,-305.8318 591.7035,-282.228 546.6874,-262.8151 535.496,-257.9888 523.3306,-252.9364 511.9924,-248.3092"/>
<polygon fill="none" stroke="#000000" points="513.2846,-245.0564 502.7025,-244.5367 510.6508,-251.5421 513.2846,-245.0564"/>
<text text-anchor="middle" x="578.6874" y="-286.6151" font-family="Times,serif" font-size="14.00" fill="#000000">is_a</text>
</g>
<!-- traction_separation -->
<g id="node13" class="node">
<title>traction_separation</title>
<ellipse fill="#ffffe0" stroke="#000000" cx="711.4285" cy="-218.8151" rx="100.9827" ry="18"/>
<text text-anchor="middle" x="711.4285" y="-215.1151" font-family="Bitstream Vera Sans" font-size="14.00" fill="#000000">traction_separation</text>
</g>
<!-- traction_separation&#45;&gt;real -->
<g id="edge17" class="edge">
<title>traction_separation&#45;&gt;real</title>
<path fill="none" stroke="#0000ff" d="M652.9045,-233.5476C621.5081,-241.2288 582.0945,-250.517 546.6874,-257.8151 426.1546,-282.659 282.269,-306.2291 215.1174,-316.8789"/>
<polygon fill="#0000ff" stroke="#0000ff" points="214.3453,-313.4574 205.0142,-318.4754 215.4379,-320.3716 214.3453,-313.4574"/>
<text text-anchor="middle" x="468.1874" y="-289.6151" font-family="Times,serif" font-size="14.00" fill="#000000">has_type min 4 &#160;&#160;</text>
</g>
<!-- traction_separation&#45;&gt;Pa -->
<g id="edge16" class="edge">
<title>traction_separation&#45;&gt;Pa</title>
<path fill="none" stroke="#0000ff" d="M648.8182,-204.6713C618.2039,-198.4594 580.7077,-191.8874 546.6874,-188.8151 424.4096,-177.7722 279.1026,-198.7421 213.0122,-210.1412"/>
<polygon fill="#0000ff" stroke="#0000ff" points="212.3446,-206.7048 203.101,-211.8822 213.5557,-213.5993 212.3446,-206.7048"/>
<text text-anchor="middle" x="468.1874" y="-192.6151" font-family="Times,serif" font-size="14.00" fill="#000000">has_unit exactly 1 &#160;&#160;</text>
</g>
<!-- traction_separation&#45;&gt;pressure -->
<g id="edge5" class="edge">
<title>traction_separation&#45;&gt;pressure</title>
<path fill="none" stroke="#000000" d="M614.2445,-223.6095C585.8663,-225.0095 555.6367,-226.5009 530.0852,-227.7614"/>
<polygon fill="none" stroke="#000000" points="529.6228,-224.2799 519.8075,-228.2684 529.9678,-231.2714 529.6228,-224.2799"/>
<text text-anchor="middle" x="578.6874" y="-229.6151" font-family="Times,serif" font-size="14.00" fill="#000000">is_a</text>
</g>
<!-- load_curve -->
<g id="node14" class="node">
<title>load_curve</title>
<ellipse fill="#ffffe0" stroke="#000000" cx="711.4285" cy="-87.8151" rx="61.99" ry="18"/>
<text text-anchor="middle" x="711.4285" y="-84.1151" font-family="Bitstream Vera Sans" font-size="14.00" fill="#000000">load_curve</text>
</g>
<!-- load_curve&#45;&gt;real -->
<g id="edge19" class="edge">
<title>load_curve&#45;&gt;real</title>
<path fill="none" stroke="#0000ff" d="M655.1823,-80.1664C540.092,-65.9027 283.5109,-41.6591 223.6874,-99.8151 200.5639,-122.294 213.2226,-212.4587 205.6874,-243.8151 201.4506,-261.4457 194.5852,-280.582 188.6431,-295.6044"/>
<polygon fill="#0000ff" stroke="#0000ff" points="185.2348,-294.6959 184.7205,-305.2782 191.7218,-297.3263 185.2348,-294.6959"/>
<text text-anchor="middle" x="468.1874" y="-72.6151" font-family="Times,serif" font-size="14.00" fill="#000000">has_type min 4 &#160;&#160;</text>
</g>
<!-- load_curve&#45;&gt;Pa -->
<g id="edge18" class="edge">
<title>load_curve&#45;&gt;Pa</title>
<path fill="none" stroke="#0000ff" d="M679.4796,-72.248C592.6456,-32.4326 350.3515,61.6506 223.6874,-60.8151 189.9633,-93.4214 221.2025,-120.5457 205.6874,-164.8151 202.5183,-173.8575 197.8777,-183.1927 193.2529,-191.4145"/>
<polygon fill="#0000ff" stroke="#0000ff" points="190.1686,-189.7548 188.1174,-200.1492 196.2029,-193.3027 190.1686,-189.7548"/>
<text text-anchor="middle" x="468.1874" y="-27.6151" font-family="Times,serif" font-size="14.00" fill="#000000">has_unit exactly 1 &#160;&#160;</text>
</g>
<!-- load_curve&#45;&gt;pressure -->
<g id="edge6" class="edge">
<title>load_curve&#45;&gt;pressure</title>
<path fill="none" stroke="#000000" d="M668.1361,-100.6661C649.4939,-107.3702 628.0421,-116.7287 610.6874,-128.8151 576.0954,-152.9061 581.2726,-174.7142 546.6874,-198.8151 537.6276,-205.1284 527.1352,-210.4899 516.8281,-214.9151"/>
<polygon fill="none" stroke="#000000" points="515.4111,-211.7129 507.461,-218.7163 518.0433,-218.1992 515.4111,-211.7129"/>
<text text-anchor="middle" x="578.6874" y="-184.6151" font-family="Times,serif" font-size="14.00" fill="#000000">is_a</text>
</g>
<!-- lattice_vector -->
<g id="node15" class="node">
<title>lattice_vector</title>
<ellipse fill="#ffffe0" stroke="#000000" cx="468.1874" cy="-545.8151" rx="73.387" ry="18"/>
<text text-anchor="middle" x="468.1874" y="-542.1151" font-family="Bitstream Vera Sans" font-size="14.00" fill="#000000">lattice_vector</text>
</g>
<!-- lattice_vector&#45;&gt;real -->
<g id="edge21" class="edge">
<title>lattice_vector&#45;&gt;real</title>
<path fill="none" stroke="#0000ff" d="M395.3007,-543.5376C327.9748,-540.7501 236.4845,-534.957 223.6874,-523.8151 210.6076,-512.427 190.6512,-403.2447 181.7072,-350.7433"/>
<polygon fill="#0000ff" stroke="#0000ff" points="185.1361,-350.0283 180.0213,-340.7499 178.2336,-351.1928 185.1361,-350.0283"/>
<text text-anchor="middle" x="297.6874" y="-545.6151" font-family="Times,serif" font-size="14.00" fill="#000000">has_type exactly 3 &#160;&#160;</text>
</g>
<!-- lattice_vector&#45;&gt;m -->
<g id="edge20" class="edge">
<title>lattice_vector&#45;&gt;m</title>
<path fill="none" stroke="#0000ff" d="M425.313,-560.4735C374.6686,-575.1862 289.0506,-591.7465 223.6874,-561.8151 210.7172,-555.8756 199.984,-544.3463 192.101,-533.4608"/>
<polygon fill="#0000ff" stroke="#0000ff" points="194.8873,-531.3321 186.4019,-524.988 189.0791,-535.2391 194.8873,-531.3321"/>
<text text-anchor="middle" x="297.6874" y="-581.6151" font-family="Times,serif" font-size="14.00" fill="#000000">has_unit exactly 1 &#160;&#160;</text>
</g>
<!-- spacegroup -->
<g id="node16" class="node">
<title>spacegroup</title>
<ellipse fill="#ffffe0" stroke="#000000" cx="1522.6621" cy="-269.8151" rx="65.7887" ry="18"/>
<text text-anchor="middle" x="1522.6621" y="-266.1151" font-family="Bitstream Vera Sans" font-size="14.00" fill="#000000">spacegroup</text>
</g>
<!-- spacegroup&#45;&gt;string -->
<g id="edge22" class="edge">
<title>spacegroup&#45;&gt;string</title>
<path fill="none" stroke="#0000ff" d="M1456.7384,-269.8151C1374.2961,-269.8151 1235.1783,-269.8151 1162.5414,-269.8151"/>
<polygon fill="#0000ff" stroke="#0000ff" points="1162.3216,-266.3152 1152.3215,-269.8151 1162.3215,-273.3152 1162.3216,-266.3152"/>
<text text-anchor="middle" x="1321.1696" y="-273.6151" font-family="Times,serif" font-size="14.00" fill="#000000">has_type exactly 1 &#160;&#160;</text>
</g>
<!-- plasticity -->
<g id="node17" class="node">
<title>plasticity</title>
<ellipse fill="#ffffe0" stroke="#000000" cx="468.1874" cy="-437.8151" rx="51.9908" ry="18"/>
<text text-anchor="middle" x="468.1874" y="-434.1151" font-family="Bitstream Vera Sans" font-size="14.00" fill="#000000">plasticity</text>
</g>
<!-- plasticity&#45;&gt;real -->
<g id="edge24" class="edge">
<title>plasticity&#45;&gt;real</title>
<path fill="none" stroke="#0000ff" d="M416.891,-434.4757C349.9089,-429.7292 239.3059,-420.4212 223.6874,-409.8151 203.4086,-396.0441 191.2426,-370.4945 184.4549,-350.6317"/>
<polygon fill="#0000ff" stroke="#0000ff" points="187.7195,-349.3454 181.3812,-340.8556 181.0417,-351.445 187.7195,-349.3454"/>
<text text-anchor="middle" x="297.6874" y="-433.6151" font-family="Times,serif" font-size="14.00" fill="#000000">has_type min 2 &#160;&#160;</text>
</g>
<!-- plasticity&#45;&gt;Pa -->
<g id="edge23" class="edge">
<title>plasticity&#45;&gt;Pa</title>
<path fill="none" stroke="#0000ff" d="M430.7165,-425.2453C417.3367,-420.0645 402.4299,-413.469 389.6874,-405.8151 380.7604,-400.4529 380.9123,-395.6469 371.6874,-390.8151 311.2243,-359.1454 273.1778,-396.8201 223.6874,-349.8151 205.3442,-332.393 213.9936,-319.7108 205.6874,-295.8151 199.6951,-278.5758 192.7287,-259.3158 187.1719,-244.1289"/>
<polygon fill="#0000ff" stroke="#0000ff" points="190.3106,-242.5222 183.5795,-234.3404 183.7392,-244.934 190.3106,-242.5222"/>
<text text-anchor="middle" x="297.6874" y="-394.6151" font-family="Times,serif" font-size="14.00" fill="#000000">has_unit exactly 1 &#160;&#160;</text>
</g>
<!-- interface -->
<g id="node18" class="node">
<title>interface</title>
<ellipse fill="#ffffe0" stroke="#000000" cx="1115.1696" cy="-215.8151" rx="51.9908" ry="18"/>
<text text-anchor="middle" x="1115.1696" y="-212.1151" font-family="Bitstream Vera Sans" font-size="14.00" fill="#000000">interface</text>
</g>
<!-- interface&#45;&gt;area -->
<g id="edge25" class="edge">
<title>interface&#45;&gt;area</title>
<path fill="none" stroke="#0000ff" d="M1066.8053,-209.0872C944.6204,-192.0904 625.0962,-147.6422 510.1468,-131.6519"/>
<polygon fill="#0000ff" stroke="#0000ff" points="510.3784,-128.1505 499.9915,-130.2392 509.4139,-135.0838 510.3784,-128.1505"/>
<text text-anchor="middle" x="711.4285" y="-175.6151" font-family="Times,serif" font-size="14.00" fill="#000000">has_property exactly 1 &#160;&#160;</text>
</g>
<!-- interface&#45;&gt;traction_separation -->
<g id="edge26" class="edge">
<title>interface&#45;&gt;traction_separation</title>
<path fill="none" stroke="#0000ff" d="M1062.8014,-216.2042C1002.2572,-216.6541 900.8954,-217.4072 822.5564,-217.9893"/>
<polygon fill="#0000ff" stroke="#0000ff" points="822.1233,-214.4923 812.1496,-218.0667 822.1754,-221.4922 822.1233,-214.4923"/>
<text text-anchor="middle" x="919.1696" y="-221.6151" font-family="Times,serif" font-size="14.00" fill="#000000">has_property exactly 1 &#160;&#160;</text>
</g>
<!-- crystal_unit_cell -->
<g id="node19" class="node">
<title>crystal_unit_cell</title>
<ellipse fill="#ffffe0" stroke="#000000" cx="1522.6621" cy="-330.8151" rx="84.485" ry="18"/>
<text text-anchor="middle" x="1522.6621" y="-327.1151" font-family="Bitstream Vera Sans" font-size="14.00" fill="#000000">crystal_unit_cell</text>
</g>
<!-- crystal_unit_cell&#45;&gt;stiffness_tensor -->
<g id="edge29" class="edge">
<title>crystal_unit_cell&#45;&gt;stiffness_tensor</title>
<path fill="none" stroke="#0000ff" d="M1438.1416,-331.5444C1285.5575,-332.861 965.1681,-335.6256 805.7212,-337.0014"/>
<polygon fill="#0000ff" stroke="#0000ff" points="805.4243,-333.5038 795.4549,-337.09 805.4848,-340.5035 805.4243,-333.5038"/>
<text text-anchor="middle" x="1115.1696" y="-338.6151" font-family="Times,serif" font-size="14.00" fill="#000000">has_property exactly 1 &#160;&#160;</text>
</g>
<!-- crystal_unit_cell&#45;&gt;lattice_vector -->
<g id="edge28" class="edge">
<title>crystal_unit_cell&#45;&gt;lattice_vector</title>
<path fill="none" stroke="#0000ff" d="M1481.0106,-346.4856C1420.7392,-368.6241 1305.3335,-409.0063 1204.1696,-432.8151 967.7829,-488.4483 682.0111,-523.2811 546.6226,-537.8833"/>
<polygon fill="#0000ff" stroke="#0000ff" points="545.9213,-534.4383 536.3509,-538.9834 546.6667,-541.3985 545.9213,-534.4383"/>
<text text-anchor="middle" x="919.1696" y="-504.6151" font-family="Times,serif" font-size="14.00" fill="#000000">has_property exactly 3 &#160;&#160;</text>
</g>
<!-- crystal_unit_cell&#45;&gt;interface -->
<g id="edge27" class="edge">
<title>crystal_unit_cell&#45;&gt;interface</title>
<path fill="none" stroke="#0000ff" d="M1465.3867,-317.5081C1450.701,-314.3752 1434.8937,-311.2448 1420.1696,-308.8151 1376.4647,-301.6031 1257.5664,-312.4456 1222.1696,-285.8151 1205.6138,-273.3595 1219.5464,-256.6998 1204.1696,-242.8151 1195.5494,-235.0314 1184.7471,-229.4902 1173.6694,-225.5458"/>
<polygon fill="#0000ff" stroke="#0000ff" points="1174.5009,-222.1383 1163.9114,-222.4743 1172.3992,-228.8153 1174.5009,-222.1383"/>
<text text-anchor="middle" x="1321.1696" y="-312.6151" font-family="Times,serif" font-size="14.00" fill="#000000">has_space_slice some &#160;&#160;</text>
</g>
<!-- crystal -->
<g id="node20" class="node">
<title>crystal</title>
<ellipse fill="#ffffe0" stroke="#000000" cx="1997.1955" cy="-299.8151" rx="41.6928" ry="18"/>
<text text-anchor="middle" x="1997.1955" y="-296.1151" font-family="Bitstream Vera Sans" font-size="14.00" fill="#000000">crystal</text>
</g>
<!-- crystal&#45;&gt;spacegroup -->
<g id="edge31" class="edge">
<title>crystal&#45;&gt;spacegroup</title>
<path fill="none" stroke="#0000ff" d="M1956.6768,-295.2667C1933.4291,-292.7819 1903.6787,-289.813 1877.1546,-287.8151 1781.102,-280.5798 1670.1836,-275.4693 1598.3644,-272.5863"/>
<polygon fill="#0000ff" stroke="#0000ff" points="1598.1892,-269.0767 1588.0582,-272.1771 1597.9115,-276.0712 1598.1892,-269.0767"/>
<text text-anchor="middle" x="1751.1546" y="-291.6151" font-family="Times,serif" font-size="14.00" fill="#000000">has_property exactly 1 &#160;&#160;</text>
</g>
<!-- crystal&#45;&gt;crystal_unit_cell -->
<g id="edge30" class="edge">
<title>crystal&#45;&gt;crystal_unit_cell</title>
<path fill="none" stroke="#0000ff" d="M1955.9139,-302.5119C1880.0812,-307.4658 1716.9474,-318.1229 1613.915,-324.8538"/>
<polygon fill="#0000ff" stroke="#0000ff" points="1613.578,-321.3682 1603.8275,-325.5127 1614.0344,-328.3533 1613.578,-321.3682"/>
<text text-anchor="middle" x="1751.1546" y="-327.6151" font-family="Times,serif" font-size="14.00" fill="#000000">has_spatial_direct_part only &#160;&#160;</text>
</g>
<!-- boundary -->
<g id="node21" class="node">
<title>boundary</title>
<ellipse fill="#ffffe0" stroke="#000000" cx="1522.6621" cy="-202.8151" rx="55.4913" ry="18"/>
<text text-anchor="middle" x="1522.6621" y="-199.1151" font-family="Bitstream Vera Sans" font-size="14.00" fill="#000000">boundary</text>
</g>
<!-- boundary&#45;&gt;interface -->
<g id="edge32" class="edge">
<title>boundary&#45;&gt;interface</title>
<path fill="none" stroke="#0000ff" d="M1467.2817,-204.5818C1391.6837,-206.9936 1256.5665,-211.3042 1177.5045,-213.8264"/>
<polygon fill="#0000ff" stroke="#0000ff" points="1177.0881,-210.3378 1167.2048,-214.155 1177.3114,-217.3343 1177.0881,-210.3378"/>
<text text-anchor="middle" x="1321.1696" y="-215.6151" font-family="Times,serif" font-size="14.00" fill="#000000">has_space_slice exactly 1 &#160;&#160;</text>
</g>
<!-- phase -->
<g id="node22" class="node">
<title>phase</title>
<ellipse fill="#ffffe0" stroke="#000000" cx="1115.1696" cy="-405.8151" rx="38.9931" ry="18"/>
<text text-anchor="middle" x="1115.1696" y="-402.1151" font-family="Bitstream Vera Sans" font-size="14.00" fill="#000000">phase</text>
</g>
<!-- phase&#45;&gt;stiffness_tensor -->
<g id="edge33" class="edge">
<title>phase&#45;&gt;stiffness_tensor</title>
<path fill="none" stroke="#0000ff" d="M1078.2699,-399.6002C1012.6387,-388.5463 874.3739,-365.2591 787.5927,-350.643"/>
<polygon fill="#0000ff" stroke="#0000ff" points="787.9769,-347.1585 777.5345,-348.9489 786.8143,-354.0613 787.9769,-347.1585"/>
<text text-anchor="middle" x="919.1696" y="-390.6151" font-family="Times,serif" font-size="14.00" fill="#000000">has_property exactly 1 &#160;&#160;</text>
</g>
<!-- phase&#45;&gt;plasticity -->
<g id="edge34" class="edge">
<title>phase&#45;&gt;plasticity</title>
<path fill="none" stroke="#0000ff" d="M1076.1549,-407.7447C967.7615,-413.1059 662.2806,-428.2151 530.2527,-434.7453"/>
<polygon fill="#0000ff" stroke="#0000ff" points="529.7301,-431.2668 519.9152,-435.2566 530.0759,-438.2582 529.7301,-431.2668"/>
<text text-anchor="middle" x="711.4285" y="-433.6151" font-family="Times,serif" font-size="14.00" fill="#000000">has_property exactly 1 &#160;&#160;</text>
</g>
<!-- rve -->
<g id="node23" class="node">
<title>rve</title>
<ellipse fill="#ffffe0" stroke="#000000" cx="1997.1955" cy="-353.8151" rx="27" ry="18"/>
<text text-anchor="middle" x="1997.1955" y="-350.1151" font-family="Bitstream Vera Sans" font-size="14.00" fill="#000000">rve</text>
</g>
<!-- welded_component -->
<g id="node24" class="node">
<title>welded_component</title>
<ellipse fill="#ffffe0" stroke="#000000" cx="1997.1955" cy="-127.8151" rx="102.0819" ry="18"/>
<text text-anchor="middle" x="1997.1955" y="-124.1151" font-family="Bitstream Vera Sans" font-size="14.00" fill="#000000">welded_component</text>
</g>
<!-- welded_component&#45;&gt;load_curve -->
<g id="edge36" class="edge">
<title>welded_component&#45;&gt;load_curve</title>
<path fill="none" stroke="#0000ff" d="M1896.5714,-124.6847C1646.1731,-116.8948 999.6842,-96.7826 783.2417,-90.0492"/>
<polygon fill="#0000ff" stroke="#0000ff" points="783.0613,-86.5419 772.9572,-89.7292 782.8435,-93.5386 783.0613,-86.5419"/>
<text text-anchor="middle" x="1321.1696" y="-113.6151" font-family="Times,serif" font-size="14.00" fill="#000000">has_property exactly 1 &#160;&#160;</text>
</g>
<!-- welded_component&#45;&gt;boundary -->
<g id="edge35" class="edge">
<title>welded_component&#45;&gt;boundary</title>
<path fill="none" stroke="#0000ff" d="M1920.9535,-139.8651C1826.7962,-154.7467 1668.5803,-179.7527 1582.6282,-193.3374"/>
<polygon fill="#0000ff" stroke="#0000ff" points="1581.8446,-189.9177 1572.5137,-194.936 1582.9375,-196.8319 1581.8446,-189.9177"/>
<text text-anchor="middle" x="1751.1546" y="-189.6151" font-family="Times,serif" font-size="14.00" fill="#000000">has_spatial_direct_part exactly 2 &#160;&#160;</text>
</g>
</g>
</svg>
