<?xml version="1.0" encoding="UTF-8" standalone="no"?>
<!DOCTYPE svg PUBLIC "-//W3C//DTD SVG 1.1//EN"
 "http://www.w3.org/Graphics/SVG/1.1/DTD/svg11.dtd">
<!-- Generated by graphviz version 2.40.1 (20161225.0304)
 -->
<!-- Title: %3 Pages: 1 -->
<svg width="992pt" height="218pt"
 viewBox="0.00 0.00 991.79 218.00" xmlns="http://www.w3.org/2000/svg" xmlns:xlink="http://www.w3.org/1999/xlink">
<g id="graph0" class="graph" transform="scale(1 1) rotate(0) translate(4 214)">
<title>%3</title>
<polygon fill="#ffffff" stroke="transparent" points="-4,4 -4,-214 987.7947,-214 987.7947,4 -4,4"/>
<!-- BaseQuantity -->
<g id="node1" class="node">
<title>BaseQuantity</title>
<g id="a_node1"><a xlink:href="http://emmo.info/emmo/middle/units#EMMO_acaaa124_3dde_48b6_86e6_6ec6f364f408" xlink:title="BaseQuantity">
<ellipse fill="#ffffcc" stroke="#000000" stroke-width="2" cx="420.8973" cy="-192" rx="58.4896" ry="18"/>
<text text-anchor="middle" x="420.8973" y="-188.3" font-family="Times,serif" font-size="14.00" fill="#000000">BaseQuantity</text>
</a>
</g>
</g>
<!-- Time -->
<g id="node2" class="node">
<title>Time</title>
<g id="a_node2"><a xlink:href="http://emmo.info/emmo/middle/isq#EMMO_d4f7d378_5e3b_468a_baa1_a7e98358cda7" xlink:title="Time">
<ellipse fill="#ffffcc" stroke="#000000" cx="29.8973" cy="-18" rx="29.795" ry="18"/>
<text text-anchor="middle" x="29.8973" y="-14.3" font-family="Times,serif" font-size="14.00" fill="#000000">Time</text>
</a>
</g>
</g>
<!-- ISQBaseQuantity -->
<g id="node8" class="node">
<title>ISQBaseQuantity</title>
<g id="a_node8"><a xlink:href="http://emmo.info/emmo/middle/isq#EMMO_1a4c1a97_88a7_4d8e_b2f9_2ca58e92dde4" xlink:title="ISQBaseQuantity">
<ellipse fill="#ffffcc" stroke="#000000" cx="420.8973" cy="-105" rx="72.5877" ry="18"/>
<text text-anchor="middle" x="420.8973" y="-101.3" font-family="Times,serif" font-size="14.00" fill="#000000">ISQBaseQuantity</text>
</a>
</g>
</g>
<!-- Time&#45;&gt;ISQBaseQuantity -->
<g id="edge6" class="edge">
<title>Time&#45;&gt;ISQBaseQuantity</title>
<path fill="none" stroke="#000000" d="M53.1156,-29.5702C58.2403,-31.8823 63.6942,-34.1618 68.8973,-36 160.5882,-68.3922 271.3908,-86.9405 343.8735,-96.4815"/>
<polygon fill="none" stroke="#000000" points="343.4749,-99.959 353.8409,-97.7685 344.3714,-93.0166 343.4749,-99.959"/>
<text text-anchor="middle" x="192.3973" y="-57.8" font-family="Times,serif" font-size="14.00" fill="#000000">isA</text>
</g>
<!-- Length -->
<g id="node3" class="node">
<title>Length</title>
<g id="a_node3"><a xlink:href="http://emmo.info/emmo/middle/isq#EMMO_cd2cd0de_e0cc_4ef1_b27e_2e88db027bac" xlink:title="Length">
<ellipse fill="#ffffcc" stroke="#000000" cx="113.8973" cy="-18" rx="35.9954" ry="18"/>
<text text-anchor="middle" x="113.8973" y="-14.3" font-family="Times,serif" font-size="14.00" fill="#000000">Length</text>
</a>
</g>
</g>
<!-- Length&#45;&gt;ISQBaseQuantity -->
<g id="edge3" class="edge">
<title>Length&#45;&gt;ISQBaseQuantity</title>
<path fill="none" stroke="#000000" d="M141.3054,-29.5847C147.0683,-31.8449 153.1447,-34.1 158.8973,-36 225.5083,-58.0009 303.4279,-77.7855 356.873,-90.4692"/>
<polygon fill="none" stroke="#000000" points="356.3555,-93.9431 366.8919,-92.8318 357.9622,-87.13 356.3555,-93.9431"/>
<text text-anchor="middle" x="276.3973" y="-57.8" font-family="Times,serif" font-size="14.00" fill="#000000">isA</text>
</g>
<!-- AmountOfSubstance -->
<g id="node4" class="node">
<title>AmountOfSubstance</title>
<g id="a_node4"><a xlink:href="http://emmo.info/emmo/middle/isq#EMMO_8159c26a_494b_4fa0_9959_10888f152298" xlink:title="AmountOfSubstance">
<ellipse fill="#ffffcc" stroke="#000000" cx="252.8973" cy="-18" rx="85.2851" ry="18"/>
<text text-anchor="middle" x="252.8973" y="-14.3" font-family="Times,serif" font-size="14.00" fill="#000000">AmountOfSubstance</text>
</a>
</g>
</g>
<!-- AmountOfSubstance&#45;&gt;ISQBaseQuantity -->
<g id="edge4" class="edge">
<title>AmountOfSubstance&#45;&gt;ISQBaseQuantity</title>
<path fill="none" stroke="#000000" d="M285.2894,-34.7745C312.3914,-48.8094 351.1955,-68.9044 380.3562,-84.0055"/>
<polygon fill="none" stroke="#000000" points="378.9685,-87.2283 389.458,-88.7189 382.1875,-81.0123 378.9685,-87.2283"/>
<text text-anchor="middle" x="357.3973" y="-57.8" font-family="Times,serif" font-size="14.00" fill="#000000">isA</text>
</g>
<!-- ElectricCurrent -->
<g id="node5" class="node">
<title>ElectricCurrent</title>
<g id="a_node5"><a xlink:href="http://emmo.info/emmo/middle/isq#EMMO_c995ae70_3b84_4ebb_bcfc_69e6a281bb88" xlink:title="ElectricCurrent">
<ellipse fill="#ffffcc" stroke="#000000" cx="420.8973" cy="-18" rx="64.9885" ry="18"/>
<text text-anchor="middle" x="420.8973" y="-14.3" font-family="Times,serif" font-size="14.00" fill="#000000">ElectricCurrent</text>
</a>
</g>
</g>
<!-- ElectricCurrent&#45;&gt;ISQBaseQuantity -->
<g id="edge7" class="edge">
<title>ElectricCurrent&#45;&gt;ISQBaseQuantity</title>
<path fill="none" stroke="#000000" d="M420.8973,-36.0265C420.8973,-47.8082 420.8973,-63.4393 420.8973,-76.8419"/>
<polygon fill="none" stroke="#000000" points="417.3974,-76.9966 420.8973,-86.9966 424.3974,-76.9967 417.3974,-76.9966"/>
<text text-anchor="middle" x="430.3973" y="-57.8" font-family="Times,serif" font-size="14.00" fill="#000000">isA</text>
</g>
<!-- ThermodynamicTemperature -->
<g id="node6" class="node">
<title>ThermodynamicTemperature</title>
<g id="a_node6"><a xlink:href="http://emmo.info/emmo/middle/isq#EMMO_affe07e4_e9bc_4852_86c6_69e26182a17f" xlink:title="ThermodynamicTemperature">
<ellipse fill="#ffffcc" stroke="#000000" cx="618.8973" cy="-18" rx="115.0796" ry="18"/>
<text text-anchor="middle" x="618.8973" y="-14.3" font-family="Times,serif" font-size="14.00" fill="#000000">ThermodynamicTemperature</text>
</a>
</g>
</g>
<!-- ThermodynamicTemperature&#45;&gt;ISQBaseQuantity -->
<g id="edge2" class="edge">
<title>ThermodynamicTemperature&#45;&gt;ISQBaseQuantity</title>
<path fill="none" stroke="#000000" d="M580.2509,-34.981C547.5381,-49.3548 500.6083,-69.9755 466.1474,-85.1174"/>
<polygon fill="none" stroke="#000000" points="464.5278,-82.006 456.7805,-89.2331 467.3437,-88.4147 464.5278,-82.006"/>
<text text-anchor="middle" x="541.3973" y="-57.8" font-family="Times,serif" font-size="14.00" fill="#000000">isA</text>
</g>
<!-- LuminousIntensity -->
<g id="node7" class="node">
<title>LuminousIntensity</title>
<g id="a_node7"><a xlink:href="http://emmo.info/emmo/middle/isq#EMMO_50bf79a6_a48b_424d_9d2c_813bd631231a" xlink:title="LuminousIntensity">
<ellipse fill="#ffffcc" stroke="#000000" cx="828.8973" cy="-18" rx="77.1866" ry="18"/>
<text text-anchor="middle" x="828.8973" y="-14.3" font-family="Times,serif" font-size="14.00" fill="#000000">LuminousIntensity</text>
</a>
</g>
</g>
<!-- LuminousIntensity&#45;&gt;ISQBaseQuantity -->
<g id="edge5" class="edge">
<title>LuminousIntensity&#45;&gt;ISQBaseQuantity</title>
<path fill="none" stroke="#000000" d="M771.7371,-30.1886C696.5491,-46.2213 564.7478,-74.326 485.8621,-91.1472"/>
<polygon fill="none" stroke="#000000" points="485.0895,-87.7332 476.0393,-93.2418 486.5493,-94.5793 485.0895,-87.7332"/>
<text text-anchor="middle" x="659.3973" y="-57.8" font-family="Times,serif" font-size="14.00" fill="#000000">isA</text>
</g>
<!-- ISQBaseQuantity&#45;&gt;BaseQuantity -->
<g id="edge1" class="edge">
<title>ISQBaseQuantity&#45;&gt;BaseQuantity</title>
<path fill="none" stroke="#000000" d="M420.8973,-123.0265C420.8973,-134.8082 420.8973,-150.4393 420.8973,-163.8419"/>
<polygon fill="none" stroke="#000000" points="417.3974,-163.9966 420.8973,-173.9966 424.3974,-163.9967 417.3974,-163.9966"/>
<text text-anchor="middle" x="430.3973" y="-144.8" font-family="Times,serif" font-size="14.00" fill="#000000">isA</text>
</g>
<!-- Mass -->
<g id="node9" class="node">
<title>Mass</title>
<g id="a_node9"><a xlink:href="http://emmo.info/emmo/middle/isq#EMMO_ed4af7ae_63a2_497e_bb88_2309619ea405" xlink:title="Mass">
<ellipse fill="#ffffcc" stroke="#000000" cx="953.8973" cy="-18" rx="29.795" ry="18"/>
<text text-anchor="middle" x="953.8973" y="-14.3" font-family="Times,serif" font-size="14.00" fill="#000000">Mass</text>
</a>
</g>
</g>
<!-- Mass&#45;&gt;ISQBaseQuantity -->
<g id="edge8" class="edge">
<title>Mass&#45;&gt;ISQBaseQuantity</title>
<path fill="none" stroke="#000000" d="M931.2335,-29.8145C925.9817,-32.1682 920.3353,-34.4033 914.8973,-36 773.6593,-77.4703 602.1822,-94.2899 502.8952,-100.9108"/>
<polygon fill="none" stroke="#000000" points="502.3825,-97.4366 492.6299,-101.576 502.8353,-104.4219 502.3825,-97.4366"/>
<text text-anchor="middle" x="845.3973" y="-57.8" font-family="Times,serif" font-size="14.00" fill="#000000">isA</text>
</g>
</g>
</svg>
