<?xml version="1.0" encoding="UTF-8" standalone="no"?>
<!DOCTYPE svg PUBLIC "-//W3C//DTD SVG 1.1//EN"
 "http://www.w3.org/Graphics/SVG/1.1/DTD/svg11.dtd">
<!-- Generated by graphviz version 2.40.1 (20161225.0304)
 -->
<!-- Title: %3 Pages: 1 -->
<svg width="316pt" height="218pt"
 viewBox="0.00 0.00 316.00 218.00" xmlns="http://www.w3.org/2000/svg" xmlns:xlink="http://www.w3.org/1999/xlink">
<g id="graph0" class="graph" transform="scale(1 1) rotate(0) translate(4 214)">
<title>%3</title>
<polygon fill="#ffffff" stroke="transparent" points="-4,4 -4,-214 312,-214 312,4 -4,4"/>
<!-- connected -->
<g id="node1" class="node">
<title>connected</title>
<g id="a_node1"><a xlink:href="http://emmo.info/emmo/top/mereotopology#EMMO_6703954e_34c4_4a15_a9e7_f313760ae1a8" xlink:title="connected">
<polygon fill="#0079ba" stroke="#000000" stroke-width="2" points="190.5,-210 119.5,-210 119.5,-174 190.5,-174 190.5,-210"/>
<text text-anchor="middle" x="155" y="-188.3" font-family="Times,serif" font-size="14.00" fill="#ffffff">connected</text>
</a>
</g>
</g>
<!-- overcrosses -->
<g id="node2" class="node">
<title>overcrosses</title>
<g id="a_node2"><a xlink:href="http://emmo.info/emmo/top/mereotopology#EMMO_9cb984ca_48ad_4864_b09e_50d3fff19420" xlink:title="overcrosses">
<polygon fill="#0079ba" stroke="#000000" points="93,-36 13,-36 13,0 93,0 93,-36"/>
<text text-anchor="middle" x="53" y="-14.3" font-family="Times,serif" font-size="14.00" fill="#ffffff">overcrosses</text>
</a>
</g>
</g>
<!-- hasOverlapWith -->
<g id="node3" class="node">
<title>hasOverlapWith</title>
<g id="a_node3"><a xlink:href="http://emmo.info/emmo/top/mereotopology#EMMO_d893d373_b579_4867_841e_1c2b31a8d2c6" xlink:title="hasOverlapWith">
<polygon fill="#0079ba" stroke="#000000" points="106,-123 0,-123 0,-87 106,-87 106,-123"/>
<text text-anchor="middle" x="53" y="-101.3" font-family="Times,serif" font-size="14.00" fill="#ffffff">hasOverlapWith</text>
</a>
</g>
</g>
<!-- overcrosses&#45;&gt;hasOverlapWith -->
<g id="edge6" class="edge">
<title>overcrosses&#45;&gt;hasOverlapWith</title>
<path fill="none" stroke="#000000" d="M53,-36.0265C53,-47.8082 53,-63.4393 53,-76.8419"/>
<polygon fill="none" stroke="#000000" points="49.5001,-76.9966 53,-86.9966 56.5001,-76.9967 49.5001,-76.9966"/>
<text text-anchor="middle" x="62.5" y="-57.8" font-family="Times,serif" font-size="14.00" fill="#000000">isA</text>
</g>
<!-- hasOverlapWith&#45;&gt;connected -->
<g id="edge5" class="edge">
<title>hasOverlapWith&#45;&gt;connected</title>
<path fill="none" stroke="#000000" d="M74.1345,-123.0265C89.1784,-135.8581 109.5756,-153.2557 126.1204,-167.3674"/>
<polygon fill="none" stroke="#000000" points="124.0129,-170.1701 133.8926,-173.9966 128.5556,-164.8442 124.0129,-170.1701"/>
<text text-anchor="middle" x="120.5" y="-144.8" font-family="Times,serif" font-size="14.00" fill="#000000">isA</text>
</g>
<!-- hasPart -->
<g id="node4" class="node">
<title>hasPart</title>
<g id="a_node4"><a xlink:href="http://emmo.info/emmo/top/mereotopology#EMMO_17e27c22_37e1_468c_9dd7_95e137f73e7f" xlink:title="hasPart">
<polygon fill="#0079ba" stroke="#000000" stroke-width="2" points="175,-36 119,-36 119,0 175,0 175,-36"/>
<text text-anchor="middle" x="147" y="-14.3" font-family="Times,serif" font-size="14.00" fill="#ffffff">hasPart</text>
</a>
</g>
</g>
<!-- hasPart&#45;&gt;hasOverlapWith -->
<g id="edge3" class="edge">
<title>hasPart&#45;&gt;hasOverlapWith</title>
<path fill="none" stroke="#000000" d="M127.5231,-36.0265C113.7851,-48.7414 95.2031,-65.9397 80.0312,-79.9817"/>
<polygon fill="none" stroke="#000000" points="77.4136,-77.6354 72.4519,-86.9966 82.1684,-82.7728 77.4136,-77.6354"/>
<text text-anchor="middle" x="115.5" y="-57.8" font-family="Times,serif" font-size="14.00" fill="#000000">isA</text>
</g>
<!-- encloses -->
<g id="node5" class="node">
<title>encloses</title>
<g id="a_node5"><a xlink:href="http://emmo.info/emmo/top/mereotopology#EMMO_8c898653_1118_4682_9bbf_6cc334d16a99" xlink:title="encloses">
<polygon fill="#0079ba" stroke="#000000" points="186,-123 124,-123 124,-87 186,-87 186,-123"/>
<text text-anchor="middle" x="155" y="-101.3" font-family="Times,serif" font-size="14.00" fill="#ffffff">encloses</text>
</a>
</g>
</g>
<!-- hasPart&#45;&gt;encloses -->
<g id="edge2" class="edge">
<title>hasPart&#45;&gt;encloses</title>
<path fill="none" stroke="#000000" d="M148.6576,-36.0265C149.741,-47.8082 151.1783,-63.4393 152.4108,-76.8419"/>
<polygon fill="none" stroke="#000000" points="148.9435,-77.3592 153.3445,-86.9966 155.914,-76.7181 148.9435,-77.3592"/>
<text text-anchor="middle" x="161.5" y="-57.8" font-family="Times,serif" font-size="14.00" fill="#000000">isA</text>
</g>
<!-- encloses&#45;&gt;connected -->
<g id="edge4" class="edge">
<title>encloses&#45;&gt;connected</title>
<path fill="none" stroke="#000000" d="M155,-123.0265C155,-134.8082 155,-150.4393 155,-163.8419"/>
<polygon fill="none" stroke="#000000" points="151.5001,-163.9966 155,-173.9966 158.5001,-163.9967 151.5001,-163.9966"/>
<text text-anchor="middle" x="164.5" y="-144.8" font-family="Times,serif" font-size="14.00" fill="#000000">isA</text>
</g>
<!-- hasContactWith -->
<g id="node6" class="node">
<title>hasContactWith</title>
<g id="a_node6"><a xlink:href="http://emmo.info/emmo/top/mereotopology#EMMO_4d6504f1_c470_4ce9_b941_bbbebc9ab05d" xlink:title="hasContactWith">
<polygon fill="#0079ba" stroke="#000000" points="308,-123 204,-123 204,-87 308,-87 308,-123"/>
<text text-anchor="middle" x="256" y="-101.3" font-family="Times,serif" font-size="14.00" fill="#ffffff">hasContactWith</text>
</a>
</g>
</g>
<!-- hasContactWith&#45;&gt;connected -->
<g id="edge1" class="edge">
<title>hasContactWith&#45;&gt;connected</title>
<path fill="none" stroke="#000000" d="M235.0727,-123.0265C220.1762,-135.8581 199.9791,-153.2557 183.5965,-167.3674"/>
<polygon fill="none" stroke="#000000" points="181.1929,-164.8183 175.9005,-173.9966 185.7614,-170.122 181.1929,-164.8183"/>
<text text-anchor="middle" x="220.5" y="-144.8" font-family="Times,serif" font-size="14.00" fill="#000000">isA</text>
</g>
</g>
</svg>
