<?xml version="1.0" encoding="UTF-8" standalone="no"?>
<!DOCTYPE svg PUBLIC "-//W3C//DTD SVG 1.1//EN"
 "http://www.w3.org/Graphics/SVG/1.1/DTD/svg11.dtd">
<!-- Generated by graphviz version 2.40.1 (20161225.0304)
 -->
<!-- Title: %3 Pages: 1 -->
<svg width="785pt" height="740pt"
 viewBox="0.00 0.00 785.00 740.00" xmlns="http://www.w3.org/2000/svg" xmlns:xlink="http://www.w3.org/1999/xlink">
<g id="graph0" class="graph" transform="scale(1 1) rotate(0) translate(4 736)">
<title>%3</title>
<polygon fill="#ffffff" stroke="transparent" points="-4,4 -4,-736 781,-736 781,4 -4,4"/>
<!-- hasTemporalDirectPart -->
<g id="node1" class="node">
<title>hasTemporalDirectPart</title>
<g id="a_node1"><a xlink:href="http://emmo.info/emmo/middle/reductionistic#EMMO_65a2c5b8_e4d8_4a51_b2f8_e55effc0547d" xlink:title="hasTemporalDirectPart">
<polygon fill="#0079ba" stroke="#000000" points="238,-123 95,-123 95,-87 238,-87 238,-123"/>
<text text-anchor="middle" x="166.5" y="-101.3" font-family="Times,serif" font-size="14.00" fill="#ffffff">hasTemporalDirectPart</text>
</a>
</g>
</g>
<!-- hasTemporalPart -->
<g id="node11" class="node">
<title>hasTemporalPart</title>
<g id="a_node11"><a xlink:href="http://emmo.info/emmo/top/physical#EMMO_7afbed84_7593_4a23_bd88_9d9c6b04e8f6" xlink:title="hasTemporalPart">
<polygon fill="#0079ba" stroke="#000000" points="238.5,-210 128.5,-210 128.5,-174 238.5,-174 238.5,-210"/>
<text text-anchor="middle" x="183.5" y="-188.3" font-family="Times,serif" font-size="14.00" fill="#ffffff">hasTemporalPart</text>
</a>
</g>
</g>
<!-- hasTemporalDirectPart&#45;&gt;hasTemporalPart -->
<g id="edge14" class="edge">
<title>hasTemporalDirectPart&#45;&gt;hasTemporalPart</title>
<path fill="none" stroke="#000000" d="M170.0224,-123.0265C172.3246,-134.8082 175.379,-150.4393 177.9978,-163.8419"/>
<polygon fill="none" stroke="#000000" points="174.6292,-164.8535 179.9821,-173.9966 181.4993,-163.511 174.6292,-164.8535"/>
<text text-anchor="middle" x="186" y="-144.8" font-family="Times,serif" font-size="14.00" fill="#000000">isA</text>
</g>
<!-- hasProperParticipant -->
<g id="node2" class="node">
<title>hasProperParticipant</title>
<g id="a_node2"><a xlink:href="http://emmo.info/emmo/middle/holistic#EMMO_c5aae418_1622_4d02_93c5_21159e28e6c1" xlink:title="hasProperParticipant">
<polygon fill="#0079ba" stroke="#000000" points="777,-210 648,-210 648,-174 777,-174 777,-210"/>
<text text-anchor="middle" x="712.5" y="-188.3" font-family="Times,serif" font-size="14.00" fill="#ffffff">hasProperParticipant</text>
</a>
</g>
</g>
<!-- hasParticipant -->
<g id="node6" class="node">
<title>hasParticipant</title>
<g id="a_node6"><a xlink:href="http://emmo.info/emmo/middle/holistic#EMMO_ae2d1a96_bfa1_409a_a7d2_03d69e8a125a" xlink:title="hasParticipant">
<polygon fill="#0079ba" stroke="#000000" points="721,-297 628,-297 628,-261 721,-261 721,-297"/>
<text text-anchor="middle" x="674.5" y="-275.3" font-family="Times,serif" font-size="14.00" fill="#ffffff">hasParticipant</text>
</a>
</g>
</g>
<!-- hasProperParticipant&#45;&gt;hasParticipant -->
<g id="edge2" class="edge">
<title>hasProperParticipant&#45;&gt;hasParticipant</title>
<path fill="none" stroke="#000000" d="M704.6264,-210.0265C699.3784,-222.0415 692.3819,-238.0599 686.4523,-251.6354"/>
<polygon fill="none" stroke="#000000" points="683.1589,-250.4317 682.3635,-260.9966 689.5737,-253.2336 683.1589,-250.4317"/>
<text text-anchor="middle" x="705" y="-231.8" font-family="Times,serif" font-size="14.00" fill="#000000">isA</text>
</g>
<!-- hasProperPart -->
<g id="node7" class="node">
<title>hasProperPart</title>
<g id="a_node7"><a xlink:href="http://emmo.info/emmo/top/mereotopology#EMMO_9380ab64_0363_4804_b13f_3a8a94119a76" xlink:title="hasProperPart">
<polygon fill="#0079ba" stroke="#000000" points="586.5,-297 494.5,-297 494.5,-261 586.5,-261 586.5,-297"/>
<text text-anchor="middle" x="540.5" y="-275.3" font-family="Times,serif" font-size="14.00" fill="#ffffff">hasProperPart</text>
</a>
</g>
</g>
<!-- hasProperParticipant&#45;&gt;hasProperPart -->
<g id="edge3" class="edge">
<title>hasProperParticipant&#45;&gt;hasProperPart</title>
<path fill="none" stroke="#000000" d="M676.8615,-210.0265C650.2248,-223.4997 613.6359,-242.0068 585.0647,-256.4585"/>
<polygon fill="none" stroke="#000000" points="583.4365,-253.3598 576.0929,-260.9966 586.5961,-259.6062 583.4365,-253.3598"/>
<text text-anchor="middle" x="646" y="-231.8" font-family="Times,serif" font-size="14.00" fill="#000000">isA</text>
</g>
<!-- hasSpatialPart -->
<g id="node3" class="node">
<title>hasSpatialPart</title>
<g id="a_node3"><a xlink:href="http://emmo.info/emmo/top/physical#EMMO_f68030be_94b8_4c61_a161_886468558054" xlink:title="hasSpatialPart">
<polygon fill="#0079ba" stroke="#000000" points="367.5,-210 273.5,-210 273.5,-174 367.5,-174 367.5,-210"/>
<text text-anchor="middle" x="320.5" y="-188.3" font-family="Times,serif" font-size="14.00" fill="#ffffff">hasSpatialPart</text>
</a>
</g>
</g>
<!-- hasSpatialPart&#45;&gt;hasProperPart -->
<g id="edge26" class="edge">
<title>hasSpatialPart&#45;&gt;hasProperPart</title>
<path fill="none" stroke="#000000" d="M366.0841,-210.0265C400.7443,-223.733 448.5786,-242.6493 485.3877,-257.2056"/>
<polygon fill="none" stroke="#000000" points="484.3879,-260.5739 494.9743,-260.9966 486.9621,-254.0644 484.3879,-260.5739"/>
<text text-anchor="middle" x="454" y="-231.8" font-family="Times,serif" font-size="14.00" fill="#000000">isA</text>
</g>
<!-- overcrosses -->
<g id="node4" class="node">
<title>overcrosses</title>
<g id="a_node4"><a xlink:href="http://emmo.info/emmo/top/mereotopology#EMMO_9cb984ca_48ad_4864_b09e_50d3fff19420" xlink:title="overcrosses">
<polygon fill="#0079ba" stroke="#000000" points="492.5,-384 412.5,-384 412.5,-348 492.5,-348 492.5,-384"/>
<text text-anchor="middle" x="452.5" y="-362.3" font-family="Times,serif" font-size="14.00" fill="#ffffff">overcrosses</text>
</a>
</g>
</g>
<!-- hasOverlapWith -->
<g id="node8" class="node">
<title>hasOverlapWith</title>
<g id="a_node8"><a xlink:href="http://emmo.info/emmo/top/mereotopology#EMMO_d893d373_b579_4867_841e_1c2b31a8d2c6" xlink:title="hasOverlapWith">
<polygon fill="#0079ba" stroke="#000000" points="505.5,-471 399.5,-471 399.5,-435 505.5,-435 505.5,-471"/>
<text text-anchor="middle" x="452.5" y="-449.3" font-family="Times,serif" font-size="14.00" fill="#ffffff">hasOverlapWith</text>
</a>
</g>
</g>
<!-- overcrosses&#45;&gt;hasOverlapWith -->
<g id="edge12" class="edge">
<title>overcrosses&#45;&gt;hasOverlapWith</title>
<path fill="none" stroke="#000000" d="M452.5,-384.0265C452.5,-395.8082 452.5,-411.4393 452.5,-424.8419"/>
<polygon fill="none" stroke="#000000" points="449.0001,-424.9966 452.5,-434.9966 456.0001,-424.9967 449.0001,-424.9966"/>
<text text-anchor="middle" x="462" y="-405.8" font-family="Times,serif" font-size="14.00" fill="#000000">isA</text>
</g>
<!-- hasSpatioTemporalDirectPart -->
<g id="node5" class="node">
<title>hasSpatioTemporalDirectPart</title>
<g id="a_node5"><a xlink:href="http://emmo.info/emmo/middle/reductionistic#EMMO_663859e5_add3_4c9e_96fb_c99399de278d" xlink:title="hasSpatioTemporalDirectPart">
<polygon fill="#0079ba" stroke="#000000" points="580.5,-123 402.5,-123 402.5,-87 580.5,-87 580.5,-123"/>
<text text-anchor="middle" x="491.5" y="-101.3" font-family="Times,serif" font-size="14.00" fill="#ffffff">hasSpatioTemporalDirectPart</text>
</a>
</g>
</g>
<!-- hasSpatioTemporalPart -->
<g id="node22" class="node">
<title>hasSpatioTemporalPart</title>
<g id="a_node22"><a xlink:href="http://emmo.info/emmo/top/physical#EMMO_6e046dd0_9634_4013_b2b1_9cc468087c83" xlink:title="hasSpatioTemporalPart">
<polygon fill="#0079ba" stroke="#000000" points="529.5,-210 385.5,-210 385.5,-174 529.5,-174 529.5,-210"/>
<text text-anchor="middle" x="457.5" y="-188.3" font-family="Times,serif" font-size="14.00" fill="#ffffff">hasSpatioTemporalPart</text>
</a>
</g>
</g>
<!-- hasSpatioTemporalDirectPart&#45;&gt;hasSpatioTemporalPart -->
<g id="edge4" class="edge">
<title>hasSpatioTemporalDirectPart&#45;&gt;hasSpatioTemporalPart</title>
<path fill="none" stroke="#000000" d="M484.4552,-123.0265C479.7596,-135.0415 473.4996,-151.0599 468.1942,-164.6354"/>
<polygon fill="none" stroke="#000000" points="464.9159,-163.4086 464.5358,-173.9966 471.4357,-165.9566 464.9159,-163.4086"/>
<text text-anchor="middle" x="487" y="-144.8" font-family="Times,serif" font-size="14.00" fill="#000000">isA</text>
</g>
<!-- hasPart -->
<g id="node23" class="node">
<title>hasPart</title>
<g id="a_node23"><a xlink:href="http://emmo.info/emmo/top/mereotopology#EMMO_17e27c22_37e1_468c_9dd7_95e137f73e7f" xlink:title="hasPart">
<polygon fill="#0079ba" stroke="#000000" points="635.5,-384 579.5,-384 579.5,-348 635.5,-348 635.5,-384"/>
<text text-anchor="middle" x="607.5" y="-362.3" font-family="Times,serif" font-size="14.00" fill="#ffffff">hasPart</text>
</a>
</g>
</g>
<!-- hasParticipant&#45;&gt;hasPart -->
<g id="edge1" class="edge">
<title>hasParticipant&#45;&gt;hasPart</title>
<path fill="none" stroke="#000000" d="M660.6176,-297.0265C651.0951,-309.3915 638.3074,-325.9964 627.6652,-339.8153"/>
<polygon fill="none" stroke="#000000" points="624.6932,-337.9382 621.3647,-347.9966 630.2392,-342.2093 624.6932,-337.9382"/>
<text text-anchor="middle" x="654" y="-318.8" font-family="Times,serif" font-size="14.00" fill="#000000">isA</text>
</g>
<!-- hasProperPart&#45;&gt;hasPart -->
<g id="edge5" class="edge">
<title>hasProperPart&#45;&gt;hasPart</title>
<path fill="none" stroke="#000000" d="M554.3824,-297.0265C563.9049,-309.3915 576.6926,-325.9964 587.3348,-339.8153"/>
<polygon fill="none" stroke="#000000" points="584.7608,-342.2093 593.6353,-347.9966 590.3068,-337.9382 584.7608,-342.2093"/>
<text text-anchor="middle" x="587" y="-318.8" font-family="Times,serif" font-size="14.00" fill="#000000">isA</text>
</g>
<!-- connected -->
<g id="node20" class="node">
<title>connected</title>
<g id="a_node20"><a xlink:href="http://emmo.info/emmo/top/mereotopology#EMMO_6703954e_34c4_4a15_a9e7_f313760ae1a8" xlink:title="connected">
<polygon fill="#0079ba" stroke="#000000" points="603,-558 532,-558 532,-522 603,-522 603,-558"/>
<text text-anchor="middle" x="567.5" y="-536.3" font-family="Times,serif" font-size="14.00" fill="#ffffff">connected</text>
</a>
</g>
</g>
<!-- hasOverlapWith&#45;&gt;connected -->
<g id="edge22" class="edge">
<title>hasOverlapWith&#45;&gt;connected</title>
<path fill="none" stroke="#000000" d="M476.3281,-471.0265C493.5207,-484.0331 516.9145,-501.731 535.7003,-515.9429"/>
<polygon fill="none" stroke="#000000" points="533.6158,-518.7546 543.7025,-521.9966 537.8391,-513.1721 533.6158,-518.7546"/>
<text text-anchor="middle" x="526" y="-492.8" font-family="Times,serif" font-size="14.00" fill="#000000">isA</text>
</g>
<!-- hasQuantityValue -->
<g id="node9" class="node">
<title>hasQuantityValue</title>
<g id="a_node9"><a xlink:href="http://emmo.info/emmo/middle/units#EMMO_8ef3cd6d_ae58_4a8d_9fc0_ad8f49015cd0" xlink:title="hasQuantityValue">
<polygon fill="#0079ba" stroke="#000000" points="311.5,-36 197.5,-36 197.5,0 311.5,0 311.5,-36"/>
<text text-anchor="middle" x="254.5" y="-14.3" font-family="Times,serif" font-size="14.00" fill="#ffffff">hasQuantityValue</text>
</a>
</g>
</g>
<!-- hasSpatialDirectPart -->
<g id="node30" class="node">
<title>hasSpatialDirectPart</title>
<g id="a_node30"><a xlink:href="http://emmo.info/emmo/middle/reductionistic#EMMO_b2282816_b7a3_44c6_b2cb_3feff1ceb7fe" xlink:title="hasSpatialDirectPart">
<polygon fill="#0079ba" stroke="#000000" points="384.5,-123 256.5,-123 256.5,-87 384.5,-87 384.5,-123"/>
<text text-anchor="middle" x="320.5" y="-101.3" font-family="Times,serif" font-size="14.00" fill="#ffffff">hasSpatialDirectPart</text>
</a>
</g>
</g>
<!-- hasQuantityValue&#45;&gt;hasSpatialDirectPart -->
<g id="edge24" class="edge">
<title>hasQuantityValue&#45;&gt;hasSpatialDirectPart</title>
<path fill="none" stroke="#000000" d="M268.1752,-36.0265C277.5556,-48.3915 290.1525,-64.9964 300.6357,-78.8153"/>
<polygon fill="none" stroke="#000000" points="298.0099,-81.1451 306.8423,-86.9966 303.5868,-76.9143 298.0099,-81.1451"/>
<text text-anchor="middle" x="301" y="-57.8" font-family="Times,serif" font-size="14.00" fill="#000000">isA</text>
</g>
<!-- mereotopological -->
<g id="node10" class="node">
<title>mereotopological</title>
<g id="a_node10"><a xlink:href="http://emmo.info/emmo/top/mereotopology#EMMO_03212fd7_abfd_4828_9c8e_62c293052d4b" xlink:title="mereotopological">
<polygon fill="#0079ba" stroke="#000000" points="519.5,-645 407.5,-645 407.5,-609 519.5,-609 519.5,-645"/>
<text text-anchor="middle" x="463.5" y="-623.3" font-family="Times,serif" font-size="14.00" fill="#ffffff">mereotopological</text>
</a>
</g>
</g>
<!-- EMMORelation -->
<g id="node12" class="node">
<title>EMMORelation</title>
<g id="a_node12"><a xlink:href="http://emmo.info/emmo/top/mereotopology#EMMO_ec2472ae_cf4a_46a5_8555_1556f5a6c3c5" xlink:title="EMMORelation">
<polygon fill="#0079ba" stroke="#000000" stroke-width="2" points="445.5,-732 339.5,-732 339.5,-696 445.5,-696 445.5,-732"/>
<text text-anchor="middle" x="392.5" y="-710.3" font-family="Times,serif" font-size="14.00" fill="#ffffff">EMMORelation</text>
</a>
</g>
</g>
<!-- mereotopological&#45;&gt;EMMORelation -->
<g id="edge10" class="edge">
<title>mereotopological&#45;&gt;EMMORelation</title>
<path fill="none" stroke="#000000" d="M448.7888,-645.0265C438.6026,-657.5081 424.8906,-674.3101 413.5506,-688.2056"/>
<polygon fill="none" stroke="#000000" points="410.8035,-686.0362 407.1924,-695.9966 416.2267,-690.4621 410.8035,-686.0362"/>
<text text-anchor="middle" x="442" y="-666.8" font-family="Times,serif" font-size="14.00" fill="#000000">isA</text>
</g>
<!-- hasTemporalPart&#45;&gt;hasProperPart -->
<g id="edge7" class="edge">
<title>hasTemporalPart&#45;&gt;hasProperPart</title>
<path fill="none" stroke="#000000" d="M238.8895,-205.4983C305.6731,-221.7733 417.2837,-248.9725 484.3884,-265.3257"/>
<polygon fill="none" stroke="#000000" points="483.8145,-268.7883 494.3589,-267.7555 485.4719,-261.9873 483.8145,-268.7883"/>
<text text-anchor="middle" x="393" y="-231.8" font-family="Times,serif" font-size="14.00" fill="#000000">isA</text>
</g>
<!-- hasIndex -->
<g id="node13" class="node">
<title>hasIndex</title>
<g id="a_node13"><a xlink:href="http://emmo.info/emmo/top/semiotics#EMMO_297999d6_c9e4_4262_9536_bd524d1c6e21" xlink:title="hasIndex">
<polygon fill="#0079ba" stroke="#000000" points="381,-471 316,-471 316,-435 381,-435 381,-471"/>
<text text-anchor="middle" x="348.5" y="-449.3" font-family="Times,serif" font-size="14.00" fill="#ffffff">hasIndex</text>
</a>
</g>
</g>
<!-- hasSign -->
<g id="node21" class="node">
<title>hasSign</title>
<g id="a_node21"><a xlink:href="http://emmo.info/emmo/top/semiotics#EMMO_60577dea_9019_4537_ac41_80b0fb563d41" xlink:title="hasSign">
<polygon fill="#0079ba" stroke="#000000" points="278,-558 219,-558 219,-522 278,-522 278,-558"/>
<text text-anchor="middle" x="248.5" y="-536.3" font-family="Times,serif" font-size="14.00" fill="#ffffff">hasSign</text>
</a>
</g>
</g>
<!-- hasIndex&#45;&gt;hasSign -->
<g id="edge9" class="edge">
<title>hasIndex&#45;&gt;hasSign</title>
<path fill="none" stroke="#000000" d="M327.7799,-471.0265C313.0309,-483.8581 293.0337,-501.2557 276.8133,-515.3674"/>
<polygon fill="none" stroke="#000000" points="274.4407,-512.7924 269.1935,-521.9966 279.0353,-518.0735 274.4407,-512.7924"/>
<text text-anchor="middle" x="314" y="-492.8" font-family="Times,serif" font-size="14.00" fill="#000000">isA</text>
</g>
<!-- hasModel -->
<g id="node14" class="node">
<title>hasModel</title>
<g id="a_node14"><a xlink:href="http://emmo.info/emmo/middle/models#EMMO_24c71baf_6db6_48b9_86c8_8c70cf36db0c" xlink:title="hasModel">
<polygon fill="#0079ba" stroke="#000000" points="71,-384 0,-384 0,-348 71,-348 71,-384"/>
<text text-anchor="middle" x="35.5" y="-362.3" font-family="Times,serif" font-size="14.00" fill="#ffffff">hasModel</text>
</a>
</g>
</g>
<!-- hasIcon -->
<g id="node15" class="node">
<title>hasIcon</title>
<g id="a_node15"><a xlink:href="http://emmo.info/emmo/top/semiotics#EMMO_39c3815d_8cae_4c8f_b2ff_eeba24bec455" xlink:title="hasIcon">
<polygon fill="#0079ba" stroke="#000000" points="65,-471 6,-471 6,-435 65,-435 65,-471"/>
<text text-anchor="middle" x="35.5" y="-449.3" font-family="Times,serif" font-size="14.00" fill="#ffffff">hasIcon</text>
</a>
</g>
</g>
<!-- hasModel&#45;&gt;hasIcon -->
<g id="edge16" class="edge">
<title>hasModel&#45;&gt;hasIcon</title>
<path fill="none" stroke="#000000" d="M35.5,-384.0265C35.5,-395.8082 35.5,-411.4393 35.5,-424.8419"/>
<polygon fill="none" stroke="#000000" points="32.0001,-424.9966 35.5,-434.9966 39.0001,-424.9967 32.0001,-424.9966"/>
<text text-anchor="middle" x="45" y="-405.8" font-family="Times,serif" font-size="14.00" fill="#000000">isA</text>
</g>
<!-- hasIcon&#45;&gt;hasSign -->
<g id="edge30" class="edge">
<title>hasIcon&#45;&gt;hasSign</title>
<path fill="none" stroke="#000000" d="M65.2352,-466.9279C68.353,-468.3271 71.4842,-469.7073 74.5,-471 120.3665,-490.6613 173.8161,-511.5627 209.2474,-525.1418"/>
<polygon fill="none" stroke="#000000" points="208.1511,-528.4697 218.7417,-528.7705 210.6503,-521.931 208.1511,-528.4697"/>
<text text-anchor="middle" x="160" y="-492.8" font-family="Times,serif" font-size="14.00" fill="#000000">isA</text>
</g>
<!-- hasProperty -->
<g id="node16" class="node">
<title>hasProperty</title>
<g id="a_node16"><a xlink:href="http://emmo.info/emmo/middle/properties#EMMO_e1097637_70d2_4895_973f_2396f04fa204" xlink:title="hasProperty">
<polygon fill="#0079ba" stroke="#000000" points="226,-384 145,-384 145,-348 226,-348 226,-384"/>
<text text-anchor="middle" x="185.5" y="-362.3" font-family="Times,serif" font-size="14.00" fill="#ffffff">hasProperty</text>
</a>
</g>
</g>
<!-- hasConvention -->
<g id="node31" class="node">
<title>hasConvention</title>
<g id="a_node31"><a xlink:href="http://emmo.info/emmo/top/semiotics#EMMO_eb3518bf_f799_4f9e_8c3e_ce59af11453b" xlink:title="hasConvention">
<polygon fill="#0079ba" stroke="#000000" points="297.5,-471 199.5,-471 199.5,-435 297.5,-435 297.5,-471"/>
<text text-anchor="middle" x="248.5" y="-449.3" font-family="Times,serif" font-size="14.00" fill="#ffffff">hasConvention</text>
</a>
</g>
</g>
<!-- hasProperty&#45;&gt;hasConvention -->
<g id="edge19" class="edge">
<title>hasProperty&#45;&gt;hasConvention</title>
<path fill="none" stroke="#000000" d="M198.5536,-384.0265C207.5076,-396.3915 219.5319,-412.9964 229.5387,-426.8153"/>
<polygon fill="none" stroke="#000000" points="226.7631,-428.95 235.4631,-434.9966 232.4327,-424.8444 226.7631,-428.95"/>
<text text-anchor="middle" x="231" y="-405.8" font-family="Times,serif" font-size="14.00" fill="#000000">isA</text>
</g>
<!-- encloses -->
<g id="node17" class="node">
<title>encloses</title>
<g id="a_node17"><a xlink:href="http://emmo.info/emmo/top/mereotopology#EMMO_8c898653_1118_4682_9bbf_6cc334d16a99" xlink:title="encloses">
<polygon fill="#0079ba" stroke="#000000" points="707.5,-471 645.5,-471 645.5,-435 707.5,-435 707.5,-471"/>
<text text-anchor="middle" x="676.5" y="-449.3" font-family="Times,serif" font-size="14.00" fill="#ffffff">encloses</text>
</a>
</g>
</g>
<!-- encloses&#45;&gt;connected -->
<g id="edge11" class="edge">
<title>encloses&#45;&gt;connected</title>
<path fill="none" stroke="#000000" d="M653.9151,-471.0265C637.6926,-483.9747 615.645,-501.5724 597.8804,-515.7515"/>
<polygon fill="none" stroke="#000000" points="595.6883,-513.0229 590.0559,-521.9966 600.055,-518.4939 595.6883,-513.0229"/>
<text text-anchor="middle" x="638" y="-492.8" font-family="Times,serif" font-size="14.00" fill="#000000">isA</text>
</g>
<!-- disconnected -->
<g id="node18" class="node">
<title>disconnected</title>
<g id="a_node18"><a xlink:href="http://emmo.info/emmo/top/mereotopology#EMMO_517dfaf9_4970_41ac_81ee_d031627d2c7c" xlink:title="disconnected">
<polygon fill="#0079ba" stroke="#000000" points="507,-558 420,-558 420,-522 507,-522 507,-558"/>
<text text-anchor="middle" x="463.5" y="-536.3" font-family="Times,serif" font-size="14.00" fill="#ffffff">disconnected</text>
</a>
</g>
</g>
<!-- disconnected&#45;&gt;mereotopological -->
<g id="edge21" class="edge">
<title>disconnected&#45;&gt;mereotopological</title>
<path fill="none" stroke="#000000" d="M463.5,-558.0265C463.5,-569.8082 463.5,-585.4393 463.5,-598.8419"/>
<polygon fill="none" stroke="#000000" points="460.0001,-598.9966 463.5,-608.9966 467.0001,-598.9967 460.0001,-598.9966"/>
<text text-anchor="middle" x="473" y="-579.8" font-family="Times,serif" font-size="14.00" fill="#000000">isA</text>
</g>
<!-- hasVariable -->
<g id="node19" class="node">
<title>hasVariable</title>
<g id="a_node19"><a xlink:href="http://emmo.info/emmo/middle/math#EMMO_3446e167_c576_49d6_846c_215bb8878a55" xlink:title="hasVariable">
<polygon fill="#0079ba" stroke="#000000" points="325,-384 244,-384 244,-348 325,-348 325,-384"/>
<text text-anchor="middle" x="284.5" y="-362.3" font-family="Times,serif" font-size="14.00" fill="#ffffff">hasVariable</text>
</a>
</g>
</g>
<!-- hasVariable&#45;&gt;hasConvention -->
<g id="edge18" class="edge">
<title>hasVariable&#45;&gt;hasConvention</title>
<path fill="none" stroke="#000000" d="M277.0408,-384.0265C272.069,-396.0415 265.4407,-412.0599 259.8233,-425.6354"/>
<polygon fill="none" stroke="#000000" points="256.5392,-424.4182 255.9497,-434.9966 263.0073,-427.0947 256.5392,-424.4182"/>
<text text-anchor="middle" x="279" y="-405.8" font-family="Times,serif" font-size="14.00" fill="#000000">isA</text>
</g>
<!-- connected&#45;&gt;mereotopological -->
<g id="edge8" class="edge">
<title>connected&#45;&gt;mereotopological</title>
<path fill="none" stroke="#000000" d="M545.9511,-558.0265C530.6122,-570.8581 509.8151,-588.2557 492.9459,-602.3674"/>
<polygon fill="none" stroke="#000000" points="490.4457,-599.8957 485.0213,-608.9966 494.9371,-605.2648 490.4457,-599.8957"/>
<text text-anchor="middle" x="531" y="-579.8" font-family="Times,serif" font-size="14.00" fill="#000000">isA</text>
</g>
<!-- semiotical -->
<g id="node26" class="node">
<title>semiotical</title>
<g id="a_node26"><a xlink:href="http://emmo.info/emmo/top/semiotics#EMMO_2337e25c_3c60_43fc_a8f9_b11a3f974291" xlink:title="semiotical">
<polygon fill="#0079ba" stroke="#000000" points="374,-645 301,-645 301,-609 374,-609 374,-645"/>
<text text-anchor="middle" x="337.5" y="-623.3" font-family="Times,serif" font-size="14.00" fill="#ffffff">semiotical</text>
</a>
</g>
</g>
<!-- hasSign&#45;&gt;semiotical -->
<g id="edge13" class="edge">
<title>hasSign&#45;&gt;semiotical</title>
<path fill="none" stroke="#000000" d="M266.9409,-558.0265C279.9481,-570.7414 297.5418,-587.9397 311.9066,-601.9817"/>
<polygon fill="none" stroke="#000000" points="309.4852,-604.5092 319.0828,-608.9966 314.3784,-599.5035 309.4852,-604.5092"/>
<text text-anchor="middle" x="308" y="-579.8" font-family="Times,serif" font-size="14.00" fill="#000000">isA</text>
</g>
<!-- hasSpatioTemporalPart&#45;&gt;hasProperPart -->
<g id="edge15" class="edge">
<title>hasSpatioTemporalPart&#45;&gt;hasProperPart</title>
<path fill="none" stroke="#000000" d="M474.6977,-210.0265C486.7167,-222.6248 502.9349,-239.6245 516.2625,-253.5945"/>
<polygon fill="none" stroke="#000000" points="513.8892,-256.1772 523.3244,-260.9966 518.954,-251.3452 513.8892,-256.1772"/>
<text text-anchor="middle" x="513" y="-231.8" font-family="Times,serif" font-size="14.00" fill="#000000">isA</text>
</g>
<!-- hasPart&#45;&gt;hasOverlapWith -->
<g id="edge32" class="edge">
<title>hasPart&#45;&gt;hasOverlapWith</title>
<path fill="none" stroke="#000000" d="M579.4307,-381.755C555.4466,-395.2171 520.6223,-414.7636 493.5145,-429.979"/>
<polygon fill="none" stroke="#000000" points="491.6512,-427.0111 484.644,-434.9579 495.0774,-433.1153 491.6512,-427.0111"/>
<text text-anchor="middle" x="548" y="-405.8" font-family="Times,serif" font-size="14.00" fill="#000000">isA</text>
</g>
<!-- hasPart&#45;&gt;encloses -->
<g id="edge31" class="edge">
<title>hasPart&#45;&gt;encloses</title>
<path fill="none" stroke="#000000" d="M621.7968,-384.0265C631.6036,-396.3915 644.773,-412.9964 655.7328,-426.8153"/>
<polygon fill="none" stroke="#000000" points="653.2652,-429.3365 662.2215,-434.9966 658.7497,-424.9867 653.2652,-429.3365"/>
<text text-anchor="middle" x="655" y="-405.8" font-family="Times,serif" font-size="14.00" fill="#000000">isA</text>
</g>
<!-- hasReferenceUnit -->
<g id="node24" class="node">
<title>hasReferenceUnit</title>
<g id="a_node24"><a xlink:href="http://emmo.info/emmo/middle/units#EMMO_67fc0a36_8dcb_4ffa_9a43_31074efa3296" xlink:title="hasReferenceUnit">
<polygon fill="#0079ba" stroke="#000000" points="443,-36 330,-36 330,0 443,0 443,-36"/>
<text text-anchor="middle" x="386.5" y="-14.3" font-family="Times,serif" font-size="14.00" fill="#ffffff">hasReferenceUnit</text>
</a>
</g>
</g>
<!-- hasReferenceUnit&#45;&gt;hasSpatialDirectPart -->
<g id="edge25" class="edge">
<title>hasReferenceUnit&#45;&gt;hasSpatialDirectPart</title>
<path fill="none" stroke="#000000" d="M372.8248,-36.0265C363.4444,-48.3915 350.8475,-64.9964 340.3643,-78.8153"/>
<polygon fill="none" stroke="#000000" points="337.4132,-76.9143 334.1577,-86.9966 342.9901,-81.1451 337.4132,-76.9143"/>
<text text-anchor="middle" x="367" y="-57.8" font-family="Times,serif" font-size="14.00" fill="#000000">isA</text>
</g>
<!-- hasContactWith -->
<g id="node25" class="node">
<title>hasContactWith</title>
<g id="a_node25"><a xlink:href="http://emmo.info/emmo/top/mereotopology#EMMO_4d6504f1_c470_4ce9_b941_bbbebc9ab05d" xlink:title="hasContactWith">
<polygon fill="#0079ba" stroke="#000000" points="627.5,-471 523.5,-471 523.5,-435 627.5,-435 627.5,-471"/>
<text text-anchor="middle" x="575.5" y="-449.3" font-family="Times,serif" font-size="14.00" fill="#ffffff">hasContactWith</text>
</a>
</g>
</g>
<!-- hasContactWith&#45;&gt;connected -->
<g id="edge28" class="edge">
<title>hasContactWith&#45;&gt;connected</title>
<path fill="none" stroke="#000000" d="M573.8424,-471.0265C572.759,-482.8082 571.3217,-498.4393 570.0892,-511.8419"/>
<polygon fill="none" stroke="#000000" points="566.586,-511.7181 569.1555,-521.9966 573.5565,-512.3592 566.586,-511.7181"/>
<text text-anchor="middle" x="581" y="-492.8" font-family="Times,serif" font-size="14.00" fill="#000000">isA</text>
</g>
<!-- semiotical&#45;&gt;EMMORelation -->
<g id="edge17" class="edge">
<title>semiotical&#45;&gt;EMMORelation</title>
<path fill="none" stroke="#000000" d="M348.896,-645.0265C356.6393,-657.2748 367.0126,-673.6835 375.6987,-687.4234"/>
<polygon fill="none" stroke="#000000" points="372.8165,-689.4143 381.1186,-695.9966 378.7333,-685.6738 372.8165,-689.4143"/>
<text text-anchor="middle" x="378" y="-666.8" font-family="Times,serif" font-size="14.00" fill="#000000">isA</text>
</g>
<!-- hasMember -->
<g id="node27" class="node">
<title>hasMember</title>
<g id="a_node27"><a xlink:href="http://emmo.info/emmo/top/mereotopology#EMMO_6b7276a4_4b9d_440a_b577_0277539c0fc4" xlink:title="hasMember">
<polygon fill="#0079ba" stroke="#000000" points="629.5,-210 547.5,-210 547.5,-174 629.5,-174 629.5,-210"/>
<text text-anchor="middle" x="588.5" y="-188.3" font-family="Times,serif" font-size="14.00" fill="#ffffff">hasMember</text>
</a>
</g>
</g>
<!-- hasMember&#45;&gt;hasProperPart -->
<g id="edge20" class="edge">
<title>hasMember&#45;&gt;hasProperPart</title>
<path fill="none" stroke="#000000" d="M578.5544,-210.0265C571.861,-222.1582 562.9158,-238.3713 555.3799,-252.0302"/>
<polygon fill="none" stroke="#000000" points="552.1992,-250.5501 550.4329,-260.9966 558.3282,-253.9316 552.1992,-250.5501"/>
<text text-anchor="middle" x="576" y="-231.8" font-family="Times,serif" font-size="14.00" fill="#000000">isA</text>
</g>
<!-- hasPhysicsDimension -->
<g id="node28" class="node">
<title>hasPhysicsDimension</title>
<g id="a_node28"><a xlink:href="http://emmo.info/emmo/middle/units#EMMO_bed1d005_b04e_4a90_94cf_02bc678a8569" xlink:title="hasPhysicsDimension">
<polygon fill="#0079ba" stroke="#000000" points="253.5,-297 117.5,-297 117.5,-261 253.5,-261 253.5,-297"/>
<text text-anchor="middle" x="185.5" y="-275.3" font-family="Times,serif" font-size="14.00" fill="#ffffff">hasPhysicsDimension</text>
</a>
</g>
</g>
<!-- hasPhysicsDimension&#45;&gt;hasProperty -->
<g id="edge6" class="edge">
<title>hasPhysicsDimension&#45;&gt;hasProperty</title>
<path fill="none" stroke="#000000" d="M185.5,-297.0265C185.5,-308.8082 185.5,-324.4393 185.5,-337.8419"/>
<polygon fill="none" stroke="#000000" points="182.0001,-337.9966 185.5,-347.9966 189.0001,-337.9967 182.0001,-337.9966"/>
<text text-anchor="middle" x="195" y="-318.8" font-family="Times,serif" font-size="14.00" fill="#000000">isA</text>
</g>
<!-- hasInterpretant -->
<g id="node29" class="node">
<title>hasInterpretant</title>
<g id="a_node29"><a xlink:href="http://emmo.info/emmo/top/semiotics#EMMO_7fb7fe7e_bdf9_4eeb_adad_e384dd5285c6" xlink:title="hasInterpretant">
<polygon fill="#0079ba" stroke="#000000" points="181.5,-471 83.5,-471 83.5,-435 181.5,-435 181.5,-471"/>
<text text-anchor="middle" x="132.5" y="-449.3" font-family="Times,serif" font-size="14.00" fill="#ffffff">hasInterpretant</text>
</a>
</g>
</g>
<!-- hasInterpretant&#45;&gt;hasSign -->
<g id="edge23" class="edge">
<title>hasInterpretant&#45;&gt;hasSign</title>
<path fill="none" stroke="#000000" d="M156.5353,-471.0265C173.8774,-484.0331 197.4746,-501.731 216.4238,-515.9429"/>
<polygon fill="none" stroke="#000000" points="214.3955,-518.7966 224.4955,-521.9966 218.5955,-513.1966 214.3955,-518.7966"/>
<text text-anchor="middle" x="207" y="-492.8" font-family="Times,serif" font-size="14.00" fill="#000000">isA</text>
</g>
<!-- hasSpatialDirectPart&#45;&gt;hasSpatialPart -->
<g id="edge29" class="edge">
<title>hasSpatialDirectPart&#45;&gt;hasSpatialPart</title>
<path fill="none" stroke="#000000" d="M320.5,-123.0265C320.5,-134.8082 320.5,-150.4393 320.5,-163.8419"/>
<polygon fill="none" stroke="#000000" points="317.0001,-163.9966 320.5,-173.9966 324.0001,-163.9967 317.0001,-163.9966"/>
<text text-anchor="middle" x="330" y="-144.8" font-family="Times,serif" font-size="14.00" fill="#000000">isA</text>
</g>
<!-- hasConvention&#45;&gt;hasSign -->
<g id="edge27" class="edge">
<title>hasConvention&#45;&gt;hasSign</title>
<path fill="none" stroke="#000000" d="M248.5,-471.0265C248.5,-482.8082 248.5,-498.4393 248.5,-511.8419"/>
<polygon fill="none" stroke="#000000" points="245.0001,-511.9966 248.5,-521.9966 252.0001,-511.9967 245.0001,-511.9966"/>
<text text-anchor="middle" x="258" y="-492.8" font-family="Times,serif" font-size="14.00" fill="#000000">isA</text>
</g>
</g>
</svg>
