<?xml version="1.0" encoding="UTF-8" standalone="no"?>
<!DOCTYPE svg PUBLIC "-//W3C//DTD SVG 1.1//EN"
 "http://www.w3.org/Graphics/SVG/1.1/DTD/svg11.dtd">
<!-- Generated by graphviz version 2.40.1 (20161225.0304)
 -->
<!-- Title: %3 Pages: 1 -->
<svg width="598pt" height="305pt"
 viewBox="0.00 0.00 597.59 305.00" xmlns="http://www.w3.org/2000/svg" xmlns:xlink="http://www.w3.org/1999/xlink">
<g id="graph0" class="graph" transform="scale(1 1) rotate(0) translate(4 301)">
<title>%3</title>
<polygon fill="#ffffff" stroke="transparent" points="-4,4 -4,-301 593.5928,-301 593.5928,4 -4,4"/>
<!-- Quantum -->
<g id="node1" class="node">
<title>Quantum</title>
<g id="a_node1"><a xlink:href="http://emmo.info/emmo/top/mereotopology#EMMO_3f9ae00e_810c_4518_aec2_7200e424cf68" xlink:title="Quantum">
<ellipse fill="#ffffcc" stroke="#000000" cx="146.9954" cy="-105" rx="44.393" ry="18"/>
<text text-anchor="middle" x="146.9954" y="-101.3" font-family="Times,serif" font-size="14.00" fill="#000000">Quantum</text>
</a>
</g>
</g>
<!-- Item -->
<g id="node6" class="node">
<title>Item</title>
<g id="a_node6"><a xlink:href="http://emmo.info/emmo/top/mereotopology#EMMO_eb3a768e_d53e_4be9_a23b_0714833c36de" xlink:title="Item">
<ellipse fill="#ffffcc" stroke="#000000" cx="259.9954" cy="-192" rx="27.0966" ry="18"/>
<text text-anchor="middle" x="259.9954" y="-188.3" font-family="Times,serif" font-size="14.00" fill="#000000">Item</text>
</a>
</g>
</g>
<!-- Quantum&#45;&gt;Item -->
<g id="edge13" class="edge">
<title>Quantum&#45;&gt;Item</title>
<path fill="none" stroke="#000000" d="M152.9901,-123.0276C157.3578,-133.8007 164.2311,-147.0813 173.9954,-156 188.049,-168.8365 207.3377,-177.4762 224.0868,-183.0662"/>
<polygon fill="none" stroke="#000000" points="223.5303,-186.5573 234.1178,-186.1629 225.5952,-179.8688 223.5303,-186.5573"/>
<text text-anchor="middle" x="183.4954" y="-144.8" font-family="Times,serif" font-size="14.00" fill="#000000">isA</text>
</g>
<!-- Physical -->
<g id="node2" class="node">
<title>Physical</title>
<g id="a_node2"><a xlink:href="http://emmo.info/emmo/top/physical#EMMO_c5ddfdba_c074_4aa4_ad6b_1ac4942d300d" xlink:title="Physical">
<ellipse fill="#ffffcc" stroke="#000000" cx="248.9954" cy="-105" rx="40.0939" ry="18"/>
<text text-anchor="middle" x="248.9954" y="-101.3" font-family="Times,serif" font-size="14.00" fill="#000000">Physical</text>
</a>
</g>
</g>
<!-- Physical&#45;&gt;Physical -->
<g id="edge3" class="edge">
<title>Physical&#45;&gt;Physical</title>
<path fill="none" stroke="#ff00ff" d="M285.4307,-97.125C297.5757,-97.125 307.2918,-99.75 307.2918,-105 307.2918,-108.6914 302.4883,-111.0851 295.4145,-112.1809"/>
<polygon fill="#ff00ff" stroke="#ff00ff" points="295.1638,-108.6898 285.4307,-112.875 295.6493,-115.673 295.1638,-108.6898"/>
<text text-anchor="middle" x="367.7918" y="-101.3" font-family="Times,serif" font-size="14.00" fill="#000000">hasTemporalPart only</text>
</g>
<!-- Physical&#45;&gt;Item -->
<g id="edge1" class="edge">
<title>Physical&#45;&gt;Item</title>
<path fill="none" stroke="#000000" d="M248.2509,-123.0284C248.1214,-132.8293 248.4057,-145.1344 249.9954,-156 250.3954,-158.7338 250.9391,-161.5545 251.5676,-164.3574"/>
<polygon fill="none" stroke="#000000" points="248.2299,-165.4318 254.1105,-174.2448 255.0093,-163.6882 248.2299,-165.4318"/>
<text text-anchor="middle" x="259.4954" y="-144.8" font-family="Times,serif" font-size="14.00" fill="#000000">isA</text>
</g>
<!-- Elementary -->
<g id="node8" class="node">
<title>Elementary</title>
<g id="a_node8"><a xlink:href="http://emmo.info/emmo/top/physical#EMMO_0f795e3e_c602_4577_9a43_d5a231aa1360" xlink:title="Elementary">
<ellipse fill="#ffffcc" stroke="#000000" stroke-width="2" cx="51.9954" cy="-18" rx="51.9908" ry="18"/>
<text text-anchor="middle" x="51.9954" y="-14.3" font-family="Times,serif" font-size="14.00" fill="#000000">Elementary</text>
</a>
</g>
</g>
<!-- Physical&#45;&gt;Elementary -->
<g id="edge2" class="edge">
<title>Physical&#45;&gt;Elementary</title>
<path fill="none" stroke="#0000ff" d="M220.1274,-92.2512C186.6915,-77.4851 131.3467,-53.0435 93.3483,-36.2624"/>
<polygon fill="#0000ff" stroke="#0000ff" points="94.6469,-33.0099 84.0853,-32.1717 91.819,-39.4133 94.6469,-33.0099"/>
<text text-anchor="middle" x="199.4954" y="-57.8" font-family="Times,serif" font-size="14.00" fill="#000000">hasPart some</text>
</g>
<!-- EMMO -->
<g id="node3" class="node">
<title>EMMO</title>
<g id="a_node3"><a xlink:href="http://emmo.info/emmo/top/mereotopology#EMMO_802d3e92_8770_4f98_a289_ccaaab7fdddf" xlink:title="EMMO">
<ellipse fill="#ffc880" stroke="#000000" stroke-width="2" cx="290.9954" cy="-279" rx="38.9931" ry="18"/>
<text text-anchor="middle" x="290.9954" y="-275.3" font-family="Times,serif" font-size="14.00" fill="#000000">EMMO</text>
</a>
</g>
</g>
<!-- EMMO&#45;&gt;Quantum -->
<g id="edge10" class="edge">
<title>EMMO&#45;&gt;Quantum</title>
<path fill="none" stroke="#0000ff" d="M298.3023,-260.9363C306.1952,-238.1779 315.2465,-199.0239 295.9954,-174 281.083,-154.6159 266.4382,-165.7183 243.9954,-156 222.8831,-146.8578 200.0734,-134.9734 181.8804,-124.9771"/>
<polygon fill="#0000ff" stroke="#0000ff" points="183.2625,-121.7412 172.8208,-119.9463 179.8642,-127.861 183.2625,-121.7412"/>
<text text-anchor="middle" x="343.4954" y="-188.3" font-family="Times,serif" font-size="14.00" fill="#000000">hasPart some</text>
</g>
<!-- Void -->
<g id="node4" class="node">
<title>Void</title>
<g id="a_node4"><a xlink:href="http://emmo.info/emmo/top/physical#EMMO_29072ec4_ffcb_42fb_bdc7_26f05a2e9873" xlink:title="Void">
<ellipse fill="#ffffcc" stroke="#000000" cx="474.9954" cy="-105" rx="28.6953" ry="18"/>
<text text-anchor="middle" x="474.9954" y="-101.3" font-family="Times,serif" font-size="14.00" fill="#000000">Void</text>
</a>
</g>
</g>
<!-- Void&#45;&gt;Void -->
<g id="edge5" class="edge">
<title>Void&#45;&gt;Void</title>
<path fill="none" stroke="#0000ff" d="M500.8714,-97.2192C512.0348,-96.5822 521.5928,-99.1758 521.5928,-105 521.5928,-108.9131 517.2782,-111.3679 511.0609,-112.3644"/>
<polygon fill="#0000ff" stroke="#0000ff" points="510.7201,-108.8753 500.8714,-112.7808 511.006,-115.8695 510.7201,-108.8753"/>
<text text-anchor="middle" x="555.5928" y="-101.3" font-family="Times,serif" font-size="14.00" fill="#000000">hasPart only</text>
</g>
<!-- Void&#45;&gt;Item -->
<g id="edge4" class="edge">
<title>Void&#45;&gt;Item</title>
<path fill="none" stroke="#000000" d="M452.9545,-116.8821C447.8352,-119.2323 442.3221,-121.4489 436.9954,-123 375.0695,-141.0329 347.6272,-106.7164 292.9954,-141 283.7499,-146.8019 276.5862,-156.2487 271.3322,-165.4448"/>
<polygon fill="none" stroke="#000000" points="268.1801,-163.9208 266.7084,-174.413 274.4019,-167.1287 268.1801,-163.9208"/>
<text text-anchor="middle" x="302.4954" y="-144.8" font-family="Times,serif" font-size="14.00" fill="#000000">isA</text>
</g>
<!-- Perspective -->
<g id="node5" class="node">
<title>Perspective</title>
<g id="a_node5"><a xlink:href="http://emmo.info/emmo/top#EMMO_49267eba_5548_4163_8f36_518d65b583f9" xlink:title="Perspective">
<ellipse fill="#ffffcc" stroke="#000000" stroke-width="2" cx="311.9954" cy="-18" rx="51.1914" ry="18"/>
<text text-anchor="middle" x="311.9954" y="-14.3" font-family="Times,serif" font-size="14.00" fill="#000000">Perspective</text>
</a>
</g>
</g>
<!-- Perspective&#45;&gt;Physical -->
<g id="edge9" class="edge">
<title>Perspective&#45;&gt;Physical</title>
<path fill="none" stroke="#000000" d="M299.2464,-35.6057C290.1353,-48.1878 277.7335,-65.3141 267.5302,-79.4043"/>
<polygon fill="none" stroke="#000000" points="264.5407,-77.5651 261.5104,-87.7173 270.2104,-81.6707 264.5407,-77.5651"/>
<text text-anchor="middle" x="293.4954" y="-57.8" font-family="Times,serif" font-size="14.00" fill="#000000">isA</text>
</g>
<!-- Item&#45;&gt;EMMO -->
<g id="edge6" class="edge">
<title>Item&#45;&gt;EMMO</title>
<path fill="none" stroke="#000000" d="M266.2687,-209.6057C270.5681,-221.6719 276.3567,-237.9172 281.2522,-251.6562"/>
<polygon fill="none" stroke="#000000" points="277.9715,-252.8768 284.625,-261.1218 284.5654,-250.5272 277.9715,-252.8768"/>
<text text-anchor="middle" x="286.4954" y="-231.8" font-family="Times,serif" font-size="14.00" fill="#000000">isA</text>
</g>
<!-- Collection -->
<g id="node7" class="node">
<title>Collection</title>
<g id="a_node7"><a xlink:href="http://emmo.info/emmo/top/mereotopology#EMMO_2d2ecd97_067f_4d0e_950c_d746b7700a31" xlink:title="Collection">
<ellipse fill="#ffffcc" stroke="#000000" cx="478.9954" cy="-192" rx="47.3916" ry="18"/>
<text text-anchor="middle" x="478.9954" y="-188.3" font-family="Times,serif" font-size="14.00" fill="#000000">Collection</text>
</a>
</g>
</g>
<!-- Collection&#45;&gt;EMMO -->
<g id="edge7" class="edge">
<title>Collection&#45;&gt;EMMO</title>
<path fill="none" stroke="#000000" d="M448.7899,-205.9781C415.963,-221.1692 363.4826,-245.4554 328.1544,-261.8041"/>
<polygon fill="none" stroke="#000000" points="326.2809,-258.8144 318.6754,-266.1906 329.2207,-265.1672 326.2809,-258.8144"/>
<text text-anchor="middle" x="405.4954" y="-231.8" font-family="Times,serif" font-size="14.00" fill="#000000">isA</text>
</g>
<!-- Collection&#45;&gt;Item -->
<g id="edge8" class="edge">
<title>Collection&#45;&gt;Item</title>
<path fill="none" stroke="#0000ff" stroke-dasharray="5,2" d="M460.8368,-175.1951C448.7104,-165.1606 431.8518,-153.3562 414.4954,-148 393.4736,-141.5126 336.2712,-140.7636 315.4954,-148 302.9763,-152.3605 291.1583,-160.8521 281.6713,-169.2218"/>
<polygon fill="#0000ff" stroke="#0000ff" points="279.198,-166.7429 274.2863,-176.1304 283.9801,-171.8548 279.198,-166.7429"/>
<text text-anchor="middle" x="364.9954" y="-144.8" font-family="Times,serif" font-size="14.00" fill="#000000">hasMember some</text>
</g>
<!-- Elementary&#45;&gt;Physical -->
<g id="edge11" class="edge">
<title>Elementary&#45;&gt;Physical</title>
<path fill="none" stroke="#000000" d="M68.9569,-35.1727C81.0598,-46.4492 98.2729,-60.6141 115.9954,-69 150.5076,-85.3305 163.3181,-76.391 199.9954,-87 202.9472,-87.8538 205.9767,-88.7972 209.0115,-89.7915"/>
<polygon fill="none" stroke="#000000" points="208.0392,-93.1582 218.6339,-93.0931 210.3111,-86.5371 208.0392,-93.1582"/>
<text text-anchor="middle" x="125.4954" y="-57.8" font-family="Times,serif" font-size="14.00" fill="#000000">isA</text>
</g>
<!-- Elementary&#45;&gt;Elementary -->
<g id="edge12" class="edge">
<title>Elementary&#45;&gt;Elementary</title>
<path fill="none" stroke="#ff00ff" d="M99.1027,-10.1731C112.0765,-10.5512 121.9908,-13.1602 121.9908,-18 121.9908,-21.4786 116.869,-23.8048 109.1708,-24.9785"/>
<polygon fill="#ff00ff" stroke="#ff00ff" points="108.7734,-21.4995 99.1027,-25.8269 109.3613,-28.4748 108.7734,-21.4995"/>
<text text-anchor="middle" x="182.4908" y="-14.3" font-family="Times,serif" font-size="14.00" fill="#000000">hasTemporalPart only</text>
</g>
</g>
</svg>
