<?xml version="1.0" encoding="UTF-8" standalone="no"?>
<!DOCTYPE svg PUBLIC "-//W3C//DTD SVG 1.1//EN"
 "http://www.w3.org/Graphics/SVG/1.1/DTD/svg11.dtd">
<!-- Generated by graphviz version 2.40.1 (20161225.0304)
 -->
<!-- Title: %3 Pages: 1 -->
<svg width="817pt" height="305pt"
 viewBox="0.00 0.00 817.29 305.00" xmlns="http://www.w3.org/2000/svg" xmlns:xlink="http://www.w3.org/1999/xlink">
<g id="graph0" class="graph" transform="scale(1 1) rotate(0) translate(4 301)">
<title>%3</title>
<polygon fill="#ffffff" stroke="transparent" points="-4,4 -4,-301 813.2872,-301 813.2872,4 -4,4"/>
<!-- AlgebricEquation -->
<g id="node1" class="node">
<title>AlgebricEquation</title>
<g id="a_node1"><a xlink:href="http://emmo.info/emmo/top/math#EMMO_98d65021_4574_4890_b2fb_46430841077f" xlink:title="AlgebricEquation">
<ellipse fill="#ffffcc" stroke="#000000" cx="73.4435" cy="-105" rx="73.387" ry="18"/>
<text text-anchor="middle" x="73.4435" y="-101.3" font-family="Times,serif" font-size="14.00" fill="#000000">AlgebricEquation</text>
</a>
</g>
</g>
<!-- Equation -->
<g id="node8" class="node">
<title>Equation</title>
<g id="a_node8"><a xlink:href="http://emmo.info/emmo/middle/math#EMMO_e56ee3eb_7609_4ae1_8bed_51974f0960a6" xlink:title="Equation">
<ellipse fill="#ffffcc" stroke="#000000" cx="415.4435" cy="-192" rx="42.4939" ry="18"/>
<text text-anchor="middle" x="415.4435" y="-188.3" font-family="Times,serif" font-size="14.00" fill="#000000">Equation</text>
</a>
</g>
</g>
<!-- AlgebricEquation&#45;&gt;Equation -->
<g id="edge1" class="edge">
<title>AlgebricEquation&#45;&gt;Equation</title>
<path fill="none" stroke="#000000" d="M124.6443,-118.0248C190.9737,-134.898 305.6306,-164.0651 369.3578,-180.2765"/>
<polygon fill="none" stroke="#000000" points="368.5789,-183.6897 379.1332,-182.7632 370.3047,-176.9058 368.5789,-183.6897"/>
<text text-anchor="middle" x="274.9435" y="-144.8" font-family="Times,serif" font-size="14.00" fill="#000000">isA</text>
</g>
<!-- Formula -->
<g id="node2" class="node">
<title>Formula</title>
<g id="a_node2"><a xlink:href="http://emmo.info/emmo/middle/math#EMMO_88470739_03d3_4c47_a03e_b30a1288d50c" xlink:title="Formula">
<ellipse fill="#ffffcc" stroke="#000000" stroke-width="2" cx="468.4435" cy="-279" rx="40.8928" ry="18"/>
<text text-anchor="middle" x="468.4435" y="-275.3" font-family="Times,serif" font-size="14.00" fill="#000000">Formula</text>
</a>
</g>
</g>
<!-- FunctionDefinition -->
<g id="node3" class="node">
<title>FunctionDefinition</title>
<g id="a_node3"><a xlink:href="http://emmo.info/emmo/top/math#EMMO_4bc29b0f_8fcc_4026_a291_f9774a66d9b8" xlink:title="FunctionDefinition">
<ellipse fill="#ffffcc" stroke="#000000" cx="576.4435" cy="-18" rx="77.9862" ry="18"/>
<text text-anchor="middle" x="576.4435" y="-14.3" font-family="Times,serif" font-size="14.00" fill="#000000">FunctionDefinition</text>
</a>
</g>
</g>
<!-- DefiningEquation -->
<g id="node6" class="node">
<title>DefiningEquation</title>
<g id="a_node6"><a xlink:href="http://emmo.info/emmo/top/math#EMMO_29afdf54_90ae_4c98_8845_fa9ea3f143a8" xlink:title="DefiningEquation">
<ellipse fill="#ffffcc" stroke="#000000" cx="576.4435" cy="-105" rx="73.387" ry="18"/>
<text text-anchor="middle" x="576.4435" y="-101.3" font-family="Times,serif" font-size="14.00" fill="#000000">DefiningEquation</text>
</a>
</g>
</g>
<!-- FunctionDefinition&#45;&gt;DefiningEquation -->
<g id="edge3" class="edge">
<title>FunctionDefinition&#45;&gt;DefiningEquation</title>
<path fill="none" stroke="#000000" d="M576.4435,-36.0265C576.4435,-47.8082 576.4435,-63.4393 576.4435,-76.8419"/>
<polygon fill="none" stroke="#000000" points="572.9436,-76.9966 576.4435,-86.9966 579.9436,-76.9967 572.9436,-76.9966"/>
<text text-anchor="middle" x="585.9435" y="-57.8" font-family="Times,serif" font-size="14.00" fill="#000000">isA</text>
</g>
<!-- ArithmeticEquation -->
<g id="node4" class="node">
<title>ArithmeticEquation</title>
<g id="a_node4"><a xlink:href="http://emmo.info/emmo/top/math#EMMO_a6138ba7_e365_4f2d_b6b4_fe5a5918d403" xlink:title="ArithmeticEquation">
<ellipse fill="#ffffcc" stroke="#000000" cx="246.4435" cy="-105" rx="81.4863" ry="18"/>
<text text-anchor="middle" x="246.4435" y="-101.3" font-family="Times,serif" font-size="14.00" fill="#000000">ArithmeticEquation</text>
</a>
</g>
</g>
<!-- ArithmeticEquation&#45;&gt;Equation -->
<g id="edge8" class="edge">
<title>ArithmeticEquation&#45;&gt;Equation</title>
<path fill="none" stroke="#000000" d="M278.6289,-121.5688C307.3192,-136.3384 349.2749,-157.9369 379.1501,-173.3164"/>
<polygon fill="none" stroke="#000000" points="377.9002,-176.6095 388.3932,-178.0747 381.1042,-170.3858 377.9002,-176.6095"/>
<text text-anchor="middle" x="350.9435" y="-144.8" font-family="Times,serif" font-size="14.00" fill="#000000">isA</text>
</g>
<!-- PhysicsEquation -->
<g id="node5" class="node">
<title>PhysicsEquation</title>
<g id="a_node5"><a xlink:href="http://emmo.info/emmo/middle/models#EMMO_27c5d8c6_8af7_4d63_beb1_ec37cd8b3fa3" xlink:title="PhysicsEquation">
<ellipse fill="#ffffcc" stroke="#000000" cx="415.4435" cy="-105" rx="69.5877" ry="18"/>
<text text-anchor="middle" x="415.4435" y="-101.3" font-family="Times,serif" font-size="14.00" fill="#000000">PhysicsEquation</text>
</a>
</g>
</g>
<!-- PhysicsEquation&#45;&gt;Equation -->
<g id="edge6" class="edge">
<title>PhysicsEquation&#45;&gt;Equation</title>
<path fill="none" stroke="#000000" d="M415.4435,-123.0265C415.4435,-134.8082 415.4435,-150.4393 415.4435,-163.8419"/>
<polygon fill="none" stroke="#000000" points="411.9436,-163.9966 415.4435,-173.9966 418.9436,-163.9967 411.9436,-163.9966"/>
<text text-anchor="middle" x="424.9435" y="-144.8" font-family="Times,serif" font-size="14.00" fill="#000000">isA</text>
</g>
<!-- DefiningEquation&#45;&gt;Equation -->
<g id="edge4" class="edge">
<title>DefiningEquation&#45;&gt;Equation</title>
<path fill="none" stroke="#000000" d="M545.7817,-121.5688C518.6141,-136.2494 478.9609,-157.6769 450.5344,-173.0378"/>
<polygon fill="none" stroke="#000000" points="448.8634,-169.9624 441.7296,-177.7957 452.1912,-176.1208 448.8634,-169.9624"/>
<text text-anchor="middle" x="515.9435" y="-144.8" font-family="Times,serif" font-size="14.00" fill="#000000">isA</text>
</g>
<!-- MaterialRelation -->
<g id="node7" class="node">
<title>MaterialRelation</title>
<g id="a_node7"><a xlink:href="http://emmo.info/emmo/middle/models#EMMO_e5438930_04e7_4d42_ade5_3700d4a52ab7" xlink:title="MaterialRelation">
<ellipse fill="#ffffcc" stroke="#000000" cx="738.4435" cy="-105" rx="70.6878" ry="18"/>
<text text-anchor="middle" x="738.4435" y="-101.3" font-family="Times,serif" font-size="14.00" fill="#000000">MaterialRelation</text>
</a>
</g>
</g>
<!-- MaterialRelation&#45;&gt;Equation -->
<g id="edge5" class="edge">
<title>MaterialRelation&#45;&gt;Equation</title>
<path fill="none" stroke="#000000" d="M687.0946,-117.4347C620.3308,-133.7049 507.4192,-161.5997 466.4435,-174 463.343,-174.9383 460.1519,-175.9506 456.951,-176.9999"/>
<polygon fill="none" stroke="#000000" points="455.7561,-173.7092 447.3994,-180.222 457.9936,-180.3419 455.7561,-173.7092"/>
<text text-anchor="middle" x="596.9435" y="-144.8" font-family="Times,serif" font-size="14.00" fill="#000000">isA</text>
</g>
<!-- Equation&#45;&gt;Formula -->
<g id="edge7" class="edge">
<title>Equation&#45;&gt;Formula</title>
<path fill="none" stroke="#000000" d="M426.1688,-209.6057C433.7118,-221.9876 443.9357,-238.7703 452.4397,-252.7296"/>
<polygon fill="none" stroke="#000000" points="449.5424,-254.7013 457.7341,-261.4204 455.5205,-251.0594 449.5424,-254.7013"/>
<text text-anchor="middle" x="454.9435" y="-231.8" font-family="Times,serif" font-size="14.00" fill="#000000">isA</text>
</g>
<!-- Inequality -->
<g id="node9" class="node">
<title>Inequality</title>
<g id="a_node9"><a xlink:href="http://emmo.info/emmo/middle/math#EMMO_0b6ebe5a_0026_4bef_a1c1_5be00df9f98e" xlink:title="Inequality">
<ellipse fill="#ffffcc" stroke="#000000" cx="521.4435" cy="-192" rx="46.2923" ry="18"/>
<text text-anchor="middle" x="521.4435" y="-188.3" font-family="Times,serif" font-size="14.00" fill="#000000">Inequality</text>
</a>
</g>
</g>
<!-- Inequality&#45;&gt;Formula -->
<g id="edge2" class="edge">
<title>Inequality&#45;&gt;Formula</title>
<path fill="none" stroke="#000000" d="M510.7181,-209.6057C503.1752,-221.9876 492.9512,-238.7703 484.4473,-252.7296"/>
<polygon fill="none" stroke="#000000" points="481.3665,-251.0594 479.1529,-261.4204 487.3445,-254.7013 481.3665,-251.0594"/>
<text text-anchor="middle" x="507.9435" y="-231.8" font-family="Times,serif" font-size="14.00" fill="#000000">isA</text>
</g>
</g>
</svg>
