<?xml version="1.0" encoding="UTF-8" standalone="no"?>
<!DOCTYPE svg PUBLIC "-//W3C//DTD SVG 1.1//EN"
 "http://www.w3.org/Graphics/SVG/1.1/DTD/svg11.dtd">
<!-- Generated by graphviz version 2.40.1 (20161225.0304)
 -->
<!-- Title: %3 Pages: 1 -->
<svg width="703pt" height="218pt"
 viewBox="0.00 0.00 703.34 218.00" xmlns="http://www.w3.org/2000/svg" xmlns:xlink="http://www.w3.org/1999/xlink">
<g id="graph0" class="graph" transform="scale(1 1) rotate(0) translate(4 214)">
<title>%3</title>
<polygon fill="#ffffff" stroke="transparent" points="-4,4 -4,-214 699.3443,-214 699.3443,4 -4,4"/>
<!-- 0&#45;manifold -->
<g id="node1" class="node">
<title>0&#45;manifold</title>
<g id="a_node1"><a xlink:href="http://emmo.info/emmo/middle/perceptual#EMMO_0ab0485c_9e5b_4257_a679_90a2dfba5c7c" xlink:title="0&#45;manifold">
<ellipse fill="#ffffcc" stroke="#000000" cx="635.0969" cy="-105" rx="50.0912" ry="18"/>
<text text-anchor="middle" x="635.0969" y="-101.3" font-family="Times,serif" font-size="14.00" fill="#000000">0&#45;manifold</text>
</a>
</g>
</g>
<!-- Geometrical -->
<g id="node3" class="node">
<title>Geometrical</title>
<g id="a_node3"><a xlink:href="http://emmo.info/emmo/middle/perceptual#EMMO_b5957cef_a287_442d_a3ce_fd39f20ba1cd" xlink:title="Geometrical">
<ellipse fill="#ffffcc" stroke="#000000" stroke-width="2" cx="406.0969" cy="-192" rx="54.6905" ry="18"/>
<text text-anchor="middle" x="406.0969" y="-188.3" font-family="Times,serif" font-size="14.00" fill="#000000">Geometrical</text>
</a>
</g>
</g>
<!-- 0&#45;manifold&#45;&gt;Geometrical -->
<g id="edge10" class="edge">
<title>0&#45;manifold&#45;&gt;Geometrical</title>
<path fill="none" stroke="#000000" d="M600.3167,-118.2134C560.534,-133.3274 495.262,-158.1251 451.5004,-174.7506"/>
<polygon fill="none" stroke="#000000" points="450.0658,-171.5515 441.9607,-178.3749 452.5519,-178.0952 450.0658,-171.5515"/>
<text text-anchor="middle" x="544.5969" y="-144.8" font-family="Times,serif" font-size="14.00" fill="#000000">isA</text>
</g>
<!-- 2&#45;manifold -->
<g id="node2" class="node">
<title>2&#45;manifold</title>
<g id="a_node2"><a xlink:href="http://emmo.info/emmo/middle/perceptual#EMMO_9268958f_7f54_48ab_a693_febe2645892b" xlink:title="2&#45;manifold">
<ellipse fill="#ffffcc" stroke="#000000" cx="172.0969" cy="-105" rx="50.0912" ry="18"/>
<text text-anchor="middle" x="172.0969" y="-101.3" font-family="Times,serif" font-size="14.00" fill="#000000">2&#45;manifold</text>
</a>
</g>
</g>
<!-- 2&#45;manifold&#45;&gt;Geometrical -->
<g id="edge2" class="edge">
<title>2&#45;manifold&#45;&gt;Geometrical</title>
<path fill="none" stroke="#000000" d="M207.1291,-118.0248C247.8709,-133.1724 315.2613,-158.2278 360.1658,-174.9231"/>
<polygon fill="none" stroke="#000000" points="359.075,-178.2515 369.6679,-178.4559 361.5145,-171.6903 359.075,-178.2515"/>
<text text-anchor="middle" x="313.5969" y="-144.8" font-family="Times,serif" font-size="14.00" fill="#000000">isA</text>
</g>
<!-- EuclideanSpace -->
<g id="node4" class="node">
<title>EuclideanSpace</title>
<g id="a_node4"><a xlink:href="http://emmo.info/emmo/middle/perceptual#EMMO_5f278af9_8593_4e27_a717_ccc9e07a0ddf" xlink:title="EuclideanSpace">
<ellipse fill="#ffffcc" stroke="#000000" cx="315.0969" cy="-18" rx="66.8882" ry="18"/>
<text text-anchor="middle" x="315.0969" y="-14.3" font-family="Times,serif" font-size="14.00" fill="#000000">EuclideanSpace</text>
</a>
</g>
</g>
<!-- 3&#45;manifold -->
<g id="node6" class="node">
<title>3&#45;manifold</title>
<g id="a_node6"><a xlink:href="http://emmo.info/emmo/middle/perceptual#EMMO_46f0f8df_4dc6_418f_8036_10427a3a288e" xlink:title="3&#45;manifold">
<ellipse fill="#ffffcc" stroke="#000000" cx="329.0969" cy="-105" rx="50.0912" ry="18"/>
<text text-anchor="middle" x="329.0969" y="-101.3" font-family="Times,serif" font-size="14.00" fill="#000000">3&#45;manifold</text>
</a>
</g>
</g>
<!-- EuclideanSpace&#45;&gt;3&#45;manifold -->
<g id="edge12" class="edge">
<title>EuclideanSpace&#45;&gt;3&#45;manifold</title>
<path fill="none" stroke="#000000" d="M317.9977,-36.0265C319.8936,-47.8082 322.409,-63.4393 324.5657,-76.8419"/>
<polygon fill="none" stroke="#000000" points="321.1554,-77.6797 326.1998,-86.9966 328.0665,-76.5676 321.1554,-77.6797"/>
<text text-anchor="middle" x="332.5969" y="-57.8" font-family="Times,serif" font-size="14.00" fill="#000000">isA</text>
</g>
<!-- Curve -->
<g id="node5" class="node">
<title>Curve</title>
<g id="a_node5"><a xlink:href="http://emmo.info/emmo/middle/perceptual#EMMO_0ef4ff4a_5458_4f2a_b51f_4689d472a3f2" xlink:title="Curve">
<ellipse fill="#ffffcc" stroke="#000000" cx="432.0969" cy="-18" rx="32.4942" ry="18"/>
<text text-anchor="middle" x="432.0969" y="-14.3" font-family="Times,serif" font-size="14.00" fill="#000000">Curve</text>
</a>
</g>
</g>
<!-- 1&#45;manifold -->
<g id="node11" class="node">
<title>1&#45;manifold</title>
<g id="a_node11"><a xlink:href="http://emmo.info/emmo/middle/perceptual#EMMO_0c576e13_4ee7_4f3d_bfe9_1614243df018" xlink:title="1&#45;manifold">
<ellipse fill="#ffffcc" stroke="#000000" cx="471.0969" cy="-105" rx="50.0912" ry="18"/>
<text text-anchor="middle" x="471.0969" y="-101.3" font-family="Times,serif" font-size="14.00" fill="#000000">1&#45;manifold</text>
</a>
</g>
</g>
<!-- Curve&#45;&gt;1&#45;manifold -->
<g id="edge5" class="edge">
<title>Curve&#45;&gt;1&#45;manifold</title>
<path fill="none" stroke="#000000" d="M439.9891,-35.6057C445.3981,-47.6719 452.6805,-63.9172 458.8393,-77.6562"/>
<polygon fill="none" stroke="#000000" points="455.7981,-79.4284 463.0825,-87.1218 462.1857,-76.565 455.7981,-79.4284"/>
<text text-anchor="middle" x="463.5969" y="-57.8" font-family="Times,serif" font-size="14.00" fill="#000000">isA</text>
</g>
<!-- 3&#45;manifold&#45;&gt;Geometrical -->
<g id="edge7" class="edge">
<title>3&#45;manifold&#45;&gt;Geometrical</title>
<path fill="none" stroke="#000000" d="M344.3096,-122.1884C355.6256,-134.974 371.2408,-152.6171 383.9418,-166.9676"/>
<polygon fill="none" stroke="#000000" points="381.4037,-169.3808 390.6522,-174.5495 386.6455,-164.7415 381.4037,-169.3808"/>
<text text-anchor="middle" x="382.5969" y="-144.8" font-family="Times,serif" font-size="14.00" fill="#000000">isA</text>
</g>
<!-- Sphere -->
<g id="node7" class="node">
<title>Sphere</title>
<g id="a_node7"><a xlink:href="http://emmo.info/emmo/middle/perceptual#EMMO_d7bf784a_db94_4dd9_861c_54f262846fbf" xlink:title="Sphere">
<ellipse fill="#ffffcc" stroke="#000000" cx="35.0969" cy="-18" rx="35.194" ry="18"/>
<text text-anchor="middle" x="35.0969" y="-14.3" font-family="Times,serif" font-size="14.00" fill="#000000">Sphere</text>
</a>
</g>
</g>
<!-- Sphere&#45;&gt;2&#45;manifold -->
<g id="edge9" class="edge">
<title>Sphere&#45;&gt;2&#45;manifold</title>
<path fill="none" stroke="#000000" d="M57.4132,-32.1717C79.3884,-46.1267 113.2333,-67.6195 138.4682,-83.6445"/>
<polygon fill="none" stroke="#000000" points="136.6834,-86.6572 147.0014,-89.0634 140.4359,-80.748 136.6834,-86.6572"/>
<text text-anchor="middle" x="121.5969" y="-57.8" font-family="Times,serif" font-size="14.00" fill="#000000">isA</text>
</g>
<!-- Line -->
<g id="node8" class="node">
<title>Line</title>
<g id="a_node8"><a xlink:href="http://emmo.info/emmo/middle/perceptual#EMMO_3e309118_e8b7_4021_80f4_642d2df65d94" xlink:title="Line">
<ellipse fill="#ffffcc" stroke="#000000" cx="509.0969" cy="-18" rx="27" ry="18"/>
<text text-anchor="middle" x="509.0969" y="-14.3" font-family="Times,serif" font-size="14.00" fill="#000000">Line</text>
</a>
</g>
</g>
<!-- Line&#45;&gt;1&#45;manifold -->
<g id="edge1" class="edge">
<title>Line&#45;&gt;1&#45;manifold</title>
<path fill="none" stroke="#000000" d="M501.407,-35.6057C496.1368,-47.6719 489.0411,-63.9172 483.0401,-77.6562"/>
<polygon fill="none" stroke="#000000" points="479.7011,-76.5569 478.9057,-87.1218 486.1159,-79.3588 479.7011,-76.5569"/>
<text text-anchor="middle" x="502.5969" y="-57.8" font-family="Times,serif" font-size="14.00" fill="#000000">isA</text>
</g>
<!-- Circle -->
<g id="node9" class="node">
<title>Circle</title>
<g id="a_node9"><a xlink:href="http://emmo.info/emmo/middle/perceptual#EMMO_b2a234a8_579a_422c_9305_b8f7e72c76cd" xlink:title="Circle">
<ellipse fill="#ffffcc" stroke="#000000" cx="586.0969" cy="-18" rx="32.4942" ry="18"/>
<text text-anchor="middle" x="586.0969" y="-14.3" font-family="Times,serif" font-size="14.00" fill="#000000">Circle</text>
</a>
</g>
</g>
<!-- Circle&#45;&gt;1&#45;manifold -->
<g id="edge8" class="edge">
<title>Circle&#45;&gt;1&#45;manifold</title>
<path fill="none" stroke="#000000" d="M566.8485,-32.5618C548.8651,-46.1666 521.746,-66.6829 500.9544,-82.4122"/>
<polygon fill="none" stroke="#000000" points="498.6246,-79.7859 492.7613,-88.6104 502.8479,-85.3684 498.6246,-79.7859"/>
<text text-anchor="middle" x="545.5969" y="-57.8" font-family="Times,serif" font-size="14.00" fill="#000000">isA</text>
</g>
<!-- Point -->
<g id="node10" class="node">
<title>Point</title>
<g id="a_node10"><a xlink:href="http://emmo.info/emmo/middle/perceptual#EMMO_39362460_2a97_4367_8f93_0418c2ac9a08" xlink:title="Point">
<ellipse fill="#ffffcc" stroke="#000000" cx="666.0969" cy="-18" rx="29.4969" ry="18"/>
<text text-anchor="middle" x="666.0969" y="-14.3" font-family="Times,serif" font-size="14.00" fill="#000000">Point</text>
</a>
</g>
</g>
<!-- Point&#45;&gt;0&#45;manifold -->
<g id="edge4" class="edge">
<title>Point&#45;&gt;0&#45;manifold</title>
<path fill="none" stroke="#000000" d="M659.8236,-35.6057C655.5241,-47.6719 649.7356,-63.9172 644.8401,-77.6562"/>
<polygon fill="none" stroke="#000000" points="641.5269,-76.5272 641.4673,-87.1218 648.1208,-78.8768 641.5269,-76.5272"/>
<text text-anchor="middle" x="662.5969" y="-57.8" font-family="Times,serif" font-size="14.00" fill="#000000">isA</text>
</g>
<!-- 1&#45;manifold&#45;&gt;Geometrical -->
<g id="edge6" class="edge">
<title>1&#45;manifold&#45;&gt;Geometrical</title>
<path fill="none" stroke="#000000" d="M457.9432,-122.6057C448.6042,-135.1056 435.9144,-152.0904 425.4268,-166.1276"/>
<polygon fill="none" stroke="#000000" points="422.4125,-164.3145 419.231,-174.4204 428.0202,-168.5042 422.4125,-164.3145"/>
<text text-anchor="middle" x="452.5969" y="-144.8" font-family="Times,serif" font-size="14.00" fill="#000000">isA</text>
</g>
<!-- Plane -->
<g id="node12" class="node">
<title>Plane</title>
<g id="a_node12"><a xlink:href="http://emmo.info/emmo/middle/perceptual#EMMO_25f5ca8e_8f7f_44d8_a392_bd3fe8894458" xlink:title="Plane">
<ellipse fill="#ffffcc" stroke="#000000" cx="119.0969" cy="-18" rx="30.5947" ry="18"/>
<text text-anchor="middle" x="119.0969" y="-14.3" font-family="Times,serif" font-size="14.00" fill="#000000">Plane</text>
</a>
</g>
</g>
<!-- Plane&#45;&gt;2&#45;manifold -->
<g id="edge11" class="edge">
<title>Plane&#45;&gt;2&#45;manifold</title>
<path fill="none" stroke="#000000" d="M129.568,-35.1884C137.091,-47.5376 147.3748,-64.4184 155.9453,-78.487"/>
<polygon fill="none" stroke="#000000" points="153.092,-80.5308 161.2837,-87.25 159.0701,-76.889 153.092,-80.5308"/>
<text text-anchor="middle" x="158.5969" y="-57.8" font-family="Times,serif" font-size="14.00" fill="#000000">isA</text>
</g>
<!-- Torus -->
<g id="node13" class="node">
<title>Torus</title>
<g id="a_node13"><a xlink:href="http://emmo.info/emmo/middle/perceptual#EMMO_86060335_31c2_4820_b433_27c64aea0366" xlink:title="Torus">
<ellipse fill="#ffffcc" stroke="#000000" cx="199.0969" cy="-18" rx="31.3957" ry="18"/>
<text text-anchor="middle" x="199.0969" y="-14.3" font-family="Times,serif" font-size="14.00" fill="#000000">Torus</text>
</a>
</g>
</g>
<!-- Torus&#45;&gt;2&#45;manifold -->
<g id="edge3" class="edge">
<title>Torus&#45;&gt;2&#45;manifold</title>
<path fill="none" stroke="#000000" d="M193.5025,-36.0265C189.8099,-47.9249 184.8988,-63.7492 180.7123,-77.2394"/>
<polygon fill="none" stroke="#000000" points="177.3055,-76.4086 177.6841,-86.9966 183.9909,-78.4834 177.3055,-76.4086"/>
<text text-anchor="middle" x="197.5969" y="-57.8" font-family="Times,serif" font-size="14.00" fill="#000000">isA</text>
</g>
</g>
</svg>
