<?xml version="1.0" encoding="UTF-8" standalone="no"?>
<!DOCTYPE svg PUBLIC "-//W3C//DTD SVG 1.1//EN"
 "http://www.w3.org/Graphics/SVG/1.1/DTD/svg11.dtd">
<!-- Generated by graphviz version 2.40.1 (20161225.0304)
 -->
<!-- Title: %3 Pages: 1 -->
<svg width="701pt" height="305pt"
 viewBox="0.00 0.00 701.14 305.00" xmlns="http://www.w3.org/2000/svg" xmlns:xlink="http://www.w3.org/1999/xlink">
<g id="graph0" class="graph" transform="scale(1 1) rotate(0) translate(4 301)">
<title>%3</title>
<polygon fill="#ffffff" stroke="transparent" points="-4,4 -4,-301 697.1413,-301 697.1413,4 -4,4"/>
<!-- Symbolic -->
<g id="node1" class="node">
<title>Symbolic</title>
<g id="a_node1"><a xlink:href="http://emmo.info/emmo/middle/perceptual#EMMO_057e7d57_aff0_49de_911a_8861d85cef40" xlink:title="Symbolic">
<ellipse fill="#ffffcc" stroke="#000000" cx="305.3466" cy="-192" rx="44.6926" ry="18"/>
<text text-anchor="middle" x="305.3466" y="-188.3" font-family="Times,serif" font-size="14.00" fill="#000000">Symbolic</text>
</a>
</g>
</g>
<!-- Graphical -->
<g id="node2" class="node">
<title>Graphical</title>
<g id="a_node2"><a xlink:href="http://emmo.info/emmo/middle/perceptual#EMMO_c74da218_9147_4f03_92d1_8894abca55f3" xlink:title="Graphical">
<ellipse fill="#ffffcc" stroke="#000000" stroke-width="2" cx="202.3466" cy="-279" rx="45.4919" ry="18"/>
<text text-anchor="middle" x="202.3466" y="-275.3" font-family="Times,serif" font-size="14.00" fill="#000000">Graphical</text>
</a>
</g>
</g>
<!-- Symbolic&#45;&gt;Graphical -->
<g id="edge8" class="edge">
<title>Symbolic&#45;&gt;Graphical</title>
<path fill="none" stroke="#000000" d="M285.9731,-208.364C270.1051,-221.7671 247.4621,-240.8927 229.7385,-255.8631"/>
<polygon fill="none" stroke="#000000" points="227.3645,-253.2869 221.9834,-262.4135 231.8814,-258.6346 227.3645,-253.2869"/>
<text text-anchor="middle" x="269.8466" y="-231.8" font-family="Times,serif" font-size="14.00" fill="#000000">isA</text>
</g>
<!-- Symbol -->
<g id="node3" class="node">
<title>Symbol</title>
<g id="a_node3"><a xlink:href="http://emmo.info/emmo/middle/perceptual#EMMO_a1083d0a_c1fb_471f_8e20_a98f881ad527" xlink:title="Symbol">
<ellipse fill="#ffffcc" stroke="#000000" stroke-width="2" cx="38.3466" cy="-105" rx="38.1938" ry="18"/>
<text text-anchor="middle" x="38.3466" y="-101.3" font-family="Times,serif" font-size="14.00" fill="#000000">Symbol</text>
</a>
</g>
</g>
<!-- Symbol&#45;&gt;Symbolic -->
<g id="edge5" class="edge">
<title>Symbol&#45;&gt;Symbolic</title>
<path fill="none" stroke="#000000" d="M70.1303,-115.2034C111.7826,-128.5962 187.0917,-152.8838 251.3466,-174 254.4916,-175.0336 257.7383,-176.1049 261.006,-177.1863"/>
<polygon fill="none" stroke="#000000" points="260.1989,-180.6061 270.7923,-180.4336 262.4035,-173.9623 260.1989,-180.6061"/>
<text text-anchor="middle" x="202.8466" y="-144.8" font-family="Times,serif" font-size="14.00" fill="#000000">isA</text>
</g>
<!-- Geometrical -->
<g id="node4" class="node">
<title>Geometrical</title>
<g id="a_node4"><a xlink:href="http://emmo.info/emmo/middle/perceptual#EMMO_b5957cef_a287_442d_a3ce_fd39f20ba1cd" xlink:title="Geometrical">
<ellipse fill="#ffffcc" stroke="#000000" stroke-width="2" cx="89.3466" cy="-192" rx="54.6905" ry="18"/>
<text text-anchor="middle" x="89.3466" y="-188.3" font-family="Times,serif" font-size="14.00" fill="#000000">Geometrical</text>
</a>
</g>
</g>
<!-- Geometrical&#45;&gt;Graphical -->
<g id="edge1" class="edge">
<title>Geometrical&#45;&gt;Graphical</title>
<path fill="none" stroke="#000000" d="M110.867,-208.5688C128.5727,-222.2006 153.8342,-241.6497 173.3269,-256.6574"/>
<polygon fill="none" stroke="#000000" points="171.23,-259.4601 181.2888,-262.7874 175.5004,-253.9136 171.23,-259.4601"/>
<text text-anchor="middle" x="162.8466" y="-231.8" font-family="Times,serif" font-size="14.00" fill="#000000">isA</text>
</g>
<!-- SymbolicComposition -->
<g id="node5" class="node">
<title>SymbolicComposition</title>
<g id="a_node5"><a xlink:href="http://emmo.info/emmo/middle/perceptual#EMMO_89a0c87c_0804_4013_937a_6fe234d9499c" xlink:title="SymbolicComposition">
<ellipse fill="#ffffcc" stroke="#000000" cx="412.3466" cy="-105" rx="90.9839" ry="18"/>
<text text-anchor="middle" x="412.3466" y="-101.3" font-family="Times,serif" font-size="14.00" fill="#000000">SymbolicComposition</text>
</a>
</g>
</g>
<!-- SymbolicComposition&#45;&gt;Symbolic -->
<g id="edge6" class="edge">
<title>SymbolicComposition&#45;&gt;Symbolic</title>
<path fill="none" stroke="#000000" d="M377.9434,-121.8715C368.2514,-127.3486 358.0003,-133.8717 349.3466,-141 340.3178,-148.4374 331.6269,-157.8493 324.3883,-166.5572"/>
<polygon fill="none" stroke="#000000" points="321.4604,-164.6135 317.9297,-174.6028 326.9191,-168.9956 321.4604,-164.6135"/>
<text text-anchor="middle" x="358.8466" y="-144.8" font-family="Times,serif" font-size="14.00" fill="#000000">isA</text>
</g>
<!-- SymbolicComposition&#45;&gt;Symbolic -->
<g id="edge7" class="edge">
<title>SymbolicComposition&#45;&gt;Symbolic</title>
<path fill="none" stroke="#006400" d="M399.3897,-122.878C391.2435,-133.3339 380.0804,-146.3344 368.3466,-156 360.6971,-162.3011 351.7995,-168.1293 343.1432,-173.1801"/>
<polygon fill="#006400" stroke="#006400" points="341.2861,-170.2086 334.2722,-178.1494 344.7072,-176.3157 341.2861,-170.2086"/>
<text text-anchor="middle" x="455.8466" y="-144.8" font-family="Times,serif" font-size="14.00" fill="#000000">hasSpatialDirectPart some</text>
</g>
<!-- Pictorial -->
<g id="node6" class="node">
<title>Pictorial</title>
<g id="a_node6"><a xlink:href="http://emmo.info/emmo/middle/perceptual#EMMO_1da53c06_9577_4008_8652_272fa3b62be7" xlink:title="Pictorial">
<ellipse fill="#ffffcc" stroke="#000000" cx="202.3466" cy="-192" rx="40.0939" ry="18"/>
<text text-anchor="middle" x="202.3466" y="-188.3" font-family="Times,serif" font-size="14.00" fill="#000000">Pictorial</text>
</a>
</g>
</g>
<!-- Pictorial&#45;&gt;Graphical -->
<g id="edge2" class="edge">
<title>Pictorial&#45;&gt;Graphical</title>
<path fill="none" stroke="#000000" d="M202.3466,-210.0265C202.3466,-221.8082 202.3466,-237.4393 202.3466,-250.8419"/>
<polygon fill="none" stroke="#000000" points="198.8467,-250.9966 202.3466,-260.9966 205.8467,-250.9967 198.8467,-250.9966"/>
<text text-anchor="middle" x="211.8466" y="-231.8" font-family="Times,serif" font-size="14.00" fill="#000000">isA</text>
</g>
<!-- Metrological -->
<g id="node7" class="node">
<title>Metrological</title>
<g id="a_node7"><a xlink:href="http://emmo.info/emmo/middle/units#EMMO_985bec21_989f_4b9e_a4b3_735d88099c3c" xlink:title="Metrological">
<ellipse fill="#ffffcc" stroke="#000000" stroke-width="2" cx="499.3466" cy="-18" rx="56.59" ry="18"/>
<text text-anchor="middle" x="499.3466" y="-14.3" font-family="Times,serif" font-size="14.00" fill="#000000">Metrological</text>
</a>
</g>
</g>
<!-- Language -->
<g id="node9" class="node">
<title>Language</title>
<g id="a_node9"><a xlink:href="http://emmo.info/emmo/middle/perceptual#EMMO_d8d2144e_5c8d_455d_a643_5caf4d8d9df8" xlink:title="Language">
<ellipse fill="#ffffcc" stroke="#000000" cx="566.3466" cy="-105" rx="45.4919" ry="18"/>
<text text-anchor="middle" x="566.3466" y="-101.3" font-family="Times,serif" font-size="14.00" fill="#000000">Language</text>
</a>
</g>
</g>
<!-- Metrological&#45;&gt;Language -->
<g id="edge9" class="edge">
<title>Metrological&#45;&gt;Language</title>
<path fill="none" stroke="#000000" d="M512.905,-35.6057C522.5947,-48.1878 535.7839,-65.3141 546.635,-79.4043"/>
<polygon fill="none" stroke="#000000" points="544.1624,-81.93 553.037,-87.7173 549.7084,-77.6589 544.1624,-81.93"/>
<text text-anchor="middle" x="546.8466" y="-57.8" font-family="Times,serif" font-size="14.00" fill="#000000">isA</text>
</g>
<!-- Mathematical -->
<g id="node8" class="node">
<title>Mathematical</title>
<g id="a_node8"><a xlink:href="http://emmo.info/emmo/middle/math#EMMO_54ee6b5e_5261_44a8_86eb_5717e7fdb9d0" xlink:title="Mathematical">
<ellipse fill="#ffffcc" stroke="#000000" stroke-width="2" cx="633.3466" cy="-18" rx="59.5901" ry="18"/>
<text text-anchor="middle" x="633.3466" y="-14.3" font-family="Times,serif" font-size="14.00" fill="#000000">Mathematical</text>
</a>
</g>
</g>
<!-- Mathematical&#45;&gt;Language -->
<g id="edge3" class="edge">
<title>Mathematical&#45;&gt;Language</title>
<path fill="none" stroke="#000000" d="M619.7881,-35.6057C610.0985,-48.1878 596.9093,-65.3141 586.0582,-79.4043"/>
<polygon fill="none" stroke="#000000" points="582.9848,-77.6589 579.6562,-87.7173 588.5308,-81.93 582.9848,-77.6589"/>
<text text-anchor="middle" x="612.8466" y="-57.8" font-family="Times,serif" font-size="14.00" fill="#000000">isA</text>
</g>
<!-- Language&#45;&gt;Symbolic -->
<g id="edge4" class="edge">
<title>Language&#45;&gt;Symbolic</title>
<path fill="none" stroke="#000000" d="M558.9697,-122.9642C553.3647,-134.2844 544.5305,-148.1898 532.3466,-156 504.5384,-173.8256 417.7571,-183.6517 359.9112,-188.3697"/>
<polygon fill="none" stroke="#000000" points="359.5176,-184.8898 349.8236,-189.1649 360.0678,-191.8681 359.5176,-184.8898"/>
<text text-anchor="middle" x="557.8466" y="-144.8" font-family="Times,serif" font-size="14.00" fill="#000000">isA</text>
</g>
<!-- String -->
<g id="node10" class="node">
<title>String</title>
<g id="a_node10"><a xlink:href="http://emmo.info/emmo/middle/perceptual#EMMO_50ea1ec5_f157_41b0_b46b_a9032f17ca10" xlink:title="String">
<ellipse fill="#ffffcc" stroke="#000000" cx="271.3466" cy="-105" rx="32.4942" ry="18"/>
<text text-anchor="middle" x="271.3466" y="-101.3" font-family="Times,serif" font-size="14.00" fill="#000000">String</text>
</a>
</g>
</g>
<!-- String&#45;&gt;Symbolic -->
<g id="edge10" class="edge">
<title>String&#45;&gt;Symbolic</title>
<path fill="none" stroke="#000000" d="M278.227,-122.6057C282.9425,-134.6719 289.2913,-150.9172 294.6605,-164.6562"/>
<polygon fill="none" stroke="#000000" points="291.4598,-166.0818 298.3597,-174.1218 297.9796,-163.5338 291.4598,-166.0818"/>
<text text-anchor="middle" x="300.8466" y="-144.8" font-family="Times,serif" font-size="14.00" fill="#000000">isA</text>
</g>
<!-- String&#45;&gt;Symbol -->
<g id="edge11" class="edge">
<title>String&#45;&gt;Symbol</title>
<path fill="none" stroke="#006400" d="M238.834,-105C199.4213,-105 132.6322,-105 87.0617,-105"/>
<polygon fill="#006400" stroke="#006400" points="86.8218,-101.5001 76.8218,-105 86.8218,-108.5001 86.8218,-101.5001"/>
<text text-anchor="middle" x="157.7713" y="-90.8" font-family="Times,serif" font-size="14.00" fill="#000000">hasSpatialDirectPart some</text>
</g>
<!-- String&#45;&gt;Symbol -->
<g id="edge12" class="edge">
<title>String&#45;&gt;Symbol</title>
<path fill="none" stroke="#006400" d="M246.6944,-117.0189C240.4973,-119.4906 233.7599,-121.7261 227.2713,-123 196.9611,-128.9507 118.699,-128.3177 88.2713,-123 84.3998,-122.3234 80.4324,-121.3725 76.5085,-120.2575"/>
<polygon fill="#006400" stroke="#006400" points="77.5141,-116.9047 66.9237,-117.2108 75.3935,-123.5758 77.5141,-116.9047"/>
<text text-anchor="middle" x="157.7713" y="-111.8" font-family="Times,serif" font-size="14.00" fill="#000000">hasSpatialDirectPart only</text>
</g>
</g>
</svg>
