<?xml version="1.0" encoding="UTF-8" standalone="no"?>
<!DOCTYPE svg PUBLIC "-//W3C//DTD SVG 1.1//EN"
 "http://www.w3.org/Graphics/SVG/1.1/DTD/svg11.dtd">
<!-- Generated by graphviz version 2.40.1 (20161225.0304)
 -->
<!-- Title: %3 Pages: 1 -->
<svg width="656pt" height="392pt"
 viewBox="0.00 0.00 656.00 392.00" xmlns="http://www.w3.org/2000/svg" xmlns:xlink="http://www.w3.org/1999/xlink">
<g id="graph0" class="graph" transform="scale(1 1) rotate(0) translate(4 388)">
<title>%3</title>
<polygon fill="#ffffff" stroke="transparent" points="-4,4 -4,-388 652,-388 652,4 -4,4"/>
<!-- hasTemporalDirectPart -->
<g id="node1" class="node">
<title>hasTemporalDirectPart</title>
<g id="a_node1"><a xlink:href="http://emmo.info/emmo/middle/reductionistic#EMMO_65a2c5b8_e4d8_4a51_b2f8_e55effc0547d" xlink:title="hasTemporalDirectPart">
<polygon fill="#0079ba" stroke="#000000" points="648,-123 505,-123 505,-87 648,-87 648,-123"/>
<text text-anchor="middle" x="576.5" y="-101.3" font-family="Times,serif" font-size="14.00" fill="#ffffff">hasTemporalDirectPart</text>
</a>
</g>
</g>
<!-- hasTemporalPart -->
<g id="node11" class="node">
<title>hasTemporalPart</title>
<g id="a_node11"><a xlink:href="http://emmo.info/emmo/top/physical#EMMO_7afbed84_7593_4a23_bd88_9d9c6b04e8f6" xlink:title="hasTemporalPart">
<polygon fill="#0079ba" stroke="#000000" points="631.5,-210 521.5,-210 521.5,-174 631.5,-174 631.5,-210"/>
<text text-anchor="middle" x="576.5" y="-188.3" font-family="Times,serif" font-size="14.00" fill="#ffffff">hasTemporalPart</text>
</a>
</g>
</g>
<!-- hasTemporalDirectPart&#45;&gt;hasTemporalPart -->
<g id="edge11" class="edge">
<title>hasTemporalDirectPart&#45;&gt;hasTemporalPart</title>
<path fill="none" stroke="#000000" d="M576.5,-123.0265C576.5,-134.8082 576.5,-150.4393 576.5,-163.8419"/>
<polygon fill="none" stroke="#000000" points="573.0001,-163.9966 576.5,-173.9966 580.0001,-163.9967 573.0001,-163.9966"/>
<text text-anchor="middle" x="586" y="-144.8" font-family="Times,serif" font-size="14.00" fill="#000000">isA</text>
</g>
<!-- hasProperParticipant -->
<g id="node2" class="node">
<title>hasProperParticipant</title>
<g id="a_node2"><a xlink:href="http://emmo.info/emmo/middle/holistic#EMMO_c5aae418_1622_4d02_93c5_21159e28e6c1" xlink:title="hasProperParticipant">
<polygon fill="#0079ba" stroke="#000000" points="129,-210 0,-210 0,-174 129,-174 129,-210"/>
<text text-anchor="middle" x="64.5" y="-188.3" font-family="Times,serif" font-size="14.00" fill="#ffffff">hasProperParticipant</text>
</a>
</g>
</g>
<!-- hasParticipant -->
<g id="node6" class="node">
<title>hasParticipant</title>
<g id="a_node6"><a xlink:href="http://emmo.info/emmo/middle/holistic#EMMO_ae2d1a96_bfa1_409a_a7d2_03d69e8a125a" xlink:title="hasParticipant">
<polygon fill="#0079ba" stroke="#000000" points="204,-297 111,-297 111,-261 204,-261 204,-297"/>
<text text-anchor="middle" x="157.5" y="-275.3" font-family="Times,serif" font-size="14.00" fill="#ffffff">hasParticipant</text>
</a>
</g>
</g>
<!-- hasProperParticipant&#45;&gt;hasParticipant -->
<g id="edge3" class="edge">
<title>hasProperParticipant&#45;&gt;hasParticipant</title>
<path fill="none" stroke="#000000" d="M83.7697,-210.0265C97.3615,-222.7414 115.7459,-239.9397 130.7563,-253.9817"/>
<polygon fill="none" stroke="#000000" points="128.5612,-256.721 138.255,-260.9966 133.3433,-251.6091 128.5612,-256.721"/>
<text text-anchor="middle" x="127" y="-231.8" font-family="Times,serif" font-size="14.00" fill="#000000">isA</text>
</g>
<!-- hasProperPart -->
<g id="node7" class="node">
<title>hasProperPart</title>
<g id="a_node7"><a xlink:href="http://emmo.info/emmo/top/mereotopology#EMMO_9380ab64_0363_4804_b13f_3a8a94119a76" xlink:title="hasProperPart">
<polygon fill="#0079ba" stroke="#000000" points="341.5,-297 249.5,-297 249.5,-261 341.5,-261 341.5,-297"/>
<text text-anchor="middle" x="295.5" y="-275.3" font-family="Times,serif" font-size="14.00" fill="#ffffff">hasProperPart</text>
</a>
</g>
</g>
<!-- hasProperParticipant&#45;&gt;hasProperPart -->
<g id="edge4" class="edge">
<title>hasProperParticipant&#45;&gt;hasProperPart</title>
<path fill="none" stroke="#000000" d="M112.3633,-210.0265C149.3987,-223.9748 200.7594,-243.3185 239.6671,-257.972"/>
<polygon fill="none" stroke="#000000" points="238.6824,-261.3411 249.2743,-261.5903 241.1496,-254.7903 238.6824,-261.3411"/>
<text text-anchor="middle" x="204" y="-231.8" font-family="Times,serif" font-size="14.00" fill="#000000">isA</text>
</g>
<!-- hasSpatioTemporalPart -->
<g id="node3" class="node">
<title>hasSpatioTemporalPart</title>
<g id="a_node3"><a xlink:href="http://emmo.info/emmo/top/physical#EMMO_6e046dd0_9634_4013_b2b1_9cc468087c83" xlink:title="hasSpatioTemporalPart">
<polygon fill="#0079ba" stroke="#000000" points="291.5,-210 147.5,-210 147.5,-174 291.5,-174 291.5,-210"/>
<text text-anchor="middle" x="219.5" y="-188.3" font-family="Times,serif" font-size="14.00" fill="#ffffff">hasSpatioTemporalPart</text>
</a>
</g>
</g>
<!-- hasSpatioTemporalPart&#45;&gt;hasProperPart -->
<g id="edge10" class="edge">
<title>hasSpatioTemporalPart&#45;&gt;hasProperPart</title>
<path fill="none" stroke="#000000" d="M235.2472,-210.0265C246.1508,-222.5081 260.8284,-239.3101 272.967,-253.2056"/>
<polygon fill="none" stroke="#000000" points="270.5581,-255.7681 279.7729,-260.9966 275.8299,-251.1629 270.5581,-255.7681"/>
<text text-anchor="middle" x="272" y="-231.8" font-family="Times,serif" font-size="14.00" fill="#000000">isA</text>
</g>
<!-- hasSpatialPart -->
<g id="node4" class="node">
<title>hasSpatialPart</title>
<g id="a_node4"><a xlink:href="http://emmo.info/emmo/top/physical#EMMO_f68030be_94b8_4c61_a161_886468558054" xlink:title="hasSpatialPart">
<polygon fill="#0079ba" stroke="#000000" points="403.5,-210 309.5,-210 309.5,-174 403.5,-174 403.5,-210"/>
<text text-anchor="middle" x="356.5" y="-188.3" font-family="Times,serif" font-size="14.00" fill="#ffffff">hasSpatialPart</text>
</a>
</g>
</g>
<!-- hasSpatialPart&#45;&gt;hasProperPart -->
<g id="edge6" class="edge">
<title>hasSpatialPart&#45;&gt;hasProperPart</title>
<path fill="none" stroke="#000000" d="M343.8608,-210.0265C335.2728,-222.2748 323.7679,-238.6835 314.1341,-252.4234"/>
<polygon fill="none" stroke="#000000" points="310.9983,-250.7994 308.123,-260.9966 316.7298,-254.8181 310.9983,-250.7994"/>
<text text-anchor="middle" x="340" y="-231.8" font-family="Times,serif" font-size="14.00" fill="#000000">isA</text>
</g>
<!-- hasSpatioTemporalDirectPart -->
<g id="node5" class="node">
<title>hasSpatioTemporalDirectPart</title>
<g id="a_node5"><a xlink:href="http://emmo.info/emmo/middle/reductionistic#EMMO_663859e5_add3_4c9e_96fb_c99399de278d" xlink:title="hasSpatioTemporalDirectPart">
<polygon fill="#0079ba" stroke="#000000" points="300.5,-123 122.5,-123 122.5,-87 300.5,-87 300.5,-123"/>
<text text-anchor="middle" x="211.5" y="-101.3" font-family="Times,serif" font-size="14.00" fill="#ffffff">hasSpatioTemporalDirectPart</text>
</a>
</g>
</g>
<!-- hasSpatioTemporalDirectPart&#45;&gt;hasSpatioTemporalPart -->
<g id="edge5" class="edge">
<title>hasSpatioTemporalDirectPart&#45;&gt;hasSpatioTemporalPart</title>
<path fill="none" stroke="#000000" d="M213.1576,-123.0265C214.241,-134.8082 215.6783,-150.4393 216.9108,-163.8419"/>
<polygon fill="none" stroke="#000000" points="213.4435,-164.3592 217.8445,-173.9966 220.414,-163.7181 213.4435,-164.3592"/>
<text text-anchor="middle" x="226" y="-144.8" font-family="Times,serif" font-size="14.00" fill="#000000">isA</text>
</g>
<!-- hasPart -->
<g id="node8" class="node">
<title>hasPart</title>
<g id="a_node8"><a xlink:href="http://emmo.info/emmo/top/mereotopology#EMMO_17e27c22_37e1_468c_9dd7_95e137f73e7f" xlink:title="hasPart">
<polygon fill="#0079ba" stroke="#000000" stroke-width="2" points="240.5,-384 184.5,-384 184.5,-348 240.5,-348 240.5,-384"/>
<text text-anchor="middle" x="212.5" y="-362.3" font-family="Times,serif" font-size="14.00" fill="#ffffff">hasPart</text>
</a>
</g>
</g>
<!-- hasParticipant&#45;&gt;hasPart -->
<g id="edge1" class="edge">
<title>hasParticipant&#45;&gt;hasPart</title>
<path fill="none" stroke="#000000" d="M168.896,-297.0265C176.6393,-309.2748 187.0126,-325.6835 195.6987,-339.4234"/>
<polygon fill="none" stroke="#000000" points="192.8165,-341.4143 201.1186,-347.9966 198.7333,-337.6738 192.8165,-341.4143"/>
<text text-anchor="middle" x="198" y="-318.8" font-family="Times,serif" font-size="14.00" fill="#000000">isA</text>
</g>
<!-- hasProperPart&#45;&gt;hasPart -->
<g id="edge7" class="edge">
<title>hasProperPart&#45;&gt;hasPart</title>
<path fill="none" stroke="#000000" d="M278.3023,-297.0265C266.2833,-309.6248 250.0651,-326.6245 236.7375,-340.5945"/>
<polygon fill="none" stroke="#000000" points="234.046,-338.3452 229.6756,-347.9966 239.1108,-343.1772 234.046,-338.3452"/>
<text text-anchor="middle" x="269" y="-318.8" font-family="Times,serif" font-size="14.00" fill="#000000">isA</text>
</g>
<!-- hasReferenceUnit -->
<g id="node9" class="node">
<title>hasReferenceUnit</title>
<g id="a_node9"><a xlink:href="http://emmo.info/emmo/middle/units#EMMO_67fc0a36_8dcb_4ffa_9a43_31074efa3296" xlink:title="hasReferenceUnit">
<polygon fill="#0079ba" stroke="#000000" points="373,-36 260,-36 260,0 373,0 373,-36"/>
<text text-anchor="middle" x="316.5" y="-14.3" font-family="Times,serif" font-size="14.00" fill="#ffffff">hasReferenceUnit</text>
</a>
</g>
</g>
<!-- hasSpatialDirectPart -->
<g id="node13" class="node">
<title>hasSpatialDirectPart</title>
<g id="a_node13"><a xlink:href="http://emmo.info/emmo/middle/reductionistic#EMMO_b2282816_b7a3_44c6_b2cb_3feff1ceb7fe" xlink:title="hasSpatialDirectPart">
<polygon fill="#0079ba" stroke="#000000" points="446.5,-123 318.5,-123 318.5,-87 446.5,-87 446.5,-123"/>
<text text-anchor="middle" x="382.5" y="-101.3" font-family="Times,serif" font-size="14.00" fill="#ffffff">hasSpatialDirectPart</text>
</a>
</g>
</g>
<!-- hasReferenceUnit&#45;&gt;hasSpatialDirectPart -->
<g id="edge8" class="edge">
<title>hasReferenceUnit&#45;&gt;hasSpatialDirectPart</title>
<path fill="none" stroke="#000000" d="M330.1752,-36.0265C339.5556,-48.3915 352.1525,-64.9964 362.6357,-78.8153"/>
<polygon fill="none" stroke="#000000" points="360.0099,-81.1451 368.8423,-86.9966 365.5868,-76.9143 360.0099,-81.1451"/>
<text text-anchor="middle" x="363" y="-57.8" font-family="Times,serif" font-size="14.00" fill="#000000">isA</text>
</g>
<!-- hasQuantityValue -->
<g id="node10" class="node">
<title>hasQuantityValue</title>
<g id="a_node10"><a xlink:href="http://emmo.info/emmo/middle/units#EMMO_8ef3cd6d_ae58_4a8d_9fc0_ad8f49015cd0" xlink:title="hasQuantityValue">
<polygon fill="#0079ba" stroke="#000000" points="505.5,-36 391.5,-36 391.5,0 505.5,0 505.5,-36"/>
<text text-anchor="middle" x="448.5" y="-14.3" font-family="Times,serif" font-size="14.00" fill="#ffffff">hasQuantityValue</text>
</a>
</g>
</g>
<!-- hasQuantityValue&#45;&gt;hasSpatialDirectPart -->
<g id="edge2" class="edge">
<title>hasQuantityValue&#45;&gt;hasSpatialDirectPart</title>
<path fill="none" stroke="#000000" d="M434.8248,-36.0265C425.4444,-48.3915 412.8475,-64.9964 402.3643,-78.8153"/>
<polygon fill="none" stroke="#000000" points="399.4132,-76.9143 396.1577,-86.9966 404.9901,-81.1451 399.4132,-76.9143"/>
<text text-anchor="middle" x="428" y="-57.8" font-family="Times,serif" font-size="14.00" fill="#000000">isA</text>
</g>
<!-- hasTemporalPart&#45;&gt;hasProperPart -->
<g id="edge9" class="edge">
<title>hasTemporalPart&#45;&gt;hasProperPart</title>
<path fill="none" stroke="#000000" d="M521.472,-209.1575C489.6411,-219.0709 448.819,-231.7653 412.5,-243 392.526,-249.1786 370.6251,-255.9249 351.228,-261.8902"/>
<polygon fill="none" stroke="#000000" points="350.1623,-258.5561 341.6324,-264.8403 352.2194,-265.247 350.1623,-258.5561"/>
<text text-anchor="middle" x="467" y="-231.8" font-family="Times,serif" font-size="14.00" fill="#000000">isA</text>
</g>
<!-- hasMember -->
<g id="node12" class="node">
<title>hasMember</title>
<g id="a_node12"><a xlink:href="http://emmo.info/emmo/top/mereotopology#EMMO_6b7276a4_4b9d_440a_b577_0277539c0fc4" xlink:title="hasMember">
<polygon fill="#0079ba" stroke="#000000" points="503.5,-210 421.5,-210 421.5,-174 503.5,-174 503.5,-210"/>
<text text-anchor="middle" x="462.5" y="-188.3" font-family="Times,serif" font-size="14.00" fill="#ffffff">hasMember</text>
</a>
</g>
</g>
<!-- hasMember&#45;&gt;hasProperPart -->
<g id="edge13" class="edge">
<title>hasMember&#45;&gt;hasProperPart</title>
<path fill="none" stroke="#000000" d="M427.8975,-210.0265C402.1471,-223.4413 366.8173,-241.8467 339.1299,-256.2706"/>
<polygon fill="none" stroke="#000000" points="337.3098,-253.2723 330.0582,-260.9966 340.544,-259.4804 337.3098,-253.2723"/>
<text text-anchor="middle" x="399" y="-231.8" font-family="Times,serif" font-size="14.00" fill="#000000">isA</text>
</g>
<!-- hasSpatialDirectPart&#45;&gt;hasSpatialPart -->
<g id="edge12" class="edge">
<title>hasSpatialDirectPart&#45;&gt;hasSpatialPart</title>
<path fill="none" stroke="#000000" d="M377.1128,-123.0265C373.5569,-134.9249 368.8278,-150.7492 364.7963,-164.2394"/>
<polygon fill="none" stroke="#000000" points="361.3903,-163.4131 361.8803,-173.9966 368.0972,-165.4175 361.3903,-163.4131"/>
<text text-anchor="middle" x="381" y="-144.8" font-family="Times,serif" font-size="14.00" fill="#000000">isA</text>
</g>
</g>
</svg>
