<?xml version="1.0" encoding="UTF-8" standalone="no"?>
<!DOCTYPE svg PUBLIC "-//W3C//DTD SVG 1.1//EN"
 "http://www.w3.org/Graphics/SVG/1.1/DTD/svg11.dtd">
<!-- Generated by graphviz version 2.40.1 (20161225.0304)
 -->
<!-- Title: %3 Pages: 1 -->
<svg width="470pt" height="305pt"
 viewBox="0.00 0.00 469.69 305.00" xmlns="http://www.w3.org/2000/svg" xmlns:xlink="http://www.w3.org/1999/xlink">
<g id="graph0" class="graph" transform="scale(1 1) rotate(0) translate(4 301)">
<title>%3</title>
<polygon fill="#ffffff" stroke="transparent" points="-4,4 -4,-301 465.692,-301 465.692,4 -4,4"/>
<!-- Component -->
<g id="node1" class="node">
<title>Component</title>
<g id="a_node1"><a xlink:href="http://emmo.info/emmo/middle/manufacturing#EMMO_494b372c_cfdf_47d3_a4de_5e037c540de8" xlink:title="Component">
<ellipse fill="#ffffcc" stroke="#000000" cx="51.9954" cy="-18" rx="51.9908" ry="18"/>
<text text-anchor="middle" x="51.9954" y="-14.3" font-family="Times,serif" font-size="14.00" fill="#000000">Component</text>
</a>
</g>
</g>
<!-- Engineered -->
<g id="node6" class="node">
<title>Engineered</title>
<g id="a_node6"><a xlink:href="http://emmo.info/emmo/middle/manufacturing#EMMO_86ca9b93_1183_4b65_81b8_c0fcd3bba5ad" xlink:title="Engineered">
<ellipse fill="#ffffcc" stroke="#000000" cx="104.9954" cy="-105" rx="50.8918" ry="18"/>
<text text-anchor="middle" x="104.9954" y="-101.3" font-family="Times,serif" font-size="14.00" fill="#000000">Engineered</text>
</a>
</g>
</g>
<!-- Component&#45;&gt;Engineered -->
<g id="edge4" class="edge">
<title>Component&#45;&gt;Engineered</title>
<path fill="none" stroke="#000000" d="M62.977,-36.0265C70.4884,-48.3565 80.5681,-64.9025 88.9723,-78.6979"/>
<polygon fill="none" stroke="#000000" points="86.0175,-80.5751 94.2092,-87.2943 91.9956,-76.9333 86.0175,-80.5751"/>
<text text-anchor="middle" x="91.4954" y="-57.8" font-family="Times,serif" font-size="14.00" fill="#000000">isA</text>
</g>
<!-- Participant -->
<g id="node2" class="node">
<title>Participant</title>
<g id="a_node2"><a xlink:href="http://emmo.info/emmo/middle/holistic#EMMO_49804605_c0fe_4538_abda_f70ba1dc8a5d" xlink:title="Participant">
<ellipse fill="#ffffcc" stroke="#000000" cx="160.9954" cy="-192" rx="48.9926" ry="18"/>
<text text-anchor="middle" x="160.9954" y="-188.3" font-family="Times,serif" font-size="14.00" fill="#000000">Participant</text>
</a>
</g>
</g>
<!-- Process -->
<g id="node5" class="node">
<title>Process</title>
<g id="a_node5"><a xlink:href="http://emmo.info/emmo/middle/holistic#EMMO_43e9a05d_98af_41b4_92f6_00f79a09bfce" xlink:title="Process">
<ellipse fill="#ffffcc" stroke="#000000" stroke-width="2" cx="423.9954" cy="-192" rx="37.8943" ry="18"/>
<text text-anchor="middle" x="423.9954" y="-188.3" font-family="Times,serif" font-size="14.00" fill="#000000">Process</text>
</a>
</g>
</g>
<!-- Participant&#45;&gt;Process -->
<g id="edge3" class="edge">
<title>Participant&#45;&gt;Process</title>
<path fill="none" stroke="#ff0000" d="M209.8473,-192C257.2174,-192 328.6501,-192 375.7972,-192"/>
<polygon fill="#ff0000" stroke="#ff0000" points="386.0568,-195.5 376.0568,-192.0001 386.0568,-188.5 386.0568,-195.5"/>
<text text-anchor="middle" x="298.0199" y="-177.8" font-family="Times,serif" font-size="14.00" fill="#000000">Inverse(hasParticipant) some</text>
</g>
<!-- Holistic -->
<g id="node7" class="node">
<title>Holistic</title>
<g id="a_node7"><a xlink:href="http://emmo.info/emmo/middle/holistic#EMMO_0277f24a_ea7f_4917_81b7_fb0406c8fc62" xlink:title="Holistic">
<ellipse fill="#ffc880" stroke="#000000" stroke-width="2" cx="291.9954" cy="-279" rx="38.1938" ry="18"/>
<text text-anchor="middle" x="291.9954" y="-275.3" font-family="Times,serif" font-size="14.00" fill="#000000">Holistic</text>
</a>
</g>
</g>
<!-- Participant&#45;&gt;Holistic -->
<g id="edge2" class="edge">
<title>Participant&#45;&gt;Holistic</title>
<path fill="none" stroke="#000000" d="M184.7185,-207.755C206.1629,-221.9967 237.8608,-243.048 261.2434,-258.5769"/>
<polygon fill="none" stroke="#000000" points="259.4925,-261.6156 269.7591,-264.2324 263.3652,-255.7844 259.4925,-261.6156"/>
<text text-anchor="middle" x="243.4954" y="-231.8" font-family="Times,serif" font-size="14.00" fill="#000000">isA</text>
</g>
<!-- Semiotic -->
<g id="node3" class="node">
<title>Semiotic</title>
<g id="a_node3"><a xlink:href="http://emmo.info/emmo/top/semiotics#EMMO_b803f122_4acb_4064_9d71_c1e5fd091fc9" xlink:title="Semiotic">
<ellipse fill="#ffc880" stroke="#000000" stroke-width="2" cx="215.9954" cy="-105" rx="42.4939" ry="18"/>
<text text-anchor="middle" x="215.9954" y="-101.3" font-family="Times,serif" font-size="14.00" fill="#000000">Semiotic</text>
</a>
</g>
</g>
<!-- Semiotic&#45;&gt;Participant -->
<g id="edge1" class="edge">
<title>Semiotic&#45;&gt;Participant</title>
<path fill="none" stroke="#000000" d="M204.8653,-122.6057C197.0377,-134.9876 186.4279,-151.7703 177.6031,-165.7296"/>
<polygon fill="none" stroke="#000000" points="174.4941,-164.0976 172.1089,-174.4204 180.4109,-167.8381 174.4941,-164.0976"/>
<text text-anchor="middle" x="200.4954" y="-144.8" font-family="Times,serif" font-size="14.00" fill="#000000">isA</text>
</g>
<!-- System -->
<g id="node4" class="node">
<title>System</title>
<g id="a_node4"><a xlink:href="http://emmo.info/emmo/middle/manufacturing#EMMO_e775e341_5687_4d45_b50c_379b098a8c26" xlink:title="System">
<ellipse fill="#ffc880" stroke="#000000" cx="158.9954" cy="-18" rx="37.0935" ry="18"/>
<text text-anchor="middle" x="158.9954" y="-14.3" font-family="Times,serif" font-size="14.00" fill="#000000">System</text>
</a>
</g>
</g>
<!-- System&#45;&gt;Engineered -->
<g id="edge8" class="edge">
<title>System&#45;&gt;Engineered</title>
<path fill="none" stroke="#000000" d="M148.0677,-35.6057C140.3824,-47.9876 129.9655,-64.7703 121.3012,-78.7296"/>
<polygon fill="none" stroke="#000000" points="118.2068,-77.0782 115.9068,-87.4204 124.1543,-80.7698 118.2068,-77.0782"/>
<text text-anchor="middle" x="144.4954" y="-57.8" font-family="Times,serif" font-size="14.00" fill="#000000">isA</text>
</g>
<!-- Process&#45;&gt;Participant -->
<g id="edge7" class="edge">
<title>Process&#45;&gt;Participant</title>
<path fill="none" stroke="#ff0000" d="M392.1658,-201.8652C380.0398,-205.1475 366.0126,-208.3781 353.0199,-210 304.5075,-216.0557 291.6239,-215.2703 243.0199,-210 232.4753,-208.8566 221.2997,-206.9094 210.7033,-204.7077"/>
<polygon fill="#ff0000" stroke="#ff0000" points="211.2773,-201.2506 200.7608,-202.5366 209.7839,-208.0894 211.2773,-201.2506"/>
<text text-anchor="middle" x="298.0199" y="-198.8" font-family="Times,serif" font-size="14.00" fill="#000000">hasParticipant some</text>
</g>
<!-- Process&#45;&gt;Holistic -->
<g id="edge6" class="edge">
<title>Process&#45;&gt;Holistic</title>
<path fill="none" stroke="#000000" d="M401.6034,-206.7584C379.9851,-221.0068 347.0685,-242.7018 322.9484,-258.5992"/>
<polygon fill="none" stroke="#000000" points="320.9207,-255.7437 314.4972,-264.1692 324.7729,-261.5884 320.9207,-255.7437"/>
<text text-anchor="middle" x="374.4954" y="-231.8" font-family="Times,serif" font-size="14.00" fill="#000000">isA</text>
</g>
<!-- Engineered&#45;&gt;Participant -->
<g id="edge5" class="edge">
<title>Engineered&#45;&gt;Participant</title>
<path fill="none" stroke="#000000" d="M116.3278,-122.6057C124.2978,-134.9876 135.1004,-151.7703 144.0857,-165.7296"/>
<polygon fill="none" stroke="#000000" points="141.3243,-167.9062 149.6798,-174.4204 147.2103,-164.1174 141.3243,-167.9062"/>
<text text-anchor="middle" x="145.4954" y="-144.8" font-family="Times,serif" font-size="14.00" fill="#000000">isA</text>
</g>
</g>
</svg>
