<?xml version="1.0" encoding="UTF-8" standalone="no"?>
<!DOCTYPE svg PUBLIC "-//W3C//DTD SVG 1.1//EN"
 "http://www.w3.org/Graphics/SVG/1.1/DTD/svg11.dtd">
<!-- Generated by graphviz version 2.40.1 (20161225.0304)
 -->
<!-- Title: %3 Pages: 1 -->
<svg width="574pt" height="1394pt"
 viewBox="0.00 0.00 574.26 1394.00" xmlns="http://www.w3.org/2000/svg" xmlns:xlink="http://www.w3.org/1999/xlink">
<g id="graph0" class="graph" transform="scale(1 1) rotate(0) translate(4 1390)">
<title>%3</title>
<polygon fill="#ffffff" stroke="transparent" points="-4,4 -4,-1390 570.2595,-1390 570.2595,4 -4,4"/>
<!-- SIBaseUnit -->
<g id="node1" class="node">
<title>SIBaseUnit</title>
<g id="a_node1"><a xlink:href="http://emmo.info/emmo/middle/siunits#EMMO_3a185e6c_9e19_4776_b583_19c978156aa0" xlink:title="SIBaseUnit">
<ellipse fill="#ffffcc" stroke="#000000" stroke-width="2" cx="292.229" cy="-1368" rx="51.1914" ry="18"/>
<text text-anchor="middle" x="292.229" y="-1364.3" font-family="Times,serif" font-size="14.00" fill="#000000">SIBaseUnit</text>
</a>
</g>
</g>
<!-- KindOfUnit -->
<g id="node6" class="node">
<title>KindOfUnit</title>
<g id="a_node6"><a xlink:href="http://emmo.info/emmo/middle/units#EMMO_ba827fd2_91cc_4085_947a_0f47559b4441" xlink:title="KindOfUnit">
<ellipse fill="#ffffcc" stroke="#000000" stroke-width="2" cx="53.2953" cy="-701" rx="53.0913" ry="18"/>
<text text-anchor="middle" x="53.2953" y="-697.3" font-family="Times,serif" font-size="14.00" fill="#000000">KindOfUnit</text>
</a>
</g>
</g>
<!-- SIBaseUnit&#45;&gt;KindOfUnit -->
<g id="edge1" class="edge">
<title>SIBaseUnit&#45;&gt;KindOfUnit</title>
<path fill="none" stroke="#000000" d="M240.878,-1366.0408C215.3511,-1363.0109 185.0331,-1356.1415 161.5905,-1341 138.0672,-1325.8063 134.8225,-1316.0673 124.5905,-1290 83.6028,-1185.5787 60.7506,-832.4599 54.8451,-729.4366"/>
<polygon fill="none" stroke="#000000" points="58.3251,-728.982 54.267,-719.1952 51.3362,-729.3766 58.3251,-728.982"/>
<text text-anchor="middle" x="134.0905" y="-1329.8" font-family="Times,serif" font-size="14.00" fill="#000000">isA</text>
</g>
<!-- Siemens -->
<g id="node2" class="node">
<title>Siemens</title>
<g id="a_node2"><a xlink:href="http://emmo.info/emmo/middle/siunits#EMMO_f2523820_04a6_44ab_bb67_8237dda2b0c2" xlink:title="Siemens">
<ellipse fill="#ffffcc" stroke="#000000" cx="522.0634" cy="-612" rx="40.8928" ry="18"/>
<text text-anchor="middle" x="522.0634" y="-608.3" font-family="Times,serif" font-size="14.00" fill="#000000">Siemens</text>
</a>
</g>
</g>
<!-- ElectricConductanceUnit -->
<g id="node27" class="node">
<title>ElectricConductanceUnit</title>
<g id="a_node27"><a xlink:href="http://emmo.info/emmo/middle/isq#EMMO_636db399_fc4c_4b21_b7a4_e068083eb42d" xlink:title="ElectricConductanceUnit">
<ellipse fill="#ffffcc" stroke="#000000" cx="292.229" cy="-612" rx="99.3824" ry="18"/>
<text text-anchor="middle" x="292.229" y="-608.3" font-family="Times,serif" font-size="14.00" fill="#000000">ElectricConductanceUnit</text>
</a>
</g>
</g>
<!-- Siemens&#45;&gt;ElectricConductanceUnit -->
<g id="edge34" class="edge">
<title>Siemens&#45;&gt;ElectricConductanceUnit</title>
<path fill="none" stroke="#000000" d="M480.9736,-612C458.7794,-612 430.2139,-612 402.0567,-612"/>
<polygon fill="none" stroke="#000000" points="401.714,-608.5001 391.714,-612 401.714,-615.5001 401.714,-608.5001"/>
<text text-anchor="middle" x="450.3674" y="-615.8" font-family="Times,serif" font-size="14.00" fill="#000000">isA</text>
</g>
<!-- ForceUnit -->
<g id="node3" class="node">
<title>ForceUnit</title>
<g id="a_node3"><a xlink:href="http://emmo.info/emmo/middle/isq#EMMO_65f9c4d6_67ee_4f36_88bf_093a17ab5644" xlink:title="ForceUnit">
<ellipse fill="#ffffcc" stroke="#000000" cx="292.229" cy="-1314" rx="46.2923" ry="18"/>
<text text-anchor="middle" x="292.229" y="-1310.3" font-family="Times,serif" font-size="14.00" fill="#000000">ForceUnit</text>
</a>
</g>
</g>
<!-- ForceUnit&#45;&gt;KindOfUnit -->
<g id="edge43" class="edge">
<title>ForceUnit&#45;&gt;KindOfUnit</title>
<path fill="none" stroke="#000000" d="M246.2044,-1312.6262C219.6626,-1309.9389 186.6867,-1303.2096 161.5905,-1287 138.0672,-1271.8063 134.9791,-1262.0053 124.5905,-1236 87.0609,-1142.0531 62.1191,-825.968 55.2304,-729.316"/>
<polygon fill="none" stroke="#000000" points="58.708,-728.8739 54.5146,-719.1443 51.7253,-729.3653 58.708,-728.8739"/>
<text text-anchor="middle" x="134.0905" y="-1274.8" font-family="Times,serif" font-size="14.00" fill="#000000">isA</text>
</g>
<!-- EnergyUnit -->
<g id="node4" class="node">
<title>EnergyUnit</title>
<g id="a_node4"><a xlink:href="http://emmo.info/emmo/middle/isq#EMMO_aa06d425_d3f0_4011_a848_f93fc9d5672f" xlink:title="EnergyUnit">
<ellipse fill="#ffffcc" stroke="#000000" cx="292.229" cy="-1260" rx="51.9908" ry="18"/>
<text text-anchor="middle" x="292.229" y="-1256.3" font-family="Times,serif" font-size="14.00" fill="#000000">EnergyUnit</text>
</a>
</g>
</g>
<!-- EnergyUnit&#45;&gt;KindOfUnit -->
<g id="edge37" class="edge">
<title>EnergyUnit&#45;&gt;KindOfUnit</title>
<path fill="none" stroke="#000000" d="M240.2415,-1257.9645C214.8484,-1254.8963 184.8385,-1248.0159 161.5905,-1233 138.0672,-1217.8063 135.1695,-1207.9284 124.5905,-1182 90.4973,-1098.4397 63.6213,-818.9391 55.6884,-729.0797"/>
<polygon fill="none" stroke="#000000" points="59.1726,-728.7448 54.8157,-719.0873 52.1991,-729.3539 59.1726,-728.7448"/>
<text text-anchor="middle" x="134.0905" y="-1220.8" font-family="Times,serif" font-size="14.00" fill="#000000">isA</text>
</g>
<!-- ElectricalResistanceUnit -->
<g id="node5" class="node">
<title>ElectricalResistanceUnit</title>
<g id="a_node5"><a xlink:href="http://emmo.info/emmo/middle/isq#EMMO_7f559d7e_ebb0_47dc_951d_d55a50b942aa" xlink:title="ElectricalResistanceUnit">
<ellipse fill="#ffffcc" stroke="#000000" cx="292.229" cy="-1206" rx="97.4827" ry="18"/>
<text text-anchor="middle" x="292.229" y="-1202.3" font-family="Times,serif" font-size="14.00" fill="#000000">ElectricalResistanceUnit</text>
</a>
</g>
</g>
<!-- ElectricalResistanceUnit&#45;&gt;KindOfUnit -->
<g id="edge40" class="edge">
<title>ElectricalResistanceUnit&#45;&gt;KindOfUnit</title>
<path fill="none" stroke="#000000" d="M205.7495,-1197.5275C190.238,-1193.4549 174.8195,-1187.5446 161.5905,-1179 138.0672,-1163.8063 135.4062,-1153.8306 124.5905,-1128 94.0006,-1054.9434 65.4552,-812.7581 56.3218,-729.4454"/>
<polygon fill="none" stroke="#000000" points="59.7937,-728.9967 55.2341,-719.4332 52.8346,-729.7528 59.7937,-728.9967"/>
<text text-anchor="middle" x="134.0905" y="-1166.8" font-family="Times,serif" font-size="14.00" fill="#000000">isA</text>
</g>
<!-- Pascal -->
<g id="node7" class="node">
<title>Pascal</title>
<g id="a_node7"><a xlink:href="http://emmo.info/emmo/middle/siunits#EMMO_a80dc6f5_b1aa_41a7_a3a8_cd5040da2162" xlink:title="Pascal">
<ellipse fill="#ffffcc" stroke="#000000" cx="522.0634" cy="-558" rx="33.2948" ry="18"/>
<text text-anchor="middle" x="522.0634" y="-554.3" font-family="Times,serif" font-size="14.00" fill="#000000">Pascal</text>
</a>
</g>
</g>
<!-- PressureUnit -->
<g id="node29" class="node">
<title>PressureUnit</title>
<g id="a_node29"><a xlink:href="http://emmo.info/emmo/middle/isq#EMMO_247f53b1_afec_4373_acd8_ba071b355dfd" xlink:title="PressureUnit">
<ellipse fill="#ffffcc" stroke="#000000" cx="292.229" cy="-558" rx="55.7903" ry="18"/>
<text text-anchor="middle" x="292.229" y="-554.3" font-family="Times,serif" font-size="14.00" fill="#000000">PressureUnit</text>
</a>
</g>
</g>
<!-- Pascal&#45;&gt;PressureUnit -->
<g id="edge33" class="edge">
<title>Pascal&#45;&gt;PressureUnit</title>
<path fill="none" stroke="#000000" d="M488.6435,-558C454.6419,-558 401.0289,-558 358.4006,-558"/>
<polygon fill="none" stroke="#000000" points="358.3759,-554.5001 348.3758,-558 358.3758,-561.5001 358.3759,-554.5001"/>
<text text-anchor="middle" x="450.3674" y="-561.8" font-family="Times,serif" font-size="14.00" fill="#000000">isA</text>
</g>
<!-- Watt -->
<g id="node8" class="node">
<title>Watt</title>
<g id="a_node8"><a xlink:href="http://emmo.info/emmo/middle/siunits#EMMO_080052a1_f295_44be_a60f_1326ce13f1ba" xlink:title="Watt">
<ellipse fill="#ffffcc" stroke="#000000" cx="522.0634" cy="-504" rx="28.6953" ry="18"/>
<text text-anchor="middle" x="522.0634" y="-500.3" font-family="Times,serif" font-size="14.00" fill="#000000">Watt</text>
</a>
</g>
</g>
<!-- PowerUnit -->
<g id="node31" class="node">
<title>PowerUnit</title>
<g id="a_node31"><a xlink:href="http://emmo.info/emmo/middle/isq#EMMO_80527818_8929_47df_b59c_0c56e5259cef" xlink:title="PowerUnit">
<ellipse fill="#ffffcc" stroke="#000000" cx="292.229" cy="-504" rx="48.9926" ry="18"/>
<text text-anchor="middle" x="292.229" y="-500.3" font-family="Times,serif" font-size="14.00" fill="#000000">PowerUnit</text>
</a>
</g>
</g>
<!-- Watt&#45;&gt;PowerUnit -->
<g id="edge17" class="edge">
<title>Watt&#45;&gt;PowerUnit</title>
<path fill="none" stroke="#000000" d="M493.4194,-504C458.0675,-504 397.0455,-504 351.4512,-504"/>
<polygon fill="none" stroke="#000000" points="351.3888,-500.5001 341.3888,-504 351.3888,-507.5001 351.3888,-500.5001"/>
<text text-anchor="middle" x="450.3674" y="-507.8" font-family="Times,serif" font-size="14.00" fill="#000000">isA</text>
</g>
<!-- IlluminanceUnit -->
<g id="node9" class="node">
<title>IlluminanceUnit</title>
<g id="a_node9"><a xlink:href="http://emmo.info/emmo/middle/isq#EMMO_bca0c4de_62cf_4664_911b_00e49acba254" xlink:title="IlluminanceUnit">
<ellipse fill="#ffffcc" stroke="#000000" cx="292.229" cy="-1152" rx="68.7879" ry="18"/>
<text text-anchor="middle" x="292.229" y="-1148.3" font-family="Times,serif" font-size="14.00" fill="#000000">IlluminanceUnit</text>
</a>
</g>
</g>
<!-- IlluminanceUnit&#45;&gt;KindOfUnit -->
<g id="edge41" class="edge">
<title>IlluminanceUnit&#45;&gt;KindOfUnit</title>
<path fill="none" stroke="#000000" d="M225.1474,-1147.7384C203.547,-1143.9464 180.364,-1137.1258 161.5905,-1125 138.0672,-1109.8063 135.7079,-1099.7022 124.5905,-1074 72.2601,-953.018 58.1825,-793.4976 54.5263,-729.4276"/>
<polygon fill="none" stroke="#000000" points="58.0137,-729.0938 53.991,-719.2923 51.0234,-729.463 58.0137,-729.0938"/>
<text text-anchor="middle" x="134.0905" y="-1112.8" font-family="Times,serif" font-size="14.00" fill="#000000">isA</text>
</g>
<!-- ThermodynamicTemperatureUnit -->
<g id="node10" class="node">
<title>ThermodynamicTemperatureUnit</title>
<g id="a_node10"><a xlink:href="http://emmo.info/emmo/middle/isq#EMMO_f460af7c_9134_4b2f_8450_d54918a08f34" xlink:title="ThermodynamicTemperatureUnit">
<ellipse fill="#ffc880" stroke="#000000" cx="292.229" cy="-1098" rx="130.777" ry="18"/>
<text text-anchor="middle" x="292.229" y="-1094.3" font-family="Times,serif" font-size="14.00" fill="#000000">ThermodynamicTemperatureUnit</text>
</a>
</g>
</g>
<!-- ThermodynamicTemperatureUnit&#45;&gt;KindOfUnit -->
<g id="edge42" class="edge">
<title>ThermodynamicTemperatureUnit&#45;&gt;KindOfUnit</title>
<path fill="none" stroke="#000000" d="M193.324,-1086.1455C182.0912,-1082.3511 171.2323,-1077.4131 161.5905,-1071 137.3664,-1054.8876 136.2223,-1043.6669 124.5905,-1017 80.7585,-916.511 62.3404,-785.8322 56.0478,-729.2081"/>
<polygon fill="none" stroke="#000000" points="59.5222,-728.7819 54.9787,-719.2108 52.5619,-729.5263 59.5222,-728.7819"/>
<text text-anchor="middle" x="134.0905" y="-1058.8" font-family="Times,serif" font-size="14.00" fill="#000000">isA</text>
</g>
<!-- FrequencyUnit -->
<g id="node11" class="node">
<title>FrequencyUnit</title>
<g id="a_node11"><a xlink:href="http://emmo.info/emmo/middle/isq#EMMO_12c39388_9f81_4908_98a9_9fe5f78ae468" xlink:title="FrequencyUnit">
<ellipse fill="#ffffcc" stroke="#000000" cx="292.229" cy="-1044" rx="63.8893" ry="18"/>
<text text-anchor="middle" x="292.229" y="-1040.3" font-family="Times,serif" font-size="14.00" fill="#000000">FrequencyUnit</text>
</a>
</g>
</g>
<!-- FrequencyUnit&#45;&gt;KindOfUnit -->
<g id="edge7" class="edge">
<title>FrequencyUnit&#45;&gt;KindOfUnit</title>
<path fill="none" stroke="#000000" d="M229.3003,-1040.7519C206.4797,-1037.1621 181.4526,-1030.211 161.5905,-1017 111.9866,-984.0064 72.2503,-800.4389 58.4924,-729.2349"/>
<polygon fill="none" stroke="#000000" points="61.8893,-728.3623 56.5812,-719.1931 55.0127,-729.6711 61.8893,-728.3623"/>
<text text-anchor="middle" x="134.0905" y="-1001.8" font-family="Times,serif" font-size="14.00" fill="#000000">isA</text>
</g>
<!-- ElectricPotentialUnit -->
<g id="node12" class="node">
<title>ElectricPotentialUnit</title>
<g id="a_node12"><a xlink:href="http://emmo.info/emmo/middle/isq#EMMO_ef52f94e_e50d_4149_8d95_0e2960bf85a3" xlink:title="ElectricPotentialUnit">
<ellipse fill="#ffffcc" stroke="#000000" cx="292.229" cy="-990" rx="85.2851" ry="18"/>
<text text-anchor="middle" x="292.229" y="-986.3" font-family="Times,serif" font-size="14.00" fill="#000000">ElectricPotentialUnit</text>
</a>
</g>
</g>
<!-- ElectricPotentialUnit&#45;&gt;KindOfUnit -->
<g id="edge9" class="edge">
<title>ElectricPotentialUnit&#45;&gt;KindOfUnit</title>
<path fill="none" stroke="#000000" d="M212.9338,-983.2856C195.0518,-979.2173 176.8622,-972.864 161.5905,-963 80.8011,-910.8181 60.2491,-785.6472 55.0461,-729.3161"/>
<polygon fill="none" stroke="#000000" points="58.5319,-728.9979 54.2194,-719.3205 51.5557,-729.575 58.5319,-728.9979"/>
<text text-anchor="middle" x="134.0905" y="-947.8" font-family="Times,serif" font-size="14.00" fill="#000000">isA</text>
</g>
<!-- LengthUnit -->
<g id="node13" class="node">
<title>LengthUnit</title>
<g id="a_node13"><a xlink:href="http://emmo.info/emmo/middle/isq#EMMO_0fa49646_0fe0_4253_999c_bb834019844f" xlink:title="LengthUnit">
<ellipse fill="#ffc880" stroke="#000000" cx="292.229" cy="-936" rx="51.1914" ry="18"/>
<text text-anchor="middle" x="292.229" y="-932.3" font-family="Times,serif" font-size="14.00" fill="#000000">LengthUnit</text>
</a>
</g>
</g>
<!-- LengthUnit&#45;&gt;KindOfUnit -->
<g id="edge18" class="edge">
<title>LengthUnit&#45;&gt;KindOfUnit</title>
<path fill="none" stroke="#000000" d="M240.878,-934.0408C215.3511,-931.0109 185.0331,-924.1415 161.5905,-909 97.6595,-867.7069 69.3503,-775.808 58.729,-729.2298"/>
<polygon fill="none" stroke="#000000" points="62.0976,-728.2482 56.5604,-719.2155 55.2562,-729.7297 62.0976,-728.2482"/>
<text text-anchor="middle" x="134.0905" y="-896.8" font-family="Times,serif" font-size="14.00" fill="#000000">isA</text>
</g>
<!-- Katal -->
<g id="node14" class="node">
<title>Katal</title>
<g id="a_node14"><a xlink:href="http://emmo.info/emmo/middle/siunits#EMMO_33b67e69_3645_4c73_b100_5ea6759221b4" xlink:title="Katal">
<ellipse fill="#ffffcc" stroke="#000000" cx="522.0634" cy="-288" rx="29.795" ry="18"/>
<text text-anchor="middle" x="522.0634" y="-284.3" font-family="Times,serif" font-size="14.00" fill="#000000">Katal</text>
</a>
</g>
</g>
<!-- CataliticActivityUnit -->
<g id="node38" class="node">
<title>CataliticActivityUnit</title>
<g id="a_node38"><a xlink:href="http://emmo.info/emmo/middle/isq#EMMO_b5773f1e_2d8d_428b_b8a2_cf463be6f1ae" xlink:title="CataliticActivityUnit">
<ellipse fill="#ffffcc" stroke="#000000" cx="292.229" cy="-288" rx="85.2851" ry="18"/>
<text text-anchor="middle" x="292.229" y="-284.3" font-family="Times,serif" font-size="14.00" fill="#000000">CataliticActivityUnit</text>
</a>
</g>
</g>
<!-- Katal&#45;&gt;CataliticActivityUnit -->
<g id="edge15" class="edge">
<title>Katal&#45;&gt;CataliticActivityUnit</title>
<path fill="none" stroke="#000000" d="M492.0166,-288C465.4902,-288 425.3324,-288 387.9605,-288"/>
<polygon fill="none" stroke="#000000" points="387.5072,-284.5001 377.5072,-288 387.5071,-291.5001 387.5072,-284.5001"/>
<text text-anchor="middle" x="450.3674" y="-291.8" font-family="Times,serif" font-size="14.00" fill="#000000">isA</text>
</g>
<!-- AmountOfSubstanceUnit -->
<g id="node15" class="node">
<title>AmountOfSubstanceUnit</title>
<g id="a_node15"><a xlink:href="http://emmo.info/emmo/middle/isq#EMMO_32fb2db4_94f4_49b8_a374_ee5aa28a113e" xlink:title="AmountOfSubstanceUnit">
<ellipse fill="#ffc880" stroke="#000000" cx="292.229" cy="-882" rx="100.9827" ry="18"/>
<text text-anchor="middle" x="292.229" y="-878.3" font-family="Times,serif" font-size="14.00" fill="#000000">AmountOfSubstanceUnit</text>
</a>
</g>
</g>
<!-- AmountOfSubstanceUnit&#45;&gt;KindOfUnit -->
<g id="edge11" class="edge">
<title>AmountOfSubstanceUnit&#45;&gt;KindOfUnit</title>
<path fill="none" stroke="#000000" d="M204.9205,-872.9447C189.7367,-868.9132 174.6478,-863.1672 161.5905,-855 113.0849,-824.6602 80.2806,-763.8112 64.3835,-728.3598"/>
<polygon fill="none" stroke="#000000" points="67.5461,-726.8557 60.349,-719.0806 61.1266,-729.6469 67.5461,-726.8557"/>
<text text-anchor="middle" x="134.0905" y="-842.8" font-family="Times,serif" font-size="14.00" fill="#000000">isA</text>
</g>
<!-- Coulomb -->
<g id="node16" class="node">
<title>Coulomb</title>
<g id="a_node16"><a xlink:href="http://emmo.info/emmo/middle/siunits#EMMO_696ed548_9477_45ea_993c_6a8f5271914a" xlink:title="Coulomb">
<ellipse fill="#ffffcc" stroke="#000000" cx="522.0634" cy="-180" rx="44.393" ry="18"/>
<text text-anchor="middle" x="522.0634" y="-176.3" font-family="Times,serif" font-size="14.00" fill="#000000">Coulomb</text>
</a>
</g>
</g>
<!-- ElectricChargeUnit -->
<g id="node41" class="node">
<title>ElectricChargeUnit</title>
<g id="a_node41"><a xlink:href="http://emmo.info/emmo/middle/isq#EMMO_797ad1c0_0197_4020_8c9a_4f808e5c5d42" xlink:title="ElectricChargeUnit">
<ellipse fill="#ffffcc" stroke="#000000" cx="292.229" cy="-180" rx="79.0865" ry="18"/>
<text text-anchor="middle" x="292.229" y="-176.3" font-family="Times,serif" font-size="14.00" fill="#000000">ElectricChargeUnit</text>
</a>
</g>
</g>
<!-- Coulomb&#45;&gt;ElectricChargeUnit -->
<g id="edge31" class="edge">
<title>Coulomb&#45;&gt;ElectricChargeUnit</title>
<path fill="none" stroke="#000000" d="M477.749,-180C450.5597,-180 414.7611,-180 381.8693,-180"/>
<polygon fill="none" stroke="#000000" points="381.7676,-176.5001 371.7675,-180 381.7675,-183.5001 381.7676,-176.5001"/>
<text text-anchor="middle" x="450.3674" y="-183.8" font-family="Times,serif" font-size="14.00" fill="#000000">isA</text>
</g>
<!-- LuminousIntensityUnit -->
<g id="node17" class="node">
<title>LuminousIntensityUnit</title>
<g id="a_node17"><a xlink:href="http://emmo.info/emmo/middle/isq#EMMO_b120c538_6320_470c_b9bd_c8d088694973" xlink:title="LuminousIntensityUnit">
<ellipse fill="#ffc880" stroke="#000000" cx="292.229" cy="-828" rx="92.8835" ry="18"/>
<text text-anchor="middle" x="292.229" y="-824.3" font-family="Times,serif" font-size="14.00" fill="#000000">LuminousIntensityUnit</text>
</a>
</g>
</g>
<!-- LuminousIntensityUnit&#45;&gt;KindOfUnit -->
<g id="edge4" class="edge">
<title>LuminousIntensityUnit&#45;&gt;KindOfUnit</title>
<path fill="none" stroke="#000000" d="M212.5145,-818.6581C195.1193,-814.693 177.2457,-809.0451 161.5905,-801 125.9593,-782.6893 93.4102,-749.3797 73.4973,-726.2616"/>
<polygon fill="none" stroke="#000000" points="76.1182,-723.9403 66.9966,-718.5508 70.7663,-728.4523 76.1182,-723.9403"/>
<text text-anchor="middle" x="134.0905" y="-791.8" font-family="Times,serif" font-size="14.00" fill="#000000">isA</text>
</g>
<!-- Lumen -->
<g id="node18" class="node">
<title>Lumen</title>
<g id="a_node18"><a xlink:href="http://emmo.info/emmo/middle/siunits#EMMO_d7b7fd1e_645a_42cb_8f40_85f0d034d3ae" xlink:title="Lumen">
<ellipse fill="#ffffcc" stroke="#000000" cx="522.0634" cy="-126" rx="36.2938" ry="18"/>
<text text-anchor="middle" x="522.0634" y="-122.3" font-family="Times,serif" font-size="14.00" fill="#000000">Lumen</text>
</a>
</g>
</g>
<!-- LuminousFluxUnit -->
<g id="node42" class="node">
<title>LuminousFluxUnit</title>
<g id="a_node42"><a xlink:href="http://emmo.info/emmo/middle/isq#EMMO_0aa9cd85_a008_4f6a_b94b_585e54c18799" xlink:title="LuminousFluxUnit">
<ellipse fill="#ffffcc" stroke="#000000" cx="292.229" cy="-126" rx="78.7863" ry="18"/>
<text text-anchor="middle" x="292.229" y="-122.3" font-family="Times,serif" font-size="14.00" fill="#000000">LuminousFluxUnit</text>
</a>
</g>
</g>
<!-- Lumen&#45;&gt;LuminousFluxUnit -->
<g id="edge36" class="edge">
<title>Lumen&#45;&gt;LuminousFluxUnit</title>
<path fill="none" stroke="#000000" d="M485.6455,-126C457.6464,-126 417.7382,-126 381.4375,-126"/>
<polygon fill="none" stroke="#000000" points="381.3074,-122.5001 371.3074,-126 381.3073,-129.5001 381.3074,-122.5001"/>
<text text-anchor="middle" x="450.3674" y="-129.8" font-family="Times,serif" font-size="14.00" fill="#000000">isA</text>
</g>
<!-- Henry -->
<g id="node19" class="node">
<title>Henry</title>
<g id="a_node19"><a xlink:href="http://emmo.info/emmo/middle/siunits#EMMO_fab003c8_f7a6_4346_9988_7161325ed7a3" xlink:title="Henry">
<ellipse fill="#ffffcc" stroke="#000000" cx="522.0634" cy="-18" rx="32.4942" ry="18"/>
<text text-anchor="middle" x="522.0634" y="-14.3" font-family="Times,serif" font-size="14.00" fill="#000000">Henry</text>
</a>
</g>
</g>
<!-- ElectricalInductanceUnit -->
<g id="node44" class="node">
<title>ElectricalInductanceUnit</title>
<g id="a_node44"><a xlink:href="http://emmo.info/emmo/middle/isq#EMMO_244d0ad2_7392_41f3_af1f_c7f1a7ae8832" xlink:title="ElectricalInductanceUnit">
<ellipse fill="#ffffcc" stroke="#000000" cx="292.229" cy="-18" rx="98.5829" ry="18"/>
<text text-anchor="middle" x="292.229" y="-14.3" font-family="Times,serif" font-size="14.00" fill="#000000">ElectricalInductanceUnit</text>
</a>
</g>
</g>
<!-- Henry&#45;&gt;ElectricalInductanceUnit -->
<g id="edge24" class="edge">
<title>Henry&#45;&gt;ElectricalInductanceUnit</title>
<path fill="none" stroke="#000000" d="M489.1338,-18C465.9493,-18 433.4749,-18 401.5744,-18"/>
<polygon fill="none" stroke="#000000" points="401.2498,-14.5001 391.2497,-18 401.2497,-21.5001 401.2498,-14.5001"/>
<text text-anchor="middle" x="450.3674" y="-21.8" font-family="Times,serif" font-size="14.00" fill="#000000">isA</text>
</g>
<!-- Tesla -->
<g id="node20" class="node">
<title>Tesla</title>
<g id="a_node20"><a xlink:href="http://emmo.info/emmo/middle/siunits#EMMO_acb50123_87a2_4753_b36c_f87114ad4de2" xlink:title="Tesla">
<ellipse fill="#ffffcc" stroke="#000000" cx="522.0634" cy="-450" rx="29.795" ry="18"/>
<text text-anchor="middle" x="522.0634" y="-446.3" font-family="Times,serif" font-size="14.00" fill="#000000">Tesla</text>
</a>
</g>
</g>
<!-- MagneticFluxDensityUnit -->
<g id="node33" class="node">
<title>MagneticFluxDensityUnit</title>
<g id="a_node33"><a xlink:href="http://emmo.info/emmo/middle/isq#EMMO_fd2aec9a_9d61_4a06_82d0_1c98b588ce4b" xlink:title="MagneticFluxDensityUnit">
<ellipse fill="#ffffcc" stroke="#000000" cx="292.229" cy="-450" rx="103.1819" ry="18"/>
<text text-anchor="middle" x="292.229" y="-446.3" font-family="Times,serif" font-size="14.00" fill="#000000">MagneticFluxDensityUnit</text>
</a>
</g>
</g>
<!-- Tesla&#45;&gt;MagneticFluxDensityUnit -->
<g id="edge44" class="edge">
<title>Tesla&#45;&gt;MagneticFluxDensityUnit</title>
<path fill="none" stroke="#000000" d="M492.0166,-450C469.728,-450 437.8156,-450 406.0183,-450"/>
<polygon fill="none" stroke="#000000" points="405.711,-446.5001 395.7109,-450 405.7109,-453.5001 405.711,-446.5001"/>
<text text-anchor="middle" x="450.3674" y="-453.8" font-family="Times,serif" font-size="14.00" fill="#000000">isA</text>
</g>
<!-- ElectricCurrentUnit -->
<g id="node21" class="node">
<title>ElectricCurrentUnit</title>
<g id="a_node21"><a xlink:href="http://emmo.info/emmo/middle/isq#EMMO_24e3e31f_f233_4685_a19c_6f3ce0a3c477" xlink:title="ElectricCurrentUnit">
<ellipse fill="#ffc880" stroke="#000000" cx="292.229" cy="-774" rx="80.6858" ry="18"/>
<text text-anchor="middle" x="292.229" y="-770.3" font-family="Times,serif" font-size="14.00" fill="#000000">ElectricCurrentUnit</text>
</a>
</g>
</g>
<!-- ElectricCurrentUnit&#45;&gt;KindOfUnit -->
<g id="edge19" class="edge">
<title>ElectricCurrentUnit&#45;&gt;KindOfUnit</title>
<path fill="none" stroke="#000000" d="M227.4619,-763.2446C206.2427,-759.0257 182.7021,-753.594 161.5905,-747 138.3619,-739.7447 113.3,-729.2803 93.1417,-720.1647"/>
<polygon fill="none" stroke="#000000" points="94.5086,-716.9411 83.9599,-715.9534 91.5902,-723.3038 94.5086,-716.9411"/>
<text text-anchor="middle" x="134.0905" y="-743.8" font-family="Times,serif" font-size="14.00" fill="#000000">isA</text>
</g>
<!-- Newton -->
<g id="node22" class="node">
<title>Newton</title>
<g id="a_node22"><a xlink:href="http://emmo.info/emmo/middle/siunits#EMMO_a979c531_f9fa_4a6e_93c1.0.0-alpha960241ca6" xlink:title="Newton">
<ellipse fill="#ffffcc" stroke="#000000" cx="522.0634" cy="-1314" rx="38.1938" ry="18"/>
<text text-anchor="middle" x="522.0634" y="-1310.3" font-family="Times,serif" font-size="14.00" fill="#000000">Newton</text>
</a>
</g>
</g>
<!-- Newton&#45;&gt;ForceUnit -->
<g id="edge21" class="edge">
<title>Newton&#45;&gt;ForceUnit</title>
<path fill="none" stroke="#000000" d="M483.5943,-1314C446.761,-1314 390.7511,-1314 348.8291,-1314"/>
<polygon fill="none" stroke="#000000" points="348.7654,-1310.5001 338.7653,-1314 348.7653,-1317.5001 348.7654,-1310.5001"/>
<text text-anchor="middle" x="450.3674" y="-1317.8" font-family="Times,serif" font-size="14.00" fill="#000000">isA</text>
</g>
<!-- Joule -->
<g id="node23" class="node">
<title>Joule</title>
<g id="a_node23"><a xlink:href="http://emmo.info/emmo/middle/siunits#EMMO_8a70dea4_d6ab_4260_b931_a3e990982416" xlink:title="Joule">
<ellipse fill="#ffffcc" stroke="#000000" cx="522.0634" cy="-1260" rx="29.4969" ry="18"/>
<text text-anchor="middle" x="522.0634" y="-1256.3" font-family="Times,serif" font-size="14.00" fill="#000000">Joule</text>
</a>
</g>
</g>
<!-- Joule&#45;&gt;EnergyUnit -->
<g id="edge2" class="edge">
<title>Joule&#45;&gt;EnergyUnit</title>
<path fill="none" stroke="#000000" d="M492.4871,-1260C457.8439,-1260 399.4954,-1260 354.6911,-1260"/>
<polygon fill="none" stroke="#000000" points="354.4853,-1256.5001 344.4852,-1260 354.4852,-1263.5001 354.4853,-1256.5001"/>
<text text-anchor="middle" x="450.3674" y="-1263.8" font-family="Times,serif" font-size="14.00" fill="#000000">isA</text>
</g>
<!-- ElectricalCapacitanceUnit -->
<g id="node24" class="node">
<title>ElectricalCapacitanceUnit</title>
<g id="a_node24"><a xlink:href="http://emmo.info/emmo/middle/isq#EMMO_588bee30_05aa_4029_9f13_97fe20188030" xlink:title="ElectricalCapacitanceUnit">
<ellipse fill="#ffffcc" stroke="#000000" cx="292.229" cy="-720" rx="102.8821" ry="18"/>
<text text-anchor="middle" x="292.229" y="-716.3" font-family="Times,serif" font-size="14.00" fill="#000000">ElectricalCapacitanceUnit</text>
</a>
</g>
</g>
<!-- ElectricalCapacitanceUnit&#45;&gt;KindOfUnit -->
<g id="edge22" class="edge">
<title>ElectricalCapacitanceUnit&#45;&gt;KindOfUnit</title>
<path fill="none" stroke="#000000" d="M198.4818,-712.5452C170.6741,-710.334 140.9148,-707.9675 115.6241,-705.9564"/>
<polygon fill="none" stroke="#000000" points="115.688,-702.4505 105.4419,-705.1467 115.133,-709.4285 115.688,-702.4505"/>
<text text-anchor="middle" x="134.0905" y="-710.8" font-family="Times,serif" font-size="14.00" fill="#000000">isA</text>
</g>
<!-- Ohm -->
<g id="node25" class="node">
<title>Ohm</title>
<g id="a_node25"><a xlink:href="http://emmo.info/emmo/middle/siunits#EMMO_59c10c5c_47bd_4348_ba39_38836607dfa1" xlink:title="Ohm">
<ellipse fill="#ffffcc" stroke="#000000" cx="522.0634" cy="-1206" rx="28.6953" ry="18"/>
<text text-anchor="middle" x="522.0634" y="-1202.3" font-family="Times,serif" font-size="14.00" fill="#000000">Ohm</text>
</a>
</g>
</g>
<!-- Ohm&#45;&gt;ElectricalResistanceUnit -->
<g id="edge14" class="edge">
<title>Ohm&#45;&gt;ElectricalResistanceUnit</title>
<path fill="none" stroke="#000000" d="M493.4194,-1206C469.7077,-1206 434.4475,-1206 400.04,-1206"/>
<polygon fill="none" stroke="#000000" points="399.8876,-1202.5001 389.8876,-1206 399.8875,-1209.5001 399.8876,-1202.5001"/>
<text text-anchor="middle" x="450.3674" y="-1209.8" font-family="Times,serif" font-size="14.00" fill="#000000">isA</text>
</g>
<!-- AbsorbedDoseUnit -->
<g id="node26" class="node">
<title>AbsorbedDoseUnit</title>
<g id="a_node26"><a xlink:href="http://emmo.info/emmo/middle/isq#EMMO_882966a9_1757_4384_b223_0f690d7906c8" xlink:title="AbsorbedDoseUnit">
<ellipse fill="#ffffcc" stroke="#000000" cx="292.229" cy="-666" rx="78.7863" ry="18"/>
<text text-anchor="middle" x="292.229" y="-662.3" font-family="Times,serif" font-size="14.00" fill="#000000">AbsorbedDoseUnit</text>
</a>
</g>
</g>
<!-- AbsorbedDoseUnit&#45;&gt;KindOfUnit -->
<g id="edge5" class="edge">
<title>AbsorbedDoseUnit&#45;&gt;KindOfUnit</title>
<path fill="none" stroke="#000000" d="M222.3817,-674.376C192.2495,-678.1936 156.6351,-682.979 124.5905,-688 119.8671,-688.7401 114.9751,-689.5469 110.0685,-690.3844"/>
<polygon fill="none" stroke="#000000" points="109.2766,-686.9695 100.0262,-692.1347 110.4787,-693.8656 109.2766,-686.9695"/>
<text text-anchor="middle" x="134.0905" y="-691.8" font-family="Times,serif" font-size="14.00" fill="#000000">isA</text>
</g>
<!-- ElectricConductanceUnit&#45;&gt;KindOfUnit -->
<g id="edge23" class="edge">
<title>ElectricConductanceUnit&#45;&gt;KindOfUnit</title>
<path fill="none" stroke="#000000" d="M215.7739,-623.5837C197.6927,-627.4716 178.7016,-632.5225 161.5905,-639 134.4657,-649.2682 106.0946,-665.7524 85.1986,-679.1432"/>
<polygon fill="none" stroke="#000000" points="83.1926,-676.2729 76.7263,-684.6656 87.015,-682.1371 83.1926,-676.2729"/>
<text text-anchor="middle" x="134.0905" y="-657.8" font-family="Times,serif" font-size="14.00" fill="#000000">isA</text>
</g>
<!-- Lux -->
<g id="node28" class="node">
<title>Lux</title>
<g id="a_node28"><a xlink:href="http://emmo.info/emmo/middle/siunits#EMMO_da1dd4a7_c611_4ad4_bef6_7646f28aa598" xlink:title="Lux">
<ellipse fill="#ffffcc" stroke="#000000" cx="522.0634" cy="-1152" rx="27" ry="18"/>
<text text-anchor="middle" x="522.0634" y="-1148.3" font-family="Times,serif" font-size="14.00" fill="#000000">Lux</text>
</a>
</g>
</g>
<!-- Lux&#45;&gt;IlluminanceUnit -->
<g id="edge25" class="edge">
<title>Lux&#45;&gt;IlluminanceUnit</title>
<path fill="none" stroke="#000000" d="M494.7959,-1152C464.5232,-1152 414.271,-1152 371.3939,-1152"/>
<polygon fill="none" stroke="#000000" points="371.238,-1148.5001 361.238,-1152 371.238,-1155.5001 371.238,-1148.5001"/>
<text text-anchor="middle" x="450.3674" y="-1155.8" font-family="Times,serif" font-size="14.00" fill="#000000">isA</text>
</g>
<!-- PressureUnit&#45;&gt;KindOfUnit -->
<g id="edge26" class="edge">
<title>PressureUnit&#45;&gt;KindOfUnit</title>
<path fill="none" stroke="#000000" d="M237.4837,-561.7715C213.0336,-565.302 184.6098,-572.0704 161.5905,-585 122.528,-606.9409 89.3942,-647.8141 70.4191,-674.7137"/>
<polygon fill="none" stroke="#000000" points="67.3278,-673.0318 64.5388,-683.253 73.093,-677.002 67.3278,-673.0318"/>
<text text-anchor="middle" x="134.0905" y="-613.8" font-family="Times,serif" font-size="14.00" fill="#000000">isA</text>
</g>
<!-- Hertz -->
<g id="node30" class="node">
<title>Hertz</title>
<g id="a_node30"><a xlink:href="http://emmo.info/emmo/middle/siunits#EMMO_e75f580e_52bf_4dd5_af70_df409cec08fd" xlink:title="Hertz">
<ellipse fill="#ffffcc" stroke="#000000" cx="522.0634" cy="-1044" rx="30.5947" ry="18"/>
<text text-anchor="middle" x="522.0634" y="-1040.3" font-family="Times,serif" font-size="14.00" fill="#000000">Hertz</text>
</a>
</g>
</g>
<!-- Hertz&#45;&gt;FrequencyUnit -->
<g id="edge13" class="edge">
<title>Hertz&#45;&gt;FrequencyUnit</title>
<path fill="none" stroke="#000000" d="M491.0669,-1044C459.2589,-1044 408.5899,-1044 366.3629,-1044"/>
<polygon fill="none" stroke="#000000" points="366.1052,-1040.5001 356.1052,-1044 366.1051,-1047.5001 366.1052,-1040.5001"/>
<text text-anchor="middle" x="450.3674" y="-1047.8" font-family="Times,serif" font-size="14.00" fill="#000000">isA</text>
</g>
<!-- PowerUnit&#45;&gt;KindOfUnit -->
<g id="edge20" class="edge">
<title>PowerUnit&#45;&gt;KindOfUnit</title>
<path fill="none" stroke="#000000" d="M243.5214,-505.854C217.5241,-508.7809 185.9598,-515.5882 161.5905,-531 108.6494,-564.4815 76.7961,-634.258 62.4244,-673.202"/>
<polygon fill="none" stroke="#000000" points="59.0443,-672.2611 58.9878,-682.8558 65.6389,-674.6087 59.0443,-672.2611"/>
<text text-anchor="middle" x="134.0905" y="-565.8" font-family="Times,serif" font-size="14.00" fill="#000000">isA</text>
</g>
<!-- Weber -->
<g id="node32" class="node">
<title>Weber</title>
<g id="a_node32"><a xlink:href="http://emmo.info/emmo/middle/siunits#EMMO_d7f11b34_a121_4519_87c0_aa754f1c4737" xlink:title="Weber">
<ellipse fill="#ffffcc" stroke="#000000" cx="522.0634" cy="-396" rx="34.394" ry="18"/>
<text text-anchor="middle" x="522.0634" y="-392.3" font-family="Times,serif" font-size="14.00" fill="#000000">Weber</text>
</a>
</g>
</g>
<!-- MagneticFluxUnit -->
<g id="node36" class="node">
<title>MagneticFluxUnit</title>
<g id="a_node36"><a xlink:href="http://emmo.info/emmo/middle/isq#EMMO_e06e0563_8014_42a1_be32_f2717a62b15f" xlink:title="MagneticFluxUnit">
<ellipse fill="#ffffcc" stroke="#000000" cx="292.229" cy="-396" rx="76.0865" ry="18"/>
<text text-anchor="middle" x="292.229" y="-392.3" font-family="Times,serif" font-size="14.00" fill="#000000">MagneticFluxUnit</text>
</a>
</g>
</g>
<!-- Weber&#45;&gt;MagneticFluxUnit -->
<g id="edge29" class="edge">
<title>Weber&#45;&gt;MagneticFluxUnit</title>
<path fill="none" stroke="#000000" d="M487.1565,-396C458.4602,-396 416.5495,-396 378.9365,-396"/>
<polygon fill="none" stroke="#000000" points="378.4563,-392.5001 368.4562,-396 378.4562,-399.5001 378.4563,-392.5001"/>
<text text-anchor="middle" x="450.3674" y="-399.8" font-family="Times,serif" font-size="14.00" fill="#000000">isA</text>
</g>
<!-- MagneticFluxDensityUnit&#45;&gt;KindOfUnit -->
<g id="edge3" class="edge">
<title>MagneticFluxDensityUnit&#45;&gt;KindOfUnit</title>
<path fill="none" stroke="#000000" d="M203.0135,-459.2104C188.4317,-463.2495 174.0414,-468.958 161.5905,-477 92.6299,-521.5417 66.3742,-623.4075 57.4234,-672.9329"/>
<polygon fill="none" stroke="#000000" points="53.9467,-672.501 55.7225,-682.946 60.8478,-673.6733 53.9467,-672.501"/>
<text text-anchor="middle" x="134.0905" y="-510.8" font-family="Times,serif" font-size="14.00" fill="#000000">isA</text>
</g>
<!-- Volt -->
<g id="node34" class="node">
<title>Volt</title>
<g id="a_node34"><a xlink:href="http://emmo.info/emmo/middle/siunits#EMMO_e2207e91_02b0_4a8a_b13e_61d2a2a839f1" xlink:title="Volt">
<ellipse fill="#ffffcc" stroke="#000000" cx="522.0634" cy="-990" rx="27" ry="18"/>
<text text-anchor="middle" x="522.0634" y="-986.3" font-family="Times,serif" font-size="14.00" fill="#000000">Volt</text>
</a>
</g>
</g>
<!-- Volt&#45;&gt;ElectricPotentialUnit -->
<g id="edge32" class="edge">
<title>Volt&#45;&gt;ElectricPotentialUnit</title>
<path fill="none" stroke="#000000" d="M494.7959,-990C468.3261,-990 426.5814,-990 387.8479,-990"/>
<polygon fill="none" stroke="#000000" points="387.5493,-986.5001 377.5493,-990 387.5492,-993.5001 387.5493,-986.5001"/>
<text text-anchor="middle" x="450.3674" y="-993.8" font-family="Times,serif" font-size="14.00" fill="#000000">isA</text>
</g>
<!-- Gray -->
<g id="node35" class="node">
<title>Gray</title>
<g id="a_node35"><a xlink:href="http://emmo.info/emmo/middle/siunits#EMMO_00199e76_69dc_45b6_a9c6_98cc90cdc0f5" xlink:title="Gray">
<ellipse fill="#ffffcc" stroke="#000000" cx="522.0634" cy="-666" rx="28.6953" ry="18"/>
<text text-anchor="middle" x="522.0634" y="-662.3" font-family="Times,serif" font-size="14.00" fill="#000000">Gray</text>
</a>
</g>
</g>
<!-- Gray&#45;&gt;AbsorbedDoseUnit -->
<g id="edge10" class="edge">
<title>Gray&#45;&gt;AbsorbedDoseUnit</title>
<path fill="none" stroke="#000000" d="M493.4194,-666C465.2979,-666 420.9329,-666 381.0113,-666"/>
<polygon fill="none" stroke="#000000" points="380.9702,-662.5001 370.9701,-666 380.9701,-669.5001 380.9702,-662.5001"/>
<text text-anchor="middle" x="450.3674" y="-669.8" font-family="Times,serif" font-size="14.00" fill="#000000">isA</text>
</g>
<!-- MagneticFluxUnit&#45;&gt;KindOfUnit -->
<g id="edge8" class="edge">
<title>MagneticFluxUnit&#45;&gt;KindOfUnit</title>
<path fill="none" stroke="#000000" d="M219.4068,-401.3356C199.4971,-405.2963 178.7104,-411.9423 161.5905,-423 138.0672,-438.1937 137.1724,-448.9821 124.5905,-474 90.5565,-541.674 68.6981,-628.8739 59.0356,-672.9006"/>
<polygon fill="none" stroke="#000000" points="55.5712,-672.3634 56.8942,-682.8753 62.4153,-673.8327 55.5712,-672.3634"/>
<text text-anchor="middle" x="134.0905" y="-477.8" font-family="Times,serif" font-size="14.00" fill="#000000">isA</text>
</g>
<!-- EquivalentDoseUnit -->
<g id="node37" class="node">
<title>EquivalentDoseUnit</title>
<g id="a_node37"><a xlink:href="http://emmo.info/emmo/middle/isq#EMMO_606db3fb_6f05_483c_87da_673afdd64a17" xlink:title="EquivalentDoseUnit">
<ellipse fill="#ffffcc" stroke="#000000" cx="292.229" cy="-342" rx="82.5854" ry="18"/>
<text text-anchor="middle" x="292.229" y="-338.3" font-family="Times,serif" font-size="14.00" fill="#000000">EquivalentDoseUnit</text>
</a>
</g>
</g>
<!-- EquivalentDoseUnit&#45;&gt;KindOfUnit -->
<g id="edge16" class="edge">
<title>EquivalentDoseUnit&#45;&gt;KindOfUnit</title>
<path fill="none" stroke="#000000" d="M214.7084,-348.4371C196.2788,-352.4834 177.3965,-358.8964 161.5905,-369 138.2978,-383.8894 136.4244,-394.0159 124.5905,-419 83.3198,-506.1323 63.9533,-620.1467 56.7738,-672.4849"/>
<polygon fill="none" stroke="#000000" points="53.2662,-672.3124 55.4233,-682.6853 60.2056,-673.2312 53.2662,-672.3124"/>
<text text-anchor="middle" x="134.0905" y="-422.8" font-family="Times,serif" font-size="14.00" fill="#000000">isA</text>
</g>
<!-- CataliticActivityUnit&#45;&gt;KindOfUnit -->
<g id="edge27" class="edge">
<title>CataliticActivityUnit&#45;&gt;KindOfUnit</title>
<path fill="none" stroke="#000000" d="M213.0007,-294.8185C195.1162,-298.8828 176.9086,-305.2082 161.5905,-315 138.2978,-329.8894 135.9407,-339.7925 124.5905,-365 76.419,-471.9835 60.1798,-612.9935 55.2433,-672.5314"/>
<polygon fill="none" stroke="#000000" points="51.7406,-672.4307 54.448,-682.6737 58.7191,-672.978 51.7406,-672.4307"/>
<text text-anchor="middle" x="134.0905" y="-368.8" font-family="Times,serif" font-size="14.00" fill="#000000">isA</text>
</g>
<!-- Sievert -->
<g id="node39" class="node">
<title>Sievert</title>
<g id="a_node39"><a xlink:href="http://emmo.info/emmo/middle/siunits#EMMO_dc232f53_8ed8_4ddd_9f41_cc057985eadb" xlink:title="Sievert">
<ellipse fill="#ffffcc" stroke="#000000" cx="522.0634" cy="-342" rx="35.9954" ry="18"/>
<text text-anchor="middle" x="522.0634" y="-338.3" font-family="Times,serif" font-size="14.00" fill="#000000">Sievert</text>
</a>
</g>
</g>
<!-- Sievert&#45;&gt;EquivalentDoseUnit -->
<g id="edge39" class="edge">
<title>Sievert&#45;&gt;EquivalentDoseUnit</title>
<path fill="none" stroke="#000000" d="M486.1518,-342C459.1482,-342 420.8639,-342 385.4364,-342"/>
<polygon fill="none" stroke="#000000" points="385.0421,-338.5001 375.0421,-342 385.0421,-345.5001 385.0421,-338.5001"/>
<text text-anchor="middle" x="450.3674" y="-345.8" font-family="Times,serif" font-size="14.00" fill="#000000">isA</text>
</g>
<!-- MassUnit -->
<g id="node40" class="node">
<title>MassUnit</title>
<g id="a_node40"><a xlink:href="http://emmo.info/emmo/middle/isq#EMMO_8d9caab6_452d_420a_9d21_11baae773bf9" xlink:title="MassUnit">
<ellipse fill="#ffc880" stroke="#000000" cx="292.229" cy="-234" rx="45.4919" ry="18"/>
<text text-anchor="middle" x="292.229" y="-230.3" font-family="Times,serif" font-size="14.00" fill="#000000">MassUnit</text>
</a>
</g>
</g>
<!-- MassUnit&#45;&gt;KindOfUnit -->
<g id="edge30" class="edge">
<title>MassUnit&#45;&gt;KindOfUnit</title>
<path fill="none" stroke="#000000" d="M246.5688,-235.43C219.9939,-238.1268 186.8605,-244.8467 161.5905,-261 138.2978,-275.8894 135.5832,-285.6345 124.5905,-311 69.4972,-438.1268 56.9641,-606.46 54.1234,-672.5988"/>
<polygon fill="none" stroke="#000000" points="50.6231,-672.5418 53.7334,-682.6697 57.6179,-672.8127 50.6231,-672.5418"/>
<text text-anchor="middle" x="134.0905" y="-314.8" font-family="Times,serif" font-size="14.00" fill="#000000">isA</text>
</g>
<!-- ElectricChargeUnit&#45;&gt;KindOfUnit -->
<g id="edge35" class="edge">
<title>ElectricChargeUnit&#45;&gt;KindOfUnit</title>
<path fill="none" stroke="#000000" d="M217.0946,-185.9257C197.9164,-189.9361 178.0794,-196.4598 161.5905,-207 138.2978,-221.8894 135.3087,-231.5173 124.5905,-257 92.5156,-333.2589 64.6847,-587.5585 56.0541,-672.8427"/>
<polygon fill="none" stroke="#000000" points="52.5678,-672.5316 55.0533,-682.8308 59.533,-673.2296 52.5678,-672.5316"/>
<text text-anchor="middle" x="134.0905" y="-260.8" font-family="Times,serif" font-size="14.00" fill="#000000">isA</text>
</g>
<!-- LuminousFluxUnit&#45;&gt;KindOfUnit -->
<g id="edge12" class="edge">
<title>LuminousFluxUnit&#45;&gt;KindOfUnit</title>
<path fill="none" stroke="#000000" d="M217.4349,-131.8548C198.1512,-135.859 178.177,-142.3974 161.5905,-153 138.2978,-167.8894 135.0915,-177.427 124.5905,-203 89.0081,-289.6539 62.9992,-580.7387 55.5027,-672.8218"/>
<polygon fill="none" stroke="#000000" points="52.0134,-672.5501 54.6999,-682.7987 58.9908,-673.1117 52.0134,-672.5501"/>
<text text-anchor="middle" x="134.0905" y="-206.8" font-family="Times,serif" font-size="14.00" fill="#000000">isA</text>
</g>
<!-- TimeUnit -->
<g id="node43" class="node">
<title>TimeUnit</title>
<g id="a_node43"><a xlink:href="http://emmo.info/emmo/middle/isq#EMMO_d69cb991_73c2_4381_bb92_982d702f624e" xlink:title="TimeUnit">
<ellipse fill="#ffc880" stroke="#000000" cx="292.229" cy="-72" rx="45.4919" ry="18"/>
<text text-anchor="middle" x="292.229" y="-68.3" font-family="Times,serif" font-size="14.00" fill="#000000">TimeUnit</text>
</a>
</g>
</g>
<!-- TimeUnit&#45;&gt;KindOfUnit -->
<g id="edge28" class="edge">
<title>TimeUnit&#45;&gt;KindOfUnit</title>
<path fill="none" stroke="#000000" d="M246.6259,-73.5198C220.071,-76.248 186.9385,-82.9693 161.5905,-99 138.5268,-113.5861 134.9021,-122.7341 124.5905,-148 84.9715,-245.0767 61.3521,-573.8446 55.0242,-672.6725"/>
<polygon fill="none" stroke="#000000" points="51.5224,-672.5925 54.3855,-682.7931 58.5085,-673.0334 51.5224,-672.5925"/>
<text text-anchor="middle" x="134.0905" y="-151.8" font-family="Times,serif" font-size="14.00" fill="#000000">isA</text>
</g>
<!-- ElectricalInductanceUnit&#45;&gt;KindOfUnit -->
<g id="edge6" class="edge">
<title>ElectricalInductanceUnit&#45;&gt;KindOfUnit</title>
<path fill="none" stroke="#000000" d="M205.5383,-26.7675C190.13,-30.8177 174.8028,-36.6442 161.5905,-45 138.5268,-59.5861 134.7592,-68.6763 124.5905,-94 81.3918,-201.581 59.9945,-567.7647 54.6547,-672.6905"/>
<polygon fill="none" stroke="#000000" points="51.1518,-672.6632 54.1479,-682.8256 58.1431,-673.0129 51.1518,-672.6632"/>
<text text-anchor="middle" x="134.0905" y="-97.8" font-family="Times,serif" font-size="14.00" fill="#000000">isA</text>
</g>
<!-- Farad -->
<g id="node45" class="node">
<title>Farad</title>
<g id="a_node45"><a xlink:href="http://emmo.info/emmo/middle/siunits#EMMO_a9201b2f_e6de_442a_b3a6_d291.0.0-alphaa582" xlink:title="Farad">
<ellipse fill="#ffffcc" stroke="#000000" cx="522.0634" cy="-720" rx="30.5947" ry="18"/>
<text text-anchor="middle" x="522.0634" y="-716.3" font-family="Times,serif" font-size="14.00" fill="#000000">Farad</text>
</a>
</g>
</g>
<!-- Farad&#45;&gt;ElectricalCapacitanceUnit -->
<g id="edge38" class="edge">
<title>Farad&#45;&gt;ElectricalCapacitanceUnit</title>
<path fill="none" stroke="#000000" d="M491.0669,-720C468.6778,-720 436.9441,-720 405.3873,-720"/>
<polygon fill="none" stroke="#000000" points="405.1599,-716.5001 395.1598,-720 405.1598,-723.5001 405.1599,-716.5001"/>
<text text-anchor="middle" x="450.3674" y="-723.8" font-family="Times,serif" font-size="14.00" fill="#000000">isA</text>
</g>
</g>
</svg>
