<?xml version="1.0" encoding="UTF-8" standalone="no"?>
<!DOCTYPE svg PUBLIC "-//W3C//DTD SVG 1.1//EN"
 "http://www.w3.org/Graphics/SVG/1.1/DTD/svg11.dtd">
<!-- Generated by graphviz version 2.40.1 (20161225.0304)
 -->
<!-- Title: %3 Pages: 1 -->
<svg width="516pt" height="305pt"
 viewBox="0.00 0.00 516.09 305.00" xmlns="http://www.w3.org/2000/svg" xmlns:xlink="http://www.w3.org/1999/xlink">
<g id="graph0" class="graph" transform="scale(1 1) rotate(0) translate(4 301)">
<title>%3</title>
<polygon fill="#ffffff" stroke="transparent" points="-4,4 -4,-301 512.0923,-301 512.0923,4 -4,4"/>
<!-- Fluid -->
<g id="node1" class="node">
<title>Fluid</title>
<g id="a_node1"><a xlink:href="http://emmo.info/emmo/middle/materials#EMMO_87ac88ff_8379_4f5a_8c7b_424a8fff1ee8" xlink:title="Fluid">
<ellipse fill="#ffffcc" stroke="#000000" cx="29.2474" cy="-105" rx="29.4969" ry="18"/>
<text text-anchor="middle" x="29.2474" y="-101.3" font-family="Times,serif" font-size="14.00" fill="#000000">Fluid</text>
</a>
</g>
</g>
<!-- Continuum -->
<g id="node4" class="node">
<title>Continuum</title>
<g id="a_node4"><a xlink:href="http://emmo.info/emmo/middle/materials#EMMO_8b0923ab_b500_477b_9ce9_8b3a3e4dc4f2" xlink:title="Continuum">
<ellipse fill="#ffffcc" stroke="#000000" cx="59.2474" cy="-192" rx="50.8918" ry="18"/>
<text text-anchor="middle" x="59.2474" y="-188.3" font-family="Times,serif" font-size="14.00" fill="#000000">Continuum</text>
</a>
</g>
</g>
<!-- Fluid&#45;&gt;Continuum -->
<g id="edge4" class="edge">
<title>Fluid&#45;&gt;Continuum</title>
<path fill="none" stroke="#000000" d="M35.4634,-123.0265C39.5663,-134.9249 45.023,-150.7492 49.6748,-164.2394"/>
<polygon fill="none" stroke="#000000" points="46.4706,-165.6839 53.0393,-173.9966 53.0882,-163.4019 46.4706,-165.6839"/>
<text text-anchor="middle" x="55.7474" y="-144.8" font-family="Times,serif" font-size="14.00" fill="#000000">isA</text>
</g>
<!-- Subatomic -->
<g id="node2" class="node">
<title>Subatomic</title>
<g id="a_node2"><a xlink:href="http://emmo.info/emmo/middle/materials#EMMO_7d66bde4_b68d_41cc_b5fc_6fd98c5e2ff0" xlink:title="Subatomic">
<ellipse fill="#ffffcc" stroke="#000000" stroke-width="2" cx="176.2474" cy="-192" rx="48.9926" ry="18"/>
<text text-anchor="middle" x="176.2474" y="-188.3" font-family="Times,serif" font-size="14.00" fill="#000000">Subatomic</text>
</a>
</g>
</g>
<!-- MaterialState -->
<g id="node5" class="node">
<title>MaterialState</title>
<g id="a_node5"><a xlink:href="http://emmo.info/emmo/middle/materials#EMMO_20fff605_465f_4034_8696_e53e90ec83f4" xlink:title="MaterialState">
<ellipse fill="#ffc880" stroke="#000000" stroke-width="2" cx="225.2474" cy="-279" rx="58.4896" ry="18"/>
<text text-anchor="middle" x="225.2474" y="-275.3" font-family="Times,serif" font-size="14.00" fill="#000000">MaterialState</text>
</a>
</g>
</g>
<!-- Subatomic&#45;&gt;MaterialState -->
<g id="edge3" class="edge">
<title>Subatomic&#45;&gt;MaterialState</title>
<path fill="none" stroke="#000000" d="M186.4002,-210.0265C193.233,-222.1582 202.3646,-238.3713 210.0575,-252.0302"/>
<polygon fill="none" stroke="#000000" points="207.1506,-254.0011 215.1076,-260.9966 213.2497,-250.5659 207.1506,-254.0011"/>
<text text-anchor="middle" x="212.7474" y="-231.8" font-family="Times,serif" font-size="14.00" fill="#000000">isA</text>
</g>
<!-- IonAtom -->
<g id="node3" class="node">
<title>IonAtom</title>
<g id="a_node3"><a xlink:href="http://emmo.info/emmo/middle/materials#EMMO_db03061b_db31_4132_a47a_6a634846578b" xlink:title="IonAtom">
<ellipse fill="#ffffcc" stroke="#000000" cx="331.2474" cy="-18" rx="42.7926" ry="18"/>
<text text-anchor="middle" x="331.2474" y="-14.3" font-family="Times,serif" font-size="14.00" fill="#000000">IonAtom</text>
</a>
</g>
</g>
<!-- StandaloneAtom -->
<g id="node8" class="node">
<title>StandaloneAtom</title>
<g id="a_node8"><a xlink:href="http://emmo.info/emmo/middle/materials#EMMO_2fd3f574_5e93_47fe_afca_ed80b0a21ab4" xlink:title="StandaloneAtom">
<ellipse fill="#ffffcc" stroke="#000000" cx="391.2474" cy="-105" rx="70.3881" ry="18"/>
<text text-anchor="middle" x="391.2474" y="-101.3" font-family="Times,serif" font-size="14.00" fill="#000000">StandaloneAtom</text>
</a>
</g>
</g>
<!-- IonAtom&#45;&gt;StandaloneAtom -->
<g id="edge1" class="edge">
<title>IonAtom&#45;&gt;StandaloneAtom</title>
<path fill="none" stroke="#000000" d="M343.3893,-35.6057C351.9531,-48.0233 363.5695,-64.8671 373.2131,-78.8502"/>
<polygon fill="none" stroke="#000000" points="370.359,-80.8768 378.9176,-87.1218 376.1215,-76.9026 370.359,-80.8768"/>
<text text-anchor="middle" x="373.7474" y="-57.8" font-family="Times,serif" font-size="14.00" fill="#000000">isA</text>
</g>
<!-- Continuum&#45;&gt;MaterialState -->
<g id="edge8" class="edge">
<title>Continuum&#45;&gt;MaterialState</title>
<path fill="none" stroke="#000000" d="M87.7838,-206.9558C115.0025,-221.2211 156.2121,-242.8188 186.4134,-258.6473"/>
<polygon fill="none" stroke="#000000" points="184.9232,-261.8177 195.4052,-263.3598 188.1727,-255.6176 184.9232,-261.8177"/>
<text text-anchor="middle" x="160.7474" y="-231.8" font-family="Times,serif" font-size="14.00" fill="#000000">isA</text>
</g>
<!-- NeutralAtom -->
<g id="node6" class="node">
<title>NeutralAtom</title>
<g id="a_node6"><a xlink:href="http://emmo.info/emmo/middle/materials#EMMO_4588526f_8553_4f4d_aa73_a483e88d599b" xlink:title="NeutralAtom">
<ellipse fill="#ffffcc" stroke="#000000" cx="450.2474" cy="-18" rx="57.6901" ry="18"/>
<text text-anchor="middle" x="450.2474" y="-14.3" font-family="Times,serif" font-size="14.00" fill="#000000">NeutralAtom</text>
</a>
</g>
</g>
<!-- NeutralAtom&#45;&gt;StandaloneAtom -->
<g id="edge5" class="edge">
<title>NeutralAtom&#45;&gt;StandaloneAtom</title>
<path fill="none" stroke="#000000" d="M438.0226,-36.0265C429.7162,-48.2748 418.5885,-64.6835 409.2706,-78.4234"/>
<polygon fill="none" stroke="#000000" points="406.1726,-76.7558 403.4566,-86.9966 411.966,-80.6847 406.1726,-76.7558"/>
<text text-anchor="middle" x="433.7474" y="-57.8" font-family="Times,serif" font-size="14.00" fill="#000000">isA</text>
</g>
<!-- BondedAtom -->
<g id="node7" class="node">
<title>BondedAtom</title>
<g id="a_node7"><a xlink:href="http://emmo.info/emmo/middle/materials#EMMO_8303a247_f9d9_4616_bdcd_f5cbd7b298e3" xlink:title="BondedAtom">
<ellipse fill="#ffffcc" stroke="#000000" cx="244.2474" cy="-105" rx="58.4896" ry="18"/>
<text text-anchor="middle" x="244.2474" y="-101.3" font-family="Times,serif" font-size="14.00" fill="#000000">BondedAtom</text>
</a>
</g>
</g>
<!-- Atom -->
<g id="node9" class="node">
<title>Atom</title>
<g id="a_node9"><a xlink:href="http://emmo.info/emmo/middle/materials#EMMO_eb77076b_a104_42ac_a065_798b2d2809ad" xlink:title="Atom">
<ellipse fill="#ffffcc" stroke="#000000" cx="274.2474" cy="-192" rx="31.3957" ry="18"/>
<text text-anchor="middle" x="274.2474" y="-188.3" font-family="Times,serif" font-size="14.00" fill="#000000">Atom</text>
</a>
</g>
</g>
<!-- BondedAtom&#45;&gt;Atom -->
<g id="edge9" class="edge">
<title>BondedAtom&#45;&gt;Atom</title>
<path fill="none" stroke="#000000" d="M250.4634,-123.0265C254.5937,-135.0042 260.0958,-150.9604 264.7677,-164.5088"/>
<polygon fill="none" stroke="#000000" points="261.5732,-165.9816 268.142,-174.2943 268.1908,-163.6996 261.5732,-165.9816"/>
<text text-anchor="middle" x="269.7474" y="-144.8" font-family="Times,serif" font-size="14.00" fill="#000000">isA</text>
</g>
<!-- StandaloneAtom&#45;&gt;Atom -->
<g id="edge2" class="edge">
<title>StandaloneAtom&#45;&gt;Atom</title>
<path fill="none" stroke="#000000" d="M368.132,-122.1884C349.0188,-136.4008 321.8335,-156.6154 301.6314,-171.6376"/>
<polygon fill="none" stroke="#000000" points="299.3809,-168.9494 293.4447,-177.7251 303.5579,-174.5666 299.3809,-168.9494"/>
<text text-anchor="middle" x="348.7474" y="-144.8" font-family="Times,serif" font-size="14.00" fill="#000000">isA</text>
</g>
<!-- Atom&#45;&gt;MaterialState -->
<g id="edge6" class="edge">
<title>Atom&#45;&gt;MaterialState</title>
<path fill="none" stroke="#000000" d="M264.5666,-209.1884C257.6113,-221.5376 248.1037,-238.4184 240.18,-252.487"/>
<polygon fill="none" stroke="#000000" points="237.1024,-250.8193 235.2445,-261.25 243.2015,-254.2545 237.1024,-250.8193"/>
<text text-anchor="middle" x="261.7474" y="-231.8" font-family="Times,serif" font-size="14.00" fill="#000000">isA</text>
</g>
<!-- Solid -->
<g id="node10" class="node">
<title>Solid</title>
<g id="a_node10"><a xlink:href="http://emmo.info/emmo/middle/materials#EMMO_a2b006f2_bbfd_4dba_bcaa_3fca20cd6be1" xlink:title="Solid">
<ellipse fill="#ffffcc" stroke="#000000" cx="105.2474" cy="-105" rx="29.4969" ry="18"/>
<text text-anchor="middle" x="105.2474" y="-101.3" font-family="Times,serif" font-size="14.00" fill="#000000">Solid</text>
</a>
</g>
</g>
<!-- Solid&#45;&gt;Continuum -->
<g id="edge7" class="edge">
<title>Solid&#45;&gt;Continuum</title>
<path fill="none" stroke="#000000" d="M96.1593,-122.1884C89.692,-134.4199 80.8741,-151.0973 73.4787,-165.0842"/>
<polygon fill="none" stroke="#000000" points="70.2126,-163.7737 68.6325,-174.25 76.4008,-167.0456 70.2126,-163.7737"/>
<text text-anchor="middle" x="93.7474" y="-144.8" font-family="Times,serif" font-size="14.00" fill="#000000">isA</text>
</g>
<!-- Molecule -->
<g id="node11" class="node">
<title>Molecule</title>
<g id="a_node11"><a xlink:href="http://emmo.info/emmo/middle/materials#EMMO_3397f270_dfc1_4500_8f6f_4d0d85ac5f71" xlink:title="Molecule">
<ellipse fill="#ffffcc" stroke="#000000" cx="367.2474" cy="-192" rx="44.393" ry="18"/>
<text text-anchor="middle" x="367.2474" y="-188.3" font-family="Times,serif" font-size="14.00" fill="#000000">Molecule</text>
</a>
</g>
</g>
<!-- Molecule&#45;&gt;MaterialState -->
<g id="edge10" class="edge">
<title>Molecule&#45;&gt;MaterialState</title>
<path fill="none" stroke="#000000" d="M342.5129,-207.1542C319.7672,-221.09 285.801,-241.9003 260.2702,-257.5424"/>
<polygon fill="none" stroke="#000000" points="258.3221,-254.6312 251.6237,-262.8399 261.9791,-260.6 258.3221,-254.6312"/>
<text text-anchor="middle" x="313.7474" y="-231.8" font-family="Times,serif" font-size="14.00" fill="#000000">isA</text>
</g>
</g>
</svg>
