<?xml version="1.0" encoding="UTF-8" standalone="no"?>
<!DOCTYPE svg PUBLIC "-//W3C//DTD SVG 1.1//EN"
 "http://www.w3.org/Graphics/SVG/1.1/DTD/svg11.dtd">
<!-- Generated by graphviz version 2.40.1 (20161225.0304)
 -->
<!-- Title: %3 Pages: 1 -->
<svg width="1040pt" height="218pt"
 viewBox="0.00 0.00 1040.44 218.00" xmlns="http://www.w3.org/2000/svg" xmlns:xlink="http://www.w3.org/1999/xlink">
<g id="graph0" class="graph" transform="scale(1 1) rotate(0) translate(4 214)">
<title>%3</title>
<polygon fill="#ffffff" stroke="transparent" points="-4,4 -4,-214 1036.44,-214 1036.44,4 -4,4"/>
<!-- Variable -->
<g id="node1" class="node">
<title>Variable</title>
<g id="a_node1"><a xlink:href="http://emmo.info/emmo/middle/math#EMMO_1eed0732_e3f1_4b2c_a9c4_b4e75eeb5895" xlink:title="Variable">
<ellipse fill="#ffffcc" stroke="#000000" cx="522.9464" cy="-105" rx="40.8928" ry="18"/>
<text text-anchor="middle" x="522.9464" y="-101.3" font-family="Times,serif" font-size="14.00" fill="#000000">Variable</text>
</a>
</g>
</g>
<!-- Mathematical -->
<g id="node9" class="node">
<title>Mathematical</title>
<g id="a_node9"><a xlink:href="http://emmo.info/emmo/middle/math#EMMO_54ee6b5e_5261_44a8_86eb_5717e7fdb9d0" xlink:title="Mathematical">
<ellipse fill="#ffffcc" stroke="#000000" stroke-width="2" cx="424.9464" cy="-192" rx="59.5901" ry="18"/>
<text text-anchor="middle" x="424.9464" y="-188.3" font-family="Times,serif" font-size="14.00" fill="#000000">Mathematical</text>
</a>
</g>
</g>
<!-- Variable&#45;&gt;Mathematical -->
<g id="edge10" class="edge">
<title>Variable&#45;&gt;Mathematical</title>
<path fill="none" stroke="#000000" d="M492.2455,-116.9406C474.2452,-124.4291 453.7407,-133.9628 446.9464,-141 440.7562,-147.4115 436.1682,-155.8408 432.8323,-163.9953"/>
<polygon fill="none" stroke="#000000" points="429.4503,-163.0572 429.3607,-173.6517 436.0375,-165.4254 429.4503,-163.0572"/>
<text text-anchor="middle" x="456.4464" y="-144.8" font-family="Times,serif" font-size="14.00" fill="#000000">isA</text>
</g>
<!-- Variable&#45;&gt;Mathematical -->
<g id="edge11" class="edge">
<title>Variable&#45;&gt;Mathematical</title>
<path fill="none" stroke="#ffa500" stroke-dasharray="5,2" d="M504.759,-121.3509C493.5847,-131.3775 478.964,-144.4617 465.9464,-156 461.4959,-159.9447 456.7625,-164.1197 452.1526,-168.1748"/>
<polygon fill="#ffa500" stroke="#ffa500" points="442.2728,-172.1948 452.0957,-168.2247 446.8925,-177.4539 442.2728,-172.1948"/>
<text text-anchor="middle" x="555.4464" y="-144.8" font-family="Times,serif" font-size="14.00" fill="#000000">Inverse(hasVariable) some</text>
</g>
<!-- Matrix -->
<g id="node2" class="node">
<title>Matrix</title>
<g id="a_node2"><a xlink:href="http://emmo.info/emmo/top/math#EMMO_1cba0b27_15d0_4326_933f_379d0b3565b6" xlink:title="Matrix">
<ellipse fill="#ffffcc" stroke="#000000" cx="344.9464" cy="-18" rx="35.194" ry="18"/>
<text text-anchor="middle" x="344.9464" y="-14.3" font-family="Times,serif" font-size="14.00" fill="#000000">Matrix</text>
</a>
</g>
</g>
<!-- Array -->
<g id="node7" class="node">
<title>Array</title>
<g id="a_node7"><a xlink:href="http://emmo.info/emmo/top/math#EMMO_28fbea28_2204_4613_87ff_6d877b855fcd" xlink:title="Array">
<ellipse fill="#ffffcc" stroke="#000000" cx="432.9464" cy="-105" rx="31.3957" ry="18"/>
<text text-anchor="middle" x="432.9464" y="-101.3" font-family="Times,serif" font-size="14.00" fill="#000000">Array</text>
</a>
</g>
</g>
<!-- Matrix&#45;&gt;Array -->
<g id="edge6" class="edge">
<title>Matrix&#45;&gt;Array</title>
<path fill="none" stroke="#000000" d="M361.4985,-34.364C375.0657,-47.7771 394.43,-66.9213 409.5774,-81.8966"/>
<polygon fill="none" stroke="#000000" points="407.4891,-84.7537 417.0612,-89.2953 412.4105,-79.7758 407.4891,-84.7537"/>
<text text-anchor="middle" x="404.4464" y="-57.8" font-family="Times,serif" font-size="14.00" fill="#000000">isA</text>
</g>
<!-- Formula -->
<g id="node3" class="node">
<title>Formula</title>
<g id="a_node3"><a xlink:href="http://emmo.info/emmo/middle/math#EMMO_88470739_03d3_4c47_a03e_b30a1288d50c" xlink:title="Formula">
<ellipse fill="#ffffcc" stroke="#000000" stroke-width="2" cx="40.9464" cy="-105" rx="40.8928" ry="18"/>
<text text-anchor="middle" x="40.9464" y="-101.3" font-family="Times,serif" font-size="14.00" fill="#000000">Formula</text>
</a>
</g>
</g>
<!-- Formula&#45;&gt;Mathematical -->
<g id="edge14" class="edge">
<title>Formula&#45;&gt;Mathematical</title>
<path fill="none" stroke="#000000" d="M71.9343,-116.9141C78.1779,-119.0993 84.7322,-121.2418 90.9464,-123 184.0212,-149.3341 294.3188,-170.1569 361.956,-181.7785"/>
<polygon fill="none" stroke="#000000" points="361.581,-185.265 372.027,-183.495 362.7572,-178.3645 361.581,-185.265"/>
<text text-anchor="middle" x="228.4464" y="-144.8" font-family="Times,serif" font-size="14.00" fill="#000000">isA</text>
</g>
<!-- Expression -->
<g id="node4" class="node">
<title>Expression</title>
<g id="a_node4"><a xlink:href="http://emmo.info/emmo/middle/math#EMMO_f9bc8b52_85e9_4b53_b969_dd7724d5b8e4" xlink:title="Expression">
<ellipse fill="#ffffcc" stroke="#000000" stroke-width="2" cx="149.9464" cy="-105" rx="50.0912" ry="18"/>
<text text-anchor="middle" x="149.9464" y="-101.3" font-family="Times,serif" font-size="14.00" fill="#000000">Expression</text>
</a>
</g>
</g>
<!-- Expression&#45;&gt;Mathematical -->
<g id="edge7" class="edge">
<title>Expression&#45;&gt;Mathematical</title>
<path fill="none" stroke="#000000" d="M187.6073,-116.9146C235.9374,-132.2044 319.972,-158.7899 373.9866,-175.8782"/>
<polygon fill="none" stroke="#000000" points="373.1176,-179.2742 383.7075,-178.9535 375.229,-172.6002 373.1176,-179.2742"/>
<text text-anchor="middle" x="313.4464" y="-144.8" font-family="Times,serif" font-size="14.00" fill="#000000">isA</text>
</g>
<!-- Vector -->
<g id="node5" class="node">
<title>Vector</title>
<g id="a_node5"><a xlink:href="http://emmo.info/emmo/middle/math#EMMO_06658d8d_dcde_4fc9_aae1_17f71c0bcdec" xlink:title="Vector">
<ellipse fill="#ffffcc" stroke="#000000" cx="432.9464" cy="-18" rx="34.394" ry="18"/>
<text text-anchor="middle" x="432.9464" y="-14.3" font-family="Times,serif" font-size="14.00" fill="#000000">Vector</text>
</a>
</g>
</g>
<!-- Vector&#45;&gt;Array -->
<g id="edge1" class="edge">
<title>Vector&#45;&gt;Array</title>
<path fill="none" stroke="#000000" d="M432.9464,-36.0265C432.9464,-47.8082 432.9464,-63.4393 432.9464,-76.8419"/>
<polygon fill="none" stroke="#000000" points="429.4465,-76.9966 432.9464,-86.9966 436.4465,-76.9967 429.4465,-76.9966"/>
<text text-anchor="middle" x="442.4464" y="-57.8" font-family="Times,serif" font-size="14.00" fill="#000000">isA</text>
</g>
<!-- MathematicalModel -->
<g id="node6" class="node">
<title>MathematicalModel</title>
<g id="a_node6"><a xlink:href="http://emmo.info/emmo/middle/models#EMMO_f7ed665b_c2e1_42bc_889b_6b42ed3a36f0" xlink:title="MathematicalModel">
<ellipse fill="#ffc880" stroke="#000000" stroke-width="2" cx="300.9464" cy="-105" rx="83.3857" ry="18"/>
<text text-anchor="middle" x="300.9464" y="-101.3" font-family="Times,serif" font-size="14.00" fill="#000000">MathematicalModel</text>
</a>
</g>
</g>
<!-- MathematicalModel&#45;&gt;Mathematical -->
<g id="edge12" class="edge">
<title>MathematicalModel&#45;&gt;Mathematical</title>
<path fill="none" stroke="#000000" d="M325.7416,-122.3967C344.9982,-135.9073 371.8532,-154.7491 392.7664,-169.4221"/>
<polygon fill="none" stroke="#000000" points="390.8404,-172.3463 401.0368,-175.2247 394.8609,-166.6161 390.8404,-172.3463"/>
<text text-anchor="middle" x="380.4464" y="-144.8" font-family="Times,serif" font-size="14.00" fill="#000000">isA</text>
</g>
<!-- Array&#45;&gt;Mathematical -->
<g id="edge9" class="edge">
<title>Array&#45;&gt;Mathematical</title>
<path fill="none" stroke="#000000" d="M416.9924,-120.8249C412.1581,-126.6646 407.4646,-133.6605 404.9464,-141 402.2254,-148.9304 403.7501,-157.4468 406.919,-165.2051"/>
<polygon fill="none" stroke="#000000" points="403.8175,-166.8283 411.4251,-174.2023 410.0764,-163.6936 403.8175,-166.8283"/>
<text text-anchor="middle" x="414.4464" y="-144.8" font-family="Times,serif" font-size="14.00" fill="#000000">isA</text>
</g>
<!-- Numerical -->
<g id="node8" class="node">
<title>Numerical</title>
<g id="a_node8"><a xlink:href="http://emmo.info/emmo/middle/math#EMMO_4ce76d7f_03f8_45b6_9003_90052a79bfaa" xlink:title="Numerical">
<ellipse fill="#ffffcc" stroke="#000000" cx="629.9464" cy="-105" rx="48.1917" ry="18"/>
<text text-anchor="middle" x="629.9464" y="-101.3" font-family="Times,serif" font-size="14.00" fill="#000000">Numerical</text>
</a>
</g>
</g>
<!-- Numerical&#45;&gt;Mathematical -->
<g id="edge8" class="edge">
<title>Numerical&#45;&gt;Mathematical</title>
<path fill="none" stroke="#000000" d="M636.683,-123.0008C639.4528,-133.7638 640.4861,-147.0433 632.9464,-156 615.4027,-176.8409 548.0866,-185.6169 494.724,-189.3123"/>
<polygon fill="none" stroke="#000000" points="494.3514,-185.8289 484.5974,-189.9653 494.802,-192.8144 494.3514,-185.8289"/>
<text text-anchor="middle" x="648.4464" y="-144.8" font-family="Times,serif" font-size="14.00" fill="#000000">isA</text>
</g>
<!-- Unknown -->
<g id="node10" class="node">
<title>Unknown</title>
<g id="a_node10"><a xlink:href="http://emmo.info/emmo/middle/math#EMMO_fe7e56ce_118b_4243_9aad_20eb9f4f31f6" xlink:title="Unknown">
<ellipse fill="#ffffcc" stroke="#000000" cx="686.9464" cy="-18" rx="45.4919" ry="18"/>
<text text-anchor="middle" x="686.9464" y="-14.3" font-family="Times,serif" font-size="14.00" fill="#000000">Unknown</text>
</a>
</g>
</g>
<!-- Unknown&#45;&gt;Variable -->
<g id="edge13" class="edge">
<title>Unknown&#45;&gt;Variable</title>
<path fill="none" stroke="#000000" d="M683.5738,-36.1837C680.563,-47.2982 675.0069,-60.8914 664.9464,-69 632.507,-95.1455 613.1079,-75.9116 572.9464,-87 569.8337,-87.8594 566.6376,-88.8202 563.439,-89.8387"/>
<polygon fill="none" stroke="#000000" points="562.2903,-86.5323 553.9168,-93.0234 564.5106,-93.1708 562.2903,-86.5323"/>
<text text-anchor="middle" x="686.4464" y="-57.8" font-family="Times,serif" font-size="14.00" fill="#000000">isA</text>
</g>
<!-- MathematicalSymbol -->
<g id="node11" class="node">
<title>MathematicalSymbol</title>
<g id="a_node11"><a xlink:href="http://emmo.info/emmo/middle/math#EMMO_5be83f9c_a4ba_4b9a_be1a_5bfc6e891231" xlink:title="MathematicalSymbol">
<ellipse fill="#ffc880" stroke="#000000" stroke-width="2" cx="783.9464" cy="-105" rx="87.9851" ry="18"/>
<text text-anchor="middle" x="783.9464" y="-101.3" font-family="Times,serif" font-size="14.00" fill="#000000">MathematicalSymbol</text>
</a>
</g>
</g>
<!-- MathematicalSymbol&#45;&gt;Mathematical -->
<g id="edge15" class="edge">
<title>MathematicalSymbol&#45;&gt;Mathematical</title>
<path fill="none" stroke="#000000" d="M750.3028,-121.7015C726.2383,-132.9875 692.782,-147.3547 661.9464,-156 606.0161,-171.6811 540.625,-180.9643 492.7144,-186.1648"/>
<polygon fill="none" stroke="#000000" points="492.3438,-182.6843 482.7658,-187.2134 493.0776,-189.6458 492.3438,-182.6843"/>
<text text-anchor="middle" x="713.4464" y="-144.8" font-family="Times,serif" font-size="14.00" fill="#000000">isA</text>
</g>
<!-- PhysicalQuantity -->
<g id="node12" class="node">
<title>PhysicalQuantity</title>
<g id="a_node12"><a xlink:href="http://emmo.info/emmo/middle/units#EMMO_02c0621e_a527_4790_8a0f_2bb51973c819" xlink:title="PhysicalQuantity">
<ellipse fill="#ffffcc" stroke="#000000" stroke-width="2" cx="960.9464" cy="-105" rx="71.4873" ry="18"/>
<text text-anchor="middle" x="960.9464" y="-101.3" font-family="Times,serif" font-size="14.00" fill="#000000">PhysicalQuantity</text>
</a>
</g>
</g>
<!-- PhysicalQuantity&#45;&gt;Mathematical -->
<g id="edge4" class="edge">
<title>PhysicalQuantity&#45;&gt;Mathematical</title>
<path fill="none" stroke="#000000" d="M907.6031,-117.0819C898.7048,-119.0744 889.5673,-121.1065 880.9464,-123 812.5778,-138.0163 795.9954,-144.5116 726.9464,-156 646.8126,-169.3326 553.922,-179.6423 492.5496,-185.747"/>
<polygon fill="none" stroke="#000000" points="491.832,-182.3007 482.2232,-186.7641 492.5182,-189.267 491.832,-182.3007"/>
<text text-anchor="middle" x="810.4464" y="-144.8" font-family="Times,serif" font-size="14.00" fill="#000000">isA</text>
</g>
<!-- Constant -->
<g id="node13" class="node">
<title>Constant</title>
<g id="a_node13"><a xlink:href="http://emmo.info/emmo/middle/math#EMMO_ae15fb4f_8e4d_41de_a0f9_3997f89ba6a2" xlink:title="Constant">
<ellipse fill="#ffffcc" stroke="#000000" cx="527.9464" cy="-18" rx="42.4939" ry="18"/>
<text text-anchor="middle" x="527.9464" y="-14.3" font-family="Times,serif" font-size="14.00" fill="#000000">Constant</text>
</a>
</g>
</g>
<!-- Constant&#45;&gt;Variable -->
<g id="edge2" class="edge">
<title>Constant&#45;&gt;Variable</title>
<path fill="none" stroke="#000000" d="M500.9362,-32.241C493.0157,-37.8779 485.3143,-45.1523 480.9464,-54 475.6177,-64.7937 481.7162,-75.3085 490.7683,-83.9592"/>
<polygon fill="none" stroke="#000000" points="488.5949,-86.7047 498.4993,-90.4669 493.1029,-81.3494 488.5949,-86.7047"/>
<text text-anchor="middle" x="490.4464" y="-57.8" font-family="Times,serif" font-size="14.00" fill="#000000">isA</text>
</g>
<!-- Constant&#45;&gt;Numerical -->
<g id="edge3" class="edge">
<title>Constant&#45;&gt;Numerical</title>
<path fill="none" stroke="#ffa500" stroke-dasharray="5,2" d="M520.5999,-36.0768C517.5918,-46.6032 516.197,-59.608 522.9464,-69 523.9387,-70.3808 555.3133,-80.8483 583.8306,-90.1426"/>
<polygon fill="#ffa500" stroke="#ffa500" points="592.2622,-96.5634 583.8339,-90.1436 594.426,-89.9062 592.2622,-96.5634"/>
<text text-anchor="middle" x="593.9464" y="-57.8" font-family="Times,serif" font-size="14.00" fill="#000000">Inverse(hasVariable) only</text>
</g>
<!-- Parameter -->
<g id="node14" class="node">
<title>Parameter</title>
<g id="a_node14"><a xlink:href="http://emmo.info/emmo/middle/math#EMMO_d1d436e7_72fc_49cd_863b_7bfb4ba5276a" xlink:title="Parameter">
<ellipse fill="#ffffcc" stroke="#000000" cx="796.9464" cy="-18" rx="46.5926" ry="18"/>
<text text-anchor="middle" x="796.9464" y="-14.3" font-family="Times,serif" font-size="14.00" fill="#000000">Parameter</text>
</a>
</g>
</g>
<!-- Parameter&#45;&gt;Variable -->
<g id="edge5" class="edge">
<title>Parameter&#45;&gt;Variable</title>
<path fill="none" stroke="#000000" d="M772.8582,-33.6672C753.8312,-45.285 726.1987,-60.5205 699.9464,-69 645.6975,-86.5225 628.2776,-73.2732 572.9464,-87 569.7675,-87.7886 566.5088,-88.7047 563.2535,-89.6976"/>
<polygon fill="none" stroke="#000000" points="562.0003,-86.4249 553.5812,-92.8567 564.1737,-93.079 562.0003,-86.4249"/>
<text text-anchor="middle" x="746.4464" y="-57.8" font-family="Times,serif" font-size="14.00" fill="#000000">isA</text>
</g>
</g>
</svg>
