<?xml version="1.0" encoding="UTF-8" standalone="no"?>
<!DOCTYPE svg PUBLIC "-//W3C//DTD SVG 1.1//EN"
 "http://www.w3.org/Graphics/SVG/1.1/DTD/svg11.dtd">
<!-- Generated by graphviz version 2.40.1 (20161225.0304)
 -->
<!-- Title: %3 Pages: 1 -->
<svg width="530pt" height="305pt"
 viewBox="0.00 0.00 530.24 305.00" xmlns="http://www.w3.org/2000/svg" xmlns:xlink="http://www.w3.org/1999/xlink">
<g id="graph0" class="graph" transform="scale(1 1) rotate(0) translate(4 301)">
<title>%3</title>
<polygon fill="#ffffff" stroke="transparent" points="-4,4 -4,-301 526.2405,-301 526.2405,4 -4,4"/>
<!-- AlgebricOperator -->
<g id="node1" class="node">
<title>AlgebricOperator</title>
<g id="a_node1"><a xlink:href="http://emmo.info/emmo/top/math#EMMO_3c424d37_cf62_41b1_ac9d_a316f8d113d6" xlink:title="AlgebricOperator">
<ellipse fill="#ffffcc" stroke="#000000" cx="316.496" cy="-192" rx="72.5877" ry="18"/>
<text text-anchor="middle" x="316.496" y="-188.3" font-family="Times,serif" font-size="14.00" fill="#000000">AlgebricOperator</text>
</a>
</g>
</g>
<!-- MathematicalOperator -->
<g id="node4" class="node">
<title>MathematicalOperator</title>
<g id="a_node4"><a xlink:href="http://emmo.info/emmo/top/math#EMMO_f6d0c26a_98b6_4cf8_8632_aa259131faaa" xlink:title="MathematicalOperator">
<ellipse fill="#ffffcc" stroke="#000000" stroke-width="2" cx="229.496" cy="-279" rx="90.9839" ry="18"/>
<text text-anchor="middle" x="229.496" y="-275.3" font-family="Times,serif" font-size="14.00" fill="#000000">MathematicalOperator</text>
</a>
</g>
</g>
<!-- AlgebricOperator&#45;&gt;MathematicalOperator -->
<g id="edge3" class="edge">
<title>AlgebricOperator&#45;&gt;MathematicalOperator</title>
<path fill="none" stroke="#000000" d="M298.8902,-209.6057C286.1212,-222.3748 268.6719,-239.8241 254.4656,-254.0304"/>
<polygon fill="none" stroke="#000000" points="251.9703,-251.5758 247.3741,-261.1218 256.9201,-256.5256 251.9703,-251.5758"/>
<text text-anchor="middle" x="287.996" y="-231.8" font-family="Times,serif" font-size="14.00" fill="#000000">isA</text>
</g>
<!-- Laplacian -->
<g id="node2" class="node">
<title>Laplacian</title>
<g id="a_node2"><a xlink:href="http://emmo.info/emmo/top/math#EMMO_048a14e3_65fb_457d_8695_948965c89492" xlink:title="Laplacian">
<ellipse fill="#ffffcc" stroke="#000000" cx="45.496" cy="-105" rx="45.4919" ry="18"/>
<text text-anchor="middle" x="45.496" y="-101.3" font-family="Times,serif" font-size="14.00" fill="#000000">Laplacian</text>
</a>
</g>
</g>
<!-- DifferentialOperator -->
<g id="node5" class="node">
<title>DifferentialOperator</title>
<g id="a_node5"><a xlink:href="http://emmo.info/emmo/top/math#EMMO_f8a2fe9f_458b_4771_9aba_a50e76afc52d" xlink:title="DifferentialOperator">
<ellipse fill="#ffffcc" stroke="#000000" cx="142.496" cy="-192" rx="83.3857" ry="18"/>
<text text-anchor="middle" x="142.496" y="-188.3" font-family="Times,serif" font-size="14.00" fill="#000000">DifferentialOperator</text>
</a>
</g>
</g>
<!-- Laplacian&#45;&gt;DifferentialOperator -->
<g id="edge6" class="edge">
<title>Laplacian&#45;&gt;DifferentialOperator</title>
<path fill="none" stroke="#000000" d="M64.1985,-121.7745C78.6757,-134.7592 98.9362,-152.9309 115.2202,-167.5362"/>
<polygon fill="none" stroke="#000000" points="113.0706,-170.3097 122.852,-174.3812 117.7445,-165.0987 113.0706,-170.3097"/>
<text text-anchor="middle" x="109.996" y="-144.8" font-family="Times,serif" font-size="14.00" fill="#000000">isA</text>
</g>
<!-- Division -->
<g id="node3" class="node">
<title>Division</title>
<g id="a_node3"><a xlink:href="http://emmo.info/emmo/top/math#EMMO_a365b3c1_7bde_41d7_a15b_2820762e85f4" xlink:title="Division">
<ellipse fill="#ffffcc" stroke="#000000" cx="181.496" cy="-18" rx="40.8928" ry="18"/>
<text text-anchor="middle" x="181.496" y="-14.3" font-family="Times,serif" font-size="14.00" fill="#000000">Division</text>
</a>
</g>
</g>
<!-- ArithmeticOperator -->
<g id="node7" class="node">
<title>ArithmeticOperator</title>
<g id="a_node7"><a xlink:href="http://emmo.info/emmo/middle/math#EMMO_707f0cd1_941c_4b57_9f20_d0ba30cd6ff3" xlink:title="ArithmeticOperator">
<ellipse fill="#ffffcc" stroke="#000000" cx="307.496" cy="-105" rx="80.6858" ry="18"/>
<text text-anchor="middle" x="307.496" y="-101.3" font-family="Times,serif" font-size="14.00" fill="#000000">ArithmeticOperator</text>
</a>
</g>
</g>
<!-- Division&#45;&gt;ArithmeticOperator -->
<g id="edge1" class="edge">
<title>Division&#45;&gt;ArithmeticOperator</title>
<path fill="none" stroke="#000000" d="M203.7322,-33.3536C223.1915,-46.7898 251.7437,-66.5044 273.974,-81.8539"/>
<polygon fill="none" stroke="#000000" points="272.2388,-84.909 282.4565,-87.7108 276.2162,-79.1487 272.2388,-84.909"/>
<text text-anchor="middle" x="261.996" y="-57.8" font-family="Times,serif" font-size="14.00" fill="#000000">isA</text>
</g>
<!-- DifferentialOperator&#45;&gt;MathematicalOperator -->
<g id="edge4" class="edge">
<title>DifferentialOperator&#45;&gt;MathematicalOperator</title>
<path fill="none" stroke="#000000" d="M160.1017,-209.6057C172.8707,-222.3748 190.32,-239.8241 204.5264,-254.0304"/>
<polygon fill="none" stroke="#000000" points="202.0718,-256.5256 211.6178,-261.1218 207.0216,-251.5758 202.0718,-256.5256"/>
<text text-anchor="middle" x="200.996" y="-231.8" font-family="Times,serif" font-size="14.00" fill="#000000">isA</text>
</g>
<!-- Plus -->
<g id="node6" class="node">
<title>Plus</title>
<g id="a_node6"><a xlink:href="http://emmo.info/emmo/top/math#EMMO_8de14a59_660b_454f_aff8_76a07ce185f4" xlink:title="Plus">
<ellipse fill="#ffffcc" stroke="#000000" cx="267.496" cy="-18" rx="27" ry="18"/>
<text text-anchor="middle" x="267.496" y="-14.3" font-family="Times,serif" font-size="14.00" fill="#000000">Plus</text>
</a>
</g>
</g>
<!-- Plus&#45;&gt;ArithmeticOperator -->
<g id="edge8" class="edge">
<title>Plus&#45;&gt;ArithmeticOperator</title>
<path fill="none" stroke="#000000" d="M275.5906,-35.6057C281.1015,-47.592 288.5085,-63.7022 294.7985,-77.383"/>
<polygon fill="none" stroke="#000000" points="291.7807,-79.1979 299.1381,-86.8215 298.1407,-76.2738 291.7807,-79.1979"/>
<text text-anchor="middle" x="299.996" y="-57.8" font-family="Times,serif" font-size="14.00" fill="#000000">isA</text>
</g>
<!-- ArithmeticOperator&#45;&gt;AlgebricOperator -->
<g id="edge7" class="edge">
<title>ArithmeticOperator&#45;&gt;AlgebricOperator</title>
<path fill="none" stroke="#000000" d="M309.3608,-123.0265C310.5796,-134.8082 312.1966,-150.4393 313.5831,-163.8419"/>
<polygon fill="none" stroke="#000000" points="310.123,-164.4099 314.6335,-173.9966 317.0859,-163.6895 310.123,-164.4099"/>
<text text-anchor="middle" x="322.996" y="-144.8" font-family="Times,serif" font-size="14.00" fill="#000000">isA</text>
</g>
<!-- Minus -->
<g id="node8" class="node">
<title>Minus</title>
<g id="a_node8"><a xlink:href="http://emmo.info/emmo/top/math#EMMO_46d5643b_9706_4b67_8bea_ed77d6026539" xlink:title="Minus">
<ellipse fill="#ffffcc" stroke="#000000" cx="346.496" cy="-18" rx="33.5952" ry="18"/>
<text text-anchor="middle" x="346.496" y="-14.3" font-family="Times,serif" font-size="14.00" fill="#000000">Minus</text>
</a>
</g>
</g>
<!-- Minus&#45;&gt;ArithmeticOperator -->
<g id="edge2" class="edge">
<title>Minus&#45;&gt;ArithmeticOperator</title>
<path fill="none" stroke="#000000" d="M338.6037,-35.6057C333.2306,-47.592 326.0088,-63.7022 319.876,-77.383"/>
<polygon fill="none" stroke="#000000" points="316.5418,-76.2647 315.6449,-86.8215 322.9293,-79.1282 316.5418,-76.2647"/>
<text text-anchor="middle" x="338.996" y="-57.8" font-family="Times,serif" font-size="14.00" fill="#000000">isA</text>
</g>
<!-- Multiplication -->
<g id="node9" class="node">
<title>Multiplication</title>
<g id="a_node9"><a xlink:href="http://emmo.info/emmo/top/math#EMMO_2b1303e8_d4c3_453b_9918_76f1d009543f" xlink:title="Multiplication">
<ellipse fill="#ffffcc" stroke="#000000" cx="460.496" cy="-18" rx="61.99" ry="18"/>
<text text-anchor="middle" x="460.496" y="-14.3" font-family="Times,serif" font-size="14.00" fill="#000000">Multiplication</text>
</a>
</g>
</g>
<!-- Multiplication&#45;&gt;ArithmeticOperator -->
<g id="edge9" class="edge">
<title>Multiplication&#45;&gt;ArithmeticOperator</title>
<path fill="none" stroke="#000000" d="M432.0764,-34.1601C407.7745,-47.9789 372.5862,-67.9879 345.8011,-83.2187"/>
<polygon fill="none" stroke="#000000" points="344.0303,-80.1993 337.0674,-88.1849 347.4904,-86.2843 344.0303,-80.1993"/>
<text text-anchor="middle" x="402.996" y="-57.8" font-family="Times,serif" font-size="14.00" fill="#000000">isA</text>
</g>
<!-- Exponent -->
<g id="node10" class="node">
<title>Exponent</title>
<g id="a_node10"><a xlink:href="http://emmo.info/emmo/top/math#EMMO_223d9523_4169_4ecd_b8af_acad1215e1ff" xlink:title="Exponent">
<ellipse fill="#ffffcc" stroke="#000000" cx="450.496" cy="-105" rx="44.393" ry="18"/>
<text text-anchor="middle" x="450.496" y="-101.3" font-family="Times,serif" font-size="14.00" fill="#000000">Exponent</text>
</a>
</g>
</g>
<!-- Exponent&#45;&gt;AlgebricOperator -->
<g id="edge5" class="edge">
<title>Exponent&#45;&gt;AlgebricOperator</title>
<path fill="none" stroke="#000000" d="M426.8479,-120.3536C405.8361,-133.9956 374.8556,-154.1098 351.0648,-169.5561"/>
<polygon fill="none" stroke="#000000" points="349.1382,-166.6339 342.6568,-175.015 352.9501,-172.505 349.1382,-166.6339"/>
<text text-anchor="middle" x="401.996" y="-144.8" font-family="Times,serif" font-size="14.00" fill="#000000">isA</text>
</g>
<!-- Gradient -->
<g id="node11" class="node">
<title>Gradient</title>
<g id="a_node11"><a xlink:href="http://emmo.info/emmo/top/math#EMMO_b5c58790_fb2d_42eb_b184_2a3f6ca60acb" xlink:title="Gradient">
<ellipse fill="#ffffcc" stroke="#000000" cx="150.496" cy="-105" rx="41.6928" ry="18"/>
<text text-anchor="middle" x="150.496" y="-101.3" font-family="Times,serif" font-size="14.00" fill="#000000">Gradient</text>
</a>
</g>
</g>
<!-- Gradient&#45;&gt;DifferentialOperator -->
<g id="edge10" class="edge">
<title>Gradient&#45;&gt;DifferentialOperator</title>
<path fill="none" stroke="#000000" d="M148.8384,-123.0265C147.755,-134.8082 146.3176,-150.4393 145.0852,-163.8419"/>
<polygon fill="none" stroke="#000000" points="141.5819,-163.7181 144.1514,-173.9966 148.5525,-164.3592 141.5819,-163.7181"/>
<text text-anchor="middle" x="156.996" y="-144.8" font-family="Times,serif" font-size="14.00" fill="#000000">isA</text>
</g>
</g>
</svg>
