<?xml version="1.0" encoding="UTF-8" standalone="no"?>
<!DOCTYPE svg PUBLIC "-//W3C//DTD SVG 1.1//EN"
 "http://www.w3.org/Graphics/SVG/1.1/DTD/svg11.dtd">
<!-- Generated by graphviz version 2.40.1 (20161225.0304)
 -->
<!-- Title: %3 Pages: 1 -->
<svg width="862pt" height="392pt"
 viewBox="0.00 0.00 861.84 392.00" xmlns="http://www.w3.org/2000/svg" xmlns:xlink="http://www.w3.org/1999/xlink">
<g id="graph0" class="graph" transform="scale(1 1) rotate(0) translate(4 388)">
<title>%3</title>
<polygon fill="#ffffff" stroke="transparent" points="-4,4 -4,-388 857.8403,-388 857.8403,4 -4,4"/>
<!-- SIUnit -->
<g id="node1" class="node">
<title>SIUnit</title>
<g id="a_node1"><a xlink:href="http://emmo.info/emmo/middle/siunits#EMMO_feb03a8a_bbb6_4918_a891_46713ef557f4" xlink:title="SIUnit">
<ellipse fill="#ffffcc" stroke="#000000" cx="202.8403" cy="-279" rx="34.394" ry="18"/>
<text text-anchor="middle" x="202.8403" y="-275.3" font-family="Times,serif" font-size="14.00" fill="#000000">SIUnit</text>
</a>
</g>
</g>
<!-- MeasurementUnit -->
<g id="node6" class="node">
<title>MeasurementUnit</title>
<g id="a_node6"><a xlink:href="http://emmo.info/emmo/middle/units#EMMO_b081b346_7279_46ef_9a3d_2c088fcd79f4" xlink:title="MeasurementUnit">
<ellipse fill="#ffffcc" stroke="#000000" stroke-width="2" cx="329.8403" cy="-366" rx="75.2868" ry="18"/>
<text text-anchor="middle" x="329.8403" y="-362.3" font-family="Times,serif" font-size="14.00" fill="#000000">MeasurementUnit</text>
</a>
</g>
</g>
<!-- SIUnit&#45;&gt;MeasurementUnit -->
<g id="edge4" class="edge">
<title>SIUnit&#45;&gt;MeasurementUnit</title>
<path fill="none" stroke="#000000" d="M223.8117,-293.3663C243.5527,-306.8896 273.4425,-327.3653 296.4603,-343.1334"/>
<polygon fill="none" stroke="#000000" points="294.6822,-346.1578 304.9101,-348.9219 298.6383,-340.3829 294.6822,-346.1578"/>
<text text-anchor="middle" x="284.3403" y="-318.8" font-family="Times,serif" font-size="14.00" fill="#000000">isA</text>
</g>
<!-- BaseUnit -->
<g id="node2" class="node">
<title>BaseUnit</title>
<g id="a_node2"><a xlink:href="http://emmo.info/emmo/middle/units#EMMO_db716151_6b73_45ff_910c_d182fdcbb4f5" xlink:title="BaseUnit">
<ellipse fill="#ffffcc" stroke="#000000" cx="753.8403" cy="-105" rx="43.5923" ry="18"/>
<text text-anchor="middle" x="753.8403" y="-101.3" font-family="Times,serif" font-size="14.00" fill="#000000">BaseUnit</text>
</a>
</g>
</g>
<!-- UnitSymbol -->
<g id="node14" class="node">
<title>UnitSymbol</title>
<g id="a_node14"><a xlink:href="http://emmo.info/emmo/middle/units#EMMO_216f448e_cdbc_4aeb_a529_7a5fe7fc38bb" xlink:title="UnitSymbol">
<ellipse fill="#ffc880" stroke="#000000" cx="639.8403" cy="-192" rx="53.8905" ry="18"/>
<text text-anchor="middle" x="639.8403" y="-188.3" font-family="Times,serif" font-size="14.00" fill="#000000">UnitSymbol</text>
</a>
</g>
</g>
<!-- BaseUnit&#45;&gt;UnitSymbol -->
<g id="edge18" class="edge">
<title>BaseUnit&#45;&gt;UnitSymbol</title>
<path fill="none" stroke="#000000" d="M732.9309,-120.9571C715.2702,-134.435 689.7572,-153.9055 669.9048,-169.056"/>
<polygon fill="none" stroke="#000000" points="667.6088,-166.4054 661.7826,-175.2545 671.8555,-171.9701 667.6088,-166.4054"/>
<text text-anchor="middle" x="712.3403" y="-144.8" font-family="Times,serif" font-size="14.00" fill="#000000">isA</text>
</g>
<!-- KindOfUnit -->
<g id="node3" class="node">
<title>KindOfUnit</title>
<g id="a_node3"><a xlink:href="http://emmo.info/emmo/middle/units#EMMO_ba827fd2_91cc_4085_947a_0f47559b4441" xlink:title="KindOfUnit">
<ellipse fill="#ffffcc" stroke="#000000" stroke-width="2" cx="308.8403" cy="-279" rx="53.0913" ry="18"/>
<text text-anchor="middle" x="308.8403" y="-275.3" font-family="Times,serif" font-size="14.00" fill="#000000">KindOfUnit</text>
</a>
</g>
</g>
<!-- KindOfUnit&#45;&gt;MeasurementUnit -->
<g id="edge12" class="edge">
<title>KindOfUnit&#45;&gt;MeasurementUnit</title>
<path fill="none" stroke="#000000" d="M313.1915,-297.0265C316.0635,-308.9249 319.8832,-324.7492 323.1394,-338.2394"/>
<polygon fill="none" stroke="#000000" points="319.7458,-339.0971 325.4946,-347.9966 326.5504,-337.4545 319.7458,-339.0971"/>
<text text-anchor="middle" x="330.3403" y="-318.8" font-family="Times,serif" font-size="14.00" fill="#000000">isA</text>
</g>
<!-- SINonCoherentDerivedUnit -->
<g id="node4" class="node">
<title>SINonCoherentDerivedUnit</title>
<g id="a_node4"><a xlink:href="http://emmo.info/emmo/middle/siunits#EMMO_60b78cc3_6011_4134_95ab_956f56d4bdc1" xlink:title="SINonCoherentDerivedUnit">
<ellipse fill="#ffffcc" stroke="#000000" cx="109.8403" cy="-105" rx="109.6807" ry="18"/>
<text text-anchor="middle" x="109.8403" y="-101.3" font-family="Times,serif" font-size="14.00" fill="#000000">SINonCoherentDerivedUnit</text>
</a>
</g>
</g>
<!-- SINonCoherentUnit -->
<g id="node8" class="node">
<title>SINonCoherentUnit</title>
<g id="a_node8"><a xlink:href="http://emmo.info/emmo/middle/siunits#EMMO_8246541a_f1f6_4d03_8bd7_fc6b76d17375" xlink:title="SINonCoherentUnit">
<ellipse fill="#ffffcc" stroke="#000000" cx="138.8403" cy="-192" rx="81.4863" ry="18"/>
<text text-anchor="middle" x="138.8403" y="-188.3" font-family="Times,serif" font-size="14.00" fill="#000000">SINonCoherentUnit</text>
</a>
</g>
</g>
<!-- SINonCoherentDerivedUnit&#45;&gt;SINonCoherentUnit -->
<g id="edge19" class="edge">
<title>SINonCoherentDerivedUnit&#45;&gt;SINonCoherentUnit</title>
<path fill="none" stroke="#000000" d="M115.8491,-123.0265C119.8152,-134.9249 125.09,-150.7492 129.5867,-164.2394"/>
<polygon fill="none" stroke="#000000" points="126.3564,-165.6166 132.8391,-173.9966 132.9972,-163.403 126.3564,-165.6166"/>
<text text-anchor="middle" x="136.3403" y="-144.8" font-family="Times,serif" font-size="14.00" fill="#000000">isA</text>
</g>
<!-- PrefixedUnit -->
<g id="node5" class="node">
<title>PrefixedUnit</title>
<g id="a_node5"><a xlink:href="http://emmo.info/emmo/middle/units#EMMO_c6d4a5e0_7e95_44df_a6db_84ee0a8bbc8e" xlink:title="PrefixedUnit">
<ellipse fill="#ffffcc" stroke="#000000" stroke-width="2" cx="435.8403" cy="-279" rx="55.7903" ry="18"/>
<text text-anchor="middle" x="435.8403" y="-275.3" font-family="Times,serif" font-size="14.00" fill="#000000">PrefixedUnit</text>
</a>
</g>
</g>
<!-- PrefixedUnit&#45;&gt;MeasurementUnit -->
<g id="edge7" class="edge">
<title>PrefixedUnit&#45;&gt;MeasurementUnit</title>
<path fill="none" stroke="#000000" d="M415.4024,-295.7745C399.3338,-308.9628 376.7455,-327.5023 358.8126,-342.2208"/>
<polygon fill="none" stroke="#000000" points="356.4502,-339.6318 350.9409,-348.6815 360.8913,-345.0427 356.4502,-339.6318"/>
<text text-anchor="middle" x="399.3403" y="-318.8" font-family="Times,serif" font-size="14.00" fill="#000000">isA</text>
</g>
<!-- PrefixedUnit&#45;&gt;UnitSymbol -->
<g id="edge8" class="edge">
<title>PrefixedUnit&#45;&gt;UnitSymbol</title>
<path fill="none" stroke="#006400" d="M399.3067,-265.1046C379.3404,-255.5024 361.0425,-241.9827 373.8403,-228 389.1286,-211.2961 554.5758,-214.129 576.8403,-210 581.3018,-209.1726 585.9026,-208.166 590.491,-207.0561"/>
<polygon fill="#006400" stroke="#006400" points="591.645,-210.3733 600.4569,-204.491 589.9,-203.5942 591.645,-210.3733"/>
<text text-anchor="middle" x="456.3403" y="-231.8" font-family="Times,serif" font-size="14.00" fill="#000000">hasSpatialDirectPart exactly 1</text>
</g>
<!-- SICoherentDerivedUnit -->
<g id="node7" class="node">
<title>SICoherentDerivedUnit</title>
<g id="a_node7"><a xlink:href="http://emmo.info/emmo/middle/siunits#EMMO_1273eb34_de48_43a9_925f_104110469dd2" xlink:title="SICoherentDerivedUnit">
<ellipse fill="#ffffcc" stroke="#000000" cx="332.8403" cy="-105" rx="94.7833" ry="18"/>
<text text-anchor="middle" x="332.8403" y="-101.3" font-family="Times,serif" font-size="14.00" fill="#000000">SICoherentDerivedUnit</text>
</a>
</g>
</g>
<!-- SICoherentUnit -->
<g id="node16" class="node">
<title>SICoherentUnit</title>
<g id="a_node16"><a xlink:href="http://emmo.info/emmo/middle/siunits#EMMO_707c6032_e272_4a20_98b5_d35c4f67be68" xlink:title="SICoherentUnit">
<ellipse fill="#ffffcc" stroke="#000000" cx="332.8403" cy="-192" rx="66.0889" ry="18"/>
<text text-anchor="middle" x="332.8403" y="-188.3" font-family="Times,serif" font-size="14.00" fill="#000000">SICoherentUnit</text>
</a>
</g>
</g>
<!-- SICoherentDerivedUnit&#45;&gt;SICoherentUnit -->
<g id="edge1" class="edge">
<title>SICoherentDerivedUnit&#45;&gt;SICoherentUnit</title>
<path fill="none" stroke="#000000" d="M332.8403,-123.0265C332.8403,-134.8082 332.8403,-150.4393 332.8403,-163.8419"/>
<polygon fill="none" stroke="#000000" points="329.3404,-163.9966 332.8403,-173.9966 336.3404,-163.9967 329.3404,-163.9966"/>
<text text-anchor="middle" x="342.3403" y="-144.8" font-family="Times,serif" font-size="14.00" fill="#000000">isA</text>
</g>
<!-- SINonCoherentUnit&#45;&gt;SIUnit -->
<g id="edge14" class="edge">
<title>SINonCoherentUnit&#45;&gt;SIUnit</title>
<path fill="none" stroke="#000000" d="M152.1011,-210.0265C161.4398,-222.7212 174.066,-239.885 184.3867,-253.9147"/>
<polygon fill="none" stroke="#000000" points="181.7198,-256.196 190.4649,-262.1772 187.3585,-252.048 181.7198,-256.196"/>
<text text-anchor="middle" x="184.3403" y="-231.8" font-family="Times,serif" font-size="14.00" fill="#000000">isA</text>
</g>
<!-- DerivedUnit -->
<g id="node9" class="node">
<title>DerivedUnit</title>
<g id="a_node9"><a xlink:href="http://emmo.info/emmo/middle/units#EMMO_08b308d4_31cd_4779_a784_aa92fc730f39" xlink:title="DerivedUnit">
<ellipse fill="#ffffcc" stroke="#000000" cx="512.8403" cy="-192" rx="54.6905" ry="18"/>
<text text-anchor="middle" x="512.8403" y="-188.3" font-family="Times,serif" font-size="14.00" fill="#000000">DerivedUnit</text>
</a>
</g>
</g>
<!-- NonPrefixedUnit -->
<g id="node15" class="node">
<title>NonPrefixedUnit</title>
<g id="a_node15"><a xlink:href="http://emmo.info/emmo/middle/units#EMMO_868ae137_4d25_493e_b270_21ea3d94849e" xlink:title="NonPrefixedUnit">
<ellipse fill="#ffffcc" stroke="#000000" cx="580.8403" cy="-279" rx="71.4873" ry="18"/>
<text text-anchor="middle" x="580.8403" y="-275.3" font-family="Times,serif" font-size="14.00" fill="#000000">NonPrefixedUnit</text>
</a>
</g>
</g>
<!-- DerivedUnit&#45;&gt;NonPrefixedUnit -->
<g id="edge3" class="edge">
<title>DerivedUnit&#45;&gt;NonPrefixedUnit</title>
<path fill="none" stroke="#000000" d="M526.6011,-209.6057C536.3068,-222.0233 549.472,-238.8671 560.4013,-252.8502"/>
<polygon fill="none" stroke="#000000" points="557.9507,-255.3983 566.8665,-261.1218 563.4659,-251.0876 557.9507,-255.3983"/>
<text text-anchor="middle" x="561.3403" y="-231.8" font-family="Times,serif" font-size="14.00" fill="#000000">isA</text>
</g>
<!-- UnitOne -->
<g id="node10" class="node">
<title>UnitOne</title>
<g id="a_node10"><a xlink:href="http://emmo.info/emmo/middle/units#EMMO_5ebd5e01_0ed3_49a2_a30d_cd05cbe72978" xlink:title="UnitOne">
<ellipse fill="#ffffcc" stroke="#000000" cx="753.8403" cy="-18" rx="40.8928" ry="18"/>
<text text-anchor="middle" x="753.8403" y="-14.3" font-family="Times,serif" font-size="14.00" fill="#000000">UnitOne</text>
</a>
</g>
</g>
<!-- UnitOne&#45;&gt;BaseUnit -->
<g id="edge2" class="edge">
<title>UnitOne&#45;&gt;BaseUnit</title>
<path fill="none" stroke="#000000" d="M753.8403,-36.0265C753.8403,-47.8082 753.8403,-63.4393 753.8403,-76.8419"/>
<polygon fill="none" stroke="#000000" points="750.3404,-76.9966 753.8403,-86.9966 757.3404,-76.9967 750.3404,-76.9966"/>
<text text-anchor="middle" x="763.3403" y="-57.8" font-family="Times,serif" font-size="14.00" fill="#000000">isA</text>
</g>
<!-- SISpecialUnit -->
<g id="node11" class="node">
<title>SISpecialUnit</title>
<g id="a_node11"><a xlink:href="http://emmo.info/emmo/middle/siunits#EMMO_e9ffc696_5228_4ff9_8a60_0f5e05e9931b" xlink:title="SISpecialUnit">
<ellipse fill="#ffffcc" stroke="#000000" stroke-width="2" cx="615.8403" cy="-18" rx="59.5901" ry="18"/>
<text text-anchor="middle" x="615.8403" y="-14.3" font-family="Times,serif" font-size="14.00" fill="#000000">SISpecialUnit</text>
</a>
</g>
</g>
<!-- SpecialUnit -->
<g id="node12" class="node">
<title>SpecialUnit</title>
<g id="a_node12"><a xlink:href="http://emmo.info/emmo/middle/units#EMMO_3ee80521_3c23_4dd1_935d_9d522614a3e2" xlink:title="SpecialUnit">
<ellipse fill="#ffffcc" stroke="#000000" cx="639.8403" cy="-105" rx="51.9908" ry="18"/>
<text text-anchor="middle" x="639.8403" y="-101.3" font-family="Times,serif" font-size="14.00" fill="#000000">SpecialUnit</text>
</a>
</g>
</g>
<!-- SISpecialUnit&#45;&gt;SpecialUnit -->
<g id="edge10" class="edge">
<title>SISpecialUnit&#45;&gt;SpecialUnit</title>
<path fill="none" stroke="#000000" d="M620.8131,-36.0265C624.0954,-47.9249 628.4607,-63.7492 632.1821,-77.2394"/>
<polygon fill="none" stroke="#000000" points="628.8405,-78.2875 634.8738,-86.9966 635.5884,-76.4259 628.8405,-78.2875"/>
<text text-anchor="middle" x="638.3403" y="-57.8" font-family="Times,serif" font-size="14.00" fill="#000000">isA</text>
</g>
<!-- SIUnitSymbol -->
<g id="node13" class="node">
<title>SIUnitSymbol</title>
<g id="a_node13"><a xlink:href="http://emmo.info/emmo/middle/siunits#EMMO_32129fb5_df25_48fd_a29c_18a2f22a2dd5" xlink:title="SIUnitSymbol">
<ellipse fill="#ffffcc" stroke="#000000" cx="507.8403" cy="-105" rx="61.99" ry="18"/>
<text text-anchor="middle" x="507.8403" y="-101.3" font-family="Times,serif" font-size="14.00" fill="#000000">SIUnitSymbol</text>
</a>
</g>
</g>
<!-- SISpecialUnit&#45;&gt;SIUnitSymbol -->
<g id="edge9" class="edge">
<title>SISpecialUnit&#45;&gt;SIUnitSymbol</title>
<path fill="none" stroke="#000000" d="M594.7604,-34.981C578.2579,-48.2747 555.1225,-66.9115 536.8689,-81.6158"/>
<polygon fill="none" stroke="#000000" points="534.4589,-79.0628 528.867,-88.0618 538.8502,-84.5141 534.4589,-79.0628"/>
<text text-anchor="middle" x="578.3403" y="-57.8" font-family="Times,serif" font-size="14.00" fill="#000000">isA</text>
</g>
<!-- SpecialUnit&#45;&gt;DerivedUnit -->
<g id="edge16" class="edge">
<title>SpecialUnit&#45;&gt;DerivedUnit</title>
<path fill="none" stroke="#ffa500" d="M679.4775,-116.8544C699.2693,-123.6572 720.1909,-132.5108 725.8403,-141 729.5337,-146.5501 730.2626,-151.0113 725.8403,-156 703.7163,-180.9575 609.5457,-167.4657 576.8403,-174 572.2032,-174.9264 567.4112,-176.0174 562.6327,-177.1964"/>
<polygon fill="#ffa500" stroke="#ffa500" points="552.02,-176.3273 562.5779,-177.2105 553.7737,-183.1041 552.02,-176.3273"/>
<text text-anchor="middle" x="791.3403" y="-144.8" font-family="Times,serif" font-size="14.00" fill="#000000">Inverse(hasSign) some</text>
</g>
<!-- SpecialUnit&#45;&gt;UnitSymbol -->
<g id="edge15" class="edge">
<title>SpecialUnit&#45;&gt;UnitSymbol</title>
<path fill="none" stroke="#000000" d="M639.8403,-123.0265C639.8403,-134.8082 639.8403,-150.4393 639.8403,-163.8419"/>
<polygon fill="none" stroke="#000000" points="636.3404,-163.9966 639.8403,-173.9966 643.3404,-163.9967 636.3404,-163.9966"/>
<text text-anchor="middle" x="649.3403" y="-144.8" font-family="Times,serif" font-size="14.00" fill="#000000">isA</text>
</g>
<!-- SIUnitSymbol&#45;&gt;UnitSymbol -->
<g id="edge6" class="edge">
<title>SIUnitSymbol&#45;&gt;UnitSymbol</title>
<path fill="none" stroke="#000000" d="M532.9791,-121.5688C553.9389,-135.3832 583.9629,-155.1717 606.8523,-170.2579"/>
<polygon fill="none" stroke="#000000" points="604.9661,-173.2066 615.2418,-175.7874 608.8183,-167.3618 604.9661,-173.2066"/>
<text text-anchor="middle" x="591.3403" y="-144.8" font-family="Times,serif" font-size="14.00" fill="#000000">isA</text>
</g>
<!-- SIUnitSymbol&#45;&gt;SICoherentUnit -->
<g id="edge5" class="edge">
<title>SIUnitSymbol&#45;&gt;SICoherentUnit</title>
<path fill="none" stroke="#000000" d="M476.5538,-120.5539C447.9539,-134.7721 405.4594,-155.8979 374.0921,-171.4919"/>
<polygon fill="none" stroke="#000000" points="372.1388,-168.5543 364.7424,-176.1401 375.255,-174.8224 372.1388,-168.5543"/>
<text text-anchor="middle" x="440.3403" y="-144.8" font-family="Times,serif" font-size="14.00" fill="#000000">isA</text>
</g>
<!-- UnitSymbol&#45;&gt;NonPrefixedUnit -->
<g id="edge13" class="edge">
<title>UnitSymbol&#45;&gt;NonPrefixedUnit</title>
<path fill="none" stroke="#000000" d="M627.9007,-209.6057C619.5591,-221.9062 608.2721,-238.5497 598.8429,-252.4537"/>
<polygon fill="none" stroke="#000000" points="595.6805,-250.881 592.9645,-261.1218 601.474,-254.8099 595.6805,-250.881"/>
<text text-anchor="middle" x="623.3403" y="-231.8" font-family="Times,serif" font-size="14.00" fill="#000000">isA</text>
</g>
<!-- NonPrefixedUnit&#45;&gt;MeasurementUnit -->
<g id="edge17" class="edge">
<title>NonPrefixedUnit&#45;&gt;MeasurementUnit</title>
<path fill="none" stroke="#000000" d="M538.5454,-293.66C495.5017,-308.5795 428.6916,-331.7368 382.3022,-347.816"/>
<polygon fill="none" stroke="#000000" points="381.0313,-344.5521 372.7291,-351.1341 383.3239,-351.1661 381.0313,-344.5521"/>
<text text-anchor="middle" x="480.3403" y="-318.8" font-family="Times,serif" font-size="14.00" fill="#000000">isA</text>
</g>
<!-- SICoherentUnit&#45;&gt;SIUnit -->
<g id="edge11" class="edge">
<title>SICoherentUnit&#45;&gt;SIUnit</title>
<path fill="none" stroke="#000000" d="M307.7749,-208.7745C286.4104,-223.0723 255.6481,-243.6594 232.9514,-258.8487"/>
<polygon fill="none" stroke="#000000" points="230.7441,-256.1144 224.38,-264.5849 234.6373,-261.9319 230.7441,-256.1144"/>
<text text-anchor="middle" x="285.3403" y="-231.8" font-family="Times,serif" font-size="14.00" fill="#000000">isA</text>
</g>
</g>
</svg>
