<?xml version="1.0" encoding="UTF-8" standalone="no"?>
<!DOCTYPE svg PUBLIC "-//W3C//DTD SVG 1.1//EN"
 "http://www.w3.org/Graphics/SVG/1.1/DTD/svg11.dtd">
<!-- Generated by graphviz version 2.40.1 (20161225.0304)
 -->
<!-- Title: %3 Pages: 1 -->
<svg width="184pt" height="131pt"
 viewBox="0.00 0.00 184.00 131.00" xmlns="http://www.w3.org/2000/svg" xmlns:xlink="http://www.w3.org/1999/xlink">
<g id="graph0" class="graph" transform="scale(1 1) rotate(0) translate(4 127)">
<title>%3</title>
<polygon fill="#ffffff" stroke="transparent" points="-4,4 -4,-127 180,-127 180,4 -4,4"/>
<!-- connected -->
<g id="node1" class="node">
<title>connected</title>
<g id="a_node1"><a xlink:href="http://emmo.info/emmo/top/mereotopology#EMMO_6703954e_34c4_4a15_a9e7_f313760ae1a8" xlink:title="connected">
<polygon fill="#0079ba" stroke="#000000" stroke-width="2" points="71,-36 0,-36 0,0 71,0 71,-36"/>
<text text-anchor="middle" x="35.5" y="-14.3" font-family="Times,serif" font-size="14.00" fill="#ffffff">connected</text>
</a>
</g>
</g>
<!-- mereotopological -->
<g id="node2" class="node">
<title>mereotopological</title>
<g id="a_node2"><a xlink:href="http://emmo.info/emmo/top/mereotopology#EMMO_03212fd7_abfd_4828_9c8e_62c293052d4b" xlink:title="mereotopological">
<polygon fill="#0079ba" stroke="#000000" stroke-width="2" points="139.5,-123 27.5,-123 27.5,-87 139.5,-87 139.5,-123"/>
<text text-anchor="middle" x="83.5" y="-101.3" font-family="Times,serif" font-size="14.00" fill="#ffffff">mereotopological</text>
</a>
</g>
</g>
<!-- connected&#45;&gt;mereotopological -->
<g id="edge2" class="edge">
<title>connected&#45;&gt;mereotopological</title>
<path fill="none" stroke="#000000" d="M45.4456,-36.0265C52.139,-48.1582 61.0842,-64.3713 68.6201,-78.0302"/>
<polygon fill="none" stroke="#000000" points="65.6718,-79.9316 73.5671,-86.9966 71.8008,-76.5501 65.6718,-79.9316"/>
<text text-anchor="middle" x="72" y="-57.8" font-family="Times,serif" font-size="14.00" fill="#000000">isA</text>
</g>
<!-- disconnected -->
<g id="node3" class="node">
<title>disconnected</title>
<g id="a_node3"><a xlink:href="http://emmo.info/emmo/top/mereotopology#EMMO_517dfaf9_4970_41ac_81ee_d031627d2c7c" xlink:title="disconnected">
<polygon fill="#0079ba" stroke="#000000" points="176,-36 89,-36 89,0 176,0 176,-36"/>
<text text-anchor="middle" x="132.5" y="-14.3" font-family="Times,serif" font-size="14.00" fill="#ffffff">disconnected</text>
</a>
</g>
</g>
<!-- disconnected&#45;&gt;mereotopological -->
<g id="edge1" class="edge">
<title>disconnected&#45;&gt;mereotopological</title>
<path fill="none" stroke="#000000" d="M122.3472,-36.0265C115.5144,-48.1582 106.3828,-64.3713 98.6899,-78.0302"/>
<polygon fill="none" stroke="#000000" points="95.4977,-76.5659 93.6398,-86.9966 101.5968,-80.0011 95.4977,-76.5659"/>
<text text-anchor="middle" x="120" y="-57.8" font-family="Times,serif" font-size="14.00" fill="#000000">isA</text>
</g>
</g>
</svg>
