<?xml version="1.0" encoding="UTF-8" standalone="no"?>
<!DOCTYPE svg PUBLIC "-//W3C//DTD SVG 1.1//EN"
 "http://www.w3.org/Graphics/SVG/1.1/DTD/svg11.dtd">
<!-- Generated by graphviz version 2.40.1 (20161225.0304)
 -->
<!-- Title: %3 Pages: 1 -->
<svg width="809pt" height="218pt"
 viewBox="0.00 0.00 809.09 218.00" xmlns="http://www.w3.org/2000/svg" xmlns:xlink="http://www.w3.org/1999/xlink">
<g id="graph0" class="graph" transform="scale(1 1) rotate(0) translate(4 214)">
<title>%3</title>
<polygon fill="#ffffff" stroke="transparent" points="-4,4 -4,-214 805.0865,-214 805.0865,4 -4,4"/>
<!-- MetrologicalSymbol -->
<g id="node1" class="node">
<title>MetrologicalSymbol</title>
<g id="a_node1"><a xlink:href="http://emmo.info/emmo/middle/units#EMMO_50a3552e_859a_4ff7_946d_76d537cabce6" xlink:title="MetrologicalSymbol">
<ellipse fill="#ffc880" stroke="#000000" cx="646.3933" cy="-105" rx="84.485" ry="18"/>
<text text-anchor="middle" x="646.3933" y="-101.3" font-family="Times,serif" font-size="14.00" fill="#000000">MetrologicalSymbol</text>
</a>
</g>
</g>
<!-- Metrological -->
<g id="node5" class="node">
<title>Metrological</title>
<g id="a_node5"><a xlink:href="http://emmo.info/emmo/middle/units#EMMO_985bec21_989f_4b9e_a4b3_735d88099c3c" xlink:title="Metrological">
<ellipse fill="#ffffcc" stroke="#000000" stroke-width="2" cx="502.3933" cy="-192" rx="56.59" ry="18"/>
<text text-anchor="middle" x="502.3933" y="-188.3" font-family="Times,serif" font-size="14.00" fill="#000000">Metrological</text>
</a>
</g>
</g>
<!-- MetrologicalSymbol&#45;&gt;Metrological -->
<g id="edge7" class="edge">
<title>MetrologicalSymbol&#45;&gt;Metrological</title>
<path fill="none" stroke="#000000" d="M618.2868,-121.981C595.2515,-135.8982 562.523,-155.6716 537.7179,-170.658"/>
<polygon fill="none" stroke="#000000" points="535.7196,-167.7761 528.9703,-175.9431 539.3394,-173.7676 535.7196,-167.7761"/>
<text text-anchor="middle" x="592.8933" y="-144.8" font-family="Times,serif" font-size="14.00" fill="#000000">isA</text>
</g>
<!-- ReferenceUnit -->
<g id="node2" class="node">
<title>ReferenceUnit</title>
<g id="a_node2"><a xlink:href="http://emmo.info/emmo/middle/units#EMMO_18ce5200_00f5_45bb_8c6f_6fb128cd41ae" xlink:title="ReferenceUnit">
<ellipse fill="#ffffcc" stroke="#000000" cx="230.3933" cy="-105" rx="61.99" ry="18"/>
<text text-anchor="middle" x="230.3933" y="-101.3" font-family="Times,serif" font-size="14.00" fill="#000000">ReferenceUnit</text>
</a>
</g>
</g>
<!-- ReferenceUnit&#45;&gt;Metrological -->
<g id="edge4" class="edge">
<title>ReferenceUnit&#45;&gt;Metrological</title>
<path fill="none" stroke="#000000" d="M272.0003,-118.3081C320.5139,-133.8253 400.6485,-159.4566 452.4712,-176.0323"/>
<polygon fill="none" stroke="#000000" points="451.5312,-179.4062 462.1221,-179.1191 453.6638,-172.739 451.5312,-179.4062"/>
<text text-anchor="middle" x="392.8933" y="-144.8" font-family="Times,serif" font-size="14.00" fill="#000000">isA</text>
</g>
<!-- Quantity -->
<g id="node3" class="node">
<title>Quantity</title>
<g id="a_node3"><a xlink:href="http://emmo.info/emmo/middle/units#EMMO_f658c301_ce93_46cf_9639_4eace2c5d1d5" xlink:title="Quantity">
<ellipse fill="#ffffcc" stroke="#000000" stroke-width="2" cx="502.3933" cy="-105" rx="41.6928" ry="18"/>
<text text-anchor="middle" x="502.3933" y="-101.3" font-family="Times,serif" font-size="14.00" fill="#000000">Quantity</text>
</a>
</g>
</g>
<!-- Quantity&#45;&gt;ReferenceUnit -->
<g id="edge9" class="edge">
<title>Quantity&#45;&gt;ReferenceUnit</title>
<path fill="none" stroke="#006400" stroke-dasharray="5,2" d="M460.4662,-105C418.4708,-105 353.0134,-105 302.6388,-105"/>
<polygon fill="#006400" stroke="#006400" points="302.4547,-101.5001 292.4547,-105 302.4546,-108.5001 302.4547,-101.5001"/>
<text text-anchor="middle" x="376.4674" y="-90.8" font-family="Times,serif" font-size="14.00" fill="#000000">hasReferenceUnit exactly 1</text>
</g>
<!-- Quantity&#45;&gt;Metrological -->
<g id="edge8" class="edge">
<title>Quantity&#45;&gt;Metrological</title>
<path fill="none" stroke="#000000" d="M502.3933,-123.0265C502.3933,-134.8082 502.3933,-150.4393 502.3933,-163.8419"/>
<polygon fill="none" stroke="#000000" points="498.8934,-163.9966 502.3933,-173.9966 505.8934,-163.9967 498.8934,-163.9966"/>
<text text-anchor="middle" x="511.8933" y="-144.8" font-family="Times,serif" font-size="14.00" fill="#000000">isA</text>
</g>
<!-- MeasurementUnit -->
<g id="node4" class="node">
<title>MeasurementUnit</title>
<g id="a_node4"><a xlink:href="http://emmo.info/emmo/middle/units#EMMO_b081b346_7279_46ef_9a3d_2c088fcd79f4" xlink:title="MeasurementUnit">
<ellipse fill="#ffffcc" stroke="#000000" stroke-width="2" cx="75.3933" cy="-18" rx="75.2868" ry="18"/>
<text text-anchor="middle" x="75.3933" y="-14.3" font-family="Times,serif" font-size="14.00" fill="#000000">MeasurementUnit</text>
</a>
</g>
</g>
<!-- MeasurementUnit&#45;&gt;ReferenceUnit -->
<g id="edge3" class="edge">
<title>MeasurementUnit&#45;&gt;ReferenceUnit</title>
<path fill="none" stroke="#000000" d="M104.9125,-34.5688C129.9285,-48.6101 165.9405,-68.8233 192.9748,-83.9973"/>
<polygon fill="none" stroke="#000000" points="191.3365,-87.0914 201.7699,-88.9339 194.7627,-80.9872 191.3365,-87.0914"/>
<text text-anchor="middle" x="171.8933" y="-57.8" font-family="Times,serif" font-size="14.00" fill="#000000">isA</text>
</g>
<!-- MetricPrefix -->
<g id="node6" class="node">
<title>MetricPrefix</title>
<g id="a_node6"><a xlink:href="http://emmo.info/emmo/middle/units#EMMO_7d2afa66_ae9e_4095_a9bf_421d0be401b6" xlink:title="MetricPrefix">
<ellipse fill="#ffffcc" stroke="#000000" stroke-width="2" cx="573.3933" cy="-18" rx="55.7903" ry="18"/>
<text text-anchor="middle" x="573.3933" y="-14.3" font-family="Times,serif" font-size="14.00" fill="#000000">MetricPrefix</text>
</a>
</g>
</g>
<!-- MetricPrefix&#45;&gt;MetrologicalSymbol -->
<g id="edge5" class="edge">
<title>MetricPrefix&#45;&gt;MetrologicalSymbol</title>
<path fill="none" stroke="#000000" d="M588.1659,-35.6057C598.6836,-48.1405 612.9856,-65.1853 624.7829,-79.2452"/>
<polygon fill="none" stroke="#000000" points="622.2831,-81.711 631.3921,-87.1218 627.6454,-77.2115 622.2831,-81.711"/>
<text text-anchor="middle" x="623.8933" y="-57.8" font-family="Times,serif" font-size="14.00" fill="#000000">isA</text>
</g>
<!-- ProcedureUnit -->
<g id="node7" class="node">
<title>ProcedureUnit</title>
<g id="a_node7"><a xlink:href="http://emmo.info/emmo/middle/units#EMMO_c9c8f824_9127_4f93_bc21_69fe78a7f6f2" xlink:title="ProcedureUnit">
<ellipse fill="#ffffcc" stroke="#000000" cx="230.3933" cy="-18" rx="61.99" ry="18"/>
<text text-anchor="middle" x="230.3933" y="-14.3" font-family="Times,serif" font-size="14.00" fill="#000000">ProcedureUnit</text>
</a>
</g>
</g>
<!-- ProcedureUnit&#45;&gt;ReferenceUnit -->
<g id="edge1" class="edge">
<title>ProcedureUnit&#45;&gt;ReferenceUnit</title>
<path fill="none" stroke="#000000" d="M230.3933,-36.0265C230.3933,-47.8082 230.3933,-63.4393 230.3933,-76.8419"/>
<polygon fill="none" stroke="#000000" points="226.8934,-76.9966 230.3933,-86.9966 233.8934,-76.9967 226.8934,-76.9966"/>
<text text-anchor="middle" x="239.8933" y="-57.8" font-family="Times,serif" font-size="14.00" fill="#000000">isA</text>
</g>
<!-- StandardUnit -->
<g id="node8" class="node">
<title>StandardUnit</title>
<g id="a_node8"><a xlink:href="http://emmo.info/emmo/middle/units#EMMO_acd1a504_ca32_4f30_86ad_0b62cea5bc02" xlink:title="StandardUnit">
<ellipse fill="#ffffcc" stroke="#000000" cx="368.3933" cy="-18" rx="57.6901" ry="18"/>
<text text-anchor="middle" x="368.3933" y="-14.3" font-family="Times,serif" font-size="14.00" fill="#000000">StandardUnit</text>
</a>
</g>
</g>
<!-- StandardUnit&#45;&gt;ReferenceUnit -->
<g id="edge2" class="edge">
<title>StandardUnit&#45;&gt;ReferenceUnit</title>
<path fill="none" stroke="#000000" d="M342.76,-34.1601C320.8229,-47.99 289.051,-68.0201 264.8846,-83.2555"/>
<polygon fill="none" stroke="#000000" points="262.9504,-80.3374 256.3577,-88.6312 266.6835,-86.2589 262.9504,-80.3374"/>
<text text-anchor="middle" x="317.8933" y="-57.8" font-family="Times,serif" font-size="14.00" fill="#000000">isA</text>
</g>
<!-- PhysicsDimension -->
<g id="node9" class="node">
<title>PhysicsDimension</title>
<g id="a_node9"><a xlink:href="http://emmo.info/emmo/middle/units#EMMO_9895a1b4_f0a5_4167_ac5e_97db40b8bfcc" xlink:title="PhysicsDimension">
<ellipse fill="#ffffcc" stroke="#000000" cx="724.3933" cy="-18" rx="76.8869" ry="18"/>
<text text-anchor="middle" x="724.3933" y="-14.3" font-family="Times,serif" font-size="14.00" fill="#000000">PhysicsDimension</text>
</a>
</g>
</g>
<!-- PhysicsDimension&#45;&gt;MetrologicalSymbol -->
<g id="edge6" class="edge">
<title>PhysicsDimension&#45;&gt;MetrologicalSymbol</title>
<path fill="none" stroke="#000000" d="M708.2317,-36.0265C696.9666,-48.5913 681.7763,-65.5343 669.2705,-79.4832"/>
<polygon fill="none" stroke="#000000" points="666.3369,-77.5122 662.2674,-87.2943 671.5489,-82.185 666.3369,-77.5122"/>
<text text-anchor="middle" x="699.8933" y="-57.8" font-family="Times,serif" font-size="14.00" fill="#000000">isA</text>
</g>
</g>
</svg>
