<?xml version="1.0" encoding="UTF-8" standalone="no"?>
<!DOCTYPE svg PUBLIC "-//W3C//DTD SVG 1.1//EN"
 "http://www.w3.org/Graphics/SVG/1.1/DTD/svg11.dtd">
<!-- Generated by graphviz version 2.40.1 (20161225.0304)
 -->
<!-- Title: %3 Pages: 1 -->
<svg width="250pt" height="131pt"
 viewBox="0.00 0.00 249.75 131.00" xmlns="http://www.w3.org/2000/svg" xmlns:xlink="http://www.w3.org/1999/xlink">
<g id="graph0" class="graph" transform="scale(1 1) rotate(0) translate(4 127)">
<title>%3</title>
<polygon fill="#ffffff" stroke="transparent" points="-4,4 -4,-127 245.7468,-127 245.7468,4 -4,4"/>
<!-- Real -->
<g id="node1" class="node">
<title>Real</title>
<g id="a_node1"><a xlink:href="http://emmo.info/emmo/middle/math#EMMO_18d180e4_5e3e_42f7_820c_e08951223486" xlink:title="Real">
<ellipse fill="#ffc880" stroke="#000000" cx="27" cy="-18" rx="27" ry="18"/>
<text text-anchor="middle" x="27" y="-14.3" font-family="Times,serif" font-size="14.00" fill="#000000">Real</text>
</a>
</g>
</g>
<!-- Number -->
<g id="node3" class="node">
<title>Number</title>
<g id="a_node3"><a xlink:href="http://emmo.info/emmo/middle/math#EMMO_21f56795_ee72_4858_b571_11cfaa59c1a8" xlink:title="Number">
<ellipse fill="#ffffcc" stroke="#000000" stroke-width="2" cx="112" cy="-105" rx="40.0939" ry="18"/>
<text text-anchor="middle" x="112" y="-101.3" font-family="Times,serif" font-size="14.00" fill="#000000">Number</text>
</a>
</g>
</g>
<!-- Real&#45;&gt;Number -->
<g id="edge1" class="edge">
<title>Real&#45;&gt;Number</title>
<path fill="none" stroke="#000000" d="M41.8059,-33.1542C54.6052,-46.2547 73.3401,-65.4305 88.2359,-80.6768"/>
<polygon fill="none" stroke="#000000" points="86.1318,-83.5315 95.6237,-88.2384 91.1388,-78.6396 86.1318,-83.5315"/>
<text text-anchor="middle" x="84.5" y="-57.8" font-family="Times,serif" font-size="14.00" fill="#000000">isA</text>
</g>
<!-- Boolean -->
<g id="node2" class="node">
<title>Boolean</title>
<g id="a_node2"><a xlink:href="http://emmo.info/emmo/middle/math#EMMO_54dc83cb_06e1_4739_9e45_bc09cead7f48" xlink:title="Boolean">
<ellipse fill="#ffc880" stroke="#000000" cx="112" cy="-18" rx="40.0939" ry="18"/>
<text text-anchor="middle" x="112" y="-14.3" font-family="Times,serif" font-size="14.00" fill="#000000">Boolean</text>
</a>
</g>
</g>
<!-- Boolean&#45;&gt;Number -->
<g id="edge3" class="edge">
<title>Boolean&#45;&gt;Number</title>
<path fill="none" stroke="#000000" d="M112,-36.0265C112,-47.8082 112,-63.4393 112,-76.8419"/>
<polygon fill="none" stroke="#000000" points="108.5001,-76.9966 112,-86.9966 115.5001,-76.9967 108.5001,-76.9966"/>
<text text-anchor="middle" x="121.5" y="-57.8" font-family="Times,serif" font-size="14.00" fill="#000000">isA</text>
</g>
<!-- Integer -->
<g id="node4" class="node">
<title>Integer</title>
<g id="a_node4"><a xlink:href="http://emmo.info/emmo/middle/math#EMMO_f8bd64d5_5d3e_4ad4_a46e_c30714fecb7f" xlink:title="Integer">
<ellipse fill="#ffc880" stroke="#000000" cx="206" cy="-18" rx="35.9954" ry="18"/>
<text text-anchor="middle" x="206" y="-14.3" font-family="Times,serif" font-size="14.00" fill="#000000">Integer</text>
</a>
</g>
</g>
<!-- Integer&#45;&gt;Number -->
<g id="edge2" class="edge">
<title>Integer&#45;&gt;Number</title>
<path fill="none" stroke="#000000" d="M188.759,-33.9571C174.3656,-47.2786 153.6468,-66.4545 137.3617,-81.527"/>
<polygon fill="none" stroke="#000000" points="134.7321,-79.1916 129.7705,-88.5529 139.4869,-84.329 134.7321,-79.1916"/>
<text text-anchor="middle" x="173.5" y="-57.8" font-family="Times,serif" font-size="14.00" fill="#000000">isA</text>
</g>
</g>
</svg>
