<?xml version="1.0" encoding="UTF-8" standalone="no"?>
<!DOCTYPE svg PUBLIC "-//W3C//DTD SVG 1.1//EN"
 "http://www.w3.org/Graphics/SVG/1.1/DTD/svg11.dtd">
<!-- Generated by graphviz version 2.40.1 (20161225.0304)
 -->
<!-- Title: %3 Pages: 1 -->
<svg width="1331pt" height="131pt"
 viewBox="0.00 0.00 1330.53 131.00" xmlns="http://www.w3.org/2000/svg" xmlns:xlink="http://www.w3.org/1999/xlink">
<g id="graph0" class="graph" transform="scale(1 1) rotate(0) translate(4 127)">
<title>%3</title>
<polygon fill="#ffffff" stroke="transparent" points="-4,4 -4,-127 1326.5346,-127 1326.5346,4 -4,4"/>
<!-- ElectricCurrentUnit -->
<g id="node1" class="node">
<title>ElectricCurrentUnit</title>
<g id="a_node1"><a xlink:href="http://emmo.info/emmo/middle/isq#EMMO_24e3e31f_f233_4685_a19c_6f3ce0a3c477" xlink:title="ElectricCurrentUnit">
<ellipse fill="#ffc880" stroke="#000000" cx="80.5928" cy="-18" rx="80.6858" ry="18"/>
<text text-anchor="middle" x="80.5928" y="-14.3" font-family="Times,serif" font-size="14.00" fill="#000000">ElectricCurrentUnit</text>
</a>
</g>
</g>
<!-- Object -->
<g id="node9" class="node">
<title>Object</title>
<g id="a_node9"><a xlink:href="http://emmo.info/emmo/top/semiotics#EMMO_6f5af708_f825_4feb_a0d1_a8d813d3022b" xlink:title="Object">
<ellipse fill="#ffffcc" stroke="#000000" stroke-width="2" cx="645.5928" cy="-105" rx="34.394" ry="18"/>
<text text-anchor="middle" x="645.5928" y="-101.3" font-family="Times,serif" font-size="14.00" fill="#000000">Object</text>
</a>
</g>
</g>
<!-- ElectricCurrentUnit&#45;&gt;Object -->
<g id="edge6" class="edge">
<title>ElectricCurrentUnit&#45;&gt;Object</title>
<path fill="none" stroke="#000000" d="M140.5891,-30.1804C150.6015,-32.1611 160.8857,-34.1637 170.5928,-36 252.6575,-51.524 273.0108,-56.5178 355.5928,-69 442.4861,-82.1339 544.5616,-93.9761 601.4908,-100.2615"/>
<polygon fill="none" stroke="#000000" points="601.2592,-103.7571 611.5815,-101.3696 602.0233,-96.7989 601.2592,-103.7571"/>
<text text-anchor="middle" x="365.0928" y="-57.8" font-family="Times,serif" font-size="14.00" fill="#000000">isA</text>
</g>
<!-- SIBaseUnit -->
<g id="node2" class="node">
<title>SIBaseUnit</title>
<g id="a_node2"><a xlink:href="http://emmo.info/emmo/middle/siunits#EMMO_3a185e6c_9e19_4776_b583_19c978156aa0" xlink:title="SIBaseUnit">
<ellipse fill="#ffffcc" stroke="#000000" stroke-width="2" cx="230.5928" cy="-18" rx="51.1914" ry="18"/>
<text text-anchor="middle" x="230.5928" y="-14.3" font-family="Times,serif" font-size="14.00" fill="#000000">SIBaseUnit</text>
</a>
</g>
</g>
<!-- SIBaseUnit&#45;&gt;Object -->
<g id="edge1" class="edge">
<title>SIBaseUnit&#45;&gt;Object</title>
<path fill="none" stroke="#000000" d="M269.1792,-29.9305C276.5875,-32.0664 284.3068,-34.1865 291.5928,-36 402.6182,-63.6346 535.5014,-86.9729 602.4761,-98.0691"/>
<polygon fill="none" stroke="#000000" points="602.2099,-101.5724 612.6458,-99.7437 603.3473,-94.6654 602.2099,-101.5724"/>
<text text-anchor="middle" x="447.0928" y="-57.8" font-family="Times,serif" font-size="14.00" fill="#000000">isA</text>
</g>
<!-- LengthUnit -->
<g id="node3" class="node">
<title>LengthUnit</title>
<g id="a_node3"><a xlink:href="http://emmo.info/emmo/middle/isq#EMMO_0fa49646_0fe0_4253_999c_bb834019844f" xlink:title="LengthUnit">
<ellipse fill="#ffc880" stroke="#000000" cx="351.5928" cy="-18" rx="51.1914" ry="18"/>
<text text-anchor="middle" x="351.5928" y="-14.3" font-family="Times,serif" font-size="14.00" fill="#000000">LengthUnit</text>
</a>
</g>
</g>
<!-- LengthUnit&#45;&gt;Object -->
<g id="edge5" class="edge">
<title>LengthUnit&#45;&gt;Object</title>
<path fill="none" stroke="#000000" d="M390.6378,-29.7425C397.6143,-31.8324 404.8172,-33.9847 411.5928,-36 479.6716,-56.2489 558.9692,-79.5775 605.5748,-93.2621"/>
<polygon fill="none" stroke="#000000" points="604.7076,-96.6551 615.2885,-96.1136 606.6793,-89.9385 604.7076,-96.6551"/>
<text text-anchor="middle" x="530.0928" y="-57.8" font-family="Times,serif" font-size="14.00" fill="#000000">isA</text>
</g>
<!-- AmountOfSubstanceUnit -->
<g id="node4" class="node">
<title>AmountOfSubstanceUnit</title>
<g id="a_node4"><a xlink:href="http://emmo.info/emmo/middle/isq#EMMO_32fb2db4_94f4_49b8_a374_ee5aa28a113e" xlink:title="AmountOfSubstanceUnit">
<ellipse fill="#ffc880" stroke="#000000" cx="521.5928" cy="-18" rx="100.9827" ry="18"/>
<text text-anchor="middle" x="521.5928" y="-14.3" font-family="Times,serif" font-size="14.00" fill="#000000">AmountOfSubstanceUnit</text>
</a>
</g>
</g>
<!-- AmountOfSubstanceUnit&#45;&gt;Object -->
<g id="edge8" class="edge">
<title>AmountOfSubstanceUnit&#45;&gt;Object</title>
<path fill="none" stroke="#000000" d="M546.6861,-35.6057C566.8384,-49.7448 595.1697,-69.6225 616.3481,-84.4815"/>
<polygon fill="none" stroke="#000000" points="614.458,-87.4309 624.6544,-90.3093 618.4785,-81.7006 614.458,-87.4309"/>
<text text-anchor="middle" x="601.0928" y="-57.8" font-family="Times,serif" font-size="14.00" fill="#000000">isA</text>
</g>
<!-- ThermodynamicTemperatureUnit -->
<g id="node5" class="node">
<title>ThermodynamicTemperatureUnit</title>
<g id="a_node5"><a xlink:href="http://emmo.info/emmo/middle/isq#EMMO_f460af7c_9134_4b2f_8450_d54918a08f34" xlink:title="ThermodynamicTemperatureUnit">
<ellipse fill="#ffc880" stroke="#000000" cx="770.5928" cy="-18" rx="130.777" ry="18"/>
<text text-anchor="middle" x="770.5928" y="-14.3" font-family="Times,serif" font-size="14.00" fill="#000000">ThermodynamicTemperatureUnit</text>
</a>
</g>
</g>
<!-- ThermodynamicTemperatureUnit&#45;&gt;Object -->
<g id="edge4" class="edge">
<title>ThermodynamicTemperatureUnit&#45;&gt;Object</title>
<path fill="none" stroke="#000000" d="M744.9956,-35.8157C724.6558,-49.9722 696.1921,-69.7829 674.9332,-84.5791"/>
<polygon fill="none" stroke="#000000" points="672.8048,-81.7961 666.5965,-90.3814 676.8037,-87.5415 672.8048,-81.7961"/>
<text text-anchor="middle" x="725.0928" y="-57.8" font-family="Times,serif" font-size="14.00" fill="#000000">isA</text>
</g>
<!-- MassUnit -->
<g id="node6" class="node">
<title>MassUnit</title>
<g id="a_node6"><a xlink:href="http://emmo.info/emmo/middle/isq#EMMO_8d9caab6_452d_420a_9d21_11baae773bf9" xlink:title="MassUnit">
<ellipse fill="#ffc880" stroke="#000000" cx="964.5928" cy="-18" rx="45.4919" ry="18"/>
<text text-anchor="middle" x="964.5928" y="-14.3" font-family="Times,serif" font-size="14.00" fill="#000000">MassUnit</text>
</a>
</g>
</g>
<!-- MassUnit&#45;&gt;Object -->
<g id="edge7" class="edge">
<title>MassUnit&#45;&gt;Object</title>
<path fill="none" stroke="#000000" d="M930.1331,-29.869C923.6647,-31.988 916.9407,-34.1179 910.5928,-36 832.1815,-59.2484 739.4858,-82.4101 687.1129,-95.1031"/>
<polygon fill="none" stroke="#000000" points="686.091,-91.7492 677.1921,-97.4991 687.7343,-98.5536 686.091,-91.7492"/>
<text text-anchor="middle" x="855.0928" y="-57.8" font-family="Times,serif" font-size="14.00" fill="#000000">isA</text>
</g>
<!-- TimeUnit -->
<g id="node7" class="node">
<title>TimeUnit</title>
<g id="a_node7"><a xlink:href="http://emmo.info/emmo/middle/isq#EMMO_d69cb991_73c2_4381_bb92_982d702f624e" xlink:title="TimeUnit">
<ellipse fill="#ffc880" stroke="#000000" cx="1073.5928" cy="-18" rx="45.4919" ry="18"/>
<text text-anchor="middle" x="1073.5928" y="-14.3" font-family="Times,serif" font-size="14.00" fill="#000000">TimeUnit</text>
</a>
</g>
</g>
<!-- TimeUnit&#45;&gt;Object -->
<g id="edge3" class="edge">
<title>TimeUnit&#45;&gt;Object</title>
<path fill="none" stroke="#000000" d="M1039.1313,-29.8603C1032.3589,-32.0259 1025.2807,-34.1749 1018.5928,-36 901.5096,-67.9527 759.699,-89.6589 689.4385,-99.3123"/>
<polygon fill="none" stroke="#000000" points="688.6347,-95.8893 679.1968,-100.7034 689.5769,-102.8256 688.6347,-95.8893"/>
<text text-anchor="middle" x="947.0928" y="-57.8" font-family="Times,serif" font-size="14.00" fill="#000000">isA</text>
</g>
<!-- LuminousIntensityUnit -->
<g id="node8" class="node">
<title>LuminousIntensityUnit</title>
<g id="a_node8"><a xlink:href="http://emmo.info/emmo/middle/isq#EMMO_b120c538_6320_470c_b9bd_c8d088694973" xlink:title="LuminousIntensityUnit">
<ellipse fill="#ffc880" stroke="#000000" cx="1229.5928" cy="-18" rx="92.8835" ry="18"/>
<text text-anchor="middle" x="1229.5928" y="-14.3" font-family="Times,serif" font-size="14.00" fill="#000000">LuminousIntensityUnit</text>
</a>
</g>
</g>
<!-- LuminousIntensityUnit&#45;&gt;Object -->
<g id="edge2" class="edge">
<title>LuminousIntensityUnit&#45;&gt;Object</title>
<path fill="none" stroke="#000000" d="M1166.7686,-31.2669C1112.3941,-42.4239 1031.556,-58.2329 960.5928,-69 864.3916,-83.5964 750.8502,-95.2001 689.7868,-100.9842"/>
<polygon fill="none" stroke="#000000" points="689.3581,-97.509 679.7294,-101.9291 690.013,-104.4783 689.3581,-97.509"/>
<text text-anchor="middle" x="1059.0928" y="-57.8" font-family="Times,serif" font-size="14.00" fill="#000000">isA</text>
</g>
</g>
</svg>
