<?xml version="1.0" encoding="UTF-8" standalone="no"?>
<!DOCTYPE svg PUBLIC "-//W3C//DTD SVG 1.1//EN"
 "http://www.w3.org/Graphics/SVG/1.1/DTD/svg11.dtd">
<!-- Generated by graphviz version 2.40.1 (20161225.0304)
 -->
<!-- Title: %3 Pages: 1 -->
<svg width="380pt" height="218pt"
 viewBox="0.00 0.00 380.09 218.00" xmlns="http://www.w3.org/2000/svg" xmlns:xlink="http://www.w3.org/1999/xlink">
<g id="graph0" class="graph" transform="scale(1 1) rotate(0) translate(4 214)">
<title>%3</title>
<polygon fill="#ffffff" stroke="transparent" points="-4,4 -4,-214 376.0934,-214 376.0934,4 -4,4"/>
<!-- Music -->
<g id="node1" class="node">
<title>Music</title>
<g id="a_node1"><a xlink:href="http://emmo.info/emmo/middle/perceptual#EMMO_0d69f94a_f4fa_49d9_bf90_ace770eeab02" xlink:title="Music">
<ellipse fill="#ffffcc" stroke="#000000" cx="33.1471" cy="-18" rx="33.2948" ry="18"/>
<text text-anchor="middle" x="33.1471" y="-14.3" font-family="Times,serif" font-size="14.00" fill="#000000">Music</text>
</a>
</g>
</g>
<!-- Acoustical -->
<g id="node5" class="node">
<title>Acoustical</title>
<g id="a_node5"><a xlink:href="http://emmo.info/emmo/middle/perceptual#EMMO_4b3afb22_27cf_4ce3_88bc_492bfccb546b" xlink:title="Acoustical">
<ellipse fill="#ffffcc" stroke="#000000" cx="115.1471" cy="-105" rx="48.1917" ry="18"/>
<text text-anchor="middle" x="115.1471" y="-101.3" font-family="Times,serif" font-size="14.00" fill="#000000">Acoustical</text>
</a>
</g>
</g>
<!-- Music&#45;&gt;Acoustical -->
<g id="edge4" class="edge">
<title>Music&#45;&gt;Acoustical</title>
<path fill="none" stroke="#000000" d="M48.5706,-34.364C60.8178,-47.3579 78.1343,-65.7304 92.037,-80.4808"/>
<polygon fill="none" stroke="#000000" points="89.5452,-82.94 98.9511,-87.8165 94.6392,-78.1387 89.5452,-82.94"/>
<text text-anchor="middle" x="88.6471" y="-57.8" font-family="Times,serif" font-size="14.00" fill="#000000">isA</text>
</g>
<!-- Noise -->
<g id="node2" class="node">
<title>Noise</title>
<g id="a_node2"><a xlink:href="http://emmo.info/emmo/middle/perceptual#EMMO_91756568_8655_4060_8937_a1a906dad8c1" xlink:title="Noise">
<ellipse fill="#ffffcc" stroke="#000000" cx="115.1471" cy="-18" rx="31.3957" ry="18"/>
<text text-anchor="middle" x="115.1471" y="-14.3" font-family="Times,serif" font-size="14.00" fill="#000000">Noise</text>
</a>
</g>
</g>
<!-- Noise&#45;&gt;Acoustical -->
<g id="edge1" class="edge">
<title>Noise&#45;&gt;Acoustical</title>
<path fill="none" stroke="#000000" d="M115.1471,-36.0265C115.1471,-47.8082 115.1471,-63.4393 115.1471,-76.8419"/>
<polygon fill="none" stroke="#000000" points="111.6472,-76.9966 115.1471,-86.9966 118.6472,-76.9967 111.6472,-76.9966"/>
<text text-anchor="middle" x="124.6471" y="-57.8" font-family="Times,serif" font-size="14.00" fill="#000000">isA</text>
</g>
<!-- Graphical -->
<g id="node3" class="node">
<title>Graphical</title>
<g id="a_node3"><a xlink:href="http://emmo.info/emmo/middle/perceptual#EMMO_c74da218_9147_4f03_92d1_8894abca55f3" xlink:title="Graphical">
<ellipse fill="#ffffcc" stroke="#000000" stroke-width="2" cx="227.1471" cy="-105" rx="45.4919" ry="18"/>
<text text-anchor="middle" x="227.1471" y="-101.3" font-family="Times,serif" font-size="14.00" fill="#000000">Graphical</text>
</a>
</g>
</g>
<!-- Perceptual -->
<g id="node7" class="node">
<title>Perceptual</title>
<g id="a_node7"><a xlink:href="http://emmo.info/emmo/middle/perceptual#EMMO_649bf97b_4397_4005_90d9_219755d92e34" xlink:title="Perceptual">
<ellipse fill="#ffffcc" stroke="#000000" stroke-width="2" cx="227.1471" cy="-192" rx="48.1917" ry="18"/>
<text text-anchor="middle" x="227.1471" y="-188.3" font-family="Times,serif" font-size="14.00" fill="#000000">Perceptual</text>
</a>
</g>
</g>
<!-- Graphical&#45;&gt;Perceptual -->
<g id="edge6" class="edge">
<title>Graphical&#45;&gt;Perceptual</title>
<path fill="none" stroke="#000000" d="M227.1471,-123.0265C227.1471,-134.8082 227.1471,-150.4393 227.1471,-163.8419"/>
<polygon fill="none" stroke="#000000" points="223.6472,-163.9966 227.1471,-173.9966 230.6472,-163.9967 223.6472,-163.9966"/>
<text text-anchor="middle" x="236.6471" y="-144.8" font-family="Times,serif" font-size="14.00" fill="#000000">isA</text>
</g>
<!-- Speech -->
<g id="node4" class="node">
<title>Speech</title>
<g id="a_node4"><a xlink:href="http://emmo.info/emmo/middle/perceptual#EMMO_660ef3b0_6692_4c51_8f69_763c7817b2e1" xlink:title="Speech">
<ellipse fill="#ffffcc" stroke="#000000" cx="201.1471" cy="-18" rx="36.2938" ry="18"/>
<text text-anchor="middle" x="201.1471" y="-14.3" font-family="Times,serif" font-size="14.00" fill="#000000">Speech</text>
</a>
</g>
</g>
<!-- Speech&#45;&gt;Acoustical -->
<g id="edge2" class="edge">
<title>Speech&#45;&gt;Acoustical</title>
<path fill="none" stroke="#000000" d="M184.9711,-34.364C172.0437,-47.4418 153.7308,-65.9677 139.1027,-80.7658"/>
<polygon fill="none" stroke="#000000" points="136.378,-78.5435 131.8371,-88.1159 141.3563,-83.4646 136.378,-78.5435"/>
<text text-anchor="middle" x="172.6471" y="-57.8" font-family="Times,serif" font-size="14.00" fill="#000000">isA</text>
</g>
<!-- Acoustical&#45;&gt;Perceptual -->
<g id="edge5" class="edge">
<title>Acoustical&#45;&gt;Perceptual</title>
<path fill="none" stroke="#000000" d="M136.2134,-121.364C153.7342,-134.974 178.8513,-154.4845 198.2502,-169.5534"/>
<polygon fill="none" stroke="#000000" points="196.1307,-172.3388 206.1752,-175.7093 200.4249,-166.8107 196.1307,-172.3388"/>
<text text-anchor="middle" x="186.6471" y="-144.8" font-family="Times,serif" font-size="14.00" fill="#000000">isA</text>
</g>
<!-- Property -->
<g id="node6" class="node">
<title>Property</title>
<g id="a_node6"><a xlink:href="http://emmo.info/emmo/middle/properties#EMMO_b7bcff25_ffc3_474e_9ab5_01b1664bd4ba" xlink:title="Property">
<ellipse fill="#ffffcc" stroke="#000000" stroke-width="2" cx="331.1471" cy="-105" rx="40.8928" ry="18"/>
<text text-anchor="middle" x="331.1471" y="-101.3" font-family="Times,serif" font-size="14.00" fill="#000000">Property</text>
</a>
</g>
</g>
<!-- Property&#45;&gt;Perceptual -->
<g id="edge3" class="edge">
<title>Property&#45;&gt;Perceptual</title>
<path fill="none" stroke="#000000" d="M312.0719,-120.9571C296.0025,-134.3997 272.807,-153.8037 254.7166,-168.937"/>
<polygon fill="none" stroke="#000000" points="252.2324,-166.452 246.808,-175.5529 256.7238,-171.8211 252.2324,-166.452"/>
<text text-anchor="middle" x="294.6471" y="-144.8" font-family="Times,serif" font-size="14.00" fill="#000000">isA</text>
</g>
</g>
</svg>
