<?xml version="1.0" encoding="UTF-8" standalone="no"?>
<!DOCTYPE svg PUBLIC "-//W3C//DTD SVG 1.1//EN"
 "http://www.w3.org/Graphics/SVG/1.1/DTD/svg11.dtd">
<!-- Generated by graphviz version 2.40.1 (20161225.0304)
 -->
<!-- Title: %3 Pages: 1 -->
<svg width="1344pt" height="305pt"
 viewBox="0.00 0.00 1344.48 305.00" xmlns="http://www.w3.org/2000/svg" xmlns:xlink="http://www.w3.org/1999/xlink">
<g id="graph0" class="graph" transform="scale(1 1) rotate(0) translate(4 301)">
<title>%3</title>
<polygon fill="#ffffff" stroke="transparent" points="-4,4 -4,-301 1340.4844,-301 1340.4844,4 -4,4"/>
<!-- AvogadroConstant -->
<g id="node1" class="node">
<title>AvogadroConstant</title>
<g id="a_node1"><a xlink:href="http://emmo.info/emmo/middle/siunits#EMMO_176cae33_b83e_4cd2_a6bc_281f42f0ccc8" xlink:title="AvogadroConstant">
<ellipse fill="#ffffcc" stroke="#000000" cx="77.3431" cy="-18" rx="77.1866" ry="18"/>
<text text-anchor="middle" x="77.3431" y="-14.3" font-family="Times,serif" font-size="14.00" fill="#000000">AvogadroConstant</text>
</a>
</g>
</g>
<!-- SIExactConstant -->
<g id="node5" class="node">
<title>SIExactConstant</title>
<g id="a_node5"><a xlink:href="http://emmo.info/emmo/middle/siunits#EMMO_f2ca6dd0_0e5f_4392_a92d_cafdae6cfc95" xlink:title="SIExactConstant">
<ellipse fill="#ffffcc" stroke="#000000" cx="692.3431" cy="-105" rx="69.5877" ry="18"/>
<text text-anchor="middle" x="692.3431" y="-101.3" font-family="Times,serif" font-size="14.00" fill="#000000">SIExactConstant</text>
</a>
</g>
</g>
<!-- AvogadroConstant&#45;&gt;SIExactConstant -->
<g id="edge8" class="edge">
<title>AvogadroConstant&#45;&gt;SIExactConstant</title>
<path fill="none" stroke="#000000" d="M133.6632,-30.4326C143.5304,-32.4262 153.718,-34.3675 163.3431,-36 324.6208,-63.3547 515.1582,-85.8074 617.8161,-97.1017"/>
<polygon fill="none" stroke="#000000" points="617.4531,-100.5828 627.7748,-98.1926 618.2155,-93.6244 617.4531,-100.5828"/>
<text text-anchor="middle" x="390.8431" y="-57.8" font-family="Times,serif" font-size="14.00" fill="#000000">isA</text>
</g>
<!-- HyperfineTransitionFrequencyOfCs -->
<g id="node2" class="node">
<title>HyperfineTransitionFrequencyOfCs</title>
<g id="a_node2"><a xlink:href="http://emmo.info/emmo/middle/siunits#EMMO_f96feb3f_4438_4e43_aa44_7458c4d87fc2" xlink:title="HyperfineTransitionFrequencyOfCs">
<ellipse fill="#ffffcc" stroke="#000000" cx="310.3431" cy="-18" rx="137.5759" ry="18"/>
<text text-anchor="middle" x="310.3431" y="-14.3" font-family="Times,serif" font-size="14.00" fill="#000000">HyperfineTransitionFrequencyOfCs</text>
</a>
</g>
</g>
<!-- HyperfineTransitionFrequencyOfCs&#45;&gt;SIExactConstant -->
<g id="edge2" class="edge">
<title>HyperfineTransitionFrequencyOfCs&#45;&gt;SIExactConstant</title>
<path fill="none" stroke="#000000" d="M379.0783,-33.6543C450.5312,-49.9276 561.3674,-75.1705 630.2533,-90.8591"/>
<polygon fill="none" stroke="#000000" points="629.5751,-94.2942 640.1027,-93.1023 631.1296,-87.469 629.5751,-94.2942"/>
<text text-anchor="middle" x="533.8431" y="-57.8" font-family="Times,serif" font-size="14.00" fill="#000000">isA</text>
</g>
<!-- PlanckConstant -->
<g id="node3" class="node">
<title>PlanckConstant</title>
<g id="a_node3"><a xlink:href="http://emmo.info/emmo/middle/siunits#EMMO_76cc4efc_231e_42b4_be83_2547681caed6" xlink:title="PlanckConstant">
<ellipse fill="#ffffcc" stroke="#000000" cx="531.3431" cy="-18" rx="65.7887" ry="18"/>
<text text-anchor="middle" x="531.3431" y="-14.3" font-family="Times,serif" font-size="14.00" fill="#000000">PlanckConstant</text>
</a>
</g>
</g>
<!-- PlanckConstant&#45;&gt;SIExactConstant -->
<g id="edge5" class="edge">
<title>PlanckConstant&#45;&gt;SIExactConstant</title>
<path fill="none" stroke="#000000" d="M561.2487,-34.1601C587.1787,-48.172 624.8866,-68.5483 653.2115,-83.8543"/>
<polygon fill="none" stroke="#000000" points="651.5898,-86.9563 662.0514,-88.6312 654.9176,-80.7979 651.5898,-86.9563"/>
<text text-anchor="middle" x="631.8431" y="-57.8" font-family="Times,serif" font-size="14.00" fill="#000000">isA</text>
</g>
<!-- ElementaryCharge -->
<g id="node4" class="node">
<title>ElementaryCharge</title>
<g id="a_node4"><a xlink:href="http://emmo.info/emmo/middle/siunits#EMMO_58a650f0_a638_4743_8439_535a325e5c4c" xlink:title="ElementaryCharge">
<ellipse fill="#ffffcc" stroke="#000000" cx="692.3431" cy="-18" rx="77.1866" ry="18"/>
<text text-anchor="middle" x="692.3431" y="-14.3" font-family="Times,serif" font-size="14.00" fill="#000000">ElementaryCharge</text>
</a>
</g>
</g>
<!-- ElementaryCharge&#45;&gt;SIExactConstant -->
<g id="edge10" class="edge">
<title>ElementaryCharge&#45;&gt;SIExactConstant</title>
<path fill="none" stroke="#000000" d="M692.3431,-36.0265C692.3431,-47.8082 692.3431,-63.4393 692.3431,-76.8419"/>
<polygon fill="none" stroke="#000000" points="688.8432,-76.9966 692.3431,-86.9966 695.8432,-76.9967 688.8432,-76.9966"/>
<text text-anchor="middle" x="701.8431" y="-57.8" font-family="Times,serif" font-size="14.00" fill="#000000">isA</text>
</g>
<!-- ExactConstant -->
<g id="node7" class="node">
<title>ExactConstant</title>
<g id="a_node7"><a xlink:href="http://emmo.info/emmo/middle/units#EMMO_89762966_8076_4f7c_b745_f718d653e8e2" xlink:title="ExactConstant">
<ellipse fill="#ffffcc" stroke="#000000" cx="692.3431" cy="-192" rx="61.99" ry="18"/>
<text text-anchor="middle" x="692.3431" y="-188.3" font-family="Times,serif" font-size="14.00" fill="#000000">ExactConstant</text>
</a>
</g>
</g>
<!-- SIExactConstant&#45;&gt;ExactConstant -->
<g id="edge4" class="edge">
<title>SIExactConstant&#45;&gt;ExactConstant</title>
<path fill="none" stroke="#000000" d="M692.3431,-123.0265C692.3431,-134.8082 692.3431,-150.4393 692.3431,-163.8419"/>
<polygon fill="none" stroke="#000000" points="688.8432,-163.9966 692.3431,-173.9966 695.8432,-163.9967 688.8432,-163.9966"/>
<text text-anchor="middle" x="701.8431" y="-144.8" font-family="Times,serif" font-size="14.00" fill="#000000">isA</text>
</g>
<!-- BoltzmannConstant -->
<g id="node6" class="node">
<title>BoltzmannConstant</title>
<g id="a_node6"><a xlink:href="http://emmo.info/emmo/middle/siunits#EMMO_ffc7735f_c177_46a4_98e9_a54440d29209" xlink:title="BoltzmannConstant">
<ellipse fill="#ffffcc" stroke="#000000" cx="869.3431" cy="-18" rx="81.4863" ry="18"/>
<text text-anchor="middle" x="869.3431" y="-14.3" font-family="Times,serif" font-size="14.00" fill="#000000">BoltzmannConstant</text>
</a>
</g>
</g>
<!-- BoltzmannConstant&#45;&gt;SIExactConstant -->
<g id="edge9" class="edge">
<title>BoltzmannConstant&#45;&gt;SIExactConstant</title>
<path fill="none" stroke="#000000" d="M835.6342,-34.5688C806.8191,-48.7321 765.2279,-69.1753 734.2697,-84.392"/>
<polygon fill="none" stroke="#000000" points="732.4598,-81.3816 725.0293,-88.9339 735.5477,-87.6638 732.4598,-81.3816"/>
<text text-anchor="middle" x="801.8431" y="-57.8" font-family="Times,serif" font-size="14.00" fill="#000000">isA</text>
</g>
<!-- PhysicalConstant -->
<g id="node11" class="node">
<title>PhysicalConstant</title>
<g id="a_node11"><a xlink:href="http://emmo.info/emmo/middle/units#EMMO_b953f2b1_c8d1_4dd9_b630_d3ef6580c2bb" xlink:title="PhysicalConstant">
<ellipse fill="#ffffcc" stroke="#000000" stroke-width="2" cx="771.3431" cy="-279" rx="71.4873" ry="18"/>
<text text-anchor="middle" x="771.3431" y="-275.3" font-family="Times,serif" font-size="14.00" fill="#000000">PhysicalConstant</text>
</a>
</g>
</g>
<!-- ExactConstant&#45;&gt;PhysicalConstant -->
<g id="edge1" class="edge">
<title>ExactConstant&#45;&gt;PhysicalConstant</title>
<path fill="none" stroke="#000000" d="M708.33,-209.6057C719.8945,-222.3414 735.6868,-239.7329 748.5684,-253.919"/>
<polygon fill="none" stroke="#000000" points="746.0664,-256.37 755.3801,-261.4204 751.2487,-251.6643 746.0664,-256.37"/>
<text text-anchor="middle" x="746.8431" y="-231.8" font-family="Times,serif" font-size="14.00" fill="#000000">isA</text>
</g>
<!-- MeasuredConstant -->
<g id="node8" class="node">
<title>MeasuredConstant</title>
<g id="a_node8"><a xlink:href="http://emmo.info/emmo/middle/units#EMMO_3f15d200_c97b_42c8_8ac0_d81d150361e2" xlink:title="MeasuredConstant">
<ellipse fill="#ffffcc" stroke="#000000" cx="849.3431" cy="-192" rx="77.1866" ry="18"/>
<text text-anchor="middle" x="849.3431" y="-188.3" font-family="Times,serif" font-size="14.00" fill="#000000">MeasuredConstant</text>
</a>
</g>
</g>
<!-- MeasuredConstant&#45;&gt;PhysicalConstant -->
<g id="edge3" class="edge">
<title>MeasuredConstant&#45;&gt;PhysicalConstant</title>
<path fill="none" stroke="#000000" d="M833.1815,-210.0265C821.9164,-222.5913 806.7262,-239.5343 794.2203,-253.4832"/>
<polygon fill="none" stroke="#000000" points="791.2867,-251.5122 787.2172,-261.2943 796.4987,-256.185 791.2867,-251.5122"/>
<text text-anchor="middle" x="824.8431" y="-231.8" font-family="Times,serif" font-size="14.00" fill="#000000">isA</text>
</g>
<!-- LuminousEfficacy -->
<g id="node9" class="node">
<title>LuminousEfficacy</title>
<g id="a_node9"><a xlink:href="http://emmo.info/emmo/middle/siunits#EMMO_506f7823_52bc_40cb_be07_b3b1e10cce13" xlink:title="LuminousEfficacy">
<ellipse fill="#ffffcc" stroke="#000000" cx="1045.3431" cy="-18" rx="76.8869" ry="18"/>
<text text-anchor="middle" x="1045.3431" y="-14.3" font-family="Times,serif" font-size="14.00" fill="#000000">LuminousEfficacy</text>
</a>
</g>
</g>
<!-- LuminousEfficacy&#45;&gt;SIExactConstant -->
<g id="edge6" class="edge">
<title>LuminousEfficacy&#45;&gt;SIExactConstant</title>
<path fill="none" stroke="#000000" d="M992.1133,-31.119C927.9015,-46.9445 820.2129,-73.4854 752.8918,-90.0772"/>
<polygon fill="none" stroke="#000000" points="751.7264,-86.7596 742.8546,-92.551 753.4016,-93.5563 751.7264,-86.7596"/>
<text text-anchor="middle" x="899.8431" y="-57.8" font-family="Times,serif" font-size="14.00" fill="#000000">isA</text>
</g>
<!-- SpeedOfLightInVacuum -->
<g id="node10" class="node">
<title>SpeedOfLightInVacuum</title>
<g id="a_node10"><a xlink:href="http://emmo.info/emmo/middle/siunits#EMMO_99296e55_53f7_4333_9e06_760ad175a1b9" xlink:title="SpeedOfLightInVacuum">
<ellipse fill="#ffffcc" stroke="#000000" cx="1238.3431" cy="-18" rx="98.2828" ry="18"/>
<text text-anchor="middle" x="1238.3431" y="-14.3" font-family="Times,serif" font-size="14.00" fill="#000000">SpeedOfLightInVacuum</text>
</a>
</g>
</g>
<!-- SpeedOfLightInVacuum&#45;&gt;SIExactConstant -->
<g id="edge7" class="edge">
<title>SpeedOfLightInVacuum&#45;&gt;SIExactConstant</title>
<path fill="none" stroke="#000000" d="M1166.1273,-30.2573C1154.4999,-32.1995 1142.5919,-34.1699 1131.3431,-36 1001.1422,-57.183 849.0328,-80.8496 762.3597,-94.2329"/>
<polygon fill="none" stroke="#000000" points="761.7269,-90.7891 752.3777,-95.7734 762.7946,-97.7072 761.7269,-90.7891"/>
<text text-anchor="middle" x="1019.8431" y="-57.8" font-family="Times,serif" font-size="14.00" fill="#000000">isA</text>
</g>
</g>
</svg>
