<?xml version="1.0" encoding="UTF-8" standalone="no"?>
<!DOCTYPE svg PUBLIC "-//W3C//DTD SVG 1.1//EN"
 "http://www.w3.org/Graphics/SVG/1.1/DTD/svg11.dtd">
<!-- Generated by graphviz version 2.40.1 (20161225.0304)
 -->
<!-- Title: %3 Pages: 1 -->
<svg width="571pt" height="305pt"
 viewBox="0.00 0.00 570.59 305.00" xmlns="http://www.w3.org/2000/svg" xmlns:xlink="http://www.w3.org/1999/xlink">
<g id="graph0" class="graph" transform="scale(1 1) rotate(0) translate(4 301)">
<title>%3</title>
<polygon fill="#ffffff" stroke="transparent" points="-4,4 -4,-301 566.5894,-301 566.5894,4 -4,4"/>
<!-- Theorization -->
<g id="node1" class="node">
<title>Theorization</title>
<g id="a_node1"><a xlink:href="http://emmo.info/emmo/middle/models#EMMO_6c739b1a_a774_4416_bb31_1961486fa9ed" xlink:title="Theorization">
<ellipse fill="#ffffcc" stroke="#000000" cx="55.895" cy="-18" rx="55.7903" ry="18"/>
<text text-anchor="middle" x="55.895" y="-14.3" font-family="Times,serif" font-size="14.00" fill="#000000">Theorization</text>
</a>
</g>
</g>
<!-- Observation -->
<g id="node6" class="node">
<title>Observation</title>
<g id="a_node6"><a xlink:href="http://emmo.info/emmo/middle/properties#EMMO_10a5fd39_06aa_4648_9e70_f962a9cb2069" xlink:title="Observation">
<ellipse fill="#ffffcc" stroke="#000000" cx="181.895" cy="-105" rx="53.8905" ry="18"/>
<text text-anchor="middle" x="181.895" y="-101.3" font-family="Times,serif" font-size="14.00" fill="#000000">Observation</text>
</a>
</g>
</g>
<!-- Theorization&#45;&gt;Observation -->
<g id="edge6" class="edge">
<title>Theorization&#45;&gt;Observation</title>
<path fill="none" stroke="#000000" d="M63.2651,-36.1518C68.4632,-46.9717 76.3764,-60.2578 86.895,-69 98.5773,-78.7093 113.1515,-85.9603 127.3495,-91.3081"/>
<polygon fill="none" stroke="#000000" points="126.4838,-94.7132 137.0786,-94.7131 128.7962,-88.1061 126.4838,-94.7132"/>
<text text-anchor="middle" x="96.395" y="-57.8" font-family="Times,serif" font-size="14.00" fill="#000000">isA</text>
</g>
<!-- PhysicalPhenomenon -->
<g id="node2" class="node">
<title>PhysicalPhenomenon</title>
<g id="a_node2"><a xlink:href="http://emmo.info/emmo/middle/models#EMMO_314d0bd5_67ed_437e_a609_36d46147cea7" xlink:title="PhysicalPhenomenon">
<ellipse fill="#ffffcc" stroke="#000000" cx="329.895" cy="-192" rx="87.1846" ry="18"/>
<text text-anchor="middle" x="329.895" y="-188.3" font-family="Times,serif" font-size="14.00" fill="#000000">PhysicalPhenomenon</text>
</a>
</g>
</g>
<!-- Process -->
<g id="node3" class="node">
<title>Process</title>
<g id="a_node3"><a xlink:href="http://emmo.info/emmo/middle/holistic#EMMO_43e9a05d_98af_41b4_92f6_00f79a09bfce" xlink:title="Process">
<ellipse fill="#ffffcc" stroke="#000000" stroke-width="2" cx="329.895" cy="-279" rx="37.8943" ry="18"/>
<text text-anchor="middle" x="329.895" y="-275.3" font-family="Times,serif" font-size="14.00" fill="#000000">Process</text>
</a>
</g>
</g>
<!-- PhysicalPhenomenon&#45;&gt;Process -->
<g id="edge7" class="edge">
<title>PhysicalPhenomenon&#45;&gt;Process</title>
<path fill="none" stroke="#000000" d="M329.895,-210.0265C329.895,-221.8082 329.895,-237.4393 329.895,-250.8419"/>
<polygon fill="none" stroke="#000000" points="326.3951,-250.9966 329.895,-260.9966 333.3951,-250.9967 326.3951,-250.9966"/>
<text text-anchor="middle" x="339.395" y="-231.8" font-family="Times,serif" font-size="14.00" fill="#000000">isA</text>
</g>
<!-- Experiment -->
<g id="node4" class="node">
<title>Experiment</title>
<g id="a_node4"><a xlink:href="http://emmo.info/emmo/middle/models#EMMO_22522299_4091_4d1f_82a2_3890492df6db" xlink:title="Experiment">
<ellipse fill="#ffffcc" stroke="#000000" cx="181.895" cy="-18" rx="51.9908" ry="18"/>
<text text-anchor="middle" x="181.895" y="-14.3" font-family="Times,serif" font-size="14.00" fill="#000000">Experiment</text>
</a>
</g>
</g>
<!-- Experiment&#45;&gt;PhysicalPhenomenon -->
<g id="edge4" class="edge">
<title>Experiment&#45;&gt;PhysicalPhenomenon</title>
<path fill="none" stroke="#ff0000" d="M174.8361,-36.2438C172.0107,-46.8294 170.8694,-59.8378 177.895,-69 196.6573,-93.4682 219.0426,-70.1962 244.895,-87 275.4097,-106.8342 300.1622,-141.2027 314.9262,-165.1979"/>
<polygon fill="#ff0000" stroke="#ff0000" points="311.9529,-167.0455 320.0868,-173.8345 317.9619,-163.4549 311.9529,-167.0455"/>
<text text-anchor="middle" x="338.895" y="-101.3" font-family="Times,serif" font-size="14.00" fill="#000000">hasParticipant some</text>
</g>
<!-- Experiment&#45;&gt;Observation -->
<g id="edge3" class="edge">
<title>Experiment&#45;&gt;Observation</title>
<path fill="none" stroke="#000000" d="M181.895,-36.0265C181.895,-47.8082 181.895,-63.4393 181.895,-76.8419"/>
<polygon fill="none" stroke="#000000" points="178.3951,-76.9966 181.895,-86.9966 185.3951,-76.9967 178.3951,-76.9966"/>
<text text-anchor="middle" x="191.395" y="-57.8" font-family="Times,serif" font-size="14.00" fill="#000000">isA</text>
</g>
<!-- Measurement -->
<g id="node5" class="node">
<title>Measurement</title>
<g id="a_node5"><a xlink:href="http://emmo.info/emmo/middle/properties#EMMO_463bcfda_867b_41d9_a967_211d4d437cfb" xlink:title="Measurement">
<ellipse fill="#ffffcc" stroke="#000000" cx="311.895" cy="-18" rx="59.5901" ry="18"/>
<text text-anchor="middle" x="311.895" y="-14.3" font-family="Times,serif" font-size="14.00" fill="#000000">Measurement</text>
</a>
</g>
</g>
<!-- Measurement&#45;&gt;Observation -->
<g id="edge5" class="edge">
<title>Measurement&#45;&gt;Observation</title>
<path fill="none" stroke="#000000" d="M287.137,-34.5688C266.5858,-48.3223 237.1862,-67.9975 214.6815,-83.0583"/>
<polygon fill="none" stroke="#000000" points="212.4848,-80.3169 206.1208,-88.7874 216.3781,-86.1343 212.4848,-80.3169"/>
<text text-anchor="middle" x="263.395" y="-57.8" font-family="Times,serif" font-size="14.00" fill="#000000">isA</text>
</g>
<!-- Semiosis -->
<g id="node7" class="node">
<title>Semiosis</title>
<g id="a_node7"><a xlink:href="http://emmo.info/emmo/top/semiotics#EMMO_008fd3b2_4013_451f_8827_52bceab11841" xlink:title="Semiosis">
<ellipse fill="#ffffcc" stroke="#000000" cx="181.895" cy="-192" rx="42.7926" ry="18"/>
<text text-anchor="middle" x="181.895" y="-188.3" font-family="Times,serif" font-size="14.00" fill="#000000">Semiosis</text>
</a>
</g>
</g>
<!-- Observation&#45;&gt;Semiosis -->
<g id="edge8" class="edge">
<title>Observation&#45;&gt;Semiosis</title>
<path fill="none" stroke="#000000" d="M181.895,-123.0265C181.895,-134.8082 181.895,-150.4393 181.895,-163.8419"/>
<polygon fill="none" stroke="#000000" points="178.3951,-163.9966 181.895,-173.9966 185.3951,-163.9967 178.3951,-163.9966"/>
<text text-anchor="middle" x="191.395" y="-144.8" font-family="Times,serif" font-size="14.00" fill="#000000">isA</text>
</g>
<!-- Semiosis&#45;&gt;Process -->
<g id="edge2" class="edge">
<title>Semiosis&#45;&gt;Process</title>
<path fill="none" stroke="#000000" d="M207.0012,-206.7584C231.7489,-221.306 269.7021,-243.6163 296.8806,-259.5929"/>
<polygon fill="none" stroke="#000000" points="295.2555,-262.6975 305.65,-264.7479 298.8029,-256.6629 295.2555,-262.6975"/>
<text text-anchor="middle" x="273.395" y="-231.8" font-family="Times,serif" font-size="14.00" fill="#000000">isA</text>
</g>
<!-- Manufacturing -->
<g id="node8" class="node">
<title>Manufacturing</title>
<g id="a_node8"><a xlink:href="http://emmo.info/emmo/middle/manufacturing#EMMO_a4d66059_5dd3_4b90_b4cb_10960559441b" xlink:title="Manufacturing">
<ellipse fill="#ffffcc" stroke="#000000" cx="498.895" cy="-192" rx="63.8893" ry="18"/>
<text text-anchor="middle" x="498.895" y="-188.3" font-family="Times,serif" font-size="14.00" fill="#000000">Manufacturing</text>
</a>
</g>
</g>
<!-- Manufacturing&#45;&gt;Process -->
<g id="edge1" class="edge">
<title>Manufacturing&#45;&gt;Process</title>
<path fill="none" stroke="#000000" d="M467.8978,-207.9571C438.7091,-222.9833 395.0513,-245.458 364.6844,-261.0907"/>
<polygon fill="none" stroke="#000000" points="363.0068,-258.0177 355.7177,-265.7067 366.2107,-264.2415 363.0068,-258.0177"/>
<text text-anchor="middle" x="433.395" y="-231.8" font-family="Times,serif" font-size="14.00" fill="#000000">isA</text>
</g>
</g>
</svg>
