<?xml version="1.0" encoding="UTF-8" standalone="no"?>
<!DOCTYPE svg PUBLIC "-//W3C//DTD SVG 1.1//EN"
 "http://www.w3.org/Graphics/SVG/1.1/DTD/svg11.dtd">
<!-- Generated by graphviz version 2.40.1 (20161225.0304)
 -->
<!-- Title: %3 Pages: 1 -->
<svg width="670pt" height="305pt"
 viewBox="0.00 0.00 670.14 305.00" xmlns="http://www.w3.org/2000/svg" xmlns:xlink="http://www.w3.org/1999/xlink">
<g id="graph0" class="graph" transform="scale(1 1) rotate(0) translate(4 301)">
<title>%3</title>
<polygon fill="#ffffff" stroke="transparent" points="-4,4 -4,-301 666.1413,-301 666.1413,4 -4,4"/>
<!-- Reductionistic -->
<g id="node1" class="node">
<title>Reductionistic</title>
<g id="a_node1"><a xlink:href="http://emmo.info/emmo/middle/reductionistic#EMMO_15db234d_ecaf_4715_9838_4b4ec424fb13" xlink:title="Reductionistic">
<ellipse fill="#ffc880" stroke="#000000" stroke-width="2" cx="499.4948" cy="-279" rx="61.99" ry="18"/>
<text text-anchor="middle" x="499.4948" y="-275.3" font-family="Times,serif" font-size="14.00" fill="#000000">Reductionistic</text>
</a>
</g>
</g>
<!-- Formula -->
<g id="node2" class="node">
<title>Formula</title>
<g id="a_node2"><a xlink:href="http://emmo.info/emmo/middle/math#EMMO_88470739_03d3_4c47_a03e_b30a1288d50c" xlink:title="Formula">
<ellipse fill="#ffffcc" stroke="#000000" stroke-width="2" cx="170.4948" cy="-18" rx="40.8928" ry="18"/>
<text text-anchor="middle" x="170.4948" y="-14.3" font-family="Times,serif" font-size="14.00" fill="#000000">Formula</text>
</a>
</g>
</g>
<!-- SymbolicComposition -->
<g id="node4" class="node">
<title>SymbolicComposition</title>
<g id="a_node4"><a xlink:href="http://emmo.info/emmo/middle/perceptual#EMMO_89a0c87c_0804_4013_937a_6fe234d9499c" xlink:title="SymbolicComposition">
<ellipse fill="#ffffcc" stroke="#000000" cx="225.4948" cy="-105" rx="90.9839" ry="18"/>
<text text-anchor="middle" x="225.4948" y="-101.3" font-family="Times,serif" font-size="14.00" fill="#000000">SymbolicComposition</text>
</a>
</g>
</g>
<!-- Formula&#45;&gt;SymbolicComposition -->
<g id="edge11" class="edge">
<title>Formula&#45;&gt;SymbolicComposition</title>
<path fill="none" stroke="#000000" d="M181.6249,-35.6057C189.401,-47.9062 199.9228,-64.5497 208.7127,-78.4537"/>
<polygon fill="none" stroke="#000000" points="205.8905,-80.5395 214.1925,-87.1218 211.8073,-76.799 205.8905,-80.5395"/>
<text text-anchor="middle" x="210.9948" y="-57.8" font-family="Times,serif" font-size="14.00" fill="#000000">isA</text>
</g>
<!-- MaterialState -->
<g id="node3" class="node">
<title>MaterialState</title>
<g id="a_node3"><a xlink:href="http://emmo.info/emmo/middle/materials#EMMO_20fff605_465f_4034_8696_e53e90ec83f4" xlink:title="MaterialState">
<ellipse fill="#ffc880" stroke="#000000" stroke-width="2" cx="58.4948" cy="-105" rx="58.4896" ry="18"/>
<text text-anchor="middle" x="58.4948" y="-101.3" font-family="Times,serif" font-size="14.00" fill="#000000">MaterialState</text>
</a>
</g>
</g>
<!-- State -->
<g id="node8" class="node">
<title>State</title>
<g id="a_node8"><a xlink:href="http://emmo.info/emmo/middle/reductionistic#EMMO_36c79456_e29c_400d_8bd3_0eedddb82652" xlink:title="State">
<ellipse fill="#ffffcc" stroke="#000000" cx="376.4948" cy="-192" rx="28.6953" ry="18"/>
<text text-anchor="middle" x="376.4948" y="-188.3" font-family="Times,serif" font-size="14.00" fill="#000000">State</text>
</a>
</g>
</g>
<!-- MaterialState&#45;&gt;State -->
<g id="edge8" class="edge">
<title>MaterialState&#45;&gt;State</title>
<path fill="none" stroke="#000000" d="M102.3775,-117.0056C165.7058,-134.3313 281.547,-166.0237 340.2845,-182.0934"/>
<polygon fill="none" stroke="#000000" points="339.6541,-185.5495 350.2232,-184.8125 341.5013,-178.7976 339.6541,-185.5495"/>
<text text-anchor="middle" x="246.9948" y="-144.8" font-family="Times,serif" font-size="14.00" fill="#000000">isA</text>
</g>
<!-- SymbolicComposition&#45;&gt;State -->
<g id="edge6" class="edge">
<title>SymbolicComposition&#45;&gt;State</title>
<path fill="none" stroke="#000000" d="M255.3276,-122.1884C281.622,-137.3382 319.7538,-159.3081 346.189,-174.539"/>
<polygon fill="none" stroke="#000000" points="344.601,-177.6634 355.013,-179.6231 348.0956,-171.5981 344.601,-177.6634"/>
<text text-anchor="middle" x="319.9948" y="-144.8" font-family="Times,serif" font-size="14.00" fill="#000000">isA</text>
</g>
<!-- Expression -->
<g id="node5" class="node">
<title>Expression</title>
<g id="a_node5"><a xlink:href="http://emmo.info/emmo/middle/math#EMMO_f9bc8b52_85e9_4b53_b969_dd7724d5b8e4" xlink:title="Expression">
<ellipse fill="#ffffcc" stroke="#000000" stroke-width="2" cx="279.4948" cy="-18" rx="50.0912" ry="18"/>
<text text-anchor="middle" x="279.4948" y="-14.3" font-family="Times,serif" font-size="14.00" fill="#000000">Expression</text>
</a>
</g>
</g>
<!-- Expression&#45;&gt;SymbolicComposition -->
<g id="edge5" class="edge">
<title>Expression&#45;&gt;SymbolicComposition</title>
<path fill="none" stroke="#000000" d="M268.5671,-35.6057C260.9324,-47.9062 250.6019,-64.5497 241.9718,-78.4537"/>
<polygon fill="none" stroke="#000000" points="238.8915,-76.7796 236.5916,-87.1218 244.839,-80.4712 238.8915,-76.7796"/>
<text text-anchor="middle" x="265.9948" y="-57.8" font-family="Times,serif" font-size="14.00" fill="#000000">isA</text>
</g>
<!-- Quantity -->
<g id="node6" class="node">
<title>Quantity</title>
<g id="a_node6"><a xlink:href="http://emmo.info/emmo/middle/units#EMMO_f658c301_ce93_46cf_9639_4eace2c5d1d5" xlink:title="Quantity">
<ellipse fill="#ffffcc" stroke="#000000" stroke-width="2" cx="376.4948" cy="-105" rx="41.6928" ry="18"/>
<text text-anchor="middle" x="376.4948" y="-101.3" font-family="Times,serif" font-size="14.00" fill="#000000">Quantity</text>
</a>
</g>
</g>
<!-- Quantity&#45;&gt;State -->
<g id="edge10" class="edge">
<title>Quantity&#45;&gt;State</title>
<path fill="none" stroke="#000000" d="M376.4948,-123.0265C376.4948,-134.8082 376.4948,-150.4393 376.4948,-163.8419"/>
<polygon fill="none" stroke="#000000" points="372.9949,-163.9966 376.4948,-173.9966 379.9949,-163.9967 372.9949,-163.9966"/>
<text text-anchor="middle" x="385.9948" y="-144.8" font-family="Times,serif" font-size="14.00" fill="#000000">isA</text>
</g>
<!-- PrefixedUnit -->
<g id="node7" class="node">
<title>PrefixedUnit</title>
<g id="a_node7"><a xlink:href="http://emmo.info/emmo/middle/units#EMMO_c6d4a5e0_7e95_44df_a6db_84ee0a8bbc8e" xlink:title="PrefixedUnit">
<ellipse fill="#ffffcc" stroke="#000000" stroke-width="2" cx="491.4948" cy="-105" rx="55.7903" ry="18"/>
<text text-anchor="middle" x="491.4948" y="-101.3" font-family="Times,serif" font-size="14.00" fill="#000000">PrefixedUnit</text>
</a>
</g>
</g>
<!-- PrefixedUnit&#45;&gt;State -->
<g id="edge7" class="edge">
<title>PrefixedUnit&#45;&gt;State</title>
<path fill="none" stroke="#000000" d="M469.5935,-121.5688C450.6621,-135.8908 423.2428,-156.6342 403.0618,-171.9015"/>
<polygon fill="none" stroke="#000000" points="400.7651,-169.2502 394.9018,-178.0747 404.9884,-174.8327 400.7651,-169.2502"/>
<text text-anchor="middle" x="450.9948" y="-144.8" font-family="Times,serif" font-size="14.00" fill="#000000">isA</text>
</g>
<!-- State&#45;&gt;Reductionistic -->
<g id="edge4" class="edge">
<title>State&#45;&gt;Reductionistic</title>
<path fill="none" stroke="#000000" d="M395.7136,-205.5938C414.8854,-219.1543 444.6822,-240.2301 467.439,-256.3264"/>
<polygon fill="none" stroke="#000000" points="465.5939,-259.3083 475.7792,-262.2255 469.6361,-253.5934 465.5939,-259.3083"/>
<text text-anchor="middle" x="454.9948" y="-231.8" font-family="Times,serif" font-size="14.00" fill="#000000">isA</text>
</g>
<!-- String -->
<g id="node9" class="node">
<title>String</title>
<g id="a_node9"><a xlink:href="http://emmo.info/emmo/middle/perceptual#EMMO_50ea1ec5_f157_41b0_b46b_a9032f17ca10" xlink:title="String">
<ellipse fill="#ffffcc" stroke="#000000" cx="597.4948" cy="-105" rx="32.4942" ry="18"/>
<text text-anchor="middle" x="597.4948" y="-101.3" font-family="Times,serif" font-size="14.00" fill="#000000">String</text>
</a>
</g>
</g>
<!-- String&#45;&gt;State -->
<g id="edge9" class="edge">
<title>String&#45;&gt;State</title>
<path fill="none" stroke="#000000" d="M571.986,-116.4231C566.8743,-118.6488 561.5281,-120.9318 556.4948,-123 506.2701,-143.6376 447.4072,-165.8313 411.0291,-179.3191"/>
<polygon fill="none" stroke="#000000" points="409.5556,-176.1323 401.3907,-182.884 411.9839,-182.6976 409.5556,-176.1323"/>
<text text-anchor="middle" x="516.9948" y="-144.8" font-family="Times,serif" font-size="14.00" fill="#000000">isA</text>
</g>
<!-- Existent -->
<g id="node10" class="node">
<title>Existent</title>
<g id="a_node10"><a xlink:href="http://emmo.info/emmo/middle/reductionistic#EMMO_52211e5e_d767_4812_845e_eb6b402c476a" xlink:title="Existent">
<ellipse fill="#ffffcc" stroke="#000000" cx="622.4948" cy="-192" rx="39.7935" ry="18"/>
<text text-anchor="middle" x="622.4948" y="-188.3" font-family="Times,serif" font-size="14.00" fill="#000000">Existent</text>
</a>
</g>
</g>
<!-- Existent&#45;&gt;Reductionistic -->
<g id="edge1" class="edge">
<title>Existent&#45;&gt;Reductionistic</title>
<path fill="none" stroke="#000000" d="M601.0698,-207.1542C581.8688,-220.7355 553.4366,-240.846 531.533,-256.3389"/>
<polygon fill="none" stroke="#000000" points="529.3353,-253.6063 523.1922,-262.2384 533.3776,-259.3212 529.3353,-253.6063"/>
<text text-anchor="middle" x="576.9948" y="-231.8" font-family="Times,serif" font-size="14.00" fill="#000000">isA</text>
</g>
<!-- Existent&#45;&gt;State -->
<g id="edge2" class="edge">
<title>Existent&#45;&gt;State</title>
<path fill="none" stroke="#ff00ff" stroke-dasharray="5,2" d="M582.6095,-192C536.4623,-192 460.985,-192 415.301,-192"/>
<polygon fill="#ff00ff" stroke="#ff00ff" points="415.1956,-188.5001 405.1956,-192 415.1956,-195.5001 415.1956,-188.5001"/>
<text text-anchor="middle" x="493.9703" y="-177.8" font-family="Times,serif" font-size="14.00" fill="#000000">hasTemporalDirectPart some</text>
</g>
<!-- Existent&#45;&gt;State -->
<g id="edge3" class="edge">
<title>Existent&#45;&gt;State</title>
<path fill="none" stroke="#ff00ff" stroke-dasharray="5,2" d="M593.2687,-204.2118C586.25,-206.6095 578.6921,-208.7635 571.4703,-210 537.5199,-215.8128 450.1469,-217.2322 416.4703,-210 413.6099,-209.3857 410.7073,-208.5501 407.8396,-207.5735"/>
<polygon fill="#ff00ff" stroke="#ff00ff" points="408.9231,-204.2385 398.3362,-203.8265 406.3554,-210.7506 408.9231,-204.2385"/>
<text text-anchor="middle" x="493.9703" y="-198.8" font-family="Times,serif" font-size="14.00" fill="#000000">hasTemporalDirectPart only</text>
</g>
</g>
</svg>
