<?xml version="1.0" encoding="UTF-8" standalone="no"?>
<!DOCTYPE svg PUBLIC "-//W3C//DTD SVG 1.1//EN"
 "http://www.w3.org/Graphics/SVG/1.1/DTD/svg11.dtd">
<!-- Generated by graphviz version 2.40.1 (20161225.0304)
 -->
<!-- Title: %3 Pages: 1 -->
<svg width="404pt" height="131pt"
 viewBox="0.00 0.00 404.19 131.00" xmlns="http://www.w3.org/2000/svg" xmlns:xlink="http://www.w3.org/1999/xlink">
<g id="graph0" class="graph" transform="scale(1 1) rotate(0) translate(4 127)">
<title>%3</title>
<polygon fill="#ffffff" stroke="transparent" points="-4,4 -4,-127 400.1915,-127 400.1915,4 -4,4"/>
<!-- SIUnitSymbol -->
<g id="node1" class="node">
<title>SIUnitSymbol</title>
<g id="a_node1"><a xlink:href="http://emmo.info/emmo/middle/siunits#EMMO_32129fb5_df25_48fd_a29c_18a2f22a2dd5" xlink:title="SIUnitSymbol">
<ellipse fill="#ffffcc" stroke="#000000" cx="61.7445" cy="-18" rx="61.99" ry="18"/>
<text text-anchor="middle" x="61.7445" y="-14.3" font-family="Times,serif" font-size="14.00" fill="#000000">SIUnitSymbol</text>
</a>
</g>
</g>
<!-- Semiotic -->
<g id="node2" class="node">
<title>Semiotic</title>
<g id="a_node2"><a xlink:href="http://emmo.info/emmo/top/semiotics#EMMO_b803f122_4acb_4064_9d71_c1e5fd091fc9" xlink:title="Semiotic">
<ellipse fill="#ffc880" stroke="#000000" stroke-width="2" cx="235.7445" cy="-105" rx="42.4939" ry="18"/>
<text text-anchor="middle" x="235.7445" y="-101.3" font-family="Times,serif" font-size="14.00" fill="#000000">Semiotic</text>
</a>
</g>
</g>
<!-- SIUnitSymbol&#45;&gt;Semiotic -->
<g id="edge1" class="edge">
<title>SIUnitSymbol&#45;&gt;Semiotic</title>
<path fill="none" stroke="#000000" d="M92.8522,-33.5539C122.6174,-48.4365 167.5193,-70.8874 199.0255,-86.6405"/>
<polygon fill="none" stroke="#000000" points="197.8321,-89.9569 208.3416,-91.2986 200.9626,-83.6959 197.8321,-89.9569"/>
<text text-anchor="middle" x="169.2445" y="-57.8" font-family="Times,serif" font-size="14.00" fill="#000000">isA</text>
</g>
<!-- Interpreter -->
<g id="node3" class="node">
<title>Interpreter</title>
<g id="a_node3"><a xlink:href="http://emmo.info/emmo/top/semiotics#EMMO_0527413c_b286_4e9c_b2d0_03fb2a038dee" xlink:title="Interpreter">
<ellipse fill="#ffffcc" stroke="#000000" stroke-width="2" cx="189.7445" cy="-18" rx="48.1917" ry="18"/>
<text text-anchor="middle" x="189.7445" y="-14.3" font-family="Times,serif" font-size="14.00" fill="#000000">Interpreter</text>
</a>
</g>
</g>
<!-- Interpreter&#45;&gt;Semiotic -->
<g id="edge3" class="edge">
<title>Interpreter&#45;&gt;Semiotic</title>
<path fill="none" stroke="#000000" d="M199.2758,-36.0265C205.733,-48.2391 214.3771,-64.5877 221.6289,-78.303"/>
<polygon fill="none" stroke="#000000" points="218.6145,-80.0899 226.3829,-87.2943 224.8028,-76.818 218.6145,-80.0899"/>
<text text-anchor="middle" x="225.2445" y="-57.8" font-family="Times,serif" font-size="14.00" fill="#000000">isA</text>
</g>
<!-- Sign -->
<g id="node4" class="node">
<title>Sign</title>
<g id="a_node4"><a xlink:href="http://emmo.info/emmo/top/semiotics#EMMO_b21a56ed_f969_4612_a6ec_cb7766f7f31d" xlink:title="Sign">
<ellipse fill="#ffc880" stroke="#000000" stroke-width="2" cx="282.7445" cy="-18" rx="27" ry="18"/>
<text text-anchor="middle" x="282.7445" y="-14.3" font-family="Times,serif" font-size="14.00" fill="#000000">Sign</text>
</a>
</g>
</g>
<!-- Sign&#45;&gt;Semiotic -->
<g id="edge4" class="edge">
<title>Sign&#45;&gt;Semiotic</title>
<path fill="none" stroke="#000000" d="M273.4588,-35.1884C266.851,-47.4199 257.8414,-64.0973 250.2852,-78.0842"/>
<polygon fill="none" stroke="#000000" points="247.0073,-76.7882 245.3336,-87.25 253.1661,-80.1154 247.0073,-76.7882"/>
<text text-anchor="middle" x="271.2445" y="-57.8" font-family="Times,serif" font-size="14.00" fill="#000000">isA</text>
</g>
<!-- Object -->
<g id="node5" class="node">
<title>Object</title>
<g id="a_node5"><a xlink:href="http://emmo.info/emmo/top/semiotics#EMMO_6f5af708_f825_4feb_a0d1_a8d813d3022b" xlink:title="Object">
<ellipse fill="#ffffcc" stroke="#000000" stroke-width="2" cx="361.7445" cy="-18" rx="34.394" ry="18"/>
<text text-anchor="middle" x="361.7445" y="-14.3" font-family="Times,serif" font-size="14.00" fill="#000000">Object</text>
</a>
</g>
</g>
<!-- Object&#45;&gt;Semiotic -->
<g id="edge2" class="edge">
<title>Object&#45;&gt;Semiotic</title>
<path fill="none" stroke="#000000" d="M340.9382,-32.3663C320.7329,-46.3176 289.8112,-67.6682 266.7146,-83.6159"/>
<polygon fill="none" stroke="#000000" points="264.5247,-80.8746 258.2844,-89.4367 268.5021,-86.6349 264.5247,-80.8746"/>
<text text-anchor="middle" x="315.2445" y="-57.8" font-family="Times,serif" font-size="14.00" fill="#000000">isA</text>
</g>
</g>
</svg>
