<?xml version="1.0" encoding="UTF-8" standalone="no"?>
<!DOCTYPE svg PUBLIC "-//W3C//DTD SVG 1.1//EN"
 "http://www.w3.org/Graphics/SVG/1.1/DTD/svg11.dtd">
<!-- Generated by graphviz version 2.40.1 (20161225.0304)
 -->
<!-- Title: %3 Pages: 1 -->
<svg width="629pt" height="131pt"
 viewBox="0.00 0.00 628.94 131.00" xmlns="http://www.w3.org/2000/svg" xmlns:xlink="http://www.w3.org/1999/xlink">
<g id="graph0" class="graph" transform="scale(1 1) rotate(0) translate(4 127)">
<title>%3</title>
<polygon fill="#ffffff" stroke="transparent" points="-4,4 -4,-127 624.9441,-127 624.9441,4 -4,4"/>
<!-- Kelvin -->
<g id="node1" class="node">
<title>Kelvin</title>
<g id="a_node1"><a xlink:href="http://emmo.info/emmo/middle/siunits#EMMO_2e5e45fc_f52c_4294_bdc2_5ed7a06dfce7" xlink:title="Kelvin">
<ellipse fill="#ffffcc" stroke="#000000" cx="34.4469" cy="-18" rx="34.394" ry="18"/>
<text text-anchor="middle" x="34.4469" y="-14.3" font-family="Times,serif" font-size="14.00" fill="#000000">Kelvin</text>
</a>
</g>
</g>
<!-- SIBaseUnit -->
<g id="node4" class="node">
<title>SIBaseUnit</title>
<g id="a_node4"><a xlink:href="http://emmo.info/emmo/middle/siunits#EMMO_3a185e6c_9e19_4776_b583_19c978156aa0" xlink:title="SIBaseUnit">
<ellipse fill="#ffffcc" stroke="#000000" stroke-width="2" cx="294.4469" cy="-105" rx="51.1914" ry="18"/>
<text text-anchor="middle" x="294.4469" y="-101.3" font-family="Times,serif" font-size="14.00" fill="#000000">SIBaseUnit</text>
</a>
</g>
</g>
<!-- Kelvin&#45;&gt;SIBaseUnit -->
<g id="edge2" class="edge">
<title>Kelvin&#45;&gt;SIBaseUnit</title>
<path fill="none" stroke="#000000" d="M61.2026,-29.4361C66.5634,-31.6607 72.1697,-33.94 77.4469,-36 117.5235,-51.6441 127.5168,-55.7492 168.4469,-69 192.9575,-76.9351 220.4385,-84.8943 243.466,-91.3036"/>
<polygon fill="none" stroke="#000000" points="242.8012,-94.751 253.3723,-94.042 244.6664,-88.004 242.8012,-94.751"/>
<text text-anchor="middle" x="177.9469" y="-57.8" font-family="Times,serif" font-size="14.00" fill="#000000">isA</text>
</g>
<!-- Mole -->
<g id="node2" class="node">
<title>Mole</title>
<g id="a_node2"><a xlink:href="http://emmo.info/emmo/middle/siunits#EMMO_df6eeb01_1b41_4bd8_9257_a04fbd7cf000" xlink:title="Mole">
<ellipse fill="#ffffcc" stroke="#000000" cx="116.4469" cy="-18" rx="29.795" ry="18"/>
<text text-anchor="middle" x="116.4469" y="-14.3" font-family="Times,serif" font-size="14.00" fill="#000000">Mole</text>
</a>
</g>
</g>
<!-- Mole&#45;&gt;SIBaseUnit -->
<g id="edge1" class="edge">
<title>Mole&#45;&gt;SIBaseUnit</title>
<path fill="none" stroke="#000000" d="M139.7241,-29.6268C160.574,-40.0171 192.0052,-55.6208 219.4469,-69 230.8065,-74.5384 243.1626,-80.4964 254.507,-85.9403"/>
<polygon fill="none" stroke="#000000" points="253.2236,-89.2064 263.7542,-90.3717 256.2487,-82.8938 253.2236,-89.2064"/>
<text text-anchor="middle" x="228.9469" y="-57.8" font-family="Times,serif" font-size="14.00" fill="#000000">isA</text>
</g>
<!-- Second -->
<g id="node3" class="node">
<title>Second</title>
<g id="a_node3"><a xlink:href="http://emmo.info/emmo/middle/siunits#EMMO_314ba716_2d3d_4462_9a4f_d3419ae1df43" xlink:title="Second">
<ellipse fill="#ffffcc" stroke="#000000" cx="200.4469" cy="-18" rx="36.2938" ry="18"/>
<text text-anchor="middle" x="200.4469" y="-14.3" font-family="Times,serif" font-size="14.00" fill="#000000">Second</text>
</a>
</g>
</g>
<!-- Second&#45;&gt;SIBaseUnit -->
<g id="edge5" class="edge">
<title>Second&#45;&gt;SIBaseUnit</title>
<path fill="none" stroke="#000000" d="M217.688,-33.9571C231.8991,-47.11 252.2766,-65.97 268.4647,-80.9526"/>
<polygon fill="none" stroke="#000000" points="266.3133,-83.7304 276.0297,-87.9543 271.068,-78.593 266.3133,-83.7304"/>
<text text-anchor="middle" x="262.9469" y="-57.8" font-family="Times,serif" font-size="14.00" fill="#000000">isA</text>
</g>
<!-- Candela -->
<g id="node5" class="node">
<title>Candela</title>
<g id="a_node5"><a xlink:href="http://emmo.info/emmo/middle/siunits#EMMO_8d00f093_3f45_4ea3_986c_b3545c3c2f4c" xlink:title="Candela">
<ellipse fill="#ffffcc" stroke="#000000" cx="294.4469" cy="-18" rx="39.7935" ry="18"/>
<text text-anchor="middle" x="294.4469" y="-14.3" font-family="Times,serif" font-size="14.00" fill="#000000">Candela</text>
</a>
</g>
</g>
<!-- Candela&#45;&gt;SIBaseUnit -->
<g id="edge6" class="edge">
<title>Candela&#45;&gt;SIBaseUnit</title>
<path fill="none" stroke="#000000" d="M294.4469,-36.0265C294.4469,-47.8082 294.4469,-63.4393 294.4469,-76.8419"/>
<polygon fill="none" stroke="#000000" points="290.947,-76.9966 294.4469,-86.9966 297.947,-76.9967 290.947,-76.9966"/>
<text text-anchor="middle" x="303.9469" y="-57.8" font-family="Times,serif" font-size="14.00" fill="#000000">isA</text>
</g>
<!-- Ampere -->
<g id="node6" class="node">
<title>Ampere</title>
<g id="a_node6"><a xlink:href="http://emmo.info/emmo/middle/siunits#EMMO_db5dd38d_ac79_4af6_8782_fee7e7150ae8" xlink:title="Ampere">
<ellipse fill="#ffffcc" stroke="#000000" cx="391.4469" cy="-18" rx="39.7935" ry="18"/>
<text text-anchor="middle" x="391.4469" y="-14.3" font-family="Times,serif" font-size="14.00" fill="#000000">Ampere</text>
</a>
</g>
</g>
<!-- Ampere&#45;&gt;SIBaseUnit -->
<g id="edge3" class="edge">
<title>Ampere&#45;&gt;SIBaseUnit</title>
<path fill="none" stroke="#000000" d="M373.202,-34.364C358.4873,-47.5617 337.5863,-66.308 321.0136,-81.1722"/>
<polygon fill="none" stroke="#000000" points="318.3792,-78.8334 313.2717,-88.1159 323.0531,-84.0445 318.3792,-78.8334"/>
<text text-anchor="middle" x="357.9469" y="-57.8" font-family="Times,serif" font-size="14.00" fill="#000000">isA</text>
</g>
<!-- Kilogram -->
<g id="node7" class="node">
<title>Kilogram</title>
<g id="a_node7"><a xlink:href="http://emmo.info/emmo/middle/siunits#EMMO_9bfd6f1e_b0ce_459c_beb7_8f1f41708bba" xlink:title="Kilogram">
<ellipse fill="#ffffcc" stroke="#000000" cx="493.4469" cy="-18" rx="44.6926" ry="18"/>
<text text-anchor="middle" x="493.4469" y="-14.3" font-family="Times,serif" font-size="14.00" fill="#000000">Kilogram</text>
</a>
</g>
</g>
<!-- Kilogram&#45;&gt;SIBaseUnit -->
<g id="edge7" class="edge">
<title>Kilogram&#45;&gt;SIBaseUnit</title>
<path fill="none" stroke="#000000" d="M462.7893,-31.4031C428.8176,-46.255 373.8458,-70.2879 336.0166,-86.8263"/>
<polygon fill="none" stroke="#000000" points="334.5521,-83.6466 326.7915,-90.8594 337.3562,-90.0605 334.5521,-83.6466"/>
<text text-anchor="middle" x="414.9469" y="-57.8" font-family="Times,serif" font-size="14.00" fill="#000000">isA</text>
</g>
<!-- Metre -->
<g id="node8" class="node">
<title>Metre</title>
<g id="a_node8"><a xlink:href="http://emmo.info/emmo/middle/siunits#EMMO_7db11dbf_a643_464a_9b56_07eabcc3e9c5" xlink:title="Metre">
<ellipse fill="#ffffcc" stroke="#000000" cx="588.4469" cy="-18" rx="32.4942" ry="18"/>
<text text-anchor="middle" x="588.4469" y="-14.3" font-family="Times,serif" font-size="14.00" fill="#000000">Metre</text>
</a>
</g>
</g>
<!-- Metre&#45;&gt;SIBaseUnit -->
<g id="edge4" class="edge">
<title>Metre&#45;&gt;SIBaseUnit</title>
<path fill="none" stroke="#000000" d="M563.524,-29.6194C558.2698,-31.877 552.7198,-34.1223 547.4469,-36 479.8959,-60.0551 399.7004,-80.6286 347.9881,-92.8993"/>
<polygon fill="none" stroke="#000000" points="346.9697,-89.5433 338.0375,-95.2413 348.5735,-96.3571 346.9697,-89.5433"/>
<text text-anchor="middle" x="494.9469" y="-57.8" font-family="Times,serif" font-size="14.00" fill="#000000">isA</text>
</g>
</g>
</svg>
