<?xml version="1.0" encoding="UTF-8" standalone="no"?>
<!DOCTYPE svg PUBLIC "-//W3C//DTD SVG 1.1//EN"
 "http://www.w3.org/Graphics/SVG/1.1/DTD/svg11.dtd">
<!-- Generated by graphviz version 2.40.1 (20161225.0304)
 -->
<!-- Title: %3 Pages: 1 -->
<svg width="527pt" height="218pt"
 viewBox="0.00 0.00 526.79 218.00" xmlns="http://www.w3.org/2000/svg" xmlns:xlink="http://www.w3.org/1999/xlink">
<g id="graph0" class="graph" transform="scale(1 1) rotate(0) translate(4 214)">
<title>%3</title>
<polygon fill="#ffffff" stroke="transparent" points="-4,4 -4,-214 522.7901,-214 522.7901,4 -4,4"/>
<!-- Interpretant -->
<g id="node1" class="node">
<title>Interpretant</title>
<g id="a_node1"><a xlink:href="http://emmo.info/emmo/top/semiotics#EMMO_054af807_85cd_4a13_8eba_119dfdaaf38b" xlink:title="Interpretant">
<ellipse fill="#ffffcc" stroke="#000000" cx="51.9954" cy="-105" rx="51.9908" ry="18"/>
<text text-anchor="middle" x="51.9954" y="-101.3" font-family="Times,serif" font-size="14.00" fill="#000000">Interpretant</text>
</a>
</g>
</g>
<!-- Sign -->
<g id="node7" class="node">
<title>Sign</title>
<g id="a_node7"><a xlink:href="http://emmo.info/emmo/top/semiotics#EMMO_b21a56ed_f969_4612_a6ec_cb7766f7f31d" xlink:title="Sign">
<ellipse fill="#ffc880" stroke="#000000" stroke-width="2" cx="251.9954" cy="-192" rx="27" ry="18"/>
<text text-anchor="middle" x="251.9954" y="-188.3" font-family="Times,serif" font-size="14.00" fill="#000000">Sign</text>
</a>
</g>
</g>
<!-- Interpretant&#45;&gt;Sign -->
<g id="edge1" class="edge">
<title>Interpretant&#45;&gt;Sign</title>
<path fill="none" stroke="#000000" d="M84.574,-119.1717C121.9658,-135.4371 182.8985,-161.9429 220.0305,-178.0953"/>
<polygon fill="none" stroke="#000000" points="218.8149,-181.3833 229.381,-182.1628 221.6072,-174.9643 218.8149,-181.3833"/>
<text text-anchor="middle" x="173.4954" y="-144.8" font-family="Times,serif" font-size="14.00" fill="#000000">isA</text>
</g>
<!-- Icon -->
<g id="node2" class="node">
<title>Icon</title>
<g id="a_node2"><a xlink:href="http://emmo.info/emmo/top/semiotics#EMMO_d7788d1a_020d_4c78_85a1_13563fcec168" xlink:title="Icon">
<ellipse fill="#ffffcc" stroke="#000000" stroke-width="2" cx="148.9954" cy="-105" rx="27" ry="18"/>
<text text-anchor="middle" x="148.9954" y="-101.3" font-family="Times,serif" font-size="14.00" fill="#000000">Icon</text>
</a>
</g>
</g>
<!-- Icon&#45;&gt;Sign -->
<g id="edge2" class="edge">
<title>Icon&#45;&gt;Sign</title>
<path fill="none" stroke="#000000" d="M166.0037,-119.3663C182.7025,-133.471 208.3551,-155.1388 227.2992,-171.1402"/>
<polygon fill="none" stroke="#000000" points="225.0638,-173.8334 234.9618,-177.6124 229.5807,-168.4857 225.0638,-173.8334"/>
<text text-anchor="middle" x="216.4954" y="-144.8" font-family="Times,serif" font-size="14.00" fill="#000000">isA</text>
</g>
<!-- SISpecialUnit -->
<g id="node3" class="node">
<title>SISpecialUnit</title>
<g id="a_node3"><a xlink:href="http://emmo.info/emmo/middle/siunits#EMMO_e9ffc696_5228_4ff9_8a60_0f5e05e9931b" xlink:title="SISpecialUnit">
<ellipse fill="#ffffcc" stroke="#000000" stroke-width="2" cx="458.9954" cy="-18" rx="59.5901" ry="18"/>
<text text-anchor="middle" x="458.9954" y="-14.3" font-family="Times,serif" font-size="14.00" fill="#000000">SISpecialUnit</text>
</a>
</g>
</g>
<!-- SpecialUnit -->
<g id="node6" class="node">
<title>SpecialUnit</title>
<g id="a_node6"><a xlink:href="http://emmo.info/emmo/middle/units#EMMO_3ee80521_3c23_4dd1_935d_9d522614a3e2" xlink:title="SpecialUnit">
<ellipse fill="#ffffcc" stroke="#000000" cx="458.9954" cy="-105" rx="51.9908" ry="18"/>
<text text-anchor="middle" x="458.9954" y="-101.3" font-family="Times,serif" font-size="14.00" fill="#000000">SpecialUnit</text>
</a>
</g>
</g>
<!-- SISpecialUnit&#45;&gt;SpecialUnit -->
<g id="edge3" class="edge">
<title>SISpecialUnit&#45;&gt;SpecialUnit</title>
<path fill="none" stroke="#000000" d="M458.9954,-36.0265C458.9954,-47.8082 458.9954,-63.4393 458.9954,-76.8419"/>
<polygon fill="none" stroke="#000000" points="455.4955,-76.9966 458.9954,-86.9966 462.4955,-76.9967 455.4955,-76.9966"/>
<text text-anchor="middle" x="468.4954" y="-57.8" font-family="Times,serif" font-size="14.00" fill="#000000">isA</text>
</g>
<!-- Conventional -->
<g id="node4" class="node">
<title>Conventional</title>
<g id="a_node4"><a xlink:href="http://emmo.info/emmo/top/semiotics#EMMO_35d2e130_6e01_41ed_94f7_00b333d46cf9" xlink:title="Conventional">
<ellipse fill="#ffffcc" stroke="#000000" stroke-width="2" cx="251.9954" cy="-105" rx="57.6901" ry="18"/>
<text text-anchor="middle" x="251.9954" y="-101.3" font-family="Times,serif" font-size="14.00" fill="#000000">Conventional</text>
</a>
</g>
</g>
<!-- Conventional&#45;&gt;Sign -->
<g id="edge6" class="edge">
<title>Conventional&#45;&gt;Sign</title>
<path fill="none" stroke="#000000" d="M251.9954,-123.0265C251.9954,-134.8082 251.9954,-150.4393 251.9954,-163.8419"/>
<polygon fill="none" stroke="#000000" points="248.4955,-163.9966 251.9954,-173.9966 255.4955,-163.9967 248.4955,-163.9966"/>
<text text-anchor="middle" x="261.4954" y="-144.8" font-family="Times,serif" font-size="14.00" fill="#000000">isA</text>
</g>
<!-- Index -->
<g id="node5" class="node">
<title>Index</title>
<g id="a_node5"><a xlink:href="http://emmo.info/emmo/top/semiotics#EMMO_0cd58641_824c_4851_907f_f4c3be76630c" xlink:title="Index">
<ellipse fill="#ffffcc" stroke="#000000" cx="357.9954" cy="-105" rx="30.5947" ry="18"/>
<text text-anchor="middle" x="357.9954" y="-101.3" font-family="Times,serif" font-size="14.00" fill="#000000">Index</text>
</a>
</g>
</g>
<!-- Index&#45;&gt;Sign -->
<g id="edge5" class="edge">
<title>Index&#45;&gt;Sign</title>
<path fill="none" stroke="#000000" d="M340.0139,-119.7584C322.7516,-133.9265 296.5184,-155.4576 277.1797,-171.3299"/>
<polygon fill="none" stroke="#000000" points="274.8694,-168.6981 269.3601,-177.7479 279.3104,-174.109 274.8694,-168.6981"/>
<text text-anchor="middle" x="320.4954" y="-144.8" font-family="Times,serif" font-size="14.00" fill="#000000">isA</text>
</g>
<!-- SpecialUnit&#45;&gt;Sign -->
<g id="edge4" class="edge">
<title>SpecialUnit&#45;&gt;Sign</title>
<path fill="none" stroke="#000000" d="M425.7373,-118.9781C386.9204,-135.2924 323.1457,-162.0962 284.6081,-178.2932"/>
<polygon fill="none" stroke="#000000" points="282.7799,-175.265 274.9171,-182.3662 285.4921,-181.7182 282.7799,-175.265"/>
<text text-anchor="middle" x="376.4954" y="-144.8" font-family="Times,serif" font-size="14.00" fill="#000000">isA</text>
</g>
</g>
</svg>
