<?xml version="1.0" encoding="UTF-8" standalone="no"?>
<!DOCTYPE svg PUBLIC "-//W3C//DTD SVG 1.1//EN"
 "http://www.w3.org/Graphics/SVG/1.1/DTD/svg11.dtd">
<!-- Generated by graphviz version 2.40.1 (20161225.0304)
 -->
<!-- Title: %3 Pages: 1 -->
<svg width="609pt" height="392pt"
 viewBox="0.00 0.00 609.29 392.00" xmlns="http://www.w3.org/2000/svg" xmlns:xlink="http://www.w3.org/1999/xlink">
<g id="graph0" class="graph" transform="scale(1 1) rotate(0) translate(4 388)">
<title>%3</title>
<polygon fill="#ffffff" stroke="transparent" points="-4,4 -4,-388 605.2884,-388 605.2884,4 -4,4"/>
<!-- MetrologicalSymbol -->
<g id="node1" class="node">
<title>MetrologicalSymbol</title>
<g id="a_node1"><a xlink:href="http://emmo.info/emmo/middle/units#EMMO_50a3552e_859a_4ff7_946d_76d537cabce6" xlink:title="MetrologicalSymbol">
<ellipse fill="#ffc880" stroke="#000000" cx="241.5461" cy="-279" rx="84.485" ry="18"/>
<text text-anchor="middle" x="241.5461" y="-275.3" font-family="Times,serif" font-size="14.00" fill="#000000">MetrologicalSymbol</text>
</a>
</g>
</g>
<!-- Symbol -->
<g id="node2" class="node">
<title>Symbol</title>
<g id="a_node2"><a xlink:href="http://emmo.info/emmo/middle/perceptual#EMMO_a1083d0a_c1fb_471f_8e20_a98f881ad527" xlink:title="Symbol">
<ellipse fill="#ffffcc" stroke="#000000" stroke-width="2" cx="375.5461" cy="-366" rx="38.1938" ry="18"/>
<text text-anchor="middle" x="375.5461" y="-362.3" font-family="Times,serif" font-size="14.00" fill="#000000">Symbol</text>
</a>
</g>
</g>
<!-- MetrologicalSymbol&#45;&gt;Symbol -->
<g id="edge12" class="edge">
<title>MetrologicalSymbol&#45;&gt;Symbol</title>
<path fill="none" stroke="#000000" d="M268.0202,-296.1884C289.9332,-310.4155 321.1102,-330.6573 344.2551,-345.6842"/>
<polygon fill="none" stroke="#000000" points="342.403,-348.6546 352.6962,-351.1646 346.2149,-342.7835 342.403,-348.6546"/>
<text text-anchor="middle" x="326.0461" y="-318.8" font-family="Times,serif" font-size="14.00" fill="#000000">isA</text>
</g>
<!-- SIBaseUnit -->
<g id="node3" class="node">
<title>SIBaseUnit</title>
<g id="a_node3"><a xlink:href="http://emmo.info/emmo/middle/siunits#EMMO_3a185e6c_9e19_4776_b583_19c978156aa0" xlink:title="SIBaseUnit">
<ellipse fill="#ffffcc" stroke="#000000" stroke-width="2" cx="159.5461" cy="-18" rx="51.1914" ry="18"/>
<text text-anchor="middle" x="159.5461" y="-14.3" font-family="Times,serif" font-size="14.00" fill="#000000">SIBaseUnit</text>
</a>
</g>
</g>
<!-- BaseUnit -->
<g id="node5" class="node">
<title>BaseUnit</title>
<g id="a_node5"><a xlink:href="http://emmo.info/emmo/middle/units#EMMO_db716151_6b73_45ff_910c_d182fdcbb4f5" xlink:title="BaseUnit">
<ellipse fill="#ffffcc" stroke="#000000" cx="43.5461" cy="-105" rx="43.5923" ry="18"/>
<text text-anchor="middle" x="43.5461" y="-101.3" font-family="Times,serif" font-size="14.00" fill="#000000">BaseUnit</text>
</a>
</g>
</g>
<!-- SIBaseUnit&#45;&gt;BaseUnit -->
<g id="edge2" class="edge">
<title>SIBaseUnit&#45;&gt;BaseUnit</title>
<path fill="none" stroke="#000000" d="M137.7274,-34.364C119.466,-48.0601 93.2371,-67.7318 73.0942,-82.839"/>
<polygon fill="none" stroke="#000000" points="70.7751,-80.2032 64.8751,-89.0033 74.9751,-85.8032 70.7751,-80.2032"/>
<text text-anchor="middle" x="118.0461" y="-57.8" font-family="Times,serif" font-size="14.00" fill="#000000">isA</text>
</g>
<!-- SIUnitSymbol -->
<g id="node8" class="node">
<title>SIUnitSymbol</title>
<g id="a_node8"><a xlink:href="http://emmo.info/emmo/middle/siunits#EMMO_32129fb5_df25_48fd_a29c_18a2f22a2dd5" xlink:title="SIUnitSymbol">
<ellipse fill="#ffffcc" stroke="#000000" cx="166.5461" cy="-105" rx="61.99" ry="18"/>
<text text-anchor="middle" x="166.5461" y="-101.3" font-family="Times,serif" font-size="14.00" fill="#000000">SIUnitSymbol</text>
</a>
</g>
</g>
<!-- SIBaseUnit&#45;&gt;SIUnitSymbol -->
<g id="edge1" class="edge">
<title>SIBaseUnit&#45;&gt;SIUnitSymbol</title>
<path fill="none" stroke="#000000" d="M160.9965,-36.0265C161.9445,-47.8082 163.2022,-63.4393 164.2805,-76.8419"/>
<polygon fill="none" stroke="#000000" points="160.8068,-77.3096 165.0976,-86.9966 167.7842,-76.7481 160.8068,-77.3096"/>
<text text-anchor="middle" x="173.0461" y="-57.8" font-family="Times,serif" font-size="14.00" fill="#000000">isA</text>
</g>
<!-- SISpecialUnit -->
<g id="node4" class="node">
<title>SISpecialUnit</title>
<g id="a_node4"><a xlink:href="http://emmo.info/emmo/middle/siunits#EMMO_e9ffc696_5228_4ff9_8a60_0f5e05e9931b" xlink:title="SISpecialUnit">
<ellipse fill="#ffffcc" stroke="#000000" stroke-width="2" cx="293.5461" cy="-18" rx="59.5901" ry="18"/>
<text text-anchor="middle" x="293.5461" y="-14.3" font-family="Times,serif" font-size="14.00" fill="#000000">SISpecialUnit</text>
</a>
</g>
</g>
<!-- SpecialUnit -->
<g id="node6" class="node">
<title>SpecialUnit</title>
<g id="a_node6"><a xlink:href="http://emmo.info/emmo/middle/units#EMMO_3ee80521_3c23_4dd1_935d_9d522614a3e2" xlink:title="SpecialUnit">
<ellipse fill="#ffffcc" stroke="#000000" cx="298.5461" cy="-105" rx="51.9908" ry="18"/>
<text text-anchor="middle" x="298.5461" y="-101.3" font-family="Times,serif" font-size="14.00" fill="#000000">SpecialUnit</text>
</a>
</g>
</g>
<!-- SISpecialUnit&#45;&gt;SpecialUnit -->
<g id="edge11" class="edge">
<title>SISpecialUnit&#45;&gt;SpecialUnit</title>
<path fill="none" stroke="#000000" d="M294.5821,-36.0265C295.2593,-47.8082 296.1576,-63.4393 296.9279,-76.8419"/>
<polygon fill="none" stroke="#000000" points="293.4434,-77.214 297.5115,-86.9966 300.4318,-76.8123 293.4434,-77.214"/>
<text text-anchor="middle" x="305.0461" y="-57.8" font-family="Times,serif" font-size="14.00" fill="#000000">isA</text>
</g>
<!-- SISpecialUnit&#45;&gt;SIUnitSymbol -->
<g id="edge10" class="edge">
<title>SISpecialUnit&#45;&gt;SIUnitSymbol</title>
<path fill="none" stroke="#000000" d="M269.3595,-34.5688C249.5366,-48.1482 221.287,-67.5003 199.4141,-82.4842"/>
<polygon fill="none" stroke="#000000" points="197.3472,-79.6575 191.0753,-88.1965 201.3033,-85.4325 197.3472,-79.6575"/>
<text text-anchor="middle" x="248.0461" y="-57.8" font-family="Times,serif" font-size="14.00" fill="#000000">isA</text>
</g>
<!-- UnitSymbol -->
<g id="node9" class="node">
<title>UnitSymbol</title>
<g id="a_node9"><a xlink:href="http://emmo.info/emmo/middle/units#EMMO_216f448e_cdbc_4aeb_a529_7a5fe7fc38bb" xlink:title="UnitSymbol">
<ellipse fill="#ffc880" stroke="#000000" cx="166.5461" cy="-192" rx="53.8905" ry="18"/>
<text text-anchor="middle" x="166.5461" y="-188.3" font-family="Times,serif" font-size="14.00" fill="#000000">UnitSymbol</text>
</a>
</g>
</g>
<!-- BaseUnit&#45;&gt;UnitSymbol -->
<g id="edge6" class="edge">
<title>BaseUnit&#45;&gt;UnitSymbol</title>
<path fill="none" stroke="#000000" d="M65.5361,-120.5539C84.9348,-134.2749 113.4285,-154.429 135.2114,-169.8364"/>
<polygon fill="none" stroke="#000000" points="133.3089,-172.7778 143.4942,-175.695 137.3512,-167.0628 133.3089,-172.7778"/>
<text text-anchor="middle" x="122.0461" y="-144.8" font-family="Times,serif" font-size="14.00" fill="#000000">isA</text>
</g>
<!-- SpecialUnit&#45;&gt;UnitSymbol -->
<g id="edge5" class="edge">
<title>SpecialUnit&#45;&gt;UnitSymbol</title>
<path fill="none" stroke="#000000" d="M274.3353,-120.9571C253.3483,-134.7895 222.7844,-154.9339 199.5578,-170.2423"/>
<polygon fill="none" stroke="#000000" points="197.474,-167.4239 191.0505,-175.8494 201.3262,-173.2686 197.474,-167.4239"/>
<text text-anchor="middle" x="250.0461" y="-144.8" font-family="Times,serif" font-size="14.00" fill="#000000">isA</text>
</g>
<!-- UTF8 -->
<g id="node7" class="node">
<title>UTF8</title>
<g id="a_node7"><a xlink:href="http://emmo.info/emmo/middle/units#EMMO_e13b2173_1dec_4b97_9ac1_1dc4b418612a" xlink:title="UTF8">
<ellipse fill="#ffffcc" stroke="#000000" stroke-width="2" cx="375.5461" cy="-279" rx="31.6951" ry="18"/>
<text text-anchor="middle" x="375.5461" y="-275.3" font-family="Times,serif" font-size="14.00" fill="#000000">UTF8</text>
</a>
</g>
</g>
<!-- UTF8&#45;&gt;Symbol -->
<g id="edge7" class="edge">
<title>UTF8&#45;&gt;Symbol</title>
<path fill="none" stroke="#000000" d="M375.5461,-297.0265C375.5461,-308.8082 375.5461,-324.4393 375.5461,-337.8419"/>
<polygon fill="none" stroke="#000000" points="372.0462,-337.9966 375.5461,-347.9966 379.0462,-337.9967 372.0462,-337.9966"/>
<text text-anchor="middle" x="385.0461" y="-318.8" font-family="Times,serif" font-size="14.00" fill="#000000">isA</text>
</g>
<!-- SIUnitSymbol&#45;&gt;UnitSymbol -->
<g id="edge9" class="edge">
<title>SIUnitSymbol&#45;&gt;UnitSymbol</title>
<path fill="none" stroke="#000000" d="M166.5461,-123.0265C166.5461,-134.8082 166.5461,-150.4393 166.5461,-163.8419"/>
<polygon fill="none" stroke="#000000" points="163.0462,-163.9966 166.5461,-173.9966 170.0462,-163.9967 163.0462,-163.9966"/>
<text text-anchor="middle" x="176.0461" y="-144.8" font-family="Times,serif" font-size="14.00" fill="#000000">isA</text>
</g>
<!-- UnitSymbol&#45;&gt;MetrologicalSymbol -->
<g id="edge3" class="edge">
<title>UnitSymbol&#45;&gt;MetrologicalSymbol</title>
<path fill="none" stroke="#000000" d="M181.7235,-209.6057C192.5293,-222.1405 207.2231,-239.1853 219.3437,-253.2452"/>
<polygon fill="none" stroke="#000000" points="216.9535,-255.833 226.1339,-261.1218 222.2554,-251.2624 216.9535,-255.833"/>
<text text-anchor="middle" x="218.0461" y="-231.8" font-family="Times,serif" font-size="14.00" fill="#000000">isA</text>
</g>
<!-- MathematicalSymbol -->
<g id="node10" class="node">
<title>MathematicalSymbol</title>
<g id="a_node10"><a xlink:href="http://emmo.info/emmo/middle/math#EMMO_5be83f9c_a4ba_4b9a_be1a_5bfc6e891231" xlink:title="MathematicalSymbol">
<ellipse fill="#ffc880" stroke="#000000" stroke-width="2" cx="513.5461" cy="-279" rx="87.9851" ry="18"/>
<text text-anchor="middle" x="513.5461" y="-275.3" font-family="Times,serif" font-size="14.00" fill="#000000">MathematicalSymbol</text>
</a>
</g>
</g>
<!-- MathematicalSymbol&#45;&gt;Symbol -->
<g id="edge13" class="edge">
<title>MathematicalSymbol&#45;&gt;Symbol</title>
<path fill="none" stroke="#000000" d="M486.2818,-296.1884C463.5754,-310.5033 431.2103,-330.9074 407.3308,-345.9618"/>
<polygon fill="none" stroke="#000000" points="405.2248,-343.152 398.6321,-351.4458 408.9579,-349.0735 405.2248,-343.152"/>
<text text-anchor="middle" x="462.0461" y="-318.8" font-family="Times,serif" font-size="14.00" fill="#000000">isA</text>
</g>
<!-- PhysicsDimension -->
<g id="node11" class="node">
<title>PhysicsDimension</title>
<g id="a_node11"><a xlink:href="http://emmo.info/emmo/middle/units#EMMO_9895a1b4_f0a5_4167_ac5e_97db40b8bfcc" xlink:title="PhysicsDimension">
<ellipse fill="#ffffcc" stroke="#000000" cx="315.5461" cy="-192" rx="76.8869" ry="18"/>
<text text-anchor="middle" x="315.5461" y="-188.3" font-family="Times,serif" font-size="14.00" fill="#000000">PhysicsDimension</text>
</a>
</g>
</g>
<!-- PhysicsDimension&#45;&gt;MetrologicalSymbol -->
<g id="edge8" class="edge">
<title>PhysicsDimension&#45;&gt;MetrologicalSymbol</title>
<path fill="none" stroke="#000000" d="M300.2133,-210.0265C289.5967,-222.5081 275.3054,-239.3101 263.4862,-253.2056"/>
<polygon fill="none" stroke="#000000" points="260.6724,-251.1117 256.8593,-260.9966 266.0044,-255.6471 260.6724,-251.1117"/>
<text text-anchor="middle" x="292.0461" y="-231.8" font-family="Times,serif" font-size="14.00" fill="#000000">isA</text>
</g>
<!-- UnitOne -->
<g id="node12" class="node">
<title>UnitOne</title>
<g id="a_node12"><a xlink:href="http://emmo.info/emmo/middle/units#EMMO_5ebd5e01_0ed3_49a2_a30d_cd05cbe72978" xlink:title="UnitOne">
<ellipse fill="#ffffcc" stroke="#000000" cx="43.5461" cy="-18" rx="40.8928" ry="18"/>
<text text-anchor="middle" x="43.5461" y="-14.3" font-family="Times,serif" font-size="14.00" fill="#000000">UnitOne</text>
</a>
</g>
</g>
<!-- UnitOne&#45;&gt;BaseUnit -->
<g id="edge4" class="edge">
<title>UnitOne&#45;&gt;BaseUnit</title>
<path fill="none" stroke="#000000" d="M43.5461,-36.0265C43.5461,-47.8082 43.5461,-63.4393 43.5461,-76.8419"/>
<polygon fill="none" stroke="#000000" points="40.0462,-76.9966 43.5461,-86.9966 47.0462,-76.9967 40.0462,-76.9966"/>
<text text-anchor="middle" x="53.0461" y="-57.8" font-family="Times,serif" font-size="14.00" fill="#000000">isA</text>
</g>
</g>
</svg>
