<?xml version="1.0" encoding="UTF-8" standalone="no"?>
<!DOCTYPE svg PUBLIC "-//W3C//DTD SVG 1.1//EN"
 "http://www.w3.org/Graphics/SVG/1.1/DTD/svg11.dtd">
<!-- Generated by graphviz version 2.40.1 (20161225.0304)
 -->
<!-- Title: %3 Pages: 1 -->
<svg width="909pt" height="218pt"
 viewBox="0.00 0.00 908.99 218.00" xmlns="http://www.w3.org/2000/svg" xmlns:xlink="http://www.w3.org/1999/xlink">
<g id="graph0" class="graph" transform="scale(1 1) rotate(0) translate(4 214)">
<title>%3</title>
<polygon fill="#ffffff" stroke="transparent" points="-4,4 -4,-214 904.9885,-214 904.9885,4 -4,4"/>
<!-- Micro -->
<g id="node1" class="node">
<title>Micro</title>
<g id="a_node1"><a xlink:href="http://emmo.info/emmo/middle/siunits#EMMO_9ff3bf8e_2168_406e_8251_1d158fc948ae" xlink:title="Micro">
<ellipse fill="#ffffcc" stroke="#000000" cx="48.0957" cy="-18" rx="32.4942" ry="18"/>
<text text-anchor="middle" x="48.0957" y="-14.3" font-family="Times,serif" font-size="14.00" fill="#000000">Micro</text>
</a>
</g>
</g>
<!-- MicroUnit -->
<g id="node3" class="node">
<title>MicroUnit</title>
<g id="a_node3"><a xlink:href="http://emmo.info/emmo/middle/units#EMMO_2cfdcca6_6231_48aa_81b5_388b464bfe80" xlink:title="MicroUnit">
<ellipse fill="#ffc880" stroke="#000000" cx="48.0957" cy="-105" rx="48.1917" ry="18"/>
<text text-anchor="middle" x="48.0957" y="-101.3" font-family="Times,serif" font-size="14.00" fill="#000000">MicroUnit</text>
</a>
</g>
</g>
<!-- Micro&#45;&gt;MicroUnit -->
<g id="edge5" class="edge">
<title>Micro&#45;&gt;MicroUnit</title>
<path fill="none" stroke="#000000" d="M48.0957,-36.0265C48.0957,-47.8082 48.0957,-63.4393 48.0957,-76.8419"/>
<polygon fill="none" stroke="#000000" points="44.5958,-76.9966 48.0957,-86.9966 51.5958,-76.9967 44.5958,-76.9966"/>
<text text-anchor="middle" x="57.5957" y="-57.8" font-family="Times,serif" font-size="14.00" fill="#000000">isA</text>
</g>
<!-- GreekSmallLetterMu -->
<g id="node2" class="node">
<title>GreekSmallLetterMu</title>
<g id="a_node2"><a xlink:href="http://emmo.info/emmo/middle/units#EMMO_1e9c2a4b_abb9_4b27_bd9c_e31aac337a04" xlink:title="GreekSmallLetterMu">
<ellipse fill="#ffc880" stroke="#000000" cx="201.0957" cy="-105" rx="87.1846" ry="18"/>
<text text-anchor="middle" x="201.0957" y="-101.3" font-family="Times,serif" font-size="14.00" fill="#000000">GreekSmallLetterMu</text>
</a>
</g>
</g>
<!-- UTF8 -->
<g id="node6" class="node">
<title>UTF8</title>
<g id="a_node6"><a xlink:href="http://emmo.info/emmo/middle/units#EMMO_e13b2173_1dec_4b97_9ac1_1dc4b418612a" xlink:title="UTF8">
<ellipse fill="#ffffcc" stroke="#000000" stroke-width="2" cx="380.0957" cy="-192" rx="31.6951" ry="18"/>
<text text-anchor="middle" x="380.0957" y="-188.3" font-family="Times,serif" font-size="14.00" fill="#000000">UTF8</text>
</a>
</g>
</g>
<!-- GreekSmallLetterMu&#45;&gt;UTF8 -->
<g id="edge8" class="edge">
<title>GreekSmallLetterMu&#45;&gt;UTF8</title>
<path fill="none" stroke="#000000" d="M235.1856,-121.5688C267.176,-137.1172 314.7374,-160.2337 346.5498,-175.6955"/>
<polygon fill="none" stroke="#000000" points="345.3583,-179.0079 355.8823,-180.2315 348.4183,-172.7122 345.3583,-179.0079"/>
<text text-anchor="middle" x="311.5957" y="-144.8" font-family="Times,serif" font-size="14.00" fill="#000000">isA</text>
</g>
<!-- MicroUnit&#45;&gt;UTF8 -->
<g id="edge1" class="edge">
<title>MicroUnit&#45;&gt;UTF8</title>
<path fill="none" stroke="#000000" d="M84.487,-116.8499C91.3131,-118.9708 98.4057,-121.1062 105.0957,-123 188.3001,-146.553 286.8129,-170.2739 340.4403,-182.8405"/>
<polygon fill="none" stroke="#000000" points="339.6996,-186.2616 350.2336,-185.1282 341.292,-179.4451 339.6996,-186.2616"/>
<text text-anchor="middle" x="235.5957" y="-144.8" font-family="Times,serif" font-size="14.00" fill="#000000">isA</text>
</g>
<!-- Space -->
<g id="node4" class="node">
<title>Space</title>
<g id="a_node4"><a xlink:href="http://emmo.info/emmo/middle/units#EMMO_ea192c80_6029_4410_863c_8eed7ea52037" xlink:title="Space">
<ellipse fill="#ffc880" stroke="#000000" cx="338.0957" cy="-105" rx="31.6951" ry="18"/>
<text text-anchor="middle" x="338.0957" y="-101.3" font-family="Times,serif" font-size="14.00" fill="#000000">Space</text>
</a>
</g>
</g>
<!-- Space&#45;&gt;UTF8 -->
<g id="edge4" class="edge">
<title>Space&#45;&gt;UTF8</title>
<path fill="none" stroke="#000000" d="M346.5951,-122.6057C352.5156,-134.8697 360.5204,-151.4511 367.2205,-165.33"/>
<polygon fill="none" stroke="#000000" points="364.1096,-166.9366 371.609,-174.4204 370.4134,-163.8933 364.1096,-166.9366"/>
<text text-anchor="middle" x="371.5957" y="-144.8" font-family="Times,serif" font-size="14.00" fill="#000000">isA</text>
</g>
<!-- Metre -->
<g id="node5" class="node">
<title>Metre</title>
<g id="a_node5"><a xlink:href="http://emmo.info/emmo/middle/siunits#EMMO_7db11dbf_a643_464a_9b56_07eabcc3e9c5" xlink:title="Metre">
<ellipse fill="#ffffcc" stroke="#000000" cx="427.0957" cy="-18" rx="32.4942" ry="18"/>
<text text-anchor="middle" x="427.0957" y="-14.3" font-family="Times,serif" font-size="14.00" fill="#000000">Metre</text>
</a>
</g>
</g>
<!-- LatinSmallLetterM -->
<g id="node8" class="node">
<title>LatinSmallLetterM</title>
<g id="a_node8"><a xlink:href="http://emmo.info/emmo/middle/units#EMMO_aa0d5cde_cbdc_4815_b46d_2f76b00a6bde" xlink:title="LatinSmallLetterM">
<ellipse fill="#ffc880" stroke="#000000" cx="467.0957" cy="-105" rx="79.0865" ry="18"/>
<text text-anchor="middle" x="467.0957" y="-101.3" font-family="Times,serif" font-size="14.00" fill="#000000">LatinSmallLetterM</text>
</a>
</g>
</g>
<!-- Metre&#45;&gt;LatinSmallLetterM -->
<g id="edge3" class="edge">
<title>Metre&#45;&gt;LatinSmallLetterM</title>
<path fill="none" stroke="#000000" d="M435.1903,-35.6057C440.7012,-47.592 448.1083,-63.7022 454.3982,-77.383"/>
<polygon fill="none" stroke="#000000" points="451.3804,-79.1979 458.7378,-86.8215 457.7404,-76.2738 451.3804,-79.1979"/>
<text text-anchor="middle" x="459.5957" y="-57.8" font-family="Times,serif" font-size="14.00" fill="#000000">isA</text>
</g>
<!-- Atto -->
<g id="node7" class="node">
<title>Atto</title>
<g id="a_node7"><a xlink:href="http://emmo.info/emmo/middle/siunits#EMMO_42955b2d_b465_4666_86cc_ea3c2d685753" xlink:title="Atto">
<ellipse fill="#ffffcc" stroke="#000000" cx="642.0957" cy="-18" rx="27" ry="18"/>
<text text-anchor="middle" x="642.0957" y="-14.3" font-family="Times,serif" font-size="14.00" fill="#000000">Atto</text>
</a>
</g>
</g>
<!-- LatinSmallLetterA -->
<g id="node9" class="node">
<title>LatinSmallLetterA</title>
<g id="a_node9"><a xlink:href="http://emmo.info/emmo/middle/units#EMMO_cfcf0f48_09ac_4770_a06a_684a42b4a14c" xlink:title="LatinSmallLetterA">
<ellipse fill="#ffc880" stroke="#000000" cx="642.0957" cy="-105" rx="77.1866" ry="18"/>
<text text-anchor="middle" x="642.0957" y="-101.3" font-family="Times,serif" font-size="14.00" fill="#000000">LatinSmallLetterA</text>
</a>
</g>
</g>
<!-- Atto&#45;&gt;LatinSmallLetterA -->
<g id="edge9" class="edge">
<title>Atto&#45;&gt;LatinSmallLetterA</title>
<path fill="none" stroke="#000000" d="M642.0957,-36.0265C642.0957,-47.8082 642.0957,-63.4393 642.0957,-76.8419"/>
<polygon fill="none" stroke="#000000" points="638.5958,-76.9966 642.0957,-86.9966 645.5958,-76.9967 638.5958,-76.9966"/>
<text text-anchor="middle" x="651.5957" y="-57.8" font-family="Times,serif" font-size="14.00" fill="#000000">isA</text>
</g>
<!-- LatinSmallLetterM&#45;&gt;UTF8 -->
<g id="edge11" class="edge">
<title>LatinSmallLetterM&#45;&gt;UTF8</title>
<path fill="none" stroke="#000000" d="M449.49,-122.6057C436.129,-135.9667 417.6438,-154.4519 403.1113,-168.9844"/>
<polygon fill="none" stroke="#000000" points="400.5164,-166.6296 395.9201,-176.1756 405.4661,-171.5794 400.5164,-166.6296"/>
<text text-anchor="middle" x="438.5957" y="-144.8" font-family="Times,serif" font-size="14.00" fill="#000000">isA</text>
</g>
<!-- LatinSmallLetterA&#45;&gt;UTF8 -->
<g id="edge7" class="edge">
<title>LatinSmallLetterA&#45;&gt;UTF8</title>
<path fill="none" stroke="#000000" d="M597.651,-119.7584C546.9472,-136.5951 464.9302,-163.8298 417.4097,-179.6095"/>
<polygon fill="none" stroke="#000000" points="416.2041,-176.3218 407.8167,-182.795 418.4101,-182.9651 416.2041,-176.3218"/>
<text text-anchor="middle" x="536.5957" y="-144.8" font-family="Times,serif" font-size="14.00" fill="#000000">isA</text>
</g>
<!-- Ampere -->
<g id="node10" class="node">
<title>Ampere</title>
<g id="a_node10"><a xlink:href="http://emmo.info/emmo/middle/siunits#EMMO_db5dd38d_ac79_4af6_8782_fee7e7150ae8" xlink:title="Ampere">
<ellipse fill="#ffffcc" stroke="#000000" cx="819.0957" cy="-18" rx="39.7935" ry="18"/>
<text text-anchor="middle" x="819.0957" y="-14.3" font-family="Times,serif" font-size="14.00" fill="#000000">Ampere</text>
</a>
</g>
</g>
<!-- LatinCapitalLetterA -->
<g id="node12" class="node">
<title>LatinCapitalLetterA</title>
<g id="a_node12"><a xlink:href="http://emmo.info/emmo/middle/units#EMMO_2125f2d0_5050_49e3_a579_4c74bc9fd02e" xlink:title="LatinCapitalLetterA">
<ellipse fill="#ffc880" stroke="#000000" cx="819.0957" cy="-105" rx="81.7856" ry="18"/>
<text text-anchor="middle" x="819.0957" y="-101.3" font-family="Times,serif" font-size="14.00" fill="#000000">LatinCapitalLetterA</text>
</a>
</g>
</g>
<!-- Ampere&#45;&gt;LatinCapitalLetterA -->
<g id="edge2" class="edge">
<title>Ampere&#45;&gt;LatinCapitalLetterA</title>
<path fill="none" stroke="#000000" d="M819.0957,-36.0265C819.0957,-47.8082 819.0957,-63.4393 819.0957,-76.8419"/>
<polygon fill="none" stroke="#000000" points="815.5958,-76.9966 819.0957,-86.9966 822.5958,-76.9967 815.5958,-76.9966"/>
<text text-anchor="middle" x="828.5957" y="-57.8" font-family="Times,serif" font-size="14.00" fill="#000000">isA</text>
</g>
<!-- Milli -->
<g id="node11" class="node">
<title>Milli</title>
<g id="a_node11"><a xlink:href="http://emmo.info/emmo/middle/siunits#EMMO_a3a701ed_6f7d_4a10_9aee_dfa1961fc7b7" xlink:title="Milli">
<ellipse fill="#ffffcc" stroke="#000000" cx="506.0957" cy="-18" rx="28.6953" ry="18"/>
<text text-anchor="middle" x="506.0957" y="-14.3" font-family="Times,serif" font-size="14.00" fill="#000000">Milli</text>
</a>
</g>
</g>
<!-- Milli&#45;&gt;LatinSmallLetterM -->
<g id="edge6" class="edge">
<title>Milli&#45;&gt;LatinSmallLetterM</title>
<path fill="none" stroke="#000000" d="M498.2035,-35.6057C492.8304,-47.592 485.6085,-63.7022 479.4758,-77.383"/>
<polygon fill="none" stroke="#000000" points="476.1415,-76.2647 475.2447,-86.8215 482.5291,-79.1282 476.1415,-76.2647"/>
<text text-anchor="middle" x="498.5957" y="-57.8" font-family="Times,serif" font-size="14.00" fill="#000000">isA</text>
</g>
<!-- LatinCapitalLetterA&#45;&gt;UTF8 -->
<g id="edge10" class="edge">
<title>LatinCapitalLetterA&#45;&gt;UTF8</title>
<path fill="none" stroke="#000000" d="M758.0547,-117.097C666.9245,-135.1569 497.7676,-168.6801 420.4923,-183.9943"/>
<polygon fill="none" stroke="#000000" points="419.3448,-180.6536 410.2159,-186.0308 420.7056,-187.52 419.3448,-180.6536"/>
<text text-anchor="middle" x="635.5957" y="-144.8" font-family="Times,serif" font-size="14.00" fill="#000000">isA</text>
</g>
</g>
</svg>
