<?xml version="1.0" encoding="UTF-8" standalone="no"?>
<!DOCTYPE svg PUBLIC "-//W3C//DTD SVG 1.1//EN"
 "http://www.w3.org/Graphics/SVG/1.1/DTD/svg11.dtd">
<!-- Generated by graphviz version 2.40.1 (20161225.0304)
 -->
<!-- Title: %3 Pages: 1 -->
<svg width="992pt" height="218pt"
 viewBox="0.00 0.00 992.38 218.00" xmlns="http://www.w3.org/2000/svg" xmlns:xlink="http://www.w3.org/1999/xlink">
<g id="graph0" class="graph" transform="scale(1 1) rotate(0) translate(4 214)">
<title>%3</title>
<polygon fill="#ffffff" stroke="transparent" points="-4,4 -4,-214 988.3829,-214 988.3829,4 -4,4"/>
<!-- LuminousIntensity -->
<g id="node1" class="node">
<title>LuminousIntensity</title>
<g id="a_node1"><a xlink:href="http://emmo.info/emmo/middle/isq#EMMO_50bf79a6_a48b_424d_9d2c_813bd631231a" xlink:title="LuminousIntensity">
<ellipse fill="#ffffcc" stroke="#000000" cx="77.3431" cy="-18" rx="77.1866" ry="18"/>
<text text-anchor="middle" x="77.3431" y="-14.3" font-family="Times,serif" font-size="14.00" fill="#000000">LuminousIntensity</text>
</a>
</g>
</g>
<!-- ISQBaseQuantity -->
<g id="node2" class="node">
<title>ISQBaseQuantity</title>
<g id="a_node2"><a xlink:href="http://emmo.info/emmo/middle/isq#EMMO_1a4c1a97_88a7_4d8e_b2f9_2ca58e92dde4" xlink:title="ISQBaseQuantity">
<ellipse fill="#ffffcc" stroke="#000000" cx="364.3431" cy="-105" rx="72.5877" ry="18"/>
<text text-anchor="middle" x="364.3431" y="-101.3" font-family="Times,serif" font-size="14.00" fill="#000000">ISQBaseQuantity</text>
</a>
</g>
</g>
<!-- LuminousIntensity&#45;&gt;ISQBaseQuantity -->
<g id="edge2" class="edge">
<title>LuminousIntensity&#45;&gt;ISQBaseQuantity</title>
<path fill="none" stroke="#000000" d="M124.7354,-32.3663C175.2457,-47.6778 255.1572,-71.9018 308.6404,-88.1145"/>
<polygon fill="none" stroke="#000000" points="307.7209,-91.493 318.3063,-91.0446 309.7517,-84.794 307.7209,-91.493"/>
<text text-anchor="middle" x="247.8431" y="-57.8" font-family="Times,serif" font-size="14.00" fill="#000000">isA</text>
</g>
<!-- BaseQuantity -->
<g id="node4" class="node">
<title>BaseQuantity</title>
<g id="a_node4"><a xlink:href="http://emmo.info/emmo/middle/units#EMMO_acaaa124_3dde_48b6_86e6_6ec6f364f408" xlink:title="BaseQuantity">
<ellipse fill="#ffffcc" stroke="#000000" stroke-width="2" cx="364.3431" cy="-192" rx="58.4896" ry="18"/>
<text text-anchor="middle" x="364.3431" y="-188.3" font-family="Times,serif" font-size="14.00" fill="#000000">BaseQuantity</text>
</a>
</g>
</g>
<!-- ISQBaseQuantity&#45;&gt;BaseQuantity -->
<g id="edge1" class="edge">
<title>ISQBaseQuantity&#45;&gt;BaseQuantity</title>
<path fill="none" stroke="#000000" d="M364.3431,-123.0265C364.3431,-134.8082 364.3431,-150.4393 364.3431,-163.8419"/>
<polygon fill="none" stroke="#000000" points="360.8432,-163.9966 364.3431,-173.9966 367.8432,-163.9967 360.8432,-163.9966"/>
<text text-anchor="middle" x="373.8431" y="-144.8" font-family="Times,serif" font-size="14.00" fill="#000000">isA</text>
</g>
<!-- Mass -->
<g id="node3" class="node">
<title>Mass</title>
<g id="a_node3"><a xlink:href="http://emmo.info/emmo/middle/isq#EMMO_ed4af7ae_63a2_497e_bb88_2309619ea405" xlink:title="Mass">
<ellipse fill="#ffffcc" stroke="#000000" cx="202.3431" cy="-18" rx="29.795" ry="18"/>
<text text-anchor="middle" x="202.3431" y="-14.3" font-family="Times,serif" font-size="14.00" fill="#000000">Mass</text>
</a>
</g>
</g>
<!-- Mass&#45;&gt;ISQBaseQuantity -->
<g id="edge7" class="edge">
<title>Mass&#45;&gt;ISQBaseQuantity</title>
<path fill="none" stroke="#000000" d="M224.1728,-30.3522C242.748,-40.8025 270.1808,-56.0937 294.3431,-69 303.6604,-73.9768 313.733,-79.2303 323.2552,-84.1396"/>
<polygon fill="none" stroke="#000000" points="321.6793,-87.2648 332.1736,-88.7208 324.8777,-81.0383 321.6793,-87.2648"/>
<text text-anchor="middle" x="303.8431" y="-57.8" font-family="Times,serif" font-size="14.00" fill="#000000">isA</text>
</g>
<!-- Time -->
<g id="node5" class="node">
<title>Time</title>
<g id="a_node5"><a xlink:href="http://emmo.info/emmo/middle/isq#EMMO_d4f7d378_5e3b_468a_baa1_a7e98358cda7" xlink:title="Time">
<ellipse fill="#ffffcc" stroke="#000000" cx="280.3431" cy="-18" rx="29.795" ry="18"/>
<text text-anchor="middle" x="280.3431" y="-14.3" font-family="Times,serif" font-size="14.00" fill="#000000">Time</text>
</a>
</g>
</g>
<!-- Time&#45;&gt;ISQBaseQuantity -->
<g id="edge8" class="edge">
<title>Time&#45;&gt;ISQBaseQuantity</title>
<path fill="none" stroke="#000000" d="M295.75,-33.9571C308.1726,-46.8233 325.8679,-65.1506 340.1739,-79.9676"/>
<polygon fill="none" stroke="#000000" points="337.8363,-82.5854 347.3002,-87.3484 342.8722,-77.7233 337.8363,-82.5854"/>
<text text-anchor="middle" x="337.8431" y="-57.8" font-family="Times,serif" font-size="14.00" fill="#000000">isA</text>
</g>
<!-- Length -->
<g id="node6" class="node">
<title>Length</title>
<g id="a_node6"><a xlink:href="http://emmo.info/emmo/middle/isq#EMMO_cd2cd0de_e0cc_4ef1_b27e_2e88db027bac" xlink:title="Length">
<ellipse fill="#ffffcc" stroke="#000000" cx="364.3431" cy="-18" rx="35.9954" ry="18"/>
<text text-anchor="middle" x="364.3431" y="-14.3" font-family="Times,serif" font-size="14.00" fill="#000000">Length</text>
</a>
</g>
</g>
<!-- Length&#45;&gt;ISQBaseQuantity -->
<g id="edge5" class="edge">
<title>Length&#45;&gt;ISQBaseQuantity</title>
<path fill="none" stroke="#000000" d="M364.3431,-36.0265C364.3431,-47.8082 364.3431,-63.4393 364.3431,-76.8419"/>
<polygon fill="none" stroke="#000000" points="360.8432,-76.9966 364.3431,-86.9966 367.8432,-76.9967 360.8432,-76.9966"/>
<text text-anchor="middle" x="373.8431" y="-57.8" font-family="Times,serif" font-size="14.00" fill="#000000">isA</text>
</g>
<!-- AmountOfSubstance -->
<g id="node7" class="node">
<title>AmountOfSubstance</title>
<g id="a_node7"><a xlink:href="http://emmo.info/emmo/middle/isq#EMMO_8159c26a_494b_4fa0_9959_10888f152298" xlink:title="AmountOfSubstance">
<ellipse fill="#ffffcc" stroke="#000000" cx="503.3431" cy="-18" rx="85.2851" ry="18"/>
<text text-anchor="middle" x="503.3431" y="-14.3" font-family="Times,serif" font-size="14.00" fill="#000000">AmountOfSubstance</text>
</a>
</g>
</g>
<!-- AmountOfSubstance&#45;&gt;ISQBaseQuantity -->
<g id="edge4" class="edge">
<title>AmountOfSubstance&#45;&gt;ISQBaseQuantity</title>
<path fill="none" stroke="#000000" d="M475.8812,-35.1884C454.1328,-48.8007 423.5872,-67.9192 399.9592,-82.7079"/>
<polygon fill="none" stroke="#000000" points="397.8947,-79.871 391.275,-88.1433 401.6085,-85.8046 397.8947,-79.871"/>
<text text-anchor="middle" x="451.8431" y="-57.8" font-family="Times,serif" font-size="14.00" fill="#000000">isA</text>
</g>
<!-- ElectricCurrent -->
<g id="node8" class="node">
<title>ElectricCurrent</title>
<g id="a_node8"><a xlink:href="http://emmo.info/emmo/middle/isq#EMMO_c995ae70_3b84_4ebb_bcfc_69e6a281bb88" xlink:title="ElectricCurrent">
<ellipse fill="#ffffcc" stroke="#000000" cx="671.3431" cy="-18" rx="64.9885" ry="18"/>
<text text-anchor="middle" x="671.3431" y="-14.3" font-family="Times,serif" font-size="14.00" fill="#000000">ElectricCurrent</text>
</a>
</g>
</g>
<!-- ElectricCurrent&#45;&gt;ISQBaseQuantity -->
<g id="edge3" class="edge">
<title>ElectricCurrent&#45;&gt;ISQBaseQuantity</title>
<path fill="none" stroke="#000000" d="M625.7136,-30.9308C571.5546,-46.2788 481.1691,-71.893 422.161,-88.6151"/>
<polygon fill="none" stroke="#000000" points="420.9148,-85.3304 412.248,-91.4244 422.8234,-92.0652 420.9148,-85.3304"/>
<text text-anchor="middle" x="545.8431" y="-57.8" font-family="Times,serif" font-size="14.00" fill="#000000">isA</text>
</g>
<!-- ThermodynamicTemperature -->
<g id="node9" class="node">
<title>ThermodynamicTemperature</title>
<g id="a_node9"><a xlink:href="http://emmo.info/emmo/middle/isq#EMMO_affe07e4_e9bc_4852_86c6_69e26182a17f" xlink:title="ThermodynamicTemperature">
<ellipse fill="#ffffcc" stroke="#000000" cx="869.3431" cy="-18" rx="115.0796" ry="18"/>
<text text-anchor="middle" x="869.3431" y="-14.3" font-family="Times,serif" font-size="14.00" fill="#000000">ThermodynamicTemperature</text>
</a>
</g>
</g>
<!-- ThermodynamicTemperature&#45;&gt;ISQBaseQuantity -->
<g id="edge6" class="edge">
<title>ThermodynamicTemperature&#45;&gt;ISQBaseQuantity</title>
<path fill="none" stroke="#000000" d="M791.8194,-31.3556C694.1827,-48.1761 527.8766,-76.8269 434.0715,-92.9874"/>
<polygon fill="none" stroke="#000000" points="433.3737,-89.556 424.1131,-94.703 434.5622,-96.4543 433.3737,-89.556"/>
<text text-anchor="middle" x="655.8431" y="-57.8" font-family="Times,serif" font-size="14.00" fill="#000000">isA</text>
</g>
</g>
</svg>
