<?xml version="1.0" encoding="UTF-8" standalone="no"?>
<!DOCTYPE svg PUBLIC "-//W3C//DTD SVG 1.1//EN"
 "http://www.w3.org/Graphics/SVG/1.1/DTD/svg11.dtd">
<!-- Generated by graphviz version 2.40.1 (20161225.0304)
 -->
<!-- Title: %3 Pages: 1 -->
<svg width="316pt" height="218pt"
 viewBox="0.00 0.00 316.00 218.00" xmlns="http://www.w3.org/2000/svg" xmlns:xlink="http://www.w3.org/1999/xlink">
<g id="graph0" class="graph" transform="scale(1 1) rotate(0) translate(4 214)">
<title>%3</title>
<polygon fill="#ffffff" stroke="transparent" points="-4,4 -4,-214 312,-214 312,4 -4,4"/>
<!-- encloses -->
<g id="node1" class="node">
<title>encloses</title>
<g id="a_node1"><a xlink:href="http://emmo.info/emmo/top/mereotopology#EMMO_8c898653_1118_4682_9bbf_6cc334d16a99" xlink:title="encloses">
<polygon fill="#0079ba" stroke="#000000" points="184,-123 122,-123 122,-87 184,-87 184,-123"/>
<text text-anchor="middle" x="153" y="-101.3" font-family="Times,serif" font-size="14.00" fill="#ffffff">encloses</text>
</a>
</g>
</g>
<!-- connected -->
<g id="node4" class="node">
<title>connected</title>
<g id="a_node4"><a xlink:href="http://emmo.info/emmo/top/mereotopology#EMMO_6703954e_34c4_4a15_a9e7_f313760ae1a8" xlink:title="connected">
<polygon fill="#0079ba" stroke="#000000" stroke-width="2" points="188.5,-210 117.5,-210 117.5,-174 188.5,-174 188.5,-210"/>
<text text-anchor="middle" x="153" y="-188.3" font-family="Times,serif" font-size="14.00" fill="#ffffff">connected</text>
</a>
</g>
</g>
<!-- encloses&#45;&gt;connected -->
<g id="edge5" class="edge">
<title>encloses&#45;&gt;connected</title>
<path fill="none" stroke="#000000" d="M153,-123.0265C153,-134.8082 153,-150.4393 153,-163.8419"/>
<polygon fill="none" stroke="#000000" points="149.5001,-163.9966 153,-173.9966 156.5001,-163.9967 149.5001,-163.9966"/>
<text text-anchor="middle" x="162.5" y="-144.8" font-family="Times,serif" font-size="14.00" fill="#000000">isA</text>
</g>
<!-- hasContactWith -->
<g id="node2" class="node">
<title>hasContactWith</title>
<g id="a_node2"><a xlink:href="http://emmo.info/emmo/top/mereotopology#EMMO_4d6504f1_c470_4ce9_b941_bbbebc9ab05d" xlink:title="hasContactWith">
<polygon fill="#0079ba" stroke="#000000" points="104,-123 0,-123 0,-87 104,-87 104,-123"/>
<text text-anchor="middle" x="52" y="-101.3" font-family="Times,serif" font-size="14.00" fill="#ffffff">hasContactWith</text>
</a>
</g>
</g>
<!-- hasContactWith&#45;&gt;connected -->
<g id="edge3" class="edge">
<title>hasContactWith&#45;&gt;connected</title>
<path fill="none" stroke="#000000" d="M72.9273,-123.0265C87.8238,-135.8581 108.0209,-153.2557 124.4035,-167.3674"/>
<polygon fill="none" stroke="#000000" points="122.2386,-170.122 132.0995,-173.9966 126.8071,-164.8183 122.2386,-170.122"/>
<text text-anchor="middle" x="117.5" y="-144.8" font-family="Times,serif" font-size="14.00" fill="#000000">isA</text>
</g>
<!-- hasPart -->
<g id="node3" class="node">
<title>hasPart</title>
<g id="a_node3"><a xlink:href="http://emmo.info/emmo/top/mereotopology#EMMO_17e27c22_37e1_468c_9dd7_95e137f73e7f" xlink:title="hasPart">
<polygon fill="#0079ba" stroke="#000000" stroke-width="2" points="189,-36 133,-36 133,0 189,0 189,-36"/>
<text text-anchor="middle" x="161" y="-14.3" font-family="Times,serif" font-size="14.00" fill="#ffffff">hasPart</text>
</a>
</g>
</g>
<!-- hasPart&#45;&gt;encloses -->
<g id="edge1" class="edge">
<title>hasPart&#45;&gt;encloses</title>
<path fill="none" stroke="#000000" d="M159.3424,-36.0265C158.259,-47.8082 156.8217,-63.4393 155.5892,-76.8419"/>
<polygon fill="none" stroke="#000000" points="152.086,-76.7181 154.6555,-86.9966 159.0565,-77.3592 152.086,-76.7181"/>
<text text-anchor="middle" x="166.5" y="-57.8" font-family="Times,serif" font-size="14.00" fill="#000000">isA</text>
</g>
<!-- hasOverlapWith -->
<g id="node5" class="node">
<title>hasOverlapWith</title>
<g id="a_node5"><a xlink:href="http://emmo.info/emmo/top/mereotopology#EMMO_d893d373_b579_4867_841e_1c2b31a8d2c6" xlink:title="hasOverlapWith">
<polygon fill="#0079ba" stroke="#000000" points="308,-123 202,-123 202,-87 308,-87 308,-123"/>
<text text-anchor="middle" x="255" y="-101.3" font-family="Times,serif" font-size="14.00" fill="#ffffff">hasOverlapWith</text>
</a>
</g>
</g>
<!-- hasPart&#45;&gt;hasOverlapWith -->
<g id="edge2" class="edge">
<title>hasPart&#45;&gt;hasOverlapWith</title>
<path fill="none" stroke="#000000" d="M180.4769,-36.0265C194.2149,-48.7414 212.7969,-65.9397 227.9688,-79.9817"/>
<polygon fill="none" stroke="#000000" points="225.8316,-82.7728 235.5481,-86.9966 230.5864,-77.6354 225.8316,-82.7728"/>
<text text-anchor="middle" x="222.5" y="-57.8" font-family="Times,serif" font-size="14.00" fill="#000000">isA</text>
</g>
<!-- hasOverlapWith&#45;&gt;connected -->
<g id="edge4" class="edge">
<title>hasOverlapWith&#45;&gt;connected</title>
<path fill="none" stroke="#000000" d="M233.8655,-123.0265C218.8216,-135.8581 198.4244,-153.2557 181.8796,-167.3674"/>
<polygon fill="none" stroke="#000000" points="179.4444,-164.8442 174.1074,-173.9966 183.9871,-170.1701 179.4444,-164.8442"/>
<text text-anchor="middle" x="219.5" y="-144.8" font-family="Times,serif" font-size="14.00" fill="#000000">isA</text>
</g>
<!-- overcrosses -->
<g id="node6" class="node">
<title>overcrosses</title>
<g id="a_node6"><a xlink:href="http://emmo.info/emmo/top/mereotopology#EMMO_9cb984ca_48ad_4864_b09e_50d3fff19420" xlink:title="overcrosses">
<polygon fill="#0079ba" stroke="#000000" points="295,-36 215,-36 215,0 295,0 295,-36"/>
<text text-anchor="middle" x="255" y="-14.3" font-family="Times,serif" font-size="14.00" fill="#ffffff">overcrosses</text>
</a>
</g>
</g>
<!-- overcrosses&#45;&gt;hasOverlapWith -->
<g id="edge6" class="edge">
<title>overcrosses&#45;&gt;hasOverlapWith</title>
<path fill="none" stroke="#000000" d="M255,-36.0265C255,-47.8082 255,-63.4393 255,-76.8419"/>
<polygon fill="none" stroke="#000000" points="251.5001,-76.9966 255,-86.9966 258.5001,-76.9967 251.5001,-76.9966"/>
<text text-anchor="middle" x="264.5" y="-57.8" font-family="Times,serif" font-size="14.00" fill="#000000">isA</text>
</g>
</g>
</svg>
