<?xml version="1.0" encoding="UTF-8" standalone="no"?>
<!DOCTYPE svg PUBLIC "-//W3C//DTD SVG 1.1//EN"
 "http://www.w3.org/Graphics/SVG/1.1/DTD/svg11.dtd">
<!-- Generated by graphviz version 2.40.1 (20161225.0304)
 -->
<!-- Title: %3 Pages: 1 -->
<svg width="518pt" height="305pt"
 viewBox="0.00 0.00 517.79 305.00" xmlns="http://www.w3.org/2000/svg" xmlns:xlink="http://www.w3.org/1999/xlink">
<g id="graph0" class="graph" transform="scale(1 1) rotate(0) translate(4 301)">
<title>%3</title>
<polygon fill="#ffffff" stroke="transparent" points="-4,4 -4,-301 513.7901,-301 513.7901,4 -4,4"/>
<!-- MetricPrefix -->
<g id="node1" class="node">
<title>MetricPrefix</title>
<g id="a_node1"><a xlink:href="http://emmo.info/emmo/middle/units#EMMO_7d2afa66_ae9e_4095_a9bf_421d0be401b6" xlink:title="MetricPrefix">
<ellipse fill="#ffffcc" stroke="#000000" stroke-width="2" cx="453.895" cy="-18" rx="55.7903" ry="18"/>
<text text-anchor="middle" x="453.895" y="-14.3" font-family="Times,serif" font-size="14.00" fill="#000000">MetricPrefix</text>
</a>
</g>
</g>
<!-- Constant -->
<g id="node5" class="node">
<title>Constant</title>
<g id="a_node5"><a xlink:href="http://emmo.info/emmo/middle/math#EMMO_ae15fb4f_8e4d_41de_a0f9_3997f89ba6a2" xlink:title="Constant">
<ellipse fill="#ffffcc" stroke="#000000" cx="453.895" cy="-105" rx="42.4939" ry="18"/>
<text text-anchor="middle" x="453.895" y="-101.3" font-family="Times,serif" font-size="14.00" fill="#000000">Constant</text>
</a>
</g>
</g>
<!-- MetricPrefix&#45;&gt;Constant -->
<g id="edge4" class="edge">
<title>MetricPrefix&#45;&gt;Constant</title>
<path fill="none" stroke="#000000" d="M453.895,-36.0265C453.895,-47.8082 453.895,-63.4393 453.895,-76.8419"/>
<polygon fill="none" stroke="#000000" points="450.3951,-76.9966 453.895,-86.9966 457.3951,-76.9967 450.3951,-76.9966"/>
<text text-anchor="middle" x="463.395" y="-57.8" font-family="Times,serif" font-size="14.00" fill="#000000">isA</text>
</g>
<!-- Unknown -->
<g id="node2" class="node">
<title>Unknown</title>
<g id="a_node2"><a xlink:href="http://emmo.info/emmo/middle/math#EMMO_fe7e56ce_118b_4243_9aad_20eb9f4f31f6" xlink:title="Unknown">
<ellipse fill="#ffffcc" stroke="#000000" cx="236.895" cy="-105" rx="45.4919" ry="18"/>
<text text-anchor="middle" x="236.895" y="-101.3" font-family="Times,serif" font-size="14.00" fill="#000000">Unknown</text>
</a>
</g>
</g>
<!-- Variable -->
<g id="node8" class="node">
<title>Variable</title>
<g id="a_node8"><a xlink:href="http://emmo.info/emmo/middle/math#EMMO_1eed0732_e3f1_4b2c_a9c4_b4e75eeb5895" xlink:title="Variable">
<ellipse fill="#ffffcc" stroke="#000000" cx="344.895" cy="-192" rx="40.8928" ry="18"/>
<text text-anchor="middle" x="344.895" y="-188.3" font-family="Times,serif" font-size="14.00" fill="#000000">Variable</text>
</a>
</g>
</g>
<!-- Unknown&#45;&gt;Variable -->
<g id="edge8" class="edge">
<title>Unknown&#45;&gt;Variable</title>
<path fill="none" stroke="#000000" d="M256.9559,-121.1601C273.8538,-134.7723 298.2082,-154.3911 317.0044,-169.5326"/>
<polygon fill="none" stroke="#000000" points="314.9584,-172.3787 324.9416,-175.9264 319.3497,-166.9274 314.9584,-172.3787"/>
<text text-anchor="middle" x="307.395" y="-144.8" font-family="Times,serif" font-size="14.00" fill="#000000">isA</text>
</g>
<!-- Property -->
<g id="node3" class="node">
<title>Property</title>
<g id="a_node3"><a xlink:href="http://emmo.info/emmo/middle/properties#EMMO_b7bcff25_ffc3_474e_9ab5_01b1664bd4ba" xlink:title="Property">
<ellipse fill="#ffffcc" stroke="#000000" stroke-width="2" cx="240.895" cy="-192" rx="40.8928" ry="18"/>
<text text-anchor="middle" x="240.895" y="-188.3" font-family="Times,serif" font-size="14.00" fill="#000000">Property</text>
</a>
</g>
</g>
<!-- Conventional -->
<g id="node10" class="node">
<title>Conventional</title>
<g id="a_node10"><a xlink:href="http://emmo.info/emmo/top/semiotics#EMMO_35d2e130_6e01_41ed_94f7_00b333d46cf9" xlink:title="Conventional">
<ellipse fill="#ffffcc" stroke="#000000" stroke-width="2" cx="240.895" cy="-279" rx="57.6901" ry="18"/>
<text text-anchor="middle" x="240.895" y="-275.3" font-family="Times,serif" font-size="14.00" fill="#000000">Conventional</text>
</a>
</g>
</g>
<!-- Property&#45;&gt;Conventional -->
<g id="edge9" class="edge">
<title>Property&#45;&gt;Conventional</title>
<path fill="none" stroke="#000000" d="M240.895,-210.0265C240.895,-221.8082 240.895,-237.4393 240.895,-250.8419"/>
<polygon fill="none" stroke="#000000" points="237.3951,-250.9966 240.895,-260.9966 244.3951,-250.9967 237.3951,-250.9966"/>
<text text-anchor="middle" x="250.395" y="-231.8" font-family="Times,serif" font-size="14.00" fill="#000000">isA</text>
</g>
<!-- PhysicalLaw -->
<g id="node4" class="node">
<title>PhysicalLaw</title>
<g id="a_node4"><a xlink:href="http://emmo.info/emmo/middle/models#EMMO_9c32fd69_f480_4130_83b3_fb25d9face14" xlink:title="PhysicalLaw">
<ellipse fill="#ffffcc" stroke="#000000" cx="55.895" cy="-18" rx="55.7903" ry="18"/>
<text text-anchor="middle" x="55.895" y="-14.3" font-family="Times,serif" font-size="14.00" fill="#000000">PhysicalLaw</text>
</a>
</g>
</g>
<!-- NaturalLaw -->
<g id="node7" class="node">
<title>NaturalLaw</title>
<g id="a_node7"><a xlink:href="http://emmo.info/emmo/middle/models#EMMO_db9a009e_f097_43f5_9520_6cbc07e7610b" xlink:title="NaturalLaw">
<ellipse fill="#ffffcc" stroke="#000000" cx="120.895" cy="-105" rx="52.7911" ry="18"/>
<text text-anchor="middle" x="120.895" y="-101.3" font-family="Times,serif" font-size="14.00" fill="#000000">NaturalLaw</text>
</a>
</g>
</g>
<!-- PhysicalLaw&#45;&gt;NaturalLaw -->
<g id="edge6" class="edge">
<title>PhysicalLaw&#45;&gt;NaturalLaw</title>
<path fill="none" stroke="#000000" d="M69.0488,-35.6057C78.3877,-48.1056 91.0775,-65.0904 101.5651,-79.1276"/>
<polygon fill="none" stroke="#000000" points="98.9717,-81.5042 107.7609,-87.4204 104.5795,-77.3145 98.9717,-81.5042"/>
<text text-anchor="middle" x="102.395" y="-57.8" font-family="Times,serif" font-size="14.00" fill="#000000">isA</text>
</g>
<!-- Constant&#45;&gt;Variable -->
<g id="edge5" class="edge">
<title>Constant&#45;&gt;Variable</title>
<path fill="none" stroke="#000000" d="M433.9028,-120.9571C416.7709,-134.6312 391.9107,-154.4737 372.8154,-169.7149"/>
<polygon fill="none" stroke="#000000" points="370.3929,-167.1703 364.7606,-176.144 374.7597,-172.6413 370.3929,-167.1703"/>
<text text-anchor="middle" x="415.395" y="-144.8" font-family="Times,serif" font-size="14.00" fill="#000000">isA</text>
</g>
<!-- Parameter -->
<g id="node6" class="node">
<title>Parameter</title>
<g id="a_node6"><a xlink:href="http://emmo.info/emmo/middle/math#EMMO_d1d436e7_72fc_49cd_863b_7bfb4ba5276a" xlink:title="Parameter">
<ellipse fill="#ffffcc" stroke="#000000" cx="346.895" cy="-105" rx="46.5926" ry="18"/>
<text text-anchor="middle" x="346.895" y="-101.3" font-family="Times,serif" font-size="14.00" fill="#000000">Parameter</text>
</a>
</g>
</g>
<!-- Parameter&#45;&gt;Variable -->
<g id="edge10" class="edge">
<title>Parameter&#45;&gt;Variable</title>
<path fill="none" stroke="#000000" d="M346.4806,-123.0265C346.2098,-134.8082 345.8505,-150.4393 345.5424,-163.8419"/>
<polygon fill="none" stroke="#000000" points="342.0398,-163.9188 345.3089,-173.9966 349.0379,-164.0798 342.0398,-163.9188"/>
<text text-anchor="middle" x="355.395" y="-144.8" font-family="Times,serif" font-size="14.00" fill="#000000">isA</text>
</g>
<!-- Theory -->
<g id="node9" class="node">
<title>Theory</title>
<g id="a_node9"><a xlink:href="http://emmo.info/emmo/middle/models#EMMO_8d2d9374_ef3a_47e6_8595_6bc208e07519" xlink:title="Theory">
<ellipse fill="#ffffcc" stroke="#000000" cx="137.895" cy="-192" rx="36.2938" ry="18"/>
<text text-anchor="middle" x="137.895" y="-188.3" font-family="Times,serif" font-size="14.00" fill="#000000">Theory</text>
</a>
</g>
</g>
<!-- NaturalLaw&#45;&gt;Theory -->
<g id="edge2" class="edge">
<title>NaturalLaw&#45;&gt;Theory</title>
<path fill="none" stroke="#000000" d="M124.4175,-123.0265C126.7196,-134.8082 129.774,-150.4393 132.3929,-163.8419"/>
<polygon fill="none" stroke="#000000" points="129.0243,-164.8535 134.3771,-173.9966 135.8943,-163.511 129.0243,-164.8535"/>
<text text-anchor="middle" x="140.395" y="-144.8" font-family="Times,serif" font-size="14.00" fill="#000000">isA</text>
</g>
<!-- Variable&#45;&gt;Conventional -->
<g id="edge3" class="edge">
<title>Variable&#45;&gt;Conventional</title>
<path fill="none" stroke="#000000" d="M325.8198,-207.9571C309.9539,-221.2296 287.1411,-240.3134 269.154,-255.3603"/>
<polygon fill="none" stroke="#000000" points="266.6959,-252.8534 261.2715,-261.9543 271.1874,-258.2224 266.6959,-252.8534"/>
<text text-anchor="middle" x="309.395" y="-231.8" font-family="Times,serif" font-size="14.00" fill="#000000">isA</text>
</g>
<!-- Theory&#45;&gt;Conventional -->
<g id="edge7" class="edge">
<title>Theory&#45;&gt;Conventional</title>
<path fill="none" stroke="#000000" d="M156.3094,-207.5539C172.0656,-220.8625 194.987,-240.2233 212.9958,-255.4346"/>
<polygon fill="none" stroke="#000000" points="210.983,-258.316 220.881,-262.0949 215.5,-252.9683 210.983,-258.316"/>
<text text-anchor="middle" x="205.395" y="-231.8" font-family="Times,serif" font-size="14.00" fill="#000000">isA</text>
</g>
<!-- MaterialLaw -->
<g id="node11" class="node">
<title>MaterialLaw</title>
<g id="a_node11"><a xlink:href="http://emmo.info/emmo/middle/models#EMMO_f19ff3b4_6bfe_4c41_a2b2_9affd39c140b" xlink:title="MaterialLaw">
<ellipse fill="#ffffcc" stroke="#000000" cx="185.895" cy="-18" rx="56.59" ry="18"/>
<text text-anchor="middle" x="185.895" y="-14.3" font-family="Times,serif" font-size="14.00" fill="#000000">MaterialLaw</text>
</a>
</g>
</g>
<!-- MaterialLaw&#45;&gt;NaturalLaw -->
<g id="edge1" class="edge">
<title>MaterialLaw&#45;&gt;NaturalLaw</title>
<path fill="none" stroke="#000000" d="M172.7413,-35.6057C163.4024,-48.1056 150.7126,-65.0904 140.225,-79.1276"/>
<polygon fill="none" stroke="#000000" points="137.2106,-77.3145 134.0292,-87.4204 142.8184,-81.5042 137.2106,-77.3145"/>
<text text-anchor="middle" x="167.395" y="-57.8" font-family="Times,serif" font-size="14.00" fill="#000000">isA</text>
</g>
</g>
</svg>
