<?xml version="1.0" encoding="UTF-8" standalone="no"?>
<!DOCTYPE svg PUBLIC "-//W3C//DTD SVG 1.1//EN"
 "http://www.w3.org/Graphics/SVG/1.1/DTD/svg11.dtd">
<!-- Generated by graphviz version 2.40.1 (20161225.0304)
 -->
<!-- Title: %3 Pages: 1 -->
<svg width="931pt" height="1178pt"
 viewBox="0.00 0.00 930.83 1178.00" xmlns="http://www.w3.org/2000/svg" xmlns:xlink="http://www.w3.org/1999/xlink">
<g id="graph0" class="graph" transform="scale(1 1) rotate(0) translate(4 1174)">
<title>%3</title>
<polygon fill="#ffffff" stroke="transparent" points="-4,4 -4,-1174 926.8328,-1174 926.8328,4 -4,4"/>
<!-- Capacitance -->
<g id="node1" class="node">
<title>Capacitance</title>
<g id="a_node1"><a xlink:href="http://emmo.info/emmo/middle/isq#EMMO_99dba333_0dbd_4f75_8841_8c0f97fd58e2" xlink:title="Capacitance">
<ellipse fill="#ffffcc" stroke="#000000" cx="504.515" cy="-1152" rx="53.8905" ry="18"/>
<text text-anchor="middle" x="504.515" y="-1148.3" font-family="Times,serif" font-size="14.00" fill="#000000">Capacitance</text>
</a>
</g>
</g>
<!-- ISQDerivedQuantity -->
<g id="node9" class="node">
<title>ISQDerivedQuantity</title>
<g id="a_node9"><a xlink:href="http://emmo.info/emmo/middle/isq#EMMO_2946d40b_24a1_47fa_8176_e3f79bb45064" xlink:title="ISQDerivedQuantity">
<ellipse fill="#ffffcc" stroke="#000000" cx="277.9302" cy="-585" rx="83.6854" ry="18"/>
<text text-anchor="middle" x="277.9302" y="-581.3" font-family="Times,serif" font-size="14.00" fill="#000000">ISQDerivedQuantity</text>
</a>
</g>
</g>
<!-- Capacitance&#45;&gt;ISQDerivedQuantity -->
<g id="edge21" class="edge">
<title>Capacitance&#45;&gt;ISQDerivedQuantity</title>
<path fill="none" stroke="#000000" d="M456.805,-1143.3918C443.0166,-1139.3574 428.5308,-1133.4912 416.7728,-1125 393.7776,-1108.3938 391.1333,-1098.99 379.7728,-1073 307.9126,-908.6023 285.6516,-690.4518 279.7829,-613.4086"/>
<polygon fill="none" stroke="#000000" points="283.2485,-612.8083 279.032,-603.0887 276.267,-613.3163 283.2485,-612.8083"/>
<text text-anchor="middle" x="389.2728" y="-1111.8" font-family="Times,serif" font-size="14.00" fill="#000000">isA</text>
</g>
<!-- Power -->
<g id="node2" class="node">
<title>Power</title>
<g id="a_node2"><a xlink:href="http://emmo.info/emmo/middle/isq#EMMO_09b9021b_f97b_43eb_b83d_0a764b472bc2" xlink:title="Power">
<ellipse fill="#ffffcc" stroke="#000000" cx="504.515" cy="-1098" rx="33.2948" ry="18"/>
<text text-anchor="middle" x="504.515" y="-1094.3" font-family="Times,serif" font-size="14.00" fill="#000000">Power</text>
</a>
</g>
</g>
<!-- Power&#45;&gt;ISQDerivedQuantity -->
<g id="edge25" class="edge">
<title>Power&#45;&gt;ISQDerivedQuantity</title>
<path fill="none" stroke="#000000" d="M472.2106,-1093.2791C454.5629,-1089.4815 433.0531,-1082.7571 416.7728,-1071 393.7776,-1054.3938 391.4541,-1044.8475 379.7728,-1019 314.5919,-874.7727 288.559,-684.0211 280.7229,-613.1128"/>
<polygon fill="none" stroke="#000000" points="284.2023,-612.7329 279.6571,-603.1625 277.2421,-613.4785 284.2023,-612.7329"/>
<text text-anchor="middle" x="389.2728" y="-1057.8" font-family="Times,serif" font-size="14.00" fill="#000000">isA</text>
</g>
<!-- MagneticFluxDensity -->
<g id="node3" class="node">
<title>MagneticFluxDensity</title>
<g id="a_node3"><a xlink:href="http://emmo.info/emmo/middle/isq#EMMO_961d1aba_f75e_4411_aaa4_457f7516ed6b" xlink:title="MagneticFluxDensity">
<ellipse fill="#ffffcc" stroke="#000000" cx="504.515" cy="-1044" rx="87.9851" ry="18"/>
<text text-anchor="middle" x="504.515" y="-1040.3" font-family="Times,serif" font-size="14.00" fill="#000000">MagneticFluxDensity</text>
</a>
</g>
</g>
<!-- MagneticFluxDensity&#45;&gt;ISQDerivedQuantity -->
<g id="edge10" class="edge">
<title>MagneticFluxDensity&#45;&gt;ISQDerivedQuantity</title>
<path fill="none" stroke="#000000" d="M443.5211,-1030.951C434.0609,-1027.3519 424.7837,-1022.7852 416.7728,-1017 393.7776,-1000.3938 391.8579,-990.6611 379.7728,-965 321.4535,-841.1673 292.0306,-678.3394 282.0018,-613.459"/>
<polygon fill="none" stroke="#000000" points="285.408,-612.574 280.4542,-603.2086 278.4864,-613.6191 285.408,-612.574"/>
<text text-anchor="middle" x="389.2728" y="-1003.8" font-family="Times,serif" font-size="14.00" fill="#000000">isA</text>
</g>
<!-- AbsorbedDose -->
<g id="node4" class="node">
<title>AbsorbedDose</title>
<g id="a_node4"><a xlink:href="http://emmo.info/emmo/middle/isq#EMMO_8e5dd473_808b_4a8a_b7cd_63068c12ff57" xlink:title="AbsorbedDose">
<ellipse fill="#ffffcc" stroke="#000000" cx="504.515" cy="-990" rx="63.0888" ry="18"/>
<text text-anchor="middle" x="504.515" y="-986.3" font-family="Times,serif" font-size="14.00" fill="#000000">AbsorbedDose</text>
</a>
</g>
</g>
<!-- AbsorbedDose&#45;&gt;ISQDerivedQuantity -->
<g id="edge9" class="edge">
<title>AbsorbedDose&#45;&gt;ISQDerivedQuantity</title>
<path fill="none" stroke="#000000" d="M451.7327,-979.9127C439.5082,-975.9645 427.0759,-970.5111 416.7728,-963 393.5588,-946.0768 392.4379,-935.7852 379.7728,-910 328.6056,-805.8274 296.0305,-670.3396 283.6172,-612.798"/>
<polygon fill="none" stroke="#000000" points="287.0346,-612.041 281.5341,-602.9859 280.1872,-613.4947 287.0346,-612.041"/>
<text text-anchor="middle" x="389.2728" y="-949.8" font-family="Times,serif" font-size="14.00" fill="#000000">isA</text>
</g>
<!-- Frequency -->
<g id="node5" class="node">
<title>Frequency</title>
<g id="a_node5"><a xlink:href="http://emmo.info/emmo/middle/isq#EMMO_852b4ab8_fc29_4749_a8c7_b92d4fca7d5a" xlink:title="Frequency">
<ellipse fill="#ffffcc" stroke="#000000" cx="504.515" cy="-936" rx="48.1917" ry="18"/>
<text text-anchor="middle" x="504.515" y="-932.3" font-family="Times,serif" font-size="14.00" fill="#000000">Frequency</text>
</a>
</g>
</g>
<!-- Frequency&#45;&gt;ISQDerivedQuantity -->
<g id="edge12" class="edge">
<title>Frequency&#45;&gt;ISQDerivedQuantity</title>
<path fill="none" stroke="#000000" d="M460.4709,-928.3474C445.6365,-924.2962 429.6068,-918.1787 416.7728,-909 393.9951,-892.7097 393.0099,-882.6775 379.7728,-858 334.3435,-773.3077 300.2524,-663.9632 285.6913,-613.2023"/>
<polygon fill="none" stroke="#000000" points="288.9764,-611.9573 282.8835,-603.2897 282.2413,-613.865 288.9764,-611.9573"/>
<text text-anchor="middle" x="389.2728" y="-894.8" font-family="Times,serif" font-size="14.00" fill="#000000">isA</text>
</g>
<!-- Radioactivity -->
<g id="node6" class="node">
<title>Radioactivity</title>
<g id="a_node6"><a xlink:href="http://emmo.info/emmo/middle/isq#EMMO_8d3da9ac_2265_4382_bee5_db72046722f8" xlink:title="Radioactivity">
<ellipse fill="#ffffcc" stroke="#000000" cx="504.515" cy="-882" rx="57.6901" ry="18"/>
<text text-anchor="middle" x="504.515" y="-878.3" font-family="Times,serif" font-size="14.00" fill="#000000">Radioactivity</text>
</a>
</g>
</g>
<!-- Radioactivity&#45;&gt;ISQDerivedQuantity -->
<g id="edge5" class="edge">
<title>Radioactivity&#45;&gt;ISQDerivedQuantity</title>
<path fill="none" stroke="#000000" d="M454.4787,-872.7759C441.385,-868.7709 427.8487,-863.0744 416.7728,-855 333.5435,-794.3252 296.4784,-668.9656 283.595,-613.0211"/>
<polygon fill="none" stroke="#000000" points="286.9786,-612.1121 281.3995,-603.1053 280.1441,-613.6255 286.9786,-612.1121"/>
<text text-anchor="middle" x="389.2728" y="-842.8" font-family="Times,serif" font-size="14.00" fill="#000000">isA</text>
</g>
<!-- Inductance -->
<g id="node7" class="node">
<title>Inductance</title>
<g id="a_node7"><a xlink:href="http://emmo.info/emmo/middle/isq#EMMO_04cc9451_5306_45d0_8554_22cee4d6e785" xlink:title="Inductance">
<ellipse fill="#ffffcc" stroke="#000000" cx="504.515" cy="-828" rx="49.2915" ry="18"/>
<text text-anchor="middle" x="504.515" y="-824.3" font-family="Times,serif" font-size="14.00" fill="#000000">Inductance</text>
</a>
</g>
</g>
<!-- Inductance&#45;&gt;ISQDerivedQuantity -->
<g id="edge22" class="edge">
<title>Inductance&#45;&gt;ISQDerivedQuantity</title>
<path fill="none" stroke="#000000" d="M460.1196,-820.0846C445.4196,-816.0218 429.5635,-809.9641 416.7728,-801 348.2411,-752.9711 305.5581,-659.2313 287.6658,-612.6472"/>
<polygon fill="none" stroke="#000000" points="290.91,-611.3302 284.1272,-603.1912 284.354,-613.7836 290.91,-611.3302"/>
<text text-anchor="middle" x="389.2728" y="-786.8" font-family="Times,serif" font-size="14.00" fill="#000000">isA</text>
</g>
<!-- CelsiusTemperature -->
<g id="node8" class="node">
<title>CelsiusTemperature</title>
<g id="a_node8"><a xlink:href="http://emmo.info/emmo/middle/isq#EMMO_66bc9029_f473_45ff_bab9_c3509ff37a22" xlink:title="CelsiusTemperature">
<ellipse fill="#ffffcc" stroke="#000000" cx="504.515" cy="-774" rx="81.7856" ry="18"/>
<text text-anchor="middle" x="504.515" y="-770.3" font-family="Times,serif" font-size="14.00" fill="#000000">CelsiusTemperature</text>
</a>
</g>
</g>
<!-- CelsiusTemperature&#45;&gt;ISQDerivedQuantity -->
<g id="edge20" class="edge">
<title>CelsiusTemperature&#45;&gt;ISQDerivedQuantity</title>
<path fill="none" stroke="#000000" d="M446.259,-761.1547C435.9684,-757.4952 425.7027,-752.8554 416.7728,-747 361.9453,-711.0495 316.5613,-647.3689 293.7721,-611.4896"/>
<polygon fill="none" stroke="#000000" points="296.7373,-609.6302 288.473,-603.0005 290.7993,-613.3369 296.7373,-609.6302"/>
<text text-anchor="middle" x="389.2728" y="-736.8" font-family="Times,serif" font-size="14.00" fill="#000000">isA</text>
</g>
<!-- DerivedQuantity -->
<g id="node12" class="node">
<title>DerivedQuantity</title>
<g id="a_node12"><a xlink:href="http://emmo.info/emmo/middle/units#EMMO_71f6ab56_342c_484b_bbe0_de86b7367cb3" xlink:title="DerivedQuantity">
<ellipse fill="#ffffcc" stroke="#000000" stroke-width="2" cx="69.5438" cy="-585" rx="69.5877" ry="18"/>
<text text-anchor="middle" x="69.5438" y="-581.3" font-family="Times,serif" font-size="14.00" fill="#000000">DerivedQuantity</text>
</a>
</g>
</g>
<!-- ISQDerivedQuantity&#45;&gt;DerivedQuantity -->
<g id="edge4" class="edge">
<title>ISQDerivedQuantity&#45;&gt;DerivedQuantity</title>
<path fill="none" stroke="#000000" d="M194.0723,-585C179.2779,-585 163.9145,-585 149.2384,-585"/>
<polygon fill="none" stroke="#000000" points="149.2034,-581.5001 139.2034,-585 149.2034,-588.5001 149.2034,-581.5001"/>
<text text-anchor="middle" x="166.5877" y="-588.8" font-family="Times,serif" font-size="14.00" fill="#000000">isA</text>
</g>
<!-- LuminousFlux -->
<g id="node10" class="node">
<title>LuminousFlux</title>
<g id="a_node10"><a xlink:href="http://emmo.info/emmo/middle/isq#EMMO_e2ee1c98_497a_4f66_b4ed_5711496a848e" xlink:title="LuminousFlux">
<ellipse fill="#ffffcc" stroke="#000000" cx="504.515" cy="-720" rx="63.0888" ry="18"/>
<text text-anchor="middle" x="504.515" y="-716.3" font-family="Times,serif" font-size="14.00" fill="#000000">LuminousFlux</text>
</a>
</g>
</g>
<!-- LuminousFlux&#45;&gt;ISQDerivedQuantity -->
<g id="edge11" class="edge">
<title>LuminousFlux&#45;&gt;ISQDerivedQuantity</title>
<path fill="none" stroke="#000000" d="M455.9115,-708.4643C442.8234,-704.4503 428.9317,-699.3271 416.7728,-693 373.5641,-670.5156 330.3005,-634.1246 303.8236,-609.8841"/>
<polygon fill="none" stroke="#000000" points="305.8762,-607.0142 296.1641,-602.7802 301.116,-612.1466 305.8762,-607.0142"/>
<text text-anchor="middle" x="389.2728" y="-684.8" font-family="Times,serif" font-size="14.00" fill="#000000">isA</text>
</g>
<!-- Pressure -->
<g id="node11" class="node">
<title>Pressure</title>
<g id="a_node11"><a xlink:href="http://emmo.info/emmo/middle/isq#EMMO_50a44256_9dc5_434b_bad4_74a4d9a29989" xlink:title="Pressure">
<ellipse fill="#ffffcc" stroke="#000000" cx="504.515" cy="-666" rx="40.0939" ry="18"/>
<text text-anchor="middle" x="504.515" y="-662.3" font-family="Times,serif" font-size="14.00" fill="#000000">Pressure</text>
</a>
</g>
</g>
<!-- Pressure&#45;&gt;ISQDerivedQuantity -->
<g id="edge1" class="edge">
<title>Pressure&#45;&gt;ISQDerivedQuantity</title>
<path fill="none" stroke="#000000" d="M470.5798,-656.182C454.2262,-651.292 434.3852,-645.1258 416.7728,-639 386.4227,-628.4439 352.8292,-615.415 326.289,-604.7999"/>
<polygon fill="none" stroke="#000000" points="327.4332,-601.4877 316.8493,-601.0073 324.8236,-607.9831 327.4332,-601.4877"/>
<text text-anchor="middle" x="389.2728" y="-635.8" font-family="Times,serif" font-size="14.00" fill="#000000">isA</text>
</g>
<!-- ElectricPotential -->
<g id="node13" class="node">
<title>ElectricPotential</title>
<g id="a_node13"><a xlink:href="http://emmo.info/emmo/middle/isq#EMMO_4f2d3939_91b1_4001_b8ab_7d19074bf845" xlink:title="ElectricPotential">
<ellipse fill="#ffffcc" stroke="#000000" cx="504.515" cy="-612" rx="69.5877" ry="18"/>
<text text-anchor="middle" x="504.515" y="-608.3" font-family="Times,serif" font-size="14.00" fill="#000000">ElectricPotential</text>
</a>
</g>
</g>
<!-- ElectricPotential&#45;&gt;ISQDerivedQuantity -->
<g id="edge17" class="edge">
<title>ElectricPotential&#45;&gt;ISQDerivedQuantity</title>
<path fill="none" stroke="#000000" d="M441.0972,-604.4431C416.3699,-601.4966 387.6823,-598.0781 361.321,-594.9369"/>
<polygon fill="none" stroke="#000000" points="361.6887,-591.456 351.3448,-593.7481 360.8604,-598.4069 361.6887,-591.456"/>
<text text-anchor="middle" x="389.2728" y="-602.8" font-family="Times,serif" font-size="14.00" fill="#000000">isA</text>
</g>
<!-- ElementaryCharge -->
<g id="node14" class="node">
<title>ElementaryCharge</title>
<g id="a_node14"><a xlink:href="http://emmo.info/emmo/middle/siunits#EMMO_58a650f0_a638_4743_8439_535a325e5c4c" xlink:title="ElementaryCharge">
<ellipse fill="#ffffcc" stroke="#000000" cx="785.045" cy="-234" rx="77.1866" ry="18"/>
<text text-anchor="middle" x="785.045" y="-230.3" font-family="Times,serif" font-size="14.00" fill="#000000">ElementaryCharge</text>
</a>
</g>
</g>
<!-- ElectricCharge -->
<g id="node22" class="node">
<title>ElectricCharge</title>
<g id="a_node22"><a xlink:href="http://emmo.info/emmo/middle/isq#EMMO_1604f495_328a_4f28_9962_f4cc210739dd" xlink:title="ElectricCharge">
<ellipse fill="#ffffcc" stroke="#000000" cx="504.515" cy="-234" rx="63.8893" ry="18"/>
<text text-anchor="middle" x="504.515" y="-230.3" font-family="Times,serif" font-size="14.00" fill="#000000">ElectricCharge</text>
</a>
</g>
</g>
<!-- ElementaryCharge&#45;&gt;ElectricCharge -->
<g id="edge3" class="edge">
<title>ElementaryCharge&#45;&gt;ElectricCharge</title>
<path fill="none" stroke="#000000" d="M707.6463,-234C667.3647,-234 618.3613,-234 578.578,-234"/>
<polygon fill="none" stroke="#000000" points="578.4101,-230.5001 568.4101,-234 578.4101,-237.5001 578.4101,-230.5001"/>
<text text-anchor="middle" x="619.7572" y="-237.8" font-family="Times,serif" font-size="14.00" fill="#000000">isA</text>
</g>
<!-- DoseEquivalent -->
<g id="node15" class="node">
<title>DoseEquivalent</title>
<g id="a_node15"><a xlink:href="http://emmo.info/emmo/middle/isq#EMMO_3df10765_f6ff_4c9e_be3d_10b1809d78bd" xlink:title="DoseEquivalent">
<ellipse fill="#ffffcc" stroke="#000000" cx="504.515" cy="-558" rx="66.8882" ry="18"/>
<text text-anchor="middle" x="504.515" y="-554.3" font-family="Times,serif" font-size="14.00" fill="#000000">DoseEquivalent</text>
</a>
</g>
</g>
<!-- DoseEquivalent&#45;&gt;ISQDerivedQuantity -->
<g id="edge15" class="edge">
<title>DoseEquivalent&#45;&gt;ISQDerivedQuantity</title>
<path fill="none" stroke="#000000" d="M443.1979,-565.3066C418.0953,-568.2978 388.6463,-571.807 361.6155,-575.028"/>
<polygon fill="none" stroke="#000000" points="360.9038,-571.588 351.3882,-576.2467 361.7321,-578.5388 360.9038,-571.588"/>
<text text-anchor="middle" x="389.2728" y="-575.8" font-family="Times,serif" font-size="14.00" fill="#000000">isA</text>
</g>
<!-- MagneticFlux -->
<g id="node16" class="node">
<title>MagneticFlux</title>
<g id="a_node16"><a xlink:href="http://emmo.info/emmo/middle/isq#EMMO_3b931698_937e_49be_ab1b_36fa52d91181" xlink:title="MagneticFlux">
<ellipse fill="#ffffcc" stroke="#000000" cx="504.515" cy="-504" rx="60.3893" ry="18"/>
<text text-anchor="middle" x="504.515" y="-500.3" font-family="Times,serif" font-size="14.00" fill="#000000">MagneticFlux</text>
</a>
</g>
</g>
<!-- MagneticFlux&#45;&gt;ISQDerivedQuantity -->
<g id="edge6" class="edge">
<title>MagneticFlux&#45;&gt;ISQDerivedQuantity</title>
<path fill="none" stroke="#000000" d="M461.0228,-516.7031C446.8434,-521.0255 431.0735,-526.026 416.7728,-531 386.4227,-541.5561 352.8292,-554.585 326.289,-565.2001"/>
<polygon fill="none" stroke="#000000" points="324.8236,-562.0169 316.8493,-568.9927 327.4332,-568.5123 324.8236,-562.0169"/>
<text text-anchor="middle" x="389.2728" y="-546.8" font-family="Times,serif" font-size="14.00" fill="#000000">isA</text>
</g>
<!-- Energy -->
<g id="node17" class="node">
<title>Energy</title>
<g id="a_node17"><a xlink:href="http://emmo.info/emmo/middle/isq#EMMO_31ec09ba_1713_42cb_83c7_b38bf6f9ced2" xlink:title="Energy">
<ellipse fill="#ffffcc" stroke="#000000" cx="504.515" cy="-450" rx="36.2938" ry="18"/>
<text text-anchor="middle" x="504.515" y="-446.3" font-family="Times,serif" font-size="14.00" fill="#000000">Energy</text>
</a>
</g>
</g>
<!-- Energy&#45;&gt;ISQDerivedQuantity -->
<g id="edge19" class="edge">
<title>Energy&#45;&gt;ISQDerivedQuantity</title>
<path fill="none" stroke="#000000" d="M470.901,-457.289C454.0784,-461.6871 433.7387,-468.1715 416.7728,-477 373.5641,-499.4844 330.3005,-535.8754 303.8236,-560.1159"/>
<polygon fill="none" stroke="#000000" points="301.116,-557.8534 296.1641,-567.2198 305.8762,-562.9858 301.116,-557.8534"/>
<text text-anchor="middle" x="389.2728" y="-499.8" font-family="Times,serif" font-size="14.00" fill="#000000">isA</text>
</g>
<!-- ElectricConductance -->
<g id="node18" class="node">
<title>ElectricConductance</title>
<g id="a_node18"><a xlink:href="http://emmo.info/emmo/middle/isq#EMMO_ffb73b1e_5786_43e4_a964_cb32ac7affb7" xlink:title="ElectricConductance">
<ellipse fill="#ffffcc" stroke="#000000" cx="504.515" cy="-396" rx="83.6854" ry="18"/>
<text text-anchor="middle" x="504.515" y="-392.3" font-family="Times,serif" font-size="14.00" fill="#000000">ElectricConductance</text>
</a>
</g>
</g>
<!-- ElectricConductance&#45;&gt;ISQDerivedQuantity -->
<g id="edge24" class="edge">
<title>ElectricConductance&#45;&gt;ISQDerivedQuantity</title>
<path fill="none" stroke="#000000" d="M445.7983,-409.0098C435.6623,-412.6436 425.5694,-417.232 416.7728,-423 361.9453,-458.9505 316.5613,-522.6311 293.7721,-558.5104"/>
<polygon fill="none" stroke="#000000" points="290.7993,-556.6631 288.473,-566.9995 296.7373,-560.3698 290.7993,-556.6631"/>
<text text-anchor="middle" x="389.2728" y="-454.8" font-family="Times,serif" font-size="14.00" fill="#000000">isA</text>
</g>
<!-- HyperfineTransitionFrequencyOfCs -->
<g id="node19" class="node">
<title>HyperfineTransitionFrequencyOfCs</title>
<g id="a_node19"><a xlink:href="http://emmo.info/emmo/middle/siunits#EMMO_f96feb3f_4438_4e43_aa44_7458c4d87fc2" xlink:title="HyperfineTransitionFrequencyOfCs">
<ellipse fill="#ffffcc" stroke="#000000" cx="785.045" cy="-936" rx="137.5759" ry="18"/>
<text text-anchor="middle" x="785.045" y="-932.3" font-family="Times,serif" font-size="14.00" fill="#000000">HyperfineTransitionFrequencyOfCs</text>
</a>
</g>
</g>
<!-- HyperfineTransitionFrequencyOfCs&#45;&gt;Frequency -->
<g id="edge8" class="edge">
<title>HyperfineTransitionFrequencyOfCs&#45;&gt;Frequency</title>
<path fill="none" stroke="#000000" d="M647.2455,-936C617.5409,-936 587.6888,-936 563.0203,-936"/>
<polygon fill="none" stroke="#000000" points="562.781,-932.5001 552.781,-936 562.7809,-939.5001 562.781,-932.5001"/>
<text text-anchor="middle" x="619.7572" y="-939.8" font-family="Times,serif" font-size="14.00" fill="#000000">isA</text>
</g>
<!-- Force -->
<g id="node20" class="node">
<title>Force</title>
<g id="a_node20"><a xlink:href="http://emmo.info/emmo/middle/isq#EMMO_1f087811_06cb_42d5_90fb_25d0e7e068ef" xlink:title="Force">
<ellipse fill="#ffffcc" stroke="#000000" cx="504.515" cy="-342" rx="30.5947" ry="18"/>
<text text-anchor="middle" x="504.515" y="-338.3" font-family="Times,serif" font-size="14.00" fill="#000000">Force</text>
</a>
</g>
</g>
<!-- Force&#45;&gt;ISQDerivedQuantity -->
<g id="edge14" class="edge">
<title>Force&#45;&gt;ISQDerivedQuantity</title>
<path fill="none" stroke="#000000" d="M474.8681,-346.4293C456.8486,-350.2079 434.061,-357.0117 416.7728,-369 348.0032,-416.6875 305.4312,-510.5867 287.615,-557.28"/>
<polygon fill="none" stroke="#000000" points="284.2951,-556.1661 284.0925,-566.759 290.8567,-558.6045 284.2951,-556.1661"/>
<text text-anchor="middle" x="389.2728" y="-403.8" font-family="Times,serif" font-size="14.00" fill="#000000">isA</text>
</g>
<!-- PlaneAngle -->
<g id="node21" class="node">
<title>PlaneAngle</title>
<g id="a_node21"><a xlink:href="http://emmo.info/emmo/middle/isq#EMMO_f3dd74c0_f480_49e8_9764_33b78638c235" xlink:title="PlaneAngle">
<ellipse fill="#ffffcc" stroke="#000000" cx="504.515" cy="-288" rx="51.9908" ry="18"/>
<text text-anchor="middle" x="504.515" y="-284.3" font-family="Times,serif" font-size="14.00" fill="#000000">PlaneAngle</text>
</a>
</g>
</g>
<!-- PlaneAngle&#45;&gt;ISQDerivedQuantity -->
<g id="edge13" class="edge">
<title>PlaneAngle&#45;&gt;ISQDerivedQuantity</title>
<path fill="none" stroke="#000000" d="M458.1663,-296.2151C443.9746,-300.2587 428.9184,-306.2289 416.7728,-315 333.2723,-375.301 296.35,-500.8574 283.5494,-556.9161"/>
<polygon fill="none" stroke="#000000" points="280.0937,-556.335 281.369,-566.8528 286.9311,-557.8353 280.0937,-556.335"/>
<text text-anchor="middle" x="389.2728" y="-350.8" font-family="Times,serif" font-size="14.00" fill="#000000">isA</text>
</g>
<!-- ElectricCharge&#45;&gt;ISQDerivedQuantity -->
<g id="edge7" class="edge">
<title>ElectricCharge&#45;&gt;ISQDerivedQuantity</title>
<path fill="none" stroke="#000000" d="M451.8783,-244.29C439.6494,-248.2321 427.1786,-253.6319 416.7728,-261 394.211,-276.9754 392.9407,-286.6925 379.7728,-311 333.7347,-395.9844 299.8303,-506.1708 285.4865,-557.0242"/>
<polygon fill="none" stroke="#000000" points="282.0349,-556.3724 282.7253,-566.9447 288.7786,-558.2495 282.0349,-556.3724"/>
<text text-anchor="middle" x="389.2728" y="-314.8" font-family="Times,serif" font-size="14.00" fill="#000000">isA</text>
</g>
<!-- CatalyticActivity -->
<g id="node23" class="node">
<title>CatalyticActivity</title>
<g id="a_node23"><a xlink:href="http://emmo.info/emmo/middle/isq#EMMO_bd67d149_24c2_4bc9_833a_c2bc26f98fd3" xlink:title="CatalyticActivity">
<ellipse fill="#ffffcc" stroke="#000000" cx="504.515" cy="-180" rx="71.4873" ry="18"/>
<text text-anchor="middle" x="504.515" y="-176.3" font-family="Times,serif" font-size="14.00" fill="#000000">CatalyticActivity</text>
</a>
</g>
</g>
<!-- CatalyticActivity&#45;&gt;ISQDerivedQuantity -->
<g id="edge18" class="edge">
<title>CatalyticActivity&#45;&gt;ISQDerivedQuantity</title>
<path fill="none" stroke="#000000" d="M448.6154,-191.29C437.4373,-195.1282 426.2363,-200.2318 416.7728,-207 393.9951,-223.2903 392.3246,-232.967 379.7728,-258 327.4603,-362.3304 295.4962,-498.9098 283.4302,-556.9521"/>
<polygon fill="none" stroke="#000000" points="279.9806,-556.3522 281.4084,-566.8504 286.839,-557.7532 279.9806,-556.3522"/>
<text text-anchor="middle" x="389.2728" y="-261.8" font-family="Times,serif" font-size="14.00" fill="#000000">isA</text>
</g>
<!-- ElectricResistance -->
<g id="node24" class="node">
<title>ElectricResistance</title>
<g id="a_node24"><a xlink:href="http://emmo.info/emmo/middle/isq#EMMO_e88f75d6_9a17_4cfc_bdf7_43d7cea5a9a1" xlink:title="ElectricResistance">
<ellipse fill="#ffffcc" stroke="#000000" cx="504.515" cy="-126" rx="75.2868" ry="18"/>
<text text-anchor="middle" x="504.515" y="-122.3" font-family="Times,serif" font-size="14.00" fill="#000000">ElectricResistance</text>
</a>
</g>
</g>
<!-- ElectricResistance&#45;&gt;ISQDerivedQuantity -->
<g id="edge2" class="edge">
<title>ElectricResistance&#45;&gt;ISQDerivedQuantity</title>
<path fill="none" stroke="#000000" d="M447.1899,-137.7037C436.4761,-141.4899 425.8174,-146.4683 416.7728,-153 393.7776,-169.6062 391.8579,-179.3389 379.7728,-205 321.4535,-328.8327 292.0306,-491.6606 282.0018,-556.541"/>
<polygon fill="none" stroke="#000000" points="278.4864,-556.3809 280.4542,-566.7914 285.408,-557.426 278.4864,-556.3809"/>
<text text-anchor="middle" x="389.2728" y="-208.8" font-family="Times,serif" font-size="14.00" fill="#000000">isA</text>
</g>
<!-- Illuminance -->
<g id="node25" class="node">
<title>Illuminance</title>
<g id="a_node25"><a xlink:href="http://emmo.info/emmo/middle/isq#EMMO_b51fbd00_a857_4132_9711_0ef70e7bdd20" xlink:title="Illuminance">
<ellipse fill="#ffffcc" stroke="#000000" cx="504.515" cy="-72" rx="53.0913" ry="18"/>
<text text-anchor="middle" x="504.515" y="-68.3" font-family="Times,serif" font-size="14.00" fill="#000000">Illuminance</text>
</a>
</g>
</g>
<!-- Illuminance&#45;&gt;ISQDerivedQuantity -->
<g id="edge23" class="edge">
<title>Illuminance&#45;&gt;ISQDerivedQuantity</title>
<path fill="none" stroke="#000000" d="M457.2594,-80.4759C443.3352,-84.514 428.66,-90.4155 416.7728,-99 393.7776,-115.6062 391.4541,-125.1525 379.7728,-151 314.5919,-295.2273 288.559,-485.9789 280.7229,-556.8872"/>
<polygon fill="none" stroke="#000000" points="277.2421,-556.5215 279.6571,-566.8375 284.2023,-557.2671 277.2421,-556.5215"/>
<text text-anchor="middle" x="389.2728" y="-154.8" font-family="Times,serif" font-size="14.00" fill="#000000">isA</text>
</g>
<!-- SolidAngle -->
<g id="node26" class="node">
<title>SolidAngle</title>
<g id="a_node26"><a xlink:href="http://emmo.info/emmo/middle/isq#EMMO_e7c9f7fd_e534_4441_88fe_1fec6cb20f26" xlink:title="SolidAngle">
<ellipse fill="#ffffcc" stroke="#000000" cx="504.515" cy="-18" rx="50.8918" ry="18"/>
<text text-anchor="middle" x="504.515" y="-14.3" font-family="Times,serif" font-size="14.00" fill="#000000">SolidAngle</text>
</a>
</g>
</g>
<!-- SolidAngle&#45;&gt;ISQDerivedQuantity -->
<g id="edge16" class="edge">
<title>SolidAngle&#45;&gt;ISQDerivedQuantity</title>
<path fill="none" stroke="#000000" d="M458.619,-26.0867C444.2953,-30.132 429.0476,-36.1355 416.7728,-45 393.7776,-61.6062 391.1333,-71.01 379.7728,-97 307.9126,-261.3977 285.6516,-479.5482 279.7829,-556.5914"/>
<polygon fill="none" stroke="#000000" points="276.267,-556.6837 279.032,-566.9113 283.2485,-557.1917 276.267,-556.6837"/>
<text text-anchor="middle" x="389.2728" y="-100.8" font-family="Times,serif" font-size="14.00" fill="#000000">isA</text>
</g>
</g>
</svg>
