<?xml version="1.0" encoding="UTF-8" standalone="no"?>
<!DOCTYPE svg PUBLIC "-//W3C//DTD SVG 1.1//EN"
 "http://www.w3.org/Graphics/SVG/1.1/DTD/svg11.dtd">
<!-- Generated by graphviz version 2.40.1 (20161225.0304)
 -->
<!-- Title: %3 Pages: 1 -->
<svg width="447pt" height="218pt"
 viewBox="0.00 0.00 447.24 218.00" xmlns="http://www.w3.org/2000/svg" xmlns:xlink="http://www.w3.org/1999/xlink">
<g id="graph0" class="graph" transform="scale(1 1) rotate(0) translate(4 214)">
<title>%3</title>
<polygon fill="#ffffff" stroke="transparent" points="-4,4 -4,-214 443.2439,-214 443.2439,4 -4,4"/>
<!-- ElementaryParticle -->
<g id="node1" class="node">
<title>ElementaryParticle</title>
<g id="a_node1"><a xlink:href="http://emmo.info/emmo/middle/physicalistic#EMMO_c26a0340_d619_4928_b1a1_1a04e88bb89d" xlink:title="ElementaryParticle">
<ellipse fill="#ffffcc" stroke="#000000" stroke-width="2" cx="173.4971" cy="-192" rx="78.7863" ry="18"/>
<text text-anchor="middle" x="173.4971" y="-188.3" font-family="Times,serif" font-size="14.00" fill="#000000">ElementaryParticle</text>
</a>
</g>
</g>
<!-- Graviton -->
<g id="node2" class="node">
<title>Graviton</title>
<g id="a_node2"><a xlink:href="http://emmo.info/emmo/middle/physicalistic#EMMO_eb3c61f0_3983_4346_a0c6_e7f6b90a67a8" xlink:title="Graviton">
<ellipse fill="#ffffcc" stroke="#000000" cx="224.4971" cy="-18" rx="42.4939" ry="18"/>
<text text-anchor="middle" x="224.4971" y="-14.3" font-family="Times,serif" font-size="14.00" fill="#000000">Graviton</text>
</a>
</g>
</g>
<!-- Massless -->
<g id="node8" class="node">
<title>Massless</title>
<g id="a_node8"><a xlink:href="http://emmo.info/emmo/middle/physicalistic#EMMO_e5488299_8dab_4ebb_900a_26d2abed8396" xlink:title="Massless">
<ellipse fill="#ffc880" stroke="#000000" cx="270.4971" cy="-105" rx="42.7926" ry="18"/>
<text text-anchor="middle" x="270.4971" y="-101.3" font-family="Times,serif" font-size="14.00" fill="#000000">Massless</text>
</a>
</g>
</g>
<!-- Graviton&#45;&gt;Massless -->
<g id="edge6" class="edge">
<title>Graviton&#45;&gt;Massless</title>
<path fill="none" stroke="#000000" d="M233.8059,-35.6057C240.2903,-47.8697 249.0574,-64.4511 256.3957,-78.33"/>
<polygon fill="none" stroke="#000000" points="253.4338,-80.2161 261.2022,-87.4204 259.622,-76.9441 253.4338,-80.2161"/>
<text text-anchor="middle" x="259.9971" y="-57.8" font-family="Times,serif" font-size="14.00" fill="#000000">isA</text>
</g>
<!-- Quark -->
<g id="node3" class="node">
<title>Quark</title>
<g id="a_node3"><a xlink:href="http://emmo.info/emmo/middle/physicalistic#EMMO_72d53756_7fb1_46ed_980f_83f47efbe105" xlink:title="Quark">
<ellipse fill="#ffffcc" stroke="#000000" cx="32.4971" cy="-18" rx="32.4942" ry="18"/>
<text text-anchor="middle" x="32.4971" y="-14.3" font-family="Times,serif" font-size="14.00" fill="#000000">Quark</text>
</a>
</g>
</g>
<!-- Massive -->
<g id="node5" class="node">
<title>Massive</title>
<g id="a_node5"><a xlink:href="http://emmo.info/emmo/middle/physicalistic#EMMO_385b8f6e_43ac_4596_ad76_ac322c68b7ca" xlink:title="Massive">
<ellipse fill="#ffc880" stroke="#000000" cx="123.4971" cy="-105" rx="40.0939" ry="18"/>
<text text-anchor="middle" x="123.4971" y="-101.3" font-family="Times,serif" font-size="14.00" fill="#000000">Massive</text>
</a>
</g>
</g>
<!-- Quark&#45;&gt;Massive -->
<g id="edge3" class="edge">
<title>Quark&#45;&gt;Massive</title>
<path fill="none" stroke="#000000" d="M49.1879,-33.9571C63.1219,-47.2786 83.1795,-66.4545 98.9449,-81.527"/>
<polygon fill="none" stroke="#000000" points="96.647,-84.1723 106.2938,-88.5529 101.4843,-79.1126 96.647,-84.1723"/>
<text text-anchor="middle" x="92.9971" y="-57.8" font-family="Times,serif" font-size="14.00" fill="#000000">isA</text>
</g>
<!-- Electron -->
<g id="node4" class="node">
<title>Electron</title>
<g id="a_node4"><a xlink:href="http://emmo.info/emmo/middle/physicalistic#EMMO_8043d3c6_a4c1_4089_ba34_9744e28e5b3d" xlink:title="Electron">
<ellipse fill="#ffffcc" stroke="#000000" cx="123.4971" cy="-18" rx="40.0939" ry="18"/>
<text text-anchor="middle" x="123.4971" y="-14.3" font-family="Times,serif" font-size="14.00" fill="#000000">Electron</text>
</a>
</g>
</g>
<!-- Electron&#45;&gt;Massive -->
<g id="edge7" class="edge">
<title>Electron&#45;&gt;Massive</title>
<path fill="none" stroke="#000000" d="M123.4971,-36.0265C123.4971,-47.8082 123.4971,-63.4393 123.4971,-76.8419"/>
<polygon fill="none" stroke="#000000" points="119.9972,-76.9966 123.4971,-86.9966 126.9972,-76.9967 119.9972,-76.9966"/>
<text text-anchor="middle" x="132.9971" y="-57.8" font-family="Times,serif" font-size="14.00" fill="#000000">isA</text>
</g>
<!-- Massive&#45;&gt;ElementaryParticle -->
<g id="edge5" class="edge">
<title>Massive&#45;&gt;ElementaryParticle</title>
<path fill="none" stroke="#000000" d="M133.6154,-122.6057C140.6172,-134.789 150.0678,-151.2331 158.0119,-165.0557"/>
<polygon fill="none" stroke="#000000" points="155.2049,-167.1957 163.2223,-174.1218 161.274,-163.7077 155.2049,-167.1957"/>
<text text-anchor="middle" x="160.9971" y="-144.8" font-family="Times,serif" font-size="14.00" fill="#000000">isA</text>
</g>
<!-- Gluon -->
<g id="node6" class="node">
<title>Gluon</title>
<g id="a_node6"><a xlink:href="http://emmo.info/emmo/middle/physicalistic#EMMO_7db59e56_f68b_48b7_ae99_891c35ae5c3b" xlink:title="Gluon">
<ellipse fill="#ffffcc" stroke="#000000" cx="317.4971" cy="-18" rx="32.4942" ry="18"/>
<text text-anchor="middle" x="317.4971" y="-14.3" font-family="Times,serif" font-size="14.00" fill="#000000">Gluon</text>
</a>
</g>
</g>
<!-- Gluon&#45;&gt;Massless -->
<g id="edge4" class="edge">
<title>Gluon&#45;&gt;Massless</title>
<path fill="none" stroke="#000000" d="M307.986,-35.6057C301.3606,-47.8697 292.4029,-64.4511 284.9051,-78.33"/>
<polygon fill="none" stroke="#000000" points="281.6679,-76.9586 279.9941,-87.4204 287.8266,-80.2858 281.6679,-76.9586"/>
<text text-anchor="middle" x="306.9971" y="-57.8" font-family="Times,serif" font-size="14.00" fill="#000000">isA</text>
</g>
<!-- Photon -->
<g id="node7" class="node">
<title>Photon</title>
<g id="a_node7"><a xlink:href="http://emmo.info/emmo/middle/physicalistic#EMMO_25f8b804_9a0b_4387_a3e7_b35bce5365ee" xlink:title="Photon">
<ellipse fill="#ffffcc" stroke="#000000" cx="403.4971" cy="-18" rx="35.9954" ry="18"/>
<text text-anchor="middle" x="403.4971" y="-14.3" font-family="Times,serif" font-size="14.00" fill="#000000">Photon</text>
</a>
</g>
</g>
<!-- Photon&#45;&gt;Massless -->
<g id="edge2" class="edge">
<title>Photon&#45;&gt;Massless</title>
<path fill="none" stroke="#000000" d="M381.5349,-32.3663C359.9817,-46.465 326.8765,-68.1203 302.4177,-84.1196"/>
<polygon fill="none" stroke="#000000" points="300.2878,-81.3305 293.8352,-89.7337 304.1198,-87.1885 300.2878,-81.3305"/>
<text text-anchor="middle" x="353.9971" y="-57.8" font-family="Times,serif" font-size="14.00" fill="#000000">isA</text>
</g>
<!-- Massless&#45;&gt;ElementaryParticle -->
<g id="edge1" class="edge">
<title>Massless&#45;&gt;ElementaryParticle</title>
<path fill="none" stroke="#000000" d="M252.2522,-121.364C237.7261,-134.3925 217.1713,-152.8283 200.7033,-167.5986"/>
<polygon fill="none" stroke="#000000" points="198.0991,-165.2327 192.9916,-174.5152 202.773,-170.4438 198.0991,-165.2327"/>
<text text-anchor="middle" x="237.9971" y="-144.8" font-family="Times,serif" font-size="14.00" fill="#000000">isA</text>
</g>
</g>
</svg>
