<?xml version="1.0" encoding="UTF-8" standalone="no"?>
<!DOCTYPE svg PUBLIC "-//W3C//DTD SVG 1.1//EN"
 "http://www.w3.org/Graphics/SVG/1.1/DTD/svg11.dtd">
<!-- Generated by graphviz version 2.40.1 (20161225.0304)
 -->
<!-- Title: %3 Pages: 1 -->
<svg width="278pt" height="131pt"
 viewBox="0.00 0.00 277.64 131.00" xmlns="http://www.w3.org/2000/svg" xmlns:xlink="http://www.w3.org/1999/xlink">
<g id="graph0" class="graph" transform="scale(1 1) rotate(0) translate(4 127)">
<title>%3</title>
<polygon fill="#ffffff" stroke="transparent" points="-4,4 -4,-127 273.6384,-127 273.6384,4 -4,4"/>
<!-- Elementary -->
<g id="node1" class="node">
<title>Elementary</title>
<g id="a_node1"><a xlink:href="http://emmo.info/emmo/top/physical#EMMO_0f795e3e_c602_4577_9a43_d5a231aa1360" xlink:title="Elementary">
<ellipse fill="#ffffcc" stroke="#000000" stroke-width="2" cx="78.643" cy="-105" rx="51.9908" ry="18"/>
<text text-anchor="middle" x="78.643" y="-101.3" font-family="Times,serif" font-size="14.00" fill="#000000">Elementary</text>
</a>
</g>
</g>
<!-- Elementary&#45;&gt;Elementary -->
<g id="edge2" class="edge">
<title>Elementary&#45;&gt;Elementary</title>
<path fill="none" stroke="#ff00ff" d="M125.7503,-97.1731C138.7241,-97.5512 148.6384,-100.1602 148.6384,-105 148.6384,-108.4786 143.5167,-110.8048 135.8184,-111.9785"/>
<polygon fill="#ff00ff" stroke="#ff00ff" points="135.4211,-108.4995 125.7503,-112.8269 136.0089,-115.4748 135.4211,-108.4995"/>
<text text-anchor="middle" x="209.1384" y="-101.3" font-family="Times,serif" font-size="14.00" fill="#000000">hasTemporalPart only</text>
</g>
<!-- ElementaryParticle -->
<g id="node2" class="node">
<title>ElementaryParticle</title>
<g id="a_node2"><a xlink:href="http://emmo.info/emmo/middle/physicalistic#EMMO_c26a0340_d619_4928_b1a1_1a04e88bb89d" xlink:title="ElementaryParticle">
<ellipse fill="#ffffcc" stroke="#000000" stroke-width="2" cx="78.643" cy="-18" rx="78.7863" ry="18"/>
<text text-anchor="middle" x="78.643" y="-14.3" font-family="Times,serif" font-size="14.00" fill="#000000">ElementaryParticle</text>
</a>
</g>
</g>
<!-- ElementaryParticle&#45;&gt;Elementary -->
<g id="edge1" class="edge">
<title>ElementaryParticle&#45;&gt;Elementary</title>
<path fill="none" stroke="#000000" d="M78.643,-36.0265C78.643,-47.8082 78.643,-63.4393 78.643,-76.8419"/>
<polygon fill="none" stroke="#000000" points="75.1431,-76.9966 78.643,-86.9966 82.1431,-76.9967 75.1431,-76.9966"/>
<text text-anchor="middle" x="88.143" y="-57.8" font-family="Times,serif" font-size="14.00" fill="#000000">isA</text>
</g>
</g>
</svg>
