<?xml version="1.0" encoding="UTF-8" standalone="no"?>
<!DOCTYPE svg PUBLIC "-//W3C//DTD SVG 1.1//EN"
 "http://www.w3.org/Graphics/SVG/1.1/DTD/svg11.dtd">
<!-- Generated by graphviz version 2.40.1 (20161225.0304)
 -->
<!-- Title: %3 Pages: 1 -->
<svg width="212pt" height="131pt"
 viewBox="0.00 0.00 211.50 131.00" xmlns="http://www.w3.org/2000/svg" xmlns:xlink="http://www.w3.org/1999/xlink">
<g id="graph0" class="graph" transform="scale(1 1) rotate(0) translate(4 127)">
<title>%3</title>
<polygon fill="#ffffff" stroke="transparent" points="-4,4 -4,-127 207.5,-127 207.5,4 -4,4"/>
<!-- mereotopological -->
<g id="node1" class="node">
<title>mereotopological</title>
<g id="a_node1"><a xlink:href="http://emmo.info/emmo/top/mereotopology#EMMO_03212fd7_abfd_4828_9c8e_62c293052d4b" xlink:title="mereotopological">
<polygon fill="#0079ba" stroke="#000000" stroke-width="2" points="112,-36 0,-36 0,0 112,0 112,-36"/>
<text text-anchor="middle" x="56" y="-14.3" font-family="Times,serif" font-size="14.00" fill="#ffffff">mereotopological</text>
</a>
</g>
</g>
<!-- EMMORelation -->
<g id="node2" class="node">
<title>EMMORelation</title>
<g id="a_node2"><a xlink:href="http://emmo.info/emmo/top/mereotopology#EMMO_ec2472ae_cf4a_46a5_8555_1556f5a6c3c5" xlink:title="EMMORelation">
<polygon fill="#0079ba" stroke="#000000" stroke-width="2" points="164,-123 58,-123 58,-87 164,-87 164,-123"/>
<text text-anchor="middle" x="111" y="-101.3" font-family="Times,serif" font-size="14.00" fill="#ffffff">EMMORelation</text>
</a>
</g>
</g>
<!-- mereotopological&#45;&gt;EMMORelation -->
<g id="edge2" class="edge">
<title>mereotopological&#45;&gt;EMMORelation</title>
<path fill="none" stroke="#000000" d="M67.396,-36.0265C75.1393,-48.2748 85.5126,-64.6835 94.1987,-78.4234"/>
<polygon fill="none" stroke="#000000" points="91.3165,-80.4143 99.6186,-86.9966 97.2333,-76.6738 91.3165,-80.4143"/>
<text text-anchor="middle" x="96.5" y="-57.8" font-family="Times,serif" font-size="14.00" fill="#000000">isA</text>
</g>
<!-- semiotical -->
<g id="node3" class="node">
<title>semiotical</title>
<g id="a_node3"><a xlink:href="http://emmo.info/emmo/top/semiotics#EMMO_2337e25c_3c60_43fc_a8f9_b11a3f974291" xlink:title="semiotical">
<polygon fill="#0079ba" stroke="#000000" stroke-width="2" points="203.5,-36 130.5,-36 130.5,0 203.5,0 203.5,-36"/>
<text text-anchor="middle" x="167" y="-14.3" font-family="Times,serif" font-size="14.00" fill="#ffffff">semiotical</text>
</a>
</g>
</g>
<!-- semiotical&#45;&gt;EMMORelation -->
<g id="edge1" class="edge">
<title>semiotical&#45;&gt;EMMORelation</title>
<path fill="none" stroke="#000000" d="M155.3968,-36.0265C147.5128,-48.2748 136.9509,-64.6835 128.1067,-78.4234"/>
<polygon fill="none" stroke="#000000" points="125.0578,-76.6936 122.5884,-86.9966 130.9439,-80.4824 125.0578,-76.6936"/>
<text text-anchor="middle" x="151.5" y="-57.8" font-family="Times,serif" font-size="14.00" fill="#000000">isA</text>
</g>
</g>
</svg>
