<?xml version="1.0" encoding="UTF-8" standalone="no"?>
<!DOCTYPE svg PUBLIC "-//W3C//DTD SVG 1.1//EN"
 "http://www.w3.org/Graphics/SVG/1.1/DTD/svg11.dtd">
<!-- Generated by graphviz version 2.40.1 (20161225.0304)
 -->
<!-- Title: %3 Pages: 1 -->
<svg width="587pt" height="305pt"
 viewBox="0.00 0.00 587.04 305.00" xmlns="http://www.w3.org/2000/svg" xmlns:xlink="http://www.w3.org/1999/xlink">
<g id="graph0" class="graph" transform="scale(1 1) rotate(0) translate(4 301)">
<title>%3</title>
<polygon fill="#ffffff" stroke="transparent" points="-4,4 -4,-301 583.0433,-301 583.0433,4 -4,4"/>
<!-- Item -->
<g id="node1" class="node">
<title>Item</title>
<g id="a_node1"><a xlink:href="http://emmo.info/emmo/top/mereotopology#EMMO_eb3a768e_d53e_4be9_a23b_0714833c36de" xlink:title="Item">
<ellipse fill="#ffffcc" stroke="#000000" cx="238.4458" cy="-192" rx="27.0966" ry="18"/>
<text text-anchor="middle" x="238.4458" y="-188.3" font-family="Times,serif" font-size="14.00" fill="#000000">Item</text>
</a>
</g>
</g>
<!-- EMMO -->
<g id="node8" class="node">
<title>EMMO</title>
<g id="a_node8"><a xlink:href="http://emmo.info/emmo/top/mereotopology#EMMO_802d3e92_8770_4f98_a289_ccaaab7fdddf" xlink:title="EMMO">
<ellipse fill="#ffc880" stroke="#000000" stroke-width="2" cx="142.4458" cy="-279" rx="38.9931" ry="18"/>
<text text-anchor="middle" x="142.4458" y="-275.3" font-family="Times,serif" font-size="14.00" fill="#000000">EMMO</text>
</a>
</g>
</g>
<!-- Item&#45;&gt;EMMO -->
<g id="edge8" class="edge">
<title>Item&#45;&gt;EMMO</title>
<path fill="none" stroke="#000000" d="M222.1607,-206.7584C207.316,-220.2114 185.146,-240.3029 167.9519,-255.885"/>
<polygon fill="none" stroke="#000000" points="165.5059,-253.3783 160.4463,-262.687 170.2065,-258.5653 165.5059,-253.3783"/>
<text text-anchor="middle" x="205.9458" y="-231.8" font-family="Times,serif" font-size="14.00" fill="#000000">isA</text>
</g>
<!-- Collection -->
<g id="node2" class="node">
<title>Collection</title>
<g id="a_node2"><a xlink:href="http://emmo.info/emmo/top/mereotopology#EMMO_2d2ecd97_067f_4d0e_950c_d746b7700a31" xlink:title="Collection">
<ellipse fill="#ffffcc" stroke="#000000" cx="47.4458" cy="-192" rx="47.3916" ry="18"/>
<text text-anchor="middle" x="47.4458" y="-188.3" font-family="Times,serif" font-size="14.00" fill="#000000">Collection</text>
</a>
</g>
</g>
<!-- Collection&#45;&gt;Item -->
<g id="edge5" class="edge">
<title>Collection&#45;&gt;Item</title>
<path fill="none" stroke="#0000ff" stroke-dasharray="5,2" d="M95.1505,-192C127.8666,-192 170.6657,-192 200.9445,-192"/>
<polygon fill="#0000ff" stroke="#0000ff" points="201.0953,-195.5001 211.0952,-192 201.0952,-188.5001 201.0953,-195.5001"/>
<text text-anchor="middle" x="153.0199" y="-177.8" font-family="Times,serif" font-size="14.00" fill="#000000">hasMember some</text>
</g>
<!-- Collection&#45;&gt;EMMO -->
<g id="edge4" class="edge">
<title>Collection&#45;&gt;EMMO</title>
<path fill="none" stroke="#000000" d="M65.7627,-208.7745C80.4048,-222.1835 101.0871,-241.1242 117.2831,-255.9563"/>
<polygon fill="none" stroke="#000000" points="115.0888,-258.6927 124.8274,-262.8653 119.8164,-253.5303 115.0888,-258.6927"/>
<text text-anchor="middle" x="110.9458" y="-231.8" font-family="Times,serif" font-size="14.00" fill="#000000">isA</text>
</g>
<!-- Physical -->
<g id="node3" class="node">
<title>Physical</title>
<g id="a_node3"><a xlink:href="http://emmo.info/emmo/top/physical#EMMO_c5ddfdba_c074_4aa4_ad6b_1ac4942d300d" xlink:title="Physical">
<ellipse fill="#ffffcc" stroke="#000000" cx="238.4458" cy="-105" rx="40.0939" ry="18"/>
<text text-anchor="middle" x="238.4458" y="-101.3" font-family="Times,serif" font-size="14.00" fill="#000000">Physical</text>
</a>
</g>
</g>
<!-- Physical&#45;&gt;Item -->
<g id="edge9" class="edge">
<title>Physical&#45;&gt;Item</title>
<path fill="none" stroke="#000000" d="M238.4458,-123.0265C238.4458,-134.8082 238.4458,-150.4393 238.4458,-163.8419"/>
<polygon fill="none" stroke="#000000" points="234.9459,-163.9966 238.4458,-173.9966 241.9459,-163.9967 234.9459,-163.9966"/>
<text text-anchor="middle" x="247.9458" y="-144.8" font-family="Times,serif" font-size="14.00" fill="#000000">isA</text>
</g>
<!-- Physical&#45;&gt;Physical -->
<g id="edge11" class="edge">
<title>Physical&#45;&gt;Physical</title>
<path fill="none" stroke="#ff00ff" d="M274.8811,-97.125C287.0261,-97.125 296.7422,-99.75 296.7422,-105 296.7422,-108.6914 291.9387,-111.0851 284.8649,-112.1809"/>
<polygon fill="#ff00ff" stroke="#ff00ff" points="284.6142,-108.6898 274.8811,-112.875 285.0997,-115.673 284.6142,-108.6898"/>
<text text-anchor="middle" x="357.2422" y="-101.3" font-family="Times,serif" font-size="14.00" fill="#000000">hasTemporalPart only</text>
</g>
<!-- Elementary -->
<g id="node5" class="node">
<title>Elementary</title>
<g id="a_node5"><a xlink:href="http://emmo.info/emmo/top/physical#EMMO_0f795e3e_c602_4577_9a43_d5a231aa1360" xlink:title="Elementary">
<ellipse fill="#ffffcc" stroke="#000000" stroke-width="2" cx="67.4458" cy="-18" rx="51.9908" ry="18"/>
<text text-anchor="middle" x="67.4458" y="-14.3" font-family="Times,serif" font-size="14.00" fill="#000000">Elementary</text>
</a>
</g>
</g>
<!-- Physical&#45;&gt;Elementary -->
<g id="edge10" class="edge">
<title>Physical&#45;&gt;Elementary</title>
<path fill="none" stroke="#0000ff" d="M222.7785,-88.3158C211.6073,-77.2572 195.7352,-63.1523 179.4458,-54 161.4776,-43.9045 140.2724,-36.1743 121.1741,-30.5132"/>
<polygon fill="#0000ff" stroke="#0000ff" points="121.983,-27.1046 111.4073,-27.74 120.0709,-33.8384 121.983,-27.1046"/>
<text text-anchor="middle" x="237.9458" y="-57.8" font-family="Times,serif" font-size="14.00" fill="#000000">hasPart some</text>
</g>
<!-- Void -->
<g id="node4" class="node">
<title>Void</title>
<g id="a_node4"><a xlink:href="http://emmo.info/emmo/top/physical#EMMO_29072ec4_ffcb_42fb_bdc7_26f05a2e9873" xlink:title="Void">
<ellipse fill="#ffffcc" stroke="#000000" cx="464.4458" cy="-105" rx="28.6953" ry="18"/>
<text text-anchor="middle" x="464.4458" y="-101.3" font-family="Times,serif" font-size="14.00" fill="#000000">Void</text>
</a>
</g>
</g>
<!-- Void&#45;&gt;Item -->
<g id="edge12" class="edge">
<title>Void&#45;&gt;Item</title>
<path fill="none" stroke="#000000" d="M441.7173,-116.2573C436.7305,-118.5889 431.4459,-120.9554 426.4458,-123 362.4367,-149.1736 343.8237,-148.7471 279.4458,-174 276.5714,-175.1275 273.6019,-176.3385 270.6362,-177.5798"/>
<polygon fill="none" stroke="#000000" points="269.1085,-174.4266 261.2963,-181.5835 271.8665,-180.8604 269.1085,-174.4266"/>
<text text-anchor="middle" x="384.9458" y="-144.8" font-family="Times,serif" font-size="14.00" fill="#000000">isA</text>
</g>
<!-- Void&#45;&gt;Void -->
<g id="edge13" class="edge">
<title>Void&#45;&gt;Void</title>
<path fill="none" stroke="#0000ff" d="M490.3218,-97.2192C501.4852,-96.5822 511.0433,-99.1758 511.0433,-105 511.0433,-108.9131 506.7286,-111.3679 500.5113,-112.3644"/>
<polygon fill="#0000ff" stroke="#0000ff" points="500.1705,-108.8753 490.3218,-112.7808 500.4564,-115.8695 500.1705,-108.8753"/>
<text text-anchor="middle" x="545.0433" y="-101.3" font-family="Times,serif" font-size="14.00" fill="#000000">hasPart only</text>
</g>
<!-- Elementary&#45;&gt;Physical -->
<g id="edge6" class="edge">
<title>Elementary&#45;&gt;Physical</title>
<path fill="none" stroke="#000000" d="M94.4472,-33.4524C112.869,-43.8348 137.9196,-57.6422 160.4458,-69 173.2866,-75.4744 187.5199,-82.1788 200.275,-88.0214"/>
<polygon fill="none" stroke="#000000" points="199.1413,-91.3507 209.6933,-92.3032 202.0384,-84.9783 199.1413,-91.3507"/>
<text text-anchor="middle" x="169.9458" y="-57.8" font-family="Times,serif" font-size="14.00" fill="#000000">isA</text>
</g>
<!-- Elementary&#45;&gt;Elementary -->
<g id="edge7" class="edge">
<title>Elementary&#45;&gt;Elementary</title>
<path fill="none" stroke="#ff00ff" d="M114.5531,-10.1731C127.5269,-10.5512 137.4412,-13.1602 137.4412,-18 137.4412,-21.4786 132.3194,-23.8048 124.6212,-24.9785"/>
<polygon fill="#ff00ff" stroke="#ff00ff" points="124.2238,-21.4995 114.5531,-25.8269 124.8117,-28.4748 124.2238,-21.4995"/>
<text text-anchor="middle" x="197.9412" y="-14.3" font-family="Times,serif" font-size="14.00" fill="#000000">hasTemporalPart only</text>
</g>
<!-- Perspective -->
<g id="node6" class="node">
<title>Perspective</title>
<g id="a_node6"><a xlink:href="http://emmo.info/emmo/top#EMMO_49267eba_5548_4163_8f36_518d65b583f9" xlink:title="Perspective">
<ellipse fill="#ffffcc" stroke="#000000" stroke-width="2" cx="327.4458" cy="-18" rx="51.1914" ry="18"/>
<text text-anchor="middle" x="327.4458" y="-14.3" font-family="Times,serif" font-size="14.00" fill="#000000">Perspective</text>
</a>
</g>
</g>
<!-- Perspective&#45;&gt;Physical -->
<g id="edge2" class="edge">
<title>Perspective&#45;&gt;Physical</title>
<path fill="none" stroke="#000000" d="M311.4155,-35.3019C301.9887,-45.3192 289.7387,-58.0692 278.4458,-69 274.0592,-73.2459 269.3059,-77.6698 264.6588,-81.9041"/>
<polygon fill="none" stroke="#000000" points="262.1074,-79.4918 257.022,-88.7864 266.7937,-84.6918 262.1074,-79.4918"/>
<text text-anchor="middle" x="301.9458" y="-57.8" font-family="Times,serif" font-size="14.00" fill="#000000">isA</text>
</g>
<!-- Quantum -->
<g id="node7" class="node">
<title>Quantum</title>
<g id="a_node7"><a xlink:href="http://emmo.info/emmo/top/mereotopology#EMMO_3f9ae00e_810c_4518_aec2_7200e424cf68" xlink:title="Quantum">
<ellipse fill="#ffffcc" stroke="#000000" cx="136.4458" cy="-105" rx="44.393" ry="18"/>
<text text-anchor="middle" x="136.4458" y="-101.3" font-family="Times,serif" font-size="14.00" fill="#000000">Quantum</text>
</a>
</g>
</g>
<!-- Quantum&#45;&gt;Item -->
<g id="edge1" class="edge">
<title>Quantum&#45;&gt;Item</title>
<path fill="none" stroke="#000000" d="M142.6031,-122.8542C147.0319,-133.562 153.9125,-146.8349 163.4458,-156 174.7566,-166.8739 189.9732,-175.0017 203.7442,-180.756"/>
<polygon fill="none" stroke="#000000" points="202.851,-184.1642 213.4395,-184.5318 205.3913,-177.6414 202.851,-184.1642"/>
<text text-anchor="middle" x="172.9458" y="-144.8" font-family="Times,serif" font-size="14.00" fill="#000000">isA</text>
</g>
<!-- EMMO&#45;&gt;Quantum -->
<g id="edge3" class="edge">
<title>EMMO&#45;&gt;Quantum</title>
<path fill="none" stroke="#0000ff" d="M175.6226,-269.2328C223.5876,-253.3192 303.5422,-219 274.4458,-174 263.8606,-157.6292 251.9884,-164.5032 234.4458,-156 213.6275,-145.909 190.6707,-134.0049 172.2124,-124.2366"/>
<polygon fill="#0000ff" stroke="#0000ff" points="173.7472,-121.0888 163.2741,-119.4875 170.4627,-127.2704 173.7472,-121.0888"/>
<text text-anchor="middle" x="317.9458" y="-188.3" font-family="Times,serif" font-size="14.00" fill="#000000">hasPart some</text>
</g>
</g>
</svg>
