<?xml version="1.0" encoding="UTF-8" standalone="no"?>
<!DOCTYPE svg PUBLIC "-//W3C//DTD SVG 1.1//EN"
 "http://www.w3.org/Graphics/SVG/1.1/DTD/svg11.dtd">
<!-- Generated by graphviz version 2.40.1 (20161225.0304)
 -->
<!-- Title: %3 Pages: 1 -->
<svg width="804pt" height="740pt"
 viewBox="0.00 0.00 804.00 740.00" xmlns="http://www.w3.org/2000/svg" xmlns:xlink="http://www.w3.org/1999/xlink">
<g id="graph0" class="graph" transform="scale(1 1) rotate(0) translate(4 736)">
<title>%3</title>
<polygon fill="#ffffff" stroke="transparent" points="-4,4 -4,-736 800,-736 800,4 -4,4"/>
<!-- hasContactWith -->
<g id="node1" class="node">
<title>hasContactWith</title>
<g id="a_node1"><a xlink:href="http://emmo.info/emmo/top/mereotopology#EMMO_4d6504f1_c470_4ce9_b941_bbbebc9ab05d" xlink:title="hasContactWith">
<polygon fill="#0079ba" stroke="#000000" points="181.5,-471 77.5,-471 77.5,-435 181.5,-435 181.5,-471"/>
<text text-anchor="middle" x="129.5" y="-449.3" font-family="Times,serif" font-size="14.00" fill="#ffffff">hasContactWith</text>
</a>
</g>
</g>
<!-- connected -->
<g id="node20" class="node">
<title>connected</title>
<g id="a_node20"><a xlink:href="http://emmo.info/emmo/top/mereotopology#EMMO_6703954e_34c4_4a15_a9e7_f313760ae1a8" xlink:title="connected">
<polygon fill="#0079ba" stroke="#000000" points="317,-558 246,-558 246,-522 317,-522 317,-558"/>
<text text-anchor="middle" x="281.5" y="-536.3" font-family="Times,serif" font-size="14.00" fill="#ffffff">connected</text>
</a>
</g>
</g>
<!-- hasContactWith&#45;&gt;connected -->
<g id="edge26" class="edge">
<title>hasContactWith&#45;&gt;connected</title>
<path fill="none" stroke="#000000" d="M160.9945,-471.0265C184.2282,-484.3247 216.0299,-502.527 241.1299,-516.8935"/>
<polygon fill="none" stroke="#000000" points="239.6283,-520.0667 250.0458,-521.9966 243.1056,-513.9914 239.6283,-520.0667"/>
<text text-anchor="middle" x="225" y="-492.8" font-family="Times,serif" font-size="14.00" fill="#000000">isA</text>
</g>
<!-- hasConvention -->
<g id="node2" class="node">
<title>hasConvention</title>
<g id="a_node2"><a xlink:href="http://emmo.info/emmo/top/semiotics#EMMO_eb3518bf_f799_4f9e_8c3e_ce59af11453b" xlink:title="hasConvention">
<polygon fill="#0079ba" stroke="#000000" points="518.5,-471 420.5,-471 420.5,-435 518.5,-435 518.5,-471"/>
<text text-anchor="middle" x="469.5" y="-449.3" font-family="Times,serif" font-size="14.00" fill="#ffffff">hasConvention</text>
</a>
</g>
</g>
<!-- hasSign -->
<g id="node6" class="node">
<title>hasSign</title>
<g id="a_node6"><a xlink:href="http://emmo.info/emmo/top/semiotics#EMMO_60577dea_9019_4537_ac41_80b0fb563d41" xlink:title="hasSign">
<polygon fill="#0079ba" stroke="#000000" points="596,-558 537,-558 537,-522 596,-522 596,-558"/>
<text text-anchor="middle" x="566.5" y="-536.3" font-family="Times,serif" font-size="14.00" fill="#ffffff">hasSign</text>
</a>
</g>
</g>
<!-- hasConvention&#45;&gt;hasSign -->
<g id="edge15" class="edge">
<title>hasConvention&#45;&gt;hasSign</title>
<path fill="none" stroke="#000000" d="M489.5985,-471.0265C503.7749,-483.7414 522.95,-500.9397 538.6061,-514.9817"/>
<polygon fill="none" stroke="#000000" points="536.6459,-517.9252 546.4273,-521.9966 541.3198,-512.7141 536.6459,-517.9252"/>
<text text-anchor="middle" x="534" y="-492.8" font-family="Times,serif" font-size="14.00" fill="#000000">isA</text>
</g>
<!-- hasPart -->
<g id="node3" class="node">
<title>hasPart</title>
<g id="a_node3"><a xlink:href="http://emmo.info/emmo/top/mereotopology#EMMO_17e27c22_37e1_468c_9dd7_95e137f73e7f" xlink:title="hasPart">
<polygon fill="#0079ba" stroke="#000000" points="270.5,-384 214.5,-384 214.5,-348 270.5,-348 270.5,-384"/>
<text text-anchor="middle" x="242.5" y="-362.3" font-family="Times,serif" font-size="14.00" fill="#ffffff">hasPart</text>
</a>
</g>
</g>
<!-- encloses -->
<g id="node17" class="node">
<title>encloses</title>
<g id="a_node17"><a xlink:href="http://emmo.info/emmo/top/mereotopology#EMMO_8c898653_1118_4682_9bbf_6cc334d16a99" xlink:title="encloses">
<polygon fill="#0079ba" stroke="#000000" points="261.5,-471 199.5,-471 199.5,-435 261.5,-435 261.5,-471"/>
<text text-anchor="middle" x="230.5" y="-449.3" font-family="Times,serif" font-size="14.00" fill="#ffffff">encloses</text>
</a>
</g>
</g>
<!-- hasPart&#45;&gt;encloses -->
<g id="edge20" class="edge">
<title>hasPart&#45;&gt;encloses</title>
<path fill="none" stroke="#000000" d="M240.0136,-384.0265C238.3885,-395.8082 236.2325,-411.4393 234.3839,-424.8419"/>
<polygon fill="none" stroke="#000000" points="230.8825,-424.6122 232.9832,-434.9966 237.8169,-425.5687 230.8825,-424.6122"/>
<text text-anchor="middle" x="247" y="-405.8" font-family="Times,serif" font-size="14.00" fill="#000000">isA</text>
</g>
<!-- hasOverlapWith -->
<g id="node29" class="node">
<title>hasOverlapWith</title>
<g id="a_node29"><a xlink:href="http://emmo.info/emmo/top/mereotopology#EMMO_d893d373_b579_4867_841e_1c2b31a8d2c6" xlink:title="hasOverlapWith">
<polygon fill="#0079ba" stroke="#000000" points="385.5,-471 279.5,-471 279.5,-435 385.5,-435 385.5,-471"/>
<text text-anchor="middle" x="332.5" y="-449.3" font-family="Times,serif" font-size="14.00" fill="#ffffff">hasOverlapWith</text>
</a>
</g>
</g>
<!-- hasPart&#45;&gt;hasOverlapWith -->
<g id="edge21" class="edge">
<title>hasPart&#45;&gt;hasOverlapWith</title>
<path fill="none" stroke="#000000" d="M261.1481,-384.0265C274.3015,-396.7414 292.0928,-413.9397 306.619,-427.9817"/>
<polygon fill="none" stroke="#000000" points="304.2533,-430.5629 313.8758,-434.9966 309.1185,-425.5299 304.2533,-430.5629"/>
<text text-anchor="middle" x="303" y="-405.8" font-family="Times,serif" font-size="14.00" fill="#000000">isA</text>
</g>
<!-- disconnected -->
<g id="node4" class="node">
<title>disconnected</title>
<g id="a_node4"><a xlink:href="http://emmo.info/emmo/top/mereotopology#EMMO_517dfaf9_4970_41ac_81ee_d031627d2c7c" xlink:title="disconnected">
<polygon fill="#0079ba" stroke="#000000" points="228,-558 141,-558 141,-522 228,-522 228,-558"/>
<text text-anchor="middle" x="184.5" y="-536.3" font-family="Times,serif" font-size="14.00" fill="#ffffff">disconnected</text>
</a>
</g>
</g>
<!-- mereotopological -->
<g id="node15" class="node">
<title>mereotopological</title>
<g id="a_node15"><a xlink:href="http://emmo.info/emmo/top/mereotopology#EMMO_03212fd7_abfd_4828_9c8e_62c293052d4b" xlink:title="mereotopological">
<polygon fill="#0079ba" stroke="#000000" points="337.5,-645 225.5,-645 225.5,-609 337.5,-609 337.5,-645"/>
<text text-anchor="middle" x="281.5" y="-623.3" font-family="Times,serif" font-size="14.00" fill="#ffffff">mereotopological</text>
</a>
</g>
</g>
<!-- disconnected&#45;&gt;mereotopological -->
<g id="edge19" class="edge">
<title>disconnected&#45;&gt;mereotopological</title>
<path fill="none" stroke="#000000" d="M204.5985,-558.0265C218.7749,-570.7414 237.95,-587.9397 253.6061,-601.9817"/>
<polygon fill="none" stroke="#000000" points="251.6459,-604.9252 261.4273,-608.9966 256.3198,-599.7141 251.6459,-604.9252"/>
<text text-anchor="middle" x="249" y="-579.8" font-family="Times,serif" font-size="14.00" fill="#000000">isA</text>
</g>
<!-- hasIcon -->
<g id="node5" class="node">
<title>hasIcon</title>
<g id="a_node5"><a xlink:href="http://emmo.info/emmo/top/semiotics#EMMO_39c3815d_8cae_4c8f_b2ff_eeba24bec455" xlink:title="hasIcon">
<polygon fill="#0079ba" stroke="#000000" points="596,-471 537,-471 537,-435 596,-435 596,-471"/>
<text text-anchor="middle" x="566.5" y="-449.3" font-family="Times,serif" font-size="14.00" fill="#ffffff">hasIcon</text>
</a>
</g>
</g>
<!-- hasIcon&#45;&gt;hasSign -->
<g id="edge12" class="edge">
<title>hasIcon&#45;&gt;hasSign</title>
<path fill="none" stroke="#000000" d="M566.5,-471.0265C566.5,-482.8082 566.5,-498.4393 566.5,-511.8419"/>
<polygon fill="none" stroke="#000000" points="563.0001,-511.9966 566.5,-521.9966 570.0001,-511.9967 563.0001,-511.9966"/>
<text text-anchor="middle" x="576" y="-492.8" font-family="Times,serif" font-size="14.00" fill="#000000">isA</text>
</g>
<!-- semiotical -->
<g id="node31" class="node">
<title>semiotical</title>
<g id="a_node31"><a xlink:href="http://emmo.info/emmo/top/semiotics#EMMO_2337e25c_3c60_43fc_a8f9_b11a3f974291" xlink:title="semiotical">
<polygon fill="#0079ba" stroke="#000000" points="482,-645 409,-645 409,-609 482,-609 482,-645"/>
<text text-anchor="middle" x="445.5" y="-623.3" font-family="Times,serif" font-size="14.00" fill="#ffffff">semiotical</text>
</a>
</g>
</g>
<!-- hasSign&#45;&gt;semiotical -->
<g id="edge1" class="edge">
<title>hasSign&#45;&gt;semiotical</title>
<path fill="none" stroke="#000000" d="M541.4287,-558.0265C523.258,-571.0914 498.5038,-588.8898 478.6932,-603.1338"/>
<polygon fill="none" stroke="#000000" points="476.6151,-600.3171 470.5392,-608.9966 480.7016,-606.0006 476.6151,-600.3171"/>
<text text-anchor="middle" x="523" y="-579.8" font-family="Times,serif" font-size="14.00" fill="#000000">isA</text>
</g>
<!-- hasProperParticipant -->
<g id="node7" class="node">
<title>hasProperParticipant</title>
<g id="a_node7"><a xlink:href="http://emmo.info/emmo/middle/holistic#EMMO_c5aae418_1622_4d02_93c5_21159e28e6c1" xlink:title="hasProperParticipant">
<polygon fill="#0079ba" stroke="#000000" points="129,-210 0,-210 0,-174 129,-174 129,-210"/>
<text text-anchor="middle" x="64.5" y="-188.3" font-family="Times,serif" font-size="14.00" fill="#ffffff">hasProperParticipant</text>
</a>
</g>
</g>
<!-- hasProperPart -->
<g id="node9" class="node">
<title>hasProperPart</title>
<g id="a_node9"><a xlink:href="http://emmo.info/emmo/top/mereotopology#EMMO_9380ab64_0363_4804_b13f_3a8a94119a76" xlink:title="hasProperPart">
<polygon fill="#0079ba" stroke="#000000" points="338.5,-297 246.5,-297 246.5,-261 338.5,-261 338.5,-297"/>
<text text-anchor="middle" x="292.5" y="-275.3" font-family="Times,serif" font-size="14.00" fill="#ffffff">hasProperPart</text>
</a>
</g>
</g>
<!-- hasProperParticipant&#45;&gt;hasProperPart -->
<g id="edge31" class="edge">
<title>hasProperParticipant&#45;&gt;hasProperPart</title>
<path fill="none" stroke="#000000" d="M111.7417,-210.0265C148.1758,-223.9289 198.6564,-243.1913 237.0128,-257.8273"/>
<polygon fill="none" stroke="#000000" points="235.8966,-261.1474 246.4873,-261.4425 238.3921,-254.6074 235.8966,-261.1474"/>
<text text-anchor="middle" x="202" y="-231.8" font-family="Times,serif" font-size="14.00" fill="#000000">isA</text>
</g>
<!-- hasParticipant -->
<g id="node18" class="node">
<title>hasParticipant</title>
<g id="a_node18"><a xlink:href="http://emmo.info/emmo/middle/holistic#EMMO_ae2d1a96_bfa1_409a_a7d2_03d69e8a125a" xlink:title="hasParticipant">
<polygon fill="#0079ba" stroke="#000000" points="188,-297 95,-297 95,-261 188,-261 188,-297"/>
<text text-anchor="middle" x="141.5" y="-275.3" font-family="Times,serif" font-size="14.00" fill="#ffffff">hasParticipant</text>
</a>
</g>
</g>
<!-- hasProperParticipant&#45;&gt;hasParticipant -->
<g id="edge30" class="edge">
<title>hasProperParticipant&#45;&gt;hasParticipant</title>
<path fill="none" stroke="#000000" d="M80.4544,-210.0265C91.5014,-222.5081 106.3722,-239.3101 118.6705,-253.2056"/>
<polygon fill="none" stroke="#000000" points="116.3174,-255.828 125.566,-260.9966 121.5593,-251.1886 116.3174,-255.828"/>
<text text-anchor="middle" x="118" y="-231.8" font-family="Times,serif" font-size="14.00" fill="#000000">isA</text>
</g>
<!-- hasSpatioTemporalPart -->
<g id="node8" class="node">
<title>hasSpatioTemporalPart</title>
<g id="a_node8"><a xlink:href="http://emmo.info/emmo/top/physical#EMMO_6e046dd0_9634_4013_b2b1_9cc468087c83" xlink:title="hasSpatioTemporalPart">
<polygon fill="#0079ba" stroke="#000000" points="291.5,-210 147.5,-210 147.5,-174 291.5,-174 291.5,-210"/>
<text text-anchor="middle" x="219.5" y="-188.3" font-family="Times,serif" font-size="14.00" fill="#ffffff">hasSpatioTemporalPart</text>
</a>
</g>
</g>
<!-- hasSpatioTemporalPart&#45;&gt;hasProperPart -->
<g id="edge27" class="edge">
<title>hasSpatioTemporalPart&#45;&gt;hasProperPart</title>
<path fill="none" stroke="#000000" d="M234.6256,-210.0265C245.0988,-222.5081 259.197,-239.3101 270.8565,-253.2056"/>
<polygon fill="none" stroke="#000000" points="268.2847,-255.5858 277.3937,-260.9966 273.6471,-251.0864 268.2847,-255.5858"/>
<text text-anchor="middle" x="270" y="-231.8" font-family="Times,serif" font-size="14.00" fill="#000000">isA</text>
</g>
<!-- hasProperPart&#45;&gt;hasPart -->
<g id="edge2" class="edge">
<title>hasProperPart&#45;&gt;hasPart</title>
<path fill="none" stroke="#000000" d="M282.14,-297.0265C275.1677,-309.1582 265.8498,-325.3713 257.9999,-339.0302"/>
<polygon fill="none" stroke="#000000" points="254.7951,-337.5825 252.8468,-347.9966 260.8642,-341.0705 254.7951,-337.5825"/>
<text text-anchor="middle" x="280" y="-318.8" font-family="Times,serif" font-size="14.00" fill="#000000">isA</text>
</g>
<!-- hasPhysicsDimension -->
<g id="node10" class="node">
<title>hasPhysicsDimension</title>
<g id="a_node10"><a xlink:href="http://emmo.info/emmo/middle/units#EMMO_bed1d005_b04e_4a90_94cf_02bc678a8569" xlink:title="hasPhysicsDimension">
<polygon fill="#0079ba" stroke="#000000" points="497.5,-297 361.5,-297 361.5,-261 497.5,-261 497.5,-297"/>
<text text-anchor="middle" x="429.5" y="-275.3" font-family="Times,serif" font-size="14.00" fill="#ffffff">hasPhysicsDimension</text>
</a>
</g>
</g>
<!-- hasProperty -->
<g id="node11" class="node">
<title>hasProperty</title>
<g id="a_node11"><a xlink:href="http://emmo.info/emmo/middle/properties#EMMO_e1097637_70d2_4895_973f_2396f04fa204" xlink:title="hasProperty">
<polygon fill="#0079ba" stroke="#000000" points="470,-384 389,-384 389,-348 470,-348 470,-384"/>
<text text-anchor="middle" x="429.5" y="-362.3" font-family="Times,serif" font-size="14.00" fill="#ffffff">hasProperty</text>
</a>
</g>
</g>
<!-- hasPhysicsDimension&#45;&gt;hasProperty -->
<g id="edge13" class="edge">
<title>hasPhysicsDimension&#45;&gt;hasProperty</title>
<path fill="none" stroke="#000000" d="M429.5,-297.0265C429.5,-308.8082 429.5,-324.4393 429.5,-337.8419"/>
<polygon fill="none" stroke="#000000" points="426.0001,-337.9966 429.5,-347.9966 433.0001,-337.9967 426.0001,-337.9966"/>
<text text-anchor="middle" x="439" y="-318.8" font-family="Times,serif" font-size="14.00" fill="#000000">isA</text>
</g>
<!-- hasProperty&#45;&gt;hasConvention -->
<g id="edge4" class="edge">
<title>hasProperty&#45;&gt;hasConvention</title>
<path fill="none" stroke="#000000" d="M437.788,-384.0265C443.3122,-396.0415 450.677,-412.0599 456.9186,-425.6354"/>
<polygon fill="none" stroke="#000000" points="453.8652,-427.373 461.2226,-434.9966 460.2252,-424.4488 453.8652,-427.373"/>
<text text-anchor="middle" x="462" y="-405.8" font-family="Times,serif" font-size="14.00" fill="#000000">isA</text>
</g>
<!-- hasModel -->
<g id="node12" class="node">
<title>hasModel</title>
<g id="a_node12"><a xlink:href="http://emmo.info/emmo/middle/models#EMMO_24c71baf_6db6_48b9_86c8_8c70cf36db0c" xlink:title="hasModel">
<polygon fill="#0079ba" stroke="#000000" points="658,-384 587,-384 587,-348 658,-348 658,-384"/>
<text text-anchor="middle" x="622.5" y="-362.3" font-family="Times,serif" font-size="14.00" fill="#ffffff">hasModel</text>
</a>
</g>
</g>
<!-- hasModel&#45;&gt;hasIcon -->
<g id="edge22" class="edge">
<title>hasModel&#45;&gt;hasIcon</title>
<path fill="none" stroke="#000000" d="M610.8968,-384.0265C603.0128,-396.2748 592.4509,-412.6835 583.6067,-426.4234"/>
<polygon fill="none" stroke="#000000" points="580.5578,-424.6936 578.0884,-434.9966 586.4439,-428.4824 580.5578,-424.6936"/>
<text text-anchor="middle" x="607" y="-405.8" font-family="Times,serif" font-size="14.00" fill="#000000">isA</text>
</g>
<!-- hasSpatialDirectPart -->
<g id="node13" class="node">
<title>hasSpatialDirectPart</title>
<g id="a_node13"><a xlink:href="http://emmo.info/emmo/middle/reductionistic#EMMO_b2282816_b7a3_44c6_b2cb_3feff1ceb7fe" xlink:title="hasSpatialDirectPart">
<polygon fill="#0079ba" stroke="#000000" points="446.5,-123 318.5,-123 318.5,-87 446.5,-87 446.5,-123"/>
<text text-anchor="middle" x="382.5" y="-101.3" font-family="Times,serif" font-size="14.00" fill="#ffffff">hasSpatialDirectPart</text>
</a>
</g>
</g>
<!-- hasSpatialPart -->
<g id="node19" class="node">
<title>hasSpatialPart</title>
<g id="a_node19"><a xlink:href="http://emmo.info/emmo/top/physical#EMMO_f68030be_94b8_4c61_a161_886468558054" xlink:title="hasSpatialPart">
<polygon fill="#0079ba" stroke="#000000" points="403.5,-210 309.5,-210 309.5,-174 403.5,-174 403.5,-210"/>
<text text-anchor="middle" x="356.5" y="-188.3" font-family="Times,serif" font-size="14.00" fill="#ffffff">hasSpatialPart</text>
</a>
</g>
</g>
<!-- hasSpatialDirectPart&#45;&gt;hasSpatialPart -->
<g id="edge10" class="edge">
<title>hasSpatialDirectPart&#45;&gt;hasSpatialPart</title>
<path fill="none" stroke="#000000" d="M377.1128,-123.0265C373.5569,-134.9249 368.8278,-150.7492 364.7963,-164.2394"/>
<polygon fill="none" stroke="#000000" points="361.3903,-163.4131 361.8803,-173.9966 368.0972,-165.4175 361.3903,-163.4131"/>
<text text-anchor="middle" x="381" y="-144.8" font-family="Times,serif" font-size="14.00" fill="#000000">isA</text>
</g>
<!-- hasInterpretant -->
<g id="node14" class="node">
<title>hasInterpretant</title>
<g id="a_node14"><a xlink:href="http://emmo.info/emmo/top/semiotics#EMMO_7fb7fe7e_bdf9_4eeb_adad_e384dd5285c6" xlink:title="hasInterpretant">
<polygon fill="#0079ba" stroke="#000000" points="712.5,-471 614.5,-471 614.5,-435 712.5,-435 712.5,-471"/>
<text text-anchor="middle" x="663.5" y="-449.3" font-family="Times,serif" font-size="14.00" fill="#ffffff">hasInterpretant</text>
</a>
</g>
</g>
<!-- hasInterpretant&#45;&gt;hasSign -->
<g id="edge14" class="edge">
<title>hasInterpretant&#45;&gt;hasSign</title>
<path fill="none" stroke="#000000" d="M643.4015,-471.0265C629.2251,-483.7414 610.05,-500.9397 594.3939,-514.9817"/>
<polygon fill="none" stroke="#000000" points="591.6802,-512.7141 586.5727,-521.9966 596.3541,-517.9252 591.6802,-512.7141"/>
<text text-anchor="middle" x="630" y="-492.8" font-family="Times,serif" font-size="14.00" fill="#000000">isA</text>
</g>
<!-- EMMORelation -->
<g id="node21" class="node">
<title>EMMORelation</title>
<g id="a_node21"><a xlink:href="http://emmo.info/emmo/top/mereotopology#EMMO_ec2472ae_cf4a_46a5_8555_1556f5a6c3c5" xlink:title="EMMORelation">
<polygon fill="#0079ba" stroke="#000000" stroke-width="2" points="389.5,-732 283.5,-732 283.5,-696 389.5,-696 389.5,-732"/>
<text text-anchor="middle" x="336.5" y="-710.3" font-family="Times,serif" font-size="14.00" fill="#ffffff">EMMORelation</text>
</a>
</g>
</g>
<!-- mereotopological&#45;&gt;EMMORelation -->
<g id="edge6" class="edge">
<title>mereotopological&#45;&gt;EMMORelation</title>
<path fill="none" stroke="#000000" d="M292.896,-645.0265C300.6393,-657.2748 311.0126,-673.6835 319.6987,-687.4234"/>
<polygon fill="none" stroke="#000000" points="316.8165,-689.4143 325.1186,-695.9966 322.7333,-685.6738 316.8165,-689.4143"/>
<text text-anchor="middle" x="322" y="-666.8" font-family="Times,serif" font-size="14.00" fill="#000000">isA</text>
</g>
<!-- hasQuantityValue -->
<g id="node16" class="node">
<title>hasQuantityValue</title>
<g id="a_node16"><a xlink:href="http://emmo.info/emmo/middle/units#EMMO_8ef3cd6d_ae58_4a8d_9fc0_ad8f49015cd0" xlink:title="hasQuantityValue">
<polygon fill="#0079ba" stroke="#000000" points="373.5,-36 259.5,-36 259.5,0 373.5,0 373.5,-36"/>
<text text-anchor="middle" x="316.5" y="-14.3" font-family="Times,serif" font-size="14.00" fill="#ffffff">hasQuantityValue</text>
</a>
</g>
</g>
<!-- hasQuantityValue&#45;&gt;hasSpatialDirectPart -->
<g id="edge3" class="edge">
<title>hasQuantityValue&#45;&gt;hasSpatialDirectPart</title>
<path fill="none" stroke="#000000" d="M330.1752,-36.0265C339.5556,-48.3915 352.1525,-64.9964 362.6357,-78.8153"/>
<polygon fill="none" stroke="#000000" points="360.0099,-81.1451 368.8423,-86.9966 365.5868,-76.9143 360.0099,-81.1451"/>
<text text-anchor="middle" x="363" y="-57.8" font-family="Times,serif" font-size="14.00" fill="#000000">isA</text>
</g>
<!-- encloses&#45;&gt;connected -->
<g id="edge11" class="edge">
<title>encloses&#45;&gt;connected</title>
<path fill="none" stroke="#000000" d="M241.0672,-471.0265C248.1789,-483.1582 257.6832,-499.3713 265.6901,-513.0302"/>
<polygon fill="none" stroke="#000000" points="262.8696,-515.1397 270.9463,-521.9966 268.9085,-511.5996 262.8696,-515.1397"/>
<text text-anchor="middle" x="269" y="-492.8" font-family="Times,serif" font-size="14.00" fill="#000000">isA</text>
</g>
<!-- hasParticipant&#45;&gt;hasPart -->
<g id="edge7" class="edge">
<title>hasParticipant&#45;&gt;hasPart</title>
<path fill="none" stroke="#000000" d="M162.4273,-297.0265C177.3238,-309.8581 197.5209,-327.2557 213.9035,-341.3674"/>
<polygon fill="none" stroke="#000000" points="211.7386,-344.122 221.5995,-347.9966 216.3071,-338.8183 211.7386,-344.122"/>
<text text-anchor="middle" x="208" y="-318.8" font-family="Times,serif" font-size="14.00" fill="#000000">isA</text>
</g>
<!-- hasSpatialPart&#45;&gt;hasProperPart -->
<g id="edge17" class="edge">
<title>hasSpatialPart&#45;&gt;hasProperPart</title>
<path fill="none" stroke="#000000" d="M343.2392,-210.0265C334.143,-222.3915 321.9279,-238.9964 311.7623,-252.8153"/>
<polygon fill="none" stroke="#000000" points="308.8502,-250.8674 305.7439,-260.9966 314.4889,-255.0154 308.8502,-250.8674"/>
<text text-anchor="middle" x="338" y="-231.8" font-family="Times,serif" font-size="14.00" fill="#000000">isA</text>
</g>
<!-- connected&#45;&gt;mereotopological -->
<g id="edge32" class="edge">
<title>connected&#45;&gt;mereotopological</title>
<path fill="none" stroke="#000000" d="M281.5,-558.0265C281.5,-569.8082 281.5,-585.4393 281.5,-598.8419"/>
<polygon fill="none" stroke="#000000" points="278.0001,-598.9966 281.5,-608.9966 285.0001,-598.9967 278.0001,-598.9966"/>
<text text-anchor="middle" x="291" y="-579.8" font-family="Times,serif" font-size="14.00" fill="#000000">isA</text>
</g>
<!-- hasMember -->
<g id="node22" class="node">
<title>hasMember</title>
<g id="a_node22"><a xlink:href="http://emmo.info/emmo/top/mereotopology#EMMO_6b7276a4_4b9d_440a_b577_0277539c0fc4" xlink:title="hasMember">
<polygon fill="#0079ba" stroke="#000000" points="503.5,-210 421.5,-210 421.5,-174 503.5,-174 503.5,-210"/>
<text text-anchor="middle" x="462.5" y="-188.3" font-family="Times,serif" font-size="14.00" fill="#ffffff">hasMember</text>
</a>
</g>
</g>
<!-- hasMember&#45;&gt;hasProperPart -->
<g id="edge25" class="edge">
<title>hasMember&#45;&gt;hasProperPart</title>
<path fill="none" stroke="#000000" d="M427.2759,-210.0265C401.0629,-223.4413 365.0984,-241.8467 336.9137,-256.2706"/>
<polygon fill="none" stroke="#000000" points="334.9865,-253.3252 327.679,-260.9966 338.1755,-259.5566 334.9865,-253.3252"/>
<text text-anchor="middle" x="398" y="-231.8" font-family="Times,serif" font-size="14.00" fill="#000000">isA</text>
</g>
<!-- hasVariable -->
<g id="node23" class="node">
<title>hasVariable</title>
<g id="a_node23"><a xlink:href="http://emmo.info/emmo/middle/math#EMMO_3446e167_c576_49d6_846c_215bb8878a55" xlink:title="hasVariable">
<polygon fill="#0079ba" stroke="#000000" points="569,-384 488,-384 488,-348 569,-348 569,-384"/>
<text text-anchor="middle" x="528.5" y="-362.3" font-family="Times,serif" font-size="14.00" fill="#ffffff">hasVariable</text>
</a>
</g>
</g>
<!-- hasVariable&#45;&gt;hasConvention -->
<g id="edge24" class="edge">
<title>hasVariable&#45;&gt;hasConvention</title>
<path fill="none" stroke="#000000" d="M516.2752,-384.0265C507.9688,-396.2748 496.8411,-412.6835 487.5232,-426.4234"/>
<polygon fill="none" stroke="#000000" points="484.4252,-424.7558 481.7092,-434.9966 490.2186,-428.6847 484.4252,-424.7558"/>
<text text-anchor="middle" x="513" y="-405.8" font-family="Times,serif" font-size="14.00" fill="#000000">isA</text>
</g>
<!-- hasTemporalDirectPart -->
<g id="node24" class="node">
<title>hasTemporalDirectPart</title>
<g id="a_node24"><a xlink:href="http://emmo.info/emmo/middle/reductionistic#EMMO_65a2c5b8_e4d8_4a51_b2f8_e55effc0547d" xlink:title="hasTemporalDirectPart">
<polygon fill="#0079ba" stroke="#000000" points="648,-123 505,-123 505,-87 648,-87 648,-123"/>
<text text-anchor="middle" x="576.5" y="-101.3" font-family="Times,serif" font-size="14.00" fill="#ffffff">hasTemporalDirectPart</text>
</a>
</g>
</g>
<!-- hasTemporalPart -->
<g id="node26" class="node">
<title>hasTemporalPart</title>
<g id="a_node26"><a xlink:href="http://emmo.info/emmo/top/physical#EMMO_7afbed84_7593_4a23_bd88_9d9c6b04e8f6" xlink:title="hasTemporalPart">
<polygon fill="#0079ba" stroke="#000000" points="631.5,-210 521.5,-210 521.5,-174 631.5,-174 631.5,-210"/>
<text text-anchor="middle" x="576.5" y="-188.3" font-family="Times,serif" font-size="14.00" fill="#ffffff">hasTemporalPart</text>
</a>
</g>
</g>
<!-- hasTemporalDirectPart&#45;&gt;hasTemporalPart -->
<g id="edge8" class="edge">
<title>hasTemporalDirectPart&#45;&gt;hasTemporalPart</title>
<path fill="none" stroke="#000000" d="M576.5,-123.0265C576.5,-134.8082 576.5,-150.4393 576.5,-163.8419"/>
<polygon fill="none" stroke="#000000" points="573.0001,-163.9966 576.5,-173.9966 580.0001,-163.9967 573.0001,-163.9966"/>
<text text-anchor="middle" x="586" y="-144.8" font-family="Times,serif" font-size="14.00" fill="#000000">isA</text>
</g>
<!-- overcrosses -->
<g id="node25" class="node">
<title>overcrosses</title>
<g id="a_node25"><a xlink:href="http://emmo.info/emmo/top/mereotopology#EMMO_9cb984ca_48ad_4864_b09e_50d3fff19420" xlink:title="overcrosses">
<polygon fill="#0079ba" stroke="#000000" points="370.5,-384 290.5,-384 290.5,-348 370.5,-348 370.5,-384"/>
<text text-anchor="middle" x="330.5" y="-362.3" font-family="Times,serif" font-size="14.00" fill="#ffffff">overcrosses</text>
</a>
</g>
</g>
<!-- overcrosses&#45;&gt;hasOverlapWith -->
<g id="edge18" class="edge">
<title>overcrosses&#45;&gt;hasOverlapWith</title>
<path fill="none" stroke="#000000" d="M330.9144,-384.0265C331.1852,-395.8082 331.5446,-411.4393 331.8527,-424.8419"/>
<polygon fill="none" stroke="#000000" points="328.3571,-425.0798 332.0861,-434.9966 335.3553,-424.9188 328.3571,-425.0798"/>
<text text-anchor="middle" x="342" y="-405.8" font-family="Times,serif" font-size="14.00" fill="#000000">isA</text>
</g>
<!-- hasTemporalPart&#45;&gt;hasProperPart -->
<g id="edge29" class="edge">
<title>hasTemporalPart&#45;&gt;hasProperPart</title>
<path fill="none" stroke="#000000" d="M521.1491,-209.1993C489.1284,-219.1265 448.0572,-231.8207 411.5,-243 390.9289,-249.2907 368.3392,-256.1395 348.4203,-262.1585"/>
<polygon fill="none" stroke="#000000" points="347.137,-258.8898 338.5758,-265.1314 349.1607,-265.5909 347.137,-258.8898"/>
<text text-anchor="middle" x="467" y="-231.8" font-family="Times,serif" font-size="14.00" fill="#000000">isA</text>
</g>
<!-- hasSpatioTemporalDirectPart -->
<g id="node27" class="node">
<title>hasSpatioTemporalDirectPart</title>
<g id="a_node27"><a xlink:href="http://emmo.info/emmo/middle/reductionistic#EMMO_663859e5_add3_4c9e_96fb_c99399de278d" xlink:title="hasSpatioTemporalDirectPart">
<polygon fill="#0079ba" stroke="#000000" points="300.5,-123 122.5,-123 122.5,-87 300.5,-87 300.5,-123"/>
<text text-anchor="middle" x="211.5" y="-101.3" font-family="Times,serif" font-size="14.00" fill="#ffffff">hasSpatioTemporalDirectPart</text>
</a>
</g>
</g>
<!-- hasSpatioTemporalDirectPart&#45;&gt;hasSpatioTemporalPart -->
<g id="edge23" class="edge">
<title>hasSpatioTemporalDirectPart&#45;&gt;hasSpatioTemporalPart</title>
<path fill="none" stroke="#000000" d="M213.1576,-123.0265C214.241,-134.8082 215.6783,-150.4393 216.9108,-163.8419"/>
<polygon fill="none" stroke="#000000" points="213.4435,-164.3592 217.8445,-173.9966 220.414,-163.7181 213.4435,-164.3592"/>
<text text-anchor="middle" x="226" y="-144.8" font-family="Times,serif" font-size="14.00" fill="#000000">isA</text>
</g>
<!-- hasIndex -->
<g id="node28" class="node">
<title>hasIndex</title>
<g id="a_node28"><a xlink:href="http://emmo.info/emmo/top/semiotics#EMMO_297999d6_c9e4_4262_9536_bd524d1c6e21" xlink:title="hasIndex">
<polygon fill="#0079ba" stroke="#000000" points="796,-471 731,-471 731,-435 796,-435 796,-471"/>
<text text-anchor="middle" x="763.5" y="-449.3" font-family="Times,serif" font-size="14.00" fill="#ffffff">hasIndex</text>
</a>
</g>
</g>
<!-- hasIndex&#45;&gt;hasSign -->
<g id="edge9" class="edge">
<title>hasIndex&#45;&gt;hasSign</title>
<path fill="none" stroke="#000000" d="M730.9695,-467.3663C696.5599,-482.5624 642.272,-506.5373 605.568,-522.7466"/>
<polygon fill="none" stroke="#000000" points="603.9099,-519.6527 596.1762,-526.8943 606.7378,-526.0561 603.9099,-519.6527"/>
<text text-anchor="middle" x="686" y="-492.8" font-family="Times,serif" font-size="14.00" fill="#000000">isA</text>
</g>
<!-- hasOverlapWith&#45;&gt;connected -->
<g id="edge5" class="edge">
<title>hasOverlapWith&#45;&gt;connected</title>
<path fill="none" stroke="#000000" d="M321.9328,-471.0265C314.8211,-483.1582 305.3168,-499.3713 297.3099,-513.0302"/>
<polygon fill="none" stroke="#000000" points="294.0915,-511.5996 292.0537,-521.9966 300.1304,-515.1397 294.0915,-511.5996"/>
<text text-anchor="middle" x="320" y="-492.8" font-family="Times,serif" font-size="14.00" fill="#000000">isA</text>
</g>
<!-- hasReferenceUnit -->
<g id="node30" class="node">
<title>hasReferenceUnit</title>
<g id="a_node30"><a xlink:href="http://emmo.info/emmo/middle/units#EMMO_67fc0a36_8dcb_4ffa_9a43_31074efa3296" xlink:title="hasReferenceUnit">
<polygon fill="#0079ba" stroke="#000000" points="505,-36 392,-36 392,0 505,0 505,-36"/>
<text text-anchor="middle" x="448.5" y="-14.3" font-family="Times,serif" font-size="14.00" fill="#ffffff">hasReferenceUnit</text>
</a>
</g>
</g>
<!-- hasReferenceUnit&#45;&gt;hasSpatialDirectPart -->
<g id="edge28" class="edge">
<title>hasReferenceUnit&#45;&gt;hasSpatialDirectPart</title>
<path fill="none" stroke="#000000" d="M434.8248,-36.0265C425.4444,-48.3915 412.8475,-64.9964 402.3643,-78.8153"/>
<polygon fill="none" stroke="#000000" points="399.4132,-76.9143 396.1577,-86.9966 404.9901,-81.1451 399.4132,-76.9143"/>
<text text-anchor="middle" x="429" y="-57.8" font-family="Times,serif" font-size="14.00" fill="#000000">isA</text>
</g>
<!-- semiotical&#45;&gt;EMMORelation -->
<g id="edge16" class="edge">
<title>semiotical&#45;&gt;EMMORelation</title>
<path fill="none" stroke="#000000" d="M422.9151,-645.0265C406.6926,-657.9747 384.645,-675.5724 366.8804,-689.7515"/>
<polygon fill="none" stroke="#000000" points="364.6883,-687.0229 359.0559,-695.9966 369.055,-692.4939 364.6883,-687.0229"/>
<text text-anchor="middle" x="408" y="-666.8" font-family="Times,serif" font-size="14.00" fill="#000000">isA</text>
</g>
</g>
</svg>
