<?xml version="1.0" encoding="UTF-8" standalone="no"?>
<!DOCTYPE svg PUBLIC "-//W3C//DTD SVG 1.1//EN"
 "http://www.w3.org/Graphics/SVG/1.1/DTD/svg11.dtd">
<!-- Generated by graphviz version 2.40.1 (20161225.0304)
 -->
<!-- Title: %3 Pages: 1 -->
<svg width="705pt" height="218pt"
 viewBox="0.00 0.00 705.04 218.00" xmlns="http://www.w3.org/2000/svg" xmlns:xlink="http://www.w3.org/1999/xlink">
<g id="graph0" class="graph" transform="scale(1 1) rotate(0) translate(4 214)">
<title>%3</title>
<polygon fill="#ffffff" stroke="transparent" points="-4,4 -4,-214 701.0444,-214 701.0444,4 -4,4"/>
<!-- Sphere -->
<g id="node1" class="node">
<title>Sphere</title>
<g id="a_node1"><a xlink:href="http://emmo.info/emmo/middle/perceptual#EMMO_d7bf784a_db94_4dd9_861c_54f262846fbf" xlink:title="Sphere">
<ellipse fill="#ffffcc" stroke="#000000" cx="582.4971" cy="-18" rx="35.194" ry="18"/>
<text text-anchor="middle" x="582.4971" y="-14.3" font-family="Times,serif" font-size="14.00" fill="#000000">Sphere</text>
</a>
</g>
</g>
<!-- 2&#45;manifold -->
<g id="node9" class="node">
<title>2&#45;manifold</title>
<g id="a_node9"><a xlink:href="http://emmo.info/emmo/middle/perceptual#EMMO_9268958f_7f54_48ab_a693_febe2645892b" xlink:title="2&#45;manifold">
<ellipse fill="#ffffcc" stroke="#000000" cx="541.4971" cy="-105" rx="50.0912" ry="18"/>
<text text-anchor="middle" x="541.4971" y="-101.3" font-family="Times,serif" font-size="14.00" fill="#000000">2&#45;manifold</text>
</a>
</g>
</g>
<!-- Sphere&#45;&gt;2&#45;manifold -->
<g id="edge5" class="edge">
<title>Sphere&#45;&gt;2&#45;manifold</title>
<path fill="none" stroke="#000000" d="M574.2002,-35.6057C568.4586,-47.789 560.7091,-64.2331 554.195,-78.0557"/>
<polygon fill="none" stroke="#000000" points="551.0195,-76.5839 549.9225,-87.1218 557.3515,-79.5681 551.0195,-76.5839"/>
<text text-anchor="middle" x="572.9971" y="-57.8" font-family="Times,serif" font-size="14.00" fill="#000000">isA</text>
</g>
<!-- Line -->
<g id="node2" class="node">
<title>Line</title>
<g id="a_node2"><a xlink:href="http://emmo.info/emmo/middle/perceptual#EMMO_3e309118_e8b7_4021_80f4_642d2df65d94" xlink:title="Line">
<ellipse fill="#ffffcc" stroke="#000000" cx="192.4971" cy="-18" rx="27" ry="18"/>
<text text-anchor="middle" x="192.4971" y="-14.3" font-family="Times,serif" font-size="14.00" fill="#000000">Line</text>
</a>
</g>
</g>
<!-- 1&#45;manifold -->
<g id="node5" class="node">
<title>1&#45;manifold</title>
<g id="a_node5"><a xlink:href="http://emmo.info/emmo/middle/perceptual#EMMO_0c576e13_4ee7_4f3d_bfe9_1614243df018" xlink:title="1&#45;manifold">
<ellipse fill="#ffffcc" stroke="#000000" cx="132.4971" cy="-105" rx="50.0912" ry="18"/>
<text text-anchor="middle" x="132.4971" y="-101.3" font-family="Times,serif" font-size="14.00" fill="#000000">1&#45;manifold</text>
</a>
</g>
</g>
<!-- Line&#45;&gt;1&#45;manifold -->
<g id="edge12" class="edge">
<title>Line&#45;&gt;1&#45;manifold</title>
<path fill="none" stroke="#000000" d="M181.2116,-34.364C172.5531,-46.9188 160.4318,-64.4946 150.4467,-78.9732"/>
<polygon fill="none" stroke="#000000" points="147.3517,-77.296 144.5556,-87.5152 153.1142,-81.2702 147.3517,-77.296"/>
<text text-anchor="middle" x="175.9971" y="-57.8" font-family="Times,serif" font-size="14.00" fill="#000000">isA</text>
</g>
<!-- Circle -->
<g id="node3" class="node">
<title>Circle</title>
<g id="a_node3"><a xlink:href="http://emmo.info/emmo/middle/perceptual#EMMO_b2a234a8_579a_422c_9305_b8f7e72c76cd" xlink:title="Circle">
<ellipse fill="#ffffcc" stroke="#000000" cx="32.4971" cy="-18" rx="32.4942" ry="18"/>
<text text-anchor="middle" x="32.4971" y="-14.3" font-family="Times,serif" font-size="14.00" fill="#000000">Circle</text>
</a>
</g>
</g>
<!-- Circle&#45;&gt;1&#45;manifold -->
<g id="edge2" class="edge">
<title>Circle&#45;&gt;1&#45;manifold</title>
<path fill="none" stroke="#000000" d="M50.3751,-33.5539C65.6724,-46.8625 87.9262,-66.2233 105.4105,-81.4346"/>
<polygon fill="none" stroke="#000000" points="103.2243,-84.1718 113.066,-88.0949 107.8188,-78.8907 103.2243,-84.1718"/>
<text text-anchor="middle" x="97.9971" y="-57.8" font-family="Times,serif" font-size="14.00" fill="#000000">isA</text>
</g>
<!-- Point -->
<g id="node4" class="node">
<title>Point</title>
<g id="a_node4"><a xlink:href="http://emmo.info/emmo/middle/perceptual#EMMO_39362460_2a97_4367_8f93_0418c2ac9a08" xlink:title="Point">
<ellipse fill="#ffffcc" stroke="#000000" cx="266.4971" cy="-18" rx="29.4969" ry="18"/>
<text text-anchor="middle" x="266.4971" y="-14.3" font-family="Times,serif" font-size="14.00" fill="#000000">Point</text>
</a>
</g>
</g>
<!-- 0&#45;manifold -->
<g id="node8" class="node">
<title>0&#45;manifold</title>
<g id="a_node8"><a xlink:href="http://emmo.info/emmo/middle/perceptual#EMMO_0ab0485c_9e5b_4257_a679_90a2dfba5c7c" xlink:title="0&#45;manifold">
<ellipse fill="#ffffcc" stroke="#000000" cx="265.4971" cy="-105" rx="50.0912" ry="18"/>
<text text-anchor="middle" x="265.4971" y="-101.3" font-family="Times,serif" font-size="14.00" fill="#000000">0&#45;manifold</text>
</a>
</g>
</g>
<!-- Point&#45;&gt;0&#45;manifold -->
<g id="edge6" class="edge">
<title>Point&#45;&gt;0&#45;manifold</title>
<path fill="none" stroke="#000000" d="M266.2899,-36.0265C266.1545,-47.8082 265.9748,-63.4393 265.8208,-76.8419"/>
<polygon fill="none" stroke="#000000" points="262.3193,-76.957 265.7041,-86.9966 269.3189,-77.0376 262.3193,-76.957"/>
<text text-anchor="middle" x="275.9971" y="-57.8" font-family="Times,serif" font-size="14.00" fill="#000000">isA</text>
</g>
<!-- Geometrical -->
<g id="node10" class="node">
<title>Geometrical</title>
<g id="a_node10"><a xlink:href="http://emmo.info/emmo/middle/perceptual#EMMO_b5957cef_a287_442d_a3ce_fd39f20ba1cd" xlink:title="Geometrical">
<ellipse fill="#ffffcc" stroke="#000000" stroke-width="2" cx="324.4971" cy="-192" rx="54.6905" ry="18"/>
<text text-anchor="middle" x="324.4971" y="-188.3" font-family="Times,serif" font-size="14.00" fill="#000000">Geometrical</text>
</a>
</g>
</g>
<!-- 1&#45;manifold&#45;&gt;Geometrical -->
<g id="edge7" class="edge">
<title>1&#45;manifold&#45;&gt;Geometrical</title>
<path fill="none" stroke="#000000" d="M163.7726,-119.1717C196.2547,-133.8902 247.2417,-156.9936 283.0589,-173.2233"/>
<polygon fill="none" stroke="#000000" points="281.7204,-176.4593 292.2736,-177.3987 284.6096,-170.0833 281.7204,-176.4593"/>
<text text-anchor="middle" x="249.9971" y="-144.8" font-family="Times,serif" font-size="14.00" fill="#000000">isA</text>
</g>
<!-- Plane -->
<g id="node6" class="node">
<title>Plane</title>
<g id="a_node6"><a xlink:href="http://emmo.info/emmo/middle/perceptual#EMMO_25f5ca8e_8f7f_44d8_a392_bd3fe8894458" xlink:title="Plane">
<ellipse fill="#ffffcc" stroke="#000000" cx="666.4971" cy="-18" rx="30.5947" ry="18"/>
<text text-anchor="middle" x="666.4971" y="-14.3" font-family="Times,serif" font-size="14.00" fill="#000000">Plane</text>
</a>
</g>
</g>
<!-- Plane&#45;&gt;2&#45;manifold -->
<g id="edge8" class="edge">
<title>Plane&#45;&gt;2&#45;manifold</title>
<path fill="none" stroke="#000000" d="M646.6905,-31.7854C626.9127,-45.5508 596.2091,-66.9205 573.0685,-83.0263"/>
<polygon fill="none" stroke="#000000" points="570.8168,-80.3292 564.6085,-88.9145 574.8156,-86.0746 570.8168,-80.3292"/>
<text text-anchor="middle" x="619.9971" y="-57.8" font-family="Times,serif" font-size="14.00" fill="#000000">isA</text>
</g>
<!-- Torus -->
<g id="node7" class="node">
<title>Torus</title>
<g id="a_node7"><a xlink:href="http://emmo.info/emmo/middle/perceptual#EMMO_86060335_31c2_4820_b433_27c64aea0366" xlink:title="Torus">
<ellipse fill="#ffffcc" stroke="#000000" cx="498.4971" cy="-18" rx="31.3957" ry="18"/>
<text text-anchor="middle" x="498.4971" y="-14.3" font-family="Times,serif" font-size="14.00" fill="#000000">Torus</text>
</a>
</g>
</g>
<!-- Torus&#45;&gt;2&#45;manifold -->
<g id="edge10" class="edge">
<title>Torus&#45;&gt;2&#45;manifold</title>
<path fill="none" stroke="#000000" d="M507.1988,-35.6057C513.2204,-47.789 521.3479,-64.2331 528.1798,-78.0557"/>
<polygon fill="none" stroke="#000000" points="525.0922,-79.7079 532.6608,-87.1218 531.3675,-76.6062 525.0922,-79.7079"/>
<text text-anchor="middle" x="531.9971" y="-57.8" font-family="Times,serif" font-size="14.00" fill="#000000">isA</text>
</g>
<!-- 0&#45;manifold&#45;&gt;Geometrical -->
<g id="edge1" class="edge">
<title>0&#45;manifold&#45;&gt;Geometrical</title>
<path fill="none" stroke="#000000" d="M277.4366,-122.6057C285.9135,-135.1056 297.432,-152.0904 306.9515,-166.1276"/>
<polygon fill="none" stroke="#000000" points="304.0659,-168.1085 312.5753,-174.4204 309.8593,-164.1796 304.0659,-168.1085"/>
<text text-anchor="middle" x="308.9971" y="-144.8" font-family="Times,serif" font-size="14.00" fill="#000000">isA</text>
</g>
<!-- 2&#45;manifold&#45;&gt;Geometrical -->
<g id="edge9" class="edge">
<title>2&#45;manifold&#45;&gt;Geometrical</title>
<path fill="none" stroke="#000000" d="M508.0664,-118.4031C470.7549,-133.3621 410.2124,-157.6349 368.9377,-174.1828"/>
<polygon fill="none" stroke="#000000" points="367.3836,-171.035 359.4043,-178.005 369.9886,-177.5323 367.3836,-171.035"/>
<text text-anchor="middle" x="455.9971" y="-144.8" font-family="Times,serif" font-size="14.00" fill="#000000">isA</text>
</g>
<!-- EuclideanSpace -->
<g id="node11" class="node">
<title>EuclideanSpace</title>
<g id="a_node11"><a xlink:href="http://emmo.info/emmo/middle/perceptual#EMMO_5f278af9_8593_4e27_a717_ccc9e07a0ddf" xlink:title="EuclideanSpace">
<ellipse fill="#ffffcc" stroke="#000000" cx="382.4971" cy="-18" rx="66.8882" ry="18"/>
<text text-anchor="middle" x="382.4971" y="-14.3" font-family="Times,serif" font-size="14.00" fill="#000000">EuclideanSpace</text>
</a>
</g>
</g>
<!-- 3&#45;manifold -->
<g id="node13" class="node">
<title>3&#45;manifold</title>
<g id="a_node13"><a xlink:href="http://emmo.info/emmo/middle/perceptual#EMMO_46f0f8df_4dc6_418f_8036_10427a3a288e" xlink:title="3&#45;manifold">
<ellipse fill="#ffffcc" stroke="#000000" cx="383.4971" cy="-105" rx="50.0912" ry="18"/>
<text text-anchor="middle" x="383.4971" y="-101.3" font-family="Times,serif" font-size="14.00" fill="#000000">3&#45;manifold</text>
</a>
</g>
</g>
<!-- EuclideanSpace&#45;&gt;3&#45;manifold -->
<g id="edge3" class="edge">
<title>EuclideanSpace&#45;&gt;3&#45;manifold</title>
<path fill="none" stroke="#000000" d="M382.7043,-36.0265C382.8397,-47.8082 383.0194,-63.4393 383.1735,-76.8419"/>
<polygon fill="none" stroke="#000000" points="379.6754,-77.0376 383.2902,-86.9966 386.6749,-76.957 379.6754,-77.0376"/>
<text text-anchor="middle" x="392.9971" y="-57.8" font-family="Times,serif" font-size="14.00" fill="#000000">isA</text>
</g>
<!-- Curve -->
<g id="node12" class="node">
<title>Curve</title>
<g id="a_node12"><a xlink:href="http://emmo.info/emmo/middle/perceptual#EMMO_0ef4ff4a_5458_4f2a_b51f_4689d472a3f2" xlink:title="Curve">
<ellipse fill="#ffffcc" stroke="#000000" cx="115.4971" cy="-18" rx="32.4942" ry="18"/>
<text text-anchor="middle" x="115.4971" y="-14.3" font-family="Times,serif" font-size="14.00" fill="#000000">Curve</text>
</a>
</g>
</g>
<!-- Curve&#45;&gt;1&#45;manifold -->
<g id="edge4" class="edge">
<title>Curve&#45;&gt;1&#45;manifold</title>
<path fill="none" stroke="#000000" d="M119.0195,-36.0265C121.3217,-47.8082 124.3761,-63.4393 126.995,-76.8419"/>
<polygon fill="none" stroke="#000000" points="123.6263,-77.8535 128.9792,-86.9966 130.4964,-76.511 123.6263,-77.8535"/>
<text text-anchor="middle" x="134.9971" y="-57.8" font-family="Times,serif" font-size="14.00" fill="#000000">isA</text>
</g>
<!-- 3&#45;manifold&#45;&gt;Geometrical -->
<g id="edge11" class="edge">
<title>3&#45;manifold&#45;&gt;Geometrical</title>
<path fill="none" stroke="#000000" d="M371.5576,-122.6057C363.0807,-135.1056 351.5623,-152.0904 342.0427,-166.1276"/>
<polygon fill="none" stroke="#000000" points="339.1349,-164.1796 336.4189,-174.4204 344.9283,-168.1085 339.1349,-164.1796"/>
<text text-anchor="middle" x="367.9971" y="-144.8" font-family="Times,serif" font-size="14.00" fill="#000000">isA</text>
</g>
</g>
</svg>
