<?xml version="1.0" encoding="UTF-8" standalone="no"?>
<!DOCTYPE svg PUBLIC "-//W3C//DTD SVG 1.1//EN"
 "http://www.w3.org/Graphics/SVG/1.1/DTD/svg11.dtd">
<!-- Generated by graphviz version 2.40.1 (20161225.0304)
 -->
<!-- Title: %3 Pages: 1 -->
<svg width="699pt" height="305pt"
 viewBox="0.00 0.00 698.54 305.00" xmlns="http://www.w3.org/2000/svg" xmlns:xlink="http://www.w3.org/1999/xlink">
<g id="graph0" class="graph" transform="scale(1 1) rotate(0) translate(4 301)">
<title>%3</title>
<polygon fill="#ffffff" stroke="transparent" points="-4,4 -4,-301 694.5369,-301 694.5369,4 -4,4"/>
<!-- Metrological -->
<g id="node1" class="node">
<title>Metrological</title>
<g id="a_node1"><a xlink:href="http://emmo.info/emmo/middle/units#EMMO_985bec21_989f_4b9e_a4b3_735d88099c3c" xlink:title="Metrological">
<ellipse fill="#ffffcc" stroke="#000000" stroke-width="2" cx="56.545" cy="-18" rx="56.59" ry="18"/>
<text text-anchor="middle" x="56.545" y="-14.3" font-family="Times,serif" font-size="14.00" fill="#000000">Metrological</text>
</a>
</g>
</g>
<!-- Language -->
<g id="node4" class="node">
<title>Language</title>
<g id="a_node4"><a xlink:href="http://emmo.info/emmo/middle/perceptual#EMMO_d8d2144e_5c8d_455d_a643_5caf4d8d9df8" xlink:title="Language">
<ellipse fill="#ffffcc" stroke="#000000" cx="123.545" cy="-105" rx="45.4919" ry="18"/>
<text text-anchor="middle" x="123.545" y="-101.3" font-family="Times,serif" font-size="14.00" fill="#000000">Language</text>
</a>
</g>
</g>
<!-- Metrological&#45;&gt;Language -->
<g id="edge6" class="edge">
<title>Metrological&#45;&gt;Language</title>
<path fill="none" stroke="#000000" d="M70.1034,-35.6057C79.7931,-48.1878 92.9823,-65.3141 103.8333,-79.4043"/>
<polygon fill="none" stroke="#000000" points="101.3608,-81.93 110.2353,-87.7173 106.9068,-77.6589 101.3608,-81.93"/>
<text text-anchor="middle" x="104.045" y="-57.8" font-family="Times,serif" font-size="14.00" fill="#000000">isA</text>
</g>
<!-- Pictorial -->
<g id="node2" class="node">
<title>Pictorial</title>
<g id="a_node2"><a xlink:href="http://emmo.info/emmo/middle/perceptual#EMMO_1da53c06_9577_4008_8652_272fa3b62be7" xlink:title="Pictorial">
<ellipse fill="#ffffcc" stroke="#000000" cx="363.545" cy="-192" rx="40.0939" ry="18"/>
<text text-anchor="middle" x="363.545" y="-188.3" font-family="Times,serif" font-size="14.00" fill="#000000">Pictorial</text>
</a>
</g>
</g>
<!-- Graphical -->
<g id="node7" class="node">
<title>Graphical</title>
<g id="a_node7"><a xlink:href="http://emmo.info/emmo/middle/perceptual#EMMO_c74da218_9147_4f03_92d1_8894abca55f3" xlink:title="Graphical">
<ellipse fill="#ffffcc" stroke="#000000" stroke-width="2" cx="363.545" cy="-279" rx="45.4919" ry="18"/>
<text text-anchor="middle" x="363.545" y="-275.3" font-family="Times,serif" font-size="14.00" fill="#000000">Graphical</text>
</a>
</g>
</g>
<!-- Pictorial&#45;&gt;Graphical -->
<g id="edge4" class="edge">
<title>Pictorial&#45;&gt;Graphical</title>
<path fill="none" stroke="#000000" d="M363.545,-210.0265C363.545,-221.8082 363.545,-237.4393 363.545,-250.8419"/>
<polygon fill="none" stroke="#000000" points="360.0451,-250.9966 363.545,-260.9966 367.0451,-250.9967 360.0451,-250.9966"/>
<text text-anchor="middle" x="373.045" y="-231.8" font-family="Times,serif" font-size="14.00" fill="#000000">isA</text>
</g>
<!-- Mathematical -->
<g id="node3" class="node">
<title>Mathematical</title>
<g id="a_node3"><a xlink:href="http://emmo.info/emmo/middle/math#EMMO_54ee6b5e_5261_44a8_86eb_5717e7fdb9d0" xlink:title="Mathematical">
<ellipse fill="#ffffcc" stroke="#000000" stroke-width="2" cx="190.545" cy="-18" rx="59.5901" ry="18"/>
<text text-anchor="middle" x="190.545" y="-14.3" font-family="Times,serif" font-size="14.00" fill="#000000">Mathematical</text>
</a>
</g>
</g>
<!-- Mathematical&#45;&gt;Language -->
<g id="edge8" class="edge">
<title>Mathematical&#45;&gt;Language</title>
<path fill="none" stroke="#000000" d="M176.9865,-35.6057C167.2969,-48.1878 154.1077,-65.3141 143.2566,-79.4043"/>
<polygon fill="none" stroke="#000000" points="140.1832,-77.6589 136.8546,-87.7173 145.7292,-81.93 140.1832,-77.6589"/>
<text text-anchor="middle" x="170.045" y="-57.8" font-family="Times,serif" font-size="14.00" fill="#000000">isA</text>
</g>
<!-- Symbolic -->
<g id="node5" class="node">
<title>Symbolic</title>
<g id="a_node5"><a xlink:href="http://emmo.info/emmo/middle/perceptual#EMMO_057e7d57_aff0_49de_911a_8861d85cef40" xlink:title="Symbolic">
<ellipse fill="#ffffcc" stroke="#000000" cx="260.545" cy="-192" rx="44.6926" ry="18"/>
<text text-anchor="middle" x="260.545" y="-188.3" font-family="Times,serif" font-size="14.00" fill="#000000">Symbolic</text>
</a>
</g>
</g>
<!-- Language&#45;&gt;Symbolic -->
<g id="edge7" class="edge">
<title>Language&#45;&gt;Symbolic</title>
<path fill="none" stroke="#000000" d="M147.7225,-120.3536C169.8888,-134.43 202.9066,-155.3975 227.5032,-171.0173"/>
<polygon fill="none" stroke="#000000" points="225.8304,-174.101 236.1484,-176.5073 229.583,-168.1918 225.8304,-174.101"/>
<text text-anchor="middle" x="209.045" y="-144.8" font-family="Times,serif" font-size="14.00" fill="#000000">isA</text>
</g>
<!-- Symbolic&#45;&gt;Graphical -->
<g id="edge5" class="edge">
<title>Symbolic&#45;&gt;Graphical</title>
<path fill="none" stroke="#000000" d="M279.9185,-208.364C295.7865,-221.7671 318.4295,-240.8927 336.1531,-255.8631"/>
<polygon fill="none" stroke="#000000" points="334.0102,-258.6346 343.9081,-262.4135 338.5271,-253.2869 334.0102,-258.6346"/>
<text text-anchor="middle" x="327.045" y="-231.8" font-family="Times,serif" font-size="14.00" fill="#000000">isA</text>
</g>
<!-- String -->
<g id="node6" class="node">
<title>String</title>
<g id="a_node6"><a xlink:href="http://emmo.info/emmo/middle/perceptual#EMMO_50ea1ec5_f157_41b0_b46b_a9032f17ca10" xlink:title="String">
<ellipse fill="#ffffcc" stroke="#000000" cx="219.545" cy="-105" rx="32.4942" ry="18"/>
<text text-anchor="middle" x="219.545" y="-101.3" font-family="Times,serif" font-size="14.00" fill="#000000">String</text>
</a>
</g>
</g>
<!-- String&#45;&gt;Symbolic -->
<g id="edge1" class="edge">
<title>String&#45;&gt;Symbolic</title>
<path fill="none" stroke="#000000" d="M227.8419,-122.6057C233.5835,-134.789 241.333,-151.2331 247.8471,-165.0557"/>
<polygon fill="none" stroke="#000000" points="244.6906,-166.5681 252.1196,-174.1218 251.0226,-163.5839 244.6906,-166.5681"/>
<text text-anchor="middle" x="251.045" y="-144.8" font-family="Times,serif" font-size="14.00" fill="#000000">isA</text>
</g>
<!-- Symbol -->
<g id="node8" class="node">
<title>Symbol</title>
<g id="a_node8"><a xlink:href="http://emmo.info/emmo/middle/perceptual#EMMO_a1083d0a_c1fb_471f_8e20_a98f881ad527" xlink:title="Symbol">
<ellipse fill="#ffffcc" stroke="#000000" stroke-width="2" cx="452.545" cy="-105" rx="38.1938" ry="18"/>
<text text-anchor="middle" x="452.545" y="-101.3" font-family="Times,serif" font-size="14.00" fill="#000000">Symbol</text>
</a>
</g>
</g>
<!-- String&#45;&gt;Symbol -->
<g id="edge2" class="edge">
<title>String&#45;&gt;Symbol</title>
<path fill="none" stroke="#006400" d="M252.434,-105C291.8859,-105 358.3756,-105 403.8006,-105"/>
<polygon fill="#006400" stroke="#006400" points="404.0096,-108.5001 414.0095,-105 404.0095,-101.5001 404.0096,-108.5001"/>
<text text-anchor="middle" x="333.1202" y="-90.8" font-family="Times,serif" font-size="14.00" fill="#000000">hasSpatialDirectPart some</text>
</g>
<!-- String&#45;&gt;Symbol -->
<g id="edge3" class="edge">
<title>String&#45;&gt;Symbol</title>
<path fill="none" stroke="#006400" d="M244.1972,-117.0189C250.3943,-119.4906 257.1317,-121.7261 263.6202,-123 293.9305,-128.9507 372.1925,-128.3177 402.6202,-123 406.4918,-122.3234 410.4592,-121.3725 414.3831,-120.2575"/>
<polygon fill="#006400" stroke="#006400" points="415.4981,-123.5758 423.9679,-117.2108 413.3775,-116.9047 415.4981,-123.5758"/>
<text text-anchor="middle" x="333.1202" y="-111.8" font-family="Times,serif" font-size="14.00" fill="#000000">hasSpatialDirectPart only</text>
</g>
<!-- Symbol&#45;&gt;Symbolic -->
<g id="edge12" class="edge">
<title>Symbol&#45;&gt;Symbolic</title>
<path fill="none" stroke="#000000" d="M424.6265,-117.6505C391.7836,-132.5325 337.0376,-157.3393 299.8996,-174.1674"/>
<polygon fill="none" stroke="#000000" points="298.0575,-171.1595 290.3935,-178.4749 300.9466,-177.5355 298.0575,-171.1595"/>
<text text-anchor="middle" x="377.045" y="-144.8" font-family="Times,serif" font-size="14.00" fill="#000000">isA</text>
</g>
<!-- Geometrical -->
<g id="node9" class="node">
<title>Geometrical</title>
<g id="a_node9"><a xlink:href="http://emmo.info/emmo/middle/perceptual#EMMO_b5957cef_a287_442d_a3ce_fd39f20ba1cd" xlink:title="Geometrical">
<ellipse fill="#ffffcc" stroke="#000000" stroke-width="2" cx="476.545" cy="-192" rx="54.6905" ry="18"/>
<text text-anchor="middle" x="476.545" y="-188.3" font-family="Times,serif" font-size="14.00" fill="#000000">Geometrical</text>
</a>
</g>
</g>
<!-- Geometrical&#45;&gt;Graphical -->
<g id="edge11" class="edge">
<title>Geometrical&#45;&gt;Graphical</title>
<path fill="none" stroke="#000000" d="M455.0246,-208.5688C437.3189,-222.2006 412.0574,-241.6497 392.5647,-256.6574"/>
<polygon fill="none" stroke="#000000" points="390.3912,-253.9136 384.6028,-262.7874 394.6616,-259.4601 390.3912,-253.9136"/>
<text text-anchor="middle" x="436.045" y="-231.8" font-family="Times,serif" font-size="14.00" fill="#000000">isA</text>
</g>
<!-- SymbolicComposition -->
<g id="node10" class="node">
<title>SymbolicComposition</title>
<g id="a_node10"><a xlink:href="http://emmo.info/emmo/middle/perceptual#EMMO_89a0c87c_0804_4013_937a_6fe234d9499c" xlink:title="SymbolicComposition">
<ellipse fill="#ffffcc" stroke="#000000" cx="599.545" cy="-105" rx="90.9839" ry="18"/>
<text text-anchor="middle" x="599.545" y="-101.3" font-family="Times,serif" font-size="14.00" fill="#000000">SymbolicComposition</text>
</a>
</g>
</g>
<!-- SymbolicComposition&#45;&gt;Symbolic -->
<g id="edge9" class="edge">
<title>SymbolicComposition&#45;&gt;Symbolic</title>
<path fill="none" stroke="#000000" d="M542.3541,-119.0664C500.3632,-129.3673 441.9301,-143.6456 390.545,-156 356.7945,-164.1145 347.9325,-164.5021 314.545,-174 311.2123,-174.9481 307.7795,-175.9741 304.3366,-177.0389"/>
<polygon fill="none" stroke="#000000" points="303.1501,-173.7435 294.6816,-180.1102 305.2721,-180.4141 303.1501,-173.7435"/>
<text text-anchor="middle" x="457.045" y="-144.8" font-family="Times,serif" font-size="14.00" fill="#000000">isA</text>
</g>
<!-- SymbolicComposition&#45;&gt;Symbolic -->
<g id="edge10" class="edge">
<title>SymbolicComposition&#45;&gt;Symbolic</title>
<path fill="none" stroke="#006400" d="M564.5053,-121.751C539.0162,-133.2123 503.3649,-147.7704 470.545,-156 402.8474,-172.9751 382.6817,-158.8839 314.545,-174 310.906,-174.8073 307.1671,-175.7675 303.4367,-176.8179"/>
<polygon fill="#006400" stroke="#006400" points="302.2206,-173.5289 293.6565,-179.7664 304.2411,-180.2309 302.2206,-173.5289"/>
<text text-anchor="middle" x="590.045" y="-144.8" font-family="Times,serif" font-size="14.00" fill="#000000">hasSpatialDirectPart some</text>
</g>
</g>
</svg>
