<?xml version="1.0" encoding="UTF-8" standalone="no"?>
<!DOCTYPE svg PUBLIC "-//W3C//DTD SVG 1.1//EN"
 "http://www.w3.org/Graphics/SVG/1.1/DTD/svg11.dtd">
<!-- Generated by graphviz version 2.40.1 (20161225.0304)
 -->
<!-- Title: %3 Pages: 1 -->
<svg width="681pt" height="392pt"
 viewBox="0.00 0.00 681.00 392.00" xmlns="http://www.w3.org/2000/svg" xmlns:xlink="http://www.w3.org/1999/xlink">
<g id="graph0" class="graph" transform="scale(1 1) rotate(0) translate(4 388)">
<title>%3</title>
<polygon fill="#ffffff" stroke="transparent" points="-4,4 -4,-388 677,-388 677,4 -4,4"/>
<!-- hasPart -->
<g id="node1" class="node">
<title>hasPart</title>
<g id="a_node1"><a xlink:href="http://emmo.info/emmo/top/mereotopology#EMMO_17e27c22_37e1_468c_9dd7_95e137f73e7f" xlink:title="hasPart">
<polygon fill="#0079ba" stroke="#000000" stroke-width="2" points="216.5,-384 160.5,-384 160.5,-348 216.5,-348 216.5,-384"/>
<text text-anchor="middle" x="188.5" y="-362.3" font-family="Times,serif" font-size="14.00" fill="#ffffff">hasPart</text>
</a>
</g>
</g>
<!-- hasParticipant -->
<g id="node2" class="node">
<title>hasParticipant</title>
<g id="a_node2"><a xlink:href="http://emmo.info/emmo/middle/holistic#EMMO_ae2d1a96_bfa1_409a_a7d2_03d69e8a125a" xlink:title="hasParticipant">
<polygon fill="#0079ba" stroke="#000000" points="180,-297 87,-297 87,-261 180,-261 180,-297"/>
<text text-anchor="middle" x="133.5" y="-275.3" font-family="Times,serif" font-size="14.00" fill="#ffffff">hasParticipant</text>
</a>
</g>
</g>
<!-- hasParticipant&#45;&gt;hasPart -->
<g id="edge6" class="edge">
<title>hasParticipant&#45;&gt;hasPart</title>
<path fill="none" stroke="#000000" d="M144.896,-297.0265C152.6393,-309.2748 163.0126,-325.6835 171.6987,-339.4234"/>
<polygon fill="none" stroke="#000000" points="168.8165,-341.4143 177.1186,-347.9966 174.7333,-337.6738 168.8165,-341.4143"/>
<text text-anchor="middle" x="174" y="-318.8" font-family="Times,serif" font-size="14.00" fill="#000000">isA</text>
</g>
<!-- hasSpatialPart -->
<g id="node3" class="node">
<title>hasSpatialPart</title>
<g id="a_node3"><a xlink:href="http://emmo.info/emmo/top/physical#EMMO_f68030be_94b8_4c61_a161_886468558054" xlink:title="hasSpatialPart">
<polygon fill="#0079ba" stroke="#000000" points="241.5,-210 147.5,-210 147.5,-174 241.5,-174 241.5,-210"/>
<text text-anchor="middle" x="194.5" y="-188.3" font-family="Times,serif" font-size="14.00" fill="#ffffff">hasSpatialPart</text>
</a>
</g>
</g>
<!-- hasProperPart -->
<g id="node9" class="node">
<title>hasProperPart</title>
<g id="a_node9"><a xlink:href="http://emmo.info/emmo/top/mereotopology#EMMO_9380ab64_0363_4804_b13f_3a8a94119a76" xlink:title="hasProperPart">
<polygon fill="#0079ba" stroke="#000000" points="327.5,-297 235.5,-297 235.5,-261 327.5,-261 327.5,-297"/>
<text text-anchor="middle" x="281.5" y="-275.3" font-family="Times,serif" font-size="14.00" fill="#ffffff">hasProperPart</text>
</a>
</g>
</g>
<!-- hasSpatialPart&#45;&gt;hasProperPart -->
<g id="edge3" class="edge">
<title>hasSpatialPart&#45;&gt;hasProperPart</title>
<path fill="none" stroke="#000000" d="M212.5265,-210.0265C225.1248,-222.6248 242.1245,-239.6245 256.0945,-253.5945"/>
<polygon fill="none" stroke="#000000" points="253.9507,-256.4004 263.4966,-260.9966 258.9004,-251.4507 253.9507,-256.4004"/>
<text text-anchor="middle" x="253" y="-231.8" font-family="Times,serif" font-size="14.00" fill="#000000">isA</text>
</g>
<!-- hasMember -->
<g id="node4" class="node">
<title>hasMember</title>
<g id="a_node4"><a xlink:href="http://emmo.info/emmo/top/mereotopology#EMMO_6b7276a4_4b9d_440a_b577_0277539c0fc4" xlink:title="hasMember">
<polygon fill="#0079ba" stroke="#000000" points="341.5,-210 259.5,-210 259.5,-174 341.5,-174 341.5,-210"/>
<text text-anchor="middle" x="300.5" y="-188.3" font-family="Times,serif" font-size="14.00" fill="#ffffff">hasMember</text>
</a>
</g>
</g>
<!-- hasMember&#45;&gt;hasProperPart -->
<g id="edge5" class="edge">
<title>hasMember&#45;&gt;hasProperPart</title>
<path fill="none" stroke="#000000" d="M296.5632,-210.0265C293.9902,-221.8082 290.5765,-237.4393 287.6495,-250.8419"/>
<polygon fill="none" stroke="#000000" points="284.1461,-250.4801 285.4318,-260.9966 290.9849,-251.9737 284.1461,-250.4801"/>
<text text-anchor="middle" x="302" y="-231.8" font-family="Times,serif" font-size="14.00" fill="#000000">isA</text>
</g>
<!-- hasProperParticipant -->
<g id="node5" class="node">
<title>hasProperParticipant</title>
<g id="a_node5"><a xlink:href="http://emmo.info/emmo/middle/holistic#EMMO_c5aae418_1622_4d02_93c5_21159e28e6c1" xlink:title="hasProperParticipant">
<polygon fill="#0079ba" stroke="#000000" points="129,-210 0,-210 0,-174 129,-174 129,-210"/>
<text text-anchor="middle" x="64.5" y="-188.3" font-family="Times,serif" font-size="14.00" fill="#ffffff">hasProperParticipant</text>
</a>
</g>
</g>
<!-- hasProperParticipant&#45;&gt;hasParticipant -->
<g id="edge12" class="edge">
<title>hasProperParticipant&#45;&gt;hasParticipant</title>
<path fill="none" stroke="#000000" d="M78.7968,-210.0265C88.6036,-222.3915 101.773,-238.9964 112.7328,-252.8153"/>
<polygon fill="none" stroke="#000000" points="110.2652,-255.3365 119.2215,-260.9966 115.7497,-250.9867 110.2652,-255.3365"/>
<text text-anchor="middle" x="113" y="-231.8" font-family="Times,serif" font-size="14.00" fill="#000000">isA</text>
</g>
<!-- hasProperParticipant&#45;&gt;hasProperPart -->
<g id="edge13" class="edge">
<title>hasProperParticipant&#45;&gt;hasProperPart</title>
<path fill="none" stroke="#000000" d="M109.4625,-210.0265C143.65,-223.733 190.8321,-242.6493 227.1392,-257.2056"/>
<polygon fill="none" stroke="#000000" points="226.0108,-260.5239 236.5951,-260.9966 228.6157,-254.0267 226.0108,-260.5239"/>
<text text-anchor="middle" x="196" y="-231.8" font-family="Times,serif" font-size="14.00" fill="#000000">isA</text>
</g>
<!-- hasTemporalDirectPart -->
<g id="node6" class="node">
<title>hasTemporalDirectPart</title>
<g id="a_node6"><a xlink:href="http://emmo.info/emmo/middle/reductionistic#EMMO_65a2c5b8_e4d8_4a51_b2f8_e55effc0547d" xlink:title="hasTemporalDirectPart">
<polygon fill="#0079ba" stroke="#000000" points="673,-123 530,-123 530,-87 673,-87 673,-123"/>
<text text-anchor="middle" x="601.5" y="-101.3" font-family="Times,serif" font-size="14.00" fill="#ffffff">hasTemporalDirectPart</text>
</a>
</g>
</g>
<!-- hasTemporalPart -->
<g id="node8" class="node">
<title>hasTemporalPart</title>
<g id="a_node8"><a xlink:href="http://emmo.info/emmo/top/physical#EMMO_7afbed84_7593_4a23_bd88_9d9c6b04e8f6" xlink:title="hasTemporalPart">
<polygon fill="#0079ba" stroke="#000000" points="648.5,-210 538.5,-210 538.5,-174 648.5,-174 648.5,-210"/>
<text text-anchor="middle" x="593.5" y="-188.3" font-family="Times,serif" font-size="14.00" fill="#ffffff">hasTemporalPart</text>
</a>
</g>
</g>
<!-- hasTemporalDirectPart&#45;&gt;hasTemporalPart -->
<g id="edge7" class="edge">
<title>hasTemporalDirectPart&#45;&gt;hasTemporalPart</title>
<path fill="none" stroke="#000000" d="M599.8424,-123.0265C598.759,-134.8082 597.3217,-150.4393 596.0892,-163.8419"/>
<polygon fill="none" stroke="#000000" points="592.586,-163.7181 595.1555,-173.9966 599.5565,-164.3592 592.586,-163.7181"/>
<text text-anchor="middle" x="608" y="-144.8" font-family="Times,serif" font-size="14.00" fill="#000000">isA</text>
</g>
<!-- hasSpatioTemporalPart -->
<g id="node7" class="node">
<title>hasSpatioTemporalPart</title>
<g id="a_node7"><a xlink:href="http://emmo.info/emmo/top/physical#EMMO_6e046dd0_9634_4013_b2b1_9cc468087c83" xlink:title="hasSpatioTemporalPart">
<polygon fill="#0079ba" stroke="#000000" points="503.5,-210 359.5,-210 359.5,-174 503.5,-174 503.5,-210"/>
<text text-anchor="middle" x="431.5" y="-188.3" font-family="Times,serif" font-size="14.00" fill="#ffffff">hasSpatioTemporalPart</text>
</a>
</g>
</g>
<!-- hasSpatioTemporalPart&#45;&gt;hasProperPart -->
<g id="edge8" class="edge">
<title>hasSpatioTemporalPart&#45;&gt;hasProperPart</title>
<path fill="none" stroke="#000000" d="M400.4199,-210.0265C377.4919,-223.3247 346.1087,-241.527 321.3389,-255.8935"/>
<polygon fill="none" stroke="#000000" points="319.4346,-252.9518 312.5403,-260.9966 322.9466,-259.007 319.4346,-252.9518"/>
<text text-anchor="middle" x="375" y="-231.8" font-family="Times,serif" font-size="14.00" fill="#000000">isA</text>
</g>
<!-- hasTemporalPart&#45;&gt;hasProperPart -->
<g id="edge10" class="edge">
<title>hasTemporalPart&#45;&gt;hasProperPart</title>
<path fill="none" stroke="#000000" d="M538.4389,-207.3536C481.9983,-223.0918 394.6654,-247.4443 337.7837,-263.3055"/>
<polygon fill="none" stroke="#000000" points="336.5729,-260.0095 327.8805,-266.067 338.4532,-266.7523 336.5729,-260.0095"/>
<text text-anchor="middle" x="466" y="-231.8" font-family="Times,serif" font-size="14.00" fill="#000000">isA</text>
</g>
<!-- hasProperPart&#45;&gt;hasPart -->
<g id="edge1" class="edge">
<title>hasProperPart&#45;&gt;hasPart</title>
<path fill="none" stroke="#000000" d="M262.2303,-297.0265C248.6385,-309.7414 230.2541,-326.9397 215.2437,-340.9817"/>
<polygon fill="none" stroke="#000000" points="212.6567,-338.6091 207.745,-347.9966 217.4388,-343.721 212.6567,-338.6091"/>
<text text-anchor="middle" x="251" y="-318.8" font-family="Times,serif" font-size="14.00" fill="#000000">isA</text>
</g>
<!-- hasSpatioTemporalDirectPart -->
<g id="node10" class="node">
<title>hasSpatioTemporalDirectPart</title>
<g id="a_node10"><a xlink:href="http://emmo.info/emmo/middle/reductionistic#EMMO_663859e5_add3_4c9e_96fb_c99399de278d" xlink:title="hasSpatioTemporalDirectPart">
<polygon fill="#0079ba" stroke="#000000" points="511.5,-123 333.5,-123 333.5,-87 511.5,-87 511.5,-123"/>
<text text-anchor="middle" x="422.5" y="-101.3" font-family="Times,serif" font-size="14.00" fill="#ffffff">hasSpatioTemporalDirectPart</text>
</a>
</g>
</g>
<!-- hasSpatioTemporalDirectPart&#45;&gt;hasSpatioTemporalPart -->
<g id="edge4" class="edge">
<title>hasSpatioTemporalDirectPart&#45;&gt;hasSpatioTemporalPart</title>
<path fill="none" stroke="#000000" d="M424.3648,-123.0265C425.5836,-134.8082 427.2006,-150.4393 428.5871,-163.8419"/>
<polygon fill="none" stroke="#000000" points="425.1271,-164.4099 429.6376,-173.9966 432.0899,-163.6895 425.1271,-164.4099"/>
<text text-anchor="middle" x="438" y="-144.8" font-family="Times,serif" font-size="14.00" fill="#000000">isA</text>
</g>
<!-- hasSpatialDirectPart -->
<g id="node11" class="node">
<title>hasSpatialDirectPart</title>
<g id="a_node11"><a xlink:href="http://emmo.info/emmo/middle/reductionistic#EMMO_b2282816_b7a3_44c6_b2cb_3feff1ceb7fe" xlink:title="hasSpatialDirectPart">
<polygon fill="#0079ba" stroke="#000000" points="258.5,-123 130.5,-123 130.5,-87 258.5,-87 258.5,-123"/>
<text text-anchor="middle" x="194.5" y="-101.3" font-family="Times,serif" font-size="14.00" fill="#ffffff">hasSpatialDirectPart</text>
</a>
</g>
</g>
<!-- hasSpatialDirectPart&#45;&gt;hasSpatialPart -->
<g id="edge11" class="edge">
<title>hasSpatialDirectPart&#45;&gt;hasSpatialPart</title>
<path fill="none" stroke="#000000" d="M194.5,-123.0265C194.5,-134.8082 194.5,-150.4393 194.5,-163.8419"/>
<polygon fill="none" stroke="#000000" points="191.0001,-163.9966 194.5,-173.9966 198.0001,-163.9967 191.0001,-163.9966"/>
<text text-anchor="middle" x="204" y="-144.8" font-family="Times,serif" font-size="14.00" fill="#000000">isA</text>
</g>
<!-- hasReferenceUnit -->
<g id="node12" class="node">
<title>hasReferenceUnit</title>
<g id="a_node12"><a xlink:href="http://emmo.info/emmo/middle/units#EMMO_67fc0a36_8dcb_4ffa_9a43_31074efa3296" xlink:title="hasReferenceUnit">
<polygon fill="#0079ba" stroke="#000000" points="185,-36 72,-36 72,0 185,0 185,-36"/>
<text text-anchor="middle" x="128.5" y="-14.3" font-family="Times,serif" font-size="14.00" fill="#ffffff">hasReferenceUnit</text>
</a>
</g>
</g>
<!-- hasReferenceUnit&#45;&gt;hasSpatialDirectPart -->
<g id="edge9" class="edge">
<title>hasReferenceUnit&#45;&gt;hasSpatialDirectPart</title>
<path fill="none" stroke="#000000" d="M142.1752,-36.0265C151.5556,-48.3915 164.1525,-64.9964 174.6357,-78.8153"/>
<polygon fill="none" stroke="#000000" points="172.0099,-81.1451 180.8423,-86.9966 177.5868,-76.9143 172.0099,-81.1451"/>
<text text-anchor="middle" x="175" y="-57.8" font-family="Times,serif" font-size="14.00" fill="#000000">isA</text>
</g>
<!-- hasQuantityValue -->
<g id="node13" class="node">
<title>hasQuantityValue</title>
<g id="a_node13"><a xlink:href="http://emmo.info/emmo/middle/units#EMMO_8ef3cd6d_ae58_4a8d_9fc0_ad8f49015cd0" xlink:title="hasQuantityValue">
<polygon fill="#0079ba" stroke="#000000" points="317.5,-36 203.5,-36 203.5,0 317.5,0 317.5,-36"/>
<text text-anchor="middle" x="260.5" y="-14.3" font-family="Times,serif" font-size="14.00" fill="#ffffff">hasQuantityValue</text>
</a>
</g>
</g>
<!-- hasQuantityValue&#45;&gt;hasSpatialDirectPart -->
<g id="edge2" class="edge">
<title>hasQuantityValue&#45;&gt;hasSpatialDirectPart</title>
<path fill="none" stroke="#000000" d="M246.8248,-36.0265C237.4444,-48.3915 224.8475,-64.9964 214.3643,-78.8153"/>
<polygon fill="none" stroke="#000000" points="211.4132,-76.9143 208.1577,-86.9966 216.9901,-81.1451 211.4132,-76.9143"/>
<text text-anchor="middle" x="241" y="-57.8" font-family="Times,serif" font-size="14.00" fill="#000000">isA</text>
</g>
</g>
</svg>
