<?xml version="1.0" encoding="UTF-8" standalone="no"?>
<!DOCTYPE svg PUBLIC "-//W3C//DTD SVG 1.1//EN"
 "http://www.w3.org/Graphics/SVG/1.1/DTD/svg11.dtd">
<!-- Generated by graphviz version 2.40.1 (20161225.0304)
 -->
<!-- Title: %3 Pages: 1 -->
<svg width="574pt" height="1394pt"
 viewBox="0.00 0.00 574.26 1394.00" xmlns="http://www.w3.org/2000/svg" xmlns:xlink="http://www.w3.org/1999/xlink">
<g id="graph0" class="graph" transform="scale(1 1) rotate(0) translate(4 1390)">
<title>%3</title>
<polygon fill="#ffffff" stroke="transparent" points="-4,4 -4,-1390 570.2595,-1390 570.2595,4 -4,4"/>
<!-- Hertz -->
<g id="node1" class="node">
<title>Hertz</title>
<g id="a_node1"><a xlink:href="http://emmo.info/emmo/middle/siunits#EMMO_e75f580e_52bf_4dd5_af70_df409cec08fd" xlink:title="Hertz">
<ellipse fill="#ffffcc" stroke="#000000" cx="522.0634" cy="-1368" rx="30.5947" ry="18"/>
<text text-anchor="middle" x="522.0634" y="-1364.3" font-family="Times,serif" font-size="14.00" fill="#000000">Hertz</text>
</a>
</g>
</g>
<!-- FrequencyUnit -->
<g id="node28" class="node">
<title>FrequencyUnit</title>
<g id="a_node28"><a xlink:href="http://emmo.info/emmo/middle/isq#EMMO_12c39388_9f81_4908_98a9_9fe5f78ae468" xlink:title="FrequencyUnit">
<ellipse fill="#ffffcc" stroke="#000000" cx="292.229" cy="-1368" rx="63.8893" ry="18"/>
<text text-anchor="middle" x="292.229" y="-1364.3" font-family="Times,serif" font-size="14.00" fill="#000000">FrequencyUnit</text>
</a>
</g>
</g>
<!-- Hertz&#45;&gt;FrequencyUnit -->
<g id="edge9" class="edge">
<title>Hertz&#45;&gt;FrequencyUnit</title>
<path fill="none" stroke="#000000" d="M491.0669,-1368C459.2589,-1368 408.5899,-1368 366.3629,-1368"/>
<polygon fill="none" stroke="#000000" points="366.1052,-1364.5001 356.1052,-1368 366.1051,-1371.5001 366.1052,-1364.5001"/>
<text text-anchor="middle" x="450.3674" y="-1371.8" font-family="Times,serif" font-size="14.00" fill="#000000">isA</text>
</g>
<!-- Weber -->
<g id="node2" class="node">
<title>Weber</title>
<g id="a_node2"><a xlink:href="http://emmo.info/emmo/middle/siunits#EMMO_d7f11b34_a121_4519_87c0_aa754f1c4737" xlink:title="Weber">
<ellipse fill="#ffffcc" stroke="#000000" cx="522.0634" cy="-1314" rx="34.394" ry="18"/>
<text text-anchor="middle" x="522.0634" y="-1310.3" font-family="Times,serif" font-size="14.00" fill="#000000">Weber</text>
</a>
</g>
</g>
<!-- MagneticFluxUnit -->
<g id="node5" class="node">
<title>MagneticFluxUnit</title>
<g id="a_node5"><a xlink:href="http://emmo.info/emmo/middle/isq#EMMO_e06e0563_8014_42a1_be32_f2717a62b15f" xlink:title="MagneticFluxUnit">
<ellipse fill="#ffffcc" stroke="#000000" cx="292.229" cy="-1314" rx="76.0865" ry="18"/>
<text text-anchor="middle" x="292.229" y="-1310.3" font-family="Times,serif" font-size="14.00" fill="#000000">MagneticFluxUnit</text>
</a>
</g>
</g>
<!-- Weber&#45;&gt;MagneticFluxUnit -->
<g id="edge41" class="edge">
<title>Weber&#45;&gt;MagneticFluxUnit</title>
<path fill="none" stroke="#000000" d="M487.1565,-1314C458.4602,-1314 416.5495,-1314 378.9365,-1314"/>
<polygon fill="none" stroke="#000000" points="378.4563,-1310.5001 368.4562,-1314 378.4562,-1317.5001 378.4563,-1310.5001"/>
<text text-anchor="middle" x="450.3674" y="-1317.8" font-family="Times,serif" font-size="14.00" fill="#000000">isA</text>
</g>
<!-- Volt -->
<g id="node3" class="node">
<title>Volt</title>
<g id="a_node3"><a xlink:href="http://emmo.info/emmo/middle/siunits#EMMO_e2207e91_02b0_4a8a_b13e_61d2a2a839f1" xlink:title="Volt">
<ellipse fill="#ffffcc" stroke="#000000" cx="522.0634" cy="-396" rx="27" ry="18"/>
<text text-anchor="middle" x="522.0634" y="-392.3" font-family="Times,serif" font-size="14.00" fill="#000000">Volt</text>
</a>
</g>
</g>
<!-- ElectricPotentialUnit -->
<g id="node29" class="node">
<title>ElectricPotentialUnit</title>
<g id="a_node29"><a xlink:href="http://emmo.info/emmo/middle/isq#EMMO_ef52f94e_e50d_4149_8d95_0e2960bf85a3" xlink:title="ElectricPotentialUnit">
<ellipse fill="#ffffcc" stroke="#000000" cx="292.229" cy="-396" rx="85.2851" ry="18"/>
<text text-anchor="middle" x="292.229" y="-392.3" font-family="Times,serif" font-size="14.00" fill="#000000">ElectricPotentialUnit</text>
</a>
</g>
</g>
<!-- Volt&#45;&gt;ElectricPotentialUnit -->
<g id="edge10" class="edge">
<title>Volt&#45;&gt;ElectricPotentialUnit</title>
<path fill="none" stroke="#000000" d="M494.7959,-396C468.3261,-396 426.5814,-396 387.8479,-396"/>
<polygon fill="none" stroke="#000000" points="387.5493,-392.5001 377.5493,-396 387.5492,-399.5001 387.5493,-392.5001"/>
<text text-anchor="middle" x="450.3674" y="-399.8" font-family="Times,serif" font-size="14.00" fill="#000000">isA</text>
</g>
<!-- Gray -->
<g id="node4" class="node">
<title>Gray</title>
<g id="a_node4"><a xlink:href="http://emmo.info/emmo/middle/siunits#EMMO_00199e76_69dc_45b6_a9c6_98cc90cdc0f5" xlink:title="Gray">
<ellipse fill="#ffffcc" stroke="#000000" cx="522.0634" cy="-126" rx="28.6953" ry="18"/>
<text text-anchor="middle" x="522.0634" y="-122.3" font-family="Times,serif" font-size="14.00" fill="#000000">Gray</text>
</a>
</g>
</g>
<!-- AbsorbedDoseUnit -->
<g id="node42" class="node">
<title>AbsorbedDoseUnit</title>
<g id="a_node42"><a xlink:href="http://emmo.info/emmo/middle/isq#EMMO_882966a9_1757_4384_b223_0f690d7906c8" xlink:title="AbsorbedDoseUnit">
<ellipse fill="#ffffcc" stroke="#000000" cx="292.229" cy="-126" rx="78.7863" ry="18"/>
<text text-anchor="middle" x="292.229" y="-122.3" font-family="Times,serif" font-size="14.00" fill="#000000">AbsorbedDoseUnit</text>
</a>
</g>
</g>
<!-- Gray&#45;&gt;AbsorbedDoseUnit -->
<g id="edge3" class="edge">
<title>Gray&#45;&gt;AbsorbedDoseUnit</title>
<path fill="none" stroke="#000000" d="M493.4194,-126C465.2979,-126 420.9329,-126 381.0113,-126"/>
<polygon fill="none" stroke="#000000" points="380.9702,-122.5001 370.9701,-126 380.9701,-129.5001 380.9702,-122.5001"/>
<text text-anchor="middle" x="450.3674" y="-129.8" font-family="Times,serif" font-size="14.00" fill="#000000">isA</text>
</g>
<!-- KindOfUnit -->
<g id="node23" class="node">
<title>KindOfUnit</title>
<g id="a_node23"><a xlink:href="http://emmo.info/emmo/middle/units#EMMO_ba827fd2_91cc_4085_947a_0f47559b4441" xlink:title="KindOfUnit">
<ellipse fill="#ffffcc" stroke="#000000" stroke-width="2" cx="53.2953" cy="-697" rx="53.0913" ry="18"/>
<text text-anchor="middle" x="53.2953" y="-693.3" font-family="Times,serif" font-size="14.00" fill="#000000">KindOfUnit</text>
</a>
</g>
</g>
<!-- MagneticFluxUnit&#45;&gt;KindOfUnit -->
<g id="edge44" class="edge">
<title>MagneticFluxUnit&#45;&gt;KindOfUnit</title>
<path fill="none" stroke="#000000" d="M219.4068,-1308.6644C199.4971,-1304.7037 178.7104,-1298.0577 161.5905,-1287 138.0672,-1271.8063 134.9664,-1262.0104 124.5905,-1236 86.7891,-1141.239 61.9919,-822.1901 55.1907,-725.2024"/>
<polygon fill="none" stroke="#000000" points="58.667,-724.7383 54.4848,-715.0039 51.6837,-725.2217 58.667,-724.7383"/>
<text text-anchor="middle" x="134.0905" y="-1274.8" font-family="Times,serif" font-size="14.00" fill="#000000">isA</text>
</g>
<!-- EquivalentDoseUnit -->
<g id="node6" class="node">
<title>EquivalentDoseUnit</title>
<g id="a_node6"><a xlink:href="http://emmo.info/emmo/middle/isq#EMMO_606db3fb_6f05_483c_87da_673afdd64a17" xlink:title="EquivalentDoseUnit">
<ellipse fill="#ffffcc" stroke="#000000" cx="292.229" cy="-1260" rx="82.5854" ry="18"/>
<text text-anchor="middle" x="292.229" y="-1256.3" font-family="Times,serif" font-size="14.00" fill="#000000">EquivalentDoseUnit</text>
</a>
</g>
</g>
<!-- EquivalentDoseUnit&#45;&gt;KindOfUnit -->
<g id="edge32" class="edge">
<title>EquivalentDoseUnit&#45;&gt;KindOfUnit</title>
<path fill="none" stroke="#000000" d="M214.6413,-1253.6674C196.2134,-1249.6185 177.3486,-1243.1781 161.5905,-1233 138.0672,-1217.8063 135.154,-1207.9347 124.5905,-1182 90.2702,-1097.7391 63.5464,-815.918 55.6699,-725.3128"/>
<polygon fill="none" stroke="#000000" points="59.1475,-724.9007 54.8036,-715.2374 52.1732,-725.5005 59.1475,-724.9007"/>
<text text-anchor="middle" x="134.0905" y="-1220.8" font-family="Times,serif" font-size="14.00" fill="#000000">isA</text>
</g>
<!-- CataliticActivityUnit -->
<g id="node7" class="node">
<title>CataliticActivityUnit</title>
<g id="a_node7"><a xlink:href="http://emmo.info/emmo/middle/isq#EMMO_b5773f1e_2d8d_428b_b8a2_cf463be6f1ae" xlink:title="CataliticActivityUnit">
<ellipse fill="#ffffcc" stroke="#000000" cx="292.229" cy="-1206" rx="85.2851" ry="18"/>
<text text-anchor="middle" x="292.229" y="-1202.3" font-family="Times,serif" font-size="14.00" fill="#000000">CataliticActivityUnit</text>
</a>
</g>
</g>
<!-- CataliticActivityUnit&#45;&gt;KindOfUnit -->
<g id="edge43" class="edge">
<title>CataliticActivityUnit&#45;&gt;KindOfUnit</title>
<path fill="none" stroke="#000000" d="M212.9338,-1199.2856C195.0518,-1195.2173 176.8622,-1188.864 161.5905,-1179 138.0672,-1163.8063 135.3867,-1153.8387 124.5905,-1128 93.7074,-1054.0867 65.2472,-808.6913 56.2393,-725.1405"/>
<polygon fill="none" stroke="#000000" points="59.7108,-724.6863 55.1683,-715.1147 52.7504,-725.4299 59.7108,-724.6863"/>
<text text-anchor="middle" x="134.0905" y="-1166.8" font-family="Times,serif" font-size="14.00" fill="#000000">isA</text>
</g>
<!-- Sievert -->
<g id="node8" class="node">
<title>Sievert</title>
<g id="a_node8"><a xlink:href="http://emmo.info/emmo/middle/siunits#EMMO_dc232f53_8ed8_4ddd_9f41_cc057985eadb" xlink:title="Sievert">
<ellipse fill="#ffffcc" stroke="#000000" cx="522.0634" cy="-1260" rx="35.9954" ry="18"/>
<text text-anchor="middle" x="522.0634" y="-1256.3" font-family="Times,serif" font-size="14.00" fill="#000000">Sievert</text>
</a>
</g>
</g>
<!-- Sievert&#45;&gt;EquivalentDoseUnit -->
<g id="edge12" class="edge">
<title>Sievert&#45;&gt;EquivalentDoseUnit</title>
<path fill="none" stroke="#000000" d="M486.1518,-1260C459.1482,-1260 420.8639,-1260 385.4364,-1260"/>
<polygon fill="none" stroke="#000000" points="385.0421,-1256.5001 375.0421,-1260 385.0421,-1263.5001 385.0421,-1256.5001"/>
<text text-anchor="middle" x="450.3674" y="-1263.8" font-family="Times,serif" font-size="14.00" fill="#000000">isA</text>
</g>
<!-- MassUnit -->
<g id="node9" class="node">
<title>MassUnit</title>
<g id="a_node9"><a xlink:href="http://emmo.info/emmo/middle/isq#EMMO_8d9caab6_452d_420a_9d21_11baae773bf9" xlink:title="MassUnit">
<ellipse fill="#ffc880" stroke="#000000" cx="292.229" cy="-1152" rx="45.4919" ry="18"/>
<text text-anchor="middle" x="292.229" y="-1148.3" font-family="Times,serif" font-size="14.00" fill="#000000">MassUnit</text>
</a>
</g>
</g>
<!-- MassUnit&#45;&gt;KindOfUnit -->
<g id="edge19" class="edge">
<title>MassUnit&#45;&gt;KindOfUnit</title>
<path fill="none" stroke="#000000" d="M246.8205,-1150.688C220.1743,-1148.0426 186.8813,-1141.3353 161.5905,-1125 138.0672,-1109.8063 135.6828,-1099.713 124.5905,-1074 71.7135,-951.4253 57.9325,-789.7243 54.4408,-725.2739"/>
<polygon fill="none" stroke="#000000" points="57.9268,-724.9042 53.9325,-715.0912 50.9355,-725.2533 57.9268,-724.9042"/>
<text text-anchor="middle" x="134.0905" y="-1112.8" font-family="Times,serif" font-size="14.00" fill="#000000">isA</text>
</g>
<!-- PressureUnit -->
<g id="node10" class="node">
<title>PressureUnit</title>
<g id="a_node10"><a xlink:href="http://emmo.info/emmo/middle/isq#EMMO_247f53b1_afec_4373_acd8_ba071b355dfd" xlink:title="PressureUnit">
<ellipse fill="#ffffcc" stroke="#000000" cx="292.229" cy="-1098" rx="55.7903" ry="18"/>
<text text-anchor="middle" x="292.229" y="-1094.3" font-family="Times,serif" font-size="14.00" fill="#000000">PressureUnit</text>
</a>
</g>
</g>
<!-- PressureUnit&#45;&gt;KindOfUnit -->
<g id="edge11" class="edge">
<title>PressureUnit&#45;&gt;KindOfUnit</title>
<path fill="none" stroke="#000000" d="M236.7693,-1095.4195C212.175,-1092.1294 183.8359,-1085.2199 161.5905,-1071 138.2978,-1056.1106 136.0353,-1046.1647 124.5905,-1021 77.8858,-918.3055 60.9133,-783.0799 55.5172,-725.2264"/>
<polygon fill="none" stroke="#000000" points="58.9831,-724.6858 54.6133,-715.0341 52.0105,-725.3042 58.9831,-724.6858"/>
<text text-anchor="middle" x="134.0905" y="-1058.8" font-family="Times,serif" font-size="14.00" fill="#000000">isA</text>
</g>
<!-- ElectricChargeUnit -->
<g id="node11" class="node">
<title>ElectricChargeUnit</title>
<g id="a_node11"><a xlink:href="http://emmo.info/emmo/middle/isq#EMMO_797ad1c0_0197_4020_8c9a_4f808e5c5d42" xlink:title="ElectricChargeUnit">
<ellipse fill="#ffffcc" stroke="#000000" cx="292.229" cy="-1044" rx="79.0865" ry="18"/>
<text text-anchor="middle" x="292.229" y="-1040.3" font-family="Times,serif" font-size="14.00" fill="#000000">ElectricChargeUnit</text>
</a>
</g>
</g>
<!-- ElectricChargeUnit&#45;&gt;KindOfUnit -->
<g id="edge37" class="edge">
<title>ElectricChargeUnit&#45;&gt;KindOfUnit</title>
<path fill="none" stroke="#000000" d="M217.1631,-1037.9666C197.9845,-1033.9567 178.1303,-1027.4602 161.5905,-1017 138.5268,-1002.4139 136.5096,-992.5485 124.5905,-968 84.2209,-884.8547 64.5039,-775.8626 57.0195,-725.1806"/>
<polygon fill="none" stroke="#000000" points="60.4844,-724.6853 55.6051,-715.2809 53.5547,-725.6755 60.4844,-724.6853"/>
<text text-anchor="middle" x="134.0905" y="-1005.8" font-family="Times,serif" font-size="14.00" fill="#000000">isA</text>
</g>
<!-- LuminousFluxUnit -->
<g id="node12" class="node">
<title>LuminousFluxUnit</title>
<g id="a_node12"><a xlink:href="http://emmo.info/emmo/middle/isq#EMMO_0aa9cd85_a008_4f6a_b94b_585e54c18799" xlink:title="LuminousFluxUnit">
<ellipse fill="#ffffcc" stroke="#000000" cx="292.229" cy="-990" rx="78.7863" ry="18"/>
<text text-anchor="middle" x="292.229" y="-986.3" font-family="Times,serif" font-size="14.00" fill="#000000">LuminousFluxUnit</text>
</a>
</g>
</g>
<!-- LuminousFluxUnit&#45;&gt;KindOfUnit -->
<g id="edge38" class="edge">
<title>LuminousFluxUnit&#45;&gt;KindOfUnit</title>
<path fill="none" stroke="#000000" d="M217.3677,-984.2499C198.0841,-980.2454 178.1268,-973.6808 161.5905,-963 79.5498,-910.0099 59.6541,-782.3825 54.8339,-725.3564"/>
<polygon fill="none" stroke="#000000" points="58.3141,-724.9599 54.0772,-715.2492 51.3337,-725.4826 58.3141,-724.9599"/>
<text text-anchor="middle" x="134.0905" y="-952.8" font-family="Times,serif" font-size="14.00" fill="#000000">isA</text>
</g>
<!-- TimeUnit -->
<g id="node13" class="node">
<title>TimeUnit</title>
<g id="a_node13"><a xlink:href="http://emmo.info/emmo/middle/isq#EMMO_d69cb991_73c2_4381_bb92_982d702f624e" xlink:title="TimeUnit">
<ellipse fill="#ffc880" stroke="#000000" cx="292.229" cy="-936" rx="45.4919" ry="18"/>
<text text-anchor="middle" x="292.229" y="-932.3" font-family="Times,serif" font-size="14.00" fill="#000000">TimeUnit</text>
</a>
</g>
</g>
<!-- TimeUnit&#45;&gt;KindOfUnit -->
<g id="edge24" class="edge">
<title>TimeUnit&#45;&gt;KindOfUnit</title>
<path fill="none" stroke="#000000" d="M246.659,-934.9342C219.9556,-932.3762 186.6591,-925.6741 161.5905,-909 96.9649,-866.0149 68.8774,-772.0099 58.4984,-724.9715"/>
<polygon fill="none" stroke="#000000" points="61.9163,-724.2166 56.4392,-715.1473 55.0652,-725.6527 61.9163,-724.2166"/>
<text text-anchor="middle" x="134.0905" y="-896.8" font-family="Times,serif" font-size="14.00" fill="#000000">isA</text>
</g>
<!-- ElectricalInductanceUnit -->
<g id="node14" class="node">
<title>ElectricalInductanceUnit</title>
<g id="a_node14"><a xlink:href="http://emmo.info/emmo/middle/isq#EMMO_244d0ad2_7392_41f3_af1f_c7f1a7ae8832" xlink:title="ElectricalInductanceUnit">
<ellipse fill="#ffffcc" stroke="#000000" cx="292.229" cy="-882" rx="98.5829" ry="18"/>
<text text-anchor="middle" x="292.229" y="-878.3" font-family="Times,serif" font-size="14.00" fill="#000000">ElectricalInductanceUnit</text>
</a>
</g>
</g>
<!-- ElectricalInductanceUnit&#45;&gt;KindOfUnit -->
<g id="edge36" class="edge">
<title>ElectricalInductanceUnit&#45;&gt;KindOfUnit</title>
<path fill="none" stroke="#000000" d="M205.9482,-873.2149C190.4184,-869.1712 174.9423,-863.3514 161.5905,-855 135.6953,-838.8028 91.204,-764.5005 68.1364,-723.8186"/>
<polygon fill="none" stroke="#000000" points="71.1095,-721.9652 63.1547,-714.9672 65.0093,-725.3985 71.1095,-721.9652"/>
<text text-anchor="middle" x="134.0905" y="-839.8" font-family="Times,serif" font-size="14.00" fill="#000000">isA</text>
</g>
<!-- LuminousIntensityUnit -->
<g id="node15" class="node">
<title>LuminousIntensityUnit</title>
<g id="a_node15"><a xlink:href="http://emmo.info/emmo/middle/isq#EMMO_b120c538_6320_470c_b9bd_c8d088694973" xlink:title="LuminousIntensityUnit">
<ellipse fill="#ffc880" stroke="#000000" cx="292.229" cy="-828" rx="92.8835" ry="18"/>
<text text-anchor="middle" x="292.229" y="-824.3" font-family="Times,serif" font-size="14.00" fill="#000000">LuminousIntensityUnit</text>
</a>
</g>
</g>
<!-- LuminousIntensityUnit&#45;&gt;KindOfUnit -->
<g id="edge42" class="edge">
<title>LuminousIntensityUnit&#45;&gt;KindOfUnit</title>
<path fill="none" stroke="#000000" d="M212.0534,-818.806C194.7729,-814.8327 177.0637,-809.144 161.5905,-801 125.2743,-781.8857 92.6677,-746.9475 72.9431,-722.8777"/>
<polygon fill="none" stroke="#000000" points="75.5034,-720.4756 66.5186,-714.861 70.041,-724.8531 75.5034,-720.4756"/>
<text text-anchor="middle" x="134.0905" y="-791.8" font-family="Times,serif" font-size="14.00" fill="#000000">isA</text>
</g>
<!-- MagneticFluxDensityUnit -->
<g id="node16" class="node">
<title>MagneticFluxDensityUnit</title>
<g id="a_node16"><a xlink:href="http://emmo.info/emmo/middle/isq#EMMO_fd2aec9a_9d61_4a06_82d0_1c98b588ce4b" xlink:title="MagneticFluxDensityUnit">
<ellipse fill="#ffffcc" stroke="#000000" cx="292.229" cy="-774" rx="103.1819" ry="18"/>
<text text-anchor="middle" x="292.229" y="-770.3" font-family="Times,serif" font-size="14.00" fill="#000000">MagneticFluxDensityUnit</text>
</a>
</g>
</g>
<!-- MagneticFluxDensityUnit&#45;&gt;KindOfUnit -->
<g id="edge33" class="edge">
<title>MagneticFluxDensityUnit&#45;&gt;KindOfUnit</title>
<path fill="none" stroke="#000000" d="M217.186,-761.5534C198.7871,-757.6664 179.2983,-752.8323 161.5905,-747 137.37,-739.0226 111.3933,-727.1508 90.954,-716.977"/>
<polygon fill="none" stroke="#000000" points="92.4827,-713.828 81.9789,-712.4421 89.3258,-720.0758 92.4827,-713.828"/>
<text text-anchor="middle" x="134.0905" y="-743.8" font-family="Times,serif" font-size="14.00" fill="#000000">isA</text>
</g>
<!-- Farad -->
<g id="node17" class="node">
<title>Farad</title>
<g id="a_node17"><a xlink:href="http://emmo.info/emmo/middle/siunits#EMMO_a9201b2f_e6de_442a_b3a6_d291.0.0-alphaa582" xlink:title="Farad">
<ellipse fill="#ffffcc" stroke="#000000" cx="522.0634" cy="-180" rx="30.5947" ry="18"/>
<text text-anchor="middle" x="522.0634" y="-176.3" font-family="Times,serif" font-size="14.00" fill="#000000">Farad</text>
</a>
</g>
</g>
<!-- ElectricalCapacitanceUnit -->
<g id="node40" class="node">
<title>ElectricalCapacitanceUnit</title>
<g id="a_node40"><a xlink:href="http://emmo.info/emmo/middle/isq#EMMO_588bee30_05aa_4029_9f13_97fe20188030" xlink:title="ElectricalCapacitanceUnit">
<ellipse fill="#ffffcc" stroke="#000000" cx="292.229" cy="-180" rx="102.8821" ry="18"/>
<text text-anchor="middle" x="292.229" y="-176.3" font-family="Times,serif" font-size="14.00" fill="#000000">ElectricalCapacitanceUnit</text>
</a>
</g>
</g>
<!-- Farad&#45;&gt;ElectricalCapacitanceUnit -->
<g id="edge6" class="edge">
<title>Farad&#45;&gt;ElectricalCapacitanceUnit</title>
<path fill="none" stroke="#000000" d="M491.0669,-180C468.6778,-180 436.9441,-180 405.3873,-180"/>
<polygon fill="none" stroke="#000000" points="405.1599,-176.5001 395.1598,-180 405.1598,-183.5001 405.1599,-176.5001"/>
<text text-anchor="middle" x="450.3674" y="-183.8" font-family="Times,serif" font-size="14.00" fill="#000000">isA</text>
</g>
<!-- SIBaseUnit -->
<g id="node18" class="node">
<title>SIBaseUnit</title>
<g id="a_node18"><a xlink:href="http://emmo.info/emmo/middle/siunits#EMMO_3a185e6c_9e19_4776_b583_19c978156aa0" xlink:title="SIBaseUnit">
<ellipse fill="#ffffcc" stroke="#000000" stroke-width="2" cx="292.229" cy="-720" rx="51.1914" ry="18"/>
<text text-anchor="middle" x="292.229" y="-716.3" font-family="Times,serif" font-size="14.00" fill="#000000">SIBaseUnit</text>
</a>
</g>
</g>
<!-- SIBaseUnit&#45;&gt;KindOfUnit -->
<g id="edge2" class="edge">
<title>SIBaseUnit&#45;&gt;KindOfUnit</title>
<path fill="none" stroke="#000000" d="M242.4315,-715.2064C205.3161,-711.6337 154.4105,-706.7335 114.7602,-702.9167"/>
<polygon fill="none" stroke="#000000" points="114.9674,-699.4205 104.6781,-701.9462 114.2967,-706.3883 114.9674,-699.4205"/>
<text text-anchor="middle" x="134.0905" y="-708.8" font-family="Times,serif" font-size="14.00" fill="#000000">isA</text>
</g>
<!-- Siemens -->
<g id="node19" class="node">
<title>Siemens</title>
<g id="a_node19"><a xlink:href="http://emmo.info/emmo/middle/siunits#EMMO_f2523820_04a6_44ab_bb67_8237dda2b0c2" xlink:title="Siemens">
<ellipse fill="#ffffcc" stroke="#000000" cx="522.0634" cy="-72" rx="40.8928" ry="18"/>
<text text-anchor="middle" x="522.0634" y="-68.3" font-family="Times,serif" font-size="14.00" fill="#000000">Siemens</text>
</a>
</g>
</g>
<!-- ElectricConductanceUnit -->
<g id="node43" class="node">
<title>ElectricConductanceUnit</title>
<g id="a_node43"><a xlink:href="http://emmo.info/emmo/middle/isq#EMMO_636db399_fc4c_4b21_b7a4_e068083eb42d" xlink:title="ElectricConductanceUnit">
<ellipse fill="#ffffcc" stroke="#000000" cx="292.229" cy="-72" rx="99.3824" ry="18"/>
<text text-anchor="middle" x="292.229" y="-68.3" font-family="Times,serif" font-size="14.00" fill="#000000">ElectricConductanceUnit</text>
</a>
</g>
</g>
<!-- Siemens&#45;&gt;ElectricConductanceUnit -->
<g id="edge25" class="edge">
<title>Siemens&#45;&gt;ElectricConductanceUnit</title>
<path fill="none" stroke="#000000" d="M480.9736,-72C458.7794,-72 430.2139,-72 402.0567,-72"/>
<polygon fill="none" stroke="#000000" points="401.714,-68.5001 391.714,-72 401.714,-75.5001 401.714,-68.5001"/>
<text text-anchor="middle" x="450.3674" y="-75.8" font-family="Times,serif" font-size="14.00" fill="#000000">isA</text>
</g>
<!-- ForceUnit -->
<g id="node20" class="node">
<title>ForceUnit</title>
<g id="a_node20"><a xlink:href="http://emmo.info/emmo/middle/isq#EMMO_65f9c4d6_67ee_4f36_88bf_093a17ab5644" xlink:title="ForceUnit">
<ellipse fill="#ffffcc" stroke="#000000" cx="292.229" cy="-666" rx="46.2923" ry="18"/>
<text text-anchor="middle" x="292.229" y="-662.3" font-family="Times,serif" font-size="14.00" fill="#000000">ForceUnit</text>
</a>
</g>
</g>
<!-- ForceUnit&#45;&gt;KindOfUnit -->
<g id="edge5" class="edge">
<title>ForceUnit&#45;&gt;KindOfUnit</title>
<path fill="none" stroke="#000000" d="M247.3198,-670.4261C213.5141,-673.9188 166.0669,-679.1633 124.5905,-685 120.1354,-685.6269 115.5302,-686.3136 110.9042,-687.0309"/>
<polygon fill="none" stroke="#000000" points="110.1202,-683.6115 100.7942,-688.6389 111.2199,-690.5246 110.1202,-683.6115"/>
<text text-anchor="middle" x="134.0905" y="-688.8" font-family="Times,serif" font-size="14.00" fill="#000000">isA</text>
</g>
<!-- EnergyUnit -->
<g id="node21" class="node">
<title>EnergyUnit</title>
<g id="a_node21"><a xlink:href="http://emmo.info/emmo/middle/isq#EMMO_aa06d425_d3f0_4011_a848_f93fc9d5672f" xlink:title="EnergyUnit">
<ellipse fill="#ffffcc" stroke="#000000" cx="292.229" cy="-612" rx="51.9908" ry="18"/>
<text text-anchor="middle" x="292.229" y="-608.3" font-family="Times,serif" font-size="14.00" fill="#000000">EnergyUnit</text>
</a>
</g>
</g>
<!-- EnergyUnit&#45;&gt;KindOfUnit -->
<g id="edge7" class="edge">
<title>EnergyUnit&#45;&gt;KindOfUnit</title>
<path fill="none" stroke="#000000" d="M243.5364,-618.6391C218.5621,-622.8959 187.9362,-629.4501 161.5905,-639 135.3907,-648.497 107.7235,-663.4092 86.9123,-675.7346"/>
<polygon fill="none" stroke="#000000" points="84.9118,-672.8536 78.1506,-681.0105 88.5229,-678.8503 84.9118,-672.8536"/>
<text text-anchor="middle" x="134.0905" y="-656.8" font-family="Times,serif" font-size="14.00" fill="#000000">isA</text>
</g>
<!-- ElectricalResistanceUnit -->
<g id="node22" class="node">
<title>ElectricalResistanceUnit</title>
<g id="a_node22"><a xlink:href="http://emmo.info/emmo/middle/isq#EMMO_7f559d7e_ebb0_47dc_951d_d55a50b942aa" xlink:title="ElectricalResistanceUnit">
<ellipse fill="#ffffcc" stroke="#000000" cx="292.229" cy="-558" rx="97.4827" ry="18"/>
<text text-anchor="middle" x="292.229" y="-554.3" font-family="Times,serif" font-size="14.00" fill="#000000">ElectricalResistanceUnit</text>
</a>
</g>
</g>
<!-- ElectricalResistanceUnit&#45;&gt;KindOfUnit -->
<g id="edge17" class="edge">
<title>ElectricalResistanceUnit&#45;&gt;KindOfUnit</title>
<path fill="none" stroke="#000000" d="M209.0771,-567.4192C192.6932,-571.3877 176.0986,-577.0174 161.5905,-585 123.4804,-605.9689 90.5144,-644.7921 71.2693,-670.762"/>
<polygon fill="none" stroke="#000000" points="68.311,-668.8798 65.2811,-679.0321 73.9808,-672.9852 68.311,-668.8798"/>
<text text-anchor="middle" x="134.0905" y="-612.8" font-family="Times,serif" font-size="14.00" fill="#000000">isA</text>
</g>
<!-- Watt -->
<g id="node24" class="node">
<title>Watt</title>
<g id="a_node24"><a xlink:href="http://emmo.info/emmo/middle/siunits#EMMO_080052a1_f295_44be_a60f_1326ce13f1ba" xlink:title="Watt">
<ellipse fill="#ffffcc" stroke="#000000" cx="522.0634" cy="-18" rx="28.6953" ry="18"/>
<text text-anchor="middle" x="522.0634" y="-14.3" font-family="Times,serif" font-size="14.00" fill="#000000">Watt</text>
</a>
</g>
</g>
<!-- PowerUnit -->
<g id="node45" class="node">
<title>PowerUnit</title>
<g id="a_node45"><a xlink:href="http://emmo.info/emmo/middle/isq#EMMO_80527818_8929_47df_b59c_0c56e5259cef" xlink:title="PowerUnit">
<ellipse fill="#ffffcc" stroke="#000000" cx="292.229" cy="-18" rx="48.9926" ry="18"/>
<text text-anchor="middle" x="292.229" y="-14.3" font-family="Times,serif" font-size="14.00" fill="#000000">PowerUnit</text>
</a>
</g>
</g>
<!-- Watt&#45;&gt;PowerUnit -->
<g id="edge34" class="edge">
<title>Watt&#45;&gt;PowerUnit</title>
<path fill="none" stroke="#000000" d="M493.4194,-18C458.0675,-18 397.0455,-18 351.4512,-18"/>
<polygon fill="none" stroke="#000000" points="351.3888,-14.5001 341.3888,-18 351.3888,-21.5001 351.3888,-14.5001"/>
<text text-anchor="middle" x="450.3674" y="-21.8" font-family="Times,serif" font-size="14.00" fill="#000000">isA</text>
</g>
<!-- Pascal -->
<g id="node25" class="node">
<title>Pascal</title>
<g id="a_node25"><a xlink:href="http://emmo.info/emmo/middle/siunits#EMMO_a80dc6f5_b1aa_41a7_a3a8_cd5040da2162" xlink:title="Pascal">
<ellipse fill="#ffffcc" stroke="#000000" cx="522.0634" cy="-1098" rx="33.2948" ry="18"/>
<text text-anchor="middle" x="522.0634" y="-1094.3" font-family="Times,serif" font-size="14.00" fill="#000000">Pascal</text>
</a>
</g>
</g>
<!-- Pascal&#45;&gt;PressureUnit -->
<g id="edge27" class="edge">
<title>Pascal&#45;&gt;PressureUnit</title>
<path fill="none" stroke="#000000" d="M488.6435,-1098C454.6419,-1098 401.0289,-1098 358.4006,-1098"/>
<polygon fill="none" stroke="#000000" points="358.3759,-1094.5001 348.3758,-1098 358.3758,-1101.5001 358.3759,-1094.5001"/>
<text text-anchor="middle" x="450.3674" y="-1101.8" font-family="Times,serif" font-size="14.00" fill="#000000">isA</text>
</g>
<!-- IlluminanceUnit -->
<g id="node26" class="node">
<title>IlluminanceUnit</title>
<g id="a_node26"><a xlink:href="http://emmo.info/emmo/middle/isq#EMMO_bca0c4de_62cf_4664_911b_00e49acba254" xlink:title="IlluminanceUnit">
<ellipse fill="#ffffcc" stroke="#000000" cx="292.229" cy="-504" rx="68.7879" ry="18"/>
<text text-anchor="middle" x="292.229" y="-500.3" font-family="Times,serif" font-size="14.00" fill="#000000">IlluminanceUnit</text>
</a>
</g>
</g>
<!-- IlluminanceUnit&#45;&gt;KindOfUnit -->
<g id="edge16" class="edge">
<title>IlluminanceUnit&#45;&gt;KindOfUnit</title>
<path fill="none" stroke="#000000" d="M225.3504,-508.5808C203.7641,-512.3952 180.5383,-519.1484 161.5905,-531 109.5033,-563.58 77.3942,-631.4612 62.7326,-669.5548"/>
<polygon fill="none" stroke="#000000" points="59.4226,-668.4142 59.2182,-679.0071 65.9838,-670.8537 59.4226,-668.4142"/>
<text text-anchor="middle" x="134.0905" y="-565.8" font-family="Times,serif" font-size="14.00" fill="#000000">isA</text>
</g>
<!-- ThermodynamicTemperatureUnit -->
<g id="node27" class="node">
<title>ThermodynamicTemperatureUnit</title>
<g id="a_node27"><a xlink:href="http://emmo.info/emmo/middle/isq#EMMO_f460af7c_9134_4b2f_8450_d54918a08f34" xlink:title="ThermodynamicTemperatureUnit">
<ellipse fill="#ffc880" stroke="#000000" cx="292.229" cy="-450" rx="130.777" ry="18"/>
<text text-anchor="middle" x="292.229" y="-446.3" font-family="Times,serif" font-size="14.00" fill="#000000">ThermodynamicTemperatureUnit</text>
</a>
</g>
</g>
<!-- ThermodynamicTemperatureUnit&#45;&gt;KindOfUnit -->
<g id="edge28" class="edge">
<title>ThermodynamicTemperatureUnit&#45;&gt;KindOfUnit</title>
<path fill="none" stroke="#000000" d="M194.2241,-461.9742C182.7139,-465.74 171.5424,-470.6385 161.5905,-477 93.5869,-520.47 66.912,-620.2152 57.6486,-669.0413"/>
<polygon fill="none" stroke="#000000" points="54.1963,-668.4645 55.8813,-678.9244 61.087,-669.6967 54.1963,-668.4645"/>
<text text-anchor="middle" x="134.0905" y="-509.8" font-family="Times,serif" font-size="14.00" fill="#000000">isA</text>
</g>
<!-- FrequencyUnit&#45;&gt;KindOfUnit -->
<g id="edge22" class="edge">
<title>FrequencyUnit&#45;&gt;KindOfUnit</title>
<path fill="none" stroke="#000000" d="M229.4889,-1364.4642C206.6901,-1360.8412 181.6286,-1353.9426 161.5905,-1341 138.0672,-1325.8063 134.8121,-1316.0714 124.5905,-1290 83.3251,-1184.7467 60.6312,-828.563 54.8102,-725.2856"/>
<polygon fill="none" stroke="#000000" points="58.2898,-724.8186 54.241,-715.0279 51.3005,-725.2065 58.2898,-724.8186"/>
<text text-anchor="middle" x="134.0905" y="-1329.8" font-family="Times,serif" font-size="14.00" fill="#000000">isA</text>
</g>
<!-- ElectricPotentialUnit&#45;&gt;KindOfUnit -->
<g id="edge39" class="edge">
<title>ElectricPotentialUnit&#45;&gt;KindOfUnit</title>
<path fill="none" stroke="#000000" d="M213.0007,-402.8185C195.1162,-406.8828 176.9086,-413.2082 161.5905,-423 138.2978,-437.8894 137.1748,-448.3853 124.5905,-473 90.6087,-539.4681 68.7892,-625.3119 59.1006,-668.9078"/>
<polygon fill="none" stroke="#000000" points="55.6554,-668.2801 56.9515,-678.7954 62.4957,-669.767 55.6554,-668.2801"/>
<text text-anchor="middle" x="134.0905" y="-476.8" font-family="Times,serif" font-size="14.00" fill="#000000">isA</text>
</g>
<!-- LengthUnit -->
<g id="node30" class="node">
<title>LengthUnit</title>
<g id="a_node30"><a xlink:href="http://emmo.info/emmo/middle/isq#EMMO_0fa49646_0fe0_4253_999c_bb834019844f" xlink:title="LengthUnit">
<ellipse fill="#ffc880" stroke="#000000" cx="292.229" cy="-342" rx="51.1914" ry="18"/>
<text text-anchor="middle" x="292.229" y="-338.3" font-family="Times,serif" font-size="14.00" fill="#000000">LengthUnit</text>
</a>
</g>
</g>
<!-- LengthUnit&#45;&gt;KindOfUnit -->
<g id="edge8" class="edge">
<title>LengthUnit&#45;&gt;KindOfUnit</title>
<path fill="none" stroke="#000000" d="M240.9379,-344.0524C215.4265,-347.1064 185.1043,-353.9693 161.5905,-369 138.2978,-383.8894 136.4671,-394.0361 124.5905,-419 83.7231,-504.9015 64.1583,-617.2962 56.852,-668.8904"/>
<polygon fill="none" stroke="#000000" points="53.3642,-668.5634 55.4757,-678.9457 60.2995,-669.5127 53.3642,-668.5634"/>
<text text-anchor="middle" x="134.0905" y="-422.8" font-family="Times,serif" font-size="14.00" fill="#000000">isA</text>
</g>
<!-- Katal -->
<g id="node31" class="node">
<title>Katal</title>
<g id="a_node31"><a xlink:href="http://emmo.info/emmo/middle/siunits#EMMO_33b67e69_3645_4c73_b100_5ea6759221b4" xlink:title="Katal">
<ellipse fill="#ffffcc" stroke="#000000" cx="522.0634" cy="-1206" rx="29.795" ry="18"/>
<text text-anchor="middle" x="522.0634" y="-1202.3" font-family="Times,serif" font-size="14.00" fill="#000000">Katal</text>
</a>
</g>
</g>
<!-- Katal&#45;&gt;CataliticActivityUnit -->
<g id="edge13" class="edge">
<title>Katal&#45;&gt;CataliticActivityUnit</title>
<path fill="none" stroke="#000000" d="M492.0166,-1206C465.4902,-1206 425.3324,-1206 387.9605,-1206"/>
<polygon fill="none" stroke="#000000" points="387.5072,-1202.5001 377.5072,-1206 387.5071,-1209.5001 387.5072,-1202.5001"/>
<text text-anchor="middle" x="450.3674" y="-1209.8" font-family="Times,serif" font-size="14.00" fill="#000000">isA</text>
</g>
<!-- AmountOfSubstanceUnit -->
<g id="node32" class="node">
<title>AmountOfSubstanceUnit</title>
<g id="a_node32"><a xlink:href="http://emmo.info/emmo/middle/isq#EMMO_32fb2db4_94f4_49b8_a374_ee5aa28a113e" xlink:title="AmountOfSubstanceUnit">
<ellipse fill="#ffc880" stroke="#000000" cx="292.229" cy="-288" rx="100.9827" ry="18"/>
<text text-anchor="middle" x="292.229" y="-284.3" font-family="Times,serif" font-size="14.00" fill="#000000">AmountOfSubstanceUnit</text>
</a>
</g>
</g>
<!-- AmountOfSubstanceUnit&#45;&gt;KindOfUnit -->
<g id="edge15" class="edge">
<title>AmountOfSubstanceUnit&#45;&gt;KindOfUnit</title>
<path fill="none" stroke="#000000" d="M204.4456,-296.9369C189.3909,-300.9851 174.4695,-306.7674 161.5905,-315 138.2978,-329.8894 135.9716,-339.8064 124.5905,-365 76.8384,-470.7068 60.3739,-610.0398 55.3107,-668.8698"/>
<polygon fill="none" stroke="#000000" points="51.8179,-668.64 54.493,-678.8916 58.7947,-669.2094 51.8179,-668.64"/>
<text text-anchor="middle" x="134.0905" y="-368.8" font-family="Times,serif" font-size="14.00" fill="#000000">isA</text>
</g>
<!-- Coulomb -->
<g id="node33" class="node">
<title>Coulomb</title>
<g id="a_node33"><a xlink:href="http://emmo.info/emmo/middle/siunits#EMMO_696ed548_9477_45ea_993c_6a8f5271914a" xlink:title="Coulomb">
<ellipse fill="#ffffcc" stroke="#000000" cx="522.0634" cy="-1044" rx="44.393" ry="18"/>
<text text-anchor="middle" x="522.0634" y="-1040.3" font-family="Times,serif" font-size="14.00" fill="#000000">Coulomb</text>
</a>
</g>
</g>
<!-- Coulomb&#45;&gt;ElectricChargeUnit -->
<g id="edge26" class="edge">
<title>Coulomb&#45;&gt;ElectricChargeUnit</title>
<path fill="none" stroke="#000000" d="M477.749,-1044C450.5597,-1044 414.7611,-1044 381.8693,-1044"/>
<polygon fill="none" stroke="#000000" points="381.7676,-1040.5001 371.7675,-1044 381.7675,-1047.5001 381.7676,-1040.5001"/>
<text text-anchor="middle" x="450.3674" y="-1047.8" font-family="Times,serif" font-size="14.00" fill="#000000">isA</text>
</g>
<!-- Lumen -->
<g id="node34" class="node">
<title>Lumen</title>
<g id="a_node34"><a xlink:href="http://emmo.info/emmo/middle/siunits#EMMO_d7b7fd1e_645a_42cb_8f40_85f0d034d3ae" xlink:title="Lumen">
<ellipse fill="#ffffcc" stroke="#000000" cx="522.0634" cy="-990" rx="36.2938" ry="18"/>
<text text-anchor="middle" x="522.0634" y="-986.3" font-family="Times,serif" font-size="14.00" fill="#000000">Lumen</text>
</a>
</g>
</g>
<!-- Lumen&#45;&gt;LuminousFluxUnit -->
<g id="edge31" class="edge">
<title>Lumen&#45;&gt;LuminousFluxUnit</title>
<path fill="none" stroke="#000000" d="M485.6455,-990C457.6464,-990 417.7382,-990 381.4375,-990"/>
<polygon fill="none" stroke="#000000" points="381.3074,-986.5001 371.3074,-990 381.3073,-993.5001 381.3074,-986.5001"/>
<text text-anchor="middle" x="450.3674" y="-993.8" font-family="Times,serif" font-size="14.00" fill="#000000">isA</text>
</g>
<!-- Henry -->
<g id="node35" class="node">
<title>Henry</title>
<g id="a_node35"><a xlink:href="http://emmo.info/emmo/middle/siunits#EMMO_fab003c8_f7a6_4346_9988_7161325ed7a3" xlink:title="Henry">
<ellipse fill="#ffffcc" stroke="#000000" cx="522.0634" cy="-882" rx="32.4942" ry="18"/>
<text text-anchor="middle" x="522.0634" y="-878.3" font-family="Times,serif" font-size="14.00" fill="#000000">Henry</text>
</a>
</g>
</g>
<!-- Henry&#45;&gt;ElectricalInductanceUnit -->
<g id="edge20" class="edge">
<title>Henry&#45;&gt;ElectricalInductanceUnit</title>
<path fill="none" stroke="#000000" d="M489.1338,-882C465.9493,-882 433.4749,-882 401.5744,-882"/>
<polygon fill="none" stroke="#000000" points="401.2498,-878.5001 391.2497,-882 401.2497,-885.5001 401.2498,-878.5001"/>
<text text-anchor="middle" x="450.3674" y="-885.8" font-family="Times,serif" font-size="14.00" fill="#000000">isA</text>
</g>
<!-- Tesla -->
<g id="node36" class="node">
<title>Tesla</title>
<g id="a_node36"><a xlink:href="http://emmo.info/emmo/middle/siunits#EMMO_acb50123_87a2_4753_b36c_f87114ad4de2" xlink:title="Tesla">
<ellipse fill="#ffffcc" stroke="#000000" cx="522.0634" cy="-774" rx="29.795" ry="18"/>
<text text-anchor="middle" x="522.0634" y="-770.3" font-family="Times,serif" font-size="14.00" fill="#000000">Tesla</text>
</a>
</g>
</g>
<!-- Tesla&#45;&gt;MagneticFluxDensityUnit -->
<g id="edge4" class="edge">
<title>Tesla&#45;&gt;MagneticFluxDensityUnit</title>
<path fill="none" stroke="#000000" d="M492.0166,-774C469.728,-774 437.8156,-774 406.0183,-774"/>
<polygon fill="none" stroke="#000000" points="405.711,-770.5001 395.7109,-774 405.7109,-777.5001 405.711,-770.5001"/>
<text text-anchor="middle" x="450.3674" y="-777.8" font-family="Times,serif" font-size="14.00" fill="#000000">isA</text>
</g>
<!-- ElectricCurrentUnit -->
<g id="node37" class="node">
<title>ElectricCurrentUnit</title>
<g id="a_node37"><a xlink:href="http://emmo.info/emmo/middle/isq#EMMO_24e3e31f_f233_4685_a19c_6f3ce0a3c477" xlink:title="ElectricCurrentUnit">
<ellipse fill="#ffc880" stroke="#000000" cx="292.229" cy="-234" rx="80.6858" ry="18"/>
<text text-anchor="middle" x="292.229" y="-230.3" font-family="Times,serif" font-size="14.00" fill="#000000">ElectricCurrentUnit</text>
</a>
</g>
</g>
<!-- ElectricCurrentUnit&#45;&gt;KindOfUnit -->
<g id="edge18" class="edge">
<title>ElectricCurrentUnit&#45;&gt;KindOfUnit</title>
<path fill="none" stroke="#000000" d="M216.0727,-240.1417C197.2131,-244.169 177.7867,-250.6469 161.5905,-261 138.2978,-275.8894 135.6065,-285.6446 124.5905,-311 70.0413,-436.5559 57.2013,-602.7395 54.201,-668.4828"/>
<polygon fill="none" stroke="#000000" points="50.6883,-668.7212 53.7729,-678.857 57.6823,-669.0099 50.6883,-668.7212"/>
<text text-anchor="middle" x="134.0905" y="-314.8" font-family="Times,serif" font-size="14.00" fill="#000000">isA</text>
</g>
<!-- Newton -->
<g id="node38" class="node">
<title>Newton</title>
<g id="a_node38"><a xlink:href="http://emmo.info/emmo/middle/siunits#EMMO_a979c531_f9fa_4a6e_93c1.0.0-alpha960241ca6" xlink:title="Newton">
<ellipse fill="#ffffcc" stroke="#000000" cx="522.0634" cy="-666" rx="38.1938" ry="18"/>
<text text-anchor="middle" x="522.0634" y="-662.3" font-family="Times,serif" font-size="14.00" fill="#000000">Newton</text>
</a>
</g>
</g>
<!-- Newton&#45;&gt;ForceUnit -->
<g id="edge23" class="edge">
<title>Newton&#45;&gt;ForceUnit</title>
<path fill="none" stroke="#000000" d="M483.5943,-666C446.761,-666 390.7511,-666 348.8291,-666"/>
<polygon fill="none" stroke="#000000" points="348.7654,-662.5001 338.7653,-666 348.7653,-669.5001 348.7654,-662.5001"/>
<text text-anchor="middle" x="450.3674" y="-669.8" font-family="Times,serif" font-size="14.00" fill="#000000">isA</text>
</g>
<!-- Joule -->
<g id="node39" class="node">
<title>Joule</title>
<g id="a_node39"><a xlink:href="http://emmo.info/emmo/middle/siunits#EMMO_8a70dea4_d6ab_4260_b931_a3e990982416" xlink:title="Joule">
<ellipse fill="#ffffcc" stroke="#000000" cx="522.0634" cy="-612" rx="29.4969" ry="18"/>
<text text-anchor="middle" x="522.0634" y="-608.3" font-family="Times,serif" font-size="14.00" fill="#000000">Joule</text>
</a>
</g>
</g>
<!-- Joule&#45;&gt;EnergyUnit -->
<g id="edge35" class="edge">
<title>Joule&#45;&gt;EnergyUnit</title>
<path fill="none" stroke="#000000" d="M492.4871,-612C457.8439,-612 399.4954,-612 354.6911,-612"/>
<polygon fill="none" stroke="#000000" points="354.4853,-608.5001 344.4852,-612 354.4852,-615.5001 354.4853,-608.5001"/>
<text text-anchor="middle" x="450.3674" y="-615.8" font-family="Times,serif" font-size="14.00" fill="#000000">isA</text>
</g>
<!-- ElectricalCapacitanceUnit&#45;&gt;KindOfUnit -->
<g id="edge14" class="edge">
<title>ElectricalCapacitanceUnit&#45;&gt;KindOfUnit</title>
<path fill="none" stroke="#000000" d="M203.4193,-189.2156C188.7137,-193.2492 174.1767,-198.9545 161.5905,-207 138.2978,-221.8894 135.3268,-231.5249 124.5905,-257 92.7759,-332.4897 64.8201,-584.0656 56.101,-668.8371"/>
<polygon fill="none" stroke="#000000" points="52.5978,-668.691 55.0666,-678.9941 59.5618,-669.4002 52.5978,-668.691"/>
<text text-anchor="middle" x="134.0905" y="-260.8" font-family="Times,serif" font-size="14.00" fill="#000000">isA</text>
</g>
<!-- Ohm -->
<g id="node41" class="node">
<title>Ohm</title>
<g id="a_node41"><a xlink:href="http://emmo.info/emmo/middle/siunits#EMMO_59c10c5c_47bd_4348_ba39_38836607dfa1" xlink:title="Ohm">
<ellipse fill="#ffffcc" stroke="#000000" cx="522.0634" cy="-558" rx="28.6953" ry="18"/>
<text text-anchor="middle" x="522.0634" y="-554.3" font-family="Times,serif" font-size="14.00" fill="#000000">Ohm</text>
</a>
</g>
</g>
<!-- Ohm&#45;&gt;ElectricalResistanceUnit -->
<g id="edge40" class="edge">
<title>Ohm&#45;&gt;ElectricalResistanceUnit</title>
<path fill="none" stroke="#000000" d="M493.4194,-558C469.7077,-558 434.4475,-558 400.04,-558"/>
<polygon fill="none" stroke="#000000" points="399.8876,-554.5001 389.8876,-558 399.8875,-561.5001 399.8876,-554.5001"/>
<text text-anchor="middle" x="450.3674" y="-561.8" font-family="Times,serif" font-size="14.00" fill="#000000">isA</text>
</g>
<!-- AbsorbedDoseUnit&#45;&gt;KindOfUnit -->
<g id="edge1" class="edge">
<title>AbsorbedDoseUnit&#45;&gt;KindOfUnit</title>
<path fill="none" stroke="#000000" d="M217.4349,-131.8548C198.1512,-135.859 178.177,-142.3974 161.5905,-153 138.2978,-167.8894 135.106,-177.433 124.5905,-203 89.2753,-288.8646 63.1273,-577.1166 55.544,-668.7689"/>
<polygon fill="none" stroke="#000000" points="52.0387,-668.6925 54.7119,-678.9446 59.0154,-669.2631 52.0387,-668.6925"/>
<text text-anchor="middle" x="134.0905" y="-206.8" font-family="Times,serif" font-size="14.00" fill="#000000">isA</text>
</g>
<!-- ElectricConductanceUnit&#45;&gt;KindOfUnit -->
<g id="edge30" class="edge">
<title>ElectricConductanceUnit&#45;&gt;KindOfUnit</title>
<path fill="none" stroke="#000000" d="M205.1959,-80.8578C189.903,-84.9041 174.7049,-90.7061 161.5905,-99 138.5268,-113.5861 134.9137,-122.7389 124.5905,-148 85.2088,-244.3679 61.4251,-570.7623 55.0411,-668.8769"/>
<polygon fill="none" stroke="#000000" points="51.544,-668.7209 54.3966,-678.9245 58.5296,-669.1691 51.544,-668.7209"/>
<text text-anchor="middle" x="134.0905" y="-151.8" font-family="Times,serif" font-size="14.00" fill="#000000">isA</text>
</g>
<!-- Lux -->
<g id="node44" class="node">
<title>Lux</title>
<g id="a_node44"><a xlink:href="http://emmo.info/emmo/middle/siunits#EMMO_da1dd4a7_c611_4ad4_bef6_7646f28aa598" xlink:title="Lux">
<ellipse fill="#ffffcc" stroke="#000000" cx="522.0634" cy="-504" rx="27" ry="18"/>
<text text-anchor="middle" x="522.0634" y="-500.3" font-family="Times,serif" font-size="14.00" fill="#000000">Lux</text>
</a>
</g>
</g>
<!-- Lux&#45;&gt;IlluminanceUnit -->
<g id="edge21" class="edge">
<title>Lux&#45;&gt;IlluminanceUnit</title>
<path fill="none" stroke="#000000" d="M494.7959,-504C464.5232,-504 414.271,-504 371.3939,-504"/>
<polygon fill="none" stroke="#000000" points="371.238,-500.5001 361.238,-504 371.238,-507.5001 371.238,-500.5001"/>
<text text-anchor="middle" x="450.3674" y="-507.8" font-family="Times,serif" font-size="14.00" fill="#000000">isA</text>
</g>
<!-- PowerUnit&#45;&gt;KindOfUnit -->
<g id="edge29" class="edge">
<title>PowerUnit&#45;&gt;KindOfUnit</title>
<path fill="none" stroke="#000000" d="M243.5214,-19.854C217.5241,-22.7809 185.9598,-29.5882 161.5905,-45 138.5268,-59.5861 134.7689,-68.6802 124.5905,-94 81.6315,-200.8652 60.0647,-564.6407 54.6701,-668.8766"/>
<polygon fill="none" stroke="#000000" points="51.1706,-668.7801 54.1579,-678.9451 58.1616,-669.1358 51.1706,-668.7801"/>
<text text-anchor="middle" x="134.0905" y="-97.8" font-family="Times,serif" font-size="14.00" fill="#000000">isA</text>
</g>
</g>
</svg>
