<?xml version="1.0" encoding="UTF-8" standalone="no"?>
<!DOCTYPE svg PUBLIC "-//W3C//DTD SVG 1.1//EN"
 "http://www.w3.org/Graphics/SVG/1.1/DTD/svg11.dtd">
<!-- Generated by graphviz version 2.40.1 (20161225.0304)
 -->
<!-- Title: %3 Pages: 1 -->
<svg width="651pt" height="305pt"
 viewBox="0.00 0.00 651.04 305.00" xmlns="http://www.w3.org/2000/svg" xmlns:xlink="http://www.w3.org/1999/xlink">
<g id="graph0" class="graph" transform="scale(1 1) rotate(0) translate(4 301)">
<title>%3</title>
<polygon fill="#ffffff" stroke="transparent" points="-4,4 -4,-301 647.0409,-301 647.0409,4 -4,4"/>
<!-- Atom -->
<g id="node1" class="node">
<title>Atom</title>
<g id="a_node1"><a xlink:href="http://emmo.info/emmo/middle/materials#EMMO_eb77076b_a104_42ac_a065_798b2d2809ad" xlink:title="Atom">
<ellipse fill="#ffffcc" stroke="#000000" cx="378.1961" cy="-192" rx="31.3957" ry="18"/>
<text text-anchor="middle" x="378.1961" y="-188.3" font-family="Times,serif" font-size="14.00" fill="#000000">Atom</text>
</a>
</g>
</g>
<!-- MaterialState -->
<g id="node8" class="node">
<title>MaterialState</title>
<g id="a_node8"><a xlink:href="http://emmo.info/emmo/middle/materials#EMMO_20fff605_465f_4034_8696_e53e90ec83f4" xlink:title="MaterialState">
<ellipse fill="#ffc880" stroke="#000000" stroke-width="2" cx="194.1961" cy="-279" rx="58.4896" ry="18"/>
<text text-anchor="middle" x="194.1961" y="-275.3" font-family="Times,serif" font-size="14.00" fill="#000000">MaterialState</text>
</a>
</g>
</g>
<!-- Atom&#45;&gt;MaterialState -->
<g id="edge2" class="edge">
<title>Atom&#45;&gt;MaterialState</title>
<path fill="none" stroke="#000000" d="M353.7623,-203.5529C323.6104,-217.8096 271.8789,-242.2695 235.51,-259.4657"/>
<polygon fill="none" stroke="#000000" points="233.6988,-256.4505 226.1545,-263.8892 236.691,-262.7788 233.6988,-256.4505"/>
<text text-anchor="middle" x="307.6961" y="-231.8" font-family="Times,serif" font-size="14.00" fill="#000000">isA</text>
</g>
<!-- Solid -->
<g id="node2" class="node">
<title>Solid</title>
<g id="a_node2"><a xlink:href="http://emmo.info/emmo/middle/materials#EMMO_a2b006f2_bbfd_4dba_bcaa_3fca20cd6be1" xlink:title="Solid">
<ellipse fill="#ffffcc" stroke="#000000" cx="196.1961" cy="-105" rx="29.4969" ry="18"/>
<text text-anchor="middle" x="196.1961" y="-101.3" font-family="Times,serif" font-size="14.00" fill="#000000">Solid</text>
</a>
</g>
</g>
<!-- Continuum -->
<g id="node7" class="node">
<title>Continuum</title>
<g id="a_node7"><a xlink:href="http://emmo.info/emmo/middle/materials#EMMO_8b0923ab_b500_477b_9ce9_8b3a3e4dc4f2" xlink:title="Continuum">
<ellipse fill="#ffffcc" stroke="#000000" cx="272.1961" cy="-192" rx="50.8918" ry="18"/>
<text text-anchor="middle" x="272.1961" y="-188.3" font-family="Times,serif" font-size="14.00" fill="#000000">Continuum</text>
</a>
</g>
</g>
<!-- Solid&#45;&gt;Continuum -->
<g id="edge5" class="edge">
<title>Solid&#45;&gt;Continuum</title>
<path fill="none" stroke="#000000" d="M210.1356,-120.9571C221.3443,-133.7881 237.2974,-152.0502 250.2222,-166.8457"/>
<polygon fill="none" stroke="#000000" points="247.8269,-169.4237 257.0417,-174.6522 253.0987,-164.8185 247.8269,-169.4237"/>
<text text-anchor="middle" x="248.6961" y="-144.8" font-family="Times,serif" font-size="14.00" fill="#000000">isA</text>
</g>
<!-- Molecule -->
<g id="node3" class="node">
<title>Molecule</title>
<g id="a_node3"><a xlink:href="http://emmo.info/emmo/middle/materials#EMMO_3397f270_dfc1_4500_8f6f_4d0d85ac5f71" xlink:title="Molecule">
<ellipse fill="#ffffcc" stroke="#000000" cx="44.1961" cy="-192" rx="44.393" ry="18"/>
<text text-anchor="middle" x="44.1961" y="-188.3" font-family="Times,serif" font-size="14.00" fill="#000000">Molecule</text>
</a>
</g>
</g>
<!-- Molecule&#45;&gt;MaterialState -->
<g id="edge4" class="edge">
<title>Molecule&#45;&gt;MaterialState</title>
<path fill="none" stroke="#000000" d="M69.6415,-206.7584C93.8225,-220.7833 130.4429,-242.0232 157.7254,-257.847"/>
<polygon fill="none" stroke="#000000" points="156.1819,-260.9978 166.5882,-262.9874 159.6939,-254.9426 156.1819,-260.9978"/>
<text text-anchor="middle" x="137.6961" y="-231.8" font-family="Times,serif" font-size="14.00" fill="#000000">isA</text>
</g>
<!-- Fluid -->
<g id="node4" class="node">
<title>Fluid</title>
<g id="a_node4"><a xlink:href="http://emmo.info/emmo/middle/materials#EMMO_87ac88ff_8379_4f5a_8c7b_424a8fff1ee8" xlink:title="Fluid">
<ellipse fill="#ffffcc" stroke="#000000" cx="272.1961" cy="-105" rx="29.4969" ry="18"/>
<text text-anchor="middle" x="272.1961" y="-101.3" font-family="Times,serif" font-size="14.00" fill="#000000">Fluid</text>
</a>
</g>
</g>
<!-- Fluid&#45;&gt;Continuum -->
<g id="edge9" class="edge">
<title>Fluid&#45;&gt;Continuum</title>
<path fill="none" stroke="#000000" d="M272.1961,-123.0265C272.1961,-134.8082 272.1961,-150.4393 272.1961,-163.8419"/>
<polygon fill="none" stroke="#000000" points="268.6962,-163.9966 272.1961,-173.9966 275.6962,-163.9967 268.6962,-163.9966"/>
<text text-anchor="middle" x="281.6961" y="-144.8" font-family="Times,serif" font-size="14.00" fill="#000000">isA</text>
</g>
<!-- Subatomic -->
<g id="node5" class="node">
<title>Subatomic</title>
<g id="a_node5"><a xlink:href="http://emmo.info/emmo/middle/materials#EMMO_7d66bde4_b68d_41cc_b5fc_6fd98c5e2ff0" xlink:title="Subatomic">
<ellipse fill="#ffffcc" stroke="#000000" stroke-width="2" cx="155.1961" cy="-192" rx="48.9926" ry="18"/>
<text text-anchor="middle" x="155.1961" y="-188.3" font-family="Times,serif" font-size="14.00" fill="#000000">Subatomic</text>
</a>
</g>
</g>
<!-- Subatomic&#45;&gt;MaterialState -->
<g id="edge10" class="edge">
<title>Subatomic&#45;&gt;MaterialState</title>
<path fill="none" stroke="#000000" d="M163.2769,-210.0265C168.663,-222.0415 175.8436,-238.0599 181.9292,-251.6354"/>
<polygon fill="none" stroke="#000000" points="178.8412,-253.3033 186.1256,-260.9966 185.2288,-250.4398 178.8412,-253.3033"/>
<text text-anchor="middle" x="186.6961" y="-231.8" font-family="Times,serif" font-size="14.00" fill="#000000">isA</text>
</g>
<!-- IonAtom -->
<g id="node6" class="node">
<title>IonAtom</title>
<g id="a_node6"><a xlink:href="http://emmo.info/emmo/middle/materials#EMMO_db03061b_db31_4132_a47a_6a634846578b" xlink:title="IonAtom">
<ellipse fill="#ffffcc" stroke="#000000" cx="466.1961" cy="-18" rx="42.7926" ry="18"/>
<text text-anchor="middle" x="466.1961" y="-14.3" font-family="Times,serif" font-size="14.00" fill="#000000">IonAtom</text>
</a>
</g>
</g>
<!-- StandaloneAtom -->
<g id="node11" class="node">
<title>StandaloneAtom</title>
<g id="a_node11"><a xlink:href="http://emmo.info/emmo/middle/materials#EMMO_2fd3f574_5e93_47fe_afca_ed80b0a21ab4" xlink:title="StandaloneAtom">
<ellipse fill="#ffffcc" stroke="#000000" cx="525.1961" cy="-105" rx="70.3881" ry="18"/>
<text text-anchor="middle" x="525.1961" y="-101.3" font-family="Times,serif" font-size="14.00" fill="#000000">StandaloneAtom</text>
</a>
</g>
</g>
<!-- IonAtom&#45;&gt;StandaloneAtom -->
<g id="edge3" class="edge">
<title>IonAtom&#45;&gt;StandaloneAtom</title>
<path fill="none" stroke="#000000" d="M478.1356,-35.6057C486.4773,-47.9062 497.7643,-64.5497 507.1934,-78.4537"/>
<polygon fill="none" stroke="#000000" points="504.5623,-80.8099 513.0718,-87.1218 510.3558,-76.881 504.5623,-80.8099"/>
<text text-anchor="middle" x="509.6961" y="-57.8" font-family="Times,serif" font-size="14.00" fill="#000000">isA</text>
</g>
<!-- Continuum&#45;&gt;MaterialState -->
<g id="edge6" class="edge">
<title>Continuum&#45;&gt;MaterialState</title>
<path fill="none" stroke="#000000" d="M256.7858,-209.1884C245.3229,-221.974 229.5048,-239.6171 216.6389,-253.9676"/>
<polygon fill="none" stroke="#000000" points="213.9108,-251.7674 209.8413,-261.5495 219.1228,-256.4402 213.9108,-251.7674"/>
<text text-anchor="middle" x="247.6961" y="-231.8" font-family="Times,serif" font-size="14.00" fill="#000000">isA</text>
</g>
<!-- NeutralAtom -->
<g id="node9" class="node">
<title>NeutralAtom</title>
<g id="a_node9"><a xlink:href="http://emmo.info/emmo/middle/materials#EMMO_4588526f_8553_4f4d_aa73_a483e88d599b" xlink:title="NeutralAtom">
<ellipse fill="#ffffcc" stroke="#000000" cx="585.1961" cy="-18" rx="57.6901" ry="18"/>
<text text-anchor="middle" x="585.1961" y="-14.3" font-family="Times,serif" font-size="14.00" fill="#000000">NeutralAtom</text>
</a>
</g>
</g>
<!-- NeutralAtom&#45;&gt;StandaloneAtom -->
<g id="edge7" class="edge">
<title>NeutralAtom&#45;&gt;StandaloneAtom</title>
<path fill="none" stroke="#000000" d="M573.0542,-35.6057C564.4903,-48.0233 552.8739,-64.8671 543.2304,-78.8502"/>
<polygon fill="none" stroke="#000000" points="540.322,-76.9026 537.5259,-87.1218 546.0845,-80.8768 540.322,-76.9026"/>
<text text-anchor="middle" x="567.6961" y="-57.8" font-family="Times,serif" font-size="14.00" fill="#000000">isA</text>
</g>
<!-- BondedAtom -->
<g id="node10" class="node">
<title>BondedAtom</title>
<g id="a_node10"><a xlink:href="http://emmo.info/emmo/middle/materials#EMMO_8303a247_f9d9_4616_bdcd_f5cbd7b298e3" xlink:title="BondedAtom">
<ellipse fill="#ffffcc" stroke="#000000" cx="378.1961" cy="-105" rx="58.4896" ry="18"/>
<text text-anchor="middle" x="378.1961" y="-101.3" font-family="Times,serif" font-size="14.00" fill="#000000">BondedAtom</text>
</a>
</g>
</g>
<!-- BondedAtom&#45;&gt;Atom -->
<g id="edge8" class="edge">
<title>BondedAtom&#45;&gt;Atom</title>
<path fill="none" stroke="#000000" d="M378.1961,-123.0265C378.1961,-134.8082 378.1961,-150.4393 378.1961,-163.8419"/>
<polygon fill="none" stroke="#000000" points="374.6962,-163.9966 378.1961,-173.9966 381.6962,-163.9967 374.6962,-163.9966"/>
<text text-anchor="middle" x="387.6961" y="-144.8" font-family="Times,serif" font-size="14.00" fill="#000000">isA</text>
</g>
<!-- StandaloneAtom&#45;&gt;Atom -->
<g id="edge1" class="edge">
<title>StandaloneAtom&#45;&gt;Atom</title>
<path fill="none" stroke="#000000" d="M497.2005,-121.5688C472.014,-136.4751 435.0743,-158.3374 409.0459,-173.742"/>
<polygon fill="none" stroke="#000000" points="407.1546,-170.7942 400.3315,-178.8994 410.7199,-176.8182 407.1546,-170.7942"/>
<text text-anchor="middle" x="470.6961" y="-144.8" font-family="Times,serif" font-size="14.00" fill="#000000">isA</text>
</g>
</g>
</svg>
