<?xml version="1.0" encoding="UTF-8" standalone="no"?>
<!DOCTYPE svg PUBLIC "-//W3C//DTD SVG 1.1//EN"
 "http://www.w3.org/Graphics/SVG/1.1/DTD/svg11.dtd">
<!-- Generated by graphviz version 2.40.1 (20161225.0304)
 -->
<!-- Title: %3 Pages: 1 -->
<svg width="648pt" height="305pt"
 viewBox="0.00 0.00 648.24 305.00" xmlns="http://www.w3.org/2000/svg" xmlns:xlink="http://www.w3.org/1999/xlink">
<g id="graph0" class="graph" transform="scale(1 1) rotate(0) translate(4 301)">
<title>%3</title>
<polygon fill="#ffffff" stroke="transparent" points="-4,4 -4,-301 644.2405,-301 644.2405,4 -4,4"/>
<!-- Multiplication -->
<g id="node1" class="node">
<title>Multiplication</title>
<g id="a_node1"><a xlink:href="http://emmo.info/emmo/top/math#EMMO_2b1303e8_d4c3_453b_9918_76f1d009543f" xlink:title="Multiplication">
<ellipse fill="#ffffcc" stroke="#000000" cx="61.7445" cy="-18" rx="61.99" ry="18"/>
<text text-anchor="middle" x="61.7445" y="-14.3" font-family="Times,serif" font-size="14.00" fill="#000000">Multiplication</text>
</a>
</g>
</g>
<!-- ArithmeticOperator -->
<g id="node2" class="node">
<title>ArithmeticOperator</title>
<g id="a_node2"><a xlink:href="http://emmo.info/emmo/middle/math#EMMO_707f0cd1_941c_4b57_9f20_d0ba30cd6ff3" xlink:title="ArithmeticOperator">
<ellipse fill="#ffffcc" stroke="#000000" cx="225.7445" cy="-105" rx="80.6858" ry="18"/>
<text text-anchor="middle" x="225.7445" y="-101.3" font-family="Times,serif" font-size="14.00" fill="#000000">ArithmeticOperator</text>
</a>
</g>
</g>
<!-- Multiplication&#45;&gt;ArithmeticOperator -->
<g id="edge2" class="edge">
<title>Multiplication&#45;&gt;ArithmeticOperator</title>
<path fill="none" stroke="#000000" d="M91.8246,-33.9571C118.1086,-47.9005 156.4827,-68.2575 185.4227,-83.6097"/>
<polygon fill="none" stroke="#000000" points="183.9858,-86.8095 194.46,-88.4039 187.2662,-80.6257 183.9858,-86.8095"/>
<text text-anchor="middle" x="163.2445" y="-57.8" font-family="Times,serif" font-size="14.00" fill="#000000">isA</text>
</g>
<!-- AlgebricOperator -->
<g id="node5" class="node">
<title>AlgebricOperator</title>
<g id="a_node5"><a xlink:href="http://emmo.info/emmo/top/math#EMMO_3c424d37_cf62_41b1_ac9d_a316f8d113d6" xlink:title="AlgebricOperator">
<ellipse fill="#ffffcc" stroke="#000000" cx="333.7445" cy="-192" rx="72.5877" ry="18"/>
<text text-anchor="middle" x="333.7445" y="-188.3" font-family="Times,serif" font-size="14.00" fill="#000000">AlgebricOperator</text>
</a>
</g>
</g>
<!-- ArithmeticOperator&#45;&gt;AlgebricOperator -->
<g id="edge6" class="edge">
<title>ArithmeticOperator&#45;&gt;AlgebricOperator</title>
<path fill="none" stroke="#000000" d="M247.3404,-122.3967C263.6751,-135.5552 286.2873,-153.7705 304.2822,-168.2665"/>
<polygon fill="none" stroke="#000000" points="302.2029,-171.0858 312.1861,-174.6335 306.5942,-165.6345 302.2029,-171.0858"/>
<text text-anchor="middle" x="295.2445" y="-144.8" font-family="Times,serif" font-size="14.00" fill="#000000">isA</text>
</g>
<!-- Exponent -->
<g id="node3" class="node">
<title>Exponent</title>
<g id="a_node3"><a xlink:href="http://emmo.info/emmo/top/math#EMMO_223d9523_4169_4ecd_b8af_acad1215e1ff" xlink:title="Exponent">
<ellipse fill="#ffffcc" stroke="#000000" cx="368.7445" cy="-105" rx="44.393" ry="18"/>
<text text-anchor="middle" x="368.7445" y="-101.3" font-family="Times,serif" font-size="14.00" fill="#000000">Exponent</text>
</a>
</g>
</g>
<!-- Exponent&#45;&gt;AlgebricOperator -->
<g id="edge10" class="edge">
<title>Exponent&#45;&gt;AlgebricOperator</title>
<path fill="none" stroke="#000000" d="M361.4925,-123.0265C356.6588,-135.0415 350.2147,-151.0599 344.7532,-164.6354"/>
<polygon fill="none" stroke="#000000" points="341.4725,-163.4129 340.9873,-173.9966 347.9667,-166.0256 341.4725,-163.4129"/>
<text text-anchor="middle" x="362.2445" y="-144.8" font-family="Times,serif" font-size="14.00" fill="#000000">isA</text>
</g>
<!-- Gradient -->
<g id="node4" class="node">
<title>Gradient</title>
<g id="a_node4"><a xlink:href="http://emmo.info/emmo/top/math#EMMO_b5c58790_fb2d_42eb_b184_2a3f6ca60acb" xlink:title="Gradient">
<ellipse fill="#ffffcc" stroke="#000000" cx="489.7445" cy="-105" rx="41.6928" ry="18"/>
<text text-anchor="middle" x="489.7445" y="-101.3" font-family="Times,serif" font-size="14.00" fill="#000000">Gradient</text>
</a>
</g>
</g>
<!-- DifferentialOperator -->
<g id="node9" class="node">
<title>DifferentialOperator</title>
<g id="a_node9"><a xlink:href="http://emmo.info/emmo/top/math#EMMO_f8a2fe9f_458b_4771_9aba_a50e76afc52d" xlink:title="DifferentialOperator">
<ellipse fill="#ffffcc" stroke="#000000" cx="507.7445" cy="-192" rx="83.3857" ry="18"/>
<text text-anchor="middle" x="507.7445" y="-188.3" font-family="Times,serif" font-size="14.00" fill="#000000">DifferentialOperator</text>
</a>
</g>
</g>
<!-- Gradient&#45;&gt;DifferentialOperator -->
<g id="edge8" class="edge">
<title>Gradient&#45;&gt;DifferentialOperator</title>
<path fill="none" stroke="#000000" d="M493.4741,-123.0265C495.9117,-134.8082 499.1458,-150.4393 501.9187,-163.8419"/>
<polygon fill="none" stroke="#000000" points="498.5661,-164.9132 504.0197,-173.9966 505.421,-163.4949 498.5661,-164.9132"/>
<text text-anchor="middle" x="509.2445" y="-144.8" font-family="Times,serif" font-size="14.00" fill="#000000">isA</text>
</g>
<!-- MathematicalOperator -->
<g id="node8" class="node">
<title>MathematicalOperator</title>
<g id="a_node8"><a xlink:href="http://emmo.info/emmo/top/math#EMMO_f6d0c26a_98b6_4cf8_8632_aa259131faaa" xlink:title="MathematicalOperator">
<ellipse fill="#ffffcc" stroke="#000000" stroke-width="2" cx="420.7445" cy="-279" rx="90.9839" ry="18"/>
<text text-anchor="middle" x="420.7445" y="-275.3" font-family="Times,serif" font-size="14.00" fill="#000000">MathematicalOperator</text>
</a>
</g>
</g>
<!-- AlgebricOperator&#45;&gt;MathematicalOperator -->
<g id="edge7" class="edge">
<title>AlgebricOperator&#45;&gt;MathematicalOperator</title>
<path fill="none" stroke="#000000" d="M351.3503,-209.6057C364.1193,-222.3748 381.5686,-239.8241 395.7749,-254.0304"/>
<polygon fill="none" stroke="#000000" points="393.3204,-256.5256 402.8663,-261.1218 398.2701,-251.5758 393.3204,-256.5256"/>
<text text-anchor="middle" x="391.2445" y="-231.8" font-family="Times,serif" font-size="14.00" fill="#000000">isA</text>
</g>
<!-- Laplacian -->
<g id="node6" class="node">
<title>Laplacian</title>
<g id="a_node6"><a xlink:href="http://emmo.info/emmo/top/math#EMMO_048a14e3_65fb_457d_8695_948965c89492" xlink:title="Laplacian">
<ellipse fill="#ffffcc" stroke="#000000" cx="594.7445" cy="-105" rx="45.4919" ry="18"/>
<text text-anchor="middle" x="594.7445" y="-101.3" font-family="Times,serif" font-size="14.00" fill="#000000">Laplacian</text>
</a>
</g>
</g>
<!-- Laplacian&#45;&gt;DifferentialOperator -->
<g id="edge4" class="edge">
<title>Laplacian&#45;&gt;DifferentialOperator</title>
<path fill="none" stroke="#000000" d="M577.97,-121.7745C565.1034,-134.6411 547.1436,-152.601 532.6076,-167.137"/>
<polygon fill="none" stroke="#000000" points="529.9596,-164.8352 525.3634,-174.3812 534.9093,-169.7849 529.9596,-164.8352"/>
<text text-anchor="middle" x="565.2445" y="-144.8" font-family="Times,serif" font-size="14.00" fill="#000000">isA</text>
</g>
<!-- Division -->
<g id="node7" class="node">
<title>Division</title>
<g id="a_node7"><a xlink:href="http://emmo.info/emmo/top/math#EMMO_a365b3c1_7bde_41d7_a15b_2820762e85f4" xlink:title="Division">
<ellipse fill="#ffffcc" stroke="#000000" cx="182.7445" cy="-18" rx="40.8928" ry="18"/>
<text text-anchor="middle" x="182.7445" y="-14.3" font-family="Times,serif" font-size="14.00" fill="#000000">Division</text>
</a>
</g>
</g>
<!-- Division&#45;&gt;ArithmeticOperator -->
<g id="edge1" class="edge">
<title>Division&#45;&gt;ArithmeticOperator</title>
<path fill="none" stroke="#000000" d="M191.4462,-35.6057C197.428,-47.7083 205.4878,-64.0154 212.2913,-77.7807"/>
<polygon fill="none" stroke="#000000" points="209.1912,-79.4076 216.7598,-86.8215 215.4665,-76.3059 209.1912,-79.4076"/>
<text text-anchor="middle" x="217.2445" y="-57.8" font-family="Times,serif" font-size="14.00" fill="#000000">isA</text>
</g>
<!-- DifferentialOperator&#45;&gt;MathematicalOperator -->
<g id="edge3" class="edge">
<title>DifferentialOperator&#45;&gt;MathematicalOperator</title>
<path fill="none" stroke="#000000" d="M490.1388,-209.6057C477.3698,-222.3748 459.9205,-239.8241 445.7141,-254.0304"/>
<polygon fill="none" stroke="#000000" points="443.2189,-251.5758 438.6227,-261.1218 448.1687,-256.5256 443.2189,-251.5758"/>
<text text-anchor="middle" x="478.2445" y="-231.8" font-family="Times,serif" font-size="14.00" fill="#000000">isA</text>
</g>
<!-- Plus -->
<g id="node10" class="node">
<title>Plus</title>
<g id="a_node10"><a xlink:href="http://emmo.info/emmo/top/math#EMMO_8de14a59_660b_454f_aff8_76a07ce185f4" xlink:title="Plus">
<ellipse fill="#ffffcc" stroke="#000000" cx="268.7445" cy="-18" rx="27" ry="18"/>
<text text-anchor="middle" x="268.7445" y="-14.3" font-family="Times,serif" font-size="14.00" fill="#000000">Plus</text>
</a>
</g>
</g>
<!-- Plus&#45;&gt;ArithmeticOperator -->
<g id="edge9" class="edge">
<title>Plus&#45;&gt;ArithmeticOperator</title>
<path fill="none" stroke="#000000" d="M260.2491,-35.1884C254.2434,-47.3395 246.0692,-63.878 239.1843,-77.8078"/>
<polygon fill="none" stroke="#000000" points="235.9596,-76.4332 234.6664,-86.9488 242.235,-79.5348 235.9596,-76.4332"/>
<text text-anchor="middle" x="259.2445" y="-57.8" font-family="Times,serif" font-size="14.00" fill="#000000">isA</text>
</g>
<!-- Minus -->
<g id="node11" class="node">
<title>Minus</title>
<g id="a_node11"><a xlink:href="http://emmo.info/emmo/top/math#EMMO_46d5643b_9706_4b67_8bea_ed77d6026539" xlink:title="Minus">
<ellipse fill="#ffffcc" stroke="#000000" cx="347.7445" cy="-18" rx="33.5952" ry="18"/>
<text text-anchor="middle" x="347.7445" y="-14.3" font-family="Times,serif" font-size="14.00" fill="#000000">Minus</text>
</a>
</g>
</g>
<!-- Minus&#45;&gt;ArithmeticOperator -->
<g id="edge5" class="edge">
<title>Minus&#45;&gt;ArithmeticOperator</title>
<path fill="none" stroke="#000000" d="M327.3245,-32.5618C308.521,-45.9709 280.3025,-66.0939 258.3757,-81.7303"/>
<polygon fill="none" stroke="#000000" points="256.1228,-79.038 250.0131,-87.6938 260.1871,-84.7373 256.1228,-79.038"/>
<text text-anchor="middle" x="303.2445" y="-57.8" font-family="Times,serif" font-size="14.00" fill="#000000">isA</text>
</g>
</g>
</svg>
