<?xml version="1.0" encoding="UTF-8" standalone="no"?>
<!DOCTYPE svg PUBLIC "-//W3C//DTD SVG 1.1//EN"
 "http://www.w3.org/Graphics/SVG/1.1/DTD/svg11.dtd">
<!-- Generated by graphviz version 2.40.1 (20161225.0304)
 -->
<!-- Title: %3 Pages: 1 -->
<svg width="674pt" height="218pt"
 viewBox="0.00 0.00 673.64 218.00" xmlns="http://www.w3.org/2000/svg" xmlns:xlink="http://www.w3.org/1999/xlink">
<g id="graph0" class="graph" transform="scale(1 1) rotate(0) translate(4 214)">
<title>%3</title>
<polygon fill="#ffffff" stroke="transparent" points="-4,4 -4,-214 669.6373,-214 669.6373,4 -4,4"/>
<!-- MathematicalModel -->
<g id="node1" class="node">
<title>MathematicalModel</title>
<g id="a_node1"><a xlink:href="http://emmo.info/emmo/middle/models#EMMO_f7ed665b_c2e1_42bc_889b_6b42ed3a36f0" xlink:title="MathematicalModel">
<ellipse fill="#ffc880" stroke="#000000" stroke-width="2" cx="315.0934" cy="-192" rx="83.3857" ry="18"/>
<text text-anchor="middle" x="315.0934" y="-188.3" font-family="Times,serif" font-size="14.00" fill="#000000">MathematicalModel</text>
</a>
</g>
</g>
<!-- ContinuumModel -->
<g id="node2" class="node">
<title>ContinuumModel</title>
<g id="a_node2"><a xlink:href="http://emmo.info/emmo/middle/models#EMMO_4456a5d2_16a6_4ee1_9a8e_5c75956b28ea" xlink:title="ContinuumModel">
<ellipse fill="#ffffcc" stroke="#000000" cx="74.0934" cy="-18" rx="74.187" ry="18"/>
<text text-anchor="middle" x="74.0934" y="-14.3" font-family="Times,serif" font-size="14.00" fill="#000000">ContinuumModel</text>
</a>
</g>
</g>
<!-- PhysicsBasedModel -->
<g id="node5" class="node">
<title>PhysicsBasedModel</title>
<g id="a_node5"><a xlink:href="http://emmo.info/emmo/middle/models#EMMO_b29fd350_39aa_4af7_9459_3faa0544cba6" xlink:title="PhysicsBasedModel">
<ellipse fill="#ffffcc" stroke="#000000" cx="315.0934" cy="-105" rx="82.5854" ry="18"/>
<text text-anchor="middle" x="315.0934" y="-101.3" font-family="Times,serif" font-size="14.00" fill="#000000">PhysicsBasedModel</text>
</a>
</g>
</g>
<!-- ContinuumModel&#45;&gt;PhysicsBasedModel -->
<g id="edge7" class="edge">
<title>ContinuumModel&#45;&gt;PhysicsBasedModel</title>
<path fill="none" stroke="#000000" d="M115.5228,-32.9558C156.2717,-47.666 218.6193,-70.1732 262.769,-86.1111"/>
<polygon fill="none" stroke="#000000" points="261.5835,-89.4042 272.1778,-89.5077 263.9604,-82.82 261.5835,-89.4042"/>
<text text-anchor="middle" x="218.5934" y="-57.8" font-family="Times,serif" font-size="14.00" fill="#000000">isA</text>
</g>
<!-- AtomisticModel -->
<g id="node3" class="node">
<title>AtomisticModel</title>
<g id="a_node3"><a xlink:href="http://emmo.info/emmo/middle/models#EMMO_84cadc45_6758_46f2_ba2a_5ead65c70213" xlink:title="AtomisticModel">
<ellipse fill="#ffffcc" stroke="#000000" cx="236.0934" cy="-18" rx="69.5877" ry="18"/>
<text text-anchor="middle" x="236.0934" y="-14.3" font-family="Times,serif" font-size="14.00" fill="#000000">AtomisticModel</text>
</a>
</g>
</g>
<!-- AtomisticModel&#45;&gt;PhysicsBasedModel -->
<g id="edge6" class="edge">
<title>AtomisticModel&#45;&gt;PhysicsBasedModel</title>
<path fill="none" stroke="#000000" d="M252.0803,-35.6057C263.5687,-48.2576 279.2295,-65.5043 292.0641,-79.6386"/>
<polygon fill="none" stroke="#000000" points="289.5456,-82.0714 298.8592,-87.1218 294.7278,-77.3657 289.5456,-82.0714"/>
<text text-anchor="middle" x="290.5934" y="-57.8" font-family="Times,serif" font-size="14.00" fill="#000000">isA</text>
</g>
<!-- DataBasedModel -->
<g id="node4" class="node">
<title>DataBasedModel</title>
<g id="a_node4"><a xlink:href="http://emmo.info/emmo/middle/models#EMMO_a4b14b83_9392_4a5f_a2e8_b2b58793f59b" xlink:title="DataBasedModel">
<ellipse fill="#ffffcc" stroke="#000000" cx="142.0934" cy="-105" rx="72.2875" ry="18"/>
<text text-anchor="middle" x="142.0934" y="-101.3" font-family="Times,serif" font-size="14.00" fill="#000000">DataBasedModel</text>
</a>
</g>
</g>
<!-- DataBasedModel&#45;&gt;MathematicalModel -->
<g id="edge3" class="edge">
<title>DataBasedModel&#45;&gt;MathematicalModel</title>
<path fill="none" stroke="#000000" d="M174.228,-121.1601C202.0341,-135.1436 242.4448,-155.4657 272.8599,-170.7612"/>
<polygon fill="none" stroke="#000000" points="271.4467,-173.9681 281.9532,-175.3341 274.5917,-167.7144 271.4467,-173.9681"/>
<text text-anchor="middle" x="248.5934" y="-144.8" font-family="Times,serif" font-size="14.00" fill="#000000">isA</text>
</g>
<!-- PhysicsBasedModel&#45;&gt;MathematicalModel -->
<g id="edge1" class="edge">
<title>PhysicsBasedModel&#45;&gt;MathematicalModel</title>
<path fill="none" stroke="#000000" d="M315.0934,-123.0265C315.0934,-134.8082 315.0934,-150.4393 315.0934,-163.8419"/>
<polygon fill="none" stroke="#000000" points="311.5935,-163.9966 315.0934,-173.9966 318.5935,-163.9967 311.5935,-163.9966"/>
<text text-anchor="middle" x="324.5934" y="-144.8" font-family="Times,serif" font-size="14.00" fill="#000000">isA</text>
</g>
<!-- PhysicsEquation -->
<g id="node7" class="node">
<title>PhysicsEquation</title>
<g id="a_node7"><a xlink:href="http://emmo.info/emmo/middle/models#EMMO_27c5d8c6_8af7_4d63_beb1_ec37cd8b3fa3" xlink:title="PhysicsEquation">
<ellipse fill="#ffffcc" stroke="#000000" cx="596.0934" cy="-105" rx="69.5877" ry="18"/>
<text text-anchor="middle" x="596.0934" y="-101.3" font-family="Times,serif" font-size="14.00" fill="#000000">PhysicsEquation</text>
</a>
</g>
</g>
<!-- PhysicsBasedModel&#45;&gt;PhysicsEquation -->
<g id="edge2" class="edge">
<title>PhysicsBasedModel&#45;&gt;PhysicsEquation</title>
<path fill="none" stroke="#0000ff" stroke-dasharray="5,2" d="M397.8829,-105C435.1734,-105 479.0287,-105 515.9942,-105"/>
<polygon fill="#0000ff" stroke="#0000ff" points="516.2266,-108.5001 526.2265,-105 516.2265,-101.5001 516.2266,-108.5001"/>
<text text-anchor="middle" x="462.0928" y="-90.8" font-family="Times,serif" font-size="14.00" fill="#000000">hasSpatialPart some</text>
</g>
<!-- ElectronicModel -->
<g id="node6" class="node">
<title>ElectronicModel</title>
<g id="a_node6"><a xlink:href="http://emmo.info/emmo/middle/models#EMMO_6eca09be_17e9_445e_abc9_000aa61b7a11" xlink:title="ElectronicModel">
<ellipse fill="#ffffcc" stroke="#000000" cx="394.0934" cy="-18" rx="70.3881" ry="18"/>
<text text-anchor="middle" x="394.0934" y="-14.3" font-family="Times,serif" font-size="14.00" fill="#000000">ElectronicModel</text>
</a>
</g>
</g>
<!-- ElectronicModel&#45;&gt;PhysicsBasedModel -->
<g id="edge4" class="edge">
<title>ElectronicModel&#45;&gt;PhysicsBasedModel</title>
<path fill="none" stroke="#000000" d="M378.1066,-35.6057C366.6181,-48.2576 350.9573,-65.5043 338.1228,-79.6386"/>
<polygon fill="none" stroke="#000000" points="335.459,-77.3657 331.3276,-87.1218 340.6413,-82.0714 335.459,-77.3657"/>
<text text-anchor="middle" x="369.5934" y="-57.8" font-family="Times,serif" font-size="14.00" fill="#000000">isA</text>
</g>
<!-- PhysicsEquation&#45;&gt;MathematicalModel -->
<g id="edge8" class="edge">
<title>PhysicsEquation&#45;&gt;MathematicalModel</title>
<path fill="none" stroke="#000000" d="M551.2574,-118.8816C502.8286,-133.8756 425.5215,-157.8105 372.6398,-174.1832"/>
<polygon fill="none" stroke="#000000" points="371.5798,-170.8474 363.0623,-177.1484 373.6501,-177.5342 371.5798,-170.8474"/>
<text text-anchor="middle" x="481.5934" y="-144.8" font-family="Times,serif" font-size="14.00" fill="#000000">isA</text>
</g>
<!-- MesoscopicModel -->
<g id="node8" class="node">
<title>MesoscopicModel</title>
<g id="a_node8"><a xlink:href="http://emmo.info/emmo/middle/models#EMMO_53935db0_af45_4426_b9e9_244a0d77db00" xlink:title="MesoscopicModel">
<ellipse fill="#ffffcc" stroke="#000000" cx="559.0934" cy="-18" rx="76.8869" ry="18"/>
<text text-anchor="middle" x="559.0934" y="-14.3" font-family="Times,serif" font-size="14.00" fill="#000000">MesoscopicModel</text>
</a>
</g>
</g>
<!-- MesoscopicModel&#45;&gt;PhysicsBasedModel -->
<g id="edge5" class="edge">
<title>MesoscopicModel&#45;&gt;PhysicsBasedModel</title>
<path fill="none" stroke="#000000" d="M516.8704,-33.0549C475.5713,-47.7804 412.5526,-70.2502 367.9463,-86.1549"/>
<polygon fill="none" stroke="#000000" points="366.6843,-82.889 358.4406,-89.5442 369.0353,-89.4824 366.6843,-82.889"/>
<text text-anchor="middle" x="460.5934" y="-57.8" font-family="Times,serif" font-size="14.00" fill="#000000">isA</text>
</g>
</g>
</svg>
