<?xml version="1.0" encoding="UTF-8" standalone="no"?>
<!DOCTYPE svg PUBLIC "-//W3C//DTD SVG 1.1//EN"
 "http://www.w3.org/Graphics/SVG/1.1/DTD/svg11.dtd">
<!-- Generated by graphviz version 2.40.1 (20161225.0304)
 -->
<!-- Title: %3 Pages: 1 -->
<svg width="1040pt" height="218pt"
 viewBox="0.00 0.00 1040.24 218.00" xmlns="http://www.w3.org/2000/svg" xmlns:xlink="http://www.w3.org/1999/xlink">
<g id="graph0" class="graph" transform="scale(1 1) rotate(0) translate(4 214)">
<title>%3</title>
<polygon fill="#ffffff" stroke="transparent" points="-4,4 -4,-214 1036.2382,-214 1036.2382,4 -4,4"/>
<!-- MathematicalModel -->
<g id="node1" class="node">
<title>MathematicalModel</title>
<g id="a_node1"><a xlink:href="http://emmo.info/emmo/middle/models#EMMO_f7ed665b_c2e1_42bc_889b_6b42ed3a36f0" xlink:title="MathematicalModel">
<ellipse fill="#ffc880" stroke="#000000" stroke-width="2" cx="83.1926" cy="-105" rx="83.3857" ry="18"/>
<text text-anchor="middle" x="83.1926" y="-101.3" font-family="Times,serif" font-size="14.00" fill="#000000">MathematicalModel</text>
</a>
</g>
</g>
<!-- Mathematical -->
<g id="node2" class="node">
<title>Mathematical</title>
<g id="a_node2"><a xlink:href="http://emmo.info/emmo/middle/math#EMMO_54ee6b5e_5261_44a8_86eb_5717e7fdb9d0" xlink:title="Mathematical">
<ellipse fill="#ffffcc" stroke="#000000" stroke-width="2" cx="550.1926" cy="-192" rx="59.5901" ry="18"/>
<text text-anchor="middle" x="550.1926" y="-188.3" font-family="Times,serif" font-size="14.00" fill="#000000">Mathematical</text>
</a>
</g>
</g>
<!-- MathematicalModel&#45;&gt;Mathematical -->
<g id="edge13" class="edge">
<title>MathematicalModel&#45;&gt;Mathematical</title>
<path fill="none" stroke="#000000" d="M135.8518,-119.0721C178.7773,-130.1886 241.0939,-145.5232 296.1926,-156 359.6701,-168.07 432.7758,-178.0214 484.2104,-184.3791"/>
<polygon fill="none" stroke="#000000" points="483.8478,-187.8607 494.1991,-185.6023 484.6987,-180.9126 483.8478,-187.8607"/>
<text text-anchor="middle" x="305.6926" y="-144.8" font-family="Times,serif" font-size="14.00" fill="#000000">isA</text>
</g>
<!-- Unknown -->
<g id="node3" class="node">
<title>Unknown</title>
<g id="a_node3"><a xlink:href="http://emmo.info/emmo/middle/math#EMMO_fe7e56ce_118b_4243_9aad_20eb9f4f31f6" xlink:title="Unknown">
<ellipse fill="#ffffcc" stroke="#000000" cx="606.1926" cy="-18" rx="45.4919" ry="18"/>
<text text-anchor="middle" x="606.1926" y="-14.3" font-family="Times,serif" font-size="14.00" fill="#000000">Unknown</text>
</a>
</g>
</g>
<!-- Variable -->
<g id="node10" class="node">
<title>Variable</title>
<g id="a_node10"><a xlink:href="http://emmo.info/emmo/middle/math#EMMO_1eed0732_e3f1_4b2c_a9c4_b4e75eeb5895" xlink:title="Variable">
<ellipse fill="#ffffcc" stroke="#000000" cx="659.1926" cy="-105" rx="40.8928" ry="18"/>
<text text-anchor="middle" x="659.1926" y="-101.3" font-family="Times,serif" font-size="14.00" fill="#000000">Variable</text>
</a>
</g>
</g>
<!-- Unknown&#45;&gt;Variable -->
<g id="edge11" class="edge">
<title>Unknown&#45;&gt;Variable</title>
<path fill="none" stroke="#000000" d="M614.3721,-35.8768C619.1657,-45.8529 625.5677,-58.3736 632.1926,-69 634.3625,-72.4805 636.778,-76.0476 639.247,-79.5192"/>
<polygon fill="none" stroke="#000000" points="636.6354,-81.8751 645.3854,-87.8489 642.2705,-77.7223 636.6354,-81.8751"/>
<text text-anchor="middle" x="641.6926" y="-57.8" font-family="Times,serif" font-size="14.00" fill="#000000">isA</text>
</g>
<!-- Array -->
<g id="node4" class="node">
<title>Array</title>
<g id="a_node4"><a xlink:href="http://emmo.info/emmo/top/math#EMMO_28fbea28_2204_4613_87ff_6d877b855fcd" xlink:title="Array">
<ellipse fill="#ffffcc" stroke="#000000" cx="215.1926" cy="-105" rx="31.3957" ry="18"/>
<text text-anchor="middle" x="215.1926" y="-101.3" font-family="Times,serif" font-size="14.00" fill="#000000">Array</text>
</a>
</g>
</g>
<!-- Array&#45;&gt;Mathematical -->
<g id="edge14" class="edge">
<title>Array&#45;&gt;Mathematical</title>
<path fill="none" stroke="#000000" d="M239.4311,-116.8055C244.5628,-119.0497 249.999,-121.2424 255.1926,-123 333.8453,-149.6167 427.6754,-169.6454 488.0539,-181.0895"/>
<polygon fill="none" stroke="#000000" points="487.7139,-184.5866 498.1876,-182.9891 489.0037,-177.7064 487.7139,-184.5866"/>
<text text-anchor="middle" x="376.6926" y="-144.8" font-family="Times,serif" font-size="14.00" fill="#000000">isA</text>
</g>
<!-- MathematicalSymbol -->
<g id="node5" class="node">
<title>MathematicalSymbol</title>
<g id="a_node5"><a xlink:href="http://emmo.info/emmo/middle/math#EMMO_5be83f9c_a4ba_4b9a_be1a_5bfc6e891231" xlink:title="MathematicalSymbol">
<ellipse fill="#ffc880" stroke="#000000" stroke-width="2" cx="352.1926" cy="-105" rx="87.9851" ry="18"/>
<text text-anchor="middle" x="352.1926" y="-101.3" font-family="Times,serif" font-size="14.00" fill="#000000">MathematicalSymbol</text>
</a>
</g>
</g>
<!-- MathematicalSymbol&#45;&gt;Mathematical -->
<g id="edge12" class="edge">
<title>MathematicalSymbol&#45;&gt;Mathematical</title>
<path fill="none" stroke="#000000" d="M389.4349,-121.364C422.7136,-135.9865 471.4938,-157.4202 506.5837,-172.8385"/>
<polygon fill="none" stroke="#000000" points="505.5304,-176.1986 516.0936,-177.0171 508.3464,-169.79 505.5304,-176.1986"/>
<text text-anchor="middle" x="472.6926" y="-144.8" font-family="Times,serif" font-size="14.00" fill="#000000">isA</text>
</g>
<!-- PhysicalQuantity -->
<g id="node6" class="node">
<title>PhysicalQuantity</title>
<g id="a_node6"><a xlink:href="http://emmo.info/emmo/middle/units#EMMO_02c0621e_a527_4790_8a0f_2bb51973c819" xlink:title="PhysicalQuantity">
<ellipse fill="#ffffcc" stroke="#000000" stroke-width="2" cx="529.1926" cy="-105" rx="71.4873" ry="18"/>
<text text-anchor="middle" x="529.1926" y="-101.3" font-family="Times,serif" font-size="14.00" fill="#000000">PhysicalQuantity</text>
</a>
</g>
</g>
<!-- PhysicalQuantity&#45;&gt;Mathematical -->
<g id="edge1" class="edge">
<title>PhysicalQuantity&#45;&gt;Mathematical</title>
<path fill="none" stroke="#000000" d="M527.436,-123.2382C527.01,-133.1004 527.334,-145.3973 530.1926,-156 531.004,-159.0094 532.119,-162.0378 533.4107,-164.9914"/>
<polygon fill="none" stroke="#000000" points="530.3547,-166.7047 537.9833,-174.0569 536.6047,-163.5521 530.3547,-166.7047"/>
<text text-anchor="middle" x="539.6926" y="-144.8" font-family="Times,serif" font-size="14.00" fill="#000000">isA</text>
</g>
<!-- Constant -->
<g id="node7" class="node">
<title>Constant</title>
<g id="a_node7"><a xlink:href="http://emmo.info/emmo/middle/math#EMMO_ae15fb4f_8e4d_41de_a0f9_3997f89ba6a2" xlink:title="Constant">
<ellipse fill="#ffffcc" stroke="#000000" cx="712.1926" cy="-18" rx="42.4939" ry="18"/>
<text text-anchor="middle" x="712.1926" y="-14.3" font-family="Times,serif" font-size="14.00" fill="#000000">Constant</text>
</a>
</g>
</g>
<!-- Constant&#45;&gt;Variable -->
<g id="edge6" class="edge">
<title>Constant&#45;&gt;Variable</title>
<path fill="none" stroke="#000000" d="M683.3066,-31.2044C674.2728,-36.8672 665.3318,-44.4212 660.1926,-54 656.5083,-60.8672 655.2387,-69.0396 655.1592,-76.8084"/>
<polygon fill="none" stroke="#000000" points="651.6735,-77.1808 655.6733,-86.9915 658.6646,-76.8277 651.6735,-77.1808"/>
<text text-anchor="middle" x="669.6926" y="-57.8" font-family="Times,serif" font-size="14.00" fill="#000000">isA</text>
</g>
<!-- Numerical -->
<g id="node14" class="node">
<title>Numerical</title>
<g id="a_node14"><a xlink:href="http://emmo.info/emmo/middle/math#EMMO_4ce76d7f_03f8_45b6_9003_90052a79bfaa" xlink:title="Numerical">
<ellipse fill="#ffffcc" stroke="#000000" cx="766.1926" cy="-105" rx="48.1917" ry="18"/>
<text text-anchor="middle" x="766.1926" y="-101.3" font-family="Times,serif" font-size="14.00" fill="#000000">Numerical</text>
</a>
</g>
</g>
<!-- Constant&#45;&gt;Numerical -->
<g id="edge7" class="edge">
<title>Constant&#45;&gt;Numerical</title>
<path fill="none" stroke="#ffa500" stroke-dasharray="5,2" d="M702.8197,-36.023C698.8621,-46.2807 696.3621,-59.0307 702.1926,-69 706.6797,-76.6722 713.4695,-82.8355 720.975,-87.7429"/>
<polygon fill="#ffa500" stroke="#ffa500" points="728.2753,-95.9763 721.3498,-87.9583 731.7638,-89.9075 728.2753,-95.9763"/>
<text text-anchor="middle" x="773.1926" y="-57.8" font-family="Times,serif" font-size="14.00" fill="#000000">Inverse(hasVariable) only</text>
</g>
<!-- Parameter -->
<g id="node8" class="node">
<title>Parameter</title>
<g id="a_node8"><a xlink:href="http://emmo.info/emmo/middle/math#EMMO_d1d436e7_72fc_49cd_863b_7bfb4ba5276a" xlink:title="Parameter">
<ellipse fill="#ffffcc" stroke="#000000" cx="866.1926" cy="-18" rx="46.5926" ry="18"/>
<text text-anchor="middle" x="866.1926" y="-14.3" font-family="Times,serif" font-size="14.00" fill="#000000">Parameter</text>
</a>
</g>
</g>
<!-- Parameter&#45;&gt;Variable -->
<g id="edge15" class="edge">
<title>Parameter&#45;&gt;Variable</title>
<path fill="none" stroke="#000000" d="M863.05,-36.1438C860.1217,-47.3891 854.5713,-61.142 844.1926,-69 795.9334,-105.5383 768.0023,-72.6673 709.1926,-87 705.9657,-87.7864 702.6576,-88.7076 699.355,-89.7102"/>
<polygon fill="none" stroke="#000000" points="697.9718,-86.4798 689.55,-92.9082 700.1425,-93.1347 697.9718,-86.4798"/>
<text text-anchor="middle" x="865.6926" y="-57.8" font-family="Times,serif" font-size="14.00" fill="#000000">isA</text>
</g>
<!-- Matrix -->
<g id="node9" class="node">
<title>Matrix</title>
<g id="a_node9"><a xlink:href="http://emmo.info/emmo/top/math#EMMO_1cba0b27_15d0_4326_933f_379d0b3565b6" xlink:title="Matrix">
<ellipse fill="#ffffcc" stroke="#000000" cx="171.1926" cy="-18" rx="35.194" ry="18"/>
<text text-anchor="middle" x="171.1926" y="-14.3" font-family="Times,serif" font-size="14.00" fill="#000000">Matrix</text>
</a>
</g>
</g>
<!-- Matrix&#45;&gt;Array -->
<g id="edge8" class="edge">
<title>Matrix&#45;&gt;Array</title>
<path fill="none" stroke="#000000" d="M180.0967,-35.6057C186.3399,-47.9504 194.7955,-64.6694 201.8427,-78.6035"/>
<polygon fill="none" stroke="#000000" points="198.8155,-80.3733 206.452,-87.7173 205.0621,-77.2141 198.8155,-80.3733"/>
<text text-anchor="middle" x="205.6926" y="-57.8" font-family="Times,serif" font-size="14.00" fill="#000000">isA</text>
</g>
<!-- Variable&#45;&gt;Mathematical -->
<g id="edge3" class="edge">
<title>Variable&#45;&gt;Mathematical</title>
<path fill="none" stroke="#000000" d="M627.6344,-116.7287C604.523,-125.5397 576.4719,-136.784 572.1926,-141 565.6755,-147.4206 560.9673,-156.087 557.6223,-164.4527"/>
<polygon fill="none" stroke="#000000" points="554.287,-163.3877 554.2951,-173.9825 560.8958,-165.6951 554.287,-163.3877"/>
<text text-anchor="middle" x="581.6926" y="-144.8" font-family="Times,serif" font-size="14.00" fill="#000000">isA</text>
</g>
<!-- Variable&#45;&gt;Mathematical -->
<g id="edge4" class="edge">
<title>Variable&#45;&gt;Mathematical</title>
<path fill="none" stroke="#ffa500" stroke-dasharray="5,2" d="M639.2003,-120.9571C622.4967,-134.2894 598.4465,-153.4854 579.5557,-168.5634"/>
<polygon fill="#ffa500" stroke="#ffa500" points="569.3654,-172.2188 579.3645,-168.716 573.7321,-177.6898 569.3654,-172.2188"/>
<text text-anchor="middle" x="684.6926" y="-144.8" font-family="Times,serif" font-size="14.00" fill="#000000">Inverse(hasVariable) some</text>
</g>
<!-- Formula -->
<g id="node11" class="node">
<title>Formula</title>
<g id="a_node11"><a xlink:href="http://emmo.info/emmo/middle/math#EMMO_88470739_03d3_4c47_a03e_b30a1288d50c" xlink:title="Formula">
<ellipse fill="#ffffcc" stroke="#000000" stroke-width="2" cx="873.1926" cy="-105" rx="40.8928" ry="18"/>
<text text-anchor="middle" x="873.1926" y="-101.3" font-family="Times,serif" font-size="14.00" fill="#000000">Formula</text>
</a>
</g>
</g>
<!-- Formula&#45;&gt;Mathematical -->
<g id="edge9" class="edge">
<title>Formula&#45;&gt;Mathematical</title>
<path fill="none" stroke="#000000" d="M853.1809,-120.7183C837.2851,-132.3635 814.0084,-147.611 791.1926,-156 760.1331,-167.4201 677.0278,-178.3272 617.0902,-185.0831"/>
<polygon fill="none" stroke="#000000" points="616.4865,-181.6285 606.935,-186.2132 617.2608,-188.5856 616.4865,-181.6285"/>
<text text-anchor="middle" x="830.6926" y="-144.8" font-family="Times,serif" font-size="14.00" fill="#000000">isA</text>
</g>
<!-- Expression -->
<g id="node12" class="node">
<title>Expression</title>
<g id="a_node12"><a xlink:href="http://emmo.info/emmo/middle/math#EMMO_f9bc8b52_85e9_4b53_b969_dd7724d5b8e4" xlink:title="Expression">
<ellipse fill="#ffffcc" stroke="#000000" stroke-width="2" cx="982.1926" cy="-105" rx="50.0912" ry="18"/>
<text text-anchor="middle" x="982.1926" y="-101.3" font-family="Times,serif" font-size="14.00" fill="#000000">Expression</text>
</a>
</g>
</g>
<!-- Expression&#45;&gt;Mathematical -->
<g id="edge5" class="edge">
<title>Expression&#45;&gt;Mathematical</title>
<path fill="none" stroke="#000000" d="M950.5067,-119.1134C922.952,-130.7997 881.6747,-146.9101 844.1926,-156 768.4883,-174.3593 679.432,-183.5964 619.3341,-188.0786"/>
<polygon fill="none" stroke="#000000" points="618.925,-184.5989 609.2029,-188.8096 619.4289,-191.5807 618.925,-184.5989"/>
<text text-anchor="middle" x="899.6926" y="-144.8" font-family="Times,serif" font-size="14.00" fill="#000000">isA</text>
</g>
<!-- Vector -->
<g id="node13" class="node">
<title>Vector</title>
<g id="a_node13"><a xlink:href="http://emmo.info/emmo/middle/math#EMMO_06658d8d_dcde_4fc9_aae1_17f71c0bcdec" xlink:title="Vector">
<ellipse fill="#ffffcc" stroke="#000000" cx="259.1926" cy="-18" rx="34.394" ry="18"/>
<text text-anchor="middle" x="259.1926" y="-14.3" font-family="Times,serif" font-size="14.00" fill="#000000">Vector</text>
</a>
</g>
</g>
<!-- Vector&#45;&gt;Array -->
<g id="edge10" class="edge">
<title>Vector&#45;&gt;Array</title>
<path fill="none" stroke="#000000" d="M250.2886,-35.6057C244.0453,-47.9504 235.5897,-64.6694 228.5426,-78.6035"/>
<polygon fill="none" stroke="#000000" points="225.3232,-77.2141 223.9333,-87.7173 231.5697,-80.3733 225.3232,-77.2141"/>
<text text-anchor="middle" x="249.6926" y="-57.8" font-family="Times,serif" font-size="14.00" fill="#000000">isA</text>
</g>
<!-- Numerical&#45;&gt;Mathematical -->
<g id="edge2" class="edge">
<title>Numerical&#45;&gt;Mathematical</title>
<path fill="none" stroke="#000000" d="M769.4426,-123.2558C770.2747,-134.1148 769.1955,-147.4055 761.1926,-156 742.3086,-176.2801 673.816,-185.149 619.925,-189.0195"/>
<polygon fill="none" stroke="#000000" points="619.4468,-185.5437 609.7044,-189.7073 619.9169,-192.5279 619.4468,-185.5437"/>
<text text-anchor="middle" x="777.6926" y="-144.8" font-family="Times,serif" font-size="14.00" fill="#000000">isA</text>
</g>
</g>
</svg>
