<?xml version="1.0" encoding="UTF-8" standalone="no"?>
<!DOCTYPE svg PUBLIC "-//W3C//DTD SVG 1.1//EN"
 "http://www.w3.org/Graphics/SVG/1.1/DTD/svg11.dtd">
<!-- Generated by graphviz version 2.40.1 (20161225.0304)
 -->
<!-- Title: %3 Pages: 1 -->
<svg width="844pt" height="392pt"
 viewBox="0.00 0.00 844.39 392.00" xmlns="http://www.w3.org/2000/svg" xmlns:xlink="http://www.w3.org/1999/xlink">
<g id="graph0" class="graph" transform="scale(1 1) rotate(0) translate(4 388)">
<title>%3</title>
<polygon fill="#ffffff" stroke="transparent" points="-4,4 -4,-388 840.3864,-388 840.3864,4 -4,4"/>
<!-- PrefixedUnit -->
<g id="node1" class="node">
<title>PrefixedUnit</title>
<g id="a_node1"><a xlink:href="http://emmo.info/emmo/middle/units#EMMO_c6d4a5e0_7e95_44df_a6db_84ee0a8bbc8e" xlink:title="PrefixedUnit">
<ellipse fill="#ffffcc" stroke="#000000" stroke-width="2" cx="598.8403" cy="-279" rx="55.7903" ry="18"/>
<text text-anchor="middle" x="598.8403" y="-275.3" font-family="Times,serif" font-size="14.00" fill="#000000">PrefixedUnit</text>
</a>
</g>
</g>
<!-- UnitSymbol -->
<g id="node9" class="node">
<title>UnitSymbol</title>
<g id="a_node9"><a xlink:href="http://emmo.info/emmo/middle/units#EMMO_216f448e_cdbc_4aeb_a529_7a5fe7fc38bb" xlink:title="UnitSymbol">
<ellipse fill="#ffc880" stroke="#000000" cx="679.8403" cy="-192" rx="53.8905" ry="18"/>
<text text-anchor="middle" x="679.8403" y="-188.3" font-family="Times,serif" font-size="14.00" fill="#000000">UnitSymbol</text>
</a>
</g>
</g>
<!-- PrefixedUnit&#45;&gt;UnitSymbol -->
<g id="edge3" class="edge">
<title>PrefixedUnit&#45;&gt;UnitSymbol</title>
<path fill="none" stroke="#006400" d="M556.597,-267.1911C528.8068,-258.9979 496.8445,-248.5888 492.8403,-243 488.9575,-237.5807 488.5951,-233.1403 492.8403,-228 500.9817,-218.1417 567.5609,-207.053 618.9834,-199.8202"/>
<polygon fill="#006400" stroke="#006400" points="619.6189,-203.2657 629.0441,-198.4265 618.6584,-196.3319 619.6189,-203.2657"/>
<text text-anchor="middle" x="575.3403" y="-231.8" font-family="Times,serif" font-size="14.00" fill="#000000">hasSpatialDirectPart exactly 1</text>
</g>
<!-- MeasurementUnit -->
<g id="node10" class="node">
<title>MeasurementUnit</title>
<g id="a_node10"><a xlink:href="http://emmo.info/emmo/middle/units#EMMO_b081b346_7279_46ef_9a3d_2c088fcd79f4" xlink:title="MeasurementUnit">
<ellipse fill="#ffffcc" stroke="#000000" stroke-width="2" cx="543.8403" cy="-366" rx="75.2868" ry="18"/>
<text text-anchor="middle" x="543.8403" y="-362.3" font-family="Times,serif" font-size="14.00" fill="#000000">MeasurementUnit</text>
</a>
</g>
</g>
<!-- PrefixedUnit&#45;&gt;MeasurementUnit -->
<g id="edge2" class="edge">
<title>PrefixedUnit&#45;&gt;MeasurementUnit</title>
<path fill="none" stroke="#000000" d="M587.4442,-297.0265C579.701,-309.2748 569.3277,-325.6835 560.6415,-339.4234"/>
<polygon fill="none" stroke="#000000" points="557.6069,-337.6738 555.2217,-347.9966 563.5237,-341.4143 557.6069,-337.6738"/>
<text text-anchor="middle" x="584.3403" y="-318.8" font-family="Times,serif" font-size="14.00" fill="#000000">isA</text>
</g>
<!-- SICoherentDerivedUnit -->
<g id="node2" class="node">
<title>SICoherentDerivedUnit</title>
<g id="a_node2"><a xlink:href="http://emmo.info/emmo/middle/siunits#EMMO_1273eb34_de48_43a9_925f_104110469dd2" xlink:title="SICoherentDerivedUnit">
<ellipse fill="#ffffcc" stroke="#000000" cx="332.8403" cy="-105" rx="94.7833" ry="18"/>
<text text-anchor="middle" x="332.8403" y="-101.3" font-family="Times,serif" font-size="14.00" fill="#000000">SICoherentDerivedUnit</text>
</a>
</g>
</g>
<!-- SICoherentUnit -->
<g id="node12" class="node">
<title>SICoherentUnit</title>
<g id="a_node12"><a xlink:href="http://emmo.info/emmo/middle/siunits#EMMO_707c6032_e272_4a20_98b5_d35c4f67be68" xlink:title="SICoherentUnit">
<ellipse fill="#ffffcc" stroke="#000000" cx="332.8403" cy="-192" rx="66.0889" ry="18"/>
<text text-anchor="middle" x="332.8403" y="-188.3" font-family="Times,serif" font-size="14.00" fill="#000000">SICoherentUnit</text>
</a>
</g>
</g>
<!-- SICoherentDerivedUnit&#45;&gt;SICoherentUnit -->
<g id="edge11" class="edge">
<title>SICoherentDerivedUnit&#45;&gt;SICoherentUnit</title>
<path fill="none" stroke="#000000" d="M332.8403,-123.0265C332.8403,-134.8082 332.8403,-150.4393 332.8403,-163.8419"/>
<polygon fill="none" stroke="#000000" points="329.3404,-163.9966 332.8403,-173.9966 336.3404,-163.9967 329.3404,-163.9966"/>
<text text-anchor="middle" x="342.3403" y="-144.8" font-family="Times,serif" font-size="14.00" fill="#000000">isA</text>
</g>
<!-- SINonCoherentUnit -->
<g id="node3" class="node">
<title>SINonCoherentUnit</title>
<g id="a_node3"><a xlink:href="http://emmo.info/emmo/middle/siunits#EMMO_8246541a_f1f6_4d03_8bd7_fc6b76d17375" xlink:title="SINonCoherentUnit">
<ellipse fill="#ffffcc" stroke="#000000" cx="138.8403" cy="-192" rx="81.4863" ry="18"/>
<text text-anchor="middle" x="138.8403" y="-188.3" font-family="Times,serif" font-size="14.00" fill="#000000">SINonCoherentUnit</text>
</a>
</g>
</g>
<!-- SIUnit -->
<g id="node13" class="node">
<title>SIUnit</title>
<g id="a_node13"><a xlink:href="http://emmo.info/emmo/middle/siunits#EMMO_feb03a8a_bbb6_4918_a891_46713ef557f4" xlink:title="SIUnit">
<ellipse fill="#ffffcc" stroke="#000000" cx="329.8403" cy="-279" rx="34.394" ry="18"/>
<text text-anchor="middle" x="329.8403" y="-275.3" font-family="Times,serif" font-size="14.00" fill="#000000">SIUnit</text>
</a>
</g>
</g>
<!-- SINonCoherentUnit&#45;&gt;SIUnit -->
<g id="edge7" class="edge">
<title>SINonCoherentUnit&#45;&gt;SIUnit</title>
<path fill="none" stroke="#000000" d="M174.7659,-208.364C209.0411,-223.9763 260.3628,-247.3532 294.4568,-262.8829"/>
<polygon fill="none" stroke="#000000" points="293.0365,-266.0819 303.5878,-267.0421 295.9382,-259.7117 293.0365,-266.0819"/>
<text text-anchor="middle" x="255.3403" y="-231.8" font-family="Times,serif" font-size="14.00" fill="#000000">isA</text>
</g>
<!-- UnitOne -->
<g id="node4" class="node">
<title>UnitOne</title>
<g id="a_node4"><a xlink:href="http://emmo.info/emmo/middle/units#EMMO_5ebd5e01_0ed3_49a2_a30d_cd05cbe72978" xlink:title="UnitOne">
<ellipse fill="#ffffcc" stroke="#000000" cx="792.8403" cy="-18" rx="40.8928" ry="18"/>
<text text-anchor="middle" x="792.8403" y="-14.3" font-family="Times,serif" font-size="14.00" fill="#000000">UnitOne</text>
</a>
</g>
</g>
<!-- BaseUnit -->
<g id="node14" class="node">
<title>BaseUnit</title>
<g id="a_node14"><a xlink:href="http://emmo.info/emmo/middle/units#EMMO_db716151_6b73_45ff_910c_d182fdcbb4f5" xlink:title="BaseUnit">
<ellipse fill="#ffffcc" stroke="#000000" cx="792.8403" cy="-105" rx="43.5923" ry="18"/>
<text text-anchor="middle" x="792.8403" y="-101.3" font-family="Times,serif" font-size="14.00" fill="#000000">BaseUnit</text>
</a>
</g>
</g>
<!-- UnitOne&#45;&gt;BaseUnit -->
<g id="edge1" class="edge">
<title>UnitOne&#45;&gt;BaseUnit</title>
<path fill="none" stroke="#000000" d="M792.8403,-36.0265C792.8403,-47.8082 792.8403,-63.4393 792.8403,-76.8419"/>
<polygon fill="none" stroke="#000000" points="789.3404,-76.9966 792.8403,-86.9966 796.3404,-76.9967 789.3404,-76.9966"/>
<text text-anchor="middle" x="802.3403" y="-57.8" font-family="Times,serif" font-size="14.00" fill="#000000">isA</text>
</g>
<!-- DerivedUnit -->
<g id="node5" class="node">
<title>DerivedUnit</title>
<g id="a_node5"><a xlink:href="http://emmo.info/emmo/middle/units#EMMO_08b308d4_31cd_4779_a784_aa92fc730f39" xlink:title="DerivedUnit">
<ellipse fill="#ffffcc" stroke="#000000" cx="471.8403" cy="-192" rx="54.6905" ry="18"/>
<text text-anchor="middle" x="471.8403" y="-188.3" font-family="Times,serif" font-size="14.00" fill="#000000">DerivedUnit</text>
</a>
</g>
</g>
<!-- NonPrefixedUnit -->
<g id="node11" class="node">
<title>NonPrefixedUnit</title>
<g id="a_node11"><a xlink:href="http://emmo.info/emmo/middle/units#EMMO_868ae137_4d25_493e_b270_21ea3d94849e" xlink:title="NonPrefixedUnit">
<ellipse fill="#ffffcc" stroke="#000000" cx="453.8403" cy="-279" rx="71.4873" ry="18"/>
<text text-anchor="middle" x="453.8403" y="-275.3" font-family="Times,serif" font-size="14.00" fill="#000000">NonPrefixedUnit</text>
</a>
</g>
</g>
<!-- DerivedUnit&#45;&gt;NonPrefixedUnit -->
<g id="edge14" class="edge">
<title>DerivedUnit&#45;&gt;NonPrefixedUnit</title>
<path fill="none" stroke="#000000" d="M458.9456,-209.8504C455.6398,-215.3979 452.5398,-221.7136 450.8403,-228 448.8893,-235.2162 448.5482,-243.2088 448.9683,-250.6843"/>
<polygon fill="none" stroke="#000000" points="445.4996,-251.1727 449.9806,-260.7733 452.4646,-250.4738 445.4996,-251.1727"/>
<text text-anchor="middle" x="460.3403" y="-231.8" font-family="Times,serif" font-size="14.00" fill="#000000">isA</text>
</g>
<!-- SISpecialUnit -->
<g id="node6" class="node">
<title>SISpecialUnit</title>
<g id="a_node6"><a xlink:href="http://emmo.info/emmo/middle/siunits#EMMO_e9ffc696_5228_4ff9_8a60_0f5e05e9931b" xlink:title="SISpecialUnit">
<ellipse fill="#ffffcc" stroke="#000000" stroke-width="2" cx="610.8403" cy="-18" rx="59.5901" ry="18"/>
<text text-anchor="middle" x="610.8403" y="-14.3" font-family="Times,serif" font-size="14.00" fill="#000000">SISpecialUnit</text>
</a>
</g>
</g>
<!-- SpecialUnit -->
<g id="node7" class="node">
<title>SpecialUnit</title>
<g id="a_node7"><a xlink:href="http://emmo.info/emmo/middle/units#EMMO_3ee80521_3c23_4dd1_935d_9d522614a3e2" xlink:title="SpecialUnit">
<ellipse fill="#ffffcc" stroke="#000000" cx="678.8403" cy="-105" rx="51.9908" ry="18"/>
<text text-anchor="middle" x="678.8403" y="-101.3" font-family="Times,serif" font-size="14.00" fill="#000000">SpecialUnit</text>
</a>
</g>
</g>
<!-- SISpecialUnit&#45;&gt;SpecialUnit -->
<g id="edge9" class="edge">
<title>SISpecialUnit&#45;&gt;SpecialUnit</title>
<path fill="none" stroke="#000000" d="M624.6011,-35.6057C634.4632,-48.2235 647.8973,-65.4113 658.9281,-79.5241"/>
<polygon fill="none" stroke="#000000" points="656.1841,-81.6969 665.0999,-87.4204 661.6993,-77.3862 656.1841,-81.6969"/>
<text text-anchor="middle" x="658.3403" y="-57.8" font-family="Times,serif" font-size="14.00" fill="#000000">isA</text>
</g>
<!-- SIUnitSymbol -->
<g id="node8" class="node">
<title>SIUnitSymbol</title>
<g id="a_node8"><a xlink:href="http://emmo.info/emmo/middle/siunits#EMMO_32129fb5_df25_48fd_a29c_18a2f22a2dd5" xlink:title="SIUnitSymbol">
<ellipse fill="#ffffcc" stroke="#000000" cx="546.8403" cy="-105" rx="61.99" ry="18"/>
<text text-anchor="middle" x="546.8403" y="-101.3" font-family="Times,serif" font-size="14.00" fill="#000000">SIUnitSymbol</text>
</a>
</g>
</g>
<!-- SISpecialUnit&#45;&gt;SIUnitSymbol -->
<g id="edge8" class="edge">
<title>SISpecialUnit&#45;&gt;SIUnitSymbol</title>
<path fill="none" stroke="#000000" d="M597.8889,-35.6057C588.7541,-48.0233 576.3633,-64.8671 566.0769,-78.8502"/>
<polygon fill="none" stroke="#000000" points="563.0984,-76.9926 559.992,-87.1218 568.7371,-81.1406 563.0984,-76.9926"/>
<text text-anchor="middle" x="592.3403" y="-57.8" font-family="Times,serif" font-size="14.00" fill="#000000">isA</text>
</g>
<!-- SpecialUnit&#45;&gt;DerivedUnit -->
<g id="edge18" class="edge">
<title>SpecialUnit&#45;&gt;DerivedUnit</title>
<path fill="none" stroke="#ffa500" d="M641.0611,-117.451C633.4417,-119.5919 625.4381,-121.5808 617.8403,-123 593.9488,-127.4626 416.304,-123.1209 399.8403,-141 387.2877,-154.6317 402.6764,-166.7686 422.4021,-175.7793"/>
<polygon fill="#ffa500" stroke="#ffa500" points="430.3258,-182.9186 422.4712,-175.8084 433.0454,-176.4685 430.3258,-182.9186"/>
<text text-anchor="middle" x="462.3403" y="-144.8" font-family="Times,serif" font-size="14.00" fill="#000000">Inverse(hasSign) some</text>
</g>
<!-- SpecialUnit&#45;&gt;UnitSymbol -->
<g id="edge17" class="edge">
<title>SpecialUnit&#45;&gt;UnitSymbol</title>
<path fill="none" stroke="#000000" d="M679.0475,-123.0265C679.1829,-134.8082 679.3625,-150.4393 679.5166,-163.8419"/>
<polygon fill="none" stroke="#000000" points="676.0185,-164.0376 679.6333,-173.9966 683.0181,-163.957 676.0185,-164.0376"/>
<text text-anchor="middle" x="688.3403" y="-144.8" font-family="Times,serif" font-size="14.00" fill="#000000">isA</text>
</g>
<!-- SIUnitSymbol&#45;&gt;UnitSymbol -->
<g id="edge5" class="edge">
<title>SIUnitSymbol&#45;&gt;UnitSymbol</title>
<path fill="none" stroke="#000000" d="M572.1696,-121.5688C593.2881,-135.3832 623.5395,-155.1717 646.6024,-170.2579"/>
<polygon fill="none" stroke="#000000" points="644.7709,-173.2422 655.0554,-175.7874 648.6028,-167.3841 644.7709,-173.2422"/>
<text text-anchor="middle" x="630.3403" y="-144.8" font-family="Times,serif" font-size="14.00" fill="#000000">isA</text>
</g>
<!-- SIUnitSymbol&#45;&gt;SICoherentUnit -->
<g id="edge4" class="edge">
<title>SIUnitSymbol&#45;&gt;SICoherentUnit</title>
<path fill="none" stroke="#000000" d="M543.6443,-123.0742C540.6942,-134.2909 535.1394,-148.0382 524.8403,-156 483.216,-188.1779 459.4641,-163.8522 407.8403,-174 402.5025,-175.0493 396.9701,-176.2188 391.4393,-177.444"/>
<polygon fill="none" stroke="#000000" points="390.5041,-174.0672 381.5279,-179.6956 392.0549,-180.8933 390.5041,-174.0672"/>
<text text-anchor="middle" x="547.3403" y="-144.8" font-family="Times,serif" font-size="14.00" fill="#000000">isA</text>
</g>
<!-- UnitSymbol&#45;&gt;NonPrefixedUnit -->
<g id="edge10" class="edge">
<title>UnitSymbol&#45;&gt;NonPrefixedUnit</title>
<path fill="none" stroke="#000000" d="M676.6669,-210.1035C673.7261,-221.3323 668.1732,-235.082 657.8403,-243 635.7388,-259.9362 561.221,-255.9401 533.8403,-261 528.1006,-262.0607 522.1475,-263.2433 516.1964,-264.4816"/>
<polygon fill="none" stroke="#000000" points="515.2726,-261.0998 506.2212,-266.6064 516.731,-267.9462 515.2726,-261.0998"/>
<text text-anchor="middle" x="679.3403" y="-231.8" font-family="Times,serif" font-size="14.00" fill="#000000">isA</text>
</g>
<!-- NonPrefixedUnit&#45;&gt;MeasurementUnit -->
<g id="edge15" class="edge">
<title>NonPrefixedUnit&#45;&gt;MeasurementUnit</title>
<path fill="none" stroke="#000000" d="M472.0531,-296.6057C485.3499,-309.4593 503.5527,-327.0554 518.3012,-341.3122"/>
<polygon fill="none" stroke="#000000" points="516.032,-343.9867 525.6545,-348.4204 520.8972,-338.9537 516.032,-343.9867"/>
<text text-anchor="middle" x="514.3403" y="-318.8" font-family="Times,serif" font-size="14.00" fill="#000000">isA</text>
</g>
<!-- SICoherentUnit&#45;&gt;SIUnit -->
<g id="edge12" class="edge">
<title>SICoherentUnit&#45;&gt;SIUnit</title>
<path fill="none" stroke="#000000" d="M332.2187,-210.0265C331.8124,-221.8082 331.2734,-237.4393 330.8112,-250.8419"/>
<polygon fill="none" stroke="#000000" points="327.3079,-250.8819 330.4611,-260.9966 334.3037,-251.1232 327.3079,-250.8819"/>
<text text-anchor="middle" x="341.3403" y="-231.8" font-family="Times,serif" font-size="14.00" fill="#000000">isA</text>
</g>
<!-- SIUnit&#45;&gt;MeasurementUnit -->
<g id="edge13" class="edge">
<title>SIUnit&#45;&gt;MeasurementUnit</title>
<path fill="none" stroke="#000000" d="M357.2969,-290.2459C362.7759,-292.4862 368.49,-294.8199 373.8403,-297 414.9165,-313.738 461.6069,-332.683 495.6494,-346.4813"/>
<polygon fill="none" stroke="#000000" points="494.761,-349.8977 505.3434,-350.41 497.3902,-343.4102 494.761,-349.8977"/>
<text text-anchor="middle" x="463.3403" y="-318.8" font-family="Times,serif" font-size="14.00" fill="#000000">isA</text>
</g>
<!-- BaseUnit&#45;&gt;UnitSymbol -->
<g id="edge6" class="edge">
<title>BaseUnit&#45;&gt;UnitSymbol</title>
<path fill="none" stroke="#000000" d="M772.1143,-120.9571C754.6086,-134.435 729.3193,-153.9055 709.6411,-169.056"/>
<polygon fill="none" stroke="#000000" points="707.3786,-166.3807 701.5902,-175.2545 711.649,-171.9272 707.3786,-166.3807"/>
<text text-anchor="middle" x="752.3403" y="-144.8" font-family="Times,serif" font-size="14.00" fill="#000000">isA</text>
</g>
<!-- KindOfUnit -->
<g id="node15" class="node">
<title>KindOfUnit</title>
<g id="a_node15"><a xlink:href="http://emmo.info/emmo/middle/units#EMMO_ba827fd2_91cc_4085_947a_0f47559b4441" xlink:title="KindOfUnit">
<ellipse fill="#ffffcc" stroke="#000000" stroke-width="2" cx="725.8403" cy="-279" rx="53.0913" ry="18"/>
<text text-anchor="middle" x="725.8403" y="-275.3" font-family="Times,serif" font-size="14.00" fill="#000000">KindOfUnit</text>
</a>
</g>
</g>
<!-- KindOfUnit&#45;&gt;MeasurementUnit -->
<g id="edge16" class="edge">
<title>KindOfUnit&#45;&gt;MeasurementUnit</title>
<path fill="none" stroke="#000000" d="M694.9664,-293.7584C665.2093,-307.9829 619.9263,-329.6292 586.685,-345.5193"/>
<polygon fill="none" stroke="#000000" points="585.1642,-342.3669 577.6515,-349.8375 588.1832,-348.6824 585.1642,-342.3669"/>
<text text-anchor="middle" x="654.3403" y="-318.8" font-family="Times,serif" font-size="14.00" fill="#000000">isA</text>
</g>
<!-- SINonCoherentDerivedUnit -->
<g id="node16" class="node">
<title>SINonCoherentDerivedUnit</title>
<g id="a_node16"><a xlink:href="http://emmo.info/emmo/middle/siunits#EMMO_60b78cc3_6011_4134_95ab_956f56d4bdc1" xlink:title="SINonCoherentDerivedUnit">
<ellipse fill="#ffffcc" stroke="#000000" cx="109.8403" cy="-105" rx="109.6807" ry="18"/>
<text text-anchor="middle" x="109.8403" y="-101.3" font-family="Times,serif" font-size="14.00" fill="#000000">SINonCoherentDerivedUnit</text>
</a>
</g>
</g>
<!-- SINonCoherentDerivedUnit&#45;&gt;SINonCoherentUnit -->
<g id="edge19" class="edge">
<title>SINonCoherentDerivedUnit&#45;&gt;SINonCoherentUnit</title>
<path fill="none" stroke="#000000" d="M115.8491,-123.0265C119.8152,-134.9249 125.09,-150.7492 129.5867,-164.2394"/>
<polygon fill="none" stroke="#000000" points="126.3564,-165.6166 132.8391,-173.9966 132.9972,-163.403 126.3564,-165.6166"/>
<text text-anchor="middle" x="136.3403" y="-144.8" font-family="Times,serif" font-size="14.00" fill="#000000">isA</text>
</g>
</g>
</svg>
