<?xml version="1.0" encoding="UTF-8" standalone="no"?>
<!DOCTYPE svg PUBLIC "-//W3C//DTD SVG 1.1//EN"
 "http://www.w3.org/Graphics/SVG/1.1/DTD/svg11.dtd">
<!-- Generated by graphviz version 2.40.1 (20161225.0304)
 -->
<!-- Title: %3 Pages: 1 -->
<svg width="757pt" height="218pt"
 viewBox="0.00 0.00 757.49 218.00" xmlns="http://www.w3.org/2000/svg" xmlns:xlink="http://www.w3.org/1999/xlink">
<g id="graph0" class="graph" transform="scale(1 1) rotate(0) translate(4 214)">
<title>%3</title>
<polygon fill="#ffffff" stroke="transparent" points="-4,4 -4,-214 753.4913,-214 753.4913,4 -4,4"/>
<!-- Metrological -->
<g id="node1" class="node">
<title>Metrological</title>
<g id="a_node1"><a xlink:href="http://emmo.info/emmo/middle/units#EMMO_985bec21_989f_4b9e_a4b3_735d88099c3c" xlink:title="Metrological">
<ellipse fill="#ffffcc" stroke="#000000" stroke-width="2" cx="435.895" cy="-192" rx="56.59" ry="18"/>
<text text-anchor="middle" x="435.895" y="-188.3" font-family="Times,serif" font-size="14.00" fill="#000000">Metrological</text>
</a>
</g>
</g>
<!-- MetricPrefix -->
<g id="node2" class="node">
<title>MetricPrefix</title>
<g id="a_node2"><a xlink:href="http://emmo.info/emmo/middle/units#EMMO_7d2afa66_ae9e_4095_a9bf_421d0be401b6" xlink:title="MetricPrefix">
<ellipse fill="#ffffcc" stroke="#000000" stroke-width="2" cx="55.895" cy="-18" rx="55.7903" ry="18"/>
<text text-anchor="middle" x="55.895" y="-14.3" font-family="Times,serif" font-size="14.00" fill="#000000">MetricPrefix</text>
</a>
</g>
</g>
<!-- MetrologicalSymbol -->
<g id="node6" class="node">
<title>MetrologicalSymbol</title>
<g id="a_node6"><a xlink:href="http://emmo.info/emmo/middle/units#EMMO_50a3552e_859a_4ff7_946d_76d537cabce6" xlink:title="MetrologicalSymbol">
<ellipse fill="#ffc880" stroke="#000000" cx="206.895" cy="-105" rx="84.485" ry="18"/>
<text text-anchor="middle" x="206.895" y="-101.3" font-family="Times,serif" font-size="14.00" fill="#000000">MetrologicalSymbol</text>
</a>
</g>
</g>
<!-- MetricPrefix&#45;&gt;MetrologicalSymbol -->
<g id="edge3" class="edge">
<title>MetricPrefix&#45;&gt;MetrologicalSymbol</title>
<path fill="none" stroke="#000000" d="M83.24,-33.755C107.1397,-47.525 142.0884,-67.6611 168.7393,-83.0162"/>
<polygon fill="none" stroke="#000000" points="167.0193,-86.0646 177.4314,-88.0242 170.514,-79.9993 167.0193,-86.0646"/>
<text text-anchor="middle" x="150.395" y="-57.8" font-family="Times,serif" font-size="14.00" fill="#000000">isA</text>
</g>
<!-- ProcedureUnit -->
<g id="node3" class="node">
<title>ProcedureUnit</title>
<g id="a_node3"><a xlink:href="http://emmo.info/emmo/middle/units#EMMO_c9c8f824_9127_4f93_bc21_69fe78a7f6f2" xlink:title="ProcedureUnit">
<ellipse fill="#ffffcc" stroke="#000000" cx="362.895" cy="-18" rx="61.99" ry="18"/>
<text text-anchor="middle" x="362.895" y="-14.3" font-family="Times,serif" font-size="14.00" fill="#000000">ProcedureUnit</text>
</a>
</g>
</g>
<!-- ReferenceUnit -->
<g id="node7" class="node">
<title>ReferenceUnit</title>
<g id="a_node7"><a xlink:href="http://emmo.info/emmo/middle/units#EMMO_18ce5200_00f5_45bb_8c6f_6fb128cd41ae" xlink:title="ReferenceUnit">
<ellipse fill="#ffffcc" stroke="#000000" cx="435.895" cy="-105" rx="61.99" ry="18"/>
<text text-anchor="middle" x="435.895" y="-101.3" font-family="Times,serif" font-size="14.00" fill="#000000">ReferenceUnit</text>
</a>
</g>
</g>
<!-- ProcedureUnit&#45;&gt;ReferenceUnit -->
<g id="edge2" class="edge">
<title>ProcedureUnit&#45;&gt;ReferenceUnit</title>
<path fill="none" stroke="#000000" d="M377.6677,-35.6057C388.255,-48.2235 402.6769,-65.4113 414.5187,-79.5241"/>
<polygon fill="none" stroke="#000000" points="412.0354,-82.0096 421.1444,-87.4204 417.3977,-77.5102 412.0354,-82.0096"/>
<text text-anchor="middle" x="413.395" y="-57.8" font-family="Times,serif" font-size="14.00" fill="#000000">isA</text>
</g>
<!-- StandardUnit -->
<g id="node4" class="node">
<title>StandardUnit</title>
<g id="a_node4"><a xlink:href="http://emmo.info/emmo/middle/units#EMMO_acd1a504_ca32_4f30_86ad_0b62cea5bc02" xlink:title="StandardUnit">
<ellipse fill="#ffffcc" stroke="#000000" cx="500.895" cy="-18" rx="57.6901" ry="18"/>
<text text-anchor="middle" x="500.895" y="-14.3" font-family="Times,serif" font-size="14.00" fill="#000000">StandardUnit</text>
</a>
</g>
</g>
<!-- StandardUnit&#45;&gt;ReferenceUnit -->
<g id="edge5" class="edge">
<title>StandardUnit&#45;&gt;ReferenceUnit</title>
<path fill="none" stroke="#000000" d="M487.7413,-35.6057C478.4638,-48.0233 465.8794,-64.8671 455.4322,-78.8502"/>
<polygon fill="none" stroke="#000000" points="452.4337,-77.0159 449.2523,-87.1218 458.0415,-81.2056 452.4337,-77.0159"/>
<text text-anchor="middle" x="482.395" y="-57.8" font-family="Times,serif" font-size="14.00" fill="#000000">isA</text>
</g>
<!-- PhysicsDimension -->
<g id="node5" class="node">
<title>PhysicsDimension</title>
<g id="a_node5"><a xlink:href="http://emmo.info/emmo/middle/units#EMMO_9895a1b4_f0a5_4167_ac5e_97db40b8bfcc" xlink:title="PhysicsDimension">
<ellipse fill="#ffffcc" stroke="#000000" cx="206.895" cy="-18" rx="76.8869" ry="18"/>
<text text-anchor="middle" x="206.895" y="-14.3" font-family="Times,serif" font-size="14.00" fill="#000000">PhysicsDimension</text>
</a>
</g>
</g>
<!-- PhysicsDimension&#45;&gt;MetrologicalSymbol -->
<g id="edge1" class="edge">
<title>PhysicsDimension&#45;&gt;MetrologicalSymbol</title>
<path fill="none" stroke="#000000" d="M206.895,-36.0265C206.895,-47.8082 206.895,-63.4393 206.895,-76.8419"/>
<polygon fill="none" stroke="#000000" points="203.3951,-76.9966 206.895,-86.9966 210.3951,-76.9967 203.3951,-76.9966"/>
<text text-anchor="middle" x="216.395" y="-57.8" font-family="Times,serif" font-size="14.00" fill="#000000">isA</text>
</g>
<!-- MetrologicalSymbol&#45;&gt;Metrological -->
<g id="edge9" class="edge">
<title>MetrologicalSymbol&#45;&gt;Metrological</title>
<path fill="none" stroke="#000000" d="M248.3652,-120.755C288.2193,-135.8961 348.3329,-158.734 389.6995,-174.4497"/>
<polygon fill="none" stroke="#000000" points="388.6758,-177.8048 399.2669,-178.0845 391.1618,-171.2611 388.6758,-177.8048"/>
<text text-anchor="middle" x="345.395" y="-144.8" font-family="Times,serif" font-size="14.00" fill="#000000">isA</text>
</g>
<!-- ReferenceUnit&#45;&gt;Metrological -->
<g id="edge6" class="edge">
<title>ReferenceUnit&#45;&gt;Metrological</title>
<path fill="none" stroke="#000000" d="M435.895,-123.0265C435.895,-134.8082 435.895,-150.4393 435.895,-163.8419"/>
<polygon fill="none" stroke="#000000" points="432.3951,-163.9966 435.895,-173.9966 439.3951,-163.9967 432.3951,-163.9966"/>
<text text-anchor="middle" x="445.395" y="-144.8" font-family="Times,serif" font-size="14.00" fill="#000000">isA</text>
</g>
<!-- Quantity -->
<g id="node8" class="node">
<title>Quantity</title>
<g id="a_node8"><a xlink:href="http://emmo.info/emmo/middle/units#EMMO_f658c301_ce93_46cf_9639_4eace2c5d1d5" xlink:title="Quantity">
<ellipse fill="#ffffcc" stroke="#000000" stroke-width="2" cx="707.895" cy="-105" rx="41.6928" ry="18"/>
<text text-anchor="middle" x="707.895" y="-101.3" font-family="Times,serif" font-size="14.00" fill="#000000">Quantity</text>
</a>
</g>
</g>
<!-- Quantity&#45;&gt;Metrological -->
<g id="edge7" class="edge">
<title>Quantity&#45;&gt;Metrological</title>
<path fill="none" stroke="#000000" d="M674.2697,-115.7552C627.0355,-130.8632 540.6957,-158.4792 485.9122,-176.0019"/>
<polygon fill="none" stroke="#000000" points="484.5251,-172.7708 476.0667,-179.151 486.6577,-179.438 484.5251,-172.7708"/>
<text text-anchor="middle" x="597.395" y="-144.8" font-family="Times,serif" font-size="14.00" fill="#000000">isA</text>
</g>
<!-- Quantity&#45;&gt;ReferenceUnit -->
<g id="edge8" class="edge">
<title>Quantity&#45;&gt;ReferenceUnit</title>
<path fill="none" stroke="#006400" stroke-dasharray="5,2" d="M665.9679,-105C623.9725,-105 558.5151,-105 508.1405,-105"/>
<polygon fill="#006400" stroke="#006400" points="507.9564,-101.5001 497.9564,-105 507.9564,-108.5001 507.9564,-101.5001"/>
<text text-anchor="middle" x="581.9691" y="-90.8" font-family="Times,serif" font-size="14.00" fill="#000000">hasReferenceUnit exactly 1</text>
</g>
<!-- MeasurementUnit -->
<g id="node9" class="node">
<title>MeasurementUnit</title>
<g id="a_node9"><a xlink:href="http://emmo.info/emmo/middle/units#EMMO_b081b346_7279_46ef_9a3d_2c088fcd79f4" xlink:title="MeasurementUnit">
<ellipse fill="#ffffcc" stroke="#000000" stroke-width="2" cx="651.895" cy="-18" rx="75.2868" ry="18"/>
<text text-anchor="middle" x="651.895" y="-14.3" font-family="Times,serif" font-size="14.00" fill="#000000">MeasurementUnit</text>
</a>
</g>
</g>
<!-- MeasurementUnit&#45;&gt;ReferenceUnit -->
<g id="edge4" class="edge">
<title>MeasurementUnit&#45;&gt;ReferenceUnit</title>
<path fill="none" stroke="#000000" d="M613.2786,-33.5539C576.4746,-48.3777 521.0286,-70.7101 481.9416,-86.4535"/>
<polygon fill="none" stroke="#000000" points="480.3462,-83.3227 472.378,-90.3055 482.9616,-89.8158 480.3462,-83.3227"/>
<text text-anchor="middle" x="565.395" y="-57.8" font-family="Times,serif" font-size="14.00" fill="#000000">isA</text>
</g>
</g>
</svg>
