<?xml version="1.0" encoding="UTF-8" standalone="no"?>
<!DOCTYPE svg PUBLIC "-//W3C//DTD SVG 1.1//EN"
 "http://www.w3.org/Graphics/SVG/1.1/DTD/svg11.dtd">
<!-- Generated by graphviz version 2.40.1 (20161225.0304)
 -->
<!-- Title: %3 Pages: 1 -->
<svg width="425pt" height="1070pt"
 viewBox="0.00 0.00 424.77 1070.00" xmlns="http://www.w3.org/2000/svg" xmlns:xlink="http://www.w3.org/1999/xlink">
<g id="graph0" class="graph" transform="scale(1 1) rotate(0) translate(4 1066)">
<title>%3</title>
<polygon fill="#ffffff" stroke="transparent" points="-4,4 -4,-1066 420.7728,-1066 420.7728,4 -4,4"/>
<!-- MetricPrefix -->
<g id="node1" class="node">
<title>MetricPrefix</title>
<g id="a_node1"><a xlink:href="http://emmo.info/emmo/middle/units#EMMO_7d2afa66_ae9e_4095_a9bf_421d0be401b6" xlink:title="MetricPrefix">
<ellipse fill="#ffffcc" stroke="#000000" stroke-width="2" cx="55.895" cy="-531" rx="55.7903" ry="18"/>
<text text-anchor="middle" x="55.895" y="-527.3" font-family="Times,serif" font-size="14.00" fill="#000000">MetricPrefix</text>
</a>
</g>
</g>
<!-- Milli -->
<g id="node2" class="node">
<title>Milli</title>
<g id="a_node2"><a xlink:href="http://emmo.info/emmo/middle/siunits#EMMO_a3a701ed_6f7d_4a10_9aee_dfa1961fc7b7" xlink:title="Milli">
<ellipse fill="#ffffcc" stroke="#000000" cx="382.9758" cy="-1044" rx="28.6953" ry="18"/>
<text text-anchor="middle" x="382.9758" y="-1040.3" font-family="Times,serif" font-size="14.00" fill="#000000">Milli</text>
</a>
</g>
</g>
<!-- SIMetricPrefix -->
<g id="node22" class="node">
<title>SIMetricPrefix</title>
<g id="a_node22"><a xlink:href="http://emmo.info/emmo/middle/siunits#EMMO_471cb92b_edca_4cf9_bce8_a75084d876b8" xlink:title="SIMetricPrefix">
<ellipse fill="#ffffcc" stroke="#000000" cx="230.4844" cy="-531" rx="63.8893" ry="18"/>
<text text-anchor="middle" x="230.4844" y="-527.3" font-family="Times,serif" font-size="14.00" fill="#000000">SIMetricPrefix</text>
</a>
</g>
</g>
<!-- Milli&#45;&gt;SIMetricPrefix -->
<g id="edge4" class="edge">
<title>Milli&#45;&gt;SIMetricPrefix</title>
<path fill="none" stroke="#000000" d="M363.7711,-1030.4479C358.7278,-1026.426 353.4968,-1021.8029 349.1788,-1017 328.7362,-994.262 323.4698,-987.4153 312.1788,-959 255.3025,-815.8631 237.2211,-629.6725 232.2024,-559.4568"/>
<polygon fill="none" stroke="#000000" points="235.6759,-558.9471 231.5051,-549.2077 228.692,-559.4223 235.6759,-558.9471"/>
<text text-anchor="middle" x="321.6788" y="-997.8" font-family="Times,serif" font-size="14.00" fill="#000000">isA</text>
</g>
<!-- Peta -->
<g id="node3" class="node">
<title>Peta</title>
<g id="a_node3"><a xlink:href="http://emmo.info/emmo/middle/siunits#EMMO_43a6b269_da31_4bb6_a537_c97df4fff32a" xlink:title="Peta">
<ellipse fill="#ffffcc" stroke="#000000" cx="382.9758" cy="-990" rx="27" ry="18"/>
<text text-anchor="middle" x="382.9758" y="-986.3" font-family="Times,serif" font-size="14.00" fill="#000000">Peta</text>
</a>
</g>
</g>
<!-- Peta&#45;&gt;SIMetricPrefix -->
<g id="edge1" class="edge">
<title>Peta&#45;&gt;SIMetricPrefix</title>
<path fill="none" stroke="#000000" d="M364.1226,-976.7275C358.9716,-972.6409 353.5973,-967.9146 349.1788,-963 328.7362,-940.262 323.8446,-933.2635 312.1788,-905 261.4816,-782.1725 240.1433,-623.0793 233.2284,-559.2849"/>
<polygon fill="none" stroke="#000000" points="236.6943,-558.7758 232.1702,-549.1955 229.7325,-559.5061 236.6943,-558.7758"/>
<text text-anchor="middle" x="321.6788" y="-943.8" font-family="Times,serif" font-size="14.00" fill="#000000">isA</text>
</g>
<!-- Micro -->
<g id="node4" class="node">
<title>Micro</title>
<g id="a_node4"><a xlink:href="http://emmo.info/emmo/middle/siunits#EMMO_9ff3bf8e_2168_406e_8251_1d158fc948ae" xlink:title="Micro">
<ellipse fill="#ffffcc" stroke="#000000" cx="382.9758" cy="-936" rx="32.4942" ry="18"/>
<text text-anchor="middle" x="382.9758" y="-932.3" font-family="Times,serif" font-size="14.00" fill="#000000">Micro</text>
</a>
</g>
</g>
<!-- Micro&#45;&gt;SIMetricPrefix -->
<g id="edge17" class="edge">
<title>Micro&#45;&gt;SIMetricPrefix</title>
<path fill="none" stroke="#000000" d="M362.7131,-921.5975C358.0024,-917.78 353.1956,-913.4678 349.1788,-909 328.7362,-886.262 324.3359,-879.0556 312.1788,-851 267.6313,-748.1959 243.4925,-615.8903 234.5612,-559.0179"/>
<polygon fill="none" stroke="#000000" points="237.9987,-558.3433 233.0224,-548.9898 231.0797,-559.405 237.9987,-558.3433"/>
<text text-anchor="middle" x="321.6788" y="-889.8" font-family="Times,serif" font-size="14.00" fill="#000000">isA</text>
</g>
<!-- Tera -->
<g id="node5" class="node">
<title>Tera</title>
<g id="a_node5"><a xlink:href="http://emmo.info/emmo/middle/siunits#EMMO_3a204900_2b33_47d1_b444_815cc4c8cffa" xlink:title="Tera">
<ellipse fill="#ffffcc" stroke="#000000" cx="382.9758" cy="-882" rx="27" ry="18"/>
<text text-anchor="middle" x="382.9758" y="-878.3" font-family="Times,serif" font-size="14.00" fill="#000000">Tera</text>
</a>
</g>
</g>
<!-- Tera&#45;&gt;SIMetricPrefix -->
<g id="edge6" class="edge">
<title>Tera&#45;&gt;SIMetricPrefix</title>
<path fill="none" stroke="#000000" d="M364.0981,-868.7495C358.9467,-864.6632 353.5783,-859.9317 349.1788,-855 328.5741,-831.903 325.0699,-824.1397 312.1788,-796 274.3508,-713.4261 247.91,-608.6394 236.6168,-559.2235"/>
<polygon fill="none" stroke="#000000" points="239.9872,-558.2583 234.377,-549.2708 233.158,-559.7952 239.9872,-558.2583"/>
<text text-anchor="middle" x="321.6788" y="-835.8" font-family="Times,serif" font-size="14.00" fill="#000000">isA</text>
</g>
<!-- Nano -->
<g id="node6" class="node">
<title>Nano</title>
<g id="a_node6"><a xlink:href="http://emmo.info/emmo/middle/siunits#EMMO_e1981c25_7c55_4020_aa7a_d2e14ced86d4" xlink:title="Nano">
<ellipse fill="#ffffcc" stroke="#000000" cx="382.9758" cy="-828" rx="29.795" ry="18"/>
<text text-anchor="middle" x="382.9758" y="-824.3" font-family="Times,serif" font-size="14.00" fill="#000000">Nano</text>
</a>
</g>
</g>
<!-- Nano&#45;&gt;SIMetricPrefix -->
<g id="edge20" class="edge">
<title>Nano&#45;&gt;SIMetricPrefix</title>
<path fill="none" stroke="#000000" d="M363.3467,-814.2305C358.4134,-810.2745 353.3431,-805.7386 349.1788,-801 328.2473,-777.1818 326.2252,-768.4277 312.1788,-740 281.0755,-677.052 253.2761,-599.1493 239.5444,-558.5474"/>
<polygon fill="none" stroke="#000000" points="242.8608,-557.4286 236.3629,-549.0604 236.224,-559.6543 242.8608,-557.4286"/>
<text text-anchor="middle" x="321.6788" y="-780.8" font-family="Times,serif" font-size="14.00" fill="#000000">isA</text>
</g>
<!-- Centi -->
<g id="node7" class="node">
<title>Centi</title>
<g id="a_node7"><a xlink:href="http://emmo.info/emmo/middle/siunits#EMMO_b55cd09a_e54d_4eb1_81dd_03c29d1b878e" xlink:title="Centi">
<ellipse fill="#ffffcc" stroke="#000000" cx="382.9758" cy="-774" rx="29.795" ry="18"/>
<text text-anchor="middle" x="382.9758" y="-770.3" font-family="Times,serif" font-size="14.00" fill="#000000">Centi</text>
</a>
</g>
</g>
<!-- Centi&#45;&gt;SIMetricPrefix -->
<g id="edge15" class="edge">
<title>Centi&#45;&gt;SIMetricPrefix</title>
<path fill="none" stroke="#000000" d="M363.4697,-760.1204C358.5354,-756.1652 353.4339,-751.6573 349.1788,-747 295.8948,-688.6798 257.7333,-602.1388 240.5946,-558.4124"/>
<polygon fill="none" stroke="#000000" points="243.8332,-557.0827 236.9751,-549.0071 237.3003,-559.5969 243.8332,-557.0827"/>
<text text-anchor="middle" x="321.6788" y="-724.8" font-family="Times,serif" font-size="14.00" fill="#000000">isA</text>
</g>
<!-- Kilo -->
<g id="node8" class="node">
<title>Kilo</title>
<g id="a_node8"><a xlink:href="http://emmo.info/emmo/middle/siunits#EMMO_74931b1b_c133_4e59_9a75_1bf0e1626201" xlink:title="Kilo">
<ellipse fill="#ffffcc" stroke="#000000" cx="382.9758" cy="-720" rx="27" ry="18"/>
<text text-anchor="middle" x="382.9758" y="-716.3" font-family="Times,serif" font-size="14.00" fill="#000000">Kilo</text>
</a>
</g>
</g>
<!-- Kilo&#45;&gt;SIMetricPrefix -->
<g id="edge3" class="edge">
<title>Kilo&#45;&gt;SIMetricPrefix</title>
<path fill="none" stroke="#000000" d="M364.3243,-706.5402C359.1766,-702.4506 353.7534,-697.7696 349.1788,-693 307.7055,-649.7586 268.4281,-591.5735 247.0862,-557.9914"/>
<polygon fill="none" stroke="#000000" points="249.8446,-555.8033 241.5554,-549.2048 243.9205,-559.5323 249.8446,-555.8033"/>
<text text-anchor="middle" x="321.6788" y="-675.8" font-family="Times,serif" font-size="14.00" fill="#000000">isA</text>
</g>
<!-- Mega -->
<g id="node9" class="node">
<title>Mega</title>
<g id="a_node9"><a xlink:href="http://emmo.info/emmo/middle/siunits#EMMO_5eaecadc_4f0d_4a3a_afc7_1fc0b83cc928" xlink:title="Mega">
<ellipse fill="#ffffcc" stroke="#000000" cx="382.9758" cy="-666" rx="31.3957" ry="18"/>
<text text-anchor="middle" x="382.9758" y="-662.3" font-family="Times,serif" font-size="14.00" fill="#000000">Mega</text>
</a>
</g>
</g>
<!-- Mega&#45;&gt;SIMetricPrefix -->
<g id="edge8" class="edge">
<title>Mega&#45;&gt;SIMetricPrefix</title>
<path fill="none" stroke="#000000" d="M364.2073,-651.3571C359.2673,-647.4078 353.9786,-643.0936 349.1788,-639 316.612,-611.2247 280.3855,-577.8903 256.6209,-555.6725"/>
<polygon fill="none" stroke="#000000" points="258.7523,-552.8731 249.0627,-548.588 253.9652,-557.9803 258.7523,-552.8731"/>
<text text-anchor="middle" x="321.6788" y="-624.8" font-family="Times,serif" font-size="14.00" fill="#000000">isA</text>
</g>
<!-- Hecto -->
<g id="node10" class="node">
<title>Hecto</title>
<g id="a_node10"><a xlink:href="http://emmo.info/emmo/middle/siunits#EMMO_21aaefc1_3f86_4208_b7db_a755f31f0f8c" xlink:title="Hecto">
<ellipse fill="#ffffcc" stroke="#000000" cx="382.9758" cy="-612" rx="31.6951" ry="18"/>
<text text-anchor="middle" x="382.9758" y="-608.3" font-family="Times,serif" font-size="14.00" fill="#000000">Hecto</text>
</a>
</g>
</g>
<!-- Hecto&#45;&gt;SIMetricPrefix -->
<g id="edge7" class="edge">
<title>Hecto&#45;&gt;SIMetricPrefix</title>
<path fill="none" stroke="#000000" d="M359.4832,-599.5213C335.5103,-586.7874 297.8906,-566.8046 269.4501,-551.6977"/>
<polygon fill="none" stroke="#000000" points="271.041,-548.5797 260.5677,-546.9796 267.7573,-554.7617 271.041,-548.5797"/>
<text text-anchor="middle" x="321.6788" y="-586.8" font-family="Times,serif" font-size="14.00" fill="#000000">isA</text>
</g>
<!-- Yocto -->
<g id="node11" class="node">
<title>Yocto</title>
<g id="a_node11"><a xlink:href="http://emmo.info/emmo/middle/siunits#EMMO_f5769206_9257_4b08_bf7b_dad7868c6afc" xlink:title="Yocto">
<ellipse fill="#ffffcc" stroke="#000000" cx="382.9758" cy="-558" rx="32.4942" ry="18"/>
<text text-anchor="middle" x="382.9758" y="-554.3" font-family="Times,serif" font-size="14.00" fill="#000000">Yocto</text>
</a>
</g>
</g>
<!-- Yocto&#45;&gt;SIMetricPrefix -->
<g id="edge2" class="edge">
<title>Yocto&#45;&gt;SIMetricPrefix</title>
<path fill="none" stroke="#000000" d="M351.7489,-552.471C335.2007,-549.541 314.2445,-545.8305 294.4272,-542.3217"/>
<polygon fill="none" stroke="#000000" points="294.9641,-538.8624 284.5071,-540.5652 293.7437,-545.7552 294.9641,-538.8624"/>
<text text-anchor="middle" x="321.6788" y="-551.8" font-family="Times,serif" font-size="14.00" fill="#000000">isA</text>
</g>
<!-- Exa -->
<g id="node12" class="node">
<title>Exa</title>
<g id="a_node12"><a xlink:href="http://emmo.info/emmo/middle/siunits#EMMO_5cf9f86c_86f5_40c4_846d_60371f670e0a" xlink:title="Exa">
<ellipse fill="#ffffcc" stroke="#000000" cx="382.9758" cy="-504" rx="27" ry="18"/>
<text text-anchor="middle" x="382.9758" y="-500.3" font-family="Times,serif" font-size="14.00" fill="#000000">Exa</text>
</a>
</g>
</g>
<!-- Exa&#45;&gt;SIMetricPrefix -->
<g id="edge13" class="edge">
<title>Exa&#45;&gt;SIMetricPrefix</title>
<path fill="none" stroke="#000000" d="M356.7616,-508.6415C339.6294,-511.6749 316.4633,-515.7766 294.6507,-519.6388"/>
<polygon fill="none" stroke="#000000" points="293.987,-516.2018 284.7504,-521.3917 295.2075,-523.0945 293.987,-516.2018"/>
<text text-anchor="middle" x="321.6788" y="-518.8" font-family="Times,serif" font-size="14.00" fill="#000000">isA</text>
</g>
<!-- Deka -->
<g id="node13" class="node">
<title>Deka</title>
<g id="a_node13"><a xlink:href="http://emmo.info/emmo/middle/siunits#EMMO_1d8b370b_c672_4d0c_964e_eaafcbf2f51f" xlink:title="Deka">
<ellipse fill="#ffffcc" stroke="#000000" cx="382.9758" cy="-450" rx="29.4969" ry="18"/>
<text text-anchor="middle" x="382.9758" y="-446.3" font-family="Times,serif" font-size="14.00" fill="#000000">Deka</text>
</a>
</g>
</g>
<!-- Deka&#45;&gt;SIMetricPrefix -->
<g id="edge12" class="edge">
<title>Deka&#45;&gt;SIMetricPrefix</title>
<path fill="none" stroke="#000000" d="M360.8022,-461.7781C336.9504,-474.4477 298.5534,-494.8433 269.6033,-510.2209"/>
<polygon fill="none" stroke="#000000" points="267.7558,-507.2391 260.5663,-515.0212 271.0396,-513.4211 267.7558,-507.2391"/>
<text text-anchor="middle" x="321.6788" y="-488.8" font-family="Times,serif" font-size="14.00" fill="#000000">isA</text>
</g>
<!-- Zetta -->
<g id="node14" class="node">
<title>Zetta</title>
<g id="a_node14"><a xlink:href="http://emmo.info/emmo/middle/siunits#EMMO_daa9ee97_4c5f_42e5_918c_44d7523e8958" xlink:title="Zetta">
<ellipse fill="#ffffcc" stroke="#000000" cx="382.9758" cy="-396" rx="28.6953" ry="18"/>
<text text-anchor="middle" x="382.9758" y="-392.3" font-family="Times,serif" font-size="14.00" fill="#000000">Zetta</text>
</a>
</g>
</g>
<!-- Zetta&#45;&gt;SIMetricPrefix -->
<g id="edge21" class="edge">
<title>Zetta&#45;&gt;SIMetricPrefix</title>
<path fill="none" stroke="#000000" d="M364.9106,-410.0813C359.7721,-414.1808 354.2072,-418.7114 349.1788,-423 316.612,-450.7753 280.3855,-484.1097 256.6209,-506.3275"/>
<polygon fill="none" stroke="#000000" points="253.9652,-504.0197 249.0627,-513.412 258.7523,-509.1269 253.9652,-504.0197"/>
<text text-anchor="middle" x="321.6788" y="-457.8" font-family="Times,serif" font-size="14.00" fill="#000000">isA</text>
</g>
<!-- Femto -->
<g id="node15" class="node">
<title>Femto</title>
<g id="a_node15"><a xlink:href="http://emmo.info/emmo/middle/siunits#EMMO_23bfe79a_cade_48f1_9a8c_fd96e6bac8ba" xlink:title="Femto">
<ellipse fill="#ffffcc" stroke="#000000" cx="382.9758" cy="-342" rx="33.5952" ry="18"/>
<text text-anchor="middle" x="382.9758" y="-338.3" font-family="Times,serif" font-size="14.00" fill="#000000">Femto</text>
</a>
</g>
</g>
<!-- Femto&#45;&gt;SIMetricPrefix -->
<g id="edge10" class="edge">
<title>Femto&#45;&gt;SIMetricPrefix</title>
<path fill="none" stroke="#000000" d="M362.9144,-356.5894C358.1975,-360.4012 353.3375,-364.664 349.1788,-369 307.7055,-412.2414 268.4281,-470.4265 247.0862,-504.0086"/>
<polygon fill="none" stroke="#000000" points="243.9205,-502.4677 241.5554,-512.7952 249.8446,-506.1967 243.9205,-502.4677"/>
<text text-anchor="middle" x="321.6788" y="-413.8" font-family="Times,serif" font-size="14.00" fill="#000000">isA</text>
</g>
<!-- Deci -->
<g id="node16" class="node">
<title>Deci</title>
<g id="a_node16"><a xlink:href="http://emmo.info/emmo/middle/siunits#EMMO_1181c938_c8f0_4ad6_bc7a_2bfdc0903d29" xlink:title="Deci">
<ellipse fill="#ffffcc" stroke="#000000" cx="382.9758" cy="-288" rx="27.0966" ry="18"/>
<text text-anchor="middle" x="382.9758" y="-284.3" font-family="Times,serif" font-size="14.00" fill="#000000">Deci</text>
</a>
</g>
</g>
<!-- Deci&#45;&gt;SIMetricPrefix -->
<g id="edge11" class="edge">
<title>Deci&#45;&gt;SIMetricPrefix</title>
<path fill="none" stroke="#000000" d="M364.1995,-301.3424C359.0497,-305.4302 353.6568,-310.1395 349.1788,-315 295.6528,-373.0982 257.5983,-459.7373 240.5382,-503.5359"/>
<polygon fill="none" stroke="#000000" points="237.2381,-502.3668 236.9363,-512.9573 243.7766,-504.8665 237.2381,-502.3668"/>
<text text-anchor="middle" x="321.6788" y="-360.8" font-family="Times,serif" font-size="14.00" fill="#000000">isA</text>
</g>
<!-- Giga -->
<g id="node17" class="node">
<title>Giga</title>
<g id="a_node17"><a xlink:href="http://emmo.info/emmo/middle/siunits#EMMO_a8eb4bbb_1bd3_4ad4_b114_2789bcbd2134" xlink:title="Giga">
<ellipse fill="#ffffcc" stroke="#000000" cx="382.9758" cy="-234" rx="27.8951" ry="18"/>
<text text-anchor="middle" x="382.9758" y="-230.3" font-family="Times,serif" font-size="14.00" fill="#000000">Giga</text>
</a>
</g>
</g>
<!-- Giga&#45;&gt;SIMetricPrefix -->
<g id="edge19" class="edge">
<title>Giga&#45;&gt;SIMetricPrefix</title>
<path fill="none" stroke="#000000" d="M363.7224,-247.5087C358.679,-251.5305 353.4601,-256.1643 349.1788,-261 328.4111,-284.4571 326.1378,-292.9522 312.1788,-321 280.7651,-384.1194 253.0923,-462.4478 239.4628,-503.2867"/>
<polygon fill="none" stroke="#000000" points="236.1237,-502.2364 236.3065,-512.8296 242.7696,-504.4345 236.1237,-502.2364"/>
<text text-anchor="middle" x="321.6788" y="-324.8" font-family="Times,serif" font-size="14.00" fill="#000000">isA</text>
</g>
<!-- Pico -->
<g id="node18" class="node">
<title>Pico</title>
<g id="a_node18"><a xlink:href="http://emmo.info/emmo/middle/siunits#EMMO_068c4e58_2470_4b1c_8454_010dd4906100" xlink:title="Pico">
<ellipse fill="#ffffcc" stroke="#000000" cx="382.9758" cy="-180" rx="27" ry="18"/>
<text text-anchor="middle" x="382.9758" y="-176.3" font-family="Times,serif" font-size="14.00" fill="#000000">Pico</text>
</a>
</g>
</g>
<!-- Pico&#45;&gt;SIMetricPrefix -->
<g id="edge16" class="edge">
<title>Pico&#45;&gt;SIMetricPrefix</title>
<path fill="none" stroke="#000000" d="M364.0981,-193.2505C358.9467,-197.3368 353.5783,-202.0683 349.1788,-207 328.5741,-230.097 325.0699,-237.8603 312.1788,-266 274.3508,-348.5739 247.91,-453.3606 236.6168,-502.7765"/>
<polygon fill="none" stroke="#000000" points="233.158,-502.2048 234.377,-512.7292 239.9872,-503.7417 233.158,-502.2048"/>
<text text-anchor="middle" x="321.6788" y="-269.8" font-family="Times,serif" font-size="14.00" fill="#000000">isA</text>
</g>
<!-- Yotta -->
<g id="node19" class="node">
<title>Yotta</title>
<g id="a_node19"><a xlink:href="http://emmo.info/emmo/middle/siunits#EMMO_e79c62ff_10ad_4ec0_baba_c19ddd4eaa11" xlink:title="Yotta">
<ellipse fill="#ffffcc" stroke="#000000" cx="382.9758" cy="-126" rx="30.5947" ry="18"/>
<text text-anchor="middle" x="382.9758" y="-122.3" font-family="Times,serif" font-size="14.00" fill="#000000">Yotta</text>
</a>
</g>
</g>
<!-- Yotta&#45;&gt;SIMetricPrefix -->
<g id="edge14" class="edge">
<title>Yotta&#45;&gt;SIMetricPrefix</title>
<path fill="none" stroke="#000000" d="M363.444,-139.8563C358.5099,-143.8116 353.415,-148.3255 349.1788,-153 328.8974,-175.38 324.2866,-182.3305 312.1788,-210 267.1314,-312.945 243.2558,-445.759 234.4771,-502.8642"/>
<polygon fill="none" stroke="#000000" points="230.9889,-502.525 232.9663,-512.9337 237.9115,-503.5638 230.9889,-502.525"/>
<text text-anchor="middle" x="321.6788" y="-213.8" font-family="Times,serif" font-size="14.00" fill="#000000">isA</text>
</g>
<!-- Atto -->
<g id="node20" class="node">
<title>Atto</title>
<g id="a_node20"><a xlink:href="http://emmo.info/emmo/middle/siunits#EMMO_42955b2d_b465_4666_86cc_ea3c2d685753" xlink:title="Atto">
<ellipse fill="#ffffcc" stroke="#000000" cx="382.9758" cy="-72" rx="27" ry="18"/>
<text text-anchor="middle" x="382.9758" y="-68.3" font-family="Times,serif" font-size="14.00" fill="#000000">Atto</text>
</a>
</g>
</g>
<!-- Atto&#45;&gt;SIMetricPrefix -->
<g id="edge9" class="edge">
<title>Atto&#45;&gt;SIMetricPrefix</title>
<path fill="none" stroke="#000000" d="M364.1733,-85.3184C359.0231,-89.4058 353.6365,-94.1209 349.1788,-99 329.0576,-121.023 323.7654,-127.5114 312.1788,-155 260.3034,-278.0711 239.6272,-438.2473 233.0589,-502.5043"/>
<polygon fill="none" stroke="#000000" points="229.555,-502.3725 232.0573,-512.6676 236.5212,-503.0591 229.555,-502.3725"/>
<text text-anchor="middle" x="321.6788" y="-158.8" font-family="Times,serif" font-size="14.00" fill="#000000">isA</text>
</g>
<!-- Zepto -->
<g id="node21" class="node">
<title>Zepto</title>
<g id="a_node21"><a xlink:href="http://emmo.info/emmo/middle/siunits#EMMO_254472c6_3dbd_4f02_bc43_571389cd281f" xlink:title="Zepto">
<ellipse fill="#ffffcc" stroke="#000000" cx="382.9758" cy="-18" rx="31.3957" ry="18"/>
<text text-anchor="middle" x="382.9758" y="-14.3" font-family="Times,serif" font-size="14.00" fill="#000000">Zepto</text>
</a>
</g>
</g>
<!-- Zepto&#45;&gt;SIMetricPrefix -->
<g id="edge5" class="edge">
<title>Zepto&#45;&gt;SIMetricPrefix</title>
<path fill="none" stroke="#000000" d="M363.1169,-32.1631C358.2929,-36.0495 353.3326,-40.4536 349.1788,-45 329.0576,-67.023 323.4044,-73.3619 312.1788,-101 253.9571,-244.3448 236.6704,-431.6777 232.0333,-502.3523"/>
<polygon fill="none" stroke="#000000" points="228.5193,-502.4713 231.3934,-512.6689 235.5059,-502.9048 228.5193,-502.4713"/>
<text text-anchor="middle" x="321.6788" y="-104.8" font-family="Times,serif" font-size="14.00" fill="#000000">isA</text>
</g>
<!-- SIMetricPrefix&#45;&gt;MetricPrefix -->
<g id="edge18" class="edge">
<title>SIMetricPrefix&#45;&gt;MetricPrefix</title>
<path fill="none" stroke="#000000" d="M166.4652,-531C152.0557,-531 136.7336,-531 122.2316,-531"/>
<polygon fill="none" stroke="#000000" points="121.8416,-527.5001 111.8416,-531 121.8416,-534.5001 121.8416,-527.5001"/>
<text text-anchor="middle" x="139.2901" y="-534.8" font-family="Times,serif" font-size="14.00" fill="#000000">isA</text>
</g>
</g>
</svg>
