<?xml version="1.0" encoding="UTF-8" standalone="no"?>
<!DOCTYPE svg PUBLIC "-//W3C//DTD SVG 1.1//EN"
 "http://www.w3.org/Graphics/SVG/1.1/DTD/svg11.dtd">
<!-- Generated by graphviz version 2.40.1 (20161225.0304)
 -->
<!-- Title: %3 Pages: 1 -->
<svg width="250pt" height="131pt"
 viewBox="0.00 0.00 250.04 131.00" xmlns="http://www.w3.org/2000/svg" xmlns:xlink="http://www.w3.org/1999/xlink">
<g id="graph0" class="graph" transform="scale(1 1) rotate(0) translate(4 127)">
<title>%3</title>
<polygon fill="#ffffff" stroke="transparent" points="-4,4 -4,-127 246.0433,-127 246.0433,4 -4,4"/>
<!-- Number -->
<g id="node1" class="node">
<title>Number</title>
<g id="a_node1"><a xlink:href="http://emmo.info/emmo/middle/math#EMMO_21f56795_ee72_4858_b571_11cfaa59c1a8" xlink:title="Number">
<ellipse fill="#ffffcc" stroke="#000000" stroke-width="2" cx="116.7468" cy="-105" rx="40.0939" ry="18"/>
<text text-anchor="middle" x="116.7468" y="-101.3" font-family="Times,serif" font-size="14.00" fill="#000000">Number</text>
</a>
</g>
</g>
<!-- Integer -->
<g id="node2" class="node">
<title>Integer</title>
<g id="a_node2"><a xlink:href="http://emmo.info/emmo/middle/math#EMMO_f8bd64d5_5d3e_4ad4_a46e_c30714fecb7f" xlink:title="Integer">
<ellipse fill="#ffc880" stroke="#000000" cx="35.7468" cy="-18" rx="35.9954" ry="18"/>
<text text-anchor="middle" x="35.7468" y="-14.3" font-family="Times,serif" font-size="14.00" fill="#000000">Integer</text>
</a>
</g>
</g>
<!-- Integer&#45;&gt;Number -->
<g id="edge3" class="edge">
<title>Integer&#45;&gt;Number</title>
<path fill="none" stroke="#000000" d="M50.9823,-34.364C63.1581,-47.4418 80.4064,-65.9677 94.184,-80.7658"/>
<polygon fill="none" stroke="#000000" points="91.6513,-83.1819 101.0272,-88.1159 96.7746,-78.412 91.6513,-83.1819"/>
<text text-anchor="middle" x="91.2468" y="-57.8" font-family="Times,serif" font-size="14.00" fill="#000000">isA</text>
</g>
<!-- Real -->
<g id="node3" class="node">
<title>Real</title>
<g id="a_node3"><a xlink:href="http://emmo.info/emmo/middle/math#EMMO_18d180e4_5e3e_42f7_820c_e08951223486" xlink:title="Real">
<ellipse fill="#ffc880" stroke="#000000" cx="116.7468" cy="-18" rx="27" ry="18"/>
<text text-anchor="middle" x="116.7468" y="-14.3" font-family="Times,serif" font-size="14.00" fill="#000000">Real</text>
</a>
</g>
</g>
<!-- Real&#45;&gt;Number -->
<g id="edge1" class="edge">
<title>Real&#45;&gt;Number</title>
<path fill="none" stroke="#000000" d="M116.7468,-36.0265C116.7468,-47.8082 116.7468,-63.4393 116.7468,-76.8419"/>
<polygon fill="none" stroke="#000000" points="113.2469,-76.9966 116.7468,-86.9966 120.2469,-76.9967 113.2469,-76.9966"/>
<text text-anchor="middle" x="126.2468" y="-57.8" font-family="Times,serif" font-size="14.00" fill="#000000">isA</text>
</g>
<!-- Boolean -->
<g id="node4" class="node">
<title>Boolean</title>
<g id="a_node4"><a xlink:href="http://emmo.info/emmo/middle/math#EMMO_54dc83cb_06e1_4739_9e45_bc09cead7f48" xlink:title="Boolean">
<ellipse fill="#ffc880" stroke="#000000" cx="201.7468" cy="-18" rx="40.0939" ry="18"/>
<text text-anchor="middle" x="201.7468" y="-14.3" font-family="Times,serif" font-size="14.00" fill="#000000">Boolean</text>
</a>
</g>
</g>
<!-- Boolean&#45;&gt;Number -->
<g id="edge2" class="edge">
<title>Boolean&#45;&gt;Number</title>
<path fill="none" stroke="#000000" d="M185.358,-34.7745C172.5406,-47.8934 154.5501,-66.3072 140.2068,-80.988"/>
<polygon fill="none" stroke="#000000" points="137.5703,-78.6782 133.0854,-88.277 142.5773,-83.5701 137.5703,-78.6782"/>
<text text-anchor="middle" x="173.2468" y="-57.8" font-family="Times,serif" font-size="14.00" fill="#000000">isA</text>
</g>
</g>
</svg>
