<?xml version="1.0" encoding="UTF-8" standalone="no"?>
<!DOCTYPE svg PUBLIC "-//W3C//DTD SVG 1.1//EN"
 "http://www.w3.org/Graphics/SVG/1.1/DTD/svg11.dtd">
<!-- Generated by graphviz version 2.40.1 (20161225.0304)
 -->
<!-- Title: %3 Pages: 1 -->
<svg width="1331pt" height="131pt"
 viewBox="0.00 0.00 1330.99 131.00" xmlns="http://www.w3.org/2000/svg" xmlns:xlink="http://www.w3.org/1999/xlink">
<g id="graph0" class="graph" transform="scale(1 1) rotate(0) translate(4 127)">
<title>%3</title>
<polygon fill="#ffffff" stroke="transparent" points="-4,4 -4,-127 1326.9919,-127 1326.9919,4 -4,4"/>
<!-- TimeUnit -->
<g id="node1" class="node">
<title>TimeUnit</title>
<g id="a_node1"><a xlink:href="http://emmo.info/emmo/middle/isq#EMMO_d69cb991_73c2_4381_bb92_982d702f624e" xlink:title="TimeUnit">
<ellipse fill="#ffc880" stroke="#000000" cx="45.496" cy="-18" rx="45.4919" ry="18"/>
<text text-anchor="middle" x="45.496" y="-14.3" font-family="Times,serif" font-size="14.00" fill="#000000">TimeUnit</text>
</a>
</g>
</g>
<!-- Object -->
<g id="node3" class="node">
<title>Object</title>
<g id="a_node3"><a xlink:href="http://emmo.info/emmo/top/semiotics#EMMO_6f5af708_f825_4feb_a0d1_a8d813d3022b" xlink:title="Object">
<ellipse fill="#ffffcc" stroke="#000000" stroke-width="2" cx="603.496" cy="-105" rx="34.394" ry="18"/>
<text text-anchor="middle" x="603.496" y="-101.3" font-family="Times,serif" font-size="14.00" fill="#000000">Object</text>
</a>
</g>
</g>
<!-- TimeUnit&#45;&gt;Object -->
<g id="edge3" class="edge">
<title>TimeUnit&#45;&gt;Object</title>
<path fill="none" stroke="#000000" d="M78.9222,-30.2127C85.6687,-32.3733 92.7589,-34.4303 99.496,-36 266.6609,-74.9475 470.4911,-94.5271 558.9698,-101.6987"/>
<polygon fill="none" stroke="#000000" points="558.9314,-105.2066 569.1778,-102.5122 559.4875,-98.2287 558.9314,-105.2066"/>
<text text-anchor="middle" x="273.996" y="-57.8" font-family="Times,serif" font-size="14.00" fill="#000000">isA</text>
</g>
<!-- LuminousIntensityUnit -->
<g id="node2" class="node">
<title>LuminousIntensityUnit</title>
<g id="a_node2"><a xlink:href="http://emmo.info/emmo/middle/isq#EMMO_b120c538_6320_470c_b9bd_c8d088694973" xlink:title="LuminousIntensityUnit">
<ellipse fill="#ffc880" stroke="#000000" cx="201.496" cy="-18" rx="92.8835" ry="18"/>
<text text-anchor="middle" x="201.496" y="-14.3" font-family="Times,serif" font-size="14.00" fill="#000000">LuminousIntensityUnit</text>
</a>
</g>
</g>
<!-- LuminousIntensityUnit&#45;&gt;Object -->
<g id="edge7" class="edge">
<title>LuminousIntensityUnit&#45;&gt;Object</title>
<path fill="none" stroke="#000000" d="M263.8674,-31.4983C346.6855,-49.4216 490.7237,-80.5941 561.624,-95.9382"/>
<polygon fill="none" stroke="#000000" points="561.0239,-99.3892 571.538,-98.0837 562.5046,-92.5476 561.0239,-99.3892"/>
<text text-anchor="middle" x="436.996" y="-57.8" font-family="Times,serif" font-size="14.00" fill="#000000">isA</text>
</g>
<!-- ElectricCurrentUnit -->
<g id="node4" class="node">
<title>ElectricCurrentUnit</title>
<g id="a_node4"><a xlink:href="http://emmo.info/emmo/middle/isq#EMMO_24e3e31f_f233_4685_a19c_6f3ce0a3c477" xlink:title="ElectricCurrentUnit">
<ellipse fill="#ffc880" stroke="#000000" cx="393.496" cy="-18" rx="80.6858" ry="18"/>
<text text-anchor="middle" x="393.496" y="-14.3" font-family="Times,serif" font-size="14.00" fill="#000000">ElectricCurrentUnit</text>
</a>
</g>
</g>
<!-- ElectricCurrentUnit&#45;&gt;Object -->
<g id="edge2" class="edge">
<title>ElectricCurrentUnit&#45;&gt;Object</title>
<path fill="none" stroke="#000000" d="M432.0132,-33.9571C470.3827,-49.8531 528.8731,-74.0848 566.6464,-89.7337"/>
<polygon fill="none" stroke="#000000" points="565.6692,-93.1173 576.2473,-93.7113 568.3484,-86.6503 565.6692,-93.1173"/>
<text text-anchor="middle" x="520.996" y="-57.8" font-family="Times,serif" font-size="14.00" fill="#000000">isA</text>
</g>
<!-- SIBaseUnit -->
<g id="node5" class="node">
<title>SIBaseUnit</title>
<g id="a_node5"><a xlink:href="http://emmo.info/emmo/middle/siunits#EMMO_3a185e6c_9e19_4776_b583_19c978156aa0" xlink:title="SIBaseUnit">
<ellipse fill="#ffffcc" stroke="#000000" stroke-width="2" cx="543.496" cy="-18" rx="51.1914" ry="18"/>
<text text-anchor="middle" x="543.496" y="-14.3" font-family="Times,serif" font-size="14.00" fill="#000000">SIBaseUnit</text>
</a>
</g>
</g>
<!-- SIBaseUnit&#45;&gt;Object -->
<g id="edge1" class="edge">
<title>SIBaseUnit&#45;&gt;Object</title>
<path fill="none" stroke="#000000" d="M555.6379,-35.6057C564.3718,-48.27 576.2809,-65.5381 586.034,-79.6802"/>
<polygon fill="none" stroke="#000000" points="583.2218,-81.7675 591.7805,-88.0125 588.9843,-77.7933 583.2218,-81.7675"/>
<text text-anchor="middle" x="586.996" y="-57.8" font-family="Times,serif" font-size="14.00" fill="#000000">isA</text>
</g>
<!-- LengthUnit -->
<g id="node6" class="node">
<title>LengthUnit</title>
<g id="a_node6"><a xlink:href="http://emmo.info/emmo/middle/isq#EMMO_0fa49646_0fe0_4253_999c_bb834019844f" xlink:title="LengthUnit">
<ellipse fill="#ffc880" stroke="#000000" cx="664.496" cy="-18" rx="51.1914" ry="18"/>
<text text-anchor="middle" x="664.496" y="-14.3" font-family="Times,serif" font-size="14.00" fill="#000000">LengthUnit</text>
</a>
</g>
</g>
<!-- LengthUnit&#45;&gt;Object -->
<g id="edge5" class="edge">
<title>LengthUnit&#45;&gt;Object</title>
<path fill="none" stroke="#000000" d="M652.1517,-35.6057C643.2722,-48.27 631.1646,-65.5381 621.2489,-79.6802"/>
<polygon fill="none" stroke="#000000" points="618.2819,-77.8153 615.4067,-88.0125 624.0135,-81.834 618.2819,-77.8153"/>
<text text-anchor="middle" x="647.996" y="-57.8" font-family="Times,serif" font-size="14.00" fill="#000000">isA</text>
</g>
<!-- AmountOfSubstanceUnit -->
<g id="node7" class="node">
<title>AmountOfSubstanceUnit</title>
<g id="a_node7"><a xlink:href="http://emmo.info/emmo/middle/isq#EMMO_32fb2db4_94f4_49b8_a374_ee5aa28a113e" xlink:title="AmountOfSubstanceUnit">
<ellipse fill="#ffc880" stroke="#000000" cx="834.496" cy="-18" rx="100.9827" ry="18"/>
<text text-anchor="middle" x="834.496" y="-14.3" font-family="Times,serif" font-size="14.00" fill="#000000">AmountOfSubstanceUnit</text>
</a>
</g>
</g>
<!-- AmountOfSubstanceUnit&#45;&gt;Object -->
<g id="edge8" class="edge">
<title>AmountOfSubstanceUnit&#45;&gt;Object</title>
<path fill="none" stroke="#000000" d="M791.0466,-34.364C747.7309,-50.6777 681.9048,-75.4694 640.8618,-90.9271"/>
<polygon fill="none" stroke="#000000" points="639.6176,-87.6557 631.493,-94.4557 642.0849,-94.2065 639.6176,-87.6557"/>
<text text-anchor="middle" x="742.996" y="-57.8" font-family="Times,serif" font-size="14.00" fill="#000000">isA</text>
</g>
<!-- ThermodynamicTemperatureUnit -->
<g id="node8" class="node">
<title>ThermodynamicTemperatureUnit</title>
<g id="a_node8"><a xlink:href="http://emmo.info/emmo/middle/isq#EMMO_f460af7c_9134_4b2f_8450_d54918a08f34" xlink:title="ThermodynamicTemperatureUnit">
<ellipse fill="#ffc880" stroke="#000000" cx="1083.496" cy="-18" rx="130.777" ry="18"/>
<text text-anchor="middle" x="1083.496" y="-14.3" font-family="Times,serif" font-size="14.00" fill="#000000">ThermodynamicTemperatureUnit</text>
</a>
</g>
</g>
<!-- ThermodynamicTemperatureUnit&#45;&gt;Object -->
<g id="edge6" class="edge">
<title>ThermodynamicTemperatureUnit&#45;&gt;Object</title>
<path fill="none" stroke="#000000" d="M1004.2337,-32.3663C901.7902,-50.9342 727.0339,-82.6088 646.482,-97.2088"/>
<polygon fill="none" stroke="#000000" points="645.4323,-93.8419 636.2169,-99.0693 646.6808,-100.7297 645.4323,-93.8419"/>
<text text-anchor="middle" x="881.996" y="-57.8" font-family="Times,serif" font-size="14.00" fill="#000000">isA</text>
</g>
<!-- MassUnit -->
<g id="node9" class="node">
<title>MassUnit</title>
<g id="a_node9"><a xlink:href="http://emmo.info/emmo/middle/isq#EMMO_8d9caab6_452d_420a_9d21_11baae773bf9" xlink:title="MassUnit">
<ellipse fill="#ffc880" stroke="#000000" cx="1277.496" cy="-18" rx="45.4919" ry="18"/>
<text text-anchor="middle" x="1277.496" y="-14.3" font-family="Times,serif" font-size="14.00" fill="#000000">MassUnit</text>
</a>
</g>
</g>
<!-- MassUnit&#45;&gt;Object -->
<g id="edge4" class="edge">
<title>MassUnit&#45;&gt;Object</title>
<path fill="none" stroke="#000000" d="M1244.1002,-30.3475C1237.3512,-32.4969 1230.2523,-34.5154 1223.496,-36 1011.2905,-82.6278 750.9368,-98.549 648.2077,-103.2558"/>
<polygon fill="none" stroke="#000000" points="648.024,-99.7604 638.1896,-103.7018 648.3354,-106.7535 648.024,-99.7604"/>
<text text-anchor="middle" x="1131.996" y="-57.8" font-family="Times,serif" font-size="14.00" fill="#000000">isA</text>
</g>
</g>
</svg>
