<?xml version="1.0" encoding="UTF-8" standalone="no"?>
<!DOCTYPE svg PUBLIC "-//W3C//DTD SVG 1.1//EN"
 "http://www.w3.org/Graphics/SVG/1.1/DTD/svg11.dtd">
<!-- Generated by graphviz version 2.40.1 (20161225.0304)
 -->
<!-- Title: %3 Pages: 1 -->
<svg width="382pt" height="218pt"
 viewBox="0.00 0.00 381.69 218.00" xmlns="http://www.w3.org/2000/svg" xmlns:xlink="http://www.w3.org/1999/xlink">
<g id="graph0" class="graph" transform="scale(1 1) rotate(0) translate(4 214)">
<title>%3</title>
<polygon fill="#ffffff" stroke="transparent" points="-4,4 -4,-214 377.6932,-214 377.6932,4 -4,4"/>
<!-- Graphical -->
<g id="node1" class="node">
<title>Graphical</title>
<g id="a_node1"><a xlink:href="http://emmo.info/emmo/middle/perceptual#EMMO_c74da218_9147_4f03_92d1_8894abca55f3" xlink:title="Graphical">
<ellipse fill="#ffffcc" stroke="#000000" stroke-width="2" cx="45.496" cy="-105" rx="45.4919" ry="18"/>
<text text-anchor="middle" x="45.496" y="-101.3" font-family="Times,serif" font-size="14.00" fill="#000000">Graphical</text>
</a>
</g>
</g>
<!-- Perceptual -->
<g id="node5" class="node">
<title>Perceptual</title>
<g id="a_node5"><a xlink:href="http://emmo.info/emmo/middle/perceptual#EMMO_649bf97b_4397_4005_90d9_219755d92e34" xlink:title="Perceptual">
<ellipse fill="#ffffcc" stroke="#000000" stroke-width="2" cx="149.496" cy="-192" rx="48.1917" ry="18"/>
<text text-anchor="middle" x="149.496" y="-188.3" font-family="Times,serif" font-size="14.00" fill="#000000">Perceptual</text>
</a>
</g>
</g>
<!-- Graphical&#45;&gt;Perceptual -->
<g id="edge6" class="edge">
<title>Graphical&#45;&gt;Perceptual</title>
<path fill="none" stroke="#000000" d="M65.0576,-121.364C81.0796,-134.7671 103.9425,-153.8927 121.8381,-168.8631"/>
<polygon fill="none" stroke="#000000" points="119.7526,-171.6817 129.6685,-175.4135 124.2441,-166.3126 119.7526,-171.6817"/>
<text text-anchor="middle" x="113.996" y="-144.8" font-family="Times,serif" font-size="14.00" fill="#000000">isA</text>
</g>
<!-- Music -->
<g id="node2" class="node">
<title>Music</title>
<g id="a_node2"><a xlink:href="http://emmo.info/emmo/middle/perceptual#EMMO_0d69f94a_f4fa_49d9_bf90_ace770eeab02" xlink:title="Music">
<ellipse fill="#ffffcc" stroke="#000000" cx="168.496" cy="-18" rx="33.2948" ry="18"/>
<text text-anchor="middle" x="168.496" y="-14.3" font-family="Times,serif" font-size="14.00" fill="#000000">Music</text>
</a>
</g>
</g>
<!-- Acoustical -->
<g id="node6" class="node">
<title>Acoustical</title>
<g id="a_node6"><a xlink:href="http://emmo.info/emmo/middle/perceptual#EMMO_4b3afb22_27cf_4ce3_88bc_492bfccb546b" xlink:title="Acoustical">
<ellipse fill="#ffffcc" stroke="#000000" cx="256.496" cy="-105" rx="48.1917" ry="18"/>
<text text-anchor="middle" x="256.496" y="-101.3" font-family="Times,serif" font-size="14.00" fill="#000000">Acoustical</text>
</a>
</g>
</g>
<!-- Music&#45;&gt;Acoustical -->
<g id="edge5" class="edge">
<title>Music&#45;&gt;Acoustical</title>
<path fill="none" stroke="#000000" d="M184.6365,-33.9571C197.8196,-46.9904 216.671,-65.6276 231.7579,-80.5431"/>
<polygon fill="none" stroke="#000000" points="229.6822,-83.4127 239.2543,-87.9543 234.6036,-78.4347 229.6822,-83.4127"/>
<text text-anchor="middle" x="227.996" y="-57.8" font-family="Times,serif" font-size="14.00" fill="#000000">isA</text>
</g>
<!-- Property -->
<g id="node3" class="node">
<title>Property</title>
<g id="a_node3"><a xlink:href="http://emmo.info/emmo/middle/properties#EMMO_b7bcff25_ffc3_474e_9ab5_01b1664bd4ba" xlink:title="Property">
<ellipse fill="#ffffcc" stroke="#000000" stroke-width="2" cx="149.496" cy="-105" rx="40.8928" ry="18"/>
<text text-anchor="middle" x="149.496" y="-101.3" font-family="Times,serif" font-size="14.00" fill="#000000">Property</text>
</a>
</g>
</g>
<!-- Property&#45;&gt;Perceptual -->
<g id="edge2" class="edge">
<title>Property&#45;&gt;Perceptual</title>
<path fill="none" stroke="#000000" d="M149.496,-123.0265C149.496,-134.8082 149.496,-150.4393 149.496,-163.8419"/>
<polygon fill="none" stroke="#000000" points="145.9961,-163.9966 149.496,-173.9966 152.9961,-163.9967 145.9961,-163.9966"/>
<text text-anchor="middle" x="158.996" y="-144.8" font-family="Times,serif" font-size="14.00" fill="#000000">isA</text>
</g>
<!-- Speech -->
<g id="node4" class="node">
<title>Speech</title>
<g id="a_node4"><a xlink:href="http://emmo.info/emmo/middle/perceptual#EMMO_660ef3b0_6692_4c51_8f69_763c7817b2e1" xlink:title="Speech">
<ellipse fill="#ffffcc" stroke="#000000" cx="256.496" cy="-18" rx="36.2938" ry="18"/>
<text text-anchor="middle" x="256.496" y="-14.3" font-family="Times,serif" font-size="14.00" fill="#000000">Speech</text>
</a>
</g>
</g>
<!-- Speech&#45;&gt;Acoustical -->
<g id="edge1" class="edge">
<title>Speech&#45;&gt;Acoustical</title>
<path fill="none" stroke="#000000" d="M256.496,-36.0265C256.496,-47.8082 256.496,-63.4393 256.496,-76.8419"/>
<polygon fill="none" stroke="#000000" points="252.9961,-76.9966 256.496,-86.9966 259.9961,-76.9967 252.9961,-76.9966"/>
<text text-anchor="middle" x="265.996" y="-57.8" font-family="Times,serif" font-size="14.00" fill="#000000">isA</text>
</g>
<!-- Acoustical&#45;&gt;Perceptual -->
<g id="edge3" class="edge">
<title>Acoustical&#45;&gt;Perceptual</title>
<path fill="none" stroke="#000000" d="M236.3701,-121.364C219.8859,-134.7671 196.3635,-153.8927 177.9516,-168.8631"/>
<polygon fill="none" stroke="#000000" points="175.4463,-166.3892 169.8954,-175.4135 179.8624,-171.8205 175.4463,-166.3892"/>
<text text-anchor="middle" x="218.996" y="-144.8" font-family="Times,serif" font-size="14.00" fill="#000000">isA</text>
</g>
<!-- Noise -->
<g id="node7" class="node">
<title>Noise</title>
<g id="a_node7"><a xlink:href="http://emmo.info/emmo/middle/perceptual#EMMO_91756568_8655_4060_8937_a1a906dad8c1" xlink:title="Noise">
<ellipse fill="#ffffcc" stroke="#000000" cx="342.496" cy="-18" rx="31.3957" ry="18"/>
<text text-anchor="middle" x="342.496" y="-14.3" font-family="Times,serif" font-size="14.00" fill="#000000">Noise</text>
</a>
</g>
</g>
<!-- Noise&#45;&gt;Acoustical -->
<g id="edge4" class="edge">
<title>Noise&#45;&gt;Acoustical</title>
<path fill="none" stroke="#000000" d="M326.7222,-33.9571C313.8387,-46.9904 295.4158,-65.6276 280.6718,-80.5431"/>
<polygon fill="none" stroke="#000000" points="277.8867,-78.3819 273.3458,-87.9543 282.865,-83.303 277.8867,-78.3819"/>
<text text-anchor="middle" x="313.996" y="-57.8" font-family="Times,serif" font-size="14.00" fill="#000000">isA</text>
</g>
</g>
</svg>
