<?xml version="1.0" encoding="UTF-8" standalone="no"?>
<!DOCTYPE svg PUBLIC "-//W3C//DTD SVG 1.1//EN"
 "http://www.w3.org/Graphics/SVG/1.1/DTD/svg11.dtd">
<!-- Generated by graphviz version 2.40.1 (20161225.0304)
 -->
<!-- Title: %3 Pages: 1 -->
<svg width="617pt" height="305pt"
 viewBox="0.00 0.00 617.39 305.00" xmlns="http://www.w3.org/2000/svg" xmlns:xlink="http://www.w3.org/1999/xlink">
<g id="graph0" class="graph" transform="scale(1 1) rotate(0) translate(4 301)">
<title>%3</title>
<polygon fill="#ffffff" stroke="transparent" points="-4,4 -4,-301 613.3933,-301 613.3933,4 -4,4"/>
<!-- Matter -->
<g id="node1" class="node">
<title>Matter</title>
<g id="a_node1"><a xlink:href="http://emmo.info/emmo/middle/physicalistic#EMMO_5b2222df_4da6_442f_8244_96e9e45887d1" xlink:title="Matter">
<ellipse fill="#ffffcc" stroke="#000000" cx="435.9464" cy="-192" rx="34.394" ry="18"/>
<text text-anchor="middle" x="435.9464" y="-188.3" font-family="Times,serif" font-size="14.00" fill="#000000">Matter</text>
</a>
</g>
</g>
<!-- Matter&#45;&gt;Matter -->
<g id="edge7" class="edge">
<title>Matter&#45;&gt;Matter</title>
<path fill="none" stroke="#ff00ff" d="M467.1754,-184.1423C478.8135,-183.8847 488.3933,-186.5039 488.3933,-192 488.3933,-195.7786 483.8653,-198.1974 477.2536,-199.2564"/>
<polygon fill="#ff00ff" stroke="#ff00ff" points="476.9492,-195.7682 467.1754,-199.8577 477.3662,-202.7558 476.9492,-195.7682"/>
<text text-anchor="middle" x="548.8933" y="-188.3" font-family="Times,serif" font-size="14.00" fill="#000000">hasTemporalPart only</text>
</g>
<!-- Physicalistic -->
<g id="node4" class="node">
<title>Physicalistic</title>
<g id="a_node4"><a xlink:href="http://emmo.info/emmo/middle/physicalistic#EMMO_98ada9d8_f1c8_4f13_99b5_d890f5354152" xlink:title="Physicalistic">
<ellipse fill="#ffc880" stroke="#000000" stroke-width="2" cx="304.9464" cy="-279" rx="55.4913" ry="18"/>
<text text-anchor="middle" x="304.9464" y="-275.3" font-family="Times,serif" font-size="14.00" fill="#000000">Physicalistic</text>
</a>
</g>
</g>
<!-- Matter&#45;&gt;Physicalistic -->
<g id="edge6" class="edge">
<title>Matter&#45;&gt;Physicalistic</title>
<path fill="none" stroke="#000000" d="M414.6074,-206.1717C393.8155,-219.98 361.9111,-241.1684 337.866,-257.1373"/>
<polygon fill="none" stroke="#000000" points="335.792,-254.3132 329.398,-262.7611 339.6646,-260.1444 335.792,-254.3132"/>
<text text-anchor="middle" x="387.4464" y="-231.8" font-family="Times,serif" font-size="14.00" fill="#000000">isA</text>
</g>
<!-- Field -->
<g id="node2" class="node">
<title>Field</title>
<g id="a_node2"><a xlink:href="http://emmo.info/emmo/middle/physicalistic#EMMO_70dac51e_bddd_48c2_8a98_7d8395e91fc2" xlink:title="Field">
<ellipse fill="#ffffcc" stroke="#000000" cx="40.9464" cy="-192" rx="28.6953" ry="18"/>
<text text-anchor="middle" x="40.9464" y="-188.3" font-family="Times,serif" font-size="14.00" fill="#000000">Field</text>
</a>
</g>
</g>
<!-- Field&#45;&gt;Field -->
<g id="edge4" class="edge">
<title>Field&#45;&gt;Field</title>
<path fill="none" stroke="#ff00ff" d="M66.8223,-184.2192C77.9858,-183.5822 87.5438,-186.1758 87.5438,-192 87.5438,-195.9131 83.2292,-198.3679 77.0119,-199.3644"/>
<polygon fill="#ff00ff" stroke="#ff00ff" points="76.6711,-195.8753 66.8223,-199.7808 76.957,-202.8695 76.6711,-195.8753"/>
<text text-anchor="middle" x="148.0438" y="-188.3" font-family="Times,serif" font-size="14.00" fill="#000000">hasTemporalPart only</text>
</g>
<!-- Field&#45;&gt;Physicalistic -->
<g id="edge3" class="edge">
<title>Field&#45;&gt;Physicalistic</title>
<path fill="none" stroke="#000000" d="M66.7405,-200.5003C110.5582,-214.9403 200.2116,-244.4851 256.1683,-262.9254"/>
<polygon fill="none" stroke="#000000" points="255.2727,-266.3154 265.8658,-266.1212 257.4637,-259.6671 255.2727,-266.3154"/>
<text text-anchor="middle" x="198.4464" y="-231.8" font-family="Times,serif" font-size="14.00" fill="#000000">isA</text>
</g>
<!-- ElementaryParticle -->
<g id="node3" class="node">
<title>ElementaryParticle</title>
<g id="a_node3"><a xlink:href="http://emmo.info/emmo/middle/physicalistic#EMMO_c26a0340_d619_4928_b1a1_1a04e88bb89d" xlink:title="ElementaryParticle">
<ellipse fill="#ffffcc" stroke="#000000" stroke-width="2" cx="304.9464" cy="-192" rx="78.7863" ry="18"/>
<text text-anchor="middle" x="304.9464" y="-188.3" font-family="Times,serif" font-size="14.00" fill="#000000">ElementaryParticle</text>
</a>
</g>
</g>
<!-- ElementaryParticle&#45;&gt;Physicalistic -->
<g id="edge1" class="edge">
<title>ElementaryParticle&#45;&gt;Physicalistic</title>
<path fill="none" stroke="#000000" d="M304.9464,-210.0265C304.9464,-221.8082 304.9464,-237.4393 304.9464,-250.8419"/>
<polygon fill="none" stroke="#000000" points="301.4465,-250.9966 304.9464,-260.9966 308.4465,-250.9967 301.4465,-250.9966"/>
<text text-anchor="middle" x="314.4464" y="-231.8" font-family="Times,serif" font-size="14.00" fill="#000000">isA</text>
</g>
<!-- MaterialState -->
<g id="node5" class="node">
<title>MaterialState</title>
<g id="a_node5"><a xlink:href="http://emmo.info/emmo/middle/materials#EMMO_20fff605_465f_4034_8696_e53e90ec83f4" xlink:title="MaterialState">
<ellipse fill="#ffc880" stroke="#000000" stroke-width="2" cx="435.9464" cy="-18" rx="58.4896" ry="18"/>
<text text-anchor="middle" x="435.9464" y="-14.3" font-family="Times,serif" font-size="14.00" fill="#000000">MaterialState</text>
</a>
</g>
</g>
<!-- Material -->
<g id="node7" class="node">
<title>Material</title>
<g id="a_node7"><a xlink:href="http://emmo.info/emmo/middle/physicalistic#EMMO_4207e895_8b83_4318_996a_72cfb32acd94" xlink:title="Material">
<ellipse fill="#ffffcc" stroke="#000000" cx="435.9464" cy="-105" rx="40.8928" ry="18"/>
<text text-anchor="middle" x="435.9464" y="-101.3" font-family="Times,serif" font-size="14.00" fill="#000000">Material</text>
</a>
</g>
</g>
<!-- MaterialState&#45;&gt;Material -->
<g id="edge2" class="edge">
<title>MaterialState&#45;&gt;Material</title>
<path fill="none" stroke="#000000" d="M435.9464,-36.0265C435.9464,-47.8082 435.9464,-63.4393 435.9464,-76.8419"/>
<polygon fill="none" stroke="#000000" points="432.4465,-76.9966 435.9464,-86.9966 439.4465,-76.9967 432.4465,-76.9966"/>
<text text-anchor="middle" x="445.4464" y="-57.8" font-family="Times,serif" font-size="14.00" fill="#000000">isA</text>
</g>
<!-- Vacuum -->
<g id="node6" class="node">
<title>Vacuum</title>
<g id="a_node6"><a xlink:href="http://emmo.info/emmo/middle/physicalistic#EMMO_3c218fbe_60c9_4597_8bcf_41eb1773af1f" xlink:title="Vacuum">
<ellipse fill="#ffc880" stroke="#000000" cx="40.9464" cy="-105" rx="40.8928" ry="18"/>
<text text-anchor="middle" x="40.9464" y="-101.3" font-family="Times,serif" font-size="14.00" fill="#000000">Vacuum</text>
</a>
</g>
</g>
<!-- Vacuum&#45;&gt;Field -->
<g id="edge5" class="edge">
<title>Vacuum&#45;&gt;Field</title>
<path fill="none" stroke="#000000" d="M40.9464,-123.0265C40.9464,-134.8082 40.9464,-150.4393 40.9464,-163.8419"/>
<polygon fill="none" stroke="#000000" points="37.4465,-163.9966 40.9464,-173.9966 44.4465,-163.9967 37.4465,-163.9966"/>
<text text-anchor="middle" x="50.4464" y="-144.8" font-family="Times,serif" font-size="14.00" fill="#000000">isA</text>
</g>
<!-- Material&#45;&gt;Matter -->
<g id="edge8" class="edge">
<title>Material&#45;&gt;Matter</title>
<path fill="none" stroke="#000000" d="M435.9464,-123.0265C435.9464,-134.8082 435.9464,-150.4393 435.9464,-163.8419"/>
<polygon fill="none" stroke="#000000" points="432.4465,-163.9966 435.9464,-173.9966 439.4465,-163.9967 432.4465,-163.9966"/>
<text text-anchor="middle" x="445.4464" y="-144.8" font-family="Times,serif" font-size="14.00" fill="#000000">isA</text>
</g>
</g>
</svg>
