<?xml version="1.0" encoding="UTF-8" standalone="no"?>
<!DOCTYPE svg PUBLIC "-//W3C//DTD SVG 1.1//EN"
 "http://www.w3.org/Graphics/SVG/1.1/DTD/svg11.dtd">
<!-- Generated by graphviz version 2.40.1 (20161225.0304)
 -->
<!-- Title: %3 Pages: 1 -->
<svg width="1344pt" height="305pt"
 viewBox="0.00 0.00 1343.99 305.00" xmlns="http://www.w3.org/2000/svg" xmlns:xlink="http://www.w3.org/1999/xlink">
<g id="graph0" class="graph" transform="scale(1 1) rotate(0) translate(4 301)">
<title>%3</title>
<polygon fill="#ffffff" stroke="transparent" points="-4,4 -4,-301 1339.9873,-301 1339.9873,4 -4,4"/>
<!-- ElementaryCharge -->
<g id="node1" class="node">
<title>ElementaryCharge</title>
<g id="a_node1"><a xlink:href="http://emmo.info/emmo/middle/siunits#EMMO_58a650f0_a638_4743_8439_535a325e5c4c" xlink:title="ElementaryCharge">
<ellipse fill="#ffffcc" stroke="#000000" cx="77.3431" cy="-18" rx="77.1866" ry="18"/>
<text text-anchor="middle" x="77.3431" y="-14.3" font-family="Times,serif" font-size="14.00" fill="#000000">ElementaryCharge</text>
</a>
</g>
</g>
<!-- SIExactConstant -->
<g id="node2" class="node">
<title>SIExactConstant</title>
<g id="a_node2"><a xlink:href="http://emmo.info/emmo/middle/siunits#EMMO_f2ca6dd0_0e5f_4392_a92d_cafdae6cfc95" xlink:title="SIExactConstant">
<ellipse fill="#ffffcc" stroke="#000000" cx="623.3431" cy="-105" rx="69.5877" ry="18"/>
<text text-anchor="middle" x="623.3431" y="-101.3" font-family="Times,serif" font-size="14.00" fill="#000000">SIExactConstant</text>
</a>
</g>
</g>
<!-- ElementaryCharge&#45;&gt;SIExactConstant -->
<g id="edge6" class="edge">
<title>ElementaryCharge&#45;&gt;SIExactConstant</title>
<path fill="none" stroke="#000000" d="M134.3505,-30.2607C144.3289,-32.2734 154.6253,-34.2656 164.3431,-36 300.5003,-60.3004 460.4063,-83.0321 551.0133,-95.3755"/>
<polygon fill="none" stroke="#000000" points="550.7949,-98.8779 561.175,-96.7558 551.7372,-91.9416 550.7949,-98.8779"/>
<text text-anchor="middle" x="375.8431" y="-57.8" font-family="Times,serif" font-size="14.00" fill="#000000">isA</text>
</g>
<!-- ExactConstant -->
<g id="node4" class="node">
<title>ExactConstant</title>
<g id="a_node4"><a xlink:href="http://emmo.info/emmo/middle/units#EMMO_89762966_8076_4f7c_b745_f718d653e8e2" xlink:title="ExactConstant">
<ellipse fill="#ffffcc" stroke="#000000" cx="623.3431" cy="-192" rx="61.99" ry="18"/>
<text text-anchor="middle" x="623.3431" y="-188.3" font-family="Times,serif" font-size="14.00" fill="#000000">ExactConstant</text>
</a>
</g>
</g>
<!-- SIExactConstant&#45;&gt;ExactConstant -->
<g id="edge5" class="edge">
<title>SIExactConstant&#45;&gt;ExactConstant</title>
<path fill="none" stroke="#000000" d="M623.3431,-123.0265C623.3431,-134.8082 623.3431,-150.4393 623.3431,-163.8419"/>
<polygon fill="none" stroke="#000000" points="619.8432,-163.9966 623.3431,-173.9966 626.8432,-163.9967 619.8432,-163.9966"/>
<text text-anchor="middle" x="632.8431" y="-144.8" font-family="Times,serif" font-size="14.00" fill="#000000">isA</text>
</g>
<!-- BoltzmannConstant -->
<g id="node3" class="node">
<title>BoltzmannConstant</title>
<g id="a_node3"><a xlink:href="http://emmo.info/emmo/middle/siunits#EMMO_ffc7735f_c177_46a4_98e9_a54440d29209" xlink:title="BoltzmannConstant">
<ellipse fill="#ffffcc" stroke="#000000" cx="254.3431" cy="-18" rx="81.4863" ry="18"/>
<text text-anchor="middle" x="254.3431" y="-14.3" font-family="Times,serif" font-size="14.00" fill="#000000">BoltzmannConstant</text>
</a>
</g>
</g>
<!-- BoltzmannConstant&#45;&gt;SIExactConstant -->
<g id="edge7" class="edge">
<title>BoltzmannConstant&#45;&gt;SIExactConstant</title>
<path fill="none" stroke="#000000" d="M309.9857,-31.119C377.6295,-47.0675 491.43,-73.8985 561.683,-90.4622"/>
<polygon fill="none" stroke="#000000" points="561.1852,-93.9408 571.7216,-92.8291 562.7916,-87.1276 561.1852,-93.9408"/>
<text text-anchor="middle" x="470.8431" y="-57.8" font-family="Times,serif" font-size="14.00" fill="#000000">isA</text>
</g>
<!-- PhysicalConstant -->
<g id="node8" class="node">
<title>PhysicalConstant</title>
<g id="a_node8"><a xlink:href="http://emmo.info/emmo/middle/units#EMMO_b953f2b1_c8d1_4dd9_b630_d3ef6580c2bb" xlink:title="PhysicalConstant">
<ellipse fill="#ffffcc" stroke="#000000" stroke-width="2" cx="702.3431" cy="-279" rx="71.4873" ry="18"/>
<text text-anchor="middle" x="702.3431" y="-275.3" font-family="Times,serif" font-size="14.00" fill="#000000">PhysicalConstant</text>
</a>
</g>
</g>
<!-- ExactConstant&#45;&gt;PhysicalConstant -->
<g id="edge8" class="edge">
<title>ExactConstant&#45;&gt;PhysicalConstant</title>
<path fill="none" stroke="#000000" d="M639.33,-209.6057C650.8945,-222.3414 666.6868,-239.7329 679.5684,-253.919"/>
<polygon fill="none" stroke="#000000" points="677.0664,-256.37 686.3801,-261.4204 682.2487,-251.6643 677.0664,-256.37"/>
<text text-anchor="middle" x="677.8431" y="-231.8" font-family="Times,serif" font-size="14.00" fill="#000000">isA</text>
</g>
<!-- MeasuredConstant -->
<g id="node5" class="node">
<title>MeasuredConstant</title>
<g id="a_node5"><a xlink:href="http://emmo.info/emmo/middle/units#EMMO_3f15d200_c97b_42c8_8ac0_d81d150361e2" xlink:title="MeasuredConstant">
<ellipse fill="#ffffcc" stroke="#000000" cx="780.3431" cy="-192" rx="77.1866" ry="18"/>
<text text-anchor="middle" x="780.3431" y="-188.3" font-family="Times,serif" font-size="14.00" fill="#000000">MeasuredConstant</text>
</a>
</g>
</g>
<!-- MeasuredConstant&#45;&gt;PhysicalConstant -->
<g id="edge3" class="edge">
<title>MeasuredConstant&#45;&gt;PhysicalConstant</title>
<path fill="none" stroke="#000000" d="M764.1815,-210.0265C752.9164,-222.5913 737.7262,-239.5343 725.2203,-253.4832"/>
<polygon fill="none" stroke="#000000" points="722.2867,-251.5122 718.2172,-261.2943 727.4987,-256.185 722.2867,-251.5122"/>
<text text-anchor="middle" x="755.8431" y="-231.8" font-family="Times,serif" font-size="14.00" fill="#000000">isA</text>
</g>
<!-- LuminousEfficacy -->
<g id="node6" class="node">
<title>LuminousEfficacy</title>
<g id="a_node6"><a xlink:href="http://emmo.info/emmo/middle/siunits#EMMO_506f7823_52bc_40cb_be07_b3b1e10cce13" xlink:title="LuminousEfficacy">
<ellipse fill="#ffffcc" stroke="#000000" cx="430.3431" cy="-18" rx="76.8869" ry="18"/>
<text text-anchor="middle" x="430.3431" y="-14.3" font-family="Times,serif" font-size="14.00" fill="#000000">LuminousEfficacy</text>
</a>
</g>
</g>
<!-- LuminousEfficacy&#45;&gt;SIExactConstant -->
<g id="edge1" class="edge">
<title>LuminousEfficacy&#45;&gt;SIExactConstant</title>
<path fill="none" stroke="#000000" d="M466.1926,-34.1601C498.1783,-48.5785 545.1141,-69.7361 579.3604,-85.1736"/>
<polygon fill="none" stroke="#000000" points="578.1052,-88.4469 588.6601,-89.3657 580.9819,-82.0653 578.1052,-88.4469"/>
<text text-anchor="middle" x="548.8431" y="-57.8" font-family="Times,serif" font-size="14.00" fill="#000000">isA</text>
</g>
<!-- SpeedOfLightInVacuum -->
<g id="node7" class="node">
<title>SpeedOfLightInVacuum</title>
<g id="a_node7"><a xlink:href="http://emmo.info/emmo/middle/siunits#EMMO_99296e55_53f7_4333_9e06_760ad175a1b9" xlink:title="SpeedOfLightInVacuum">
<ellipse fill="#ffffcc" stroke="#000000" cx="623.3431" cy="-18" rx="98.2828" ry="18"/>
<text text-anchor="middle" x="623.3431" y="-14.3" font-family="Times,serif" font-size="14.00" fill="#000000">SpeedOfLightInVacuum</text>
</a>
</g>
</g>
<!-- SpeedOfLightInVacuum&#45;&gt;SIExactConstant -->
<g id="edge10" class="edge">
<title>SpeedOfLightInVacuum&#45;&gt;SIExactConstant</title>
<path fill="none" stroke="#000000" d="M623.3431,-36.0265C623.3431,-47.8082 623.3431,-63.4393 623.3431,-76.8419"/>
<polygon fill="none" stroke="#000000" points="619.8432,-76.9966 623.3431,-86.9966 626.8432,-76.9967 619.8432,-76.9966"/>
<text text-anchor="middle" x="632.8431" y="-57.8" font-family="Times,serif" font-size="14.00" fill="#000000">isA</text>
</g>
<!-- AvogadroConstant -->
<g id="node9" class="node">
<title>AvogadroConstant</title>
<g id="a_node9"><a xlink:href="http://emmo.info/emmo/middle/siunits#EMMO_176cae33_b83e_4cd2_a6bc_281f42f0ccc8" xlink:title="AvogadroConstant">
<ellipse fill="#ffffcc" stroke="#000000" cx="816.3431" cy="-18" rx="77.1866" ry="18"/>
<text text-anchor="middle" x="816.3431" y="-14.3" font-family="Times,serif" font-size="14.00" fill="#000000">AvogadroConstant</text>
</a>
</g>
</g>
<!-- AvogadroConstant&#45;&gt;SIExactConstant -->
<g id="edge4" class="edge">
<title>AvogadroConstant&#45;&gt;SIExactConstant</title>
<path fill="none" stroke="#000000" d="M780.4936,-34.1601C748.508,-48.5785 701.5722,-69.7361 667.3259,-85.1736"/>
<polygon fill="none" stroke="#000000" points="665.7043,-82.0653 658.0261,-89.3657 668.5811,-88.4469 665.7043,-82.0653"/>
<text text-anchor="middle" x="741.8431" y="-57.8" font-family="Times,serif" font-size="14.00" fill="#000000">isA</text>
</g>
<!-- HyperfineTransitionFrequencyOfCs -->
<g id="node10" class="node">
<title>HyperfineTransitionFrequencyOfCs</title>
<g id="a_node10"><a xlink:href="http://emmo.info/emmo/middle/siunits#EMMO_f96feb3f_4438_4e43_aa44_7458c4d87fc2" xlink:title="HyperfineTransitionFrequencyOfCs">
<ellipse fill="#ffffcc" stroke="#000000" cx="1049.3431" cy="-18" rx="137.5759" ry="18"/>
<text text-anchor="middle" x="1049.3431" y="-14.3" font-family="Times,serif" font-size="14.00" fill="#000000">HyperfineTransitionFrequencyOfCs</text>
</a>
</g>
</g>
<!-- HyperfineTransitionFrequencyOfCs&#45;&gt;SIExactConstant -->
<g id="edge9" class="edge">
<title>HyperfineTransitionFrequencyOfCs&#45;&gt;SIExactConstant</title>
<path fill="none" stroke="#000000" d="M974.6521,-33.2538C893.4667,-49.8339 765.0523,-76.0594 688.0247,-91.7904"/>
<polygon fill="none" stroke="#000000" points="687.0666,-88.4137 677.9692,-93.844 688.4673,-95.2722 687.0666,-88.4137"/>
<text text-anchor="middle" x="871.8431" y="-57.8" font-family="Times,serif" font-size="14.00" fill="#000000">isA</text>
</g>
<!-- PlanckConstant -->
<g id="node11" class="node">
<title>PlanckConstant</title>
<g id="a_node11"><a xlink:href="http://emmo.info/emmo/middle/siunits#EMMO_76cc4efc_231e_42b4_be83_2547681caed6" xlink:title="PlanckConstant">
<ellipse fill="#ffffcc" stroke="#000000" cx="1270.3431" cy="-18" rx="65.7887" ry="18"/>
<text text-anchor="middle" x="1270.3431" y="-14.3" font-family="Times,serif" font-size="14.00" fill="#000000">PlanckConstant</text>
</a>
</g>
</g>
<!-- PlanckConstant&#45;&gt;SIExactConstant -->
<g id="edge2" class="edge">
<title>PlanckConstant&#45;&gt;SIExactConstant</title>
<path fill="none" stroke="#000000" d="M1222.7524,-30.4569C1214.0075,-32.4944 1204.9298,-34.4444 1196.3431,-36 1019.9462,-67.9578 810.2353,-88.9483 699.9351,-98.6918"/>
<polygon fill="none" stroke="#000000" points="699.5558,-95.2116 689.8996,-99.5715 700.1671,-102.1848 699.5558,-95.2116"/>
<text text-anchor="middle" x="1080.8431" y="-57.8" font-family="Times,serif" font-size="14.00" fill="#000000">isA</text>
</g>
</g>
</svg>
