<?xml version="1.0" encoding="UTF-8" standalone="no"?>
<!DOCTYPE svg PUBLIC "-//W3C//DTD SVG 1.1//EN"
 "http://www.w3.org/Graphics/SVG/1.1/DTD/svg11.dtd">
<!-- Generated by graphviz version 2.40.1 (20161225.0304)
 -->
<!-- Title: %3 Pages: 1 -->
<svg width="582pt" height="305pt"
 viewBox="0.00 0.00 582.49 305.00" xmlns="http://www.w3.org/2000/svg" xmlns:xlink="http://www.w3.org/1999/xlink">
<g id="graph0" class="graph" transform="scale(1 1) rotate(0) translate(4 301)">
<title>%3</title>
<polygon fill="#ffffff" stroke="transparent" points="-4,4 -4,-301 578.489,-301 578.489,4 -4,4"/>
<!-- Manufacturing -->
<g id="node1" class="node">
<title>Manufacturing</title>
<g id="a_node1"><a xlink:href="http://emmo.info/emmo/middle/manufacturing#EMMO_a4d66059_5dd3_4b90_b4cb_10960559441b" xlink:title="Manufacturing">
<ellipse fill="#ffffcc" stroke="#000000" cx="63.6943" cy="-192" rx="63.8893" ry="18"/>
<text text-anchor="middle" x="63.6943" y="-188.3" font-family="Times,serif" font-size="14.00" fill="#000000">Manufacturing</text>
</a>
</g>
</g>
<!-- Process -->
<g id="node3" class="node">
<title>Process</title>
<g id="a_node3"><a xlink:href="http://emmo.info/emmo/middle/holistic#EMMO_43e9a05d_98af_41b4_92f6_00f79a09bfce" xlink:title="Process">
<ellipse fill="#ffffcc" stroke="#000000" stroke-width="2" cx="232.6943" cy="-279" rx="37.8943" ry="18"/>
<text text-anchor="middle" x="232.6943" y="-275.3" font-family="Times,serif" font-size="14.00" fill="#000000">Process</text>
</a>
</g>
</g>
<!-- Manufacturing&#45;&gt;Process -->
<g id="edge3" class="edge">
<title>Manufacturing&#45;&gt;Process</title>
<path fill="none" stroke="#000000" d="M94.6916,-207.9571C123.8803,-222.9833 167.5381,-245.458 197.9049,-261.0907"/>
<polygon fill="none" stroke="#000000" points="196.3787,-264.2415 206.8717,-265.7067 199.5826,-258.0177 196.3787,-264.2415"/>
<text text-anchor="middle" x="168.1943" y="-231.8" font-family="Times,serif" font-size="14.00" fill="#000000">isA</text>
</g>
<!-- PhysicalPhenomenon -->
<g id="node2" class="node">
<title>PhysicalPhenomenon</title>
<g id="a_node2"><a xlink:href="http://emmo.info/emmo/middle/models#EMMO_314d0bd5_67ed_437e_a609_36d46147cea7" xlink:title="PhysicalPhenomenon">
<ellipse fill="#ffffcc" stroke="#000000" cx="232.6943" cy="-192" rx="87.1846" ry="18"/>
<text text-anchor="middle" x="232.6943" y="-188.3" font-family="Times,serif" font-size="14.00" fill="#000000">PhysicalPhenomenon</text>
</a>
</g>
</g>
<!-- PhysicalPhenomenon&#45;&gt;Process -->
<g id="edge7" class="edge">
<title>PhysicalPhenomenon&#45;&gt;Process</title>
<path fill="none" stroke="#000000" d="M232.6943,-210.0265C232.6943,-221.8082 232.6943,-237.4393 232.6943,-250.8419"/>
<polygon fill="none" stroke="#000000" points="229.1944,-250.9966 232.6943,-260.9966 236.1944,-250.9967 229.1944,-250.9966"/>
<text text-anchor="middle" x="242.1943" y="-231.8" font-family="Times,serif" font-size="14.00" fill="#000000">isA</text>
</g>
<!-- Theorization -->
<g id="node4" class="node">
<title>Theorization</title>
<g id="a_node4"><a xlink:href="http://emmo.info/emmo/middle/models#EMMO_6c739b1a_a774_4416_bb31_1961486fa9ed" xlink:title="Theorization">
<ellipse fill="#ffffcc" stroke="#000000" cx="380.6943" cy="-18" rx="55.7903" ry="18"/>
<text text-anchor="middle" x="380.6943" y="-14.3" font-family="Times,serif" font-size="14.00" fill="#000000">Theorization</text>
</a>
</g>
</g>
<!-- Observation -->
<g id="node6" class="node">
<title>Observation</title>
<g id="a_node6"><a xlink:href="http://emmo.info/emmo/middle/properties#EMMO_10a5fd39_06aa_4648_9e70_f962a9cb2069" xlink:title="Observation">
<ellipse fill="#ffffcc" stroke="#000000" cx="380.6943" cy="-105" rx="53.8905" ry="18"/>
<text text-anchor="middle" x="380.6943" y="-101.3" font-family="Times,serif" font-size="14.00" fill="#000000">Observation</text>
</a>
</g>
</g>
<!-- Theorization&#45;&gt;Observation -->
<g id="edge6" class="edge">
<title>Theorization&#45;&gt;Observation</title>
<path fill="none" stroke="#000000" d="M380.6943,-36.0265C380.6943,-47.8082 380.6943,-63.4393 380.6943,-76.8419"/>
<polygon fill="none" stroke="#000000" points="377.1944,-76.9966 380.6943,-86.9966 384.1944,-76.9967 377.1944,-76.9966"/>
<text text-anchor="middle" x="390.1943" y="-57.8" font-family="Times,serif" font-size="14.00" fill="#000000">isA</text>
</g>
<!-- Experiment -->
<g id="node5" class="node">
<title>Experiment</title>
<g id="a_node5"><a xlink:href="http://emmo.info/emmo/middle/models#EMMO_22522299_4091_4d1f_82a2_3890492df6db" xlink:title="Experiment">
<ellipse fill="#ffffcc" stroke="#000000" cx="254.6943" cy="-18" rx="51.9908" ry="18"/>
<text text-anchor="middle" x="254.6943" y="-14.3" font-family="Times,serif" font-size="14.00" fill="#000000">Experiment</text>
</a>
</g>
</g>
<!-- Experiment&#45;&gt;PhysicalPhenomenon -->
<g id="edge2" class="edge">
<title>Experiment&#45;&gt;PhysicalPhenomenon</title>
<path fill="none" stroke="#ff0000" d="M238.641,-35.1613C227.5545,-48.2528 213.7567,-67.3313 207.6943,-87 199.6531,-113.0889 208.8609,-143.4897 218.2895,-164.8454"/>
<polygon fill="#ff0000" stroke="#ff0000" points="215.157,-166.4091 222.5759,-173.973 221.4932,-163.4336 215.157,-166.4091"/>
<text text-anchor="middle" x="262.6943" y="-101.3" font-family="Times,serif" font-size="14.00" fill="#000000">hasParticipant some</text>
</g>
<!-- Experiment&#45;&gt;Observation -->
<g id="edge1" class="edge">
<title>Experiment&#45;&gt;Observation</title>
<path fill="none" stroke="#000000" d="M278.0987,-34.1601C297.9525,-47.8687 326.6291,-67.6692 348.62,-82.8534"/>
<polygon fill="none" stroke="#000000" points="346.7701,-85.8294 356.9878,-88.6312 350.7475,-80.0691 346.7701,-85.8294"/>
<text text-anchor="middle" x="335.1943" y="-57.8" font-family="Times,serif" font-size="14.00" fill="#000000">isA</text>
</g>
<!-- Semiosis -->
<g id="node8" class="node">
<title>Semiosis</title>
<g id="a_node8"><a xlink:href="http://emmo.info/emmo/top/semiotics#EMMO_008fd3b2_4013_451f_8827_52bceab11841" xlink:title="Semiosis">
<ellipse fill="#ffffcc" stroke="#000000" cx="380.6943" cy="-192" rx="42.7926" ry="18"/>
<text text-anchor="middle" x="380.6943" y="-188.3" font-family="Times,serif" font-size="14.00" fill="#000000">Semiosis</text>
</a>
</g>
</g>
<!-- Observation&#45;&gt;Semiosis -->
<g id="edge4" class="edge">
<title>Observation&#45;&gt;Semiosis</title>
<path fill="none" stroke="#000000" d="M380.6943,-123.0265C380.6943,-134.8082 380.6943,-150.4393 380.6943,-163.8419"/>
<polygon fill="none" stroke="#000000" points="377.1944,-163.9966 380.6943,-173.9966 384.1944,-163.9967 377.1944,-163.9966"/>
<text text-anchor="middle" x="390.1943" y="-144.8" font-family="Times,serif" font-size="14.00" fill="#000000">isA</text>
</g>
<!-- Measurement -->
<g id="node7" class="node">
<title>Measurement</title>
<g id="a_node7"><a xlink:href="http://emmo.info/emmo/middle/properties#EMMO_463bcfda_867b_41d9_a967_211d4d437cfb" xlink:title="Measurement">
<ellipse fill="#ffffcc" stroke="#000000" cx="514.6943" cy="-18" rx="59.5901" ry="18"/>
<text text-anchor="middle" x="514.6943" y="-14.3" font-family="Times,serif" font-size="14.00" fill="#000000">Measurement</text>
</a>
</g>
</g>
<!-- Measurement&#45;&gt;Observation -->
<g id="edge5" class="edge">
<title>Measurement&#45;&gt;Observation</title>
<path fill="none" stroke="#000000" d="M489.49,-34.364C468.2468,-48.1563 437.6702,-68.0082 414.3385,-83.1564"/>
<polygon fill="none" stroke="#000000" points="412.2671,-80.3283 405.7857,-88.7093 416.079,-86.1994 412.2671,-80.3283"/>
<text text-anchor="middle" x="466.1943" y="-57.8" font-family="Times,serif" font-size="14.00" fill="#000000">isA</text>
</g>
<!-- Semiosis&#45;&gt;Process -->
<g id="edge8" class="edge">
<title>Semiosis&#45;&gt;Process</title>
<path fill="none" stroke="#000000" d="M355.5882,-206.7584C330.8405,-221.306 292.8873,-243.6163 265.7087,-259.5929"/>
<polygon fill="none" stroke="#000000" points="263.7865,-256.6629 256.9394,-264.7479 267.3339,-262.6975 263.7865,-256.6629"/>
<text text-anchor="middle" x="325.1943" y="-231.8" font-family="Times,serif" font-size="14.00" fill="#000000">isA</text>
</g>
</g>
</svg>
