<?xml version="1.0" encoding="UTF-8" standalone="no"?>
<!DOCTYPE svg PUBLIC "-//W3C//DTD SVG 1.1//EN"
 "http://www.w3.org/Graphics/SVG/1.1/DTD/svg11.dtd">
<!-- Generated by graphviz version 2.40.1 (20161225.0304)
 -->
<!-- Title: %3 Pages: 1 -->
<svg width="638pt" height="305pt"
 viewBox="0.00 0.00 638.49 305.00" xmlns="http://www.w3.org/2000/svg" xmlns:xlink="http://www.w3.org/1999/xlink">
<g id="graph0" class="graph" transform="scale(1 1) rotate(0) translate(4 301)">
<title>%3</title>
<polygon fill="#ffffff" stroke="transparent" points="-4,4 -4,-301 634.4913,-301 634.4913,4 -4,4"/>
<!-- PrefixedUnit -->
<g id="node1" class="node">
<title>PrefixedUnit</title>
<g id="a_node1"><a xlink:href="http://emmo.info/emmo/middle/units#EMMO_c6d4a5e0_7e95_44df_a6db_84ee0a8bbc8e" xlink:title="PrefixedUnit">
<ellipse fill="#ffffcc" stroke="#000000" stroke-width="2" cx="55.895" cy="-105" rx="55.7903" ry="18"/>
<text text-anchor="middle" x="55.895" y="-101.3" font-family="Times,serif" font-size="14.00" fill="#000000">PrefixedUnit</text>
</a>
</g>
</g>
<!-- State -->
<g id="node2" class="node">
<title>State</title>
<g id="a_node2"><a xlink:href="http://emmo.info/emmo/middle/reductionistic#EMMO_36c79456_e29c_400d_8bd3_0eedddb82652" xlink:title="State">
<ellipse fill="#ffffcc" stroke="#000000" cx="270.895" cy="-192" rx="28.6953" ry="18"/>
<text text-anchor="middle" x="270.895" y="-188.3" font-family="Times,serif" font-size="14.00" fill="#000000">State</text>
</a>
</g>
</g>
<!-- PrefixedUnit&#45;&gt;State -->
<g id="edge9" class="edge">
<title>PrefixedUnit&#45;&gt;State</title>
<path fill="none" stroke="#000000" d="M90.917,-119.1717C131.3698,-135.541 197.4531,-162.2816 237.294,-178.4033"/>
<polygon fill="none" stroke="#000000" points="236.0019,-181.6561 246.5846,-182.1628 238.6277,-175.1672 236.0019,-181.6561"/>
<text text-anchor="middle" x="186.395" y="-144.8" font-family="Times,serif" font-size="14.00" fill="#000000">isA</text>
</g>
<!-- Reductionistic -->
<g id="node6" class="node">
<title>Reductionistic</title>
<g id="a_node6"><a xlink:href="http://emmo.info/emmo/middle/reductionistic#EMMO_15db234d_ecaf_4715_9838_4b4ec424fb13" xlink:title="Reductionistic">
<ellipse fill="#ffc880" stroke="#000000" stroke-width="2" cx="393.895" cy="-279" rx="61.99" ry="18"/>
<text text-anchor="middle" x="393.895" y="-275.3" font-family="Times,serif" font-size="14.00" fill="#000000">Reductionistic</text>
</a>
</g>
</g>
<!-- State&#45;&gt;Reductionistic -->
<g id="edge3" class="edge">
<title>State&#45;&gt;Reductionistic</title>
<path fill="none" stroke="#000000" d="M290.1138,-205.5938C309.2856,-219.1543 339.0825,-240.2301 361.8392,-256.3264"/>
<polygon fill="none" stroke="#000000" points="359.9941,-259.3083 370.1794,-262.2255 364.0364,-253.5934 359.9941,-259.3083"/>
<text text-anchor="middle" x="349.395" y="-231.8" font-family="Times,serif" font-size="14.00" fill="#000000">isA</text>
</g>
<!-- Existent -->
<g id="node3" class="node">
<title>Existent</title>
<g id="a_node3"><a xlink:href="http://emmo.info/emmo/middle/reductionistic#EMMO_52211e5e_d767_4812_845e_eb6b402c476a" xlink:title="Existent">
<ellipse fill="#ffffcc" stroke="#000000" cx="516.895" cy="-192" rx="39.7935" ry="18"/>
<text text-anchor="middle" x="516.895" y="-188.3" font-family="Times,serif" font-size="14.00" fill="#000000">Existent</text>
</a>
</g>
</g>
<!-- Existent&#45;&gt;State -->
<g id="edge5" class="edge">
<title>Existent&#45;&gt;State</title>
<path fill="none" stroke="#ff00ff" stroke-dasharray="5,2" d="M477.0098,-192C430.8626,-192 355.3852,-192 309.7012,-192"/>
<polygon fill="#ff00ff" stroke="#ff00ff" points="309.5959,-188.5001 299.5958,-192 309.5958,-195.5001 309.5959,-188.5001"/>
<text text-anchor="middle" x="388.3705" y="-177.8" font-family="Times,serif" font-size="14.00" fill="#000000">hasTemporalDirectPart some</text>
</g>
<!-- Existent&#45;&gt;State -->
<g id="edge6" class="edge">
<title>Existent&#45;&gt;State</title>
<path fill="none" stroke="#ff00ff" stroke-dasharray="5,2" d="M487.6689,-204.2118C480.6502,-206.6095 473.0923,-208.7635 465.8705,-210 431.9201,-215.8128 344.5472,-217.2322 310.8705,-210 308.0102,-209.3857 305.1075,-208.5501 302.2398,-207.5735"/>
<polygon fill="#ff00ff" stroke="#ff00ff" points="303.3233,-204.2385 292.7365,-203.8265 300.7557,-210.7506 303.3233,-204.2385"/>
<text text-anchor="middle" x="388.3705" y="-198.8" font-family="Times,serif" font-size="14.00" fill="#000000">hasTemporalDirectPart only</text>
</g>
<!-- Existent&#45;&gt;Reductionistic -->
<g id="edge4" class="edge">
<title>Existent&#45;&gt;Reductionistic</title>
<path fill="none" stroke="#000000" d="M495.4701,-207.1542C476.269,-220.7355 447.8368,-240.846 425.9332,-256.3389"/>
<polygon fill="none" stroke="#000000" points="423.7355,-253.6063 417.5925,-262.2384 427.7778,-259.3212 423.7355,-253.6063"/>
<text text-anchor="middle" x="471.395" y="-231.8" font-family="Times,serif" font-size="14.00" fill="#000000">isA</text>
</g>
<!-- String -->
<g id="node4" class="node">
<title>String</title>
<g id="a_node4"><a xlink:href="http://emmo.info/emmo/middle/perceptual#EMMO_50ea1ec5_f157_41b0_b46b_a9032f17ca10" xlink:title="String">
<ellipse fill="#ffffcc" stroke="#000000" cx="161.895" cy="-105" rx="32.4942" ry="18"/>
<text text-anchor="middle" x="161.895" y="-101.3" font-family="Times,serif" font-size="14.00" fill="#000000">String</text>
</a>
</g>
</g>
<!-- String&#45;&gt;State -->
<g id="edge1" class="edge">
<title>String&#45;&gt;State</title>
<path fill="none" stroke="#000000" d="M180.8814,-120.1542C198.6003,-134.2969 225.1899,-155.5198 244.8799,-171.2356"/>
<polygon fill="none" stroke="#000000" points="242.851,-174.0944 252.8501,-177.5971 247.2177,-168.6234 242.851,-174.0944"/>
<text text-anchor="middle" x="233.395" y="-144.8" font-family="Times,serif" font-size="14.00" fill="#000000">isA</text>
</g>
<!-- Expression -->
<g id="node5" class="node">
<title>Expression</title>
<g id="a_node5"><a xlink:href="http://emmo.info/emmo/middle/math#EMMO_f9bc8b52_85e9_4b53_b969_dd7724d5b8e4" xlink:title="Expression">
<ellipse fill="#ffffcc" stroke="#000000" stroke-width="2" cx="382.895" cy="-18" rx="50.0912" ry="18"/>
<text text-anchor="middle" x="382.895" y="-14.3" font-family="Times,serif" font-size="14.00" fill="#000000">Expression</text>
</a>
</g>
</g>
<!-- SymbolicComposition -->
<g id="node9" class="node">
<title>SymbolicComposition</title>
<g id="a_node9"><a xlink:href="http://emmo.info/emmo/middle/perceptual#EMMO_89a0c87c_0804_4013_937a_6fe234d9499c" xlink:title="SymbolicComposition">
<ellipse fill="#ffffcc" stroke="#000000" cx="437.895" cy="-105" rx="90.9839" ry="18"/>
<text text-anchor="middle" x="437.895" y="-101.3" font-family="Times,serif" font-size="14.00" fill="#000000">SymbolicComposition</text>
</a>
</g>
</g>
<!-- Expression&#45;&gt;SymbolicComposition -->
<g id="edge2" class="edge">
<title>Expression&#45;&gt;SymbolicComposition</title>
<path fill="none" stroke="#000000" d="M394.0251,-35.6057C401.8012,-47.9062 412.323,-64.5497 421.1129,-78.4537"/>
<polygon fill="none" stroke="#000000" points="418.2907,-80.5395 426.5927,-87.1218 424.2075,-76.799 418.2907,-80.5395"/>
<text text-anchor="middle" x="423.395" y="-57.8" font-family="Times,serif" font-size="14.00" fill="#000000">isA</text>
</g>
<!-- Formula -->
<g id="node7" class="node">
<title>Formula</title>
<g id="a_node7"><a xlink:href="http://emmo.info/emmo/middle/math#EMMO_88470739_03d3_4c47_a03e_b30a1288d50c" xlink:title="Formula">
<ellipse fill="#ffffcc" stroke="#000000" stroke-width="2" cx="491.895" cy="-18" rx="40.8928" ry="18"/>
<text text-anchor="middle" x="491.895" y="-14.3" font-family="Times,serif" font-size="14.00" fill="#000000">Formula</text>
</a>
</g>
</g>
<!-- Formula&#45;&gt;SymbolicComposition -->
<g id="edge7" class="edge">
<title>Formula&#45;&gt;SymbolicComposition</title>
<path fill="none" stroke="#000000" d="M480.9673,-35.6057C473.3326,-47.9062 463.0021,-64.5497 454.3721,-78.4537"/>
<polygon fill="none" stroke="#000000" points="451.2918,-76.7796 448.9918,-87.1218 457.2393,-80.4712 451.2918,-76.7796"/>
<text text-anchor="middle" x="477.395" y="-57.8" font-family="Times,serif" font-size="14.00" fill="#000000">isA</text>
</g>
<!-- MaterialState -->
<g id="node8" class="node">
<title>MaterialState</title>
<g id="a_node8"><a xlink:href="http://emmo.info/emmo/middle/materials#EMMO_20fff605_465f_4034_8696_e53e90ec83f4" xlink:title="MaterialState">
<ellipse fill="#ffc880" stroke="#000000" stroke-width="2" cx="270.895" cy="-105" rx="58.4896" ry="18"/>
<text text-anchor="middle" x="270.895" y="-101.3" font-family="Times,serif" font-size="14.00" fill="#000000">MaterialState</text>
</a>
</g>
</g>
<!-- MaterialState&#45;&gt;State -->
<g id="edge8" class="edge">
<title>MaterialState&#45;&gt;State</title>
<path fill="none" stroke="#000000" d="M270.895,-123.0265C270.895,-134.8082 270.895,-150.4393 270.895,-163.8419"/>
<polygon fill="none" stroke="#000000" points="267.3951,-163.9966 270.895,-173.9966 274.3951,-163.9967 267.3951,-163.9966"/>
<text text-anchor="middle" x="280.395" y="-144.8" font-family="Times,serif" font-size="14.00" fill="#000000">isA</text>
</g>
<!-- SymbolicComposition&#45;&gt;State -->
<g id="edge11" class="edge">
<title>SymbolicComposition&#45;&gt;State</title>
<path fill="none" stroke="#000000" d="M405.2993,-121.981C375.4923,-137.5092 331.691,-160.3279 302.273,-175.6534"/>
<polygon fill="none" stroke="#000000" points="300.5147,-172.6229 293.263,-180.3472 303.7488,-178.831 300.5147,-172.6229"/>
<text text-anchor="middle" x="374.395" y="-144.8" font-family="Times,serif" font-size="14.00" fill="#000000">isA</text>
</g>
<!-- Quantity -->
<g id="node10" class="node">
<title>Quantity</title>
<g id="a_node10"><a xlink:href="http://emmo.info/emmo/middle/units#EMMO_f658c301_ce93_46cf_9639_4eace2c5d1d5" xlink:title="Quantity">
<ellipse fill="#ffffcc" stroke="#000000" stroke-width="2" cx="588.895" cy="-105" rx="41.6928" ry="18"/>
<text text-anchor="middle" x="588.895" y="-101.3" font-family="Times,serif" font-size="14.00" fill="#000000">Quantity</text>
</a>
</g>
</g>
<!-- Quantity&#45;&gt;State -->
<g id="edge10" class="edge">
<title>Quantity&#45;&gt;State</title>
<path fill="none" stroke="#000000" d="M557.2052,-116.6613C550.8434,-118.8674 544.1816,-121.0822 537.895,-123 456.7094,-147.7666 359.9194,-171.3219 308.0736,-183.4659"/>
<polygon fill="none" stroke="#000000" points="306.9621,-180.131 298.0178,-185.81 308.5513,-186.9483 306.9621,-180.131"/>
<text text-anchor="middle" x="481.395" y="-144.8" font-family="Times,serif" font-size="14.00" fill="#000000">isA</text>
</g>
</g>
</svg>
