<?xml version="1.0" encoding="UTF-8" standalone="no"?>
<!DOCTYPE svg PUBLIC "-//W3C//DTD SVG 1.1//EN"
 "http://www.w3.org/Graphics/SVG/1.1/DTD/svg11.dtd">
<!-- Generated by graphviz version 2.40.1 (20161225.0304)
 -->
<!-- Title: %3 Pages: 1 -->
<svg width="405pt" height="131pt"
 viewBox="0.00 0.00 404.74 131.00" xmlns="http://www.w3.org/2000/svg" xmlns:xlink="http://www.w3.org/1999/xlink">
<g id="graph0" class="graph" transform="scale(1 1) rotate(0) translate(4 127)">
<title>%3</title>
<polygon fill="#ffffff" stroke="transparent" points="-4,4 -4,-127 400.7445,-127 400.7445,4 -4,4"/>
<!-- Sign -->
<g id="node1" class="node">
<title>Sign</title>
<g id="a_node1"><a xlink:href="http://emmo.info/emmo/top/semiotics#EMMO_b21a56ed_f969_4612_a6ec_cb7766f7f31d" xlink:title="Sign">
<ellipse fill="#ffc880" stroke="#000000" stroke-width="2" cx="27" cy="-18" rx="27" ry="18"/>
<text text-anchor="middle" x="27" y="-14.3" font-family="Times,serif" font-size="14.00" fill="#000000">Sign</text>
</a>
</g>
</g>
<!-- Semiotic -->
<g id="node5" class="node">
<title>Semiotic</title>
<g id="a_node5"><a xlink:href="http://emmo.info/emmo/top/semiotics#EMMO_b803f122_4acb_4064_9d71_c1e5fd091fc9" xlink:title="Semiotic">
<ellipse fill="#ffc880" stroke="#000000" stroke-width="2" cx="156" cy="-105" rx="42.4939" ry="18"/>
<text text-anchor="middle" x="156" y="-101.3" font-family="Times,serif" font-size="14.00" fill="#000000">Semiotic</text>
</a>
</g>
</g>
<!-- Sign&#45;&gt;Semiotic -->
<g id="edge1" class="edge">
<title>Sign&#45;&gt;Semiotic</title>
<path fill="none" stroke="#000000" d="M46.0344,-30.8371C66.7576,-44.8133 100.221,-67.3816 124.7976,-83.9565"/>
<polygon fill="none" stroke="#000000" points="123.1623,-87.0752 133.41,-89.7649 127.0763,-81.2717 123.1623,-87.0752"/>
<text text-anchor="middle" x="109.5" y="-57.8" font-family="Times,serif" font-size="14.00" fill="#000000">isA</text>
</g>
<!-- Object -->
<g id="node2" class="node">
<title>Object</title>
<g id="a_node2"><a xlink:href="http://emmo.info/emmo/top/semiotics#EMMO_6f5af708_f825_4feb_a0d1_a8d813d3022b" xlink:title="Object">
<ellipse fill="#ffffcc" stroke="#000000" stroke-width="2" cx="106" cy="-18" rx="34.394" ry="18"/>
<text text-anchor="middle" x="106" y="-14.3" font-family="Times,serif" font-size="14.00" fill="#000000">Object</text>
</a>
</g>
</g>
<!-- Object&#45;&gt;Semiotic -->
<g id="edge4" class="edge">
<title>Object&#45;&gt;Semiotic</title>
<path fill="none" stroke="#000000" d="M116.1182,-35.6057C123.2343,-47.9876 132.8795,-64.7703 140.9021,-78.7296"/>
<polygon fill="none" stroke="#000000" points="137.8794,-80.4943 145.8968,-87.4204 143.9485,-77.0063 137.8794,-80.4943"/>
<text text-anchor="middle" x="143.5" y="-57.8" font-family="Times,serif" font-size="14.00" fill="#000000">isA</text>
</g>
<!-- Interpreter -->
<g id="node3" class="node">
<title>Interpreter</title>
<g id="a_node3"><a xlink:href="http://emmo.info/emmo/top/semiotics#EMMO_0527413c_b286_4e9c_b2d0_03fb2a038dee" xlink:title="Interpreter">
<ellipse fill="#ffffcc" stroke="#000000" stroke-width="2" cx="207" cy="-18" rx="48.1917" ry="18"/>
<text text-anchor="middle" x="207" y="-14.3" font-family="Times,serif" font-size="14.00" fill="#000000">Interpreter</text>
</a>
</g>
</g>
<!-- Interpreter&#45;&gt;Semiotic -->
<g id="edge3" class="edge">
<title>Interpreter&#45;&gt;Semiotic</title>
<path fill="none" stroke="#000000" d="M196.6794,-35.6057C189.421,-47.9876 179.5829,-64.7703 171.3999,-78.7296"/>
<polygon fill="none" stroke="#000000" points="168.3431,-77.0234 166.3053,-87.4204 174.382,-80.5635 168.3431,-77.0234"/>
<text text-anchor="middle" x="194.5" y="-57.8" font-family="Times,serif" font-size="14.00" fill="#000000">isA</text>
</g>
<!-- SIUnitSymbol -->
<g id="node4" class="node">
<title>SIUnitSymbol</title>
<g id="a_node4"><a xlink:href="http://emmo.info/emmo/middle/siunits#EMMO_32129fb5_df25_48fd_a29c_18a2f22a2dd5" xlink:title="SIUnitSymbol">
<ellipse fill="#ffffcc" stroke="#000000" cx="335" cy="-18" rx="61.99" ry="18"/>
<text text-anchor="middle" x="335" y="-14.3" font-family="Times,serif" font-size="14.00" fill="#000000">SIUnitSymbol</text>
</a>
</g>
</g>
<!-- SIUnitSymbol&#45;&gt;Semiotic -->
<g id="edge2" class="edge">
<title>SIUnitSymbol&#45;&gt;Semiotic</title>
<path fill="none" stroke="#000000" d="M302.9984,-33.5539C272.1543,-48.5451 225.5105,-71.2155 193.0666,-86.9844"/>
<polygon fill="none" stroke="#000000" points="191.3667,-83.919 183.9027,-91.4383 194.4267,-90.2148 191.3667,-83.919"/>
<text text-anchor="middle" x="265.5" y="-57.8" font-family="Times,serif" font-size="14.00" fill="#000000">isA</text>
</g>
</g>
</svg>
