<?xml version="1.0" encoding="UTF-8" standalone="no"?>
<!DOCTYPE svg PUBLIC "-//W3C//DTD SVG 1.1//EN"
 "http://www.w3.org/Graphics/SVG/1.1/DTD/svg11.dtd">
<!-- Generated by graphviz version 2.40.1 (20161225.0304)
 -->
<!-- Title: %3 Pages: 1 -->
<svg width="472pt" height="392pt"
 viewBox="0.00 0.00 471.50 392.00" xmlns="http://www.w3.org/2000/svg" xmlns:xlink="http://www.w3.org/1999/xlink">
<g id="graph0" class="graph" transform="scale(1 1) rotate(0) translate(4 388)">
<title>%3</title>
<polygon fill="#ffffff" stroke="transparent" points="-4,4 -4,-388 467.5,-388 467.5,4 -4,4"/>
<!-- hasConvention -->
<g id="node1" class="node">
<title>hasConvention</title>
<g id="a_node1"><a xlink:href="http://emmo.info/emmo/top/semiotics#EMMO_eb3518bf_f799_4f9e_8c3e_ce59af11453b" xlink:title="hasConvention">
<polygon fill="#0079ba" stroke="#000000" points="380.5,-210 282.5,-210 282.5,-174 380.5,-174 380.5,-210"/>
<text text-anchor="middle" x="331.5" y="-188.3" font-family="Times,serif" font-size="14.00" fill="#ffffff">hasConvention</text>
</a>
</g>
</g>
<!-- hasSign -->
<g id="node4" class="node">
<title>hasSign</title>
<g id="a_node4"><a xlink:href="http://emmo.info/emmo/top/semiotics#EMMO_60577dea_9019_4537_ac41_80b0fb563d41" xlink:title="hasSign">
<polygon fill="#0079ba" stroke="#000000" points="195,-297 136,-297 136,-261 195,-261 195,-297"/>
<text text-anchor="middle" x="165.5" y="-275.3" font-family="Times,serif" font-size="14.00" fill="#ffffff">hasSign</text>
</a>
</g>
</g>
<!-- hasConvention&#45;&gt;hasSign -->
<g id="edge5" class="edge">
<title>hasConvention&#45;&gt;hasSign</title>
<path fill="none" stroke="#000000" d="M297.1047,-210.0265C270.058,-224.2015 232.3796,-243.9487 204.2663,-258.6827"/>
<polygon fill="none" stroke="#000000" points="202.3607,-255.7298 195.1281,-263.472 205.6101,-261.9299 202.3607,-255.7298"/>
<text text-anchor="middle" x="268" y="-231.8" font-family="Times,serif" font-size="14.00" fill="#000000">isA</text>
</g>
<!-- hasIcon -->
<g id="node2" class="node">
<title>hasIcon</title>
<g id="a_node2"><a xlink:href="http://emmo.info/emmo/top/semiotics#EMMO_39c3815d_8cae_4c8f_b2ff_eeba24bec455" xlink:title="hasIcon">
<polygon fill="#0079ba" stroke="#000000" points="65,-210 6,-210 6,-174 65,-174 65,-210"/>
<text text-anchor="middle" x="35.5" y="-188.3" font-family="Times,serif" font-size="14.00" fill="#ffffff">hasIcon</text>
</a>
</g>
</g>
<!-- hasIcon&#45;&gt;hasSign -->
<g id="edge1" class="edge">
<title>hasIcon&#45;&gt;hasSign</title>
<path fill="none" stroke="#000000" d="M62.4361,-210.0265C82.0455,-223.1497 108.7913,-241.0488 130.1226,-255.3244"/>
<polygon fill="none" stroke="#000000" points="128.3411,-258.3436 138.5984,-260.9966 132.2344,-252.5261 128.3411,-258.3436"/>
<text text-anchor="middle" x="118" y="-231.8" font-family="Times,serif" font-size="14.00" fill="#000000">isA</text>
</g>
<!-- hasVariable -->
<g id="node3" class="node">
<title>hasVariable</title>
<g id="a_node3"><a xlink:href="http://emmo.info/emmo/middle/math#EMMO_3446e167_c576_49d6_846c_215bb8878a55" xlink:title="hasVariable">
<polygon fill="#0079ba" stroke="#000000" points="337,-123 256,-123 256,-87 337,-87 337,-123"/>
<text text-anchor="middle" x="296.5" y="-101.3" font-family="Times,serif" font-size="14.00" fill="#ffffff">hasVariable</text>
</a>
</g>
</g>
<!-- hasVariable&#45;&gt;hasConvention -->
<g id="edge8" class="edge">
<title>hasVariable&#45;&gt;hasConvention</title>
<path fill="none" stroke="#000000" d="M303.752,-123.0265C308.5857,-135.0415 315.0298,-151.0599 320.4913,-164.6354"/>
<polygon fill="none" stroke="#000000" points="317.2778,-166.0256 324.2573,-173.9966 323.772,-163.4129 317.2778,-166.0256"/>
<text text-anchor="middle" x="325" y="-144.8" font-family="Times,serif" font-size="14.00" fill="#000000">isA</text>
</g>
<!-- semiotical -->
<g id="node10" class="node">
<title>semiotical</title>
<g id="a_node10"><a xlink:href="http://emmo.info/emmo/top/semiotics#EMMO_2337e25c_3c60_43fc_a8f9_b11a3f974291" xlink:title="semiotical">
<polygon fill="#0079ba" stroke="#000000" stroke-width="2" points="202,-384 129,-384 129,-348 202,-348 202,-384"/>
<text text-anchor="middle" x="165.5" y="-362.3" font-family="Times,serif" font-size="14.00" fill="#ffffff">semiotical</text>
</a>
</g>
</g>
<!-- hasSign&#45;&gt;semiotical -->
<g id="edge2" class="edge">
<title>hasSign&#45;&gt;semiotical</title>
<path fill="none" stroke="#000000" d="M165.5,-297.0265C165.5,-308.8082 165.5,-324.4393 165.5,-337.8419"/>
<polygon fill="none" stroke="#000000" points="162.0001,-337.9966 165.5,-347.9966 169.0001,-337.9967 162.0001,-337.9966"/>
<text text-anchor="middle" x="175" y="-318.8" font-family="Times,serif" font-size="14.00" fill="#000000">isA</text>
</g>
<!-- hasPhysicsDimension -->
<g id="node5" class="node">
<title>hasPhysicsDimension</title>
<g id="a_node5"><a xlink:href="http://emmo.info/emmo/middle/units#EMMO_bed1d005_b04e_4a90_94cf_02bc678a8569" xlink:title="hasPhysicsDimension">
<polygon fill="#0079ba" stroke="#000000" points="463.5,-36 327.5,-36 327.5,0 463.5,0 463.5,-36"/>
<text text-anchor="middle" x="395.5" y="-14.3" font-family="Times,serif" font-size="14.00" fill="#ffffff">hasPhysicsDimension</text>
</a>
</g>
</g>
<!-- hasProperty -->
<g id="node6" class="node">
<title>hasProperty</title>
<g id="a_node6"><a xlink:href="http://emmo.info/emmo/middle/properties#EMMO_e1097637_70d2_4895_973f_2396f04fa204" xlink:title="hasProperty">
<polygon fill="#0079ba" stroke="#000000" points="436,-123 355,-123 355,-87 436,-87 436,-123"/>
<text text-anchor="middle" x="395.5" y="-101.3" font-family="Times,serif" font-size="14.00" fill="#ffffff">hasProperty</text>
</a>
</g>
</g>
<!-- hasPhysicsDimension&#45;&gt;hasProperty -->
<g id="edge3" class="edge">
<title>hasPhysicsDimension&#45;&gt;hasProperty</title>
<path fill="none" stroke="#000000" d="M395.5,-36.0265C395.5,-47.8082 395.5,-63.4393 395.5,-76.8419"/>
<polygon fill="none" stroke="#000000" points="392.0001,-76.9966 395.5,-86.9966 399.0001,-76.9967 392.0001,-76.9966"/>
<text text-anchor="middle" x="405" y="-57.8" font-family="Times,serif" font-size="14.00" fill="#000000">isA</text>
</g>
<!-- hasProperty&#45;&gt;hasConvention -->
<g id="edge6" class="edge">
<title>hasProperty&#45;&gt;hasConvention</title>
<path fill="none" stroke="#000000" d="M382.2392,-123.0265C373.143,-135.3915 360.9279,-151.9964 350.7623,-165.8153"/>
<polygon fill="none" stroke="#000000" points="347.8502,-163.8674 344.7439,-173.9966 353.4889,-168.0154 347.8502,-163.8674"/>
<text text-anchor="middle" x="376" y="-144.8" font-family="Times,serif" font-size="14.00" fill="#000000">isA</text>
</g>
<!-- hasModel -->
<g id="node7" class="node">
<title>hasModel</title>
<g id="a_node7"><a xlink:href="http://emmo.info/emmo/middle/models#EMMO_24c71baf_6db6_48b9_86c8_8c70cf36db0c" xlink:title="hasModel">
<polygon fill="#0079ba" stroke="#000000" points="71,-123 0,-123 0,-87 71,-87 71,-123"/>
<text text-anchor="middle" x="35.5" y="-101.3" font-family="Times,serif" font-size="14.00" fill="#ffffff">hasModel</text>
</a>
</g>
</g>
<!-- hasModel&#45;&gt;hasIcon -->
<g id="edge7" class="edge">
<title>hasModel&#45;&gt;hasIcon</title>
<path fill="none" stroke="#000000" d="M35.5,-123.0265C35.5,-134.8082 35.5,-150.4393 35.5,-163.8419"/>
<polygon fill="none" stroke="#000000" points="32.0001,-163.9966 35.5,-173.9966 39.0001,-163.9967 32.0001,-163.9966"/>
<text text-anchor="middle" x="45" y="-144.8" font-family="Times,serif" font-size="14.00" fill="#000000">isA</text>
</g>
<!-- hasIndex -->
<g id="node8" class="node">
<title>hasIndex</title>
<g id="a_node8"><a xlink:href="http://emmo.info/emmo/top/semiotics#EMMO_297999d6_c9e4_4262_9536_bd524d1c6e21" xlink:title="hasIndex">
<polygon fill="#0079ba" stroke="#000000" points="148,-210 83,-210 83,-174 148,-174 148,-210"/>
<text text-anchor="middle" x="115.5" y="-188.3" font-family="Times,serif" font-size="14.00" fill="#ffffff">hasIndex</text>
</a>
</g>
</g>
<!-- hasIndex&#45;&gt;hasSign -->
<g id="edge9" class="edge">
<title>hasIndex&#45;&gt;hasSign</title>
<path fill="none" stroke="#000000" d="M125.86,-210.0265C132.8323,-222.1582 142.1502,-238.3713 150.0001,-252.0302"/>
<polygon fill="none" stroke="#000000" points="147.1358,-254.0705 155.1532,-260.9966 153.2049,-250.5825 147.1358,-254.0705"/>
<text text-anchor="middle" x="153" y="-231.8" font-family="Times,serif" font-size="14.00" fill="#000000">isA</text>
</g>
<!-- hasInterpretant -->
<g id="node9" class="node">
<title>hasInterpretant</title>
<g id="a_node9"><a xlink:href="http://emmo.info/emmo/top/semiotics#EMMO_7fb7fe7e_bdf9_4eeb_adad_e384dd5285c6" xlink:title="hasInterpretant">
<polygon fill="#0079ba" stroke="#000000" points="264.5,-210 166.5,-210 166.5,-174 264.5,-174 264.5,-210"/>
<text text-anchor="middle" x="215.5" y="-188.3" font-family="Times,serif" font-size="14.00" fill="#ffffff">hasInterpretant</text>
</a>
</g>
</g>
<!-- hasInterpretant&#45;&gt;hasSign -->
<g id="edge4" class="edge">
<title>hasInterpretant&#45;&gt;hasSign</title>
<path fill="none" stroke="#000000" d="M205.14,-210.0265C198.1677,-222.1582 188.8498,-238.3713 180.9999,-252.0302"/>
<polygon fill="none" stroke="#000000" points="177.7951,-250.5825 175.8468,-260.9966 183.8642,-254.0705 177.7951,-250.5825"/>
<text text-anchor="middle" x="203" y="-231.8" font-family="Times,serif" font-size="14.00" fill="#000000">isA</text>
</g>
</g>
</svg>
