<?xml version="1.0" encoding="UTF-8" standalone="no"?>
<!DOCTYPE svg PUBLIC "-//W3C//DTD SVG 1.1//EN"
 "http://www.w3.org/Graphics/SVG/1.1/DTD/svg11.dtd">
<!-- Generated by graphviz version 2.40.1 (20161225.0304)
 -->
<!-- Title: %3 Pages: 1 -->
<svg width="631pt" height="131pt"
 viewBox="0.00 0.00 630.84 131.00" xmlns="http://www.w3.org/2000/svg" xmlns:xlink="http://www.w3.org/1999/xlink">
<g id="graph0" class="graph" transform="scale(1 1) rotate(0) translate(4 127)">
<title>%3</title>
<polygon fill="#ffffff" stroke="transparent" points="-4,4 -4,-127 626.8437,-127 626.8437,4 -4,4"/>
<!-- Second -->
<g id="node1" class="node">
<title>Second</title>
<g id="a_node1"><a xlink:href="http://emmo.info/emmo/middle/siunits#EMMO_314ba716_2d3d_4462_9a4f_d3419ae1df43" xlink:title="Second">
<ellipse fill="#ffffcc" stroke="#000000" cx="36.3968" cy="-18" rx="36.2938" ry="18"/>
<text text-anchor="middle" x="36.3968" y="-14.3" font-family="Times,serif" font-size="14.00" fill="#000000">Second</text>
</a>
</g>
</g>
<!-- SIBaseUnit -->
<g id="node2" class="node">
<title>SIBaseUnit</title>
<g id="a_node2"><a xlink:href="http://emmo.info/emmo/middle/siunits#EMMO_3a185e6c_9e19_4776_b583_19c978156aa0" xlink:title="SIBaseUnit">
<ellipse fill="#ffffcc" stroke="#000000" stroke-width="2" cx="315.3968" cy="-105" rx="51.1914" ry="18"/>
<text text-anchor="middle" x="315.3968" y="-101.3" font-family="Times,serif" font-size="14.00" fill="#000000">SIBaseUnit</text>
</a>
</g>
</g>
<!-- Second&#45;&gt;SIBaseUnit -->
<g id="edge6" class="edge">
<title>Second&#45;&gt;SIBaseUnit</title>
<path fill="none" stroke="#000000" d="M64.3446,-29.6008C69.959,-31.8118 75.841,-34.0439 81.3968,-36 143.4972,-57.8643 216.4569,-78.6163 264.1923,-91.5457"/>
<polygon fill="none" stroke="#000000" points="263.4165,-94.9614 273.9827,-94.1835 265.2376,-88.2024 263.4165,-94.9614"/>
<text text-anchor="middle" x="192.8968" y="-57.8" font-family="Times,serif" font-size="14.00" fill="#000000">isA</text>
</g>
<!-- Candela -->
<g id="node3" class="node">
<title>Candela</title>
<g id="a_node3"><a xlink:href="http://emmo.info/emmo/middle/siunits#EMMO_8d00f093_3f45_4ea3_986c_b3545c3c2f4c" xlink:title="Candela">
<ellipse fill="#ffffcc" stroke="#000000" cx="130.3968" cy="-18" rx="39.7935" ry="18"/>
<text text-anchor="middle" x="130.3968" y="-14.3" font-family="Times,serif" font-size="14.00" fill="#000000">Candela</text>
</a>
</g>
</g>
<!-- Candela&#45;&gt;SIBaseUnit -->
<g id="edge1" class="edge">
<title>Candela&#45;&gt;SIBaseUnit</title>
<path fill="none" stroke="#000000" d="M158.0931,-31.0248C189.1832,-45.6455 239.9013,-69.4967 275.3162,-86.1513"/>
<polygon fill="none" stroke="#000000" points="273.8801,-89.3436 284.4189,-90.432 276.8591,-83.0091 273.8801,-89.3436"/>
<text text-anchor="middle" x="243.8968" y="-57.8" font-family="Times,serif" font-size="14.00" fill="#000000">isA</text>
</g>
<!-- Ampere -->
<g id="node4" class="node">
<title>Ampere</title>
<g id="a_node4"><a xlink:href="http://emmo.info/emmo/middle/siunits#EMMO_db5dd38d_ac79_4af6_8782_fee7e7150ae8" xlink:title="Ampere">
<ellipse fill="#ffffcc" stroke="#000000" cx="227.3968" cy="-18" rx="39.7935" ry="18"/>
<text text-anchor="middle" x="227.3968" y="-14.3" font-family="Times,serif" font-size="14.00" fill="#000000">Ampere</text>
</a>
</g>
</g>
<!-- Ampere&#45;&gt;SIBaseUnit -->
<g id="edge7" class="edge">
<title>Ampere&#45;&gt;SIBaseUnit</title>
<path fill="none" stroke="#000000" d="M243.9489,-34.364C257.0921,-47.3579 275.6758,-65.7304 290.5957,-80.4808"/>
<polygon fill="none" stroke="#000000" points="288.4436,-83.2749 298.0157,-87.8165 293.365,-78.2969 288.4436,-83.2749"/>
<text text-anchor="middle" x="286.8968" y="-57.8" font-family="Times,serif" font-size="14.00" fill="#000000">isA</text>
</g>
<!-- Mole -->
<g id="node5" class="node">
<title>Mole</title>
<g id="a_node5"><a xlink:href="http://emmo.info/emmo/middle/siunits#EMMO_df6eeb01_1b41_4bd8_9257_a04fbd7cf000" xlink:title="Mole">
<ellipse fill="#ffffcc" stroke="#000000" cx="315.3968" cy="-18" rx="29.795" ry="18"/>
<text text-anchor="middle" x="315.3968" y="-14.3" font-family="Times,serif" font-size="14.00" fill="#000000">Mole</text>
</a>
</g>
</g>
<!-- Mole&#45;&gt;SIBaseUnit -->
<g id="edge2" class="edge">
<title>Mole&#45;&gt;SIBaseUnit</title>
<path fill="none" stroke="#000000" d="M315.3968,-36.0265C315.3968,-47.8082 315.3968,-63.4393 315.3968,-76.8419"/>
<polygon fill="none" stroke="#000000" points="311.8969,-76.9966 315.3968,-86.9966 318.8969,-76.9967 311.8969,-76.9966"/>
<text text-anchor="middle" x="324.8968" y="-57.8" font-family="Times,serif" font-size="14.00" fill="#000000">isA</text>
</g>
<!-- Kilogram -->
<g id="node6" class="node">
<title>Kilogram</title>
<g id="a_node6"><a xlink:href="http://emmo.info/emmo/middle/siunits#EMMO_9bfd6f1e_b0ce_459c_beb7_8f1f41708bba" xlink:title="Kilogram">
<ellipse fill="#ffffcc" stroke="#000000" cx="408.3968" cy="-18" rx="44.6926" ry="18"/>
<text text-anchor="middle" x="408.3968" y="-14.3" font-family="Times,serif" font-size="14.00" fill="#000000">Kilogram</text>
</a>
</g>
</g>
<!-- Kilogram&#45;&gt;SIBaseUnit -->
<g id="edge3" class="edge">
<title>Kilogram&#45;&gt;SIBaseUnit</title>
<path fill="none" stroke="#000000" d="M390.4654,-34.7745C376.4038,-47.9289 356.6515,-66.4069 340.9375,-81.1071"/>
<polygon fill="none" stroke="#000000" points="338.5021,-78.5926 333.5904,-87.9802 343.2842,-83.7045 338.5021,-78.5926"/>
<text text-anchor="middle" x="376.8968" y="-57.8" font-family="Times,serif" font-size="14.00" fill="#000000">isA</text>
</g>
<!-- Metre -->
<g id="node7" class="node">
<title>Metre</title>
<g id="a_node7"><a xlink:href="http://emmo.info/emmo/middle/siunits#EMMO_7db11dbf_a643_464a_9b56_07eabcc3e9c5" xlink:title="Metre">
<ellipse fill="#ffffcc" stroke="#000000" cx="503.3968" cy="-18" rx="32.4942" ry="18"/>
<text text-anchor="middle" x="503.3968" y="-14.3" font-family="Times,serif" font-size="14.00" fill="#000000">Metre</text>
</a>
</g>
</g>
<!-- Metre&#45;&gt;SIBaseUnit -->
<g id="edge5" class="edge">
<title>Metre&#45;&gt;SIBaseUnit</title>
<path fill="none" stroke="#000000" d="M478.4318,-29.5529C447.0329,-44.0833 392.7306,-69.2125 355.4861,-86.448"/>
<polygon fill="none" stroke="#000000" points="354.0145,-83.2724 346.409,-90.6486 356.9543,-89.6251 354.0145,-83.2724"/>
<text text-anchor="middle" x="429.8968" y="-57.8" font-family="Times,serif" font-size="14.00" fill="#000000">isA</text>
</g>
<!-- Kelvin -->
<g id="node8" class="node">
<title>Kelvin</title>
<g id="a_node8"><a xlink:href="http://emmo.info/emmo/middle/siunits#EMMO_2e5e45fc_f52c_4294_bdc2_5ed7a06dfce7" xlink:title="Kelvin">
<ellipse fill="#ffffcc" stroke="#000000" cx="588.3968" cy="-18" rx="34.394" ry="18"/>
<text text-anchor="middle" x="588.3968" y="-14.3" font-family="Times,serif" font-size="14.00" fill="#000000">Kelvin</text>
</a>
</g>
</g>
<!-- Kelvin&#45;&gt;SIBaseUnit -->
<g id="edge4" class="edge">
<title>Kelvin&#45;&gt;SIBaseUnit</title>
<path fill="none" stroke="#000000" d="M561.5251,-29.3537C555.8955,-31.6305 549.9747,-33.9509 544.3968,-36 484.3015,-58.0768 413.5251,-78.5903 366.7338,-91.4152"/>
<polygon fill="none" stroke="#000000" points="365.5634,-88.1064 356.8349,-94.1117 367.4032,-94.8603 365.5634,-88.1064"/>
<text text-anchor="middle" x="497.8968" y="-57.8" font-family="Times,serif" font-size="14.00" fill="#000000">isA</text>
</g>
</g>
</svg>
