<?xml version="1.0" encoding="UTF-8" standalone="no"?>
<!DOCTYPE svg PUBLIC "-//W3C//DTD SVG 1.1//EN"
 "http://www.w3.org/Graphics/SVG/1.1/DTD/svg11.dtd">
<!-- Generated by graphviz version 2.40.1 (20161225.0304)
 -->
<!-- Title: %3 Pages: 1 -->
<svg width="519pt" height="218pt"
 viewBox="0.00 0.00 519.00 218.00" xmlns="http://www.w3.org/2000/svg" xmlns:xlink="http://www.w3.org/1999/xlink">
<g id="graph0" class="graph" transform="scale(1 1) rotate(0) translate(4 214)">
<title>%3</title>
<polygon fill="#ffffff" stroke="transparent" points="-4,4 -4,-214 514.9954,-214 514.9954,4 -4,4"/>
<!-- Icon -->
<g id="node1" class="node">
<title>Icon</title>
<g id="a_node1"><a xlink:href="http://emmo.info/emmo/top/semiotics#EMMO_d7788d1a_020d_4c78_85a1_13563fcec168" xlink:title="Icon">
<ellipse fill="#ffffcc" stroke="#000000" stroke-width="2" cx="27" cy="-105" rx="27" ry="18"/>
<text text-anchor="middle" x="27" y="-101.3" font-family="Times,serif" font-size="14.00" fill="#000000">Icon</text>
</a>
</g>
</g>
<!-- Sign -->
<g id="node6" class="node">
<title>Sign</title>
<g id="a_node6"><a xlink:href="http://emmo.info/emmo/top/semiotics#EMMO_b21a56ed_f969_4612_a6ec_cb7766f7f31d" xlink:title="Sign">
<ellipse fill="#ffc880" stroke="#000000" stroke-width="2" cx="236" cy="-192" rx="27" ry="18"/>
<text text-anchor="middle" x="236" y="-188.3" font-family="Times,serif" font-size="14.00" fill="#000000">Sign</text>
</a>
</g>
</g>
<!-- Icon&#45;&gt;Sign -->
<g id="edge5" class="edge">
<title>Icon&#45;&gt;Sign</title>
<path fill="none" stroke="#000000" d="M48.5607,-116.149C53.2833,-118.4874 58.2818,-120.8841 63,-123 110.7993,-144.4364 167.3845,-166.3749 202.4923,-179.5949"/>
<polygon fill="none" stroke="#000000" points="201.6398,-183.0131 212.2321,-183.2461 204.097,-176.4585 201.6398,-183.0131"/>
<text text-anchor="middle" x="148.5" y="-144.8" font-family="Times,serif" font-size="14.00" fill="#000000">isA</text>
</g>
<!-- SISpecialUnit -->
<g id="node2" class="node">
<title>SISpecialUnit</title>
<g id="a_node2"><a xlink:href="http://emmo.info/emmo/middle/siunits#EMMO_e9ffc696_5228_4ff9_8a60_0f5e05e9931b" xlink:title="SISpecialUnit">
<ellipse fill="#ffffcc" stroke="#000000" stroke-width="2" cx="337" cy="-18" rx="59.5901" ry="18"/>
<text text-anchor="middle" x="337" y="-14.3" font-family="Times,serif" font-size="14.00" fill="#000000">SISpecialUnit</text>
</a>
</g>
</g>
<!-- SpecialUnit -->
<g id="node5" class="node">
<title>SpecialUnit</title>
<g id="a_node5"><a xlink:href="http://emmo.info/emmo/middle/units#EMMO_3ee80521_3c23_4dd1_935d_9d522614a3e2" xlink:title="SpecialUnit">
<ellipse fill="#ffffcc" stroke="#000000" cx="337" cy="-105" rx="51.9908" ry="18"/>
<text text-anchor="middle" x="337" y="-101.3" font-family="Times,serif" font-size="14.00" fill="#000000">SpecialUnit</text>
</a>
</g>
</g>
<!-- SISpecialUnit&#45;&gt;SpecialUnit -->
<g id="edge1" class="edge">
<title>SISpecialUnit&#45;&gt;SpecialUnit</title>
<path fill="none" stroke="#000000" d="M337,-36.0265C337,-47.8082 337,-63.4393 337,-76.8419"/>
<polygon fill="none" stroke="#000000" points="333.5001,-76.9966 337,-86.9966 340.5001,-76.9967 333.5001,-76.9966"/>
<text text-anchor="middle" x="346.5" y="-57.8" font-family="Times,serif" font-size="14.00" fill="#000000">isA</text>
</g>
<!-- Conventional -->
<g id="node3" class="node">
<title>Conventional</title>
<g id="a_node3"><a xlink:href="http://emmo.info/emmo/top/semiotics#EMMO_35d2e130_6e01_41ed_94f7_00b333d46cf9" xlink:title="Conventional">
<ellipse fill="#ffffcc" stroke="#000000" stroke-width="2" cx="130" cy="-105" rx="57.6901" ry="18"/>
<text text-anchor="middle" x="130" y="-101.3" font-family="Times,serif" font-size="14.00" fill="#000000">Conventional</text>
</a>
</g>
</g>
<!-- Conventional&#45;&gt;Sign -->
<g id="edge4" class="edge">
<title>Conventional&#45;&gt;Sign</title>
<path fill="none" stroke="#000000" d="M150.6895,-121.981C167.9313,-136.1323 192.5504,-156.3385 210.9136,-171.4102"/>
<polygon fill="none" stroke="#000000" points="208.9112,-174.2947 218.8616,-177.9336 213.3523,-168.8838 208.9112,-174.2947"/>
<text text-anchor="middle" x="199.5" y="-144.8" font-family="Times,serif" font-size="14.00" fill="#000000">isA</text>
</g>
<!-- Index -->
<g id="node4" class="node">
<title>Index</title>
<g id="a_node4"><a xlink:href="http://emmo.info/emmo/top/semiotics#EMMO_0cd58641_824c_4851_907f_f4c3be76630c" xlink:title="Index">
<ellipse fill="#ffffcc" stroke="#000000" cx="236" cy="-105" rx="30.5947" ry="18"/>
<text text-anchor="middle" x="236" y="-101.3" font-family="Times,serif" font-size="14.00" fill="#000000">Index</text>
</a>
</g>
</g>
<!-- Index&#45;&gt;Sign -->
<g id="edge2" class="edge">
<title>Index&#45;&gt;Sign</title>
<path fill="none" stroke="#000000" d="M236,-123.0265C236,-134.8082 236,-150.4393 236,-163.8419"/>
<polygon fill="none" stroke="#000000" points="232.5001,-163.9966 236,-173.9966 239.5001,-163.9967 232.5001,-163.9966"/>
<text text-anchor="middle" x="245.5" y="-144.8" font-family="Times,serif" font-size="14.00" fill="#000000">isA</text>
</g>
<!-- SpecialUnit&#45;&gt;Sign -->
<g id="edge3" class="edge">
<title>SpecialUnit&#45;&gt;Sign</title>
<path fill="none" stroke="#000000" d="M317.5262,-121.7745C301.2213,-135.8192 277.8714,-155.9326 260.3361,-171.0372"/>
<polygon fill="none" stroke="#000000" points="258.0272,-168.4066 252.7347,-177.5849 262.5957,-173.7103 258.0272,-168.4066"/>
<text text-anchor="middle" x="301.5" y="-144.8" font-family="Times,serif" font-size="14.00" fill="#000000">isA</text>
</g>
<!-- Interpretant -->
<g id="node7" class="node">
<title>Interpretant</title>
<g id="a_node7"><a xlink:href="http://emmo.info/emmo/top/semiotics#EMMO_054af807_85cd_4a13_8eba_119dfdaaf38b" xlink:title="Interpretant">
<ellipse fill="#ffffcc" stroke="#000000" cx="459" cy="-105" rx="51.9908" ry="18"/>
<text text-anchor="middle" x="459" y="-101.3" font-family="Times,serif" font-size="14.00" fill="#000000">Interpretant</text>
</a>
</g>
</g>
<!-- Interpretant&#45;&gt;Sign -->
<g id="edge6" class="edge">
<title>Interpretant&#45;&gt;Sign</title>
<path fill="none" stroke="#000000" d="M424.1563,-118.5938C381.629,-135.1851 310.2657,-163.0264 268.7243,-179.2331"/>
<polygon fill="none" stroke="#000000" points="267.3825,-175.9996 259.3385,-182.8948 269.9268,-182.5209 267.3825,-175.9996"/>
<text text-anchor="middle" x="369.5" y="-144.8" font-family="Times,serif" font-size="14.00" fill="#000000">isA</text>
</g>
</g>
</svg>
