<?xml version="1.0" encoding="UTF-8" standalone="no"?>
<!DOCTYPE svg PUBLIC "-//W3C//DTD SVG 1.1//EN"
 "http://www.w3.org/Graphics/SVG/1.1/DTD/svg11.dtd">
<!-- Generated by graphviz version 2.40.1 (20161225.0304)
 -->
<!-- Title: %3 Pages: 1 -->
<svg width="516pt" height="218pt"
 viewBox="0.00 0.00 516.39 218.00" xmlns="http://www.w3.org/2000/svg" xmlns:xlink="http://www.w3.org/1999/xlink">
<g id="graph0" class="graph" transform="scale(1 1) rotate(0) translate(4 214)">
<title>%3</title>
<polygon fill="#ffffff" stroke="transparent" points="-4,4 -4,-214 512.391,-214 512.391,4 -4,4"/>
<!-- Neutron -->
<g id="node1" class="node">
<title>Neutron</title>
<g id="a_node1"><a xlink:href="http://emmo.info/emmo/middle/materials#EMMO_df808271_df91_4f27_ba59_fa423c51896c" xlink:title="Neutron">
<ellipse fill="#ffffcc" stroke="#000000" cx="39.6465" cy="-18" rx="39.7935" ry="18"/>
<text text-anchor="middle" x="39.6465" y="-14.3" font-family="Times,serif" font-size="14.00" fill="#000000">Neutron</text>
</a>
</g>
</g>
<!-- Nucleon -->
<g id="node5" class="node">
<title>Nucleon</title>
<g id="a_node5"><a xlink:href="http://emmo.info/emmo/middle/materials#EMMO_50781fd9_a9e4_46ad_b7be_4500371d188d" xlink:title="Nucleon">
<ellipse fill="#ffffcc" stroke="#000000" cx="85.6465" cy="-105" rx="40.0939" ry="18"/>
<text text-anchor="middle" x="85.6465" y="-101.3" font-family="Times,serif" font-size="14.00" fill="#000000">Nucleon</text>
</a>
</g>
</g>
<!-- Neutron&#45;&gt;Nucleon -->
<g id="edge1" class="edge">
<title>Neutron&#45;&gt;Nucleon</title>
<path fill="none" stroke="#000000" d="M48.9553,-35.6057C55.4397,-47.8697 64.2068,-64.4511 71.5451,-78.33"/>
<polygon fill="none" stroke="#000000" points="68.5832,-80.2161 76.3515,-87.4204 74.7714,-76.9441 68.5832,-80.2161"/>
<text text-anchor="middle" x="75.1465" y="-57.8" font-family="Times,serif" font-size="14.00" fill="#000000">isA</text>
</g>
<!-- Subatomic -->
<g id="node2" class="node">
<title>Subatomic</title>
<g id="a_node2"><a xlink:href="http://emmo.info/emmo/middle/materials#EMMO_7d66bde4_b68d_41cc_b5fc_6fd98c5e2ff0" xlink:title="Subatomic">
<ellipse fill="#ffffcc" stroke="#000000" stroke-width="2" cx="327.6465" cy="-192" rx="48.9926" ry="18"/>
<text text-anchor="middle" x="327.6465" y="-188.3" font-family="Times,serif" font-size="14.00" fill="#000000">Subatomic</text>
</a>
</g>
</g>
<!-- Proton -->
<g id="node3" class="node">
<title>Proton</title>
<g id="a_node3"><a xlink:href="http://emmo.info/emmo/middle/materials#EMMO_8f87e700_99a8_4427_8ffb_e493de05c217" xlink:title="Proton">
<ellipse fill="#ffffcc" stroke="#000000" cx="131.6465" cy="-18" rx="34.394" ry="18"/>
<text text-anchor="middle" x="131.6465" y="-14.3" font-family="Times,serif" font-size="14.00" fill="#000000">Proton</text>
</a>
</g>
</g>
<!-- Proton&#45;&gt;Nucleon -->
<g id="edge5" class="edge">
<title>Proton&#45;&gt;Nucleon</title>
<path fill="none" stroke="#000000" d="M122.3377,-35.6057C115.8533,-47.8697 107.0862,-64.4511 99.7479,-78.33"/>
<polygon fill="none" stroke="#000000" points="96.5216,-76.9441 94.9414,-87.4204 102.7098,-80.2161 96.5216,-76.9441"/>
<text text-anchor="middle" x="120.1465" y="-57.8" font-family="Times,serif" font-size="14.00" fill="#000000">isA</text>
</g>
<!-- Nucleus -->
<g id="node4" class="node">
<title>Nucleus</title>
<g id="a_node4"><a xlink:href="http://emmo.info/emmo/middle/materials#EMMO_f835f4d4_c665_403d_ab25_dca5cc74be52" xlink:title="Nucleus">
<ellipse fill="#ffffcc" stroke="#000000" cx="327.6465" cy="-105" rx="39.7935" ry="18"/>
<text text-anchor="middle" x="327.6465" y="-101.3" font-family="Times,serif" font-size="14.00" fill="#000000">Nucleus</text>
</a>
</g>
</g>
<!-- Nucleus&#45;&gt;Subatomic -->
<g id="edge2" class="edge">
<title>Nucleus&#45;&gt;Subatomic</title>
<path fill="none" stroke="#000000" d="M327.6465,-123.0265C327.6465,-134.8082 327.6465,-150.4393 327.6465,-163.8419"/>
<polygon fill="none" stroke="#000000" points="324.1466,-163.9966 327.6465,-173.9966 331.1466,-163.9967 324.1466,-163.9966"/>
<text text-anchor="middle" x="337.1465" y="-144.8" font-family="Times,serif" font-size="14.00" fill="#000000">isA</text>
</g>
<!-- Nucleus&#45;&gt;Nucleon -->
<g id="edge3" class="edge">
<title>Nucleus&#45;&gt;Nucleon</title>
<path fill="none" stroke="#006400" d="M287.8143,-105C246.3743,-105 181.3637,-105 136.2991,-105"/>
<polygon fill="#006400" stroke="#006400" points="136.1519,-101.5001 126.1518,-105 136.1518,-108.5001 136.1519,-101.5001"/>
<text text-anchor="middle" x="206.9715" y="-90.8" font-family="Times,serif" font-size="14.00" fill="#000000">hasSpatialDirectPart some</text>
</g>
<!-- Nucleon&#45;&gt;Subatomic -->
<g id="edge4" class="edge">
<title>Nucleon&#45;&gt;Subatomic</title>
<path fill="none" stroke="#000000" d="M117.2838,-116.3737C159.5948,-131.5847 234.8437,-158.637 282.9363,-175.9265"/>
<polygon fill="none" stroke="#000000" points="281.8753,-179.2643 292.4697,-179.3538 284.2435,-172.6771 281.8753,-179.2643"/>
<text text-anchor="middle" x="230.1465" y="-144.8" font-family="Times,serif" font-size="14.00" fill="#000000">isA</text>
</g>
<!-- ElectronCloud -->
<g id="node6" class="node">
<title>ElectronCloud</title>
<g id="a_node6"><a xlink:href="http://emmo.info/emmo/middle/materials#EMMO_1067b97a_84f8_4d22_8ace_b842b8ce355c" xlink:title="ElectronCloud">
<ellipse fill="#ffffcc" stroke="#000000" cx="446.6465" cy="-105" rx="61.99" ry="18"/>
<text text-anchor="middle" x="446.6465" y="-101.3" font-family="Times,serif" font-size="14.00" fill="#000000">ElectronCloud</text>
</a>
</g>
</g>
<!-- ElectronCloud&#45;&gt;Subatomic -->
<g id="edge6" class="edge">
<title>ElectronCloud&#45;&gt;Subatomic</title>
<path fill="none" stroke="#000000" d="M423.7021,-121.7745C404.9442,-135.4883 378.2722,-154.988 357.7916,-169.9611"/>
<polygon fill="none" stroke="#000000" points="355.7228,-167.1379 349.7158,-175.8653 359.8542,-172.7888 355.7228,-167.1379"/>
<text text-anchor="middle" x="403.1465" y="-144.8" font-family="Times,serif" font-size="14.00" fill="#000000">isA</text>
</g>
</g>
</svg>
