<?xml version="1.0" encoding="UTF-8" standalone="no"?>
<!DOCTYPE svg PUBLIC "-//W3C//DTD SVG 1.1//EN"
 "http://www.w3.org/Graphics/SVG/1.1/DTD/svg11.dtd">
<!-- Generated by graphviz version 2.40.1 (20161225.0304)
 -->
<!-- Title: %3 Pages: 1 -->
<svg width="656pt" height="392pt"
 viewBox="0.00 0.00 655.54 392.00" xmlns="http://www.w3.org/2000/svg" xmlns:xlink="http://www.w3.org/1999/xlink">
<g id="graph0" class="graph" transform="scale(1 1) rotate(0) translate(4 388)">
<title>%3</title>
<polygon fill="#ffffff" stroke="transparent" points="-4,4 -4,-388 651.5369,-388 651.5369,4 -4,4"/>
<!-- UnitSymbol -->
<g id="node1" class="node">
<title>UnitSymbol</title>
<g id="a_node1"><a xlink:href="http://emmo.info/emmo/middle/units#EMMO_216f448e_cdbc_4aeb_a529_7a5fe7fc38bb" xlink:title="UnitSymbol">
<ellipse fill="#ffc880" stroke="#000000" cx="460.7422" cy="-192" rx="53.8905" ry="18"/>
<text text-anchor="middle" x="460.7422" y="-188.3" font-family="Times,serif" font-size="14.00" fill="#000000">UnitSymbol</text>
</a>
</g>
</g>
<!-- MetrologicalSymbol -->
<g id="node5" class="node">
<title>MetrologicalSymbol</title>
<g id="a_node5"><a xlink:href="http://emmo.info/emmo/middle/units#EMMO_50a3552e_859a_4ff7_946d_76d537cabce6" xlink:title="MetrologicalSymbol">
<ellipse fill="#ffc880" stroke="#000000" cx="359.7422" cy="-279" rx="84.485" ry="18"/>
<text text-anchor="middle" x="359.7422" y="-275.3" font-family="Times,serif" font-size="14.00" fill="#000000">MetrologicalSymbol</text>
</a>
</g>
</g>
<!-- UnitSymbol&#45;&gt;MetrologicalSymbol -->
<g id="edge3" class="edge">
<title>UnitSymbol&#45;&gt;MetrologicalSymbol</title>
<path fill="none" stroke="#000000" d="M440.7879,-209.1884C425.7688,-222.1256 404.9758,-240.0364 388.2116,-254.4768"/>
<polygon fill="none" stroke="#000000" points="385.6409,-252.0717 380.3485,-261.25 390.2095,-257.3754 385.6409,-252.0717"/>
<text text-anchor="middle" x="426.2422" y="-231.8" font-family="Times,serif" font-size="14.00" fill="#000000">isA</text>
</g>
<!-- MathematicalSymbol -->
<g id="node2" class="node">
<title>MathematicalSymbol</title>
<g id="a_node2"><a xlink:href="http://emmo.info/emmo/middle/math#EMMO_5be83f9c_a4ba_4b9a_be1a_5bfc6e891231" xlink:title="MathematicalSymbol">
<ellipse fill="#ffc880" stroke="#000000" stroke-width="2" cx="87.7422" cy="-279" rx="87.9851" ry="18"/>
<text text-anchor="middle" x="87.7422" y="-275.3" font-family="Times,serif" font-size="14.00" fill="#000000">MathematicalSymbol</text>
</a>
</g>
</g>
<!-- Symbol -->
<g id="node6" class="node">
<title>Symbol</title>
<g id="a_node6"><a xlink:href="http://emmo.info/emmo/middle/perceptual#EMMO_a1083d0a_c1fb_471f_8e20_a98f881ad527" xlink:title="Symbol">
<ellipse fill="#ffffcc" stroke="#000000" stroke-width="2" cx="225.7422" cy="-366" rx="38.1938" ry="18"/>
<text text-anchor="middle" x="225.7422" y="-362.3" font-family="Times,serif" font-size="14.00" fill="#000000">Symbol</text>
</a>
</g>
</g>
<!-- MathematicalSymbol&#45;&gt;Symbol -->
<g id="edge9" class="edge">
<title>MathematicalSymbol&#45;&gt;Symbol</title>
<path fill="none" stroke="#000000" d="M115.0066,-296.1884C137.7129,-310.5033 170.0781,-330.9074 193.9575,-345.9618"/>
<polygon fill="none" stroke="#000000" points="192.3304,-349.0735 202.6563,-351.4458 196.0636,-343.152 192.3304,-349.0735"/>
<text text-anchor="middle" x="175.2422" y="-318.8" font-family="Times,serif" font-size="14.00" fill="#000000">isA</text>
</g>
<!-- PhysicsDimension -->
<g id="node3" class="node">
<title>PhysicsDimension</title>
<g id="a_node3"><a xlink:href="http://emmo.info/emmo/middle/units#EMMO_9895a1b4_f0a5_4167_ac5e_97db40b8bfcc" xlink:title="PhysicsDimension">
<ellipse fill="#ffffcc" stroke="#000000" cx="311.7422" cy="-192" rx="76.8869" ry="18"/>
<text text-anchor="middle" x="311.7422" y="-188.3" font-family="Times,serif" font-size="14.00" fill="#000000">PhysicsDimension</text>
</a>
</g>
</g>
<!-- PhysicsDimension&#45;&gt;MetrologicalSymbol -->
<g id="edge6" class="edge">
<title>PhysicsDimension&#45;&gt;MetrologicalSymbol</title>
<path fill="none" stroke="#000000" d="M321.6878,-210.0265C328.3812,-222.1582 337.3264,-238.3713 344.8623,-252.0302"/>
<polygon fill="none" stroke="#000000" points="341.914,-253.9316 349.8093,-260.9966 348.043,-250.5501 341.914,-253.9316"/>
<text text-anchor="middle" x="348.2422" y="-231.8" font-family="Times,serif" font-size="14.00" fill="#000000">isA</text>
</g>
<!-- UnitOne -->
<g id="node4" class="node">
<title>UnitOne</title>
<g id="a_node4"><a xlink:href="http://emmo.info/emmo/middle/units#EMMO_5ebd5e01_0ed3_49a2_a30d_cd05cbe72978" xlink:title="UnitOne">
<ellipse fill="#ffffcc" stroke="#000000" cx="337.7422" cy="-18" rx="40.8928" ry="18"/>
<text text-anchor="middle" x="337.7422" y="-14.3" font-family="Times,serif" font-size="14.00" fill="#000000">UnitOne</text>
</a>
</g>
</g>
<!-- BaseUnit -->
<g id="node9" class="node">
<title>BaseUnit</title>
<g id="a_node9"><a xlink:href="http://emmo.info/emmo/middle/units#EMMO_db716151_6b73_45ff_910c_d182fdcbb4f5" xlink:title="BaseUnit">
<ellipse fill="#ffffcc" stroke="#000000" cx="337.7422" cy="-105" rx="43.5923" ry="18"/>
<text text-anchor="middle" x="337.7422" y="-101.3" font-family="Times,serif" font-size="14.00" fill="#000000">BaseUnit</text>
</a>
</g>
</g>
<!-- UnitOne&#45;&gt;BaseUnit -->
<g id="edge7" class="edge">
<title>UnitOne&#45;&gt;BaseUnit</title>
<path fill="none" stroke="#000000" d="M337.7422,-36.0265C337.7422,-47.8082 337.7422,-63.4393 337.7422,-76.8419"/>
<polygon fill="none" stroke="#000000" points="334.2423,-76.9966 337.7422,-86.9966 341.2423,-76.9967 334.2423,-76.9966"/>
<text text-anchor="middle" x="347.2422" y="-57.8" font-family="Times,serif" font-size="14.00" fill="#000000">isA</text>
</g>
<!-- MetrologicalSymbol&#45;&gt;Symbol -->
<g id="edge13" class="edge">
<title>MetrologicalSymbol&#45;&gt;Symbol</title>
<path fill="none" stroke="#000000" d="M333.2681,-296.1884C311.3552,-310.4155 280.1782,-330.6573 257.0333,-345.6842"/>
<polygon fill="none" stroke="#000000" points="255.0735,-342.7835 248.5921,-351.1646 258.8854,-348.6546 255.0735,-342.7835"/>
<text text-anchor="middle" x="311.2422" y="-318.8" font-family="Times,serif" font-size="14.00" fill="#000000">isA</text>
</g>
<!-- SIBaseUnit -->
<g id="node7" class="node">
<title>SIBaseUnit</title>
<g id="a_node7"><a xlink:href="http://emmo.info/emmo/middle/siunits#EMMO_3a185e6c_9e19_4776_b583_19c978156aa0" xlink:title="SIBaseUnit">
<ellipse fill="#ffffcc" stroke="#000000" stroke-width="2" cx="453.7422" cy="-18" rx="51.1914" ry="18"/>
<text text-anchor="middle" x="453.7422" y="-14.3" font-family="Times,serif" font-size="14.00" fill="#000000">SIBaseUnit</text>
</a>
</g>
</g>
<!-- SIBaseUnit&#45;&gt;BaseUnit -->
<g id="edge5" class="edge">
<title>SIBaseUnit&#45;&gt;BaseUnit</title>
<path fill="none" stroke="#000000" d="M431.9235,-34.364C413.6621,-48.0601 387.4332,-67.7318 367.2903,-82.839"/>
<polygon fill="none" stroke="#000000" points="364.9712,-80.2032 359.0712,-89.0033 369.1712,-85.8032 364.9712,-80.2032"/>
<text text-anchor="middle" x="412.2422" y="-57.8" font-family="Times,serif" font-size="14.00" fill="#000000">isA</text>
</g>
<!-- SIUnitSymbol -->
<g id="node12" class="node">
<title>SIUnitSymbol</title>
<g id="a_node12"><a xlink:href="http://emmo.info/emmo/middle/siunits#EMMO_32129fb5_df25_48fd_a29c_18a2f22a2dd5" xlink:title="SIUnitSymbol">
<ellipse fill="#ffffcc" stroke="#000000" cx="460.7422" cy="-105" rx="61.99" ry="18"/>
<text text-anchor="middle" x="460.7422" y="-101.3" font-family="Times,serif" font-size="14.00" fill="#000000">SIUnitSymbol</text>
</a>
</g>
</g>
<!-- SIBaseUnit&#45;&gt;SIUnitSymbol -->
<g id="edge4" class="edge">
<title>SIBaseUnit&#45;&gt;SIUnitSymbol</title>
<path fill="none" stroke="#000000" d="M455.1926,-36.0265C456.1406,-47.8082 457.3983,-63.4393 458.4766,-76.8419"/>
<polygon fill="none" stroke="#000000" points="455.0028,-77.3096 459.2937,-86.9966 461.9803,-76.7481 455.0028,-77.3096"/>
<text text-anchor="middle" x="467.2422" y="-57.8" font-family="Times,serif" font-size="14.00" fill="#000000">isA</text>
</g>
<!-- SISpecialUnit -->
<g id="node8" class="node">
<title>SISpecialUnit</title>
<g id="a_node8"><a xlink:href="http://emmo.info/emmo/middle/siunits#EMMO_e9ffc696_5228_4ff9_8a60_0f5e05e9931b" xlink:title="SISpecialUnit">
<ellipse fill="#ffffcc" stroke="#000000" stroke-width="2" cx="587.7422" cy="-18" rx="59.5901" ry="18"/>
<text text-anchor="middle" x="587.7422" y="-14.3" font-family="Times,serif" font-size="14.00" fill="#000000">SISpecialUnit</text>
</a>
</g>
</g>
<!-- SpecialUnit -->
<g id="node10" class="node">
<title>SpecialUnit</title>
<g id="a_node10"><a xlink:href="http://emmo.info/emmo/middle/units#EMMO_3ee80521_3c23_4dd1_935d_9d522614a3e2" xlink:title="SpecialUnit">
<ellipse fill="#ffffcc" stroke="#000000" cx="592.7422" cy="-105" rx="51.9908" ry="18"/>
<text text-anchor="middle" x="592.7422" y="-101.3" font-family="Times,serif" font-size="14.00" fill="#000000">SpecialUnit</text>
</a>
</g>
</g>
<!-- SISpecialUnit&#45;&gt;SpecialUnit -->
<g id="edge2" class="edge">
<title>SISpecialUnit&#45;&gt;SpecialUnit</title>
<path fill="none" stroke="#000000" d="M588.7782,-36.0265C589.4553,-47.8082 590.3537,-63.4393 591.1239,-76.8419"/>
<polygon fill="none" stroke="#000000" points="587.6394,-77.214 591.7075,-86.9966 594.6279,-76.8123 587.6394,-77.214"/>
<text text-anchor="middle" x="599.2422" y="-57.8" font-family="Times,serif" font-size="14.00" fill="#000000">isA</text>
</g>
<!-- SISpecialUnit&#45;&gt;SIUnitSymbol -->
<g id="edge1" class="edge">
<title>SISpecialUnit&#45;&gt;SIUnitSymbol</title>
<path fill="none" stroke="#000000" d="M563.5556,-34.5688C543.7327,-48.1482 515.4831,-67.5003 493.6102,-82.4842"/>
<polygon fill="none" stroke="#000000" points="491.5433,-79.6575 485.2714,-88.1965 495.4994,-85.4325 491.5433,-79.6575"/>
<text text-anchor="middle" x="541.2422" y="-57.8" font-family="Times,serif" font-size="14.00" fill="#000000">isA</text>
</g>
<!-- BaseUnit&#45;&gt;UnitSymbol -->
<g id="edge11" class="edge">
<title>BaseUnit&#45;&gt;UnitSymbol</title>
<path fill="none" stroke="#000000" d="M359.7321,-120.5539C379.1309,-134.2749 407.6246,-154.429 429.4074,-169.8364"/>
<polygon fill="none" stroke="#000000" points="427.505,-172.7778 437.6903,-175.695 431.5473,-167.0628 427.505,-172.7778"/>
<text text-anchor="middle" x="416.2422" y="-144.8" font-family="Times,serif" font-size="14.00" fill="#000000">isA</text>
</g>
<!-- SpecialUnit&#45;&gt;UnitSymbol -->
<g id="edge12" class="edge">
<title>SpecialUnit&#45;&gt;UnitSymbol</title>
<path fill="none" stroke="#000000" d="M568.5314,-120.9571C547.5443,-134.7895 516.9804,-154.9339 493.7539,-170.2423"/>
<polygon fill="none" stroke="#000000" points="491.6701,-167.4239 485.2466,-175.8494 495.5223,-173.2686 491.6701,-167.4239"/>
<text text-anchor="middle" x="543.2422" y="-144.8" font-family="Times,serif" font-size="14.00" fill="#000000">isA</text>
</g>
<!-- UTF8 -->
<g id="node11" class="node">
<title>UTF8</title>
<g id="a_node11"><a xlink:href="http://emmo.info/emmo/middle/units#EMMO_e13b2173_1dec_4b97_9ac1_1dc4b418612a" xlink:title="UTF8">
<ellipse fill="#ffffcc" stroke="#000000" stroke-width="2" cx="225.7422" cy="-279" rx="31.6951" ry="18"/>
<text text-anchor="middle" x="225.7422" y="-275.3" font-family="Times,serif" font-size="14.00" fill="#000000">UTF8</text>
</a>
</g>
</g>
<!-- UTF8&#45;&gt;Symbol -->
<g id="edge8" class="edge">
<title>UTF8&#45;&gt;Symbol</title>
<path fill="none" stroke="#000000" d="M225.7422,-297.0265C225.7422,-308.8082 225.7422,-324.4393 225.7422,-337.8419"/>
<polygon fill="none" stroke="#000000" points="222.2423,-337.9966 225.7422,-347.9966 229.2423,-337.9967 222.2423,-337.9966"/>
<text text-anchor="middle" x="235.2422" y="-318.8" font-family="Times,serif" font-size="14.00" fill="#000000">isA</text>
</g>
<!-- SIUnitSymbol&#45;&gt;UnitSymbol -->
<g id="edge10" class="edge">
<title>SIUnitSymbol&#45;&gt;UnitSymbol</title>
<path fill="none" stroke="#000000" d="M460.7422,-123.0265C460.7422,-134.8082 460.7422,-150.4393 460.7422,-163.8419"/>
<polygon fill="none" stroke="#000000" points="457.2423,-163.9966 460.7422,-173.9966 464.2423,-163.9967 457.2423,-163.9966"/>
<text text-anchor="middle" x="470.2422" y="-144.8" font-family="Times,serif" font-size="14.00" fill="#000000">isA</text>
</g>
</g>
</svg>
