<?xml version="1.0" encoding="UTF-8" standalone="no"?>
<!DOCTYPE svg PUBLIC "-//W3C//DTD SVG 1.1//EN"
 "http://www.w3.org/Graphics/SVG/1.1/DTD/svg11.dtd">
<!-- Generated by graphviz version 2.40.1 (20161225.0304)
 -->
<!-- Title: %3 Pages: 1 -->
<svg width="909pt" height="218pt"
 viewBox="0.00 0.00 909.24 218.00" xmlns="http://www.w3.org/2000/svg" xmlns:xlink="http://www.w3.org/1999/xlink">
<g id="graph0" class="graph" transform="scale(1 1) rotate(0) translate(4 214)">
<title>%3</title>
<polygon fill="#ffffff" stroke="transparent" points="-4,4 -4,-214 905.2359,-214 905.2359,4 -4,4"/>
<!-- LatinSmallLetterA -->
<g id="node1" class="node">
<title>LatinSmallLetterA</title>
<g id="a_node1"><a xlink:href="http://emmo.info/emmo/middle/units#EMMO_cfcf0f48_09ac_4770_a06a_684a42b4a14c" xlink:title="LatinSmallLetterA">
<ellipse fill="#ffc880" stroke="#000000" cx="823.8927" cy="-105" rx="77.1866" ry="18"/>
<text text-anchor="middle" x="823.8927" y="-101.3" font-family="Times,serif" font-size="14.00" fill="#000000">LatinSmallLetterA</text>
</a>
</g>
</g>
<!-- UTF8 -->
<g id="node10" class="node">
<title>UTF8</title>
<g id="a_node10"><a xlink:href="http://emmo.info/emmo/middle/units#EMMO_e13b2173_1dec_4b97_9ac1_1dc4b418612a" xlink:title="UTF8">
<ellipse fill="#ffffcc" stroke="#000000" stroke-width="2" cx="494.8927" cy="-192" rx="31.6951" ry="18"/>
<text text-anchor="middle" x="494.8927" y="-188.3" font-family="Times,serif" font-size="14.00" fill="#000000">UTF8</text>
</a>
</g>
</g>
<!-- LatinSmallLetterA&#45;&gt;UTF8 -->
<g id="edge5" class="edge">
<title>LatinSmallLetterA&#45;&gt;UTF8</title>
<path fill="none" stroke="#000000" d="M772.4865,-118.5938C706.3707,-136.0772 593.0138,-166.0531 533.6805,-181.7431"/>
<polygon fill="none" stroke="#000000" points="532.7179,-178.3772 523.945,-184.3175 534.5075,-185.1446 532.7179,-178.3772"/>
<text text-anchor="middle" x="689.3927" y="-144.8" font-family="Times,serif" font-size="14.00" fill="#000000">isA</text>
</g>
<!-- Ampere -->
<g id="node2" class="node">
<title>Ampere</title>
<g id="a_node2"><a xlink:href="http://emmo.info/emmo/middle/siunits#EMMO_db5dd38d_ac79_4af6_8782_fee7e7150ae8" xlink:title="Ampere">
<ellipse fill="#ffffcc" stroke="#000000" cx="81.8927" cy="-18" rx="39.7935" ry="18"/>
<text text-anchor="middle" x="81.8927" y="-14.3" font-family="Times,serif" font-size="14.00" fill="#000000">Ampere</text>
</a>
</g>
</g>
<!-- LatinCapitalLetterA -->
<g id="node4" class="node">
<title>LatinCapitalLetterA</title>
<g id="a_node4"><a xlink:href="http://emmo.info/emmo/middle/units#EMMO_2125f2d0_5050_49e3_a579_4c74bc9fd02e" xlink:title="LatinCapitalLetterA">
<ellipse fill="#ffc880" stroke="#000000" cx="81.8927" cy="-105" rx="81.7856" ry="18"/>
<text text-anchor="middle" x="81.8927" y="-101.3" font-family="Times,serif" font-size="14.00" fill="#000000">LatinCapitalLetterA</text>
</a>
</g>
</g>
<!-- Ampere&#45;&gt;LatinCapitalLetterA -->
<g id="edge10" class="edge">
<title>Ampere&#45;&gt;LatinCapitalLetterA</title>
<path fill="none" stroke="#000000" d="M81.8927,-36.0265C81.8927,-47.8082 81.8927,-63.4393 81.8927,-76.8419"/>
<polygon fill="none" stroke="#000000" points="78.3928,-76.9966 81.8927,-86.9966 85.3928,-76.9967 78.3928,-76.9966"/>
<text text-anchor="middle" x="91.3927" y="-57.8" font-family="Times,serif" font-size="14.00" fill="#000000">isA</text>
</g>
<!-- Milli -->
<g id="node3" class="node">
<title>Milli</title>
<g id="a_node3"><a xlink:href="http://emmo.info/emmo/middle/siunits#EMMO_a3a701ed_6f7d_4a10_9aee_dfa1961fc7b7" xlink:title="Milli">
<ellipse fill="#ffffcc" stroke="#000000" cx="608.8927" cy="-18" rx="28.6953" ry="18"/>
<text text-anchor="middle" x="608.8927" y="-14.3" font-family="Times,serif" font-size="14.00" fill="#000000">Milli</text>
</a>
</g>
</g>
<!-- LatinSmallLetterM -->
<g id="node12" class="node">
<title>LatinSmallLetterM</title>
<g id="a_node12"><a xlink:href="http://emmo.info/emmo/middle/units#EMMO_aa0d5cde_cbdc_4815_b46d_2f76b00a6bde" xlink:title="LatinSmallLetterM">
<ellipse fill="#ffc880" stroke="#000000" cx="648.8927" cy="-105" rx="79.0865" ry="18"/>
<text text-anchor="middle" x="648.8927" y="-101.3" font-family="Times,serif" font-size="14.00" fill="#000000">LatinSmallLetterM</text>
</a>
</g>
</g>
<!-- Milli&#45;&gt;LatinSmallLetterM -->
<g id="edge3" class="edge">
<title>Milli&#45;&gt;LatinSmallLetterM</title>
<path fill="none" stroke="#000000" d="M616.9873,-35.6057C622.4982,-47.592 629.9053,-63.7022 636.1952,-77.383"/>
<polygon fill="none" stroke="#000000" points="633.1774,-79.1979 640.5348,-86.8215 639.5374,-76.2738 633.1774,-79.1979"/>
<text text-anchor="middle" x="641.3927" y="-57.8" font-family="Times,serif" font-size="14.00" fill="#000000">isA</text>
</g>
<!-- LatinCapitalLetterA&#45;&gt;UTF8 -->
<g id="edge11" class="edge">
<title>LatinCapitalLetterA&#45;&gt;UTF8</title>
<path fill="none" stroke="#000000" d="M141.0656,-117.465C226.3134,-135.4228 381.4573,-168.1044 454.6396,-183.5205"/>
<polygon fill="none" stroke="#000000" points="454.3175,-187.0294 464.8242,-185.666 455.7605,-180.1797 454.3175,-187.0294"/>
<text text-anchor="middle" x="323.3927" y="-144.8" font-family="Times,serif" font-size="14.00" fill="#000000">isA</text>
</g>
<!-- Micro -->
<g id="node5" class="node">
<title>Micro</title>
<g id="a_node5"><a xlink:href="http://emmo.info/emmo/middle/siunits#EMMO_9ff3bf8e_2168_406e_8251_1d158fc948ae" xlink:title="Micro">
<ellipse fill="#ffffcc" stroke="#000000" cx="421.8927" cy="-18" rx="32.4942" ry="18"/>
<text text-anchor="middle" x="421.8927" y="-14.3" font-family="Times,serif" font-size="14.00" fill="#000000">Micro</text>
</a>
</g>
</g>
<!-- MicroUnit -->
<g id="node7" class="node">
<title>MicroUnit</title>
<g id="a_node7"><a xlink:href="http://emmo.info/emmo/middle/units#EMMO_2cfdcca6_6231_48aa_81b5_388b464bfe80" xlink:title="MicroUnit">
<ellipse fill="#ffc880" stroke="#000000" cx="421.8927" cy="-105" rx="48.1917" ry="18"/>
<text text-anchor="middle" x="421.8927" y="-101.3" font-family="Times,serif" font-size="14.00" fill="#000000">MicroUnit</text>
</a>
</g>
</g>
<!-- Micro&#45;&gt;MicroUnit -->
<g id="edge6" class="edge">
<title>Micro&#45;&gt;MicroUnit</title>
<path fill="none" stroke="#000000" d="M421.8927,-36.0265C421.8927,-47.8082 421.8927,-63.4393 421.8927,-76.8419"/>
<polygon fill="none" stroke="#000000" points="418.3928,-76.9966 421.8927,-86.9966 425.3928,-76.9967 418.3928,-76.9966"/>
<text text-anchor="middle" x="431.3927" y="-57.8" font-family="Times,serif" font-size="14.00" fill="#000000">isA</text>
</g>
<!-- GreekSmallLetterMu -->
<g id="node6" class="node">
<title>GreekSmallLetterMu</title>
<g id="a_node6"><a xlink:href="http://emmo.info/emmo/middle/units#EMMO_1e9c2a4b_abb9_4b27_bd9c_e31aac337a04" xlink:title="GreekSmallLetterMu">
<ellipse fill="#ffc880" stroke="#000000" cx="268.8927" cy="-105" rx="87.1846" ry="18"/>
<text text-anchor="middle" x="268.8927" y="-101.3" font-family="Times,serif" font-size="14.00" fill="#000000">GreekSmallLetterMu</text>
</a>
</g>
</g>
<!-- GreekSmallLetterMu&#45;&gt;UTF8 -->
<g id="edge9" class="edge">
<title>GreekSmallLetterMu&#45;&gt;UTF8</title>
<path fill="none" stroke="#000000" d="M310.3446,-120.9571C352.9606,-137.3624 418.6404,-162.6462 459.073,-178.211"/>
<polygon fill="none" stroke="#000000" points="457.9425,-181.5261 468.5323,-181.8524 460.4573,-174.9934 457.9425,-181.5261"/>
<text text-anchor="middle" x="405.3927" y="-144.8" font-family="Times,serif" font-size="14.00" fill="#000000">isA</text>
</g>
<!-- MicroUnit&#45;&gt;UTF8 -->
<g id="edge7" class="edge">
<title>MicroUnit&#45;&gt;UTF8</title>
<path fill="none" stroke="#000000" d="M436.3152,-122.1884C447.2218,-135.1867 462.3412,-153.2057 474.4874,-167.6813"/>
<polygon fill="none" stroke="#000000" points="472.1319,-170.3193 481.2409,-175.7301 477.4943,-165.8198 472.1319,-170.3193"/>
<text text-anchor="middle" x="472.3927" y="-144.8" font-family="Times,serif" font-size="14.00" fill="#000000">isA</text>
</g>
<!-- Space -->
<g id="node8" class="node">
<title>Space</title>
<g id="a_node8"><a xlink:href="http://emmo.info/emmo/middle/units#EMMO_ea192c80_6029_4410_863c_8eed7ea52037" xlink:title="Space">
<ellipse fill="#ffc880" stroke="#000000" cx="519.8927" cy="-105" rx="31.6951" ry="18"/>
<text text-anchor="middle" x="519.8927" y="-101.3" font-family="Times,serif" font-size="14.00" fill="#000000">Space</text>
</a>
</g>
</g>
<!-- Space&#45;&gt;UTF8 -->
<g id="edge1" class="edge">
<title>Space&#45;&gt;UTF8</title>
<path fill="none" stroke="#000000" d="M514.7127,-123.0265C511.2936,-134.9249 506.7464,-150.7492 502.8699,-164.2394"/>
<polygon fill="none" stroke="#000000" points="499.4641,-163.4189 500.0661,-173.9966 506.1919,-165.3522 499.4641,-163.4189"/>
<text text-anchor="middle" x="518.3927" y="-144.8" font-family="Times,serif" font-size="14.00" fill="#000000">isA</text>
</g>
<!-- Metre -->
<g id="node9" class="node">
<title>Metre</title>
<g id="a_node9"><a xlink:href="http://emmo.info/emmo/middle/siunits#EMMO_7db11dbf_a643_464a_9b56_07eabcc3e9c5" xlink:title="Metre">
<ellipse fill="#ffffcc" stroke="#000000" cx="687.8927" cy="-18" rx="32.4942" ry="18"/>
<text text-anchor="middle" x="687.8927" y="-14.3" font-family="Times,serif" font-size="14.00" fill="#000000">Metre</text>
</a>
</g>
</g>
<!-- Metre&#45;&gt;LatinSmallLetterM -->
<g id="edge4" class="edge">
<title>Metre&#45;&gt;LatinSmallLetterM</title>
<path fill="none" stroke="#000000" d="M680.0005,-35.6057C674.6274,-47.592 667.4055,-63.7022 661.2728,-77.383"/>
<polygon fill="none" stroke="#000000" points="657.9385,-76.2647 657.0417,-86.8215 664.3261,-79.1282 657.9385,-76.2647"/>
<text text-anchor="middle" x="680.3927" y="-57.8" font-family="Times,serif" font-size="14.00" fill="#000000">isA</text>
</g>
<!-- Atto -->
<g id="node11" class="node">
<title>Atto</title>
<g id="a_node11"><a xlink:href="http://emmo.info/emmo/middle/siunits#EMMO_42955b2d_b465_4666_86cc_ea3c2d685753" xlink:title="Atto">
<ellipse fill="#ffffcc" stroke="#000000" cx="823.8927" cy="-18" rx="27" ry="18"/>
<text text-anchor="middle" x="823.8927" y="-14.3" font-family="Times,serif" font-size="14.00" fill="#000000">Atto</text>
</a>
</g>
</g>
<!-- Atto&#45;&gt;LatinSmallLetterA -->
<g id="edge8" class="edge">
<title>Atto&#45;&gt;LatinSmallLetterA</title>
<path fill="none" stroke="#000000" d="M823.8927,-36.0265C823.8927,-47.8082 823.8927,-63.4393 823.8927,-76.8419"/>
<polygon fill="none" stroke="#000000" points="820.3928,-76.9966 823.8927,-86.9966 827.3928,-76.9967 820.3928,-76.9966"/>
<text text-anchor="middle" x="833.3927" y="-57.8" font-family="Times,serif" font-size="14.00" fill="#000000">isA</text>
</g>
<!-- LatinSmallLetterM&#45;&gt;UTF8 -->
<g id="edge2" class="edge">
<title>LatinSmallLetterM&#45;&gt;UTF8</title>
<path fill="none" stroke="#000000" d="M619.2,-121.7745C592.5009,-136.8577 553.4125,-158.9401 526.2219,-174.3011"/>
<polygon fill="none" stroke="#000000" points="524.477,-171.2668 517.4919,-179.2329 527.9201,-177.3615 524.477,-171.2668"/>
<text text-anchor="middle" x="591.3927" y="-144.8" font-family="Times,serif" font-size="14.00" fill="#000000">isA</text>
</g>
</g>
</svg>
