<?xml version="1.0" encoding="UTF-8" standalone="no"?>
<!DOCTYPE svg PUBLIC "-//W3C//DTD SVG 1.1//EN"
 "http://www.w3.org/Graphics/SVG/1.1/DTD/svg11.dtd">
<!-- Generated by graphviz version 2.40.1 (0)
 -->
<!-- Title: G Pages: 1 -->
<svg width="1154pt" height="305pt"
 viewBox="0.00 0.00 1153.98 305.00" xmlns="http://www.w3.org/2000/svg" xmlns:xlink="http://www.w3.org/1999/xlink">
<g id="graph0" class="graph" transform="scale(1 1) rotate(0) translate(4 301)">
<title>G</title>
<polygon fill="#ffffff" stroke="transparent" points="-4,4 -4,-301 1149.9834,-301 1149.9834,4 -4,4"/>
<!-- state -->
<g id="node1" class="node">
<title>state</title>
<polygon fill="#ffffe0" stroke="#000000" points="865.4834,-297 811.4834,-297 811.4834,-261 865.4834,-261 865.4834,-297"/>
<text text-anchor="middle" x="838.4834" y="-275.3" font-family="Bitstream Vera Sans" font-size="14.00" fill="#000000">state</text>
</g>
<!-- elementary -->
<g id="node2" class="node">
<title>elementary</title>
<polygon fill="#ffffe0" stroke="#000000" points="620.9834,-210 521.9834,-210 521.9834,-174 620.9834,-174 620.9834,-210"/>
<text text-anchor="middle" x="571.4834" y="-188.3" font-family="Bitstream Vera Sans" font-size="14.00" fill="#000000">elementary</text>
</g>
<!-- elementary&#45;&gt;state -->
<g id="edge1" class="edge">
<title>elementary&#45;&gt;state</title>
<path fill="none" stroke="#000000" d="M621.0105,-209.4192C649.9362,-219.4756 687.1862,-232.2256 720.4834,-243 747.4651,-251.7308 778.1023,-261.0606 801.3957,-268.0341"/>
<polygon fill="none" stroke="#000000" points="800.6354,-271.4597 811.2187,-270.9656 802.6372,-264.752 800.6354,-271.4597"/>
<text text-anchor="middle" x="734.4834" y="-231.8" font-family="Times,serif" font-size="14.00" fill="#000000">is_a</text>
</g>
<!-- mesoscopic -->
<g id="node3" class="node">
<title>mesoscopic</title>
<polygon fill="#ffffe0" stroke="#000000" points="739.9834,-210 638.9834,-210 638.9834,-174 739.9834,-174 739.9834,-210"/>
<text text-anchor="middle" x="689.4834" y="-188.3" font-family="Bitstream Vera Sans" font-size="14.00" fill="#000000">mesoscopic</text>
</g>
<!-- mesoscopic&#45;&gt;state -->
<g id="edge2" class="edge">
<title>mesoscopic&#45;&gt;state</title>
<path fill="none" stroke="#000000" d="M719.6614,-210.0572C736.123,-219.8665 756.8816,-232.1705 775.4834,-243 784.2098,-248.0803 793.6479,-253.5086 802.4966,-258.5689"/>
<polygon fill="none" stroke="#000000" points="801.03,-261.7617 811.4499,-263.679 804.4999,-255.6822 801.03,-261.7617"/>
<text text-anchor="middle" x="789.4834" y="-231.8" font-family="Times,serif" font-size="14.00" fill="#000000">is_a</text>
</g>
<!-- molecule -->
<g id="node4" class="node">
<title>molecule</title>
<polygon fill="#ffffe0" stroke="#000000" points="730.4834,-123 648.4834,-123 648.4834,-87 730.4834,-87 730.4834,-123"/>
<text text-anchor="middle" x="689.4834" y="-101.3" font-family="Bitstream Vera Sans" font-size="14.00" fill="#000000">molecule</text>
</g>
<!-- molecule&#45;&gt;mesoscopic -->
<g id="edge3" class="edge">
<title>molecule&#45;&gt;mesoscopic</title>
<path fill="none" stroke="#000000" d="M689.4834,-123.0265C689.4834,-134.8082 689.4834,-150.4393 689.4834,-163.8419"/>
<polygon fill="none" stroke="#000000" points="685.9835,-163.9966 689.4834,-173.9966 692.9835,-163.9967 685.9835,-163.9966"/>
<text text-anchor="middle" x="703.4834" y="-144.8" font-family="Times,serif" font-size="14.00" fill="#000000">is_a</text>
</g>
<!-- e&#45;bonded_atom -->
<g id="node9" class="node">
<title>e&#45;bonded_atom</title>
<polygon fill="#ffffe0" stroke="#000000" points="855.4834,-36 725.4834,-36 725.4834,0 855.4834,0 855.4834,-36"/>
<text text-anchor="middle" x="790.4834" y="-14.3" font-family="Bitstream Vera Sans" font-size="14.00" fill="#000000">e&#45;bonded_atom</text>
</g>
<!-- molecule&#45;&gt;e&#45;bonded_atom -->
<g id="edge17" class="edge">
<title>molecule&#45;&gt;e&#45;bonded_atom</title>
<path fill="none" stroke="#0000ff" d="M648.2947,-89.0336C645.3411,-88.2414 642.3842,-87.5486 639.4834,-87 604.7516,-80.4311 28.1217,-94.3455 3.4834,-69 -1.1635,-64.2197 -1.1563,-58.7872 3.4834,-54 25.7262,-31.05 546.577,-37.8526 578.4834,-36 623.8666,-33.3649 674.6107,-29.1033 715.0725,-25.3882"/>
<polygon fill="#0000ff" stroke="#0000ff" points="715.4938,-28.8642 725.1284,-24.4567 714.8481,-21.8941 715.4938,-28.8642"/>
<text text-anchor="middle" x="116.9834" y="-57.8" font-family="Times,serif" font-size="14.00" fill="#000000">has_spatial_direct_part min 2 &#160;&#160;</text>
</g>
<!-- crystal_unit_cell -->
<g id="node5" class="node">
<title>crystal_unit_cell</title>
<polygon fill="#ffffe0" stroke="#000000" points="630.4834,-123 500.4834,-123 500.4834,-87 630.4834,-87 630.4834,-123"/>
<text text-anchor="middle" x="565.4834" y="-101.3" font-family="Bitstream Vera Sans" font-size="14.00" fill="#000000">crystal_unit_cell</text>
</g>
<!-- crystal_unit_cell&#45;&gt;mesoscopic -->
<g id="edge4" class="edge">
<title>crystal_unit_cell&#45;&gt;mesoscopic</title>
<path fill="none" stroke="#000000" d="M591.1763,-123.0265C609.7975,-136.0914 635.1654,-153.8898 655.4672,-168.1338"/>
<polygon fill="none" stroke="#000000" points="653.627,-171.1183 663.8234,-173.9966 657.6475,-165.388 653.627,-171.1183"/>
<text text-anchor="middle" x="649.4834" y="-144.8" font-family="Times,serif" font-size="14.00" fill="#000000">is_a</text>
</g>
<!-- crystal_unit_cell&#45;&gt;e&#45;bonded_atom -->
<g id="edge18" class="edge">
<title>crystal_unit_cell&#45;&gt;e&#45;bonded_atom</title>
<path fill="none" stroke="#0000ff" d="M500.3715,-102.0358C413.7548,-97.4137 269.6048,-87.0885 253.4834,-69 249.0477,-64.0231 248.9015,-58.8426 253.4834,-54 265.9116,-40.8644 560.4444,-37.2651 578.4834,-36 623.8317,-32.8197 674.5744,-28.5372 715.0442,-24.9472"/>
<polygon fill="#0000ff" stroke="#0000ff" points="715.4527,-28.4248 725.1023,-24.0505 714.831,-21.4524 715.4527,-28.4248"/>
<text text-anchor="middle" x="365.4834" y="-57.8" font-family="Times,serif" font-size="14.00" fill="#000000">has_spatial_direct_part some &#160;&#160;</text>
</g>
<!-- atomic -->
<g id="node6" class="node">
<title>atomic</title>
<polygon fill="#ffffe0" stroke="#000000" points="822.9834,-210 757.9834,-210 757.9834,-174 822.9834,-174 822.9834,-210"/>
<text text-anchor="middle" x="790.4834" y="-188.3" font-family="Bitstream Vera Sans" font-size="14.00" fill="#000000">atomic</text>
</g>
<!-- atomic&#45;&gt;state -->
<g id="edge5" class="edge">
<title>atomic&#45;&gt;state</title>
<path fill="none" stroke="#000000" d="M798.2879,-210.2669C802.701,-220.1376 808.5183,-232.4333 814.4834,-243 816.197,-246.0355 818.078,-249.1535 820.0094,-252.2243"/>
<polygon fill="none" stroke="#000000" points="817.1014,-254.1727 825.4888,-260.646 822.9688,-250.3551 817.1014,-254.1727"/>
<text text-anchor="middle" x="828.4834" y="-231.8" font-family="Times,serif" font-size="14.00" fill="#000000">is_a</text>
</g>
<!-- atom -->
<g id="node7" class="node">
<title>atom</title>
<polygon fill="#ffffe0" stroke="#000000" points="802.4834,-123 748.4834,-123 748.4834,-87 802.4834,-87 802.4834,-123"/>
<text text-anchor="middle" x="775.4834" y="-101.3" font-family="Bitstream Vera Sans" font-size="14.00" fill="#000000">atom</text>
</g>
<!-- atom&#45;&gt;atomic -->
<g id="edge6" class="edge">
<title>atom&#45;&gt;atomic</title>
<path fill="none" stroke="#000000" d="M778.5914,-123.0265C780.6227,-134.8082 783.3177,-150.4393 785.6285,-163.8419"/>
<polygon fill="none" stroke="#000000" points="782.2311,-164.7367 787.3793,-173.9966 789.1293,-163.5473 782.2311,-164.7367"/>
<text text-anchor="middle" x="798.4834" y="-144.8" font-family="Times,serif" font-size="14.00" fill="#000000">is_a</text>
</g>
<!-- standalone_atom -->
<g id="node8" class="node">
<title>standalone_atom</title>
<polygon fill="#ffffe0" stroke="#000000" points="569.9834,-36 428.9834,-36 428.9834,0 569.9834,0 569.9834,-36"/>
<text text-anchor="middle" x="499.4834" y="-14.3" font-family="Bitstream Vera Sans" font-size="14.00" fill="#000000">standalone_atom</text>
</g>
<!-- standalone_atom&#45;&gt;atom -->
<g id="edge7" class="edge">
<title>standalone_atom&#45;&gt;atom</title>
<path fill="none" stroke="#000000" d="M494.3058,-36.3277C492.4355,-47.2137 492.4503,-60.5077 500.4834,-69 517.4613,-86.9485 686.5483,-80.9859 738.5198,-88.1624"/>
<polygon fill="none" stroke="#000000" points="737.9197,-91.6112 748.4056,-90.0961 739.2635,-84.7414 737.9197,-91.6112"/>
<text text-anchor="middle" x="514.4834" y="-57.8" font-family="Times,serif" font-size="14.00" fill="#000000">is_a</text>
</g>
<!-- e&#45;bonded_atom&#45;&gt;atom -->
<g id="edge8" class="edge">
<title>e&#45;bonded_atom&#45;&gt;atom</title>
<path fill="none" stroke="#000000" d="M787.3754,-36.0265C785.344,-47.8082 782.649,-63.4393 780.3382,-76.8419"/>
<polygon fill="none" stroke="#000000" points="776.8374,-76.5473 778.5874,-86.9966 783.7357,-77.7367 776.8374,-76.5473"/>
<text text-anchor="middle" x="798.4834" y="-57.8" font-family="Times,serif" font-size="14.00" fill="#000000">is_a</text>
</g>
<!-- subatomic -->
<g id="node10" class="node">
<title>subatomic</title>
<polygon fill="#ffffe0" stroke="#000000" points="1042.9834,-210 951.9834,-210 951.9834,-174 1042.9834,-174 1042.9834,-210"/>
<text text-anchor="middle" x="997.4834" y="-188.3" font-family="Bitstream Vera Sans" font-size="14.00" fill="#000000">subatomic</text>
</g>
<!-- subatomic&#45;&gt;state -->
<g id="edge9" class="edge">
<title>subatomic&#45;&gt;state</title>
<path fill="none" stroke="#000000" d="M964.5385,-210.0265C938.3381,-224.3625 901.7217,-244.3979 874.7011,-259.1827"/>
<polygon fill="none" stroke="#000000" points="872.6692,-256.3048 865.5766,-264.1754 876.0293,-262.4457 872.6692,-256.3048"/>
<text text-anchor="middle" x="942.4834" y="-231.8" font-family="Times,serif" font-size="14.00" fill="#000000">is_a</text>
</g>
<!-- continuum -->
<g id="node11" class="node">
<title>continuum</title>
<polygon fill="#ffffe0" stroke="#000000" points="933.4834,-210 841.4834,-210 841.4834,-174 933.4834,-174 933.4834,-210"/>
<text text-anchor="middle" x="887.4834" y="-188.3" font-family="Bitstream Vera Sans" font-size="14.00" fill="#000000">continuum</text>
</g>
<!-- continuum&#45;&gt;state -->
<g id="edge10" class="edge">
<title>continuum&#45;&gt;state</title>
<path fill="none" stroke="#000000" d="M877.3305,-210.0265C870.4977,-222.1582 861.3662,-238.3713 853.6733,-252.0302"/>
<polygon fill="none" stroke="#000000" points="850.481,-250.5659 848.6232,-260.9966 856.5802,-254.0011 850.481,-250.5659"/>
<text text-anchor="middle" x="880.4834" y="-231.8" font-family="Times,serif" font-size="14.00" fill="#000000">is_a</text>
</g>
<!-- fluid -->
<g id="node12" class="node">
<title>fluid</title>
<polygon fill="#ffffe0" stroke="#000000" points="1018.4834,-123 964.4834,-123 964.4834,-87 1018.4834,-87 1018.4834,-123"/>
<text text-anchor="middle" x="991.4834" y="-101.3" font-family="Bitstream Vera Sans" font-size="14.00" fill="#000000">fluid</text>
</g>
<!-- fluid&#45;&gt;continuum -->
<g id="edge11" class="edge">
<title>fluid&#45;&gt;continuum</title>
<path fill="none" stroke="#000000" d="M973.5416,-123.0923C963.2873,-133.1358 950.0101,-145.6522 937.4834,-156 932.6127,-160.0235 927.328,-164.1066 922.0797,-168.0078"/>
<polygon fill="none" stroke="#000000" points="919.9441,-165.2333 913.9269,-173.9536 924.0688,-170.889 919.9441,-165.2333"/>
<text text-anchor="middle" x="968.4834" y="-144.8" font-family="Times,serif" font-size="14.00" fill="#000000">is_a</text>
</g>
<!-- solid -->
<g id="node13" class="node">
<title>solid</title>
<polygon fill="#ffffe0" stroke="#000000" points="946.4834,-123 892.4834,-123 892.4834,-87 946.4834,-87 946.4834,-123"/>
<text text-anchor="middle" x="919.4834" y="-101.3" font-family="Bitstream Vera Sans" font-size="14.00" fill="#000000">solid</text>
</g>
<!-- solid&#45;&gt;continuum -->
<g id="edge12" class="edge">
<title>solid&#45;&gt;continuum</title>
<path fill="none" stroke="#000000" d="M912.8529,-123.0265C908.4765,-134.9249 902.6561,-150.7492 897.6942,-164.2394"/>
<polygon fill="none" stroke="#000000" points="894.2726,-163.4031 894.1053,-173.9966 900.8423,-165.8196 894.2726,-163.4031"/>
<text text-anchor="middle" x="919.4834" y="-144.8" font-family="Times,serif" font-size="14.00" fill="#000000">is_a</text>
</g>
<!-- crystal -->
<g id="node14" class="node">
<title>crystal</title>
<polygon fill="#ffffe0" stroke="#000000" points="951.4834,-36 887.4834,-36 887.4834,0 951.4834,0 951.4834,-36"/>
<text text-anchor="middle" x="919.4834" y="-14.3" font-family="Bitstream Vera Sans" font-size="14.00" fill="#000000">crystal</text>
</g>
<!-- crystal&#45;&gt;crystal_unit_cell -->
<g id="edge19" class="edge">
<title>crystal&#45;&gt;crystal_unit_cell</title>
<path fill="none" stroke="#0000ff" d="M887.2732,-30.0682C879.8797,-32.4087 871.9848,-34.5743 864.4834,-36 831.3504,-42.297 584.6134,-29.4552 561.4834,-54 555.7673,-60.0657 554.7795,-68.5376 555.8216,-76.8365"/>
<polygon fill="#0000ff" stroke="#0000ff" points="552.4154,-77.6463 557.918,-86.7002 559.2625,-76.191 552.4154,-77.6463"/>
<text text-anchor="middle" x="669.9834" y="-57.8" font-family="Times,serif" font-size="14.00" fill="#000000">has_spatial_direct_part only &#160;&#160;</text>
</g>
<!-- crystal&#45;&gt;solid -->
<g id="edge13" class="edge">
<title>crystal&#45;&gt;solid</title>
<path fill="none" stroke="#000000" d="M919.4834,-36.0265C919.4834,-47.8082 919.4834,-63.4393 919.4834,-76.8419"/>
<polygon fill="none" stroke="#000000" points="915.9835,-76.9966 919.4834,-86.9966 922.9835,-76.9967 915.9835,-76.9966"/>
<text text-anchor="middle" x="933.4834" y="-57.8" font-family="Times,serif" font-size="14.00" fill="#000000">is_a</text>
</g>
<!-- phase -->
<g id="node15" class="node">
<title>phase</title>
<polygon fill="#ffffe0" stroke="#000000" points="1096.4834,-123 1036.4834,-123 1036.4834,-87 1096.4834,-87 1096.4834,-123"/>
<text text-anchor="middle" x="1066.4834" y="-101.3" font-family="Bitstream Vera Sans" font-size="14.00" fill="#000000">phase</text>
</g>
<!-- phase&#45;&gt;continuum -->
<g id="edge14" class="edge">
<title>phase&#45;&gt;continuum</title>
<path fill="none" stroke="#000000" d="M1041.3774,-123.0197C1026.0174,-133.5258 1005.6876,-146.5294 986.4834,-156 978.2142,-160.078 961.1014,-166.5281 943.394,-172.8493"/>
<polygon fill="none" stroke="#000000" points="941.8083,-169.6976 933.5478,-176.3319 944.1426,-176.297 941.8083,-169.6976"/>
<text text-anchor="middle" x="1026.4834" y="-144.8" font-family="Times,serif" font-size="14.00" fill="#000000">is_a</text>
</g>
<!-- rve -->
<g id="node16" class="node">
<title>rve</title>
<polygon fill="#ffffe0" stroke="#000000" points="874.4834,-123 820.4834,-123 820.4834,-87 874.4834,-87 874.4834,-123"/>
<text text-anchor="middle" x="847.4834" y="-101.3" font-family="Bitstream Vera Sans" font-size="14.00" fill="#000000">rve</text>
</g>
<!-- rve&#45;&gt;continuum -->
<g id="edge15" class="edge">
<title>rve&#45;&gt;continuum</title>
<path fill="none" stroke="#000000" d="M855.7096,-123.4482C860.0611,-133.154 865.5175,-145.241 870.4834,-156 871.7741,-158.7966 873.1307,-161.7104 874.4909,-164.6158"/>
<polygon fill="none" stroke="#000000" points="871.348,-166.1571 878.7729,-173.7149 877.6817,-163.1764 871.348,-166.1571"/>
<text text-anchor="middle" x="884.4834" y="-144.8" font-family="Times,serif" font-size="14.00" fill="#000000">is_a</text>
</g>
<!-- boundary -->
<g id="node17" class="node">
<title>boundary</title>
<polygon fill="#ffffe0" stroke="#000000" points="1145.9834,-210 1060.9834,-210 1060.9834,-174 1145.9834,-174 1145.9834,-210"/>
<text text-anchor="middle" x="1103.4834" y="-188.3" font-family="Bitstream Vera Sans" font-size="14.00" fill="#000000">boundary</text>
</g>
<!-- boundary&#45;&gt;state -->
<g id="edge16" class="edge">
<title>boundary&#45;&gt;state</title>
<path fill="none" stroke="#000000" d="M1060.8334,-207.912C1032.5162,-218.303 994.4438,-231.943 960.4834,-243 932.1879,-252.2125 899.8784,-261.701 875.6202,-268.6224"/>
<polygon fill="none" stroke="#000000" points="874.4163,-265.3258 865.752,-271.4233 876.3277,-272.0598 874.4163,-265.3258"/>
<text text-anchor="middle" x="1018.4834" y="-231.8" font-family="Times,serif" font-size="14.00" fill="#000000">is_a</text>
</g>
</g>
</svg>
