<?xml version="1.0" encoding="UTF-8" standalone="no"?>
<!DOCTYPE svg PUBLIC "-//W3C//DTD SVG 1.1//EN"
 "http://www.w3.org/Graphics/SVG/1.1/DTD/svg11.dtd">
<!-- Generated by graphviz version 2.40.1 (0)
 -->
<!-- Title: G Pages: 1 -->
<svg width="1112pt" height="305pt"
 viewBox="0.00 0.00 1111.52 305.00" xmlns="http://www.w3.org/2000/svg" xmlns:xlink="http://www.w3.org/1999/xlink">
<g id="graph0" class="graph" transform="scale(1 1) rotate(0) translate(4 301)">
<title>G</title>
<polygon fill="#ffffff" stroke="transparent" points="-4,4 -4,-301 1107.5175,-301 1107.5175,4 -4,4"/>
<!-- state -->
<g id="node1" class="node">
<title>state</title>
<ellipse fill="#ffffe0" stroke="#000000" cx="701.3728" cy="-279" rx="34.394" ry="18"/>
<text text-anchor="middle" x="701.3728" y="-275.3" font-family="Bitstream Vera Sans" font-size="14.00" fill="#000000">state</text>
</g>
<!-- boundary -->
<g id="node2" class="node">
<title>boundary</title>
<ellipse fill="#ffffe0" stroke="#000000" cx="376.3728" cy="-192" rx="55.4913" ry="18"/>
<text text-anchor="middle" x="376.3728" y="-188.3" font-family="Bitstream Vera Sans" font-size="14.00" fill="#000000">boundary</text>
</g>
<!-- boundary&#45;&gt;state -->
<g id="edge1" class="edge">
<title>boundary&#45;&gt;state</title>
<path fill="none" stroke="#000000" d="M418.3466,-203.9069C425.6829,-205.9589 433.2462,-208.0559 440.3728,-210 518.1601,-231.2197 609.2641,-255.0793 660.6601,-268.4483"/>
<polygon fill="none" stroke="#000000" points="659.8352,-271.8502 670.3941,-270.9784 661.5962,-265.0753 659.8352,-271.8502"/>
<text text-anchor="middle" x="576.3728" y="-231.8" font-family="Times,serif" font-size="14.00" fill="#000000">is_a</text>
</g>
<!-- mesoscopic -->
<g id="node3" class="node">
<title>mesoscopic</title>
<ellipse fill="#ffffe0" stroke="#000000" cx="515.3728" cy="-192" rx="65.7887" ry="18"/>
<text text-anchor="middle" x="515.3728" y="-188.3" font-family="Bitstream Vera Sans" font-size="14.00" fill="#000000">mesoscopic</text>
</g>
<!-- mesoscopic&#45;&gt;state -->
<g id="edge2" class="edge">
<title>mesoscopic&#45;&gt;state</title>
<path fill="none" stroke="#000000" d="M548.6258,-207.5539C581.7222,-223.0344 632.3255,-246.7037 666.1096,-262.5059"/>
<polygon fill="none" stroke="#000000" points="665.0486,-265.8736 675.5897,-266.9402 668.0145,-259.5329 665.0486,-265.8736"/>
<text text-anchor="middle" x="634.3728" y="-231.8" font-family="Times,serif" font-size="14.00" fill="#000000">is_a</text>
</g>
<!-- crystal_unit_cell -->
<g id="node4" class="node">
<title>crystal_unit_cell</title>
<ellipse fill="#ffffe0" stroke="#000000" cx="359.3728" cy="-105" rx="84.485" ry="18"/>
<text text-anchor="middle" x="359.3728" y="-101.3" font-family="Bitstream Vera Sans" font-size="14.00" fill="#000000">crystal_unit_cell</text>
</g>
<!-- crystal_unit_cell&#45;&gt;mesoscopic -->
<g id="edge3" class="edge">
<title>crystal_unit_cell&#45;&gt;mesoscopic</title>
<path fill="none" stroke="#000000" d="M389.8215,-121.981C414.9157,-135.9758 450.6282,-155.8925 477.5534,-170.9084"/>
<polygon fill="none" stroke="#000000" points="475.8813,-173.9834 486.3197,-175.7973 479.2908,-167.8698 475.8813,-173.9834"/>
<text text-anchor="middle" x="461.3728" y="-144.8" font-family="Times,serif" font-size="14.00" fill="#000000">is_a</text>
</g>
<!-- e&#45;bonded_atom -->
<g id="node16" class="node">
<title>e&#45;bonded_atom</title>
<ellipse fill="#ffffe0" stroke="#000000" cx="427.3728" cy="-18" rx="84.485" ry="18"/>
<text text-anchor="middle" x="427.3728" y="-14.3" font-family="Bitstream Vera Sans" font-size="14.00" fill="#000000">e&#45;bonded_atom</text>
</g>
<!-- crystal_unit_cell&#45;&gt;e&#45;bonded_atom -->
<g id="edge17" class="edge">
<title>crystal_unit_cell&#45;&gt;e&#45;bonded_atom</title>
<path fill="none" stroke="#0000ff" d="M275.7582,-102.3338C176.2817,-98.2824 21.3116,-88.8444 3.3728,-69 -1.0978,-64.0545 -1.1375,-58.9094 3.3728,-54 25.1963,-30.245 214.606,-22.1469 332.7675,-19.399"/>
<polygon fill="#0000ff" stroke="#0000ff" points="332.9925,-22.895 342.9117,-19.1722 332.836,-15.8967 332.9925,-22.895"/>
<text text-anchor="middle" x="115.3728" y="-57.8" font-family="Times,serif" font-size="14.00" fill="#000000">has_spatial_direct_part some &#160;&#160;</text>
</g>
<!-- molecule -->
<g id="node5" class="node">
<title>molecule</title>
<ellipse fill="#ffffe0" stroke="#000000" cx="515.3728" cy="-105" rx="53.0913" ry="18"/>
<text text-anchor="middle" x="515.3728" y="-101.3" font-family="Bitstream Vera Sans" font-size="14.00" fill="#000000">molecule</text>
</g>
<!-- molecule&#45;&gt;mesoscopic -->
<g id="edge4" class="edge">
<title>molecule&#45;&gt;mesoscopic</title>
<path fill="none" stroke="#000000" d="M515.3728,-123.0265C515.3728,-134.8082 515.3728,-150.4393 515.3728,-163.8419"/>
<polygon fill="none" stroke="#000000" points="511.8729,-163.9966 515.3728,-173.9966 518.8729,-163.9967 511.8729,-163.9966"/>
<text text-anchor="middle" x="529.3728" y="-144.8" font-family="Times,serif" font-size="14.00" fill="#000000">is_a</text>
</g>
<!-- molecule&#45;&gt;e&#45;bonded_atom -->
<g id="edge18" class="edge">
<title>molecule&#45;&gt;e&#45;bonded_atom</title>
<path fill="none" stroke="#0000ff" d="M476.3263,-92.6036C468.4594,-90.4581 460.2016,-88.4536 452.3728,-87 430.2181,-82.8864 265.5827,-85.6256 250.3728,-69 245.8728,-64.0812 246.1546,-59.1625 250.3728,-54 261.984,-39.7894 299.9754,-31.0479 337.7983,-25.745"/>
<polygon fill="#0000ff" stroke="#0000ff" points="338.4616,-29.1877 347.9151,-24.4042 337.5419,-22.2484 338.4616,-29.1877"/>
<text text-anchor="middle" x="363.8728" y="-57.8" font-family="Times,serif" font-size="14.00" fill="#000000">has_spatial_direct_part min 2 &#160;&#160;</text>
</g>
<!-- continuum -->
<g id="node6" class="node">
<title>continuum</title>
<ellipse fill="#ffffe0" stroke="#000000" cx="761.3728" cy="-192" rx="59.5901" ry="18"/>
<text text-anchor="middle" x="761.3728" y="-188.3" font-family="Bitstream Vera Sans" font-size="14.00" fill="#000000">continuum</text>
</g>
<!-- continuum&#45;&gt;state -->
<g id="edge5" class="edge">
<title>continuum&#45;&gt;state</title>
<path fill="none" stroke="#000000" d="M748.9407,-210.0265C740.2426,-222.6388 728.5022,-239.6623 718.8617,-253.641"/>
<polygon fill="none" stroke="#000000" points="715.9726,-251.6654 713.1765,-261.8846 721.7351,-255.6395 715.9726,-251.6654"/>
<text text-anchor="middle" x="749.3728" y="-231.8" font-family="Times,serif" font-size="14.00" fill="#000000">is_a</text>
</g>
<!-- phase -->
<g id="node7" class="node">
<title>phase</title>
<ellipse fill="#ffffe0" stroke="#000000" cx="796.3728" cy="-105" rx="38.9931" ry="18"/>
<text text-anchor="middle" x="796.3728" y="-101.3" font-family="Bitstream Vera Sans" font-size="14.00" fill="#000000">phase</text>
</g>
<!-- phase&#45;&gt;continuum -->
<g id="edge6" class="edge">
<title>phase&#45;&gt;continuum</title>
<path fill="none" stroke="#000000" d="M789.1207,-123.0265C784.2871,-135.0415 777.8429,-151.0599 772.3815,-164.6354"/>
<polygon fill="none" stroke="#000000" points="769.1008,-163.4129 768.6155,-173.9966 775.5949,-166.0256 769.1008,-163.4129"/>
<text text-anchor="middle" x="795.3728" y="-144.8" font-family="Times,serif" font-size="14.00" fill="#000000">is_a</text>
</g>
<!-- rve -->
<g id="node8" class="node">
<title>rve</title>
<ellipse fill="#ffffe0" stroke="#000000" cx="880.3728" cy="-105" rx="27" ry="18"/>
<text text-anchor="middle" x="880.3728" y="-101.3" font-family="Bitstream Vera Sans" font-size="14.00" fill="#000000">rve</text>
</g>
<!-- rve&#45;&gt;continuum -->
<g id="edge7" class="edge">
<title>rve&#45;&gt;continuum</title>
<path fill="none" stroke="#000000" d="M862.6215,-118.8583C849.2112,-129.2427 830.2876,-143.7167 813.3728,-156 807.2646,-160.4357 800.6869,-165.0853 794.3323,-169.514"/>
<polygon fill="none" stroke="#000000" points="792.0979,-166.8041 785.8704,-175.3755 796.0838,-172.5584 792.0979,-166.8041"/>
<text text-anchor="middle" x="845.3728" y="-144.8" font-family="Times,serif" font-size="14.00" fill="#000000">is_a</text>
</g>
<!-- solid -->
<g id="node9" class="node">
<title>solid</title>
<ellipse fill="#ffffe0" stroke="#000000" cx="707.3728" cy="-105" rx="32.4942" ry="18"/>
<text text-anchor="middle" x="707.3728" y="-101.3" font-family="Bitstream Vera Sans" font-size="14.00" fill="#000000">solid</text>
</g>
<!-- solid&#45;&gt;continuum -->
<g id="edge8" class="edge">
<title>solid&#45;&gt;continuum</title>
<path fill="none" stroke="#000000" d="M718.0414,-122.1884C725.7064,-134.5376 736.1842,-151.4184 744.9164,-165.487"/>
<polygon fill="none" stroke="#000000" points="742.1081,-167.5994 750.3555,-174.25 748.0556,-163.9078 742.1081,-167.5994"/>
<text text-anchor="middle" x="752.3728" y="-144.8" font-family="Times,serif" font-size="14.00" fill="#000000">is_a</text>
</g>
<!-- crystal -->
<g id="node10" class="node">
<title>crystal</title>
<ellipse fill="#ffffe0" stroke="#000000" cx="912.3728" cy="-18" rx="41.6928" ry="18"/>
<text text-anchor="middle" x="912.3728" y="-14.3" font-family="Bitstream Vera Sans" font-size="14.00" fill="#000000">crystal</text>
</g>
<!-- crystal&#45;&gt;crystal_unit_cell -->
<g id="edge19" class="edge">
<title>crystal&#45;&gt;crystal_unit_cell</title>
<path fill="none" stroke="#0000ff" d="M871.1468,-21.5189C811.6084,-27.0373 704.8059,-38.6971 669.3728,-54 659.4957,-58.2657 660.3653,-65.0123 650.3728,-69 568.7147,-101.5872 540.4309,-74.7176 453.3728,-87 445.7954,-88.069 437.9021,-89.336 430.0518,-90.6951"/>
<polygon fill="#0000ff" stroke="#0000ff" points="429.3892,-87.2579 420.1582,-92.4578 430.6171,-94.1494 429.3892,-87.2579"/>
<text text-anchor="middle" x="777.8728" y="-57.8" font-family="Times,serif" font-size="14.00" fill="#000000">has_spatial_direct_part only &#160;&#160;</text>
</g>
<!-- crystal&#45;&gt;solid -->
<g id="edge9" class="edge">
<title>crystal&#45;&gt;solid</title>
<path fill="none" stroke="#000000" d="M909.2471,-36.1663C906.3258,-47.4209 900.7768,-61.1756 890.3728,-69 864.9514,-88.1182 779.0294,-78.5192 748.3728,-87 745.9471,-87.671 743.4792,-88.4602 741.0186,-89.327"/>
<polygon fill="none" stroke="#000000" points="739.717,-86.0778 731.6689,-92.9682 742.2573,-92.6005 739.717,-86.0778"/>
<text text-anchor="middle" x="916.3728" y="-57.8" font-family="Times,serif" font-size="14.00" fill="#000000">is_a</text>
</g>
<!-- fluid -->
<g id="node11" class="node">
<title>fluid</title>
<ellipse fill="#ffffe0" stroke="#000000" cx="956.3728" cy="-105" rx="30.5947" ry="18"/>
<text text-anchor="middle" x="956.3728" y="-101.3" font-family="Bitstream Vera Sans" font-size="14.00" fill="#000000">fluid</text>
</g>
<!-- fluid&#45;&gt;continuum -->
<g id="edge10" class="edge">
<title>fluid&#45;&gt;continuum</title>
<path fill="none" stroke="#000000" d="M935.0819,-117.9731C916.5516,-128.9463 888.7566,-144.6506 863.3728,-156 847.3303,-163.1727 829.387,-169.9119 813.0761,-175.5761"/>
<polygon fill="none" stroke="#000000" points="811.497,-172.4167 803.1628,-178.9582 813.7573,-179.0418 811.497,-172.4167"/>
<text text-anchor="middle" x="905.3728" y="-144.8" font-family="Times,serif" font-size="14.00" fill="#000000">is_a</text>
</g>
<!-- elementary -->
<g id="node12" class="node">
<title>elementary</title>
<ellipse fill="#ffffe0" stroke="#000000" cx="903.3728" cy="-192" rx="64.189" ry="18"/>
<text text-anchor="middle" x="903.3728" y="-188.3" font-family="Bitstream Vera Sans" font-size="14.00" fill="#000000">elementary</text>
</g>
<!-- elementary&#45;&gt;state -->
<g id="edge11" class="edge">
<title>elementary&#45;&gt;state</title>
<path fill="none" stroke="#000000" d="M868.1871,-207.1542C831.5586,-222.9299 774.4754,-247.5152 737.5007,-263.4399"/>
<polygon fill="none" stroke="#000000" points="735.899,-260.3189 728.0991,-267.4892 738.668,-266.748 735.899,-260.3189"/>
<text text-anchor="middle" x="828.3728" y="-231.8" font-family="Times,serif" font-size="14.00" fill="#000000">is_a</text>
</g>
<!-- subatomic -->
<g id="node13" class="node">
<title>subatomic</title>
<ellipse fill="#ffffe0" stroke="#000000" cx="1044.3728" cy="-192" rx="59.2899" ry="18"/>
<text text-anchor="middle" x="1044.3728" y="-188.3" font-family="Bitstream Vera Sans" font-size="14.00" fill="#000000">subatomic</text>
</g>
<!-- subatomic&#45;&gt;state -->
<g id="edge12" class="edge">
<title>subatomic&#45;&gt;state</title>
<path fill="none" stroke="#000000" d="M999.7648,-203.8774C991.9712,-205.9327 983.9384,-208.0385 976.3728,-210 893.5619,-231.4703 796.4423,-255.5908 742.6106,-268.8672"/>
<polygon fill="none" stroke="#000000" points="741.6293,-265.5042 732.7573,-271.2954 743.3043,-272.3009 741.6293,-265.5042"/>
<text text-anchor="middle" x="914.3728" y="-231.8" font-family="Times,serif" font-size="14.00" fill="#000000">is_a</text>
</g>
<!-- atomic -->
<g id="node14" class="node">
<title>atomic</title>
<ellipse fill="#ffffe0" stroke="#000000" cx="641.3728" cy="-192" rx="42.4939" ry="18"/>
<text text-anchor="middle" x="641.3728" y="-188.3" font-family="Bitstream Vera Sans" font-size="14.00" fill="#000000">atomic</text>
</g>
<!-- atomic&#45;&gt;state -->
<g id="edge13" class="edge">
<title>atomic&#45;&gt;state</title>
<path fill="none" stroke="#000000" d="M653.5147,-209.6057C662.2487,-222.27 674.1577,-239.5381 683.9108,-253.6802"/>
<polygon fill="none" stroke="#000000" points="681.0986,-255.7675 689.6573,-262.0125 686.8612,-251.7933 681.0986,-255.7675"/>
<text text-anchor="middle" x="689.3728" y="-231.8" font-family="Times,serif" font-size="14.00" fill="#000000">is_a</text>
</g>
<!-- atom -->
<g id="node15" class="node">
<title>atom</title>
<ellipse fill="#ffffe0" stroke="#000000" cx="621.3728" cy="-105" rx="35.194" ry="18"/>
<text text-anchor="middle" x="621.3728" y="-101.3" font-family="Bitstream Vera Sans" font-size="14.00" fill="#000000">atom</text>
</g>
<!-- atom&#45;&gt;atomic -->
<g id="edge14" class="edge">
<title>atom&#45;&gt;atomic</title>
<path fill="none" stroke="#000000" d="M625.5168,-123.0265C628.2521,-134.9249 631.8898,-150.7492 634.991,-164.2394"/>
<polygon fill="none" stroke="#000000" points="631.5825,-165.035 637.2341,-173.9966 638.4046,-163.4667 631.5825,-165.035"/>
<text text-anchor="middle" x="647.3728" y="-144.8" font-family="Times,serif" font-size="14.00" fill="#000000">is_a</text>
</g>
<!-- e&#45;bonded_atom&#45;&gt;atom -->
<g id="edge15" class="edge">
<title>e&#45;bonded_atom&#45;&gt;atom</title>
<path fill="none" stroke="#000000" d="M463.8627,-34.364C498.6763,-49.9763 550.804,-73.3532 585.4336,-88.8829"/>
<polygon fill="none" stroke="#000000" points="584.1513,-92.1437 594.708,-93.0421 587.0157,-85.7565 584.1513,-92.1437"/>
<text text-anchor="middle" x="550.3728" y="-57.8" font-family="Times,serif" font-size="14.00" fill="#000000">is_a</text>
</g>
<!-- standalone_atom -->
<g id="node17" class="node">
<title>standalone_atom</title>
<ellipse fill="#ffffe0" stroke="#000000" cx="621.3728" cy="-18" rx="91.784" ry="18"/>
<text text-anchor="middle" x="621.3728" y="-14.3" font-family="Bitstream Vera Sans" font-size="14.00" fill="#000000">standalone_atom</text>
</g>
<!-- standalone_atom&#45;&gt;atom -->
<g id="edge16" class="edge">
<title>standalone_atom&#45;&gt;atom</title>
<path fill="none" stroke="#000000" d="M621.3728,-36.0265C621.3728,-47.8082 621.3728,-63.4393 621.3728,-76.8419"/>
<polygon fill="none" stroke="#000000" points="617.8729,-76.9966 621.3728,-86.9966 624.8729,-76.9967 617.8729,-76.9966"/>
<text text-anchor="middle" x="635.3728" y="-57.8" font-family="Times,serif" font-size="14.00" fill="#000000">is_a</text>
</g>
</g>
</svg>
