<?xml version="1.0" encoding="UTF-8" standalone="no"?>
<!DOCTYPE svg PUBLIC "-//W3C//DTD SVG 1.1//EN"
 "http://www.w3.org/Graphics/SVG/1.1/DTD/svg11.dtd">
<!-- Generated by graphviz version 2.40.1 (0)
 -->
<!-- Title: G Pages: 1 -->
<svg width="2431pt" height="413pt"
 viewBox="0.00 0.00 2431.12 413.00" xmlns="http://www.w3.org/2000/svg" xmlns:xlink="http://www.w3.org/1999/xlink">
<g id="graph0" class="graph" transform="scale(1 1) rotate(0) translate(4 409)">
<title>G</title>
<polygon fill="#ffffff" stroke="transparent" points="-4,4 -4,-409 2427.1151,-409 2427.1151,4 -4,4"/>
<!-- physical_quantity -->
<g id="node1" class="node">
<title>physical_quantity</title>
<polygon fill="#ffffe0" stroke="#000000" points="1590.1151,-405 1450.1151,-405 1450.1151,-369 1590.1151,-369 1590.1151,-405"/>
<text text-anchor="middle" x="1520.1151" y="-383.3" font-family="Bitstream Vera Sans" font-size="14.00" fill="#000000">physical_quantity</text>
</g>
<!-- position -->
<g id="node2" class="node">
<title>position</title>
<polygon fill="#ffffe0" stroke="#000000" points="1859.6151,-318 1786.6151,-318 1786.6151,-282 1859.6151,-282 1859.6151,-318"/>
<text text-anchor="middle" x="1823.1151" y="-296.3" font-family="Bitstream Vera Sans" font-size="14.00" fill="#000000">position</text>
</g>
<!-- position&#45;&gt;physical_quantity -->
<g id="edge1" class="edge">
<title>position&#45;&gt;physical_quantity</title>
<path fill="none" stroke="#000000" d="M1786.295,-314.7771C1783.5287,-315.8723 1780.7788,-316.9563 1778.1151,-318 1739.9974,-332.936 1731.3876,-339.4361 1692.1151,-351 1662.5326,-359.7106 1629.4954,-367.1551 1600.3438,-372.9753"/>
<polygon fill="none" stroke="#000000" points="1599.3449,-369.6045 1590.2066,-374.9656 1600.6936,-376.4734 1599.3449,-369.6045"/>
<text text-anchor="middle" x="1748.1151" y="-339.8" font-family="Times,serif" font-size="14.00" fill="#000000">is_a</text>
</g>
<!-- area -->
<g id="node3" class="node">
<title>area</title>
<polygon fill="#ffffe0" stroke="#000000" points="528.1151,-264 474.1151,-264 474.1151,-228 528.1151,-228 528.1151,-264"/>
<text text-anchor="middle" x="501.1151" y="-242.3" font-family="Bitstream Vera Sans" font-size="14.00" fill="#000000">area</text>
</g>
<!-- area&#45;&gt;physical_quantity -->
<g id="edge2" class="edge">
<title>area&#45;&gt;physical_quantity</title>
<path fill="none" stroke="#000000" d="M528.4065,-262.148C529.9762,-262.8254 531.5519,-263.4496 533.1151,-264 671.2299,-312.6263 713.355,-295.9841 858.1151,-318 964.1261,-334.1227 990.5457,-339.1161 1097.1151,-351 1216.2463,-364.2847 1354.7369,-375.2198 1439.9055,-381.4289"/>
<polygon fill="none" stroke="#000000" points="1439.7957,-384.93 1450.0227,-382.1625 1440.302,-377.9483 1439.7957,-384.93"/>
<text text-anchor="middle" x="872.1151" y="-296.3" font-family="Times,serif" font-size="14.00" fill="#000000">is_a</text>
</g>
<!-- mass -->
<g id="node4" class="node">
<title>mass</title>
<polygon fill="#ffffe0" stroke="#000000" points="1768.6151,-318 1713.6151,-318 1713.6151,-282 1768.6151,-282 1768.6151,-318"/>
<text text-anchor="middle" x="1741.1151" y="-296.3" font-family="Bitstream Vera Sans" font-size="14.00" fill="#000000">mass</text>
</g>
<!-- mass&#45;&gt;physical_quantity -->
<g id="edge3" class="edge">
<title>mass&#45;&gt;physical_quantity</title>
<path fill="none" stroke="#000000" d="M1713.346,-314.2512C1710.5835,-315.5582 1707.8064,-316.8293 1705.1151,-318 1664.862,-335.5106 1618.5888,-352.7681 1582.3906,-365.6442"/>
<polygon fill="none" stroke="#000000" points="1581.1991,-362.3531 1572.9392,-368.9882 1583.534,-368.9522 1581.1991,-362.3531"/>
<text text-anchor="middle" x="1674.1151" y="-339.8" font-family="Times,serif" font-size="14.00" fill="#000000">is_a</text>
</g>
<!-- measured_volume -->
<g id="node5" class="node">
<title>measured_volume</title>
<polygon fill="#ffffe0" stroke="#000000" points="2028.1151,-318 1878.1151,-318 1878.1151,-282 2028.1151,-282 2028.1151,-318"/>
<text text-anchor="middle" x="1953.1151" y="-296.3" font-family="Bitstream Vera Sans" font-size="14.00" fill="#000000">measured_volume</text>
</g>
<!-- measured_volume&#45;&gt;physical_quantity -->
<g id="edge4" class="edge">
<title>measured_volume&#45;&gt;physical_quantity</title>
<path fill="none" stroke="#000000" d="M1894.1848,-318.0387C1857.5897,-328.7485 1809.4326,-341.9581 1766.1151,-351 1711.1856,-362.4658 1648.6054,-371.5702 1600.3104,-377.7548"/>
<polygon fill="none" stroke="#000000" points="1599.7112,-374.3026 1590.2295,-379.03 1600.5897,-381.2472 1599.7112,-374.3026"/>
<text text-anchor="middle" x="1842.1151" y="-339.8" font-family="Times,serif" font-size="14.00" fill="#000000">is_a</text>
</g>
<!-- orientation -->
<g id="node6" class="node">
<title>orientation</title>
<polygon fill="#ffffe0" stroke="#000000" points="2141.6151,-318 2046.6151,-318 2046.6151,-282 2141.6151,-282 2141.6151,-318"/>
<text text-anchor="middle" x="2094.1151" y="-296.3" font-family="Bitstream Vera Sans" font-size="14.00" fill="#000000">orientation</text>
</g>
<!-- orientation&#45;&gt;physical_quantity -->
<g id="edge5" class="edge">
<title>orientation&#45;&gt;physical_quantity</title>
<path fill="none" stroke="#000000" d="M2046.3415,-315.5501C2043.2305,-316.419 2040.1354,-317.2446 2037.1151,-318 1885.3626,-355.958 1702.9987,-374.1073 1600.4364,-381.8974"/>
<polygon fill="none" stroke="#000000" points="1600.172,-378.4073 1590.4601,-382.6415 1600.6928,-385.3879 1600.172,-378.4073"/>
<text text-anchor="middle" x="1967.1151" y="-339.8" font-family="Times,serif" font-size="14.00" fill="#000000">is_a</text>
</g>
<!-- density -->
<g id="node7" class="node">
<title>density</title>
<polygon fill="#ffffe0" stroke="#000000" points="826.1151,-210 758.1151,-210 758.1151,-174 826.1151,-174 826.1151,-210"/>
<text text-anchor="middle" x="792.1151" y="-188.3" font-family="Bitstream Vera Sans" font-size="14.00" fill="#000000">density</text>
</g>
<!-- density&#45;&gt;physical_quantity -->
<g id="edge6" class="edge">
<title>density&#45;&gt;physical_quantity</title>
<path fill="none" stroke="#000000" d="M826.3134,-193.6823C901.8574,-197.7012 1080.7984,-208.9687 1138.1151,-228 1212.2622,-252.6195 1218.4038,-284.7765 1289.1151,-318 1328.8103,-336.6507 1340.1909,-338.1194 1382.1151,-351 1400.7585,-356.7279 1420.9942,-362.3392 1440.0772,-367.3634"/>
<polygon fill="none" stroke="#000000" points="1439.3772,-370.7979 1449.9368,-369.9348 1441.1437,-364.0244 1439.3772,-370.7979"/>
<text text-anchor="middle" x="1303.1151" y="-296.3" font-family="Times,serif" font-size="14.00" fill="#000000">is_a</text>
</g>
<!-- energy_per_area -->
<g id="node8" class="node">
<title>energy_per_area</title>
<polygon fill="#ffffe0" stroke="#000000" points="1034.6151,-318 895.6151,-318 895.6151,-282 1034.6151,-282 1034.6151,-318"/>
<text text-anchor="middle" x="965.1151" y="-296.3" font-family="Bitstream Vera Sans" font-size="14.00" fill="#000000">energy_per_area</text>
</g>
<!-- energy_per_area&#45;&gt;physical_quantity -->
<g id="edge7" class="edge">
<title>energy_per_area&#45;&gt;physical_quantity</title>
<path fill="none" stroke="#000000" d="M1027.2564,-318.0874C1067.1843,-329.0919 1120.3363,-342.6002 1168.1151,-351 1260.5249,-367.2462 1367.9672,-376.9213 1439.6089,-382.0832"/>
<polygon fill="none" stroke="#000000" points="1439.6911,-385.5977 1449.9132,-382.8123 1440.1852,-378.6152 1439.6911,-385.5977"/>
<text text-anchor="middle" x="1182.1151" y="-339.8" font-family="Times,serif" font-size="14.00" fill="#000000">is_a</text>
</g>
<!-- work_of_separation -->
<g id="node9" class="node">
<title>work_of_separation</title>
<polygon fill="#ffffe0" stroke="#000000" points="349.1151,-210 191.1151,-210 191.1151,-174 349.1151,-174 349.1151,-210"/>
<text text-anchor="middle" x="270.1151" y="-188.3" font-family="Bitstream Vera Sans" font-size="14.00" fill="#000000">work_of_separation</text>
</g>
<!-- work_of_separation&#45;&gt;energy_per_area -->
<g id="edge8" class="edge">
<title>work_of_separation&#45;&gt;energy_per_area</title>
<path fill="none" stroke="#000000" d="M349.3641,-201.9964C402.5344,-208.8725 474.105,-218.4548 537.1151,-228 658.941,-246.455 799.7654,-270.711 885.6084,-285.8268"/>
<polygon fill="none" stroke="#000000" points="885.086,-289.2886 895.5419,-287.5784 886.3016,-282.395 885.086,-289.2886"/>
<text text-anchor="middle" x="774.1151" y="-242.3" font-family="Times,serif" font-size="14.00" fill="#000000">is_a</text>
</g>
<!-- pressure -->
<g id="node10" class="node">
<title>pressure</title>
<polygon fill="#ffffe0" stroke="#000000" points="1406.1151,-318 1326.1151,-318 1326.1151,-282 1406.1151,-282 1406.1151,-318"/>
<text text-anchor="middle" x="1366.1151" y="-296.3" font-family="Bitstream Vera Sans" font-size="14.00" fill="#000000">pressure</text>
</g>
<!-- pressure&#45;&gt;physical_quantity -->
<g id="edge9" class="edge">
<title>pressure&#45;&gt;physical_quantity</title>
<path fill="none" stroke="#000000" d="M1374.3714,-318.4235C1380.1376,-329.3456 1388.8243,-342.6438 1400.1151,-351 1411.9765,-359.7784 1425.9789,-366.4324 1440.1546,-371.4714"/>
<polygon fill="none" stroke="#000000" points="1439.3788,-374.9009 1449.9719,-374.7082 1441.5707,-368.2529 1439.3788,-374.9009"/>
<text text-anchor="middle" x="1414.1151" y="-339.8" font-family="Times,serif" font-size="14.00" fill="#000000">is_a</text>
</g>
<!-- stiffness_tensor -->
<g id="node11" class="node">
<title>stiffness_tensor</title>
<polygon fill="#ffffe0" stroke="#000000" points="1600.6151,-210 1471.6151,-210 1471.6151,-174 1600.6151,-174 1600.6151,-210"/>
<text text-anchor="middle" x="1536.1151" y="-188.3" font-family="Bitstream Vera Sans" font-size="14.00" fill="#000000">stiffness_tensor</text>
</g>
<!-- stiffness_tensor&#45;&gt;pressure -->
<g id="edge10" class="edge">
<title>stiffness_tensor&#45;&gt;pressure</title>
<path fill="none" stroke="#000000" d="M1502.0265,-210.0826C1491.9579,-215.6366 1480.992,-221.8977 1471.1151,-228 1446.5997,-243.1466 1419.8214,-261.5397 1399.4436,-275.9441"/>
<polygon fill="none" stroke="#000000" points="1397.2525,-273.2073 1391.1273,-281.8521 1401.3066,-278.9139 1397.2525,-273.2073"/>
<text text-anchor="middle" x="1485.1151" y="-242.3" font-family="Times,serif" font-size="14.00" fill="#000000">is_a</text>
</g>
<!-- traction_separation -->
<g id="node12" class="node">
<title>traction_separation</title>
<polygon fill="#ffffe0" stroke="#000000" points="603.6151,-210 448.6151,-210 448.6151,-174 603.6151,-174 603.6151,-210"/>
<text text-anchor="middle" x="526.1151" y="-188.3" font-family="Bitstream Vera Sans" font-size="14.00" fill="#000000">traction_separation</text>
</g>
<!-- traction_separation&#45;&gt;pressure -->
<g id="edge11" class="edge">
<title>traction_separation&#45;&gt;pressure</title>
<path fill="none" stroke="#000000" d="M603.7877,-201.2701C735.2867,-217.0748 1010.1088,-250.5823 1242.1151,-282 1266.4169,-285.2909 1293.3618,-289.174 1315.9093,-292.4896"/>
<polygon fill="none" stroke="#000000" points="1315.5304,-295.9715 1325.9342,-293.9688 1316.5523,-289.0465 1315.5304,-295.9715"/>
<text text-anchor="middle" x="1120.1151" y="-242.3" font-family="Times,serif" font-size="14.00" fill="#000000">is_a</text>
</g>
<!-- atomic_number -->
<g id="node13" class="node">
<title>atomic_number</title>
<polygon fill="#ffffe0" stroke="#000000" points="1695.6151,-318 1566.6151,-318 1566.6151,-282 1695.6151,-282 1695.6151,-318"/>
<text text-anchor="middle" x="1631.1151" y="-296.3" font-family="Bitstream Vera Sans" font-size="14.00" fill="#000000">atomic_number</text>
</g>
<!-- atomic_number&#45;&gt;physical_quantity -->
<g id="edge12" class="edge">
<title>atomic_number&#45;&gt;physical_quantity</title>
<path fill="none" stroke="#000000" d="M1608.1159,-318.0265C1591.5957,-330.9747 1569.1435,-348.5724 1551.053,-362.7515"/>
<polygon fill="none" stroke="#000000" points="1548.7964,-360.0731 1543.085,-368.9966 1553.1146,-365.5825 1548.7964,-360.0731"/>
<text text-anchor="middle" x="1597.1151" y="-339.8" font-family="Times,serif" font-size="14.00" fill="#000000">is_a</text>
</g>
<!-- lattice_vector -->
<g id="node14" class="node">
<title>lattice_vector</title>
<polygon fill="#ffffe0" stroke="#000000" points="1621.6151,-264 1508.6151,-264 1508.6151,-228 1621.6151,-228 1621.6151,-264"/>
<text text-anchor="middle" x="1565.1151" y="-242.3" font-family="Bitstream Vera Sans" font-size="14.00" fill="#000000">lattice_vector</text>
</g>
<!-- lattice_vector&#45;&gt;physical_quantity -->
<g id="edge13" class="edge">
<title>lattice_vector&#45;&gt;physical_quantity</title>
<path fill="none" stroke="#000000" d="M1542.0669,-264.1778C1536.9647,-269.3733 1532.1724,-275.4285 1529.1151,-282 1517.8402,-306.2349 1516.5029,-337.0049 1517.4328,-358.9585"/>
<polygon fill="none" stroke="#000000" points="1513.9403,-359.1898 1518.0379,-368.9602 1520.9276,-358.767 1513.9403,-359.1898"/>
<text text-anchor="middle" x="1543.1151" y="-296.3" font-family="Times,serif" font-size="14.00" fill="#000000">is_a</text>
</g>
<!-- plasticity -->
<g id="node15" class="node">
<title>plasticity</title>
<polygon fill="#ffffe0" stroke="#000000" points="1234.1151,-210 1154.1151,-210 1154.1151,-174 1234.1151,-174 1234.1151,-210"/>
<text text-anchor="middle" x="1194.1151" y="-188.3" font-family="Bitstream Vera Sans" font-size="14.00" fill="#000000">plasticity</text>
</g>
<!-- plasticity&#45;&gt;physical_quantity -->
<g id="edge14" class="edge">
<title>plasticity&#45;&gt;physical_quantity</title>
<path fill="none" stroke="#000000" d="M1234.3621,-203.0709C1280.5328,-216.9348 1357.3036,-243.6206 1415.1151,-282 1448.353,-304.0657 1479.7759,-337.8237 1499.432,-361.0744"/>
<polygon fill="none" stroke="#000000" points="1496.792,-363.3737 1505.8776,-368.8239 1502.1738,-358.8975 1496.792,-363.3737"/>
<text text-anchor="middle" x="1473.1151" y="-296.3" font-family="Times,serif" font-size="14.00" fill="#000000">is_a</text>
</g>
<!-- e&#45;bonded_atom -->
<g id="node16" class="node">
<title>e&#45;bonded_atom</title>
<polygon fill="#ffffe0" stroke="#000000" points="2156.1151,-210 2026.1151,-210 2026.1151,-174 2156.1151,-174 2156.1151,-210"/>
<text text-anchor="middle" x="2091.1151" y="-188.3" font-family="Bitstream Vera Sans" font-size="14.00" fill="#000000">e&#45;bonded_atom</text>
</g>
<!-- e&#45;bonded_atom&#45;&gt;position -->
<g id="edge17" class="edge">
<title>e&#45;bonded_atom&#45;&gt;position</title>
<path fill="none" stroke="#0000ff" d="M2066.7265,-210.222C2060.3102,-215.5852 2053.6435,-221.7114 2048.1151,-228 2035.5792,-242.2599 2041.2161,-253.9375 2025.1151,-264 1968.5883,-299.3273 1939.5164,-268.217 1869.8559,-282.3898"/>
<polygon fill="#0000ff" stroke="#0000ff" points="1868.7177,-279.0597 1859.7501,-284.7018 1870.2788,-285.8834 1868.7177,-279.0597"/>
<text text-anchor="middle" x="2137.1151" y="-242.3" font-family="Times,serif" font-size="14.00" fill="#000000">has_property exactly 1 &#160;&#160;</text>
</g>
<!-- e&#45;bonded_atom&#45;&gt;mass -->
<g id="edge16" class="edge">
<title>e&#45;bonded_atom&#45;&gt;mass</title>
<path fill="none" stroke="#0000ff" d="M2025.7082,-207.5277C2021.1198,-208.4244 2016.5553,-209.2603 2012.1151,-210 1974.8605,-216.2059 1874.3791,-206.8107 1843.1151,-228 1828.1391,-238.1502 1837.6077,-251.9476 1824.1151,-264 1807.7422,-278.6254 1798.2242,-273.1909 1778.1151,-282 1778.0211,-282.0412 1777.9269,-282.0825 1777.8326,-282.1239"/>
<polygon fill="#0000ff" stroke="#0000ff" points="1776.5363,-278.8684 1768.8845,-286.1964 1779.436,-285.2396 1776.5363,-278.8684"/>
<text text-anchor="middle" x="1932.1151" y="-242.3" font-family="Times,serif" font-size="14.00" fill="#000000">has_property exactly 1 &#160;&#160;</text>
</g>
<!-- e&#45;bonded_atom&#45;&gt;atomic_number -->
<g id="edge15" class="edge">
<title>e&#45;bonded_atom&#45;&gt;atomic_number</title>
<path fill="none" stroke="#0000ff" d="M2025.7529,-207.8215C2021.1538,-208.6482 2016.5748,-209.3883 2012.1151,-210 1971.3372,-215.5934 1672.679,-200.4324 1642.1151,-228 1630.1373,-238.8036 1627.3651,-256.7177 1627.5984,-271.9736"/>
<polygon fill="#0000ff" stroke="#0000ff" points="1624.1058,-272.2039 1628.1639,-281.9907 1631.0946,-271.8093 1624.1058,-272.2039"/>
<text text-anchor="middle" x="1731.1151" y="-242.3" font-family="Times,serif" font-size="14.00" fill="#000000">has_property exactly 1 &#160;&#160;</text>
</g>
<!-- crystal_unit_cell -->
<g id="node17" class="node">
<title>crystal_unit_cell</title>
<polygon fill="#ffffe0" stroke="#000000" points="2063.1151,-123 1933.1151,-123 1933.1151,-87 2063.1151,-87 2063.1151,-123"/>
<text text-anchor="middle" x="1998.1151" y="-101.3" font-family="Bitstream Vera Sans" font-size="14.00" fill="#000000">crystal_unit_cell</text>
</g>
<!-- crystal_unit_cell&#45;&gt;stiffness_tensor -->
<g id="edge20" class="edge">
<title>crystal_unit_cell&#45;&gt;stiffness_tensor</title>
<path fill="none" stroke="#0000ff" d="M1932.9737,-113.394C1893.5077,-119.2989 1842.4005,-128.408 1798.1151,-141 1780.6504,-145.9659 1777.6257,-151.198 1760.1151,-156 1711.131,-169.4332 1654.6577,-178.4678 1610.6697,-184.1266"/>
<polygon fill="#0000ff" stroke="#0000ff" points="1610.1129,-180.6689 1600.6271,-185.388 1610.9854,-187.6144 1610.1129,-180.6689"/>
<text text-anchor="middle" x="1887.1151" y="-144.8" font-family="Times,serif" font-size="14.00" fill="#000000">has_property exactly 1 &#160;&#160;</text>
</g>
<!-- crystal_unit_cell&#45;&gt;lattice_vector -->
<g id="edge19" class="edge">
<title>crystal_unit_cell&#45;&gt;lattice_vector</title>
<path fill="none" stroke="#0000ff" d="M1994.7174,-123.1525C1991.6965,-134.2546 1986.1386,-147.8457 1976.1151,-156 1855.2361,-254.3376 1782.6966,-191.9008 1631.9689,-226.4011"/>
<polygon fill="#0000ff" stroke="#0000ff" points="1630.8306,-223.075 1621.9263,-228.8165 1632.4675,-229.8809 1630.8306,-223.075"/>
<text text-anchor="middle" x="2076.1151" y="-144.8" font-family="Times,serif" font-size="14.00" fill="#000000">has_property exactly 3 &#160;&#160;</text>
</g>
<!-- crystal_unit_cell&#45;&gt;e&#45;bonded_atom -->
<g id="edge18" class="edge">
<title>crystal_unit_cell&#45;&gt;e&#45;bonded_atom</title>
<path fill="none" stroke="#0000ff" d="M2063.5613,-109.6008C2108.5854,-114.2868 2162.7555,-123.4648 2177.1151,-141 2186.9058,-152.9558 2179.4873,-162.7638 2165.6445,-170.4719"/>
<polygon fill="#0000ff" stroke="#0000ff" points="2163.7669,-167.4923 2156.2916,-175.0004 2166.8174,-173.7926 2163.7669,-167.4923"/>
<text text-anchor="middle" x="2293.1151" y="-144.8" font-family="Times,serif" font-size="14.00" fill="#000000">has_spatial_direct_part some &#160;&#160;</text>
</g>
<!-- crystal -->
<g id="node18" class="node">
<title>crystal</title>
<polygon fill="#ffffe0" stroke="#000000" points="2030.1151,-36 1966.1151,-36 1966.1151,0 2030.1151,0 2030.1151,-36"/>
<text text-anchor="middle" x="1998.1151" y="-14.3" font-family="Bitstream Vera Sans" font-size="14.00" fill="#000000">crystal</text>
</g>
<!-- crystal&#45;&gt;crystal_unit_cell -->
<g id="edge21" class="edge">
<title>crystal&#45;&gt;crystal_unit_cell</title>
<path fill="none" stroke="#0000ff" d="M1998.1151,-36.0265C1998.1151,-47.8082 1998.1151,-63.4393 1998.1151,-76.8419"/>
<polygon fill="#0000ff" stroke="#0000ff" points="1994.6152,-76.9966 1998.1151,-86.9966 2001.6152,-76.9967 1994.6152,-76.9966"/>
<text text-anchor="middle" x="2106.6151" y="-57.8" font-family="Times,serif" font-size="14.00" fill="#000000">has_spatial_direct_part only &#160;&#160;</text>
</g>
<!-- phase -->
<g id="node19" class="node">
<title>phase</title>
<polygon fill="#ffffe0" stroke="#000000" points="1224.1151,-123 1164.1151,-123 1164.1151,-87 1224.1151,-87 1224.1151,-123"/>
<text text-anchor="middle" x="1194.1151" y="-101.3" font-family="Bitstream Vera Sans" font-size="14.00" fill="#000000">phase</text>
</g>
<!-- phase&#45;&gt;density -->
<g id="edge23" class="edge">
<title>phase&#45;&gt;density</title>
<path fill="none" stroke="#0000ff" d="M1164.0277,-108.4901C1130.9695,-112.2763 1076.293,-118.3957 1029.1151,-123 982.7192,-127.528 859.1766,-115.5581 820.1151,-141 811.6619,-146.5058 805.5427,-155.4782 801.223,-164.3741"/>
<polygon fill="#0000ff" stroke="#0000ff" points="797.8954,-163.2565 797.2167,-173.8296 804.3407,-165.9875 797.8954,-163.2565"/>
<text text-anchor="middle" x="909.1151" y="-144.8" font-family="Times,serif" font-size="14.00" fill="#000000">has_property exactly 1 &#160;&#160;</text>
</g>
<!-- phase&#45;&gt;stiffness_tensor -->
<g id="edge22" class="edge">
<title>phase&#45;&gt;stiffness_tensor</title>
<path fill="none" stroke="#0000ff" d="M1224.246,-105.5766C1309.9948,-107.5268 1550.7034,-115.2654 1574.1151,-141 1581.3563,-148.9596 1577.5776,-158.2497 1570.1197,-166.704"/>
<polygon fill="#0000ff" stroke="#0000ff" points="1567.5025,-164.3681 1562.8033,-173.8638 1572.3984,-169.3712 1567.5025,-164.3681"/>
<text text-anchor="middle" x="1667.1151" y="-144.8" font-family="Times,serif" font-size="14.00" fill="#000000">has_property exactly 1 &#160;&#160;</text>
</g>
<!-- phase&#45;&gt;plasticity -->
<g id="edge24" class="edge">
<title>phase&#45;&gt;plasticity</title>
<path fill="none" stroke="#0000ff" d="M1194.1151,-123.0265C1194.1151,-134.8082 1194.1151,-150.4393 1194.1151,-163.8419"/>
<polygon fill="#0000ff" stroke="#0000ff" points="1190.6152,-163.9966 1194.1151,-173.9966 1197.6152,-163.9967 1190.6152,-163.9966"/>
<text text-anchor="middle" x="1283.1151" y="-144.8" font-family="Times,serif" font-size="14.00" fill="#000000">has_property exactly 1 &#160;&#160;</text>
</g>
<!-- rve -->
<g id="node20" class="node">
<title>rve</title>
<polygon fill="#ffffe0" stroke="#000000" points="1020.1151,-123 966.1151,-123 966.1151,-87 1020.1151,-87 1020.1151,-123"/>
<text text-anchor="middle" x="993.1151" y="-101.3" font-family="Bitstream Vera Sans" font-size="14.00" fill="#000000">rve</text>
</g>
<!-- rve&#45;&gt;density -->
<g id="edge26" class="edge">
<title>rve&#45;&gt;density</title>
<path fill="none" stroke="#0000ff" d="M966.0127,-105.3654C879.9952,-106.8029 617.3184,-113.4328 592.1151,-141 587.6168,-145.9203 587.839,-150.8854 592.1151,-156 611.5801,-179.2815 695.2003,-187.5297 747.9615,-190.4358"/>
<polygon fill="#0000ff" stroke="#0000ff" points="747.9096,-193.9375 758.0741,-190.9486 748.2642,-186.9465 747.9096,-193.9375"/>
<text text-anchor="middle" x="681.1151" y="-144.8" font-family="Times,serif" font-size="14.00" fill="#000000">has_property exactly 1 &#160;&#160;</text>
</g>
<!-- rve&#45;&gt;stiffness_tensor -->
<g id="edge25" class="edge">
<title>rve&#45;&gt;stiffness_tensor</title>
<path fill="none" stroke="#0000ff" d="M1020.321,-108.2606C1052.4881,-112.0606 1107.6548,-118.4049 1155.1151,-123 1203.4982,-127.6845 1327.8898,-123.1806 1373.1151,-141 1383.125,-144.944 1382.4586,-151.2561 1392.1151,-156 1413.5724,-166.5412 1438.3888,-174.17 1461.3118,-179.6131"/>
<polygon fill="#0000ff" stroke="#0000ff" points="1460.8206,-183.0905 1471.347,-181.8882 1462.3684,-176.2637 1460.8206,-183.0905"/>
<text text-anchor="middle" x="1481.1151" y="-144.8" font-family="Times,serif" font-size="14.00" fill="#000000">has_property exactly 1 &#160;&#160;</text>
</g>
<!-- rve&#45;&gt;plasticity -->
<g id="edge27" class="edge">
<title>rve&#45;&gt;plasticity</title>
<path fill="none" stroke="#0000ff" d="M995.3761,-123.1198C997.7164,-134.2089 1002.47,-147.7977 1012.1151,-156 1031.6028,-172.5724 1096.9776,-182.439 1143.7919,-187.5411"/>
<polygon fill="#0000ff" stroke="#0000ff" points="1143.4611,-191.0255 1153.7717,-188.588 1144.1914,-184.0637 1143.4611,-191.0255"/>
<text text-anchor="middle" x="1101.1151" y="-144.8" font-family="Times,serif" font-size="14.00" fill="#000000">has_property exactly 1 &#160;&#160;</text>
</g>
<!-- vertex -->
<g id="node21" class="node">
<title>vertex</title>
<polygon fill="#ffffe0" stroke="#000000" points="2279.1151,-210 2217.1151,-210 2217.1151,-174 2279.1151,-174 2279.1151,-210"/>
<text text-anchor="middle" x="2248.1151" y="-188.3" font-family="Bitstream Vera Sans" font-size="14.00" fill="#000000">vertex</text>
</g>
<!-- vertex&#45;&gt;position -->
<g id="edge28" class="edge">
<title>vertex&#45;&gt;position</title>
<path fill="none" stroke="#0000ff" d="M2248.0496,-210.3134C2246.9054,-227.1597 2242.2972,-251.3809 2226.1151,-264 2196.5082,-287.0881 1938.5556,-275.1533 1869.6747,-282.9256"/>
<polygon fill="#0000ff" stroke="#0000ff" points="1869.0398,-279.4823 1859.6994,-284.483 1870.1196,-286.3985 1869.0398,-279.4823"/>
<text text-anchor="middle" x="2334.1151" y="-242.3" font-family="Times,serif" font-size="14.00" fill="#000000">has_property exactly 1 &#160;&#160;</text>
</g>
<!-- interface -->
<g id="node22" class="node">
<title>interface</title>
<polygon fill="#ffffe0" stroke="#000000" points="229.1151,-123 149.1151,-123 149.1151,-87 229.1151,-87 229.1151,-123"/>
<text text-anchor="middle" x="189.1151" y="-101.3" font-family="Bitstream Vera Sans" font-size="14.00" fill="#000000">interface</text>
</g>
<!-- interface&#45;&gt;area -->
<g id="edge29" class="edge">
<title>interface&#45;&gt;area</title>
<path fill="none" stroke="#0000ff" d="M148.8473,-106.9781C99.7981,-110.3289 21.2208,-119.054 3.1151,-141 -1.1274,-146.1425 -.8603,-150.6483 3.1151,-156 52.6669,-222.7061 100.7193,-193.2726 182.1151,-210 282.7985,-230.6912 403.9751,-240.2538 463.8628,-243.9836"/>
<polygon fill="#0000ff" stroke="#0000ff" points="463.7768,-247.4847 473.9695,-244.5935 464.1985,-240.4974 463.7768,-247.4847"/>
<text text-anchor="middle" x="92.1151" y="-144.8" font-family="Times,serif" font-size="14.00" fill="#000000">has_property exactly 1 &#160;&#160;</text>
</g>
<!-- interface&#45;&gt;work_of_separation -->
<g id="edge30" class="edge">
<title>interface&#45;&gt;work_of_separation</title>
<path fill="none" stroke="#0000ff" d="M184.9292,-123.4063C183.6173,-133.7918 183.8673,-146.5418 190.1151,-156 193.0821,-160.4915 196.7547,-164.429 200.8816,-167.8798"/>
<polygon fill="#0000ff" stroke="#0000ff" points="199.1474,-170.9435 209.3115,-173.9339 203.2307,-165.2578 199.1474,-170.9435"/>
<text text-anchor="middle" x="279.1151" y="-144.8" font-family="Times,serif" font-size="14.00" fill="#000000">has_property exactly 1 &#160;&#160;</text>
</g>
<!-- interface&#45;&gt;traction_separation -->
<g id="edge31" class="edge">
<title>interface&#45;&gt;traction_separation</title>
<path fill="none" stroke="#0000ff" d="M229.3954,-111.1031C265.9843,-117.1167 321.2386,-127.3771 368.1151,-141 385.9485,-146.1826 389.5489,-149.9739 407.1151,-156 422.0208,-161.1134 438.1031,-166.2382 453.4786,-170.952"/>
<polygon fill="#0000ff" stroke="#0000ff" points="452.8753,-174.4266 463.461,-173.986 454.911,-167.7292 452.8753,-174.4266"/>
<text text-anchor="middle" x="496.1151" y="-144.8" font-family="Times,serif" font-size="14.00" fill="#000000">has_property exactly 1 &#160;&#160;</text>
</g>
</g>
</svg>
