<?xml version="1.0" encoding="UTF-8" standalone="no"?>
<!DOCTYPE svg PUBLIC "-//W3C//DTD SVG 1.1//EN"
 "http://www.w3.org/Graphics/SVG/1.1/DTD/svg11.dtd">
<!-- Generated by graphviz version 2.40.1 (0)
 -->
<!-- Title: G Pages: 1 -->
<svg width="1288pt" height="521pt"
 viewBox="0.00 0.00 1288.48 521.00" xmlns="http://www.w3.org/2000/svg" xmlns:xlink="http://www.w3.org/1999/xlink">
<g id="graph0" class="graph" transform="scale(1 1) rotate(0) translate(4 517)">
<title>G</title>
<polygon fill="#ffffff" stroke="transparent" points="-4,4 -4,-517 1284.4776,-517 1284.4776,4 -4,4"/>
<!-- physical_quantity -->
<g id="node1" class="node">
<title>physical_quantity</title>
<ellipse fill="#ffffe0" stroke="#000000" cx="705.4776" cy="-495" rx="90.9839" ry="18"/>
<text text-anchor="middle" x="705.4776" y="-491.3" font-family="Bitstream Vera Sans" font-size="14.00" fill="#000000">physical_quantity</text>
</g>
<!-- atomic_number -->
<g id="node2" class="node">
<title>atomic_number</title>
<ellipse fill="#ffffe0" stroke="#000000" cx="845.4776" cy="-408" rx="83.6854" ry="18"/>
<text text-anchor="middle" x="845.4776" y="-404.3" font-family="Bitstream Vera Sans" font-size="14.00" fill="#000000">atomic_number</text>
</g>
<!-- atomic_number&#45;&gt;physical_quantity -->
<g id="edge1" class="edge">
<title>atomic_number&#45;&gt;physical_quantity</title>
<path fill="none" stroke="#000000" d="M817.8181,-425.1884C796.0545,-438.7129 765.5444,-457.6727 741.8113,-472.4211"/>
<polygon fill="none" stroke="#000000" points="739.7258,-469.5963 733.0796,-477.8473 743.4206,-475.5419 739.7258,-469.5963"/>
<text text-anchor="middle" x="797.4776" y="-447.8" font-family="Times,serif" font-size="14.00" fill="#000000">is_a</text>
</g>
<!-- position -->
<g id="node3" class="node">
<title>position</title>
<ellipse fill="#ffffe0" stroke="#000000" cx="1020.4776" cy="-408" rx="47.3916" ry="18"/>
<text text-anchor="middle" x="1020.4776" y="-404.3" font-family="Bitstream Vera Sans" font-size="14.00" fill="#000000">position</text>
</g>
<!-- position&#45;&gt;physical_quantity -->
<g id="edge2" class="edge">
<title>position&#45;&gt;physical_quantity</title>
<path fill="none" stroke="#000000" d="M981.8524,-418.6679C928.6759,-433.3547 832.2765,-459.9793 768.5578,-477.5778"/>
<polygon fill="none" stroke="#000000" points="767.3308,-474.2856 758.6235,-480.3216 769.1945,-481.033 767.3308,-474.2856"/>
<text text-anchor="middle" x="895.4776" y="-447.8" font-family="Times,serif" font-size="14.00" fill="#000000">is_a</text>
</g>
<!-- area -->
<g id="node4" class="node">
<title>area</title>
<ellipse fill="#ffffe0" stroke="#000000" cx="677.4776" cy="-354" rx="32.4942" ry="18"/>
<text text-anchor="middle" x="677.4776" y="-350.3" font-family="Bitstream Vera Sans" font-size="14.00" fill="#000000">area</text>
</g>
<!-- area&#45;&gt;physical_quantity -->
<g id="edge3" class="edge">
<title>area&#45;&gt;physical_quantity</title>
<path fill="none" stroke="#000000" d="M680.9466,-372.0576C683.7552,-386.6247 687.8299,-407.6397 691.4776,-426 694.1571,-439.4876 697.1853,-454.446 699.7381,-466.9779"/>
<polygon fill="none" stroke="#000000" points="696.3235,-467.7504 701.7527,-476.8484 703.1822,-466.3505 696.3235,-467.7504"/>
<text text-anchor="middle" x="705.4776" y="-404.3" font-family="Times,serif" font-size="14.00" fill="#000000">is_a</text>
</g>
<!-- pressure -->
<g id="node5" class="node">
<title>pressure</title>
<ellipse fill="#ffffe0" stroke="#000000" cx="563.4776" cy="-408" rx="51.9908" ry="18"/>
<text text-anchor="middle" x="563.4776" y="-404.3" font-family="Bitstream Vera Sans" font-size="14.00" fill="#000000">pressure</text>
</g>
<!-- pressure&#45;&gt;physical_quantity -->
<g id="edge4" class="edge">
<title>pressure&#45;&gt;physical_quantity</title>
<path fill="none" stroke="#000000" d="M584.9937,-424.4503C599.0273,-434.8733 617.9319,-448.3473 635.4776,-459 643.7138,-464.0006 652.7231,-468.9774 661.455,-473.5644"/>
<polygon fill="none" stroke="#000000" points="659.9187,-476.7101 670.4099,-478.1879 663.1301,-470.4902 659.9187,-476.7101"/>
<text text-anchor="middle" x="649.4776" y="-447.8" font-family="Times,serif" font-size="14.00" fill="#000000">is_a</text>
</g>
<!-- stiffness_tensor -->
<g id="node6" class="node">
<title>stiffness_tensor</title>
<ellipse fill="#ffffe0" stroke="#000000" cx="205.4776" cy="-300" rx="83.6854" ry="18"/>
<text text-anchor="middle" x="205.4776" y="-296.3" font-family="Bitstream Vera Sans" font-size="14.00" fill="#000000">stiffness_tensor</text>
</g>
<!-- stiffness_tensor&#45;&gt;pressure -->
<g id="edge5" class="edge">
<title>stiffness_tensor&#45;&gt;pressure</title>
<path fill="none" stroke="#000000" d="M251.1849,-315.1856C296.7129,-330.1639 368.687,-353.4446 431.4776,-372 457.9057,-379.8099 487.49,-387.9347 511.942,-394.485"/>
<polygon fill="none" stroke="#000000" points="511.1705,-397.9015 521.7348,-397.0979 512.9751,-391.1381 511.1705,-397.9015"/>
<text text-anchor="middle" x="445.4776" y="-350.3" font-family="Times,serif" font-size="14.00" fill="#000000">is_a</text>
</g>
<!-- traction_separation -->
<g id="node7" class="node">
<title>traction_separation</title>
<ellipse fill="#ffffe0" stroke="#000000" cx="408.4776" cy="-300" rx="100.9827" ry="18"/>
<text text-anchor="middle" x="408.4776" y="-296.3" font-family="Bitstream Vera Sans" font-size="14.00" fill="#000000">traction_separation</text>
</g>
<!-- traction_separation&#45;&gt;pressure -->
<g id="edge6" class="edge">
<title>traction_separation&#45;&gt;pressure</title>
<path fill="none" stroke="#000000" d="M433.726,-317.5924C460.4689,-336.2262 502.7495,-365.6863 531.7317,-385.8803"/>
<polygon fill="none" stroke="#000000" points="530.0616,-388.9824 540.2673,-391.8277 534.0634,-383.2391 530.0616,-388.9824"/>
<text text-anchor="middle" x="523.4776" y="-350.3" font-family="Times,serif" font-size="14.00" fill="#000000">is_a</text>
</g>
<!-- load_curve -->
<g id="node8" class="node">
<title>load_curve</title>
<ellipse fill="#ffffe0" stroke="#000000" cx="588.4776" cy="-300" rx="61.99" ry="18"/>
<text text-anchor="middle" x="588.4776" y="-296.3" font-family="Bitstream Vera Sans" font-size="14.00" fill="#000000">load_curve</text>
</g>
<!-- load_curve&#45;&gt;pressure -->
<g id="edge7" class="edge">
<title>load_curve&#45;&gt;pressure</title>
<path fill="none" stroke="#000000" d="M584.2366,-318.3207C580.3162,-335.2571 574.4338,-360.6689 569.9307,-380.1223"/>
<polygon fill="none" stroke="#000000" points="566.5013,-379.4181 567.6558,-389.9498 573.3209,-380.9968 566.5013,-379.4181"/>
<text text-anchor="middle" x="594.4776" y="-350.3" font-family="Times,serif" font-size="14.00" fill="#000000">is_a</text>
</g>
<!-- lattice_vector -->
<g id="node9" class="node">
<title>lattice_vector</title>
<ellipse fill="#ffffe0" stroke="#000000" cx="934.4776" cy="-246" rx="73.387" ry="18"/>
<text text-anchor="middle" x="934.4776" y="-242.3" font-family="Bitstream Vera Sans" font-size="14.00" fill="#000000">lattice_vector</text>
</g>
<!-- lattice_vector&#45;&gt;physical_quantity -->
<g id="edge8" class="edge">
<title>lattice_vector&#45;&gt;physical_quantity</title>
<path fill="none" stroke="#000000" d="M903.5413,-262.3752C862.8913,-285.463 792.0357,-331.3893 752.4776,-390 736.006,-414.4047 722.9191,-445.5221 714.7809,-467.5277"/>
<polygon fill="none" stroke="#000000" points="711.4865,-466.346 711.3955,-476.9404 718.0734,-468.7151 711.4865,-466.346"/>
<text text-anchor="middle" x="813.4776" y="-350.3" font-family="Times,serif" font-size="14.00" fill="#000000">is_a</text>
</g>
<!-- plasticity -->
<g id="node10" class="node">
<title>plasticity</title>
<ellipse fill="#ffffe0" stroke="#000000" cx="61.4776" cy="-354" rx="51.9908" ry="18"/>
<text text-anchor="middle" x="61.4776" y="-350.3" font-family="Bitstream Vera Sans" font-size="14.00" fill="#000000">plasticity</text>
</g>
<!-- plasticity&#45;&gt;physical_quantity -->
<g id="edge9" class="edge">
<title>plasticity&#45;&gt;physical_quantity</title>
<path fill="none" stroke="#000000" d="M105.4888,-363.636C214.9579,-387.6036 500.3133,-450.0805 634.1871,-479.3914"/>
<polygon fill="none" stroke="#000000" points="633.8188,-482.8936 644.336,-481.6134 635.316,-476.0556 633.8188,-482.8936"/>
<text text-anchor="middle" x="397.4776" y="-404.3" font-family="Times,serif" font-size="14.00" fill="#000000">is_a</text>
</g>
<!-- e&#45;bonded_atom -->
<g id="node11" class="node">
<title>e&#45;bonded_atom</title>
<ellipse fill="#ffffe0" stroke="#000000" cx="1045.4776" cy="-300" rx="84.485" ry="18"/>
<text text-anchor="middle" x="1045.4776" y="-296.3" font-family="Bitstream Vera Sans" font-size="14.00" fill="#000000">e&#45;bonded_atom</text>
</g>
<!-- e&#45;bonded_atom&#45;&gt;atomic_number -->
<g id="edge10" class="edge">
<title>e&#45;bonded_atom&#45;&gt;atomic_number</title>
<path fill="none" stroke="#0000ff" d="M963.5962,-304.4813C915.6946,-308.9959 861.7114,-318.0183 846.4776,-336 836.4637,-347.8202 835.9103,-365.0681 838.0049,-379.7191"/>
<polygon fill="#0000ff" stroke="#0000ff" points="834.6149,-380.6315 839.9006,-389.8137 841.4947,-379.3395 834.6149,-380.6315"/>
<text text-anchor="middle" x="935.4776" y="-350.3" font-family="Times,serif" font-size="14.00" fill="#000000">has_property exactly 1 &#160;&#160;</text>
</g>
<!-- e&#45;bonded_atom&#45;&gt;position -->
<g id="edge11" class="edge">
<title>e&#45;bonded_atom&#45;&gt;position</title>
<path fill="none" stroke="#0000ff" d="M1041.2366,-318.3207C1037.3162,-335.2571 1031.4338,-360.6689 1026.9307,-380.1223"/>
<polygon fill="#0000ff" stroke="#0000ff" points="1023.5013,-379.4181 1024.6558,-389.9498 1030.3209,-380.9968 1023.5013,-379.4181"/>
<text text-anchor="middle" x="1125.4776" y="-350.3" font-family="Times,serif" font-size="14.00" fill="#000000">has_property exactly 1 &#160;&#160;</text>
</g>
<!-- crystal_unit_cell -->
<g id="node12" class="node">
<title>crystal_unit_cell</title>
<ellipse fill="#ffffe0" stroke="#000000" cx="755.4776" cy="-105" rx="84.485" ry="18"/>
<text text-anchor="middle" x="755.4776" y="-101.3" font-family="Bitstream Vera Sans" font-size="14.00" fill="#000000">crystal_unit_cell</text>
</g>
<!-- crystal_unit_cell&#45;&gt;stiffness_tensor -->
<g id="edge15" class="edge">
<title>crystal_unit_cell&#45;&gt;stiffness_tensor</title>
<path fill="none" stroke="#0000ff" d="M678.1601,-112.2918C591.6262,-121.9095 458.5354,-141.5282 420.4776,-174 387.9494,-201.7537 419.0998,-236.357 386.4776,-264 385.3729,-264.936 327.761,-276.3018 277.834,-286.0155"/>
<polygon fill="#0000ff" stroke="#0000ff" points="277.1186,-282.589 267.9701,-287.9327 278.4542,-289.4604 277.1186,-282.589"/>
<text text-anchor="middle" x="509.4776" y="-188.3" font-family="Times,serif" font-size="14.00" fill="#000000">has_property exactly 1 &#160;&#160;</text>
</g>
<!-- crystal_unit_cell&#45;&gt;lattice_vector -->
<g id="edge14" class="edge">
<title>crystal_unit_cell&#45;&gt;lattice_vector</title>
<path fill="none" stroke="#0000ff" d="M795.0549,-120.9032C806.9238,-126.4745 819.6541,-133.2918 830.4776,-141 862.6786,-163.9328 893.7916,-197.2963 913.4615,-220.2274"/>
<polygon fill="#0000ff" stroke="#0000ff" points="911.0427,-222.7876 920.1715,-228.165 916.3886,-218.2685 911.0427,-222.7876"/>
<text text-anchor="middle" x="937.4776" y="-144.8" font-family="Times,serif" font-size="14.00" fill="#000000">has_property exactly 3 &#160;&#160;</text>
</g>
<!-- crystal_unit_cell&#45;&gt;e&#45;bonded_atom -->
<g id="edge12" class="edge">
<title>crystal_unit_cell&#45;&gt;e&#45;bonded_atom</title>
<path fill="none" stroke="#0000ff" d="M836.1351,-110.4862C912.3761,-116.4743 1017.0649,-127.094 1030.4776,-141 1063.7957,-175.5435 1058.9155,-236.0649 1052.2602,-271.6419"/>
<polygon fill="#0000ff" stroke="#0000ff" points="1048.7522,-271.3275 1050.1781,-281.8259 1055.6103,-272.7297 1048.7522,-271.3275"/>
<text text-anchor="middle" x="1168.4776" y="-188.3" font-family="Times,serif" font-size="14.00" fill="#000000">has_spatial_direct_part some &#160;&#160;</text>
</g>
<!-- interface -->
<g id="node16" class="node">
<title>interface</title>
<ellipse fill="#ffffe0" stroke="#000000" cx="659.4776" cy="-192" rx="51.9908" ry="18"/>
<text text-anchor="middle" x="659.4776" y="-188.3" font-family="Bitstream Vera Sans" font-size="14.00" fill="#000000">interface</text>
</g>
<!-- crystal_unit_cell&#45;&gt;interface -->
<g id="edge13" class="edge">
<title>crystal_unit_cell&#45;&gt;interface</title>
<path fill="none" stroke="#0000ff" d="M702.958,-119.2071C684.0611,-125.4511 666.0164,-133.1437 660.4776,-141 655.865,-147.5424 654.3851,-155.8229 654.4007,-163.7985"/>
<polygon fill="#0000ff" stroke="#0000ff" points="650.922,-164.2189 655.1448,-173.9358 657.9032,-163.7063 650.922,-164.2189"/>
<text text-anchor="middle" x="745.4776" y="-144.8" font-family="Times,serif" font-size="14.00" fill="#000000">has_space_slice some &#160;&#160;</text>
</g>
<!-- crystal -->
<g id="node13" class="node">
<title>crystal</title>
<ellipse fill="#ffffe0" stroke="#000000" cx="755.4776" cy="-18" rx="41.6928" ry="18"/>
<text text-anchor="middle" x="755.4776" y="-14.3" font-family="Bitstream Vera Sans" font-size="14.00" fill="#000000">crystal</text>
</g>
<!-- crystal&#45;&gt;crystal_unit_cell -->
<g id="edge16" class="edge">
<title>crystal&#45;&gt;crystal_unit_cell</title>
<path fill="none" stroke="#0000ff" d="M755.4776,-36.0265C755.4776,-47.8082 755.4776,-63.4393 755.4776,-76.8419"/>
<polygon fill="#0000ff" stroke="#0000ff" points="751.9777,-76.9966 755.4776,-86.9966 758.9777,-76.9967 751.9777,-76.9966"/>
<text text-anchor="middle" x="863.9776" y="-57.8" font-family="Times,serif" font-size="14.00" fill="#000000">has_spatial_direct_part only &#160;&#160;</text>
</g>
<!-- phase -->
<g id="node14" class="node">
<title>phase</title>
<ellipse fill="#ffffe0" stroke="#000000" cx="112.4776" cy="-192" rx="38.9931" ry="18"/>
<text text-anchor="middle" x="112.4776" y="-188.3" font-family="Bitstream Vera Sans" font-size="14.00" fill="#000000">phase</text>
</g>
<!-- phase&#45;&gt;stiffness_tensor -->
<g id="edge17" class="edge">
<title>phase&#45;&gt;stiffness_tensor</title>
<path fill="none" stroke="#0000ff" d="M147.2836,-200.3752C162.6837,-205.7987 179.7084,-214.4597 190.4776,-228 200.1678,-240.1838 204.0303,-257.0935 205.418,-271.464"/>
<polygon fill="#0000ff" stroke="#0000ff" points="201.9485,-272.0703 206.0524,-281.838 208.9354,-271.6429 201.9485,-272.0703"/>
<text text-anchor="middle" x="293.4776" y="-242.3" font-family="Times,serif" font-size="14.00" fill="#000000">has_property exactly 1 &#160;&#160;</text>
</g>
<!-- phase&#45;&gt;plasticity -->
<g id="edge18" class="edge">
<title>phase&#45;&gt;plasticity</title>
<path fill="none" stroke="#0000ff" d="M76.9448,-199.666C50.157,-206.2499 16.6787,-216.4826 8.4776,-228 -14.1016,-259.7095 14.0138,-302.5136 37.129,-329.1761"/>
<polygon fill="#0000ff" stroke="#0000ff" points="34.7901,-331.8093 44.0805,-336.9023 39.9938,-327.1273 34.7901,-331.8093"/>
<text text-anchor="middle" x="97.4776" y="-242.3" font-family="Times,serif" font-size="14.00" fill="#000000">has_property exactly 1 &#160;&#160;</text>
</g>
<!-- rve -->
<g id="node15" class="node">
<title>rve</title>
<ellipse fill="#ffffe0" stroke="#000000" cx="842.4776" cy="-18" rx="27" ry="18"/>
<text text-anchor="middle" x="842.4776" y="-14.3" font-family="Bitstream Vera Sans" font-size="14.00" fill="#000000">rve</text>
</g>
<!-- interface&#45;&gt;area -->
<g id="edge19" class="edge">
<title>interface&#45;&gt;area</title>
<path fill="none" stroke="#0000ff" d="M661.5074,-210.2686C664.6268,-238.3435 670.6248,-292.3251 674.3165,-325.5506"/>
<polygon fill="#0000ff" stroke="#0000ff" points="670.8445,-325.9974 675.4275,-335.5497 677.8017,-325.2243 670.8445,-325.9974"/>
<text text-anchor="middle" x="756.4776" y="-242.3" font-family="Times,serif" font-size="14.00" fill="#000000">has_property exactly 1 &#160;&#160;</text>
</g>
<!-- interface&#45;&gt;traction_separation -->
<g id="edge20" class="edge">
<title>interface&#45;&gt;traction_separation</title>
<path fill="none" stroke="#0000ff" d="M618.5378,-203.1924C609.0359,-205.6048 598.9349,-208.0215 589.4776,-210 540.5588,-220.2338 522.8048,-204.9159 478.4776,-228 457.6729,-238.8344 439.401,-258.1686 426.7465,-274.0754"/>
<polygon fill="#0000ff" stroke="#0000ff" points="423.9639,-271.9523 420.6573,-282.018 429.5192,-276.2113 423.9639,-271.9523"/>
<text text-anchor="middle" x="567.4776" y="-242.3" font-family="Times,serif" font-size="14.00" fill="#000000">has_property exactly 1 &#160;&#160;</text>
</g>
</g>
</svg>
