<?xml version="1.0" encoding="UTF-8" standalone="no"?>
<!DOCTYPE svg PUBLIC "-//W3C//DTD SVG 1.1//EN"
 "http://www.w3.org/Graphics/SVG/1.1/DTD/svg11.dtd">
<!-- Generated by graphviz version 2.40.1 (0)
 -->
<!-- Title: G Pages: 1 -->
<svg width="2261pt" height="131pt"
 viewBox="0.00 0.00 2260.50 131.00" xmlns="http://www.w3.org/2000/svg" xmlns:xlink="http://www.w3.org/1999/xlink">
<g id="graph0" class="graph" transform="scale(1 1) rotate(0) translate(4 127)">
<title>G</title>
<polygon fill="#ffffff" stroke="transparent" points="-4,4 -4,-127 2256.5,-127 2256.5,4 -4,4"/>
<!-- integer -->
<g id="node1" class="node">
<title>integer</title>
<polygon fill="#ffffe0" stroke="#000000" points="98.5,-123 30.5,-123 30.5,-87 98.5,-87 98.5,-123"/>
<text text-anchor="middle" x="64.5" y="-101.3" font-family="Bitstream Vera Sans" font-size="14.00" fill="#000000">integer</text>
</g>
<!-- real -->
<g id="node2" class="node">
<title>real</title>
<polygon fill="#ffffe0" stroke="#000000" points="1117.5,-123 1063.5,-123 1063.5,-87 1117.5,-87 1117.5,-123"/>
<text text-anchor="middle" x="1090.5" y="-101.3" font-family="Bitstream Vera Sans" font-size="14.00" fill="#000000">real</text>
</g>
<!-- string -->
<g id="node3" class="node">
<title>string</title>
<polygon fill="#ffffe0" stroke="#000000" points="2133,-123 2076,-123 2076,-87 2133,-87 2133,-123"/>
<text text-anchor="middle" x="2104.5" y="-101.3" font-family="Bitstream Vera Sans" font-size="14.00" fill="#000000">string</text>
</g>
<!-- position -->
<g id="node4" class="node">
<title>position</title>
<polygon fill="#ffffe0" stroke="#000000" points="272,-36 199,-36 199,0 272,0 272,-36"/>
<text text-anchor="middle" x="235.5" y="-14.3" font-family="Bitstream Vera Sans" font-size="14.00" fill="#000000">position</text>
</g>
<!-- position&#45;&gt;real -->
<g id="edge1" class="edge">
<title>position&#45;&gt;real</title>
<path fill="none" stroke="#0000ff" d="M244.5067,-36.2454C251.2983,-47.8404 261.79,-61.9507 275.5,-69 310.441,-86.9656 897.273,-100.8367 1052.8804,-104.2112"/>
<polygon fill="#0000ff" stroke="#0000ff" points="1053.2524,-107.7199 1063.3254,-104.4359 1053.403,-100.7215 1053.2524,-107.7199"/>
<text text-anchor="middle" x="349.5" y="-57.8" font-family="Times,serif" font-size="14.00" fill="#000000">has_type exactly 3 &#160;&#160;</text>
</g>
<!-- area -->
<g id="node5" class="node">
<title>area</title>
<polygon fill="#ffffe0" stroke="#000000" points="433.5,-36 379.5,-36 379.5,0 433.5,0 433.5,-36"/>
<text text-anchor="middle" x="406.5" y="-14.3" font-family="Bitstream Vera Sans" font-size="14.00" fill="#000000">area</text>
</g>
<!-- area&#45;&gt;real -->
<g id="edge2" class="edge">
<title>area&#45;&gt;real</title>
<path fill="none" stroke="#0000ff" d="M414.5237,-36.1628C420.6724,-47.722 430.3438,-61.8234 443.5,-69 496.9941,-98.1806 923.3655,-103.7542 1053.1474,-104.7782"/>
<polygon fill="#0000ff" stroke="#0000ff" points="1053.3491,-108.2797 1063.3748,-104.8542 1053.4011,-101.2799 1053.3491,-108.2797"/>
<text text-anchor="middle" x="517.5" y="-57.8" font-family="Times,serif" font-size="14.00" fill="#000000">has_type exactly 1 &#160;&#160;</text>
</g>
<!-- mass -->
<g id="node6" class="node">
<title>mass</title>
<polygon fill="#ffffe0" stroke="#000000" points="605,-36 550,-36 550,0 605,0 605,-36"/>
<text text-anchor="middle" x="577.5" y="-14.3" font-family="Bitstream Vera Sans" font-size="14.00" fill="#000000">mass</text>
</g>
<!-- mass&#45;&gt;real -->
<g id="edge3" class="edge">
<title>mass&#45;&gt;real</title>
<path fill="none" stroke="#0000ff" d="M584.2087,-36.0344C589.4984,-47.5379 598.0757,-61.6254 610.5,-69 648.1905,-91.3718 946.4729,-101.2533 1052.9182,-104.0915"/>
<polygon fill="#0000ff" stroke="#0000ff" points="1053.1004,-107.5973 1063.1882,-104.3592 1053.2828,-100.5997 1053.1004,-107.5973"/>
<text text-anchor="middle" x="684.5" y="-57.8" font-family="Times,serif" font-size="14.00" fill="#000000">has_type exactly 1 &#160;&#160;</text>
</g>
<!-- measured_volume -->
<g id="node7" class="node">
<title>measured_volume</title>
<polygon fill="#ffffe0" stroke="#000000" points="823.5,-36 673.5,-36 673.5,0 823.5,0 823.5,-36"/>
<text text-anchor="middle" x="748.5" y="-14.3" font-family="Bitstream Vera Sans" font-size="14.00" fill="#000000">measured_volume</text>
</g>
<!-- measured_volume&#45;&gt;real -->
<g id="edge4" class="edge">
<title>measured_volume&#45;&gt;real</title>
<path fill="none" stroke="#0000ff" d="M753.3175,-36.0498C757.3291,-47.4062 764.2459,-61.3197 775.5,-69 798.0256,-84.3724 974.4505,-97.5185 1052.9976,-102.6727"/>
<polygon fill="#0000ff" stroke="#0000ff" points="1053.1999,-106.193 1063.4051,-103.3463 1053.6521,-99.2076 1053.1999,-106.193"/>
<text text-anchor="middle" x="849.5" y="-57.8" font-family="Times,serif" font-size="14.00" fill="#000000">has_type exactly 1 &#160;&#160;</text>
</g>
<!-- orientation -->
<g id="node8" class="node">
<title>orientation</title>
<polygon fill="#ffffe0" stroke="#000000" points="967,-36 872,-36 872,0 967,0 967,-36"/>
<text text-anchor="middle" x="919.5" y="-14.3" font-family="Bitstream Vera Sans" font-size="14.00" fill="#000000">orientation</text>
</g>
<!-- orientation&#45;&gt;real -->
<g id="edge5" class="edge">
<title>orientation&#45;&gt;real</title>
<path fill="none" stroke="#0000ff" d="M921.9745,-36.4944C924.3917,-47.4431 929.151,-60.7445 938.5,-69 955.3409,-83.8713 1014.0574,-94.5731 1053.3873,-100.2728"/>
<polygon fill="#0000ff" stroke="#0000ff" points="1053.0337,-103.7574 1063.4229,-101.6804 1054.0061,-96.8253 1053.0337,-103.7574"/>
<text text-anchor="middle" x="1012.5" y="-57.8" font-family="Times,serif" font-size="14.00" fill="#000000">has_type exactly 3 &#160;&#160;</text>
</g>
<!-- density -->
<g id="node9" class="node">
<title>density</title>
<polygon fill="#ffffe0" stroke="#000000" points="1124.5,-36 1056.5,-36 1056.5,0 1124.5,0 1124.5,-36"/>
<text text-anchor="middle" x="1090.5" y="-14.3" font-family="Bitstream Vera Sans" font-size="14.00" fill="#000000">density</text>
</g>
<!-- density&#45;&gt;real -->
<g id="edge6" class="edge">
<title>density&#45;&gt;real</title>
<path fill="none" stroke="#0000ff" d="M1090.5,-36.0265C1090.5,-47.8082 1090.5,-63.4393 1090.5,-76.8419"/>
<polygon fill="#0000ff" stroke="#0000ff" points="1087.0001,-76.9966 1090.5,-86.9966 1094.0001,-76.9967 1087.0001,-76.9966"/>
<text text-anchor="middle" x="1164.5" y="-57.8" font-family="Times,serif" font-size="14.00" fill="#000000">has_type exactly 1 &#160;&#160;</text>
</g>
<!-- stiffness_tensor -->
<g id="node10" class="node">
<title>stiffness_tensor</title>
<polygon fill="#ffffe0" stroke="#000000" points="1326,-36 1197,-36 1197,0 1326,0 1326,-36"/>
<text text-anchor="middle" x="1261.5" y="-14.3" font-family="Bitstream Vera Sans" font-size="14.00" fill="#000000">stiffness_tensor</text>
</g>
<!-- stiffness_tensor&#45;&gt;real -->
<g id="edge7" class="edge">
<title>stiffness_tensor&#45;&gt;real</title>
<path fill="none" stroke="#0000ff" d="M1258.0047,-36.0347C1254.9449,-47.0898 1249.3803,-60.6728 1239.5,-69 1222.8062,-83.0697 1166.306,-93.8922 1127.8818,-99.8505"/>
<polygon fill="#0000ff" stroke="#0000ff" points="1126.94,-96.4526 1117.5716,-101.4007 1127.9809,-103.3748 1126.94,-96.4526"/>
<text text-anchor="middle" x="1329" y="-57.8" font-family="Times,serif" font-size="14.00" fill="#000000">has_type exactly 36 &#160;&#160;</text>
</g>
<!-- atomic_number -->
<g id="node11" class="node">
<title>atomic_number</title>
<polygon fill="#ffffe0" stroke="#000000" points="129,-36 0,-36 0,0 129,0 129,-36"/>
<text text-anchor="middle" x="64.5" y="-14.3" font-family="Bitstream Vera Sans" font-size="14.00" fill="#000000">atomic_number</text>
</g>
<!-- atomic_number&#45;&gt;integer -->
<g id="edge8" class="edge">
<title>atomic_number&#45;&gt;integer</title>
<path fill="none" stroke="#0000ff" d="M64.5,-36.0265C64.5,-47.8082 64.5,-63.4393 64.5,-76.8419"/>
<polygon fill="#0000ff" stroke="#0000ff" points="61.0001,-76.9966 64.5,-86.9966 68.0001,-76.9967 61.0001,-76.9966"/>
<text text-anchor="middle" x="138.5" y="-57.8" font-family="Times,serif" font-size="14.00" fill="#000000">has_type exactly 1 &#160;&#160;</text>
</g>
<!-- lattice_vector -->
<g id="node12" class="node">
<title>lattice_vector</title>
<polygon fill="#ffffe0" stroke="#000000" points="1498,-36 1385,-36 1385,0 1498,0 1498,-36"/>
<text text-anchor="middle" x="1441.5" y="-14.3" font-family="Bitstream Vera Sans" font-size="14.00" fill="#000000">lattice_vector</text>
</g>
<!-- lattice_vector&#45;&gt;real -->
<g id="edge9" class="edge">
<title>lattice_vector&#45;&gt;real</title>
<path fill="none" stroke="#0000ff" d="M1435.6307,-36.1014C1430.9553,-47.4795 1423.2211,-61.3979 1411.5,-69 1388.0857,-84.1861 1206.9944,-97.5223 1127.5988,-102.7033"/>
<polygon fill="#0000ff" stroke="#0000ff" points="1127.2974,-99.2154 1117.5432,-103.3513 1127.7476,-106.2009 1127.2974,-99.2154"/>
<text text-anchor="middle" x="1499.5" y="-57.8" font-family="Times,serif" font-size="14.00" fill="#000000">has_type exactly 3 &#160;&#160;</text>
</g>
<!-- spacegroup -->
<g id="node13" class="node">
<title>spacegroup</title>
<polygon fill="#ffffe0" stroke="#000000" points="2155,-36 2054,-36 2054,0 2155,0 2155,-36"/>
<text text-anchor="middle" x="2104.5" y="-14.3" font-family="Bitstream Vera Sans" font-size="14.00" fill="#000000">spacegroup</text>
</g>
<!-- spacegroup&#45;&gt;string -->
<g id="edge10" class="edge">
<title>spacegroup&#45;&gt;string</title>
<path fill="none" stroke="#0000ff" d="M2104.5,-36.0265C2104.5,-47.8082 2104.5,-63.4393 2104.5,-76.8419"/>
<polygon fill="#0000ff" stroke="#0000ff" points="2101.0001,-76.9966 2104.5,-86.9966 2108.0001,-76.9967 2101.0001,-76.9966"/>
<text text-anchor="middle" x="2178.5" y="-57.8" font-family="Times,serif" font-size="14.00" fill="#000000">has_type exactly 1 &#160;&#160;</text>
</g>
<!-- plasticity -->
<g id="node14" class="node">
<title>plasticity</title>
<polygon fill="#ffffe0" stroke="#000000" points="1652.5,-36 1572.5,-36 1572.5,0 1652.5,0 1652.5,-36"/>
<text text-anchor="middle" x="1612.5" y="-14.3" font-family="Bitstream Vera Sans" font-size="14.00" fill="#000000">plasticity</text>
</g>
<!-- plasticity&#45;&gt;real -->
<g id="edge11" class="edge">
<title>plasticity&#45;&gt;real</title>
<path fill="none" stroke="#0000ff" d="M1605.1115,-36.0634C1599.3827,-47.5793 1590.2559,-61.67 1577.5,-69 1538.8186,-91.2279 1234.5054,-101.2411 1127.5319,-104.0988"/>
<polygon fill="#0000ff" stroke="#0000ff" points="1127.424,-100.6003 1117.5189,-104.3607 1127.607,-107.5979 1127.424,-100.6003"/>
<text text-anchor="middle" x="1655" y="-57.8" font-family="Times,serif" font-size="14.00" fill="#000000">has_type min 2 &#160;&#160;</text>
</g>
<!-- work_of_separation -->
<g id="node15" class="node">
<title>work_of_separation</title>
<polygon fill="#ffffe0" stroke="#000000" points="1837.5,-36 1679.5,-36 1679.5,0 1837.5,0 1837.5,-36"/>
<text text-anchor="middle" x="1758.5" y="-14.3" font-family="Bitstream Vera Sans" font-size="14.00" fill="#000000">work_of_separation</text>
</g>
<!-- work_of_separation&#45;&gt;real -->
<g id="edge12" class="edge">
<title>work_of_separation&#45;&gt;real</title>
<path fill="none" stroke="#0000ff" d="M1750.1354,-36.1675C1743.7666,-47.7287 1733.8203,-61.8306 1720.5,-69 1668.3656,-97.0602 1255.0544,-103.4009 1127.7147,-104.6946"/>
<polygon fill="#0000ff" stroke="#0000ff" points="1127.6331,-101.1951 1117.6676,-104.7921 1127.7011,-108.1948 1127.6331,-101.1951"/>
<text text-anchor="middle" x="1811.5" y="-57.8" font-family="Times,serif" font-size="14.00" fill="#000000">has_type exactly 1 &#160;&#160;</text>
</g>
<!-- traction_separation -->
<g id="node16" class="node">
<title>traction_separation</title>
<polygon fill="#ffffe0" stroke="#000000" points="2011,-36 1856,-36 1856,0 2011,0 2011,-36"/>
<text text-anchor="middle" x="1933.5" y="-14.3" font-family="Bitstream Vera Sans" font-size="14.00" fill="#000000">traction_separation</text>
</g>
<!-- traction_separation&#45;&gt;real -->
<g id="edge13" class="edge">
<title>traction_separation&#45;&gt;real</title>
<path fill="none" stroke="#0000ff" d="M1923.326,-36.0253C1915.6689,-47.6824 1904.0171,-61.9518 1889.5,-69 1854.8869,-85.805 1281.0926,-100.5003 1127.8647,-104.1385"/>
<polygon fill="#0000ff" stroke="#0000ff" points="1127.487,-100.6463 1117.5723,-104.3812 1127.6521,-107.6444 1127.487,-100.6463"/>
<text text-anchor="middle" x="1981.5" y="-57.8" font-family="Times,serif" font-size="14.00" fill="#000000">has_type exactly 1 &#160;&#160;</text>
</g>
</g>
</svg>
