<?xml version="1.0" encoding="UTF-8" standalone="no"?>
<!DOCTYPE svg PUBLIC "-//W3C//DTD SVG 1.1//EN"
 "http://www.w3.org/Graphics/SVG/1.1/DTD/svg11.dtd">
<!-- Generated by graphviz version 2.40.1 (0)
 -->
<!-- Title: G Pages: 1 -->
<svg width="1588pt" height="131pt"
 viewBox="0.00 0.00 1587.84 131.00" xmlns="http://www.w3.org/2000/svg" xmlns:xlink="http://www.w3.org/1999/xlink">
<g id="graph0" class="graph" transform="scale(1 1) rotate(0) translate(4 127)">
<title>G</title>
<polygon fill="#ffffff" stroke="transparent" points="-4,4 -4,-127 1583.8426,-127 1583.8426,4 -4,4"/>
<!-- integer -->
<g id="node1" class="node">
<title>integer</title>
<ellipse fill="#ffffe0" stroke="#000000" cx="83.8426" cy="-105" rx="44.393" ry="18"/>
<text text-anchor="middle" x="83.8426" y="-101.3" font-family="Bitstream Vera Sans" font-size="14.00" fill="#000000">integer</text>
</g>
<!-- real -->
<g id="node2" class="node">
<title>real</title>
<ellipse fill="#ffffe0" stroke="#000000" cx="776.8426" cy="-105" rx="28.6953" ry="18"/>
<text text-anchor="middle" x="776.8426" y="-101.3" font-family="Bitstream Vera Sans" font-size="14.00" fill="#000000">real</text>
</g>
<!-- string -->
<g id="node3" class="node">
<title>string</title>
<ellipse fill="#ffffe0" stroke="#000000" cx="1431.8426" cy="-105" rx="37.0935" ry="18"/>
<text text-anchor="middle" x="1431.8426" y="-101.3" font-family="Bitstream Vera Sans" font-size="14.00" fill="#000000">string</text>
</g>
<!-- atomic_number -->
<g id="node4" class="node">
<title>atomic_number</title>
<ellipse fill="#ffffe0" stroke="#000000" cx="83.8426" cy="-18" rx="83.6854" ry="18"/>
<text text-anchor="middle" x="83.8426" y="-14.3" font-family="Bitstream Vera Sans" font-size="14.00" fill="#000000">atomic_number</text>
</g>
<!-- atomic_number&#45;&gt;integer -->
<g id="edge1" class="edge">
<title>atomic_number&#45;&gt;integer</title>
<path fill="none" stroke="#0000ff" d="M83.8426,-36.0265C83.8426,-47.8082 83.8426,-63.4393 83.8426,-76.8419"/>
<polygon fill="#0000ff" stroke="#0000ff" points="80.3427,-76.9966 83.8426,-86.9966 87.3427,-76.9967 80.3427,-76.9966"/>
<text text-anchor="middle" x="157.8426" y="-57.8" font-family="Times,serif" font-size="14.00" fill="#000000">has_type exactly 1 &#160;&#160;</text>
</g>
<!-- position -->
<g id="node5" class="node">
<title>position</title>
<ellipse fill="#ffffe0" stroke="#000000" cx="254.8426" cy="-18" rx="47.3916" ry="18"/>
<text text-anchor="middle" x="254.8426" y="-14.3" font-family="Bitstream Vera Sans" font-size="14.00" fill="#000000">position</text>
</g>
<!-- position&#45;&gt;real -->
<g id="edge2" class="edge">
<title>position&#45;&gt;real</title>
<path fill="none" stroke="#0000ff" d="M261.2048,-36.0272C266.2719,-47.5276 274.5738,-61.6143 286.8426,-69 325.0775,-92.0173 628.2712,-101.4604 737.6611,-104.1405"/>
<polygon fill="#0000ff" stroke="#0000ff" points="737.8466,-107.6458 747.9274,-104.3859 738.014,-100.6478 737.8466,-107.6458"/>
<text text-anchor="middle" x="360.8426" y="-57.8" font-family="Times,serif" font-size="14.00" fill="#000000">has_type exactly 3 &#160;&#160;</text>
</g>
<!-- area -->
<g id="node6" class="node">
<title>area</title>
<ellipse fill="#ffffe0" stroke="#000000" cx="425.8426" cy="-18" rx="32.4942" ry="18"/>
<text text-anchor="middle" x="425.8426" y="-14.3" font-family="Bitstream Vera Sans" font-size="14.00" fill="#000000">area</text>
</g>
<!-- area&#45;&gt;real -->
<g id="edge3" class="edge">
<title>area&#45;&gt;real</title>
<path fill="none" stroke="#0000ff" d="M430.6522,-36.0614C434.6604,-47.4227 441.5764,-61.3374 452.8426,-69 475.9918,-84.7449 656.913,-97.6572 737.8883,-102.7096"/>
<polygon fill="#0000ff" stroke="#0000ff" points="737.9713,-106.2212 748.1674,-103.3422 738.4013,-99.2345 737.9713,-106.2212"/>
<text text-anchor="middle" x="526.8426" y="-57.8" font-family="Times,serif" font-size="14.00" fill="#000000">has_type exactly 1 &#160;&#160;</text>
</g>
<!-- stiffness_tensor -->
<g id="node7" class="node">
<title>stiffness_tensor</title>
<ellipse fill="#ffffe0" stroke="#000000" cx="596.8426" cy="-18" rx="83.6854" ry="18"/>
<text text-anchor="middle" x="596.8426" y="-14.3" font-family="Bitstream Vera Sans" font-size="14.00" fill="#000000">stiffness_tensor</text>
</g>
<!-- stiffness_tensor&#45;&gt;real -->
<g id="edge4" class="edge">
<title>stiffness_tensor&#45;&gt;real</title>
<path fill="none" stroke="#0000ff" d="M599.173,-36.0391C601.541,-47.0959 606.2995,-60.6792 615.8426,-69 633.8534,-84.7039 696.7841,-95.2305 738.426,-100.6572"/>
<polygon fill="#0000ff" stroke="#0000ff" points="738.1551,-104.1507 748.5139,-101.9271 739.0294,-97.2055 738.1551,-104.1507"/>
<text text-anchor="middle" x="694.3426" y="-57.8" font-family="Times,serif" font-size="14.00" fill="#000000">has_type exactly 36 &#160;&#160;</text>
</g>
<!-- lattice_vector -->
<g id="node8" class="node">
<title>lattice_vector</title>
<ellipse fill="#ffffe0" stroke="#000000" cx="776.8426" cy="-18" rx="73.387" ry="18"/>
<text text-anchor="middle" x="776.8426" y="-14.3" font-family="Bitstream Vera Sans" font-size="14.00" fill="#000000">lattice_vector</text>
</g>
<!-- lattice_vector&#45;&gt;real -->
<g id="edge5" class="edge">
<title>lattice_vector&#45;&gt;real</title>
<path fill="none" stroke="#0000ff" d="M776.8426,-36.0265C776.8426,-47.8082 776.8426,-63.4393 776.8426,-76.8419"/>
<polygon fill="#0000ff" stroke="#0000ff" points="773.3427,-76.9966 776.8426,-86.9966 780.3427,-76.9967 773.3427,-76.9966"/>
<text text-anchor="middle" x="850.8426" y="-57.8" font-family="Times,serif" font-size="14.00" fill="#000000">has_type exactly 3 &#160;&#160;</text>
</g>
<!-- spacegroup -->
<g id="node9" class="node">
<title>spacegroup</title>
<ellipse fill="#ffffe0" stroke="#000000" cx="1431.8426" cy="-18" rx="65.7887" ry="18"/>
<text text-anchor="middle" x="1431.8426" y="-14.3" font-family="Bitstream Vera Sans" font-size="14.00" fill="#000000">spacegroup</text>
</g>
<!-- spacegroup&#45;&gt;string -->
<g id="edge6" class="edge">
<title>spacegroup&#45;&gt;string</title>
<path fill="none" stroke="#0000ff" d="M1431.8426,-36.0265C1431.8426,-47.8082 1431.8426,-63.4393 1431.8426,-76.8419"/>
<polygon fill="#0000ff" stroke="#0000ff" points="1428.3427,-76.9966 1431.8426,-86.9966 1435.3427,-76.9967 1428.3427,-76.9966"/>
<text text-anchor="middle" x="1505.8426" y="-57.8" font-family="Times,serif" font-size="14.00" fill="#000000">has_type exactly 1 &#160;&#160;</text>
</g>
<!-- plasticity -->
<g id="node10" class="node">
<title>plasticity</title>
<ellipse fill="#ffffe0" stroke="#000000" cx="934.8426" cy="-18" rx="51.9908" ry="18"/>
<text text-anchor="middle" x="934.8426" y="-14.3" font-family="Bitstream Vera Sans" font-size="14.00" fill="#000000">plasticity</text>
</g>
<!-- plasticity&#45;&gt;real -->
<g id="edge7" class="edge">
<title>plasticity&#45;&gt;real</title>
<path fill="none" stroke="#0000ff" d="M936.2731,-36.2169C936.1076,-47.0613 933.9687,-60.3503 925.8426,-69 910.9138,-84.8906 854.0525,-95.1878 815.0541,-100.5417"/>
<polygon fill="#0000ff" stroke="#0000ff" points="814.5261,-97.081 805.0699,-101.8591 815.4418,-104.0208 814.5261,-97.081"/>
<text text-anchor="middle" x="994.3426" y="-57.8" font-family="Times,serif" font-size="14.00" fill="#000000">has_type min 2 &#160;&#160;</text>
</g>
<!-- traction_separation -->
<g id="node11" class="node">
<title>traction_separation</title>
<ellipse fill="#ffffe0" stroke="#000000" cx="1105.8426" cy="-18" rx="100.9827" ry="18"/>
<text text-anchor="middle" x="1105.8426" y="-14.3" font-family="Bitstream Vera Sans" font-size="14.00" fill="#000000">traction_separation</text>
</g>
<!-- traction_separation&#45;&gt;real -->
<g id="edge8" class="edge">
<title>traction_separation&#45;&gt;real</title>
<path fill="none" stroke="#0000ff" d="M1094.469,-36.1601C1086.2976,-47.5631 1074.2134,-61.4871 1059.8426,-69 1018.2839,-90.7265 883.3542,-100.0087 815.9313,-103.3687"/>
<polygon fill="#0000ff" stroke="#0000ff" points="815.5357,-99.8835 805.7147,-103.8581 815.8707,-106.8755 815.5357,-99.8835"/>
<text text-anchor="middle" x="1140.3426" y="-57.8" font-family="Times,serif" font-size="14.00" fill="#000000">has_type min 4 &#160;&#160;</text>
</g>
<!-- load_curve -->
<g id="node12" class="node">
<title>load_curve</title>
<ellipse fill="#ffffe0" stroke="#000000" cx="1285.8426" cy="-18" rx="61.99" ry="18"/>
<text text-anchor="middle" x="1285.8426" y="-14.3" font-family="Bitstream Vera Sans" font-size="14.00" fill="#000000">load_curve</text>
</g>
<!-- load_curve&#45;&gt;real -->
<g id="edge9" class="edge">
<title>load_curve&#45;&gt;real</title>
<path fill="none" stroke="#0000ff" d="M1265.2363,-35.1308C1249.8804,-46.8537 1227.8464,-61.5705 1205.8426,-69 1134.1502,-93.2068 907.4854,-101.6425 815.8494,-104.1116"/>
<polygon fill="#0000ff" stroke="#0000ff" points="815.5235,-100.6188 805.6178,-104.3775 815.7054,-107.6165 815.5235,-100.6188"/>
<text text-anchor="middle" x="1297.3426" y="-57.8" font-family="Times,serif" font-size="14.00" fill="#000000">has_type min 4 &#160;&#160;</text>
</g>
</g>
</svg>
