<?xml version="1.0" encoding="UTF-8" standalone="no"?>
<!DOCTYPE svg PUBLIC "-//W3C//DTD SVG 1.1//EN"
 "http://www.w3.org/Graphics/SVG/1.1/DTD/svg11.dtd">
<!-- Generated by graphviz version 2.40.1 (0)
 -->
<!-- Title: G Pages: 1 -->
<svg width="1971pt" height="305pt"
 viewBox="0.00 0.00 1970.50 305.00" xmlns="http://www.w3.org/2000/svg" xmlns:xlink="http://www.w3.org/1999/xlink">
<g id="graph0" class="graph" transform="scale(1 1) rotate(0) translate(4 301)">
<title>G</title>
<polygon fill="#ffffff" stroke="transparent" points="-4,4 -4,-301 1966.5,-301 1966.5,4 -4,4"/>
<!-- SI_unit -->
<g id="node1" class="node">
<title>SI_unit</title>
<polygon fill="#ffffe0" stroke="#000000" points="855,-297 790,-297 790,-261 855,-261 855,-297"/>
<text text-anchor="middle" x="822.5" y="-275.3" font-family="Bitstream Vera Sans" font-size="14.00" fill="#000000">SI_unit</text>
</g>
<!-- m -->
<g id="node2" class="node">
<title>m</title>
<polygon fill="#ffffe0" stroke="#000000" points="231.5,-210 177.5,-210 177.5,-174 231.5,-174 231.5,-210"/>
<text text-anchor="middle" x="204.5" y="-188.3" font-family="Bitstream Vera Sans" font-size="14.00" fill="#000000">m</text>
</g>
<!-- m&#45;&gt;SI_unit -->
<g id="edge1" class="edge">
<title>m&#45;&gt;SI_unit</title>
<path fill="none" stroke="#000000" d="M231.8521,-195.8505C329.356,-209.5768 660.4351,-256.185 779.4477,-272.9392"/>
<polygon fill="none" stroke="#000000" points="779.2415,-276.4446 789.6318,-274.3729 780.2173,-269.513 779.2415,-276.4446"/>
<text text-anchor="middle" x="565.5" y="-231.8" font-family="Times,serif" font-size="14.00" fill="#000000">is_a</text>
</g>
<!-- m² -->
<g id="node3" class="node">
<title>m²</title>
<polygon fill="#ffffe0" stroke="#000000" points="465.5,-210 411.5,-210 411.5,-174 465.5,-174 465.5,-210"/>
<text text-anchor="middle" x="438.5" y="-188.3" font-family="Bitstream Vera Sans" font-size="14.00" fill="#000000">m²</text>
</g>
<!-- m²&#45;&gt;SI_unit -->
<g id="edge2" class="edge">
<title>m²&#45;&gt;SI_unit</title>
<path fill="none" stroke="#000000" d="M465.5021,-198.1177C531.2628,-213.0166 700.1466,-251.2793 779.7604,-269.3168"/>
<polygon fill="none" stroke="#000000" points="779.4005,-272.8239 789.9267,-271.6201 780.9472,-265.9969 779.4005,-272.8239"/>
<text text-anchor="middle" x="667.5" y="-231.8" font-family="Times,serif" font-size="14.00" fill="#000000">is_a</text>
</g>
<!-- m³ -->
<g id="node4" class="node">
<title>m³</title>
<polygon fill="#ffffe0" stroke="#000000" points="633.5,-210 579.5,-210 579.5,-174 633.5,-174 633.5,-210"/>
<text text-anchor="middle" x="606.5" y="-188.3" font-family="Bitstream Vera Sans" font-size="14.00" fill="#000000">m³</text>
</g>
<!-- m³&#45;&gt;SI_unit -->
<g id="edge3" class="edge">
<title>m³&#45;&gt;SI_unit</title>
<path fill="none" stroke="#000000" d="M633.8565,-203.0186C670.7951,-217.8966 736.9751,-244.5525 780.3096,-262.0067"/>
<polygon fill="none" stroke="#000000" points="779.1437,-265.3103 789.7273,-265.7999 781.7591,-258.8171 779.1437,-265.3103"/>
<text text-anchor="middle" x="741.5" y="-231.8" font-family="Times,serif" font-size="14.00" fill="#000000">is_a</text>
</g>
<!-- kg -->
<g id="node5" class="node">
<title>kg</title>
<polygon fill="#ffffe0" stroke="#000000" points="753.5,-210 699.5,-210 699.5,-174 753.5,-174 753.5,-210"/>
<text text-anchor="middle" x="726.5" y="-188.3" font-family="Bitstream Vera Sans" font-size="14.00" fill="#000000">kg</text>
</g>
<!-- kg&#45;&gt;SI_unit -->
<g id="edge4" class="edge">
<title>kg&#45;&gt;SI_unit</title>
<path fill="none" stroke="#000000" d="M746.3913,-210.0265C760.4216,-222.7414 779.399,-239.9397 794.8936,-253.9817"/>
<polygon fill="none" stroke="#000000" points="792.874,-256.8749 802.6342,-260.9966 797.5747,-251.6879 792.874,-256.8749"/>
<text text-anchor="middle" x="794.5" y="-231.8" font-family="Times,serif" font-size="14.00" fill="#000000">is_a</text>
</g>
<!-- Pa -->
<g id="node6" class="node">
<title>Pa</title>
<polygon fill="#ffffe0" stroke="#000000" points="928.5,-210 874.5,-210 874.5,-174 928.5,-174 928.5,-210"/>
<text text-anchor="middle" x="901.5" y="-188.3" font-family="Bitstream Vera Sans" font-size="14.00" fill="#000000">Pa</text>
</g>
<!-- Pa&#45;&gt;SI_unit -->
<g id="edge5" class="edge">
<title>Pa&#45;&gt;SI_unit</title>
<path fill="none" stroke="#000000" d="M885.1311,-210.0265C873.7972,-222.5081 858.5403,-239.3101 845.9225,-253.2056"/>
<polygon fill="none" stroke="#000000" points="842.9793,-251.2405 838.8479,-260.9966 848.1615,-255.9462 842.9793,-251.2405"/>
<text text-anchor="middle" x="880.5" y="-231.8" font-family="Times,serif" font-size="14.00" fill="#000000">is_a</text>
</g>
<!-- J/m² -->
<g id="node7" class="node">
<title>J/m²</title>
<polygon fill="#ffffe0" stroke="#000000" points="1367.5,-210 1313.5,-210 1313.5,-174 1367.5,-174 1367.5,-210"/>
<text text-anchor="middle" x="1340.5" y="-188.3" font-family="Bitstream Vera Sans" font-size="14.00" fill="#000000">J/m²</text>
</g>
<!-- J/m²&#45;&gt;SI_unit -->
<g id="edge6" class="edge">
<title>J/m²&#45;&gt;SI_unit</title>
<path fill="none" stroke="#000000" d="M1313.3794,-196.555C1228.6503,-210.7856 968.4145,-254.4931 865.261,-271.8181"/>
<polygon fill="none" stroke="#000000" points="864.4845,-268.3994 855.2024,-273.5075 865.644,-275.3028 864.4845,-268.3994"/>
<text text-anchor="middle" x="1126.5" y="-231.8" font-family="Times,serif" font-size="14.00" fill="#000000">is_a</text>
</g>
<!-- kg/m³ -->
<g id="node8" class="node">
<title>kg/m³</title>
<polygon fill="#ffffe0" stroke="#000000" points="1568,-210 1509,-210 1509,-174 1568,-174 1568,-210"/>
<text text-anchor="middle" x="1538.5" y="-188.3" font-family="Bitstream Vera Sans" font-size="14.00" fill="#000000">kg/m³</text>
</g>
<!-- kg/m³&#45;&gt;SI_unit -->
<g id="edge7" class="edge">
<title>kg/m³&#45;&gt;SI_unit</title>
<path fill="none" stroke="#000000" d="M1508.8666,-196.0147C1443.2623,-204.8635 1280.7696,-226.5642 1144.5,-243 1044.7227,-255.0344 927.3782,-267.8056 865.5859,-274.4236"/>
<polygon fill="none" stroke="#000000" points="865.0047,-270.9657 855.4335,-275.5091 865.749,-277.9261 865.0047,-270.9657"/>
<text text-anchor="middle" x="1277.5" y="-231.8" font-family="Times,serif" font-size="14.00" fill="#000000">is_a</text>
</g>
<!-- rad -->
<g id="node9" class="node">
<title>rad</title>
<polygon fill="#ffffe0" stroke="#000000" points="1748.5,-210 1694.5,-210 1694.5,-174 1748.5,-174 1748.5,-210"/>
<text text-anchor="middle" x="1721.5" y="-188.3" font-family="Bitstream Vera Sans" font-size="14.00" fill="#000000">rad</text>
</g>
<!-- rad&#45;&gt;SI_unit -->
<g id="edge8" class="edge">
<title>rad&#45;&gt;SI_unit</title>
<path fill="none" stroke="#000000" d="M1694.4368,-195.4473C1665.5009,-199.1181 1618.2697,-205.0665 1577.5,-210 1452.2253,-225.1593 1421.1048,-230.8759 1295.5,-243 1137.0962,-258.29 948.3296,-271.0089 865.2899,-276.3264"/>
<polygon fill="none" stroke="#000000" points="864.9831,-272.8388 855.2259,-276.9677 865.4283,-279.8246 864.9831,-272.8388"/>
<text text-anchor="middle" x="1445.5" y="-231.8" font-family="Times,serif" font-size="14.00" fill="#000000">is_a</text>
</g>
<!-- position -->
<g id="node10" class="node">
<title>position</title>
<polygon fill="#ffffe0" stroke="#000000" points="73,-123 0,-123 0,-87 73,-87 73,-123"/>
<text text-anchor="middle" x="36.5" y="-101.3" font-family="Bitstream Vera Sans" font-size="14.00" fill="#000000">position</text>
</g>
<!-- position&#45;&gt;m -->
<g id="edge12" class="edge">
<title>position&#45;&gt;m</title>
<path fill="none" stroke="#0000ff" d="M38.9876,-123.4795C41.4097,-134.4227 46.1697,-147.7234 55.5,-156 71.8323,-170.4877 128.4344,-181.1925 166.9784,-187.0122"/>
<polygon fill="#0000ff" stroke="#0000ff" points="166.9215,-190.5409 177.3224,-188.5232 167.9334,-183.6145 166.9215,-190.5409"/>
<text text-anchor="middle" x="128" y="-144.8" font-family="Times,serif" font-size="14.00" fill="#000000">has_unit exactly 1 &#160;&#160;</text>
</g>
<!-- area -->
<g id="node11" class="node">
<title>area</title>
<polygon fill="#ffffe0" stroke="#000000" points="399.5,-123 345.5,-123 345.5,-87 399.5,-87 399.5,-123"/>
<text text-anchor="middle" x="372.5" y="-101.3" font-family="Bitstream Vera Sans" font-size="14.00" fill="#000000">area</text>
</g>
<!-- area&#45;&gt;m² -->
<g id="edge13" class="edge">
<title>area&#45;&gt;m²</title>
<path fill="none" stroke="#0000ff" d="M368.6122,-123.2182C367.3996,-133.5409 367.6496,-146.2909 373.5,-156 380.0017,-166.7901 391.0018,-174.5867 402.1221,-180.1035"/>
<polygon fill="#0000ff" stroke="#0000ff" points="400.8351,-183.3614 411.3953,-184.217 403.6736,-176.9627 400.8351,-183.3614"/>
<text text-anchor="middle" x="446" y="-144.8" font-family="Times,serif" font-size="14.00" fill="#000000">has_unit exactly 1 &#160;&#160;</text>
</g>
<!-- mass -->
<g id="node12" class="node">
<title>mass</title>
<polygon fill="#ffffe0" stroke="#000000" points="736,-123 681,-123 681,-87 736,-87 736,-123"/>
<text text-anchor="middle" x="708.5" y="-101.3" font-family="Bitstream Vera Sans" font-size="14.00" fill="#000000">mass</text>
</g>
<!-- mass&#45;&gt;kg -->
<g id="edge14" class="edge">
<title>mass&#45;&gt;kg</title>
<path fill="none" stroke="#0000ff" d="M707.0233,-123.1676C706.6793,-133.0092 706.9923,-145.3089 709.5,-156 710.1659,-158.8389 711.074,-161.7197 712.1263,-164.5517"/>
<polygon fill="#0000ff" stroke="#0000ff" points="708.9598,-166.0483 716.1179,-173.8593 715.3932,-163.2893 708.9598,-166.0483"/>
<text text-anchor="middle" x="782" y="-144.8" font-family="Times,serif" font-size="14.00" fill="#000000">has_unit exactly 1 &#160;&#160;</text>
</g>
<!-- measured_volume -->
<g id="node13" class="node">
<title>measured_volume</title>
<polygon fill="#ffffe0" stroke="#000000" points="615.5,-123 465.5,-123 465.5,-87 615.5,-87 615.5,-123"/>
<text text-anchor="middle" x="540.5" y="-101.3" font-family="Bitstream Vera Sans" font-size="14.00" fill="#000000">measured_volume</text>
</g>
<!-- measured_volume&#45;&gt;m³ -->
<g id="edge15" class="edge">
<title>measured_volume&#45;&gt;m³</title>
<path fill="none" stroke="#0000ff" d="M544.1656,-123.2341C546.8874,-133.5621 551.3874,-146.3121 558.5,-156 562.0543,-160.8412 566.4423,-165.3278 571.1083,-169.374"/>
<polygon fill="#0000ff" stroke="#0000ff" points="569.1205,-172.2651 579.125,-175.7524 573.4788,-166.7874 569.1205,-172.2651"/>
<text text-anchor="middle" x="631" y="-144.8" font-family="Times,serif" font-size="14.00" fill="#000000">has_unit exactly 1 &#160;&#160;</text>
</g>
<!-- orientation -->
<g id="node14" class="node">
<title>orientation</title>
<polygon fill="#ffffe0" stroke="#000000" points="1877,-123 1782,-123 1782,-87 1877,-87 1877,-123"/>
<text text-anchor="middle" x="1829.5" y="-101.3" font-family="Bitstream Vera Sans" font-size="14.00" fill="#000000">orientation</text>
</g>
<!-- orientation&#45;&gt;rad -->
<g id="edge16" class="edge">
<title>orientation&#45;&gt;rad</title>
<path fill="none" stroke="#0000ff" d="M1825.3847,-123.0044C1822.1153,-133.7688 1816.549,-147.0484 1807.5,-156 1794.1592,-169.1973 1775.2633,-177.8246 1758.5801,-183.3145"/>
<polygon fill="#0000ff" stroke="#0000ff" points="1757.1113,-180.1017 1748.5478,-186.3401 1759.1325,-186.8036 1757.1113,-180.1017"/>
<text text-anchor="middle" x="1890" y="-144.8" font-family="Times,serif" font-size="14.00" fill="#000000">has_unit exactly 1 &#160;&#160;</text>
</g>
<!-- density -->
<g id="node15" class="node">
<title>density</title>
<polygon fill="#ffffe0" stroke="#000000" points="1729.5,-123 1661.5,-123 1661.5,-87 1729.5,-87 1729.5,-123"/>
<text text-anchor="middle" x="1695.5" y="-101.3" font-family="Bitstream Vera Sans" font-size="14.00" fill="#000000">density</text>
</g>
<!-- density&#45;&gt;kg/m³ -->
<g id="edge17" class="edge">
<title>density&#45;&gt;kg/m³</title>
<path fill="none" stroke="#0000ff" d="M1662.9695,-123.0265C1637.9825,-136.8728 1603.4012,-156.0357 1577.0289,-170.6496"/>
<polygon fill="#0000ff" stroke="#0000ff" points="1575.1227,-167.7044 1568.0723,-175.6128 1578.5156,-173.8272 1575.1227,-167.7044"/>
<text text-anchor="middle" x="1698" y="-144.8" font-family="Times,serif" font-size="14.00" fill="#000000">has_unit exactly 1 &#160;&#160;</text>
</g>
<!-- energy_per_area -->
<g id="node16" class="node">
<title>energy_per_area</title>
<polygon fill="#ffffe0" stroke="#000000" points="1643,-123 1504,-123 1504,-87 1643,-87 1643,-123"/>
<text text-anchor="middle" x="1573.5" y="-101.3" font-family="Bitstream Vera Sans" font-size="14.00" fill="#000000">energy_per_area</text>
</g>
<!-- energy_per_area&#45;&gt;J/m² -->
<g id="edge18" class="edge">
<title>energy_per_area&#45;&gt;J/m²</title>
<path fill="none" stroke="#0000ff" d="M1511.6249,-123.0664C1494.3088,-128.4742 1475.5619,-134.6621 1458.5,-141 1430.8583,-151.2679 1400.3171,-164.522 1377.2323,-174.9448"/>
<polygon fill="#0000ff" stroke="#0000ff" points="1375.4804,-171.8965 1367.8256,-179.2214 1378.3775,-178.2689 1375.4804,-171.8965"/>
<text text-anchor="middle" x="1531" y="-144.8" font-family="Times,serif" font-size="14.00" fill="#000000">has_unit exactly 1 &#160;&#160;</text>
</g>
<!-- work_of_separation -->
<g id="node17" class="node">
<title>work_of_separation</title>
<polygon fill="#ffffe0" stroke="#000000" points="1486.5,-36 1328.5,-36 1328.5,0 1486.5,0 1486.5,-36"/>
<text text-anchor="middle" x="1407.5" y="-14.3" font-family="Bitstream Vera Sans" font-size="14.00" fill="#000000">work_of_separation</text>
</g>
<!-- work_of_separation&#45;&gt;J/m² -->
<g id="edge19" class="edge">
<title>work_of_separation&#45;&gt;J/m²</title>
<path fill="none" stroke="#0000ff" d="M1387.2816,-36.1187C1374.3978,-48.9551 1358.6462,-67.3334 1350.5,-87 1340.3689,-111.4587 1338.4914,-141.7798 1338.7763,-163.5411"/>
<polygon fill="#0000ff" stroke="#0000ff" points="1335.2845,-163.8752 1339.0765,-173.7682 1342.2815,-163.6698 1335.2845,-163.8752"/>
<text text-anchor="middle" x="1423" y="-101.3" font-family="Times,serif" font-size="14.00" fill="#000000">has_unit exactly 1 &#160;&#160;</text>
</g>
<!-- work_of_separation&#45;&gt;energy_per_area -->
<g id="edge9" class="edge">
<title>work_of_separation&#45;&gt;energy_per_area</title>
<path fill="none" stroke="#000000" d="M1441.8953,-36.0265C1467.4915,-49.4413 1502.6098,-67.8467 1530.1313,-82.2706"/>
<polygon fill="none" stroke="#000000" points="1528.6667,-85.4546 1539.1488,-86.9966 1531.9162,-79.2545 1528.6667,-85.4546"/>
<text text-anchor="middle" x="1513.5" y="-57.8" font-family="Times,serif" font-size="14.00" fill="#000000">is_a</text>
</g>
<!-- pressure -->
<g id="node18" class="node">
<title>pressure</title>
<polygon fill="#ffffe0" stroke="#000000" points="1025.5,-123 945.5,-123 945.5,-87 1025.5,-87 1025.5,-123"/>
<text text-anchor="middle" x="985.5" y="-101.3" font-family="Bitstream Vera Sans" font-size="14.00" fill="#000000">pressure</text>
</g>
<!-- pressure&#45;&gt;Pa -->
<g id="edge20" class="edge">
<title>pressure&#45;&gt;Pa</title>
<path fill="none" stroke="#0000ff" d="M945.4695,-117.7233C926.9355,-124.4927 907.8352,-133.0417 902.5,-141 898.1111,-147.5467 896.653,-155.7055 896.6184,-163.5642"/>
<polygon fill="#0000ff" stroke="#0000ff" points="893.1268,-163.8088 897.2659,-173.5616 900.1121,-163.3563 893.1268,-163.8088"/>
<text text-anchor="middle" x="975" y="-144.8" font-family="Times,serif" font-size="14.00" fill="#000000">has_unit exactly 1 &#160;&#160;</text>
</g>
<!-- stiffness_tensor -->
<g id="node19" class="node">
<title>stiffness_tensor</title>
<polygon fill="#ffffe0" stroke="#000000" points="915,-36 786,-36 786,0 915,0 915,-36"/>
<text text-anchor="middle" x="850.5" y="-14.3" font-family="Bitstream Vera Sans" font-size="14.00" fill="#000000">stiffness_tensor</text>
</g>
<!-- stiffness_tensor&#45;&gt;Pa -->
<g id="edge21" class="edge">
<title>stiffness_tensor&#45;&gt;Pa</title>
<path fill="none" stroke="#0000ff" d="M827.3159,-36.3632C802.7487,-58.0651 770.2198,-94.7882 791.5,-123 809.0362,-146.2483 829.7084,-125.7234 854.5,-141 864.8597,-147.3836 874.3647,-156.6753 882.0754,-165.5841"/>
<polygon fill="#0000ff" stroke="#0000ff" points="879.5751,-168.0546 888.6251,-173.5636 884.9858,-163.6134 879.5751,-168.0546"/>
<text text-anchor="middle" x="864" y="-101.3" font-family="Times,serif" font-size="14.00" fill="#000000">has_unit exactly 1 &#160;&#160;</text>
</g>
<!-- stiffness_tensor&#45;&gt;pressure -->
<g id="edge10" class="edge">
<title>stiffness_tensor&#45;&gt;pressure</title>
<path fill="none" stroke="#000000" d="M878.4721,-36.0265C898.9263,-49.208 926.8573,-67.208 949.057,-81.5145"/>
<polygon fill="none" stroke="#000000" points="947.2621,-84.5216 957.5637,-86.9966 951.054,-78.6376 947.2621,-84.5216"/>
<text text-anchor="middle" x="939.5" y="-57.8" font-family="Times,serif" font-size="14.00" fill="#000000">is_a</text>
</g>
<!-- traction_separation -->
<g id="node20" class="node">
<title>traction_separation</title>
<polygon fill="#ffffe0" stroke="#000000" points="1109,-36 954,-36 954,0 1109,0 1109,-36"/>
<text text-anchor="middle" x="1031.5" y="-14.3" font-family="Bitstream Vera Sans" font-size="14.00" fill="#000000">traction_separation</text>
</g>
<!-- traction_separation&#45;&gt;Pa -->
<g id="edge22" class="edge">
<title>traction_separation&#45;&gt;Pa</title>
<path fill="none" stroke="#0000ff" d="M1041.0794,-36.3175C1054.6286,-65.0578 1074.8675,-121.0646 1047.5,-156 1034.2558,-172.9066 977.7284,-182.9518 939.0248,-187.9716"/>
<polygon fill="#0000ff" stroke="#0000ff" points="938.1271,-184.5559 928.6318,-189.2558 938.9855,-191.503 938.1271,-184.5559"/>
<text text-anchor="middle" x="1133" y="-101.3" font-family="Times,serif" font-size="14.00" fill="#000000">has_unit exactly 1 &#160;&#160;</text>
</g>
<!-- traction_separation&#45;&gt;pressure -->
<g id="edge11" class="edge">
<title>traction_separation&#45;&gt;pressure</title>
<path fill="none" stroke="#000000" d="M1021.9688,-36.0265C1015.5543,-48.1582 1006.9818,-64.3713 999.7599,-78.0302"/>
<polygon fill="none" stroke="#000000" points="996.5992,-76.5203 995.019,-86.9966 1002.7874,-79.7923 996.5992,-76.5203"/>
<text text-anchor="middle" x="1024.5" y="-57.8" font-family="Times,serif" font-size="14.00" fill="#000000">is_a</text>
</g>
<!-- atomic_number -->
<g id="node21" class="node">
<title>atomic_number</title>
<polygon fill="#ffffe0" stroke="#000000" points="1634,-36 1505,-36 1505,0 1634,0 1634,-36"/>
<text text-anchor="middle" x="1569.5" y="-14.3" font-family="Bitstream Vera Sans" font-size="14.00" fill="#000000">atomic_number</text>
</g>
<!-- lattice_vector -->
<g id="node22" class="node">
<title>lattice_vector</title>
<polygon fill="#ffffe0" stroke="#000000" points="261,-123 148,-123 148,-87 261,-87 261,-123"/>
<text text-anchor="middle" x="204.5" y="-101.3" font-family="Bitstream Vera Sans" font-size="14.00" fill="#000000">lattice_vector</text>
</g>
<!-- lattice_vector&#45;&gt;m -->
<g id="edge23" class="edge">
<title>lattice_vector&#45;&gt;m</title>
<path fill="none" stroke="#0000ff" d="M204.5,-123.0265C204.5,-134.8082 204.5,-150.4393 204.5,-163.8419"/>
<polygon fill="#0000ff" stroke="#0000ff" points="201.0001,-163.9966 204.5,-173.9966 208.0001,-163.9967 201.0001,-163.9966"/>
<text text-anchor="middle" x="277" y="-144.8" font-family="Times,serif" font-size="14.00" fill="#000000">has_unit exactly 1 &#160;&#160;</text>
</g>
<!-- spacegroup -->
<g id="node23" class="node">
<title>spacegroup</title>
<polygon fill="#ffffe0" stroke="#000000" points="1753,-36 1652,-36 1652,0 1753,0 1753,-36"/>
<text text-anchor="middle" x="1702.5" y="-14.3" font-family="Bitstream Vera Sans" font-size="14.00" fill="#000000">spacegroup</text>
</g>
<!-- plasticity -->
<g id="node24" class="node">
<title>plasticity</title>
<polygon fill="#ffffe0" stroke="#000000" points="1304.5,-123 1224.5,-123 1224.5,-87 1304.5,-87 1304.5,-123"/>
<text text-anchor="middle" x="1264.5" y="-101.3" font-family="Bitstream Vera Sans" font-size="14.00" fill="#000000">plasticity</text>
</g>
<!-- plasticity&#45;&gt;Pa -->
<g id="edge24" class="edge">
<title>plasticity&#45;&gt;Pa</title>
<path fill="none" stroke="#0000ff" d="M1224.2157,-118.8294C1219.607,-120.292 1214.9628,-121.7131 1210.5,-123 1113.5932,-150.9443 996.864,-174.2771 938.5086,-185.2537"/>
<polygon fill="#0000ff" stroke="#0000ff" points="937.8332,-181.8192 928.6457,-187.0955 939.1182,-188.7003 937.8332,-181.8192"/>
<text text-anchor="middle" x="1207" y="-144.8" font-family="Times,serif" font-size="14.00" fill="#000000">has_unit exactly 1 &#160;&#160;</text>
</g>
</g>
</svg>
