<?xml version="1.0" encoding="UTF-8" standalone="no"?>
<!DOCTYPE svg PUBLIC "-//W3C//DTD SVG 1.1//EN"
 "http://www.w3.org/Graphics/SVG/1.1/DTD/svg11.dtd">
<!-- Generated by graphviz version 2.40.1 (0)
 -->
<!-- Title: G Pages: 1 -->
<svg width="2107pt" height="618pt"
 viewBox="0.00 0.00 2107.24 618.00" xmlns="http://www.w3.org/2000/svg" xmlns:xlink="http://www.w3.org/1999/xlink">
<g id="graph0" class="graph" transform="scale(1 1) rotate(0) translate(4 614)">
<title>G</title>
<polygon fill="#ffffff" stroke="transparent" points="-4,4 -4,-614 2103.2364,-614 2103.2364,4 -4,4"/>
<!-- atomic_number -->
<g id="node1" class="node">
<title>atomic_number</title>
<ellipse fill="#ffffe0" stroke="#000000" cx="1997.1955" cy="-18" rx="83.6854" ry="18"/>
<text text-anchor="middle" x="1997.1955" y="-14.3" font-family="Bitstream Vera Sans" font-size="14.00" fill="#000000">atomic_number</text>
</g>
<!-- integer -->
<g id="node3" class="node">
<title>integer</title>
<ellipse fill="#ffffe0" stroke="#000000" cx="1522.6621" cy="-18" rx="44.393" ry="18"/>
<text text-anchor="middle" x="1522.6621" y="-14.3" font-family="Bitstream Vera Sans" font-size="14.00" fill="#000000">integer</text>
</g>
<!-- atomic_number&#45;&gt;integer -->
<g id="edge7" class="edge">
<title>atomic_number&#45;&gt;integer</title>
<path fill="none" stroke="#0000ff" d="M1913.1782,-18C1816.1701,-18 1659.4236,-18 1577.1185,-18"/>
<polygon fill="#0000ff" stroke="#0000ff" points="1576.977,-14.5001 1566.9769,-18 1576.9769,-21.5001 1576.977,-14.5001"/>
<text text-anchor="middle" x="1751.1546" y="-21.8" font-family="Times,serif" font-size="14.00" fill="#000000">has_type exactly 1 &#160;&#160;</text>
</g>
<!-- position -->
<g id="node2" class="node">
<title>position</title>
<ellipse fill="#ffffe0" stroke="#000000" cx="468.1874" cy="-505" rx="47.3916" ry="18"/>
<text text-anchor="middle" x="468.1874" y="-501.3" font-family="Bitstream Vera Sans" font-size="14.00" fill="#000000">position</text>
</g>
<!-- real -->
<g id="node4" class="node">
<title>real</title>
<ellipse fill="#ffffe0" stroke="#000000" cx="177.09" cy="-366" rx="28.6953" ry="18"/>
<text text-anchor="middle" x="177.09" y="-362.3" font-family="Bitstream Vera Sans" font-size="14.00" fill="#000000">real</text>
</g>
<!-- position&#45;&gt;real -->
<g id="edge9" class="edge">
<title>position&#45;&gt;real</title>
<path fill="none" stroke="#0000ff" d="M423.4454,-498.8205C355.0331,-489.2099 231.4734,-471.1464 223.6874,-465 207.4259,-452.1627 214.4049,-440.7947 205.6874,-422 201.1874,-412.298 195.9434,-401.8204 191.184,-392.5818"/>
<polygon fill="#0000ff" stroke="#0000ff" points="194.1722,-390.742 186.451,-383.487 187.9627,-393.9734 194.1722,-390.742"/>
<text text-anchor="middle" x="297.6874" y="-494.8" font-family="Times,serif" font-size="14.00" fill="#000000">has_type exactly 3 &#160;&#160;</text>
</g>
<!-- m -->
<g id="node7" class="node">
<title>m</title>
<ellipse fill="#ffffe0" stroke="#000000" cx="177.09" cy="-525" rx="27" ry="18"/>
<text text-anchor="middle" x="177.09" y="-521.3" font-family="Bitstream Vera Sans" font-size="14.00" fill="#000000">m</text>
</g>
<!-- position&#45;&gt;m -->
<g id="edge8" class="edge">
<title>position&#45;&gt;m</title>
<path fill="none" stroke="#0000ff" d="M421.4176,-508.2133C363.8308,-512.1699 267.1829,-518.8101 214.3504,-522.44"/>
<polygon fill="#0000ff" stroke="#0000ff" points="213.8185,-518.9682 204.082,-523.1455 214.2984,-525.9517 213.8185,-518.9682"/>
<text text-anchor="middle" x="297.6874" y="-524.8" font-family="Times,serif" font-size="14.00" fill="#000000">has_unit exactly 1 &#160;&#160;</text>
</g>
<!-- string -->
<g id="node5" class="node">
<title>string</title>
<ellipse fill="#ffffe0" stroke="#000000" cx="1115.1696" cy="-378" rx="37.0935" ry="18"/>
<text text-anchor="middle" x="1115.1696" y="-374.3" font-family="Bitstream Vera Sans" font-size="14.00" fill="#000000">string</text>
</g>
<!-- SI_unit -->
<g id="node6" class="node">
<title>SI_unit</title>
<ellipse fill="#ffffe0" stroke="#000000" cx="42.2463" cy="-449" rx="42.4939" ry="18"/>
<text text-anchor="middle" x="42.2463" y="-445.3" font-family="Bitstream Vera Sans" font-size="14.00" fill="#000000">SI_unit</text>
</g>
<!-- m&#45;&gt;SI_unit -->
<g id="edge1" class="edge">
<title>m&#45;&gt;SI_unit</title>
<path fill="none" stroke="#000000" d="M156.3161,-513.2916C135.1298,-501.3506 101.8896,-482.6159 76.7457,-468.4444"/>
<polygon fill="none" stroke="#000000" points="78.3159,-465.3118 67.8857,-463.4508 74.8788,-471.4099 78.3159,-465.3118"/>
<text text-anchor="middle" x="116.4925" y="-501.8" font-family="Times,serif" font-size="14.00" fill="#000000">is_a</text>
</g>
<!-- m² -->
<g id="node8" class="node">
<title>m²</title>
<ellipse fill="#ffffe0" stroke="#000000" cx="177.09" cy="-449" rx="27" ry="18"/>
<text text-anchor="middle" x="177.09" y="-445.3" font-family="Bitstream Vera Sans" font-size="14.00" fill="#000000">m²</text>
</g>
<!-- m²&#45;&gt;SI_unit -->
<g id="edge2" class="edge">
<title>m²&#45;&gt;SI_unit</title>
<path fill="none" stroke="#000000" d="M149.8023,-449C134.0238,-449 113.6345,-449 94.8575,-449"/>
<polygon fill="none" stroke="#000000" points="94.6312,-445.5001 84.6312,-449 94.6312,-452.5001 94.6312,-445.5001"/>
<text text-anchor="middle" x="116.4925" y="-452.8" font-family="Times,serif" font-size="14.00" fill="#000000">is_a</text>
</g>
<!-- Pa -->
<g id="node9" class="node">
<title>Pa</title>
<ellipse fill="#ffffe0" stroke="#000000" cx="177.09" cy="-225" rx="27" ry="18"/>
<text text-anchor="middle" x="177.09" y="-221.3" font-family="Bitstream Vera Sans" font-size="14.00" fill="#000000">Pa</text>
</g>
<!-- Pa&#45;&gt;SI_unit -->
<g id="edge3" class="edge">
<title>Pa&#45;&gt;SI_unit</title>
<path fill="none" stroke="#000000" d="M166.9548,-241.8364C143.6419,-280.5633 86.0701,-376.2006 58.0601,-422.7303"/>
<polygon fill="none" stroke="#000000" points="55.0301,-420.9775 52.8712,-431.3501 61.0273,-424.5877 55.0301,-420.9775"/>
<text text-anchor="middle" x="116.4925" y="-346.8" font-family="Times,serif" font-size="14.00" fill="#000000">is_a</text>
</g>
<!-- area -->
<g id="node10" class="node">
<title>area</title>
<ellipse fill="#ffffe0" stroke="#000000" cx="468.1874" cy="-447" rx="32.4942" ry="18"/>
<text text-anchor="middle" x="468.1874" y="-443.3" font-family="Bitstream Vera Sans" font-size="14.00" fill="#000000">area</text>
</g>
<!-- area&#45;&gt;real -->
<g id="edge11" class="edge">
<title>area&#45;&gt;real</title>
<path fill="none" stroke="#0000ff" d="M437.3724,-440.5985C380.9202,-428.721 263.0904,-403.1919 223.6874,-389 218.4886,-387.1275 213.1101,-384.8344 207.9354,-382.4292"/>
<polygon fill="#0000ff" stroke="#0000ff" points="209.4476,-379.2727 198.9241,-378.0453 206.3852,-385.5673 209.4476,-379.2727"/>
<text text-anchor="middle" x="297.6874" y="-428.8" font-family="Times,serif" font-size="14.00" fill="#000000">has_type exactly 1 &#160;&#160;</text>
</g>
<!-- area&#45;&gt;m² -->
<g id="edge10" class="edge">
<title>area&#45;&gt;m²</title>
<path fill="none" stroke="#0000ff" d="M435.6422,-447.2236C381.1717,-447.5978 271.8703,-448.3488 214.3845,-448.7438"/>
<polygon fill="#0000ff" stroke="#0000ff" points="214.2542,-445.2445 204.2785,-448.8132 214.3024,-452.2443 214.2542,-445.2445"/>
<text text-anchor="middle" x="297.6874" y="-451.8" font-family="Times,serif" font-size="14.00" fill="#000000">has_unit exactly 1 &#160;&#160;</text>
</g>
<!-- pressure -->
<g id="node11" class="node">
<title>pressure</title>
<ellipse fill="#ffffe0" stroke="#000000" cx="468.1874" cy="-240" rx="51.9908" ry="18"/>
<text text-anchor="middle" x="468.1874" y="-236.3" font-family="Bitstream Vera Sans" font-size="14.00" fill="#000000">pressure</text>
</g>
<!-- pressure&#45;&gt;real -->
<g id="edge13" class="edge">
<title>pressure&#45;&gt;real</title>
<path fill="none" stroke="#0000ff" d="M428.024,-251.6571C368.21,-269.3758 258.978,-303.2164 223.6874,-324 214.866,-329.1952 206.2402,-336.2379 198.8558,-343.0709"/>
<polygon fill="#0000ff" stroke="#0000ff" points="196.1318,-340.8364 191.3796,-350.3057 200.9997,-345.8667 196.1318,-340.8364"/>
<text text-anchor="middle" x="297.6874" y="-327.8" font-family="Times,serif" font-size="14.00" fill="#000000">has_type exactly 1 &#160;&#160;</text>
</g>
<!-- pressure&#45;&gt;Pa -->
<g id="edge12" class="edge">
<title>pressure&#45;&gt;Pa</title>
<path fill="none" stroke="#0000ff" d="M416.8541,-243.4868C367.1788,-245.9427 289.8898,-247.3377 223.6874,-238 219.6851,-237.4355 215.5409,-236.6238 211.4495,-235.6778"/>
<polygon fill="#0000ff" stroke="#0000ff" points="212.0561,-232.2199 201.4991,-233.114 210.3095,-238.9985 212.0561,-232.2199"/>
<text text-anchor="middle" x="297.6874" y="-249.8" font-family="Times,serif" font-size="14.00" fill="#000000">has_unit exactly 1 &#160;&#160;</text>
</g>
<!-- stiffness_tensor -->
<g id="node12" class="node">
<title>stiffness_tensor</title>
<ellipse fill="#ffffe0" stroke="#000000" cx="711.4285" cy="-333" rx="83.6854" ry="18"/>
<text text-anchor="middle" x="711.4285" y="-329.3" font-family="Bitstream Vera Sans" font-size="14.00" fill="#000000">stiffness_tensor</text>
</g>
<!-- stiffness_tensor&#45;&gt;real -->
<g id="edge15" class="edge">
<title>stiffness_tensor&#45;&gt;real</title>
<path fill="none" stroke="#0000ff" d="M654.6097,-346.3139C623.0256,-353.0512 582.8995,-360.5237 546.6874,-364 426.6401,-375.5244 283.6506,-371.2052 216.1101,-368.0944"/>
<polygon fill="#0000ff" stroke="#0000ff" points="216.0888,-364.5895 205.9331,-367.6081 215.7546,-371.5815 216.0888,-364.5895"/>
<text text-anchor="middle" x="468.1874" y="-374.8" font-family="Times,serif" font-size="14.00" fill="#000000">has_type exactly 36 &#160;&#160;</text>
</g>
<!-- stiffness_tensor&#45;&gt;Pa -->
<g id="edge14" class="edge">
<title>stiffness_tensor&#45;&gt;Pa</title>
<path fill="none" stroke="#0000ff" d="M637.9606,-324.3048C614.0803,-320.0853 587.7927,-313.9231 564.6874,-305 555.9414,-301.6223 555.5899,-296.9408 546.6874,-294 409.8281,-248.7911 356.4735,-321.0552 223.6874,-265 214.3102,-261.0414 205.4465,-254.4724 198.0175,-247.7905"/>
<polygon fill="#0000ff" stroke="#0000ff" points="200.1944,-245.0279 190.5629,-240.6138 195.3395,-250.0708 200.1944,-245.0279"/>
<text text-anchor="middle" x="468.1874" y="-297.8" font-family="Times,serif" font-size="14.00" fill="#000000">has_unit exactly 1 &#160;&#160;</text>
</g>
<!-- stiffness_tensor&#45;&gt;pressure -->
<g id="edge4" class="edge">
<title>stiffness_tensor&#45;&gt;pressure</title>
<path fill="none" stroke="#000000" d="M670.166,-317.2238C626.4742,-300.5188 557.738,-274.2385 512.8111,-257.0613"/>
<polygon fill="none" stroke="#000000" points="513.9159,-253.7366 503.3254,-253.4345 511.416,-260.275 513.9159,-253.7366"/>
<text text-anchor="middle" x="578.6874" y="-289.8" font-family="Times,serif" font-size="14.00" fill="#000000">is_a</text>
</g>
<!-- traction_separation -->
<g id="node13" class="node">
<title>traction_separation</title>
<ellipse fill="#ffffe0" stroke="#000000" cx="711.4285" cy="-259" rx="100.9827" ry="18"/>
<text text-anchor="middle" x="711.4285" y="-255.3" font-family="Bitstream Vera Sans" font-size="14.00" fill="#000000">traction_separation</text>
</g>
<!-- traction_separation&#45;&gt;real -->
<g id="edge17" class="edge">
<title>traction_separation&#45;&gt;real</title>
<path fill="none" stroke="#0000ff" d="M668.2985,-275.3633C635.3938,-287.2999 588.72,-303.0642 546.6874,-313 427.8244,-341.0971 283.7136,-356.5455 215.9108,-362.7437"/>
<polygon fill="#0000ff" stroke="#0000ff" points="215.3469,-359.2802 205.6996,-363.6596 215.9723,-366.2522 215.3469,-359.2802"/>
<text text-anchor="middle" x="468.1874" y="-345.8" font-family="Times,serif" font-size="14.00" fill="#000000">has_type min 4 &#160;&#160;</text>
</g>
<!-- traction_separation&#45;&gt;Pa -->
<g id="edge16" class="edge">
<title>traction_separation&#45;&gt;Pa</title>
<path fill="none" stroke="#0000ff" d="M676.7782,-242.0455C644.123,-227.0745 593.3692,-206.3651 546.6874,-198 405.3657,-172.676 363.2937,-169.4853 223.6874,-203 218.1418,-204.3313 212.4686,-206.3638 207.0751,-208.6658"/>
<polygon fill="#0000ff" stroke="#0000ff" points="205.3435,-205.6113 197.7571,-213.007 208.2997,-211.9564 205.3435,-205.6113"/>
<text text-anchor="middle" x="468.1874" y="-201.8" font-family="Times,serif" font-size="14.00" fill="#000000">has_unit exactly 1 &#160;&#160;</text>
</g>
<!-- traction_separation&#45;&gt;pressure -->
<g id="edge5" class="edge">
<title>traction_separation&#45;&gt;pressure</title>
<path fill="none" stroke="#000000" d="M639.407,-246.4032C624.0353,-244.1861 607.8604,-242.2048 592.6874,-241 572.5035,-239.3973 550.4215,-238.8336 530.5328,-238.7631"/>
<polygon fill="none" stroke="#000000" points="530.352,-235.2631 520.3539,-238.7683 530.3557,-242.2631 530.352,-235.2631"/>
<text text-anchor="middle" x="578.6874" y="-244.8" font-family="Times,serif" font-size="14.00" fill="#000000">is_a</text>
</g>
<!-- load_curve -->
<g id="node14" class="node">
<title>load_curve</title>
<ellipse fill="#ffffe0" stroke="#000000" cx="711.4285" cy="-81" rx="61.99" ry="18"/>
<text text-anchor="middle" x="711.4285" y="-77.3" font-family="Bitstream Vera Sans" font-size="14.00" fill="#000000">load_curve</text>
</g>
<!-- load_curve&#45;&gt;real -->
<g id="edge19" class="edge">
<title>load_curve&#45;&gt;real</title>
<path fill="none" stroke="#0000ff" d="M651.3254,-76.8385C534.0403,-70.1518 281.0943,-63.2405 223.6874,-123 203.6357,-143.8735 211.2167,-223.5886 205.6874,-252 199.9072,-281.701 191.228,-315.2442 184.9477,-338.2126"/>
<polygon fill="#0000ff" stroke="#0000ff" points="181.5415,-337.3986 182.25,-347.9697 188.2884,-339.2641 181.5415,-337.3986"/>
<text text-anchor="middle" x="468.1874" y="-80.8" font-family="Times,serif" font-size="14.00" fill="#000000">has_type min 4 &#160;&#160;</text>
</g>
<!-- load_curve&#45;&gt;Pa -->
<g id="edge18" class="edge">
<title>load_curve&#45;&gt;Pa</title>
<path fill="none" stroke="#0000ff" d="M676.1258,-66.1643C587.8585,-31.6875 355.2433,42.6695 223.6874,-70 204.3899,-86.5271 189.1036,-157.0509 181.791,-197.0371"/>
<polygon fill="#0000ff" stroke="#0000ff" points="178.3306,-196.5064 180.0245,-206.9649 185.2223,-197.7327 178.3306,-196.5064"/>
<text text-anchor="middle" x="468.1874" y="-29.8" font-family="Times,serif" font-size="14.00" fill="#000000">has_unit exactly 1 &#160;&#160;</text>
</g>
<!-- load_curve&#45;&gt;pressure -->
<g id="edge6" class="edge">
<title>load_curve&#45;&gt;pressure</title>
<path fill="none" stroke="#000000" d="M658.828,-90.5756C642.2966,-95.3749 624.7153,-102.4953 610.6874,-113 569.937,-143.5156 586.1928,-175.8889 546.6874,-208 538.379,-214.7533 528.4533,-220.2526 518.5004,-224.6651"/>
<polygon fill="none" stroke="#000000" points="516.9208,-221.5302 509.0015,-228.5683 519.5814,-228.0049 516.9208,-221.5302"/>
<text text-anchor="middle" x="578.6874" y="-190.8" font-family="Times,serif" font-size="14.00" fill="#000000">is_a</text>
</g>
<!-- lattice_vector -->
<g id="node15" class="node">
<title>lattice_vector</title>
<ellipse fill="#ffffe0" stroke="#000000" cx="468.1874" cy="-563" rx="73.387" ry="18"/>
<text text-anchor="middle" x="468.1874" y="-559.3" font-family="Bitstream Vera Sans" font-size="14.00" fill="#000000">lattice_vector</text>
</g>
<!-- lattice_vector&#45;&gt;real -->
<g id="edge21" class="edge">
<title>lattice_vector&#45;&gt;real</title>
<path fill="none" stroke="#0000ff" d="M395.1062,-560.6206C327.6316,-557.7077 236.0305,-551.6521 223.6874,-540 204.3989,-521.7913 213.8237,-447.2469 205.6874,-422 202.407,-411.8207 197.4491,-401.2312 192.5782,-392.0361"/>
<polygon fill="#0000ff" stroke="#0000ff" points="195.5054,-390.0966 187.6076,-383.0344 189.3776,-393.4803 195.5054,-390.0966"/>
<text text-anchor="middle" x="297.6874" y="-562.8" font-family="Times,serif" font-size="14.00" fill="#000000">has_type exactly 3 &#160;&#160;</text>
</g>
<!-- lattice_vector&#45;&gt;m -->
<g id="edge20" class="edge">
<title>lattice_vector&#45;&gt;m</title>
<path fill="none" stroke="#0000ff" d="M425.313,-577.6584C374.6686,-592.3712 289.0506,-608.9315 223.6874,-579 210.7172,-573.0606 199.984,-561.5312 192.101,-550.6457"/>
<polygon fill="#0000ff" stroke="#0000ff" points="194.8873,-548.517 186.4019,-542.173 189.0791,-552.424 194.8873,-548.517"/>
<text text-anchor="middle" x="297.6874" y="-598.8" font-family="Times,serif" font-size="14.00" fill="#000000">has_unit exactly 1 &#160;&#160;</text>
</g>
<!-- spacegroup -->
<g id="node16" class="node">
<title>spacegroup</title>
<ellipse fill="#ffffe0" stroke="#000000" cx="1522.6621" cy="-385" rx="65.7887" ry="18"/>
<text text-anchor="middle" x="1522.6621" y="-381.3" font-family="Bitstream Vera Sans" font-size="14.00" fill="#000000">spacegroup</text>
</g>
<!-- spacegroup&#45;&gt;string -->
<g id="edge22" class="edge">
<title>spacegroup&#45;&gt;string</title>
<path fill="none" stroke="#0000ff" d="M1458.7184,-380.7105C1445.9547,-380.0083 1432.6406,-379.3852 1420.1696,-379 1329.0498,-376.1857 1222.5452,-376.7044 1162.5597,-377.346"/>
<polygon fill="#0000ff" stroke="#0000ff" points="1162.2312,-373.8494 1152.2714,-377.4622 1162.3103,-380.8489 1162.2312,-373.8494"/>
<text text-anchor="middle" x="1321.1696" y="-382.8" font-family="Times,serif" font-size="14.00" fill="#000000">has_type exactly 1 &#160;&#160;</text>
</g>
<!-- plasticity -->
<g id="node17" class="node">
<title>plasticity</title>
<ellipse fill="#ffffe0" stroke="#000000" cx="468.1874" cy="-135" rx="51.9908" ry="18"/>
<text text-anchor="middle" x="468.1874" y="-131.3" font-family="Bitstream Vera Sans" font-size="14.00" fill="#000000">plasticity</text>
</g>
<!-- plasticity&#45;&gt;real -->
<g id="edge24" class="edge">
<title>plasticity&#45;&gt;real</title>
<path fill="none" stroke="#0000ff" d="M431.9359,-148.0184C418.4034,-153.3316 403.0801,-159.8988 389.6874,-167 381.1929,-171.5041 380.443,-175.027 371.6874,-179 309.6389,-207.1557 272.893,-171.8664 223.6874,-219 206.4571,-235.5048 190.631,-300.2884 182.6065,-338.1207"/>
<polygon fill="#0000ff" stroke="#0000ff" points="179.1584,-337.5118 180.5554,-348.0141 186.0127,-338.9329 179.1584,-337.5118"/>
<text text-anchor="middle" x="297.6874" y="-222.8" font-family="Times,serif" font-size="14.00" fill="#000000">has_type min 2 &#160;&#160;</text>
</g>
<!-- plasticity&#45;&gt;Pa -->
<g id="edge23" class="edge">
<title>plasticity&#45;&gt;Pa</title>
<path fill="none" stroke="#0000ff" d="M419.1312,-128.729C367.036,-124.5177 284.0434,-125.0114 223.6874,-160 208.5593,-168.7698 197.0386,-184.6417 189.2371,-198.5056"/>
<polygon fill="#0000ff" stroke="#0000ff" points="185.9754,-197.1892 184.4316,-207.6709 192.175,-200.4397 185.9754,-197.1892"/>
<text text-anchor="middle" x="297.6874" y="-163.8" font-family="Times,serif" font-size="14.00" fill="#000000">has_unit exactly 1 &#160;&#160;</text>
</g>
<!-- interface -->
<g id="node18" class="node">
<title>interface</title>
<ellipse fill="#ffffe0" stroke="#000000" cx="1115.1696" cy="-292" rx="51.9908" ry="18"/>
<text text-anchor="middle" x="1115.1696" y="-288.3" font-family="Bitstream Vera Sans" font-size="14.00" fill="#000000">interface</text>
</g>
<!-- interface&#45;&gt;area -->
<g id="edge25" class="edge">
<title>interface&#45;&gt;area</title>
<path fill="none" stroke="#0000ff" d="M1072.2182,-302.29C953.5937,-330.7093 622.6645,-409.9913 507.9472,-437.4746"/>
<polygon fill="#0000ff" stroke="#0000ff" points="507.0723,-434.0851 498.163,-439.8186 508.7032,-440.8924 507.0723,-434.0851"/>
<text text-anchor="middle" x="711.4285" y="-414.8" font-family="Times,serif" font-size="14.00" fill="#000000">has_property exactly 1 &#160;&#160;</text>
</g>
<!-- interface&#45;&gt;traction_separation -->
<g id="edge26" class="edge">
<title>interface&#45;&gt;traction_separation</title>
<path fill="none" stroke="#0000ff" d="M1064.4443,-287.8539C1001.6853,-282.7243 893.3233,-273.8673 813.1669,-267.3156"/>
<polygon fill="#0000ff" stroke="#0000ff" points="813.2945,-263.8145 803.0426,-266.4881 812.7242,-270.7912 813.2945,-263.8145"/>
<text text-anchor="middle" x="919.1696" y="-286.8" font-family="Times,serif" font-size="14.00" fill="#000000">has_property exactly 1 &#160;&#160;</text>
</g>
<!-- crystal_unit_cell -->
<g id="node19" class="node">
<title>crystal_unit_cell</title>
<ellipse fill="#ffffe0" stroke="#000000" cx="1522.6621" cy="-442" rx="84.485" ry="18"/>
<text text-anchor="middle" x="1522.6621" y="-438.3" font-family="Bitstream Vera Sans" font-size="14.00" fill="#000000">crystal_unit_cell</text>
</g>
<!-- crystal_unit_cell&#45;&gt;stiffness_tensor -->
<g id="edge29" class="edge">
<title>crystal_unit_cell&#45;&gt;stiffness_tensor</title>
<path fill="none" stroke="#0000ff" d="M1438.0091,-441.5213C1377.7283,-440.6098 1294.852,-438.1988 1222.1696,-432 1134.5539,-424.5276 1112.6686,-420.8199 1026.1696,-405 938.6319,-388.9902 838.6235,-365.1475 775.2768,-349.344"/>
<polygon fill="#0000ff" stroke="#0000ff" points="775.983,-345.9128 765.4323,-346.8791 774.2827,-352.7032 775.983,-345.9128"/>
<text text-anchor="middle" x="1115.1696" y="-433.8" font-family="Times,serif" font-size="14.00" fill="#000000">has_property exactly 1 &#160;&#160;</text>
</g>
<!-- crystal_unit_cell&#45;&gt;lattice_vector -->
<g id="edge28" class="edge">
<title>crystal_unit_cell&#45;&gt;lattice_vector</title>
<path fill="none" stroke="#0000ff" d="M1448.0933,-450.5567C1255.1131,-472.701 740.759,-531.7227 545.15,-554.1686"/>
<polygon fill="#0000ff" stroke="#0000ff" points="544.4957,-550.7206 534.9599,-555.3379 545.2937,-557.675 544.4957,-550.7206"/>
<text text-anchor="middle" x="919.1696" y="-523.8" font-family="Times,serif" font-size="14.00" fill="#000000">has_property exactly 3 &#160;&#160;</text>
</g>
<!-- crystal_unit_cell&#45;&gt;interface -->
<g id="edge27" class="edge">
<title>crystal_unit_cell&#45;&gt;interface</title>
<path fill="none" stroke="#0000ff" d="M1469.9963,-427.8325C1454.0735,-423.9074 1436.4848,-419.9259 1420.1696,-417 1376.5692,-409.1811 1257.5664,-420.6306 1222.1696,-394 1205.6138,-381.5444 1217.3719,-366.9666 1204.1696,-351 1190.9127,-334.9676 1172.1765,-321.6539 1155.3121,-311.756"/>
<polygon fill="#0000ff" stroke="#0000ff" points="1156.6128,-308.4716 1146.1823,-306.613 1153.1772,-314.5705 1156.6128,-308.4716"/>
<text text-anchor="middle" x="1321.1696" y="-420.8" font-family="Times,serif" font-size="14.00" fill="#000000">has_space_slice some &#160;&#160;</text>
</g>
<!-- crystal -->
<g id="node20" class="node">
<title>crystal</title>
<ellipse fill="#ffffe0" stroke="#000000" cx="1997.1955" cy="-412" rx="41.6928" ry="18"/>
<text text-anchor="middle" x="1997.1955" y="-408.3" font-family="Bitstream Vera Sans" font-size="14.00" fill="#000000">crystal</text>
</g>
<!-- crystal&#45;&gt;spacegroup -->
<g id="edge31" class="edge">
<title>crystal&#45;&gt;spacegroup</title>
<path fill="none" stroke="#0000ff" d="M1957.2442,-406.9813C1933.9237,-404.225 1903.9135,-400.975 1877.1546,-399 1781.2864,-391.9242 1670.5514,-388.2724 1598.7104,-386.4997"/>
<polygon fill="#0000ff" stroke="#0000ff" points="1598.4809,-382.9933 1588.3996,-386.2516 1598.3124,-389.9912 1598.4809,-382.9933"/>
<text text-anchor="middle" x="1751.1546" y="-402.8" font-family="Times,serif" font-size="14.00" fill="#000000">has_property exactly 1 &#160;&#160;</text>
</g>
<!-- crystal&#45;&gt;crystal_unit_cell -->
<g id="edge30" class="edge">
<title>crystal&#45;&gt;crystal_unit_cell</title>
<path fill="none" stroke="#0000ff" d="M1955.9139,-414.6098C1880.0812,-419.404 1716.9474,-429.7173 1613.915,-436.231"/>
<polygon fill="#0000ff" stroke="#0000ff" points="1613.5867,-432.7447 1603.8275,-436.8687 1614.0284,-439.7307 1613.5867,-432.7447"/>
<text text-anchor="middle" x="1751.1546" y="-438.8" font-family="Times,serif" font-size="14.00" fill="#000000">has_spatial_direct_part only &#160;&#160;</text>
</g>
<!-- boundary -->
<g id="node21" class="node">
<title>boundary</title>
<ellipse fill="#ffffe0" stroke="#000000" cx="1522.6621" cy="-110" rx="55.4913" ry="18"/>
<text text-anchor="middle" x="1522.6621" y="-106.3" font-family="Bitstream Vera Sans" font-size="14.00" fill="#000000">boundary</text>
</g>
<!-- boundary&#45;&gt;load_curve -->
<g id="edge33" class="edge">
<title>boundary&#45;&gt;load_curve</title>
<path fill="none" stroke="#0000ff" d="M1467.5405,-108.0295C1324.7312,-102.9244 942.7662,-89.2699 783.1171,-83.5627"/>
<polygon fill="#0000ff" stroke="#0000ff" points="783.0464,-80.0581 772.9277,-83.1985 782.7962,-87.0536 783.0464,-80.0581"/>
<text text-anchor="middle" x="1115.1696" y="-102.8" font-family="Times,serif" font-size="14.00" fill="#000000">has_property exactly 1 &#160;&#160;</text>
</g>
<!-- boundary&#45;&gt;interface -->
<g id="edge32" class="edge">
<title>boundary&#45;&gt;interface</title>
<path fill="none" stroke="#0000ff" d="M1490.0041,-124.5862C1416.4128,-157.4545 1237.7296,-237.2605 1156.5404,-273.5224"/>
<polygon fill="#0000ff" stroke="#0000ff" points="1154.8395,-270.4487 1147.1362,-277.7226 1157.6942,-276.8402 1154.8395,-270.4487"/>
<text text-anchor="middle" x="1321.1696" y="-247.8" font-family="Times,serif" font-size="14.00" fill="#000000">has_space_slice exactly 1 &#160;&#160;</text>
</g>
<!-- phase -->
<g id="node22" class="node">
<title>phase</title>
<ellipse fill="#ffffe0" stroke="#000000" cx="1115.1696" cy="-178" rx="38.9931" ry="18"/>
<text text-anchor="middle" x="1115.1696" y="-174.3" font-family="Bitstream Vera Sans" font-size="14.00" fill="#000000">phase</text>
</g>
<!-- phase&#45;&gt;stiffness_tensor -->
<g id="edge34" class="edge">
<title>phase&#45;&gt;stiffness_tensor</title>
<path fill="none" stroke="#0000ff" d="M1076.1288,-177.9631C1016.686,-179.8927 902.7477,-191.6321 830.1696,-250 816.2296,-261.2106 824.989,-273.5236 812.1696,-286 800.0288,-297.8158 784.3692,-307.0546 769.0315,-314.0944"/>
<polygon fill="#0000ff" stroke="#0000ff" points="767.3433,-311.0113 759.5575,-318.1968 770.1249,-317.4349 767.3433,-311.0113"/>
<text text-anchor="middle" x="919.1696" y="-253.8" font-family="Times,serif" font-size="14.00" fill="#000000">has_property exactly 1 &#160;&#160;</text>
</g>
<!-- phase&#45;&gt;plasticity -->
<g id="edge35" class="edge">
<title>phase&#45;&gt;plasticity</title>
<path fill="none" stroke="#0000ff" d="M1076.1549,-175.407C967.6285,-168.1941 661.5307,-147.8501 529.7675,-139.0928"/>
<polygon fill="#0000ff" stroke="#0000ff" points="529.6636,-135.5782 519.4535,-138.4073 529.1993,-142.5628 529.6636,-135.5782"/>
<text text-anchor="middle" x="711.4285" y="-161.8" font-family="Times,serif" font-size="14.00" fill="#000000">has_property exactly 1 &#160;&#160;</text>
</g>
<!-- rve -->
<g id="node23" class="node">
<title>rve</title>
<ellipse fill="#ffffe0" stroke="#000000" cx="1997.1955" cy="-466" rx="27" ry="18"/>
<text text-anchor="middle" x="1997.1955" y="-462.3" font-family="Bitstream Vera Sans" font-size="14.00" fill="#000000">rve</text>
</g>
<!-- welded_component -->
<g id="node24" class="node">
<title>welded_component</title>
<ellipse fill="#ffffe0" stroke="#000000" cx="1997.1955" cy="-85" rx="102.0819" ry="18"/>
<text text-anchor="middle" x="1997.1955" y="-81.3" font-family="Bitstream Vera Sans" font-size="14.00" fill="#000000">welded_component</text>
</g>
<!-- welded_component&#45;&gt;load_curve -->
<g id="edge37" class="edge">
<title>welded_component&#45;&gt;load_curve</title>
<path fill="none" stroke="#0000ff" d="M1895.0481,-84.0782C1779.7211,-83.0872 1586.4682,-81.5764 1420.1696,-81 1187.4576,-80.1934 911.7624,-80.5786 783.6084,-80.8349"/>
<polygon fill="#0000ff" stroke="#0000ff" points="783.5179,-77.335 773.5251,-80.8554 783.5322,-84.335 783.5179,-77.335"/>
<text text-anchor="middle" x="1321.1696" y="-84.8" font-family="Times,serif" font-size="14.00" fill="#000000">has_property exactly 1 &#160;&#160;</text>
</g>
<!-- welded_component&#45;&gt;boundary -->
<g id="edge36" class="edge">
<title>welded_component&#45;&gt;boundary</title>
<path fill="none" stroke="#0000ff" d="M1899.1597,-90.1649C1805.7253,-95.0873 1667.7146,-102.3581 1587.3203,-106.5936"/>
<polygon fill="#0000ff" stroke="#0000ff" points="1587.1311,-103.0986 1577.3291,-107.12 1587.4994,-110.0889 1587.1311,-103.0986"/>
<text text-anchor="middle" x="1751.1546" y="-108.8" font-family="Times,serif" font-size="14.00" fill="#000000">has_spatial_direct_part exactly 2 &#160;&#160;</text>
</g>
</g>
</svg>
