<?xml version="1.0" encoding="UTF-8" standalone="no"?>
<!DOCTYPE svg PUBLIC "-//W3C//DTD SVG 1.1//EN"
 "http://www.w3.org/Graphics/SVG/1.1/DTD/svg11.dtd">
<!-- Generated by graphviz version 2.40.1 (0)
 -->
<!-- Title: G Pages: 1 -->
<svg width="1669pt" height="1044pt"
 viewBox="0.00 0.00 1669.00 1044.00" xmlns="http://www.w3.org/2000/svg" xmlns:xlink="http://www.w3.org/1999/xlink">
<g id="graph0" class="graph" transform="scale(1 1) rotate(0) translate(4 1040)">
<title>G</title>
<polygon fill="#ffffff" stroke="transparent" points="-4,4 -4,-1040 1665,-1040 1665,4 -4,4"/>
<!-- integer -->
<g id="node1" class="node">
<title>integer</title>
<polygon fill="#ffffe0" stroke="#000000" points="1196,-36 1128,-36 1128,0 1196,0 1196,-36"/>
<text text-anchor="middle" x="1162" y="-14.3" font-family="Bitstream Vera Sans" font-size="14.00" fill="#000000">integer</text>
</g>
<!-- real -->
<g id="node2" class="node">
<title>real</title>
<polygon fill="#ffffe0" stroke="#000000" points="183,-626 129,-626 129,-590 183,-590 183,-626"/>
<text text-anchor="middle" x="156" y="-604.3" font-family="Bitstream Vera Sans" font-size="14.00" fill="#000000">real</text>
</g>
<!-- string -->
<g id="node3" class="node">
<title>string</title>
<polygon fill="#ffffe0" stroke="#000000" points="822.5,-90 765.5,-90 765.5,-54 822.5,-54 822.5,-90"/>
<text text-anchor="middle" x="794" y="-68.3" font-family="Bitstream Vera Sans" font-size="14.00" fill="#000000">string</text>
</g>
<!-- SI_unit -->
<g id="node4" class="node">
<title>SI_unit</title>
<polygon fill="#ffffe0" stroke="#000000" points="65,-732 0,-732 0,-696 65,-696 65,-732"/>
<text text-anchor="middle" x="32.5" y="-710.3" font-family="Bitstream Vera Sans" font-size="14.00" fill="#000000">SI_unit</text>
</g>
<!-- m -->
<g id="node5" class="node">
<title>m</title>
<polygon fill="#ffffe0" stroke="#000000" points="183,-155 129,-155 129,-119 183,-119 183,-155"/>
<text text-anchor="middle" x="156" y="-133.3" font-family="Bitstream Vera Sans" font-size="14.00" fill="#000000">m</text>
</g>
<!-- m&#45;&gt;SI_unit -->
<g id="edge1" class="edge">
<title>m&#45;&gt;SI_unit</title>
<path fill="none" stroke="#000000" d="M139.1054,-155.0792C121.785,-174.7966 95.6487,-208.0934 83,-242 52.3073,-324.2763 37.7194,-596.6641 33.6929,-685.6231"/>
<polygon fill="none" stroke="#000000" points="30.1895,-685.6249 33.2438,-695.7699 37.1826,-685.9345 30.1895,-685.6249"/>
<text text-anchor="middle" x="97" y="-245.8" font-family="Times,serif" font-size="14.00" fill="#000000">is_a</text>
</g>
<!-- m² -->
<g id="node6" class="node">
<title>m²</title>
<polygon fill="#ffffe0" stroke="#000000" points="183,-897 129,-897 129,-861 183,-861 183,-897"/>
<text text-anchor="middle" x="156" y="-875.3" font-family="Bitstream Vera Sans" font-size="14.00" fill="#000000">m²</text>
</g>
<!-- m²&#45;&gt;SI_unit -->
<g id="edge2" class="edge">
<title>m²&#45;&gt;SI_unit</title>
<path fill="none" stroke="#000000" d="M147.2996,-860.7949C138.9636,-844.0868 125.5323,-818.9723 111,-799 95.4604,-777.6434 75.1755,-755.8021 59.1189,-739.6078"/>
<polygon fill="none" stroke="#000000" points="61.172,-736.713 51.6156,-732.1383 56.2334,-741.6739 61.172,-736.713"/>
<text text-anchor="middle" x="97" y="-802.8" font-family="Times,serif" font-size="14.00" fill="#000000">is_a</text>
</g>
<!-- m³ -->
<g id="node7" class="node">
<title>m³</title>
<polygon fill="#ffffe0" stroke="#000000" points="183,-965 129,-965 129,-929 183,-929 183,-965"/>
<text text-anchor="middle" x="156" y="-943.3" font-family="Bitstream Vera Sans" font-size="14.00" fill="#000000">m³</text>
</g>
<!-- m³&#45;&gt;SI_unit -->
<g id="edge3" class="edge">
<title>m³&#45;&gt;SI_unit</title>
<path fill="none" stroke="#000000" d="M142.5426,-928.8408C137.8293,-921.9299 132.776,-913.8305 129,-906 117.8283,-882.8327 122.9238,-873.7893 111,-851 101.4395,-832.7276 93.9146,-831.4973 83,-814 68.2487,-790.3519 54.1879,-761.8437 44.667,-741.3268"/>
<polygon fill="none" stroke="#000000" points="47.8472,-739.8652 40.5003,-732.2314 41.4832,-742.7806 47.8472,-739.8652"/>
<text text-anchor="middle" x="97" y="-854.8" font-family="Times,serif" font-size="14.00" fill="#000000">is_a</text>
</g>
<!-- kg -->
<g id="node8" class="node">
<title>kg</title>
<polygon fill="#ffffe0" stroke="#000000" points="183,-705 129,-705 129,-669 183,-669 183,-705"/>
<text text-anchor="middle" x="156" y="-683.3" font-family="Bitstream Vera Sans" font-size="14.00" fill="#000000">kg</text>
</g>
<!-- kg&#45;&gt;SI_unit -->
<g id="edge4" class="edge">
<title>kg&#45;&gt;SI_unit</title>
<path fill="none" stroke="#000000" d="M128.8369,-691.2118C115.0455,-693.5083 98.0639,-696.5786 83,-700 80.3869,-700.5935 77.7066,-701.2357 75.0092,-701.9077"/>
<polygon fill="none" stroke="#000000" points="74.0572,-698.5387 65.2558,-704.4367 75.8142,-705.3146 74.0572,-698.5387"/>
<text text-anchor="middle" x="97" y="-703.8" font-family="Times,serif" font-size="14.00" fill="#000000">is_a</text>
</g>
<!-- Pa -->
<g id="node9" class="node">
<title>Pa</title>
<polygon fill="#ffffe0" stroke="#000000" points="183,-373 129,-373 129,-337 183,-337 183,-373"/>
<text text-anchor="middle" x="156" y="-351.3" font-family="Bitstream Vera Sans" font-size="14.00" fill="#000000">Pa</text>
</g>
<!-- Pa&#45;&gt;SI_unit -->
<g id="edge5" class="edge">
<title>Pa&#45;&gt;SI_unit</title>
<path fill="none" stroke="#000000" d="M149.7058,-373.2964C129.5135,-431.9932 66.2725,-615.8272 42.0608,-686.208"/>
<polygon fill="none" stroke="#000000" points="38.7249,-685.1457 38.7815,-695.7404 45.3442,-687.4229 38.7249,-685.1457"/>
<text text-anchor="middle" x="97" y="-569.8" font-family="Times,serif" font-size="14.00" fill="#000000">is_a</text>
</g>
<!-- J/m² -->
<g id="node10" class="node">
<title>J/m²</title>
<polygon fill="#ffffe0" stroke="#000000" points="183,-1026 129,-1026 129,-990 183,-990 183,-1026"/>
<text text-anchor="middle" x="156" y="-1004.3" font-family="Bitstream Vera Sans" font-size="14.00" fill="#000000">J/m²</text>
</g>
<!-- J/m²&#45;&gt;SI_unit -->
<g id="edge6" class="edge">
<title>J/m²&#45;&gt;SI_unit</title>
<path fill="none" stroke="#000000" d="M140.1989,-989.9477C136.2586,-984.9716 132.2384,-979.4407 129,-974 82.426,-895.7537 51.9995,-791.2182 39.2808,-741.9408"/>
<polygon fill="none" stroke="#000000" points="42.6159,-740.8529 36.7677,-732.0183 35.8301,-742.5716 42.6159,-740.8529"/>
<text text-anchor="middle" x="97" y="-943.8" font-family="Times,serif" font-size="14.00" fill="#000000">is_a</text>
</g>
<!-- kg/m³ -->
<g id="node11" class="node">
<title>kg/m³</title>
<polygon fill="#ffffe0" stroke="#000000" points="304.5,-269 245.5,-269 245.5,-233 304.5,-233 304.5,-269"/>
<text text-anchor="middle" x="275" y="-247.3" font-family="Bitstream Vera Sans" font-size="14.00" fill="#000000">kg/m³</text>
</g>
<!-- kg/m³&#45;&gt;SI_unit -->
<g id="edge7" class="edge">
<title>kg/m³&#45;&gt;SI_unit</title>
<path fill="none" stroke="#000000" d="M245.4529,-255.2184C211.9458,-261.6232 158.1911,-277.1081 129,-313 81.5446,-371.3487 46.9927,-603.9516 36.1218,-685.5406"/>
<polygon fill="none" stroke="#000000" points="32.6343,-685.2167 34.8017,-695.5875 39.5747,-686.1287 32.6343,-685.2167"/>
<text text-anchor="middle" x="156" y="-316.8" font-family="Times,serif" font-size="14.00" fill="#000000">is_a</text>
</g>
<!-- rad -->
<g id="node12" class="node">
<title>rad</title>
<polygon fill="#ffffe0" stroke="#000000" points="183,-815 129,-815 129,-779 183,-779 183,-815"/>
<text text-anchor="middle" x="156" y="-793.3" font-family="Bitstream Vera Sans" font-size="14.00" fill="#000000">rad</text>
</g>
<!-- rad&#45;&gt;SI_unit -->
<g id="edge8" class="edge">
<title>rad&#45;&gt;SI_unit</title>
<path fill="none" stroke="#000000" d="M142.5351,-778.9274C134.2968,-768.8199 123.0468,-756.5699 111,-748 100.0183,-740.1878 86.9589,-733.642 74.6743,-728.4463"/>
<polygon fill="none" stroke="#000000" points="75.6267,-725.0569 65.043,-724.5706 73.0134,-731.5508 75.6267,-725.0569"/>
<text text-anchor="middle" x="97" y="-751.8" font-family="Times,serif" font-size="14.00" fill="#000000">is_a</text>
</g>
<!-- position -->
<g id="node13" class="node">
<title>position</title>
<polygon fill="#ffffe0" stroke="#000000" points="482,-197 409,-197 409,-161 482,-161 482,-197"/>
<text text-anchor="middle" x="445.5" y="-175.3" font-family="Bitstream Vera Sans" font-size="14.00" fill="#000000">position</text>
</g>
<!-- position&#45;&gt;real -->
<g id="edge15" class="edge">
<title>position&#45;&gt;real</title>
<path fill="none" stroke="#0000ff" d="M408.8441,-183.5818C390.8198,-185.8287 368.7724,-188.5683 349,-191 316.1165,-195.0442 224.2232,-185.3703 201,-209 173.9071,-236.5672 187.2927,-343.5871 183,-382 175.03,-453.3192 164.7799,-537.1869 159.4957,-579.9066"/>
<polygon fill="#0000ff" stroke="#0000ff" points="156.0202,-579.4937 158.2637,-589.8483 162.9671,-580.3547 156.0202,-579.4937"/>
<text text-anchor="middle" x="275" y="-212.8" font-family="Times,serif" font-size="14.00" fill="#000000">has_type exactly 3 &#160;&#160;</text>
</g>
<!-- position&#45;&gt;m -->
<g id="edge14" class="edge">
<title>position&#45;&gt;m</title>
<path fill="none" stroke="#0000ff" d="M408.8861,-169.1677C395.3118,-164.8177 380.0545,-159.0667 367,-152 358.0872,-147.1753 358.5778,-141.314 349,-138 297.2591,-120.0973 232.9408,-124.6409 193.1798,-130.2705"/>
<polygon fill="#0000ff" stroke="#0000ff" points="192.499,-126.8335 183.1352,-131.7904 193.5464,-133.7548 192.499,-126.8335"/>
<text text-anchor="middle" x="275" y="-141.8" font-family="Times,serif" font-size="14.00" fill="#000000">has_unit exactly 1 &#160;&#160;</text>
</g>
<!-- area -->
<g id="node14" class="node">
<title>area</title>
<polygon fill="#ffffe0" stroke="#000000" points="472.5,-808 418.5,-808 418.5,-772 472.5,-772 472.5,-808"/>
<text text-anchor="middle" x="445.5" y="-786.3" font-family="Bitstream Vera Sans" font-size="14.00" fill="#000000">area</text>
</g>
<!-- area&#45;&gt;real -->
<g id="edge17" class="edge">
<title>area&#45;&gt;real</title>
<path fill="none" stroke="#0000ff" d="M418.1592,-780.8926C403.0285,-775.7782 383.9162,-769.1957 367,-763 358.9399,-760.048 357.2895,-758.2277 349,-756 284.7135,-738.724 250.0857,-777.9645 201,-733 176.3595,-710.4282 194.7821,-691.2702 183,-660 179.8892,-651.7438 175.787,-643.1131 171.7223,-635.3093"/>
<polygon fill="#0000ff" stroke="#0000ff" points="174.6802,-633.4205 166.8519,-626.2813 168.5195,-636.7441 174.6802,-633.4205"/>
<text text-anchor="middle" x="275" y="-759.8" font-family="Times,serif" font-size="14.00" fill="#000000">has_type exactly 1 &#160;&#160;</text>
</g>
<!-- area&#45;&gt;m² -->
<g id="edge16" class="edge">
<title>area&#45;&gt;m²</title>
<path fill="none" stroke="#0000ff" d="M418.3511,-794.3493C401.1388,-798.5294 379.7829,-806.5981 367,-822 341.5046,-852.7191 379.9277,-884.7581 349,-910 323.5202,-930.7956 232.4042,-919.7701 201,-910 195.5648,-908.3091 190.2055,-905.7079 185.185,-902.716"/>
<polygon fill="#0000ff" stroke="#0000ff" points="186.8428,-899.6164 176.5708,-897.0209 182.9823,-905.4556 186.8428,-899.6164"/>
<text text-anchor="middle" x="275" y="-924.8" font-family="Times,serif" font-size="14.00" fill="#000000">has_unit exactly 1 &#160;&#160;</text>
</g>
<!-- mass -->
<g id="node15" class="node">
<title>mass</title>
<polygon fill="#ffffe0" stroke="#000000" points="473,-700 418,-700 418,-664 473,-664 473,-700"/>
<text text-anchor="middle" x="445.5" y="-678.3" font-family="Bitstream Vera Sans" font-size="14.00" fill="#000000">mass</text>
</g>
<!-- mass&#45;&gt;real -->
<g id="edge19" class="edge">
<title>mass&#45;&gt;real</title>
<path fill="none" stroke="#0000ff" d="M417.6384,-674.7437C398.3687,-669.7345 372.1343,-662.9334 349,-657 294.7452,-643.085 231.8581,-627.1562 192.9975,-617.3364"/>
<polygon fill="#0000ff" stroke="#0000ff" points="193.7312,-613.9118 183.1785,-614.856 192.0167,-620.6986 193.7312,-613.9118"/>
<text text-anchor="middle" x="275" y="-660.8" font-family="Times,serif" font-size="14.00" fill="#000000">has_type exactly 1 &#160;&#160;</text>
</g>
<!-- mass&#45;&gt;kg -->
<g id="edge18" class="edge">
<title>mass&#45;&gt;kg</title>
<path fill="none" stroke="#0000ff" d="M417.9469,-680.2475C372.6183,-677.707 279.5092,-673.9302 201,-680 198.4479,-680.1973 195.8216,-680.4567 193.1807,-680.7592"/>
<polygon fill="#0000ff" stroke="#0000ff" points="192.5027,-677.3184 183.0485,-682.1004 193.4213,-684.2578 192.5027,-677.3184"/>
<text text-anchor="middle" x="275" y="-683.8" font-family="Times,serif" font-size="14.00" fill="#000000">has_unit exactly 1 &#160;&#160;</text>
</g>
<!-- measured_volume -->
<g id="node16" class="node">
<title>measured_volume</title>
<polygon fill="#ffffe0" stroke="#000000" points="520.5,-913 370.5,-913 370.5,-877 520.5,-877 520.5,-913"/>
<text text-anchor="middle" x="445.5" y="-891.3" font-family="Bitstream Vera Sans" font-size="14.00" fill="#000000">measured_volume</text>
</g>
<!-- measured_volume&#45;&gt;real -->
<g id="edge21" class="edge">
<title>measured_volume&#45;&gt;real</title>
<path fill="none" stroke="#0000ff" d="M385.563,-876.8785C378.7405,-873.0661 372.3344,-868.4875 367,-863 351.1189,-846.6629 366.8607,-829.1459 349,-815 297.0128,-773.8253 247.9852,-842.8019 201,-796 179.4012,-774.4855 192.162,-689.0765 183,-660 180.3485,-651.5851 176.3943,-642.9032 172.3246,-635.1011"/>
<polygon fill="#0000ff" stroke="#0000ff" points="175.2628,-633.18 167.3829,-626.0978 169.1264,-636.5482 175.2628,-633.18"/>
<text text-anchor="middle" x="275" y="-818.8" font-family="Times,serif" font-size="14.00" fill="#000000">has_type exactly 1 &#160;&#160;</text>
</g>
<!-- measured_volume&#45;&gt;m³ -->
<g id="edge20" class="edge">
<title>measured_volume&#45;&gt;m³</title>
<path fill="none" stroke="#0000ff" d="M381.1726,-913.1981C376.1648,-915.7732 371.3656,-918.6932 367,-922 355.7966,-930.4862 361.4492,-941.4772 349,-948 299.8863,-973.7333 233.6261,-965.7811 192.907,-956.9396"/>
<polygon fill="#0000ff" stroke="#0000ff" points="193.6609,-953.5217 183.131,-954.6926 192.0928,-960.3438 193.6609,-953.5217"/>
<text text-anchor="middle" x="275" y="-968.8" font-family="Times,serif" font-size="14.00" fill="#000000">has_unit exactly 1 &#160;&#160;</text>
</g>
<!-- orientation -->
<g id="node17" class="node">
<title>orientation</title>
<polygon fill="#ffffe0" stroke="#000000" points="493,-754 398,-754 398,-718 493,-718 493,-754"/>
<text text-anchor="middle" x="445.5" y="-732.3" font-family="Bitstream Vera Sans" font-size="14.00" fill="#000000">orientation</text>
</g>
<!-- orientation&#45;&gt;real -->
<g id="edge23" class="edge">
<title>orientation&#45;&gt;real</title>
<path fill="none" stroke="#0000ff" d="M397.9405,-726.8334C382.3623,-723.9098 364.9589,-720.7278 349,-718 283.3843,-706.7845 254.9845,-733.9472 201,-695 186.8143,-684.7657 191.0303,-675.5399 183,-660 178.838,-651.9459 174.3014,-643.1971 170.1555,-635.2135"/>
<polygon fill="#0000ff" stroke="#0000ff" points="173.2305,-633.5404 165.5139,-626.2806 167.019,-636.768 173.2305,-633.5404"/>
<text text-anchor="middle" x="275" y="-721.8" font-family="Times,serif" font-size="14.00" fill="#000000">has_type exactly 3 &#160;&#160;</text>
</g>
<!-- orientation&#45;&gt;rad -->
<g id="edge22" class="edge">
<title>orientation&#45;&gt;rad</title>
<path fill="none" stroke="#0000ff" d="M397.9108,-744.123C386.4677,-748.1228 375.1979,-754.0919 367,-763 344.9556,-786.9541 374.6923,-814.0085 349,-834 323.0433,-854.1973 231.9612,-845.0942 201,-834 193.6685,-831.3729 186.6762,-826.9788 180.4824,-822.1184"/>
<polygon fill="#0000ff" stroke="#0000ff" points="182.44,-819.1859 172.5743,-815.3235 177.8781,-824.4953 182.44,-819.1859"/>
<text text-anchor="middle" x="275" y="-848.8" font-family="Times,serif" font-size="14.00" fill="#000000">has_unit exactly 1 &#160;&#160;</text>
</g>
<!-- density -->
<g id="node18" class="node">
<title>density</title>
<polygon fill="#ffffe0" stroke="#000000" points="828,-319 760,-319 760,-283 828,-283 828,-319"/>
<text text-anchor="middle" x="794" y="-297.3" font-family="Bitstream Vera Sans" font-size="14.00" fill="#000000">density</text>
</g>
<!-- density&#45;&gt;real -->
<g id="edge25" class="edge">
<title>density&#45;&gt;real</title>
<path fill="none" stroke="#0000ff" d="M759.8254,-314.1048C708.9206,-333.3485 609.945,-369.7037 524,-395 452.4042,-416.0729 254.858,-435.3344 201,-487 175.2986,-511.6551 164.1657,-552.3237 159.418,-579.626"/>
<polygon fill="#0000ff" stroke="#0000ff" points="155.9261,-579.3038 157.8457,-589.7233 162.8427,-580.3809 155.9261,-579.3038"/>
<text text-anchor="middle" x="445.5" y="-430.8" font-family="Times,serif" font-size="14.00" fill="#000000">has_type exactly 1 &#160;&#160;</text>
</g>
<!-- density&#45;&gt;kg/m³ -->
<g id="edge24" class="edge">
<title>density&#45;&gt;kg/m³</title>
<path fill="none" stroke="#0000ff" d="M759.7115,-289.6973C738.9161,-283.3487 711.7097,-275.9318 687,-272 551.8323,-250.492 388.8812,-249.3928 314.9487,-250.2178"/>
<polygon fill="#0000ff" stroke="#0000ff" points="314.654,-246.7212 304.7005,-250.3513 314.7453,-253.7206 314.654,-246.7212"/>
<text text-anchor="middle" x="614.5" y="-275.8" font-family="Times,serif" font-size="14.00" fill="#000000">has_unit exactly 1 &#160;&#160;</text>
</g>
<!-- energy_per_area -->
<g id="node19" class="node">
<title>energy_per_area</title>
<polygon fill="#ffffe0" stroke="#000000" points="515,-967 376,-967 376,-931 515,-931 515,-967"/>
<text text-anchor="middle" x="445.5" y="-945.3" font-family="Bitstream Vera Sans" font-size="14.00" fill="#000000">energy_per_area</text>
</g>
<!-- energy_per_area&#45;&gt;real -->
<g id="edge27" class="edge">
<title>energy_per_area&#45;&gt;real</title>
<path fill="none" stroke="#0000ff" d="M380.4895,-930.9631C375.6879,-928.3574 371.1194,-925.3861 367,-922 354.6923,-911.8833 362.0349,-900.1607 349,-891 294.2949,-852.5544 246.0446,-913.4136 201,-864 170.3412,-830.3675 195.7281,-703.6933 183,-660 180.5324,-651.5293 176.6376,-642.8294 172.5659,-635.0279"/>
<polygon fill="#0000ff" stroke="#0000ff" points="175.4956,-633.0931 167.5956,-626.0333 169.3688,-636.4787 175.4956,-633.0931"/>
<text text-anchor="middle" x="275" y="-894.8" font-family="Times,serif" font-size="14.00" fill="#000000">has_type exactly 1 &#160;&#160;</text>
</g>
<!-- energy_per_area&#45;&gt;J/m² -->
<g id="edge26" class="edge">
<title>energy_per_area&#45;&gt;J/m²</title>
<path fill="none" stroke="#0000ff" d="M401.9392,-967.1478C385.5844,-973.3337 366.6747,-979.7528 349,-984 295.7704,-996.791 232.5498,-1003.0068 193.3449,-1005.8453"/>
<polygon fill="#0000ff" stroke="#0000ff" points="192.9296,-1002.3655 183.1933,-1006.5433 193.4098,-1009.349 192.9296,-1002.3655"/>
<text text-anchor="middle" x="275" y="-1008.8" font-family="Times,serif" font-size="14.00" fill="#000000">has_unit exactly 1 &#160;&#160;</text>
</g>
<!-- work_of_separation -->
<g id="node20" class="node">
<title>work_of_separation</title>
<polygon fill="#ffffe0" stroke="#000000" points="873,-914 715,-914 715,-878 873,-878 873,-914"/>
<text text-anchor="middle" x="794" y="-892.3" font-family="Bitstream Vera Sans" font-size="14.00" fill="#000000">work_of_separation</text>
</g>
<!-- work_of_separation&#45;&gt;real -->
<g id="edge29" class="edge">
<title>work_of_separation&#45;&gt;real</title>
<path fill="none" stroke="#0000ff" d="M714.7268,-883.942C599.8139,-866.0689 397.3181,-832.945 367,-817 356.9867,-811.7338 359.0027,-804.2864 349,-799 289.8129,-767.7195 247.7124,-818.9534 201,-771 166.1266,-735.2002 198.7137,-707.4432 183,-660 180.226,-651.6247 176.2324,-642.9555 172.164,-635.153"/>
<polygon fill="#0000ff" stroke="#0000ff" points="175.1076,-633.2408 167.2413,-626.1435 168.9648,-636.5972 175.1076,-633.2408"/>
<text text-anchor="middle" x="445.5" y="-855.8" font-family="Times,serif" font-size="14.00" fill="#000000">has_type exactly 1 &#160;&#160;</text>
</g>
<!-- work_of_separation&#45;&gt;J/m² -->
<g id="edge28" class="edge">
<title>work_of_separation&#45;&gt;J/m²</title>
<path fill="none" stroke="#0000ff" d="M764.5595,-914.2056C743.6055,-926.4554 714.4164,-942.1156 687,-952 542.5109,-1004.0923 501.7478,-1007.9115 349,-1024 283.5841,-1030.8901 265.8206,-1035.1808 201,-1024 198.3342,-1023.5402 195.617,-1022.9377 192.9049,-1022.2364"/>
<polygon fill="#0000ff" stroke="#0000ff" points="193.7892,-1018.8478 183.2059,-1019.3423 191.7876,-1025.5556 193.7892,-1018.8478"/>
<text text-anchor="middle" x="445.5" y="-1024.8" font-family="Times,serif" font-size="14.00" fill="#000000">has_unit exactly 1 &#160;&#160;</text>
</g>
<!-- work_of_separation&#45;&gt;energy_per_area -->
<g id="edge9" class="edge">
<title>work_of_separation&#45;&gt;energy_per_area</title>
<path fill="none" stroke="#000000" d="M714.92,-908.0265C658.1798,-916.6556 582.019,-928.2381 525.1495,-936.8869"/>
<polygon fill="none" stroke="#000000" points="524.483,-933.4479 515.1229,-938.4117 525.5355,-940.3683 524.483,-933.4479"/>
<text text-anchor="middle" x="614.5" y="-936.8" font-family="Times,serif" font-size="14.00" fill="#000000">is_a</text>
</g>
<!-- pressure -->
<g id="node21" class="node">
<title>pressure</title>
<polygon fill="#ffffe0" stroke="#000000" points="485.5,-493 405.5,-493 405.5,-457 485.5,-457 485.5,-493"/>
<text text-anchor="middle" x="445.5" y="-471.3" font-family="Bitstream Vera Sans" font-size="14.00" fill="#000000">pressure</text>
</g>
<!-- pressure&#45;&gt;real -->
<g id="edge31" class="edge">
<title>pressure&#45;&gt;real</title>
<path fill="none" stroke="#0000ff" d="M405.4941,-479.9856C354.2761,-487.9445 264.5678,-507.3297 201,-551 189.438,-558.9429 179.4262,-570.7479 171.801,-581.5577"/>
<polygon fill="#0000ff" stroke="#0000ff" points="168.8586,-579.6616 166.2134,-589.9209 174.679,-583.5504 168.8586,-579.6616"/>
<text text-anchor="middle" x="275" y="-554.8" font-family="Times,serif" font-size="14.00" fill="#000000">has_type exactly 1 &#160;&#160;</text>
</g>
<!-- pressure&#45;&gt;Pa -->
<g id="edge30" class="edge">
<title>pressure&#45;&gt;Pa</title>
<path fill="none" stroke="#0000ff" d="M405.323,-465.2717C391.829,-460.3961 377.5443,-453.2673 367,-443 352.7419,-429.1164 364.2468,-414.79 349,-402 304.6704,-364.8137 235.5458,-356.1823 193.1687,-354.6495"/>
<polygon fill="#0000ff" stroke="#0000ff" points="193.0856,-351.1465 183.0026,-354.3997 192.9135,-358.1444 193.0856,-351.1465"/>
<text text-anchor="middle" x="275" y="-405.8" font-family="Times,serif" font-size="14.00" fill="#000000">has_unit exactly 1 &#160;&#160;</text>
</g>
<!-- stiffness_tensor -->
<g id="node22" class="node">
<title>stiffness_tensor</title>
<polygon fill="#ffffe0" stroke="#000000" points="858.5,-456 729.5,-456 729.5,-420 858.5,-420 858.5,-456"/>
<text text-anchor="middle" x="794" y="-434.3" font-family="Bitstream Vera Sans" font-size="14.00" fill="#000000">stiffness_tensor</text>
</g>
<!-- stiffness_tensor&#45;&gt;real -->
<g id="edge33" class="edge">
<title>stiffness_tensor&#45;&gt;real</title>
<path fill="none" stroke="#0000ff" d="M775.6741,-456.2814C755.6625,-475.1119 721.7989,-503.7916 687,-519 597.2579,-558.2206 298.6379,-592.8665 193.2331,-604.1472"/>
<polygon fill="#0000ff" stroke="#0000ff" points="192.6477,-600.6896 183.0732,-605.226 193.3869,-607.6505 192.6477,-600.6896"/>
<text text-anchor="middle" x="445.5" y="-585.8" font-family="Times,serif" font-size="14.00" fill="#000000">has_type exactly 36 &#160;&#160;</text>
</g>
<!-- stiffness_tensor&#45;&gt;Pa -->
<g id="edge32" class="edge">
<title>stiffness_tensor&#45;&gt;Pa</title>
<path fill="none" stroke="#0000ff" d="M729.418,-421.7707C676.1433,-406.4312 600.1413,-379.9229 542,-341 532.3339,-334.529 534.6857,-326.5962 524,-322 465.2803,-296.7428 274.946,-330.8134 193.5168,-347.1441"/>
<polygon fill="#0000ff" stroke="#0000ff" points="192.3345,-343.8125 183.2292,-349.2295 193.7252,-350.6729 192.3345,-343.8125"/>
<text text-anchor="middle" x="445.5" y="-325.8" font-family="Times,serif" font-size="14.00" fill="#000000">has_unit exactly 1 &#160;&#160;</text>
</g>
<!-- stiffness_tensor&#45;&gt;pressure -->
<g id="edge10" class="edge">
<title>stiffness_tensor&#45;&gt;pressure</title>
<path fill="none" stroke="#000000" d="M729.3972,-442.4403C678.4154,-446.2336 605.5429,-452.2965 542,-460 526.9569,-461.8237 510.6556,-464.2023 495.8081,-466.5261"/>
<polygon fill="none" stroke="#000000" points="495.1208,-463.0913 485.7947,-468.1186 496.2203,-470.0044 495.1208,-463.0913"/>
<text text-anchor="middle" x="614.5" y="-463.8" font-family="Times,serif" font-size="14.00" fill="#000000">is_a</text>
</g>
<!-- traction_separation -->
<g id="node23" class="node">
<title>traction_separation</title>
<polygon fill="#ffffe0" stroke="#000000" points="871.5,-591 716.5,-591 716.5,-555 871.5,-555 871.5,-591"/>
<text text-anchor="middle" x="794" y="-569.3" font-family="Bitstream Vera Sans" font-size="14.00" fill="#000000">traction_separation</text>
</g>
<!-- traction_separation&#45;&gt;real -->
<g id="edge35" class="edge">
<title>traction_separation&#45;&gt;real</title>
<path fill="none" stroke="#0000ff" d="M716.2133,-589.801C706.4156,-591.4639 696.4999,-592.9293 687,-594 502.7024,-614.7713 280.2606,-611.5472 193.3466,-609.2098"/>
<polygon fill="#0000ff" stroke="#0000ff" points="193.2859,-605.7068 183.1913,-608.9238 193.0887,-612.704 193.2859,-605.7068"/>
<text text-anchor="middle" x="445.5" y="-613.8" font-family="Times,serif" font-size="14.00" fill="#000000">has_type exactly 1 &#160;&#160;</text>
</g>
<!-- traction_separation&#45;&gt;Pa -->
<g id="edge34" class="edge">
<title>traction_separation&#45;&gt;Pa</title>
<path fill="none" stroke="#0000ff" d="M716.1683,-565.0038C610.4881,-553.3069 427.8015,-529.8667 367,-502 357.5333,-497.6612 357.777,-492.6043 349,-487 287.6718,-447.8404 257.0088,-463.4503 201,-417 189.2523,-407.2572 178.9948,-393.7916 171.2519,-381.8981"/>
<polygon fill="#0000ff" stroke="#0000ff" points="174.0928,-379.8387 165.838,-373.1972 168.1494,-383.5369 174.0928,-379.8387"/>
<text text-anchor="middle" x="445.5" y="-542.8" font-family="Times,serif" font-size="14.00" fill="#000000">has_unit exactly 1 &#160;&#160;</text>
</g>
<!-- traction_separation&#45;&gt;pressure -->
<g id="edge11" class="edge">
<title>traction_separation&#45;&gt;pressure</title>
<path fill="none" stroke="#000000" d="M774.0173,-554.7947C753.7207,-537.4752 720.5765,-512.2918 687,-500 653.0436,-487.5691 556.1253,-480.5713 495.8933,-477.3077"/>
<polygon fill="none" stroke="#000000" points="495.9975,-473.8084 485.8275,-476.7784 495.6299,-480.7988 495.9975,-473.8084"/>
<text text-anchor="middle" x="614.5" y="-503.8" font-family="Times,serif" font-size="14.00" fill="#000000">is_a</text>
</g>
<!-- atomic_number -->
<g id="node24" class="node">
<title>atomic_number</title>
<polygon fill="#ffffe0" stroke="#000000" points="1652.5,-36 1523.5,-36 1523.5,0 1652.5,0 1652.5,-36"/>
<text text-anchor="middle" x="1588" y="-14.3" font-family="Bitstream Vera Sans" font-size="14.00" fill="#000000">atomic_number</text>
</g>
<!-- atomic_number&#45;&gt;integer -->
<g id="edge36" class="edge">
<title>atomic_number&#45;&gt;integer</title>
<path fill="none" stroke="#0000ff" d="M1523.2998,-18C1435.7127,-18 1281.7088,-18 1206.2277,-18"/>
<polygon fill="#0000ff" stroke="#0000ff" points="1206.1133,-14.5001 1196.1133,-18 1206.1132,-21.5001 1206.1133,-14.5001"/>
<text text-anchor="middle" x="1371" y="-21.8" font-family="Times,serif" font-size="14.00" fill="#000000">has_type exactly 1 &#160;&#160;</text>
</g>
<!-- lattice_vector -->
<g id="node25" class="node">
<title>lattice_vector</title>
<polygon fill="#ffffe0" stroke="#000000" points="502,-143 389,-143 389,-107 502,-107 502,-143"/>
<text text-anchor="middle" x="445.5" y="-121.3" font-family="Bitstream Vera Sans" font-size="14.00" fill="#000000">lattice_vector</text>
</g>
<!-- lattice_vector&#45;&gt;real -->
<g id="edge38" class="edge">
<title>lattice_vector&#45;&gt;real</title>
<path fill="none" stroke="#0000ff" d="M388.9723,-142.9857C375.9396,-146.6893 362.0655,-150.2829 349,-153 316.5358,-159.7514 223.9472,-148.064 201,-172 184.7932,-188.9051 185.3894,-358.7033 183,-382 175.6782,-453.3887 165.1566,-537.2273 159.6599,-579.9242"/>
<polygon fill="#0000ff" stroke="#0000ff" points="156.1865,-579.4941 158.3758,-589.8603 163.1287,-580.3914 156.1865,-579.4941"/>
<text text-anchor="middle" x="275" y="-175.8" font-family="Times,serif" font-size="14.00" fill="#000000">has_type exactly 3 &#160;&#160;</text>
</g>
<!-- lattice_vector&#45;&gt;m -->
<g id="edge37" class="edge">
<title>lattice_vector&#45;&gt;m</title>
<path fill="none" stroke="#0000ff" d="M393.8232,-106.9557C343.2216,-92.2059 264.6668,-77.1866 201,-100 193.6685,-102.6271 186.6762,-107.0212 180.4824,-111.8816"/>
<polygon fill="#0000ff" stroke="#0000ff" points="177.8781,-109.5047 172.5743,-118.6765 182.44,-114.8141 177.8781,-109.5047"/>
<text text-anchor="middle" x="275" y="-103.8" font-family="Times,serif" font-size="14.00" fill="#000000">has_unit exactly 1 &#160;&#160;</text>
</g>
<!-- spacegroup -->
<g id="node26" class="node">
<title>spacegroup</title>
<polygon fill="#ffffe0" stroke="#000000" points="1212.5,-90 1111.5,-90 1111.5,-54 1212.5,-54 1212.5,-90"/>
<text text-anchor="middle" x="1162" y="-68.3" font-family="Bitstream Vera Sans" font-size="14.00" fill="#000000">spacegroup</text>
</g>
<!-- spacegroup&#45;&gt;string -->
<g id="edge39" class="edge">
<title>spacegroup&#45;&gt;string</title>
<path fill="none" stroke="#0000ff" d="M1111.2175,-72C1036.7281,-72 899.4562,-72 832.6082,-72"/>
<polygon fill="#0000ff" stroke="#0000ff" points="832.5046,-68.5001 822.5045,-72 832.5045,-75.5001 832.5046,-68.5001"/>
<text text-anchor="middle" x="990" y="-75.8" font-family="Times,serif" font-size="14.00" fill="#000000">has_type exactly 1 &#160;&#160;</text>
</g>
<!-- plasticity -->
<g id="node27" class="node">
<title>plasticity</title>
<polygon fill="#ffffe0" stroke="#000000" points="654.5,-332 574.5,-332 574.5,-296 654.5,-296 654.5,-332"/>
<text text-anchor="middle" x="614.5" y="-310.3" font-family="Bitstream Vera Sans" font-size="14.00" fill="#000000">plasticity</text>
</g>
<!-- plasticity&#45;&gt;real -->
<g id="edge41" class="edge">
<title>plasticity&#45;&gt;real</title>
<path fill="none" stroke="#0000ff" d="M574.4167,-326.0047C558.7006,-330.6994 540.5095,-336.1187 524,-341 451.8812,-362.3231 252.6897,-387.3742 201,-442 182.262,-461.8023 167.3598,-537.8147 160.3551,-579.7727"/>
<polygon fill="#0000ff" stroke="#0000ff" points="156.8594,-579.4639 158.708,-589.8962 163.7685,-580.588 156.8594,-579.4639"/>
<text text-anchor="middle" x="445.5" y="-379.8" font-family="Times,serif" font-size="14.00" fill="#000000">has_type min 2 &#160;&#160;</text>
</g>
<!-- plasticity&#45;&gt;Pa -->
<g id="edge40" class="edge">
<title>plasticity&#45;&gt;Pa</title>
<path fill="none" stroke="#0000ff" d="M574.1534,-298.1182C558.7193,-292.8315 540.7899,-287.6244 524,-285 452.9037,-273.8872 265.0782,-275.2563 201,-308 191.192,-313.0118 182.3275,-321.0236 175.1106,-329.0232"/>
<polygon fill="#0000ff" stroke="#0000ff" points="172.2349,-327.0043 168.4688,-336.9072 177.5884,-331.5143 172.2349,-327.0043"/>
<text text-anchor="middle" x="445.5" y="-288.8" font-family="Times,serif" font-size="14.00" fill="#000000">has_unit exactly 1 &#160;&#160;</text>
</g>
<!-- vertex -->
<g id="node28" class="node">
<title>vertex</title>
<polygon fill="#ffffe0" stroke="#000000" points="1193,-210 1131,-210 1131,-174 1193,-174 1193,-210"/>
<text text-anchor="middle" x="1162" y="-188.3" font-family="Bitstream Vera Sans" font-size="14.00" fill="#000000">vertex</text>
</g>
<!-- vertex&#45;&gt;position -->
<g id="edge42" class="edge">
<title>vertex&#45;&gt;position</title>
<path fill="none" stroke="#0000ff" d="M1130.7522,-191.433C1017.4799,-189.3779 627.9757,-182.3108 492.4393,-179.8517"/>
<polygon fill="#0000ff" stroke="#0000ff" points="492.4347,-176.3511 482.3728,-179.669 492.3076,-183.3499 492.4347,-176.3511"/>
<text text-anchor="middle" x="794" y="-190.8" font-family="Times,serif" font-size="14.00" fill="#000000">has_property exactly 1 &#160;&#160;</text>
</g>
<!-- interface -->
<g id="node29" class="node">
<title>interface</title>
<polygon fill="#ffffe0" stroke="#000000" points="1202,-640 1122,-640 1122,-604 1202,-604 1202,-640"/>
<text text-anchor="middle" x="1162" y="-618.3" font-family="Bitstream Vera Sans" font-size="14.00" fill="#000000">interface</text>
</g>
<!-- interface&#45;&gt;area -->
<g id="edge43" class="edge">
<title>interface&#45;&gt;area</title>
<path fill="none" stroke="#0000ff" d="M1121.9426,-631.3924C995.3704,-661.0702 605.1716,-752.5613 482.6848,-781.2812"/>
<polygon fill="#0000ff" stroke="#0000ff" points="481.6073,-777.9388 472.6703,-783.6293 483.2053,-784.754 481.6073,-777.9388"/>
<text text-anchor="middle" x="794" y="-731.8" font-family="Times,serif" font-size="14.00" fill="#000000">has_property exactly 1 &#160;&#160;</text>
</g>
<!-- interface&#45;&gt;work_of_separation -->
<g id="edge44" class="edge">
<title>interface&#45;&gt;work_of_separation</title>
<path fill="none" stroke="#0000ff" d="M1137.6764,-640.1895C1121.1376,-652.5525 1098.7561,-669.2733 1079,-684 987.6721,-752.0779 879.7587,-832.2871 826.7428,-871.6772"/>
<polygon fill="#0000ff" stroke="#0000ff" points="824.3511,-869.0938 818.4113,-877.8671 828.5257,-874.7128 824.3511,-869.0938"/>
<text text-anchor="middle" x="990" y="-818.8" font-family="Times,serif" font-size="14.00" fill="#000000">has_property exactly 1 &#160;&#160;</text>
</g>
<!-- interface&#45;&gt;traction_separation -->
<g id="edge45" class="edge">
<title>interface&#45;&gt;traction_separation</title>
<path fill="none" stroke="#0000ff" d="M1121.917,-616.6629C1064.6001,-609.031 957.7486,-594.8035 881.5973,-584.6638"/>
<polygon fill="#0000ff" stroke="#0000ff" points="881.9076,-581.1743 871.5331,-583.3237 880.9837,-588.113 881.9076,-581.1743"/>
<text text-anchor="middle" x="990" y="-613.8" font-family="Times,serif" font-size="14.00" fill="#000000">has_property exactly 1 &#160;&#160;</text>
</g>
<!-- crystal_unit_cell -->
<g id="node30" class="node">
<title>crystal_unit_cell</title>
<polygon fill="#ffffe0" stroke="#000000" points="1227,-144 1097,-144 1097,-108 1227,-108 1227,-144"/>
<text text-anchor="middle" x="1162" y="-122.3" font-family="Bitstream Vera Sans" font-size="14.00" fill="#000000">crystal_unit_cell</text>
</g>
<!-- crystal_unit_cell&#45;&gt;stiffness_tensor -->
<g id="edge47" class="edge">
<title>crystal_unit_cell&#45;&gt;stiffness_tensor</title>
<path fill="none" stroke="#0000ff" d="M1096.8003,-136.9829C1028.1725,-149.9195 926.5853,-173.4412 901,-203 864.2662,-245.4387 905.4577,-276.56 883,-328 868.6438,-360.8833 841.697,-392.0519 821.2004,-412.7578"/>
<polygon fill="#0000ff" stroke="#0000ff" points="818.629,-410.3782 813.9761,-419.8967 823.5493,-415.3573 818.629,-410.3782"/>
<text text-anchor="middle" x="990" y="-206.8" font-family="Times,serif" font-size="14.00" fill="#000000">has_property exactly 1 &#160;&#160;</text>
</g>
<!-- crystal_unit_cell&#45;&gt;lattice_vector -->
<g id="edge46" class="edge">
<title>crystal_unit_cell&#45;&gt;lattice_vector</title>
<path fill="none" stroke="#0000ff" d="M1096.8342,-125.909C961.1726,-125.7197 649.6593,-125.2849 512.4615,-125.0935"/>
<polygon fill="#0000ff" stroke="#0000ff" points="512.1047,-121.5931 502.0998,-125.079 512.0948,-128.593 512.1047,-121.5931"/>
<text text-anchor="middle" x="794" y="-129.8" font-family="Times,serif" font-size="14.00" fill="#000000">has_property exactly 3 &#160;&#160;</text>
</g>
<!-- crystal -->
<g id="node31" class="node">
<title>crystal</title>
<polygon fill="#ffffe0" stroke="#000000" points="1620,-113 1556,-113 1556,-77 1620,-77 1620,-113"/>
<text text-anchor="middle" x="1588" y="-91.3" font-family="Bitstream Vera Sans" font-size="14.00" fill="#000000">crystal</text>
</g>
<!-- crystal&#45;&gt;spacegroup -->
<g id="edge49" class="edge">
<title>crystal&#45;&gt;spacegroup</title>
<path fill="none" stroke="#0000ff" d="M1555.6915,-89.017C1538.3541,-86.063 1516.5818,-82.7623 1497,-81 1401.5682,-72.4115 1290.2799,-71.1486 1223.0319,-71.3403"/>
<polygon fill="#0000ff" stroke="#0000ff" points="1222.6119,-67.8418 1212.6263,-71.3826 1222.6405,-74.8418 1222.6119,-67.8418"/>
<text text-anchor="middle" x="1371" y="-84.8" font-family="Times,serif" font-size="14.00" fill="#000000">has_property exactly 1 &#160;&#160;</text>
</g>
<!-- crystal&#45;&gt;crystal_unit_cell -->
<g id="edge48" class="edge">
<title>crystal&#45;&gt;crystal_unit_cell</title>
<path fill="none" stroke="#0000ff" d="M1555.9808,-97.33C1488.7703,-102.2209 1331.4283,-113.6707 1237.1788,-120.5292"/>
<polygon fill="#0000ff" stroke="#0000ff" points="1236.8545,-117.0435 1227.1349,-121.2601 1237.3626,-124.025 1236.8545,-117.0435"/>
<text text-anchor="middle" x="1371" y="-123.8" font-family="Times,serif" font-size="14.00" fill="#000000">has_spatial_direct_part only &#160;&#160;</text>
</g>
<!-- boundary -->
<g id="node32" class="node">
<title>boundary</title>
<polygon fill="#ffffe0" stroke="#000000" points="1630.5,-640 1545.5,-640 1545.5,-604 1630.5,-604 1630.5,-640"/>
<text text-anchor="middle" x="1588" y="-618.3" font-family="Bitstream Vera Sans" font-size="14.00" fill="#000000">boundary</text>
</g>
<!-- boundary&#45;&gt;interface -->
<g id="edge50" class="edge">
<title>boundary&#45;&gt;interface</title>
<path fill="none" stroke="#0000ff" d="M1545.203,-622C1466.0084,-622 1296.9839,-622 1212.3987,-622"/>
<polygon fill="#0000ff" stroke="#0000ff" points="1212.2682,-618.5001 1202.2681,-622 1212.2681,-625.5001 1212.2682,-618.5001"/>
<text text-anchor="middle" x="1371" y="-625.8" font-family="Times,serif" font-size="14.00" fill="#000000">has_space_slice exactly 1 &#160;&#160;</text>
</g>
<!-- phase -->
<g id="node33" class="node">
<title>phase</title>
<polygon fill="#ffffe0" stroke="#000000" points="1192,-409 1132,-409 1132,-373 1192,-373 1192,-409"/>
<text text-anchor="middle" x="1162" y="-387.3" font-family="Bitstream Vera Sans" font-size="14.00" fill="#000000">phase</text>
</g>
<!-- phase&#45;&gt;density -->
<g id="edge52" class="edge">
<title>phase&#45;&gt;density</title>
<path fill="none" stroke="#0000ff" d="M1144.6322,-372.9759C1125.0477,-353.1295 1093.9856,-323.1969 1079,-317 1036.747,-299.5274 907.3302,-298.9306 838.3599,-299.9593"/>
<polygon fill="#0000ff" stroke="#0000ff" points="838.1761,-296.4618 828.236,-300.1285 838.2932,-303.4608 838.1761,-296.4618"/>
<text text-anchor="middle" x="990" y="-320.8" font-family="Times,serif" font-size="14.00" fill="#000000">has_property exactly 1 &#160;&#160;</text>
</g>
<!-- phase&#45;&gt;stiffness_tensor -->
<g id="edge51" class="edge">
<title>phase&#45;&gt;stiffness_tensor</title>
<path fill="none" stroke="#0000ff" d="M1131.7728,-397.927C1116.093,-401.333 1096.5886,-405.2796 1079,-408 1068.7004,-409.593 949.7554,-421.9562 868.8214,-430.3062"/>
<polygon fill="#0000ff" stroke="#0000ff" points="868.2451,-426.8469 858.6569,-431.3544 868.9632,-433.81 868.2451,-426.8469"/>
<text text-anchor="middle" x="990" y="-430.8" font-family="Times,serif" font-size="14.00" fill="#000000">has_property exactly 1 &#160;&#160;</text>
</g>
<!-- phase&#45;&gt;plasticity -->
<g id="edge53" class="edge">
<title>phase&#45;&gt;plasticity</title>
<path fill="none" stroke="#0000ff" d="M1131.7382,-389.6746C1082.9802,-387.2902 984.0898,-381.4261 901,-370 817.4016,-358.504 721.3523,-338.2728 664.4123,-325.5322"/>
<polygon fill="#0000ff" stroke="#0000ff" points="665.1146,-322.1028 654.5902,-323.3218 663.5778,-328.932 665.1146,-322.1028"/>
<text text-anchor="middle" x="990" y="-390.8" font-family="Times,serif" font-size="14.00" fill="#000000">has_property exactly 1 &#160;&#160;</text>
</g>
<!-- rve -->
<g id="node34" class="node">
<title>rve</title>
<polygon fill="#ffffe0" stroke="#000000" points="1189,-318 1135,-318 1135,-282 1189,-282 1189,-318"/>
<text text-anchor="middle" x="1162" y="-296.3" font-family="Bitstream Vera Sans" font-size="14.00" fill="#000000">rve</text>
</g>
<!-- rve&#45;&gt;density -->
<g id="edge55" class="edge">
<title>rve&#45;&gt;density</title>
<path fill="none" stroke="#0000ff" d="M1134.6598,-291.2635C1118.6298,-286.6014 1097.8798,-281.3514 1079,-279 1000.4954,-269.2227 979.7048,-270.9926 901,-279 880.2088,-281.1153 857.491,-285.4858 838.3576,-289.7782"/>
<polygon fill="#0000ff" stroke="#0000ff" points="837.3775,-286.4123 828.4207,-292.0714 838.9516,-293.233 837.3775,-286.4123"/>
<text text-anchor="middle" x="990" y="-282.8" font-family="Times,serif" font-size="14.00" fill="#000000">has_property exactly 1 &#160;&#160;</text>
</g>
<!-- rve&#45;&gt;stiffness_tensor -->
<g id="edge54" class="edge">
<title>rve&#45;&gt;stiffness_tensor</title>
<path fill="none" stroke="#0000ff" d="M1134.8714,-312.3573C1118.9118,-319.1431 1098.1618,-327.1431 1079,-332 1001.6764,-351.5992 974.6532,-324.3688 901,-355 869.0474,-368.2886 838.4645,-393.7359 818.2399,-412.9666"/>
<polygon fill="#0000ff" stroke="#0000ff" points="815.7427,-410.513 811.0145,-419.9943 820.6233,-415.5309 815.7427,-410.513"/>
<text text-anchor="middle" x="990" y="-358.8" font-family="Times,serif" font-size="14.00" fill="#000000">has_property exactly 1 &#160;&#160;</text>
</g>
<!-- rve&#45;&gt;plasticity -->
<g id="edge56" class="edge">
<title>rve&#45;&gt;plasticity</title>
<path fill="none" stroke="#0000ff" d="M1134.7793,-291.5867C1122.6176,-287.1191 1108.4731,-280.9008 1097,-273 1087.4196,-266.4026 1089.6857,-258.5962 1079,-254 926.0859,-188.2268 865.9107,-231.3785 705,-274 689.0627,-278.2214 672.3551,-284.8998 657.6949,-291.5995"/>
<polygon fill="#0000ff" stroke="#0000ff" points="655.9437,-288.5553 648.3853,-295.9797 658.9239,-294.8893 655.9437,-288.5553"/>
<text text-anchor="middle" x="990" y="-257.8" font-family="Times,serif" font-size="14.00" fill="#000000">has_property exactly 1 &#160;&#160;</text>
</g>
<!-- hooks_law -->
<g id="node35" class="node">
<title>hooks_law</title>
<polygon fill="#ffffe0" stroke="#000000" points="1208,-486 1116,-486 1116,-450 1208,-450 1208,-486"/>
<text text-anchor="middle" x="1162" y="-464.3" font-family="Bitstream Vera Sans" font-size="14.00" fill="#000000">hooks_law</text>
</g>
<!-- hooks_law&#45;&gt;stiffness_tensor -->
<g id="edge57" class="edge">
<title>hooks_law&#45;&gt;stiffness_tensor</title>
<path fill="none" stroke="#0000ff" d="M1115.7652,-464.2309C1053.7248,-459.1732 942.7913,-450.1297 868.79,-444.097"/>
<polygon fill="#0000ff" stroke="#0000ff" points="868.8535,-440.5907 858.6021,-443.2665 868.2846,-447.5675 868.8535,-440.5907"/>
<text text-anchor="middle" x="990" y="-463.8" font-family="Times,serif" font-size="14.00" fill="#000000">has_part some &#160;&#160;</text>
</g>
<!-- fem_unit_cell -->
<g id="node36" class="node">
<title>fem_unit_cell</title>
<polygon fill="#ffffe0" stroke="#000000" points="1217.5,-264 1106.5,-264 1106.5,-228 1217.5,-228 1217.5,-264"/>
<text text-anchor="middle" x="1162" y="-242.3" font-family="Bitstream Vera Sans" font-size="14.00" fill="#000000">fem_unit_cell</text>
</g>
<!-- cohesive_element -->
<g id="node37" class="node">
<title>cohesive_element</title>
<polygon fill="#ffffe0" stroke="#000000" points="1661,-390 1515,-390 1515,-354 1661,-354 1661,-390"/>
<text text-anchor="middle" x="1588" y="-368.3" font-family="Bitstream Vera Sans" font-size="14.00" fill="#000000">cohesive_element</text>
</g>
<!-- cohesive_element&#45;&gt;vertex -->
<g id="edge59" class="edge">
<title>cohesive_element&#45;&gt;vertex</title>
<path fill="none" stroke="#0000ff" d="M1577.1746,-353.6726C1562.357,-330.5036 1533.3976,-291.5299 1497,-274 1446.4035,-249.6317 1291.6272,-286.3007 1245,-255 1230.1477,-245.0297 1240.0837,-231.1991 1227,-219 1220.0428,-212.5132 1211.3066,-207.4749 1202.5165,-203.6039"/>
<polygon fill="#0000ff" stroke="#0000ff" points="1203.625,-200.2784 1193.0389,-199.8484 1201.0462,-206.7862 1203.625,-200.2784"/>
<text text-anchor="middle" x="1371" y="-277.8" font-family="Times,serif" font-size="14.00" fill="#000000">has_space_slice min 6 &#160;&#160;</text>
</g>
<!-- cohesive_element&#45;&gt;interface -->
<g id="edge60" class="edge">
<title>cohesive_element&#45;&gt;interface</title>
<path fill="none" stroke="#0000ff" d="M1557.02,-390.1808C1481.0945,-434.738 1285.8187,-549.3365 1201.6148,-598.7519"/>
<polygon fill="#0000ff" stroke="#0000ff" points="1199.717,-595.8074 1192.8639,-603.8874 1203.2599,-601.8446 1199.717,-595.8074"/>
<text text-anchor="middle" x="1371" y="-571.8" font-family="Times,serif" font-size="14.00" fill="#000000">has_space_slice exactly 1 &#160;&#160;</text>
</g>
<!-- cohesive_element&#45;&gt;phase -->
<g id="edge58" class="edge">
<title>cohesive_element&#45;&gt;phase</title>
<path fill="none" stroke="#0000ff" d="M1514.768,-375.2662C1424.4845,-379.2929 1274.219,-385.9949 1202.5,-389.1937"/>
<polygon fill="#0000ff" stroke="#0000ff" points="1201.9288,-385.7156 1192.0947,-389.6577 1202.2407,-392.7086 1201.9288,-385.7156"/>
<text text-anchor="middle" x="1371" y="-390.8" font-family="Times,serif" font-size="14.00" fill="#000000">has_spatial_direct_part exactly 2 &#160;&#160;</text>
</g>
<!-- cohesive_element&#45;&gt;fem_unit_cell -->
<g id="edge12" class="edge">
<title>cohesive_element&#45;&gt;fem_unit_cell</title>
<path fill="none" stroke="#000000" d="M1514.5348,-360.4016C1508.6069,-359.556 1502.7061,-358.7442 1497,-358 1441.1525,-350.7161 1288.4976,-366.7765 1245,-331 1224.1545,-313.8548 1245.1797,-292.9498 1227,-273 1226.2387,-272.1645 1225.4475,-271.3542 1224.6296,-270.5683"/>
<polygon fill="none" stroke="#000000" points="1226.6184,-267.6762 1216.6332,-264.1341 1222.2301,-273.1299 1226.6184,-267.6762"/>
<text text-anchor="middle" x="1371" y="-361.8" font-family="Times,serif" font-size="14.00" fill="#000000">is_a</text>
</g>
<!-- bulk_element -->
<g id="node38" class="node">
<title>bulk_element</title>
<polygon fill="#ffffe0" stroke="#000000" points="1644.5,-257 1531.5,-257 1531.5,-221 1644.5,-221 1644.5,-257"/>
<text text-anchor="middle" x="1588" y="-235.3" font-family="Bitstream Vera Sans" font-size="14.00" fill="#000000">bulk_element</text>
</g>
<!-- bulk_element&#45;&gt;vertex -->
<g id="edge62" class="edge">
<title>bulk_element&#45;&gt;vertex</title>
<path fill="none" stroke="#0000ff" d="M1531.4257,-225.3193C1520.0768,-222.9278 1508.1986,-220.674 1497,-219 1391.7718,-203.2704 1266.4825,-196.2502 1203.1008,-193.5127"/>
<polygon fill="#0000ff" stroke="#0000ff" points="1203.2427,-190.0157 1193.1051,-193.0946 1202.95,-197.0095 1203.2427,-190.0157"/>
<text text-anchor="middle" x="1371" y="-222.8" font-family="Times,serif" font-size="14.00" fill="#000000">has_space_slice min 4 &#160;&#160;</text>
</g>
<!-- bulk_element&#45;&gt;phase -->
<g id="edge61" class="edge">
<title>bulk_element&#45;&gt;phase</title>
<path fill="none" stroke="#0000ff" d="M1564.3635,-257.1858C1546.8009,-269.6211 1521.7042,-285.2115 1497,-293 1389.8796,-326.7718 1347.6484,-266.4081 1245,-312 1241.4113,-313.5939 1210.6695,-343.28 1187.638,-365.7952"/>
<polygon fill="#0000ff" stroke="#0000ff" points="1185.1718,-363.3115 1180.4754,-372.8086 1190.0692,-368.3131 1185.1718,-363.3115"/>
<text text-anchor="middle" x="1371" y="-315.8" font-family="Times,serif" font-size="14.00" fill="#000000">has_spatial_direct_part exactly 1 &#160;&#160;</text>
</g>
<!-- bulk_element&#45;&gt;fem_unit_cell -->
<g id="edge13" class="edge">
<title>bulk_element&#45;&gt;fem_unit_cell</title>
<path fill="none" stroke="#000000" d="M1531.2286,-237.9636C1463.1825,-236.9993 1345.7154,-236.2174 1245,-240 1239.4958,-240.2067 1233.7903,-240.4849 1228.0653,-240.8088"/>
<polygon fill="none" stroke="#000000" points="1227.5475,-237.3337 1217.7788,-241.4354 1227.9732,-244.3208 1227.5475,-237.3337"/>
<text text-anchor="middle" x="1371" y="-243.8" font-family="Times,serif" font-size="14.00" fill="#000000">is_a</text>
</g>
</g>
</svg>
